G75*
G71*
%MOMM*%
%OFA0B0*%
%FSLAX53Y53*%
%IPPOS*%
%LPD*%
%ADD31C,0.10000*%
%ADD35C,0.15000*%
%LPD*%X0000000Y0000000D02*
%LPD*%
G01*
D31*
D35*
X0000000Y0055400D02*
X0000000Y0000000D01*
X0013400Y0055400D02*
X0000000Y0055400D01*
X0013400Y0000000D02*
X0013400Y0055400D01*
X0000000Y0000000D02*
X0013400Y0000000D01*
%LPD*%X0014400Y0000000D02*
%LPD*%
G01*
D31*
D35*
X0014400Y0055400D02*
X0014400Y0000000D01*
X0027800Y0055400D02*
X0014400Y0055400D01*
X0027800Y0000000D02*
X0027800Y0055400D01*
X0014400Y0000000D02*
X0027800Y0000000D01*
%LPD*%X0028800Y0000000D02*
%LPD*%
G01*
D31*
D35*
X0028800Y0055400D02*
X0028800Y0000000D01*
X0042200Y0055400D02*
X0028800Y0055400D01*
X0042200Y0000000D02*
X0042200Y0055400D01*
X0028800Y0000000D02*
X0042200Y0000000D01*
%LPD*%X0043200Y0000000D02*
%LPD*%
G01*
D31*
D35*
X0043200Y0055400D02*
X0043200Y0000000D01*
X0056600Y0055400D02*
X0043200Y0055400D01*
X0056600Y0000000D02*
X0056600Y0055400D01*
X0043200Y0000000D02*
X0056600Y0000000D01*
%LPD*%X0057600Y0000000D02*
%LPD*%
G01*
D31*
D35*
X0057600Y0055400D02*
X0057600Y0000000D01*
X0071000Y0055400D02*
X0057600Y0055400D01*
X0071000Y0000000D02*
X0071000Y0055400D01*
X0057600Y0000000D02*
X0071000Y0000000D01*
%LPD*%X0072000Y0000000D02*
%LPD*%
G01*
D31*
D35*
X0072000Y0055400D02*
X0072000Y0000000D01*
X0085400Y0055400D02*
X0072000Y0055400D01*
X0085400Y0000000D02*
X0085400Y0055400D01*
X0072000Y0000000D02*
X0085400Y0000000D01*
%LPD*%X0086400Y0000000D02*
%LPD*%
G01*
D31*
D35*
X0086400Y0055400D02*
X0086400Y0000000D01*
X0099800Y0055400D02*
X0086400Y0055400D01*
X0099800Y0000000D02*
X0099800Y0055400D01*
X0086400Y0000000D02*
X0099800Y0000000D01*
%LPD*%X0100800Y0000000D02*
%LPD*%
G01*
D31*
D35*
X0100800Y0055400D02*
X0100800Y0000000D01*
X0114200Y0055400D02*
X0100800Y0055400D01*
X0114200Y0000000D02*
X0114200Y0055400D01*
X0100800Y0000000D02*
X0114200Y0000000D01*
%LPD*%X0115200Y0000000D02*
%LPD*%
G01*
D31*
D35*
X0115200Y0055400D02*
X0115200Y0000000D01*
X0128600Y0055400D02*
X0115200Y0055400D01*
X0128600Y0000000D02*
X0128600Y0055400D01*
X0115200Y0000000D02*
X0128600Y0000000D01*
%LPD*%X0129600Y0000000D02*
%LPD*%
G01*
D31*
D35*
X0129600Y0055400D02*
X0129600Y0000000D01*
X0143000Y0055400D02*
X0129600Y0055400D01*
X0143000Y0000000D02*
X0143000Y0055400D01*
X0129600Y0000000D02*
X0143000Y0000000D01*
%LPD*%X0144000Y0000000D02*
%LPD*%
G01*
D31*
D35*
X0144000Y0055400D02*
X0144000Y0000000D01*
X0157400Y0055400D02*
X0144000Y0055400D01*
X0157400Y0000000D02*
X0157400Y0055400D01*
X0144000Y0000000D02*
X0157400Y0000000D01*
%LPD*%X0158400Y0000000D02*
%LPD*%
G01*
D31*
D35*
X0158400Y0055400D02*
X0158400Y0000000D01*
X0171800Y0055400D02*
X0158400Y0055400D01*
X0171800Y0000000D02*
X0171800Y0055400D01*
X0158400Y0000000D02*
X0171800Y0000000D01*
%LPD*%X0172800Y0000000D02*
%LPD*%
G01*
D31*
D35*
X0172800Y0055400D02*
X0172800Y0000000D01*
X0186200Y0055400D02*
X0172800Y0055400D01*
X0186200Y0000000D02*
X0186200Y0055400D01*
X0172800Y0000000D02*
X0186200Y0000000D01*
%LPD*%X0187200Y0000000D02*
%LPD*%
G01*
D31*
D35*
X0187200Y0055400D02*
X0187200Y0000000D01*
X0200600Y0055400D02*
X0187200Y0055400D01*
X0200600Y0000000D02*
X0200600Y0055400D01*
X0187200Y0000000D02*
X0200600Y0000000D01*
%LPD*%X0201600Y0000000D02*
%LPD*%
G01*
D31*
D35*
X0201600Y0055400D02*
X0201600Y0000000D01*
X0215000Y0055400D02*
X0201600Y0055400D01*
X0215000Y0000000D02*
X0215000Y0055400D01*
X0201600Y0000000D02*
X0215000Y0000000D01*
%LPD*%X0216000Y0000000D02*
%LPD*%
G01*
D31*
D35*
X0216000Y0055400D02*
X0216000Y0000000D01*
X0229400Y0055400D02*
X0216000Y0055400D01*
X0229400Y0000000D02*
X0229400Y0055400D01*
X0216000Y0000000D02*
X0229400Y0000000D01*
M02*
