G75*
G71*
%MOMM*%
%OFA0B0*%
%FSLAX53Y53*%
%IPPOS*%
%LPD*%
%ADD10R,1.60000X1.30000*%
%ADD22R,1.30000X1.60000*%
%ADD23C,3.25000*%
%ADD25C,1.70800*%
%ADD31C,0.10000*%
%ADD37C,1.90000*%
%ADD44R,1.15000X1.60000*%
%ADD45R,1.10000X0.80000*%
%LPD*%X0000000Y0000000D02*
%LPD*%
G01*
D31*
D44*
X0006506Y0021517D03*
X0006506Y0019617D03*
X0009554Y0025200D03*
X0009554Y0023300D03*
X0006760Y0011103D03*
X0006760Y0009203D03*
X0004220Y0024057D03*
X0004220Y0022157D03*
X0004220Y0025967D03*
X0004220Y0027867D03*
X0002696Y0033074D03*
X0002696Y0031174D03*
X0007522Y0033074D03*
X0007522Y0031174D03*
X0002442Y0039302D03*
X0002442Y0041202D03*
D22*
X0005744Y0023912D03*
X0005744Y0026112D03*
X0001680Y0013244D03*
X0001680Y0015444D03*
X0003458Y0013244D03*
X0003458Y0015444D03*
D23*
X0009010Y0002152D03*
X0004510Y0002152D03*
D25*
X0009252Y0049142D03*
X0007252Y0049142D03*
X0005252Y0049142D03*
X0003252Y0049142D03*
D45*
X0009234Y0043442D03*
X0009234Y0042792D03*
X0009234Y0042142D03*
X0007334Y0042142D03*
X0007334Y0043442D03*
D37*
X0004220Y0032886D03*
X0009100Y0032886D03*
D44*
X0005744Y0043234D03*
X0005744Y0041334D03*
X0006252Y0050986D03*
X0006252Y0052886D03*
D10*
X0007352Y0047364D03*
X0005152Y0047364D03*
%LPD*%X0014400Y0000000D02*
%LPD*%
G01*
D31*
D44*
X0020906Y0021517D03*
X0020906Y0019617D03*
X0023954Y0025200D03*
X0023954Y0023300D03*
X0021160Y0011103D03*
X0021160Y0009203D03*
X0018620Y0024057D03*
X0018620Y0022157D03*
X0018620Y0025967D03*
X0018620Y0027867D03*
X0017096Y0033074D03*
X0017096Y0031174D03*
X0021922Y0033074D03*
X0021922Y0031174D03*
X0016842Y0039302D03*
X0016842Y0041202D03*
D22*
X0020144Y0023912D03*
X0020144Y0026112D03*
X0016080Y0013244D03*
X0016080Y0015444D03*
X0017858Y0013244D03*
X0017858Y0015444D03*
D23*
X0023410Y0002152D03*
X0018910Y0002152D03*
D25*
X0023652Y0049142D03*
X0021652Y0049142D03*
X0019652Y0049142D03*
X0017652Y0049142D03*
D45*
X0023634Y0043442D03*
X0023634Y0042792D03*
X0023634Y0042142D03*
X0021734Y0042142D03*
X0021734Y0043442D03*
D37*
X0018620Y0032886D03*
X0023500Y0032886D03*
D44*
X0020144Y0043234D03*
X0020144Y0041334D03*
X0020652Y0050986D03*
X0020652Y0052886D03*
D10*
X0021752Y0047364D03*
X0019552Y0047364D03*
%LPD*%X0028800Y0000000D02*
%LPD*%
G01*
D31*
D44*
X0035306Y0021517D03*
X0035306Y0019617D03*
X0038354Y0025200D03*
X0038354Y0023300D03*
X0035560Y0011103D03*
X0035560Y0009203D03*
X0033020Y0024057D03*
X0033020Y0022157D03*
X0033020Y0025967D03*
X0033020Y0027867D03*
X0031496Y0033074D03*
X0031496Y0031174D03*
X0036322Y0033074D03*
X0036322Y0031174D03*
X0031242Y0039302D03*
X0031242Y0041202D03*
D22*
X0034544Y0023912D03*
X0034544Y0026112D03*
X0030480Y0013244D03*
X0030480Y0015444D03*
X0032258Y0013244D03*
X0032258Y0015444D03*
D23*
X0037810Y0002152D03*
X0033310Y0002152D03*
D25*
X0038052Y0049142D03*
X0036052Y0049142D03*
X0034052Y0049142D03*
X0032052Y0049142D03*
D45*
X0038034Y0043442D03*
X0038034Y0042792D03*
X0038034Y0042142D03*
X0036134Y0042142D03*
X0036134Y0043442D03*
D37*
X0033020Y0032886D03*
X0037900Y0032886D03*
D44*
X0034544Y0043234D03*
X0034544Y0041334D03*
X0035052Y0050986D03*
X0035052Y0052886D03*
D10*
X0036152Y0047364D03*
X0033952Y0047364D03*
%LPD*%X0043200Y0000000D02*
%LPD*%
G01*
D31*
D44*
X0049706Y0021517D03*
X0049706Y0019617D03*
X0052754Y0025200D03*
X0052754Y0023300D03*
X0049960Y0011103D03*
X0049960Y0009203D03*
X0047420Y0024057D03*
X0047420Y0022157D03*
X0047420Y0025967D03*
X0047420Y0027867D03*
X0045896Y0033074D03*
X0045896Y0031174D03*
X0050722Y0033074D03*
X0050722Y0031174D03*
X0045642Y0039302D03*
X0045642Y0041202D03*
D22*
X0048944Y0023912D03*
X0048944Y0026112D03*
X0044880Y0013244D03*
X0044880Y0015444D03*
X0046658Y0013244D03*
X0046658Y0015444D03*
D23*
X0052210Y0002152D03*
X0047710Y0002152D03*
D25*
X0052452Y0049142D03*
X0050452Y0049142D03*
X0048452Y0049142D03*
X0046452Y0049142D03*
D45*
X0052434Y0043442D03*
X0052434Y0042792D03*
X0052434Y0042142D03*
X0050534Y0042142D03*
X0050534Y0043442D03*
D37*
X0047420Y0032886D03*
X0052300Y0032886D03*
D44*
X0048944Y0043234D03*
X0048944Y0041334D03*
X0049452Y0050986D03*
X0049452Y0052886D03*
D10*
X0050552Y0047364D03*
X0048352Y0047364D03*
%LPD*%X0057600Y0000000D02*
%LPD*%
G01*
D31*
D44*
X0064106Y0021517D03*
X0064106Y0019617D03*
X0067154Y0025200D03*
X0067154Y0023300D03*
X0064360Y0011103D03*
X0064360Y0009203D03*
X0061820Y0024057D03*
X0061820Y0022157D03*
X0061820Y0025967D03*
X0061820Y0027867D03*
X0060296Y0033074D03*
X0060296Y0031174D03*
X0065122Y0033074D03*
X0065122Y0031174D03*
X0060042Y0039302D03*
X0060042Y0041202D03*
D22*
X0063344Y0023912D03*
X0063344Y0026112D03*
X0059280Y0013244D03*
X0059280Y0015444D03*
X0061058Y0013244D03*
X0061058Y0015444D03*
D23*
X0066610Y0002152D03*
X0062110Y0002152D03*
D25*
X0066852Y0049142D03*
X0064852Y0049142D03*
X0062852Y0049142D03*
X0060852Y0049142D03*
D45*
X0066834Y0043442D03*
X0066834Y0042792D03*
X0066834Y0042142D03*
X0064934Y0042142D03*
X0064934Y0043442D03*
D37*
X0061820Y0032886D03*
X0066700Y0032886D03*
D44*
X0063344Y0043234D03*
X0063344Y0041334D03*
X0063852Y0050986D03*
X0063852Y0052886D03*
D10*
X0064952Y0047364D03*
X0062752Y0047364D03*
%LPD*%X0072000Y0000000D02*
%LPD*%
G01*
D31*
D44*
X0078506Y0021517D03*
X0078506Y0019617D03*
X0081554Y0025200D03*
X0081554Y0023300D03*
X0078760Y0011103D03*
X0078760Y0009203D03*
X0076220Y0024057D03*
X0076220Y0022157D03*
X0076220Y0025967D03*
X0076220Y0027867D03*
X0074696Y0033074D03*
X0074696Y0031174D03*
X0079522Y0033074D03*
X0079522Y0031174D03*
X0074442Y0039302D03*
X0074442Y0041202D03*
D22*
X0077744Y0023912D03*
X0077744Y0026112D03*
X0073680Y0013244D03*
X0073680Y0015444D03*
X0075458Y0013244D03*
X0075458Y0015444D03*
D23*
X0081010Y0002152D03*
X0076510Y0002152D03*
D25*
X0081252Y0049142D03*
X0079252Y0049142D03*
X0077252Y0049142D03*
X0075252Y0049142D03*
D45*
X0081234Y0043442D03*
X0081234Y0042792D03*
X0081234Y0042142D03*
X0079334Y0042142D03*
X0079334Y0043442D03*
D37*
X0076220Y0032886D03*
X0081100Y0032886D03*
D44*
X0077744Y0043234D03*
X0077744Y0041334D03*
X0078252Y0050986D03*
X0078252Y0052886D03*
D10*
X0079352Y0047364D03*
X0077152Y0047364D03*
%LPD*%X0086400Y0000000D02*
%LPD*%
G01*
D31*
D44*
X0092906Y0021517D03*
X0092906Y0019617D03*
X0095954Y0025200D03*
X0095954Y0023300D03*
X0093160Y0011103D03*
X0093160Y0009203D03*
X0090620Y0024057D03*
X0090620Y0022157D03*
X0090620Y0025967D03*
X0090620Y0027867D03*
X0089096Y0033074D03*
X0089096Y0031174D03*
X0093922Y0033074D03*
X0093922Y0031174D03*
X0088842Y0039302D03*
X0088842Y0041202D03*
D22*
X0092144Y0023912D03*
X0092144Y0026112D03*
X0088080Y0013244D03*
X0088080Y0015444D03*
X0089858Y0013244D03*
X0089858Y0015444D03*
D23*
X0095410Y0002152D03*
X0090910Y0002152D03*
D25*
X0095652Y0049142D03*
X0093652Y0049142D03*
X0091652Y0049142D03*
X0089652Y0049142D03*
D45*
X0095634Y0043442D03*
X0095634Y0042792D03*
X0095634Y0042142D03*
X0093734Y0042142D03*
X0093734Y0043442D03*
D37*
X0090620Y0032886D03*
X0095500Y0032886D03*
D44*
X0092144Y0043234D03*
X0092144Y0041334D03*
X0092652Y0050986D03*
X0092652Y0052886D03*
D10*
X0093752Y0047364D03*
X0091552Y0047364D03*
%LPD*%X0100800Y0000000D02*
%LPD*%
G01*
D31*
D44*
X0107306Y0021517D03*
X0107306Y0019617D03*
X0110354Y0025200D03*
X0110354Y0023300D03*
X0107560Y0011103D03*
X0107560Y0009203D03*
X0105020Y0024057D03*
X0105020Y0022157D03*
X0105020Y0025967D03*
X0105020Y0027867D03*
X0103496Y0033074D03*
X0103496Y0031174D03*
X0108322Y0033074D03*
X0108322Y0031174D03*
X0103242Y0039302D03*
X0103242Y0041202D03*
D22*
X0106544Y0023912D03*
X0106544Y0026112D03*
X0102480Y0013244D03*
X0102480Y0015444D03*
X0104258Y0013244D03*
X0104258Y0015444D03*
D23*
X0109810Y0002152D03*
X0105310Y0002152D03*
D25*
X0110052Y0049142D03*
X0108052Y0049142D03*
X0106052Y0049142D03*
X0104052Y0049142D03*
D45*
X0110034Y0043442D03*
X0110034Y0042792D03*
X0110034Y0042142D03*
X0108134Y0042142D03*
X0108134Y0043442D03*
D37*
X0105020Y0032886D03*
X0109900Y0032886D03*
D44*
X0106544Y0043234D03*
X0106544Y0041334D03*
X0107052Y0050986D03*
X0107052Y0052886D03*
D10*
X0108152Y0047364D03*
X0105952Y0047364D03*
%LPD*%X0115200Y0000000D02*
%LPD*%
G01*
D31*
D44*
X0121706Y0021517D03*
X0121706Y0019617D03*
X0124754Y0025200D03*
X0124754Y0023300D03*
X0121960Y0011103D03*
X0121960Y0009203D03*
X0119420Y0024057D03*
X0119420Y0022157D03*
X0119420Y0025967D03*
X0119420Y0027867D03*
X0117896Y0033074D03*
X0117896Y0031174D03*
X0122722Y0033074D03*
X0122722Y0031174D03*
X0117642Y0039302D03*
X0117642Y0041202D03*
D22*
X0120944Y0023912D03*
X0120944Y0026112D03*
X0116880Y0013244D03*
X0116880Y0015444D03*
X0118658Y0013244D03*
X0118658Y0015444D03*
D23*
X0124210Y0002152D03*
X0119710Y0002152D03*
D25*
X0124452Y0049142D03*
X0122452Y0049142D03*
X0120452Y0049142D03*
X0118452Y0049142D03*
D45*
X0124434Y0043442D03*
X0124434Y0042792D03*
X0124434Y0042142D03*
X0122534Y0042142D03*
X0122534Y0043442D03*
D37*
X0119420Y0032886D03*
X0124300Y0032886D03*
D44*
X0120944Y0043234D03*
X0120944Y0041334D03*
X0121452Y0050986D03*
X0121452Y0052886D03*
D10*
X0122552Y0047364D03*
X0120352Y0047364D03*
%LPD*%X0129600Y0000000D02*
%LPD*%
G01*
D31*
D44*
X0136106Y0021517D03*
X0136106Y0019617D03*
X0139154Y0025200D03*
X0139154Y0023300D03*
X0136360Y0011103D03*
X0136360Y0009203D03*
X0133820Y0024057D03*
X0133820Y0022157D03*
X0133820Y0025967D03*
X0133820Y0027867D03*
X0132296Y0033074D03*
X0132296Y0031174D03*
X0137122Y0033074D03*
X0137122Y0031174D03*
X0132042Y0039302D03*
X0132042Y0041202D03*
D22*
X0135344Y0023912D03*
X0135344Y0026112D03*
X0131280Y0013244D03*
X0131280Y0015444D03*
X0133058Y0013244D03*
X0133058Y0015444D03*
D23*
X0138610Y0002152D03*
X0134110Y0002152D03*
D25*
X0138852Y0049142D03*
X0136852Y0049142D03*
X0134852Y0049142D03*
X0132852Y0049142D03*
D45*
X0138834Y0043442D03*
X0138834Y0042792D03*
X0138834Y0042142D03*
X0136934Y0042142D03*
X0136934Y0043442D03*
D37*
X0133820Y0032886D03*
X0138700Y0032886D03*
D44*
X0135344Y0043234D03*
X0135344Y0041334D03*
X0135852Y0050986D03*
X0135852Y0052886D03*
D10*
X0136952Y0047364D03*
X0134752Y0047364D03*
%LPD*%X0144000Y0000000D02*
%LPD*%
G01*
D31*
D44*
X0150506Y0021517D03*
X0150506Y0019617D03*
X0153554Y0025200D03*
X0153554Y0023300D03*
X0150760Y0011103D03*
X0150760Y0009203D03*
X0148220Y0024057D03*
X0148220Y0022157D03*
X0148220Y0025967D03*
X0148220Y0027867D03*
X0146696Y0033074D03*
X0146696Y0031174D03*
X0151522Y0033074D03*
X0151522Y0031174D03*
X0146442Y0039302D03*
X0146442Y0041202D03*
D22*
X0149744Y0023912D03*
X0149744Y0026112D03*
X0145680Y0013244D03*
X0145680Y0015444D03*
X0147458Y0013244D03*
X0147458Y0015444D03*
D23*
X0153010Y0002152D03*
X0148510Y0002152D03*
D25*
X0153252Y0049142D03*
X0151252Y0049142D03*
X0149252Y0049142D03*
X0147252Y0049142D03*
D45*
X0153234Y0043442D03*
X0153234Y0042792D03*
X0153234Y0042142D03*
X0151334Y0042142D03*
X0151334Y0043442D03*
D37*
X0148220Y0032886D03*
X0153100Y0032886D03*
D44*
X0149744Y0043234D03*
X0149744Y0041334D03*
X0150252Y0050986D03*
X0150252Y0052886D03*
D10*
X0151352Y0047364D03*
X0149152Y0047364D03*
%LPD*%X0158400Y0000000D02*
%LPD*%
G01*
D31*
D44*
X0164906Y0021517D03*
X0164906Y0019617D03*
X0167954Y0025200D03*
X0167954Y0023300D03*
X0165160Y0011103D03*
X0165160Y0009203D03*
X0162620Y0024057D03*
X0162620Y0022157D03*
X0162620Y0025967D03*
X0162620Y0027867D03*
X0161096Y0033074D03*
X0161096Y0031174D03*
X0165922Y0033074D03*
X0165922Y0031174D03*
X0160842Y0039302D03*
X0160842Y0041202D03*
D22*
X0164144Y0023912D03*
X0164144Y0026112D03*
X0160080Y0013244D03*
X0160080Y0015444D03*
X0161858Y0013244D03*
X0161858Y0015444D03*
D23*
X0167410Y0002152D03*
X0162910Y0002152D03*
D25*
X0167652Y0049142D03*
X0165652Y0049142D03*
X0163652Y0049142D03*
X0161652Y0049142D03*
D45*
X0167634Y0043442D03*
X0167634Y0042792D03*
X0167634Y0042142D03*
X0165734Y0042142D03*
X0165734Y0043442D03*
D37*
X0162620Y0032886D03*
X0167500Y0032886D03*
D44*
X0164144Y0043234D03*
X0164144Y0041334D03*
X0164652Y0050986D03*
X0164652Y0052886D03*
D10*
X0165752Y0047364D03*
X0163552Y0047364D03*
%LPD*%X0172800Y0000000D02*
%LPD*%
G01*
D31*
D44*
X0179306Y0021517D03*
X0179306Y0019617D03*
X0182354Y0025200D03*
X0182354Y0023300D03*
X0179560Y0011103D03*
X0179560Y0009203D03*
X0177020Y0024057D03*
X0177020Y0022157D03*
X0177020Y0025967D03*
X0177020Y0027867D03*
X0175496Y0033074D03*
X0175496Y0031174D03*
X0180322Y0033074D03*
X0180322Y0031174D03*
X0175242Y0039302D03*
X0175242Y0041202D03*
D22*
X0178544Y0023912D03*
X0178544Y0026112D03*
X0174480Y0013244D03*
X0174480Y0015444D03*
X0176258Y0013244D03*
X0176258Y0015444D03*
D23*
X0181810Y0002152D03*
X0177310Y0002152D03*
D25*
X0182052Y0049142D03*
X0180052Y0049142D03*
X0178052Y0049142D03*
X0176052Y0049142D03*
D45*
X0182034Y0043442D03*
X0182034Y0042792D03*
X0182034Y0042142D03*
X0180134Y0042142D03*
X0180134Y0043442D03*
D37*
X0177020Y0032886D03*
X0181900Y0032886D03*
D44*
X0178544Y0043234D03*
X0178544Y0041334D03*
X0179052Y0050986D03*
X0179052Y0052886D03*
D10*
X0180152Y0047364D03*
X0177952Y0047364D03*
%LPD*%X0187200Y0000000D02*
%LPD*%
G01*
D31*
D44*
X0193706Y0021517D03*
X0193706Y0019617D03*
X0196754Y0025200D03*
X0196754Y0023300D03*
X0193960Y0011103D03*
X0193960Y0009203D03*
X0191420Y0024057D03*
X0191420Y0022157D03*
X0191420Y0025967D03*
X0191420Y0027867D03*
X0189896Y0033074D03*
X0189896Y0031174D03*
X0194722Y0033074D03*
X0194722Y0031174D03*
X0189642Y0039302D03*
X0189642Y0041202D03*
D22*
X0192944Y0023912D03*
X0192944Y0026112D03*
X0188880Y0013244D03*
X0188880Y0015444D03*
X0190658Y0013244D03*
X0190658Y0015444D03*
D23*
X0196210Y0002152D03*
X0191710Y0002152D03*
D25*
X0196452Y0049142D03*
X0194452Y0049142D03*
X0192452Y0049142D03*
X0190452Y0049142D03*
D45*
X0196434Y0043442D03*
X0196434Y0042792D03*
X0196434Y0042142D03*
X0194534Y0042142D03*
X0194534Y0043442D03*
D37*
X0191420Y0032886D03*
X0196300Y0032886D03*
D44*
X0192944Y0043234D03*
X0192944Y0041334D03*
X0193452Y0050986D03*
X0193452Y0052886D03*
D10*
X0194552Y0047364D03*
X0192352Y0047364D03*
%LPD*%X0201600Y0000000D02*
%LPD*%
G01*
D31*
D44*
X0208106Y0021517D03*
X0208106Y0019617D03*
X0211154Y0025200D03*
X0211154Y0023300D03*
X0208360Y0011103D03*
X0208360Y0009203D03*
X0205820Y0024057D03*
X0205820Y0022157D03*
X0205820Y0025967D03*
X0205820Y0027867D03*
X0204296Y0033074D03*
X0204296Y0031174D03*
X0209122Y0033074D03*
X0209122Y0031174D03*
X0204042Y0039302D03*
X0204042Y0041202D03*
D22*
X0207344Y0023912D03*
X0207344Y0026112D03*
X0203280Y0013244D03*
X0203280Y0015444D03*
X0205058Y0013244D03*
X0205058Y0015444D03*
D23*
X0210610Y0002152D03*
X0206110Y0002152D03*
D25*
X0210852Y0049142D03*
X0208852Y0049142D03*
X0206852Y0049142D03*
X0204852Y0049142D03*
D45*
X0210834Y0043442D03*
X0210834Y0042792D03*
X0210834Y0042142D03*
X0208934Y0042142D03*
X0208934Y0043442D03*
D37*
X0205820Y0032886D03*
X0210700Y0032886D03*
D44*
X0207344Y0043234D03*
X0207344Y0041334D03*
X0207852Y0050986D03*
X0207852Y0052886D03*
D10*
X0208952Y0047364D03*
X0206752Y0047364D03*
%LPD*%X0216000Y0000000D02*
%LPD*%
G01*
D31*
D44*
X0222506Y0021517D03*
X0222506Y0019617D03*
X0225554Y0025200D03*
X0225554Y0023300D03*
X0222760Y0011103D03*
X0222760Y0009203D03*
X0220220Y0024057D03*
X0220220Y0022157D03*
X0220220Y0025967D03*
X0220220Y0027867D03*
X0218696Y0033074D03*
X0218696Y0031174D03*
X0223522Y0033074D03*
X0223522Y0031174D03*
X0218442Y0039302D03*
X0218442Y0041202D03*
D22*
X0221744Y0023912D03*
X0221744Y0026112D03*
X0217680Y0013244D03*
X0217680Y0015444D03*
X0219458Y0013244D03*
X0219458Y0015444D03*
D23*
X0225010Y0002152D03*
X0220510Y0002152D03*
D25*
X0225252Y0049142D03*
X0223252Y0049142D03*
X0221252Y0049142D03*
X0219252Y0049142D03*
D45*
X0225234Y0043442D03*
X0225234Y0042792D03*
X0225234Y0042142D03*
X0223334Y0042142D03*
X0223334Y0043442D03*
D37*
X0220220Y0032886D03*
X0225100Y0032886D03*
D44*
X0221744Y0043234D03*
X0221744Y0041334D03*
X0222252Y0050986D03*
X0222252Y0052886D03*
D10*
X0223352Y0047364D03*
X0221152Y0047364D03*
M02*
