M48
METRIC,LZ
%
T01C0.406400
X002972Y001434
X003150Y001434
X003353Y001892
X002946Y002527
X003785Y003035
X002946Y003263
X003073Y003416
X003632Y003466
X003886Y003492
X003531Y004228
X003708Y004279
X003912Y004279
X004412Y001434
X004590Y001434
X004793Y001892
X004386Y002527
X005225Y003035
X004386Y003263
X004513Y003416
X005072Y003466
X005326Y003492
X004971Y004228
X005148Y004279
X005352Y004279
T02C0.609600
X003023Y000952
X003480Y001257
X004039Y002095
X003759Y002222
X004140Y002323
X003734Y002501
X003734Y002781
X004140Y002781
X004140Y003111
X003023Y003924
X004039Y003924
X003023Y004051
X004140Y004101
X003353Y004305
X003073Y005016
X003251Y005270
X004463Y000952
X004920Y001257
X005479Y002095
X005199Y002222
X005580Y002323
X005174Y002501
X005174Y002781
X005580Y002781
X005580Y003111
X004463Y003924
X005479Y003924
X004463Y004051
X005580Y004101
X004793Y004305
X004513Y005016
X004691Y005270
M30
