G75*
G71*
%MOMM*%
%OFA0B0*%
%FSLAX53Y53*%
%IPPOS*%
%LPD*%
%ADD22R,1.30000X1.60000*%
%ADD23C,3.25000*%
%ADD25C,1.70800*%
%ADD26R,1.60000X1.00000*%
%ADD28R,1.60000X1.15000*%
%ADD29R,1.00000X1.60000*%
%ADD31C,0.10000*%
%ADD37C,1.90000*%
%ADD44R,1.15000X1.60000*%
%ADD46R,0.90800X1.54300*%
%ADD47R,1.00000X1.90000*%
%ADD48R,1.70000X2.10000*%
%LPD*%X0000000Y0000000D02*
%LPD*%
G01*
D31*
D44*
X0008030Y0016183D03*
X0008030Y0014283D03*
D28*
X0010128Y0006597D03*
X0012028Y0006597D03*
D22*
X0006633Y0016333D03*
X0006633Y0014133D03*
X0006633Y0008967D03*
X0006633Y0006767D03*
X0008284Y0008967D03*
X0008284Y0006767D03*
D46*
X0005109Y0011169D03*
X0003839Y0011169D03*
X0002569Y0011169D03*
X0001299Y0011169D03*
X0001299Y0017519D03*
X0002569Y0017519D03*
X0003839Y0017519D03*
X0005109Y0017519D03*
D29*
X0003198Y0020508D03*
X0003998Y0020508D03*
X0004798Y0020508D03*
X0005598Y0020508D03*
X0006398Y0020508D03*
X0007198Y0020508D03*
X0007998Y0020508D03*
X0008798Y0020508D03*
D26*
X0010248Y0021958D03*
X0010248Y0022758D03*
X0010248Y0023558D03*
X0010248Y0024358D03*
X0010248Y0025158D03*
X0010248Y0025958D03*
X0010248Y0026758D03*
X0010248Y0027558D03*
D29*
X0008798Y0029008D03*
X0007998Y0029008D03*
X0007198Y0029008D03*
X0006398Y0029008D03*
X0005598Y0029008D03*
X0004798Y0029008D03*
X0003998Y0029008D03*
X0003198Y0029008D03*
D26*
X0001748Y0027558D03*
X0001748Y0026758D03*
X0001748Y0025958D03*
X0001748Y0025158D03*
X0001748Y0024358D03*
X0001748Y0023558D03*
X0001748Y0022758D03*
X0001748Y0021958D03*
D47*
X0001807Y0037126D03*
X0003077Y0037126D03*
X0004347Y0037126D03*
X0005617Y0037126D03*
X0006887Y0037126D03*
X0008157Y0037126D03*
X0009427Y0037126D03*
X0010697Y0037126D03*
X0010697Y0046426D03*
X0009427Y0046426D03*
X0008157Y0046426D03*
X0006887Y0046426D03*
X0005617Y0046426D03*
X0004347Y0046426D03*
X0003077Y0046426D03*
X0001807Y0046426D03*
D23*
X0009010Y0002152D03*
X0004510Y0002152D03*
D48*
X0007760Y0004502D03*
X0005760Y0004502D03*
X0010260Y0004502D03*
X0003260Y0004502D03*
D25*
X0009252Y0049142D03*
X0007252Y0049142D03*
X0005252Y0049142D03*
X0003252Y0049142D03*
D37*
X0004220Y0032886D03*
X0009100Y0032886D03*
%LPD*%X0014400Y0000000D02*
%LPD*%
G01*
D31*
D44*
X0022430Y0016183D03*
X0022430Y0014283D03*
D28*
X0024528Y0006597D03*
X0026428Y0006597D03*
D22*
X0021033Y0016333D03*
X0021033Y0014133D03*
X0021033Y0008967D03*
X0021033Y0006767D03*
X0022684Y0008967D03*
X0022684Y0006767D03*
D46*
X0019509Y0011169D03*
X0018239Y0011169D03*
X0016969Y0011169D03*
X0015699Y0011169D03*
X0015699Y0017519D03*
X0016969Y0017519D03*
X0018239Y0017519D03*
X0019509Y0017519D03*
D29*
X0017598Y0020508D03*
X0018398Y0020508D03*
X0019198Y0020508D03*
X0019998Y0020508D03*
X0020798Y0020508D03*
X0021598Y0020508D03*
X0022398Y0020508D03*
X0023198Y0020508D03*
D26*
X0024648Y0021958D03*
X0024648Y0022758D03*
X0024648Y0023558D03*
X0024648Y0024358D03*
X0024648Y0025158D03*
X0024648Y0025958D03*
X0024648Y0026758D03*
X0024648Y0027558D03*
D29*
X0023198Y0029008D03*
X0022398Y0029008D03*
X0021598Y0029008D03*
X0020798Y0029008D03*
X0019998Y0029008D03*
X0019198Y0029008D03*
X0018398Y0029008D03*
X0017598Y0029008D03*
D26*
X0016148Y0027558D03*
X0016148Y0026758D03*
X0016148Y0025958D03*
X0016148Y0025158D03*
X0016148Y0024358D03*
X0016148Y0023558D03*
X0016148Y0022758D03*
X0016148Y0021958D03*
D47*
X0016207Y0037126D03*
X0017477Y0037126D03*
X0018747Y0037126D03*
X0020017Y0037126D03*
X0021287Y0037126D03*
X0022557Y0037126D03*
X0023827Y0037126D03*
X0025097Y0037126D03*
X0025097Y0046426D03*
X0023827Y0046426D03*
X0022557Y0046426D03*
X0021287Y0046426D03*
X0020017Y0046426D03*
X0018747Y0046426D03*
X0017477Y0046426D03*
X0016207Y0046426D03*
D23*
X0023410Y0002152D03*
X0018910Y0002152D03*
D48*
X0022160Y0004502D03*
X0020160Y0004502D03*
X0024660Y0004502D03*
X0017660Y0004502D03*
D25*
X0023652Y0049142D03*
X0021652Y0049142D03*
X0019652Y0049142D03*
X0017652Y0049142D03*
D37*
X0018620Y0032886D03*
X0023500Y0032886D03*
%LPD*%X0028800Y0000000D02*
%LPD*%
G01*
D31*
D44*
X0036830Y0016183D03*
X0036830Y0014283D03*
D28*
X0038928Y0006597D03*
X0040828Y0006597D03*
D22*
X0035433Y0016333D03*
X0035433Y0014133D03*
X0035433Y0008967D03*
X0035433Y0006767D03*
X0037084Y0008967D03*
X0037084Y0006767D03*
D46*
X0033909Y0011169D03*
X0032639Y0011169D03*
X0031369Y0011169D03*
X0030099Y0011169D03*
X0030099Y0017519D03*
X0031369Y0017519D03*
X0032639Y0017519D03*
X0033909Y0017519D03*
D29*
X0031998Y0020508D03*
X0032798Y0020508D03*
X0033598Y0020508D03*
X0034398Y0020508D03*
X0035198Y0020508D03*
X0035998Y0020508D03*
X0036798Y0020508D03*
X0037598Y0020508D03*
D26*
X0039048Y0021958D03*
X0039048Y0022758D03*
X0039048Y0023558D03*
X0039048Y0024358D03*
X0039048Y0025158D03*
X0039048Y0025958D03*
X0039048Y0026758D03*
X0039048Y0027558D03*
D29*
X0037598Y0029008D03*
X0036798Y0029008D03*
X0035998Y0029008D03*
X0035198Y0029008D03*
X0034398Y0029008D03*
X0033598Y0029008D03*
X0032798Y0029008D03*
X0031998Y0029008D03*
D26*
X0030548Y0027558D03*
X0030548Y0026758D03*
X0030548Y0025958D03*
X0030548Y0025158D03*
X0030548Y0024358D03*
X0030548Y0023558D03*
X0030548Y0022758D03*
X0030548Y0021958D03*
D47*
X0030607Y0037126D03*
X0031877Y0037126D03*
X0033147Y0037126D03*
X0034417Y0037126D03*
X0035687Y0037126D03*
X0036957Y0037126D03*
X0038227Y0037126D03*
X0039497Y0037126D03*
X0039497Y0046426D03*
X0038227Y0046426D03*
X0036957Y0046426D03*
X0035687Y0046426D03*
X0034417Y0046426D03*
X0033147Y0046426D03*
X0031877Y0046426D03*
X0030607Y0046426D03*
D23*
X0037810Y0002152D03*
X0033310Y0002152D03*
D48*
X0036560Y0004502D03*
X0034560Y0004502D03*
X0039060Y0004502D03*
X0032060Y0004502D03*
D25*
X0038052Y0049142D03*
X0036052Y0049142D03*
X0034052Y0049142D03*
X0032052Y0049142D03*
D37*
X0033020Y0032886D03*
X0037900Y0032886D03*
%LPD*%X0043200Y0000000D02*
%LPD*%
G01*
D31*
D44*
X0051230Y0016183D03*
X0051230Y0014283D03*
D28*
X0053328Y0006597D03*
X0055228Y0006597D03*
D22*
X0049833Y0016333D03*
X0049833Y0014133D03*
X0049833Y0008967D03*
X0049833Y0006767D03*
X0051484Y0008967D03*
X0051484Y0006767D03*
D46*
X0048309Y0011169D03*
X0047039Y0011169D03*
X0045769Y0011169D03*
X0044499Y0011169D03*
X0044499Y0017519D03*
X0045769Y0017519D03*
X0047039Y0017519D03*
X0048309Y0017519D03*
D29*
X0046398Y0020508D03*
X0047198Y0020508D03*
X0047998Y0020508D03*
X0048798Y0020508D03*
X0049598Y0020508D03*
X0050398Y0020508D03*
X0051198Y0020508D03*
X0051998Y0020508D03*
D26*
X0053448Y0021958D03*
X0053448Y0022758D03*
X0053448Y0023558D03*
X0053448Y0024358D03*
X0053448Y0025158D03*
X0053448Y0025958D03*
X0053448Y0026758D03*
X0053448Y0027558D03*
D29*
X0051998Y0029008D03*
X0051198Y0029008D03*
X0050398Y0029008D03*
X0049598Y0029008D03*
X0048798Y0029008D03*
X0047998Y0029008D03*
X0047198Y0029008D03*
X0046398Y0029008D03*
D26*
X0044948Y0027558D03*
X0044948Y0026758D03*
X0044948Y0025958D03*
X0044948Y0025158D03*
X0044948Y0024358D03*
X0044948Y0023558D03*
X0044948Y0022758D03*
X0044948Y0021958D03*
D47*
X0045007Y0037126D03*
X0046277Y0037126D03*
X0047547Y0037126D03*
X0048817Y0037126D03*
X0050087Y0037126D03*
X0051357Y0037126D03*
X0052627Y0037126D03*
X0053897Y0037126D03*
X0053897Y0046426D03*
X0052627Y0046426D03*
X0051357Y0046426D03*
X0050087Y0046426D03*
X0048817Y0046426D03*
X0047547Y0046426D03*
X0046277Y0046426D03*
X0045007Y0046426D03*
D23*
X0052210Y0002152D03*
X0047710Y0002152D03*
D48*
X0050960Y0004502D03*
X0048960Y0004502D03*
X0053460Y0004502D03*
X0046460Y0004502D03*
D25*
X0052452Y0049142D03*
X0050452Y0049142D03*
X0048452Y0049142D03*
X0046452Y0049142D03*
D37*
X0047420Y0032886D03*
X0052300Y0032886D03*
%LPD*%X0057600Y0000000D02*
%LPD*%
G01*
D31*
D44*
X0065630Y0016183D03*
X0065630Y0014283D03*
D28*
X0067728Y0006597D03*
X0069628Y0006597D03*
D22*
X0064233Y0016333D03*
X0064233Y0014133D03*
X0064233Y0008967D03*
X0064233Y0006767D03*
X0065884Y0008967D03*
X0065884Y0006767D03*
D46*
X0062709Y0011169D03*
X0061439Y0011169D03*
X0060169Y0011169D03*
X0058899Y0011169D03*
X0058899Y0017519D03*
X0060169Y0017519D03*
X0061439Y0017519D03*
X0062709Y0017519D03*
D29*
X0060798Y0020508D03*
X0061598Y0020508D03*
X0062398Y0020508D03*
X0063198Y0020508D03*
X0063998Y0020508D03*
X0064798Y0020508D03*
X0065598Y0020508D03*
X0066398Y0020508D03*
D26*
X0067848Y0021958D03*
X0067848Y0022758D03*
X0067848Y0023558D03*
X0067848Y0024358D03*
X0067848Y0025158D03*
X0067848Y0025958D03*
X0067848Y0026758D03*
X0067848Y0027558D03*
D29*
X0066398Y0029008D03*
X0065598Y0029008D03*
X0064798Y0029008D03*
X0063998Y0029008D03*
X0063198Y0029008D03*
X0062398Y0029008D03*
X0061598Y0029008D03*
X0060798Y0029008D03*
D26*
X0059348Y0027558D03*
X0059348Y0026758D03*
X0059348Y0025958D03*
X0059348Y0025158D03*
X0059348Y0024358D03*
X0059348Y0023558D03*
X0059348Y0022758D03*
X0059348Y0021958D03*
D47*
X0059407Y0037126D03*
X0060677Y0037126D03*
X0061947Y0037126D03*
X0063217Y0037126D03*
X0064487Y0037126D03*
X0065757Y0037126D03*
X0067027Y0037126D03*
X0068297Y0037126D03*
X0068297Y0046426D03*
X0067027Y0046426D03*
X0065757Y0046426D03*
X0064487Y0046426D03*
X0063217Y0046426D03*
X0061947Y0046426D03*
X0060677Y0046426D03*
X0059407Y0046426D03*
D23*
X0066610Y0002152D03*
X0062110Y0002152D03*
D48*
X0065360Y0004502D03*
X0063360Y0004502D03*
X0067860Y0004502D03*
X0060860Y0004502D03*
D25*
X0066852Y0049142D03*
X0064852Y0049142D03*
X0062852Y0049142D03*
X0060852Y0049142D03*
D37*
X0061820Y0032886D03*
X0066700Y0032886D03*
%LPD*%X0072000Y0000000D02*
%LPD*%
G01*
D31*
D44*
X0080030Y0016183D03*
X0080030Y0014283D03*
D28*
X0082128Y0006597D03*
X0084028Y0006597D03*
D22*
X0078633Y0016333D03*
X0078633Y0014133D03*
X0078633Y0008967D03*
X0078633Y0006767D03*
X0080284Y0008967D03*
X0080284Y0006767D03*
D46*
X0077109Y0011169D03*
X0075839Y0011169D03*
X0074569Y0011169D03*
X0073299Y0011169D03*
X0073299Y0017519D03*
X0074569Y0017519D03*
X0075839Y0017519D03*
X0077109Y0017519D03*
D29*
X0075198Y0020508D03*
X0075998Y0020508D03*
X0076798Y0020508D03*
X0077598Y0020508D03*
X0078398Y0020508D03*
X0079198Y0020508D03*
X0079998Y0020508D03*
X0080798Y0020508D03*
D26*
X0082248Y0021958D03*
X0082248Y0022758D03*
X0082248Y0023558D03*
X0082248Y0024358D03*
X0082248Y0025158D03*
X0082248Y0025958D03*
X0082248Y0026758D03*
X0082248Y0027558D03*
D29*
X0080798Y0029008D03*
X0079998Y0029008D03*
X0079198Y0029008D03*
X0078398Y0029008D03*
X0077598Y0029008D03*
X0076798Y0029008D03*
X0075998Y0029008D03*
X0075198Y0029008D03*
D26*
X0073748Y0027558D03*
X0073748Y0026758D03*
X0073748Y0025958D03*
X0073748Y0025158D03*
X0073748Y0024358D03*
X0073748Y0023558D03*
X0073748Y0022758D03*
X0073748Y0021958D03*
D47*
X0073807Y0037126D03*
X0075077Y0037126D03*
X0076347Y0037126D03*
X0077617Y0037126D03*
X0078887Y0037126D03*
X0080157Y0037126D03*
X0081427Y0037126D03*
X0082697Y0037126D03*
X0082697Y0046426D03*
X0081427Y0046426D03*
X0080157Y0046426D03*
X0078887Y0046426D03*
X0077617Y0046426D03*
X0076347Y0046426D03*
X0075077Y0046426D03*
X0073807Y0046426D03*
D23*
X0081010Y0002152D03*
X0076510Y0002152D03*
D48*
X0079760Y0004502D03*
X0077760Y0004502D03*
X0082260Y0004502D03*
X0075260Y0004502D03*
D25*
X0081252Y0049142D03*
X0079252Y0049142D03*
X0077252Y0049142D03*
X0075252Y0049142D03*
D37*
X0076220Y0032886D03*
X0081100Y0032886D03*
%LPD*%X0086400Y0000000D02*
%LPD*%
G01*
D31*
D44*
X0094430Y0016183D03*
X0094430Y0014283D03*
D28*
X0096528Y0006597D03*
X0098428Y0006597D03*
D22*
X0093033Y0016333D03*
X0093033Y0014133D03*
X0093033Y0008967D03*
X0093033Y0006767D03*
X0094684Y0008967D03*
X0094684Y0006767D03*
D46*
X0091509Y0011169D03*
X0090239Y0011169D03*
X0088969Y0011169D03*
X0087699Y0011169D03*
X0087699Y0017519D03*
X0088969Y0017519D03*
X0090239Y0017519D03*
X0091509Y0017519D03*
D29*
X0089598Y0020508D03*
X0090398Y0020508D03*
X0091198Y0020508D03*
X0091998Y0020508D03*
X0092798Y0020508D03*
X0093598Y0020508D03*
X0094398Y0020508D03*
X0095198Y0020508D03*
D26*
X0096648Y0021958D03*
X0096648Y0022758D03*
X0096648Y0023558D03*
X0096648Y0024358D03*
X0096648Y0025158D03*
X0096648Y0025958D03*
X0096648Y0026758D03*
X0096648Y0027558D03*
D29*
X0095198Y0029008D03*
X0094398Y0029008D03*
X0093598Y0029008D03*
X0092798Y0029008D03*
X0091998Y0029008D03*
X0091198Y0029008D03*
X0090398Y0029008D03*
X0089598Y0029008D03*
D26*
X0088148Y0027558D03*
X0088148Y0026758D03*
X0088148Y0025958D03*
X0088148Y0025158D03*
X0088148Y0024358D03*
X0088148Y0023558D03*
X0088148Y0022758D03*
X0088148Y0021958D03*
D47*
X0088207Y0037126D03*
X0089477Y0037126D03*
X0090747Y0037126D03*
X0092017Y0037126D03*
X0093287Y0037126D03*
X0094557Y0037126D03*
X0095827Y0037126D03*
X0097097Y0037126D03*
X0097097Y0046426D03*
X0095827Y0046426D03*
X0094557Y0046426D03*
X0093287Y0046426D03*
X0092017Y0046426D03*
X0090747Y0046426D03*
X0089477Y0046426D03*
X0088207Y0046426D03*
D23*
X0095410Y0002152D03*
X0090910Y0002152D03*
D48*
X0094160Y0004502D03*
X0092160Y0004502D03*
X0096660Y0004502D03*
X0089660Y0004502D03*
D25*
X0095652Y0049142D03*
X0093652Y0049142D03*
X0091652Y0049142D03*
X0089652Y0049142D03*
D37*
X0090620Y0032886D03*
X0095500Y0032886D03*
%LPD*%X0100800Y0000000D02*
%LPD*%
G01*
D31*
D44*
X0108830Y0016183D03*
X0108830Y0014283D03*
D28*
X0110928Y0006597D03*
X0112828Y0006597D03*
D22*
X0107433Y0016333D03*
X0107433Y0014133D03*
X0107433Y0008967D03*
X0107433Y0006767D03*
X0109084Y0008967D03*
X0109084Y0006767D03*
D46*
X0105909Y0011169D03*
X0104639Y0011169D03*
X0103369Y0011169D03*
X0102099Y0011169D03*
X0102099Y0017519D03*
X0103369Y0017519D03*
X0104639Y0017519D03*
X0105909Y0017519D03*
D29*
X0103998Y0020508D03*
X0104798Y0020508D03*
X0105598Y0020508D03*
X0106398Y0020508D03*
X0107198Y0020508D03*
X0107998Y0020508D03*
X0108798Y0020508D03*
X0109598Y0020508D03*
D26*
X0111048Y0021958D03*
X0111048Y0022758D03*
X0111048Y0023558D03*
X0111048Y0024358D03*
X0111048Y0025158D03*
X0111048Y0025958D03*
X0111048Y0026758D03*
X0111048Y0027558D03*
D29*
X0109598Y0029008D03*
X0108798Y0029008D03*
X0107998Y0029008D03*
X0107198Y0029008D03*
X0106398Y0029008D03*
X0105598Y0029008D03*
X0104798Y0029008D03*
X0103998Y0029008D03*
D26*
X0102548Y0027558D03*
X0102548Y0026758D03*
X0102548Y0025958D03*
X0102548Y0025158D03*
X0102548Y0024358D03*
X0102548Y0023558D03*
X0102548Y0022758D03*
X0102548Y0021958D03*
D47*
X0102607Y0037126D03*
X0103877Y0037126D03*
X0105147Y0037126D03*
X0106417Y0037126D03*
X0107687Y0037126D03*
X0108957Y0037126D03*
X0110227Y0037126D03*
X0111497Y0037126D03*
X0111497Y0046426D03*
X0110227Y0046426D03*
X0108957Y0046426D03*
X0107687Y0046426D03*
X0106417Y0046426D03*
X0105147Y0046426D03*
X0103877Y0046426D03*
X0102607Y0046426D03*
D23*
X0109810Y0002152D03*
X0105310Y0002152D03*
D48*
X0108560Y0004502D03*
X0106560Y0004502D03*
X0111060Y0004502D03*
X0104060Y0004502D03*
D25*
X0110052Y0049142D03*
X0108052Y0049142D03*
X0106052Y0049142D03*
X0104052Y0049142D03*
D37*
X0105020Y0032886D03*
X0109900Y0032886D03*
%LPD*%X0115200Y0000000D02*
%LPD*%
G01*
D31*
D44*
X0123230Y0016183D03*
X0123230Y0014283D03*
D28*
X0125328Y0006597D03*
X0127228Y0006597D03*
D22*
X0121833Y0016333D03*
X0121833Y0014133D03*
X0121833Y0008967D03*
X0121833Y0006767D03*
X0123484Y0008967D03*
X0123484Y0006767D03*
D46*
X0120309Y0011169D03*
X0119039Y0011169D03*
X0117769Y0011169D03*
X0116499Y0011169D03*
X0116499Y0017519D03*
X0117769Y0017519D03*
X0119039Y0017519D03*
X0120309Y0017519D03*
D29*
X0118398Y0020508D03*
X0119198Y0020508D03*
X0119998Y0020508D03*
X0120798Y0020508D03*
X0121598Y0020508D03*
X0122398Y0020508D03*
X0123198Y0020508D03*
X0123998Y0020508D03*
D26*
X0125448Y0021958D03*
X0125448Y0022758D03*
X0125448Y0023558D03*
X0125448Y0024358D03*
X0125448Y0025158D03*
X0125448Y0025958D03*
X0125448Y0026758D03*
X0125448Y0027558D03*
D29*
X0123998Y0029008D03*
X0123198Y0029008D03*
X0122398Y0029008D03*
X0121598Y0029008D03*
X0120798Y0029008D03*
X0119998Y0029008D03*
X0119198Y0029008D03*
X0118398Y0029008D03*
D26*
X0116948Y0027558D03*
X0116948Y0026758D03*
X0116948Y0025958D03*
X0116948Y0025158D03*
X0116948Y0024358D03*
X0116948Y0023558D03*
X0116948Y0022758D03*
X0116948Y0021958D03*
D47*
X0117007Y0037126D03*
X0118277Y0037126D03*
X0119547Y0037126D03*
X0120817Y0037126D03*
X0122087Y0037126D03*
X0123357Y0037126D03*
X0124627Y0037126D03*
X0125897Y0037126D03*
X0125897Y0046426D03*
X0124627Y0046426D03*
X0123357Y0046426D03*
X0122087Y0046426D03*
X0120817Y0046426D03*
X0119547Y0046426D03*
X0118277Y0046426D03*
X0117007Y0046426D03*
D23*
X0124210Y0002152D03*
X0119710Y0002152D03*
D48*
X0122960Y0004502D03*
X0120960Y0004502D03*
X0125460Y0004502D03*
X0118460Y0004502D03*
D25*
X0124452Y0049142D03*
X0122452Y0049142D03*
X0120452Y0049142D03*
X0118452Y0049142D03*
D37*
X0119420Y0032886D03*
X0124300Y0032886D03*
%LPD*%X0129600Y0000000D02*
%LPD*%
G01*
D31*
D44*
X0137630Y0016183D03*
X0137630Y0014283D03*
D28*
X0139728Y0006597D03*
X0141628Y0006597D03*
D22*
X0136233Y0016333D03*
X0136233Y0014133D03*
X0136233Y0008967D03*
X0136233Y0006767D03*
X0137884Y0008967D03*
X0137884Y0006767D03*
D46*
X0134709Y0011169D03*
X0133439Y0011169D03*
X0132169Y0011169D03*
X0130899Y0011169D03*
X0130899Y0017519D03*
X0132169Y0017519D03*
X0133439Y0017519D03*
X0134709Y0017519D03*
D29*
X0132798Y0020508D03*
X0133598Y0020508D03*
X0134398Y0020508D03*
X0135198Y0020508D03*
X0135998Y0020508D03*
X0136798Y0020508D03*
X0137598Y0020508D03*
X0138398Y0020508D03*
D26*
X0139848Y0021958D03*
X0139848Y0022758D03*
X0139848Y0023558D03*
X0139848Y0024358D03*
X0139848Y0025158D03*
X0139848Y0025958D03*
X0139848Y0026758D03*
X0139848Y0027558D03*
D29*
X0138398Y0029008D03*
X0137598Y0029008D03*
X0136798Y0029008D03*
X0135998Y0029008D03*
X0135198Y0029008D03*
X0134398Y0029008D03*
X0133598Y0029008D03*
X0132798Y0029008D03*
D26*
X0131348Y0027558D03*
X0131348Y0026758D03*
X0131348Y0025958D03*
X0131348Y0025158D03*
X0131348Y0024358D03*
X0131348Y0023558D03*
X0131348Y0022758D03*
X0131348Y0021958D03*
D47*
X0131407Y0037126D03*
X0132677Y0037126D03*
X0133947Y0037126D03*
X0135217Y0037126D03*
X0136487Y0037126D03*
X0137757Y0037126D03*
X0139027Y0037126D03*
X0140297Y0037126D03*
X0140297Y0046426D03*
X0139027Y0046426D03*
X0137757Y0046426D03*
X0136487Y0046426D03*
X0135217Y0046426D03*
X0133947Y0046426D03*
X0132677Y0046426D03*
X0131407Y0046426D03*
D23*
X0138610Y0002152D03*
X0134110Y0002152D03*
D48*
X0137360Y0004502D03*
X0135360Y0004502D03*
X0139860Y0004502D03*
X0132860Y0004502D03*
D25*
X0138852Y0049142D03*
X0136852Y0049142D03*
X0134852Y0049142D03*
X0132852Y0049142D03*
D37*
X0133820Y0032886D03*
X0138700Y0032886D03*
%LPD*%X0144000Y0000000D02*
%LPD*%
G01*
D31*
D44*
X0152030Y0016183D03*
X0152030Y0014283D03*
D28*
X0154128Y0006597D03*
X0156028Y0006597D03*
D22*
X0150633Y0016333D03*
X0150633Y0014133D03*
X0150633Y0008967D03*
X0150633Y0006767D03*
X0152284Y0008967D03*
X0152284Y0006767D03*
D46*
X0149109Y0011169D03*
X0147839Y0011169D03*
X0146569Y0011169D03*
X0145299Y0011169D03*
X0145299Y0017519D03*
X0146569Y0017519D03*
X0147839Y0017519D03*
X0149109Y0017519D03*
D29*
X0147198Y0020508D03*
X0147998Y0020508D03*
X0148798Y0020508D03*
X0149598Y0020508D03*
X0150398Y0020508D03*
X0151198Y0020508D03*
X0151998Y0020508D03*
X0152798Y0020508D03*
D26*
X0154248Y0021958D03*
X0154248Y0022758D03*
X0154248Y0023558D03*
X0154248Y0024358D03*
X0154248Y0025158D03*
X0154248Y0025958D03*
X0154248Y0026758D03*
X0154248Y0027558D03*
D29*
X0152798Y0029008D03*
X0151998Y0029008D03*
X0151198Y0029008D03*
X0150398Y0029008D03*
X0149598Y0029008D03*
X0148798Y0029008D03*
X0147998Y0029008D03*
X0147198Y0029008D03*
D26*
X0145748Y0027558D03*
X0145748Y0026758D03*
X0145748Y0025958D03*
X0145748Y0025158D03*
X0145748Y0024358D03*
X0145748Y0023558D03*
X0145748Y0022758D03*
X0145748Y0021958D03*
D47*
X0145807Y0037126D03*
X0147077Y0037126D03*
X0148347Y0037126D03*
X0149617Y0037126D03*
X0150887Y0037126D03*
X0152157Y0037126D03*
X0153427Y0037126D03*
X0154697Y0037126D03*
X0154697Y0046426D03*
X0153427Y0046426D03*
X0152157Y0046426D03*
X0150887Y0046426D03*
X0149617Y0046426D03*
X0148347Y0046426D03*
X0147077Y0046426D03*
X0145807Y0046426D03*
D23*
X0153010Y0002152D03*
X0148510Y0002152D03*
D48*
X0151760Y0004502D03*
X0149760Y0004502D03*
X0154260Y0004502D03*
X0147260Y0004502D03*
D25*
X0153252Y0049142D03*
X0151252Y0049142D03*
X0149252Y0049142D03*
X0147252Y0049142D03*
D37*
X0148220Y0032886D03*
X0153100Y0032886D03*
%LPD*%X0158400Y0000000D02*
%LPD*%
G01*
D31*
D44*
X0166430Y0016183D03*
X0166430Y0014283D03*
D28*
X0168528Y0006597D03*
X0170428Y0006597D03*
D22*
X0165033Y0016333D03*
X0165033Y0014133D03*
X0165033Y0008967D03*
X0165033Y0006767D03*
X0166684Y0008967D03*
X0166684Y0006767D03*
D46*
X0163509Y0011169D03*
X0162239Y0011169D03*
X0160969Y0011169D03*
X0159699Y0011169D03*
X0159699Y0017519D03*
X0160969Y0017519D03*
X0162239Y0017519D03*
X0163509Y0017519D03*
D29*
X0161598Y0020508D03*
X0162398Y0020508D03*
X0163198Y0020508D03*
X0163998Y0020508D03*
X0164798Y0020508D03*
X0165598Y0020508D03*
X0166398Y0020508D03*
X0167198Y0020508D03*
D26*
X0168648Y0021958D03*
X0168648Y0022758D03*
X0168648Y0023558D03*
X0168648Y0024358D03*
X0168648Y0025158D03*
X0168648Y0025958D03*
X0168648Y0026758D03*
X0168648Y0027558D03*
D29*
X0167198Y0029008D03*
X0166398Y0029008D03*
X0165598Y0029008D03*
X0164798Y0029008D03*
X0163998Y0029008D03*
X0163198Y0029008D03*
X0162398Y0029008D03*
X0161598Y0029008D03*
D26*
X0160148Y0027558D03*
X0160148Y0026758D03*
X0160148Y0025958D03*
X0160148Y0025158D03*
X0160148Y0024358D03*
X0160148Y0023558D03*
X0160148Y0022758D03*
X0160148Y0021958D03*
D47*
X0160207Y0037126D03*
X0161477Y0037126D03*
X0162747Y0037126D03*
X0164017Y0037126D03*
X0165287Y0037126D03*
X0166557Y0037126D03*
X0167827Y0037126D03*
X0169097Y0037126D03*
X0169097Y0046426D03*
X0167827Y0046426D03*
X0166557Y0046426D03*
X0165287Y0046426D03*
X0164017Y0046426D03*
X0162747Y0046426D03*
X0161477Y0046426D03*
X0160207Y0046426D03*
D23*
X0167410Y0002152D03*
X0162910Y0002152D03*
D48*
X0166160Y0004502D03*
X0164160Y0004502D03*
X0168660Y0004502D03*
X0161660Y0004502D03*
D25*
X0167652Y0049142D03*
X0165652Y0049142D03*
X0163652Y0049142D03*
X0161652Y0049142D03*
D37*
X0162620Y0032886D03*
X0167500Y0032886D03*
%LPD*%X0172800Y0000000D02*
%LPD*%
G01*
D31*
D44*
X0180830Y0016183D03*
X0180830Y0014283D03*
D28*
X0182928Y0006597D03*
X0184828Y0006597D03*
D22*
X0179433Y0016333D03*
X0179433Y0014133D03*
X0179433Y0008967D03*
X0179433Y0006767D03*
X0181084Y0008967D03*
X0181084Y0006767D03*
D46*
X0177909Y0011169D03*
X0176639Y0011169D03*
X0175369Y0011169D03*
X0174099Y0011169D03*
X0174099Y0017519D03*
X0175369Y0017519D03*
X0176639Y0017519D03*
X0177909Y0017519D03*
D29*
X0175998Y0020508D03*
X0176798Y0020508D03*
X0177598Y0020508D03*
X0178398Y0020508D03*
X0179198Y0020508D03*
X0179998Y0020508D03*
X0180798Y0020508D03*
X0181598Y0020508D03*
D26*
X0183048Y0021958D03*
X0183048Y0022758D03*
X0183048Y0023558D03*
X0183048Y0024358D03*
X0183048Y0025158D03*
X0183048Y0025958D03*
X0183048Y0026758D03*
X0183048Y0027558D03*
D29*
X0181598Y0029008D03*
X0180798Y0029008D03*
X0179998Y0029008D03*
X0179198Y0029008D03*
X0178398Y0029008D03*
X0177598Y0029008D03*
X0176798Y0029008D03*
X0175998Y0029008D03*
D26*
X0174548Y0027558D03*
X0174548Y0026758D03*
X0174548Y0025958D03*
X0174548Y0025158D03*
X0174548Y0024358D03*
X0174548Y0023558D03*
X0174548Y0022758D03*
X0174548Y0021958D03*
D47*
X0174607Y0037126D03*
X0175877Y0037126D03*
X0177147Y0037126D03*
X0178417Y0037126D03*
X0179687Y0037126D03*
X0180957Y0037126D03*
X0182227Y0037126D03*
X0183497Y0037126D03*
X0183497Y0046426D03*
X0182227Y0046426D03*
X0180957Y0046426D03*
X0179687Y0046426D03*
X0178417Y0046426D03*
X0177147Y0046426D03*
X0175877Y0046426D03*
X0174607Y0046426D03*
D23*
X0181810Y0002152D03*
X0177310Y0002152D03*
D48*
X0180560Y0004502D03*
X0178560Y0004502D03*
X0183060Y0004502D03*
X0176060Y0004502D03*
D25*
X0182052Y0049142D03*
X0180052Y0049142D03*
X0178052Y0049142D03*
X0176052Y0049142D03*
D37*
X0177020Y0032886D03*
X0181900Y0032886D03*
%LPD*%X0187200Y0000000D02*
%LPD*%
G01*
D31*
D44*
X0195230Y0016183D03*
X0195230Y0014283D03*
D28*
X0197328Y0006597D03*
X0199228Y0006597D03*
D22*
X0193833Y0016333D03*
X0193833Y0014133D03*
X0193833Y0008967D03*
X0193833Y0006767D03*
X0195484Y0008967D03*
X0195484Y0006767D03*
D46*
X0192309Y0011169D03*
X0191039Y0011169D03*
X0189769Y0011169D03*
X0188499Y0011169D03*
X0188499Y0017519D03*
X0189769Y0017519D03*
X0191039Y0017519D03*
X0192309Y0017519D03*
D29*
X0190398Y0020508D03*
X0191198Y0020508D03*
X0191998Y0020508D03*
X0192798Y0020508D03*
X0193598Y0020508D03*
X0194398Y0020508D03*
X0195198Y0020508D03*
X0195998Y0020508D03*
D26*
X0197448Y0021958D03*
X0197448Y0022758D03*
X0197448Y0023558D03*
X0197448Y0024358D03*
X0197448Y0025158D03*
X0197448Y0025958D03*
X0197448Y0026758D03*
X0197448Y0027558D03*
D29*
X0195998Y0029008D03*
X0195198Y0029008D03*
X0194398Y0029008D03*
X0193598Y0029008D03*
X0192798Y0029008D03*
X0191998Y0029008D03*
X0191198Y0029008D03*
X0190398Y0029008D03*
D26*
X0188948Y0027558D03*
X0188948Y0026758D03*
X0188948Y0025958D03*
X0188948Y0025158D03*
X0188948Y0024358D03*
X0188948Y0023558D03*
X0188948Y0022758D03*
X0188948Y0021958D03*
D47*
X0189007Y0037126D03*
X0190277Y0037126D03*
X0191547Y0037126D03*
X0192817Y0037126D03*
X0194087Y0037126D03*
X0195357Y0037126D03*
X0196627Y0037126D03*
X0197897Y0037126D03*
X0197897Y0046426D03*
X0196627Y0046426D03*
X0195357Y0046426D03*
X0194087Y0046426D03*
X0192817Y0046426D03*
X0191547Y0046426D03*
X0190277Y0046426D03*
X0189007Y0046426D03*
D23*
X0196210Y0002152D03*
X0191710Y0002152D03*
D48*
X0194960Y0004502D03*
X0192960Y0004502D03*
X0197460Y0004502D03*
X0190460Y0004502D03*
D25*
X0196452Y0049142D03*
X0194452Y0049142D03*
X0192452Y0049142D03*
X0190452Y0049142D03*
D37*
X0191420Y0032886D03*
X0196300Y0032886D03*
%LPD*%X0201600Y0000000D02*
%LPD*%
G01*
D31*
D44*
X0209630Y0016183D03*
X0209630Y0014283D03*
D28*
X0211728Y0006597D03*
X0213628Y0006597D03*
D22*
X0208233Y0016333D03*
X0208233Y0014133D03*
X0208233Y0008967D03*
X0208233Y0006767D03*
X0209884Y0008967D03*
X0209884Y0006767D03*
D46*
X0206709Y0011169D03*
X0205439Y0011169D03*
X0204169Y0011169D03*
X0202899Y0011169D03*
X0202899Y0017519D03*
X0204169Y0017519D03*
X0205439Y0017519D03*
X0206709Y0017519D03*
D29*
X0204798Y0020508D03*
X0205598Y0020508D03*
X0206398Y0020508D03*
X0207198Y0020508D03*
X0207998Y0020508D03*
X0208798Y0020508D03*
X0209598Y0020508D03*
X0210398Y0020508D03*
D26*
X0211848Y0021958D03*
X0211848Y0022758D03*
X0211848Y0023558D03*
X0211848Y0024358D03*
X0211848Y0025158D03*
X0211848Y0025958D03*
X0211848Y0026758D03*
X0211848Y0027558D03*
D29*
X0210398Y0029008D03*
X0209598Y0029008D03*
X0208798Y0029008D03*
X0207998Y0029008D03*
X0207198Y0029008D03*
X0206398Y0029008D03*
X0205598Y0029008D03*
X0204798Y0029008D03*
D26*
X0203348Y0027558D03*
X0203348Y0026758D03*
X0203348Y0025958D03*
X0203348Y0025158D03*
X0203348Y0024358D03*
X0203348Y0023558D03*
X0203348Y0022758D03*
X0203348Y0021958D03*
D47*
X0203407Y0037126D03*
X0204677Y0037126D03*
X0205947Y0037126D03*
X0207217Y0037126D03*
X0208487Y0037126D03*
X0209757Y0037126D03*
X0211027Y0037126D03*
X0212297Y0037126D03*
X0212297Y0046426D03*
X0211027Y0046426D03*
X0209757Y0046426D03*
X0208487Y0046426D03*
X0207217Y0046426D03*
X0205947Y0046426D03*
X0204677Y0046426D03*
X0203407Y0046426D03*
D23*
X0210610Y0002152D03*
X0206110Y0002152D03*
D48*
X0209360Y0004502D03*
X0207360Y0004502D03*
X0211860Y0004502D03*
X0204860Y0004502D03*
D25*
X0210852Y0049142D03*
X0208852Y0049142D03*
X0206852Y0049142D03*
X0204852Y0049142D03*
D37*
X0205820Y0032886D03*
X0210700Y0032886D03*
%LPD*%X0216000Y0000000D02*
%LPD*%
G01*
D31*
D44*
X0224030Y0016183D03*
X0224030Y0014283D03*
D28*
X0226128Y0006597D03*
X0228028Y0006597D03*
D22*
X0222633Y0016333D03*
X0222633Y0014133D03*
X0222633Y0008967D03*
X0222633Y0006767D03*
X0224284Y0008967D03*
X0224284Y0006767D03*
D46*
X0221109Y0011169D03*
X0219839Y0011169D03*
X0218569Y0011169D03*
X0217299Y0011169D03*
X0217299Y0017519D03*
X0218569Y0017519D03*
X0219839Y0017519D03*
X0221109Y0017519D03*
D29*
X0219198Y0020508D03*
X0219998Y0020508D03*
X0220798Y0020508D03*
X0221598Y0020508D03*
X0222398Y0020508D03*
X0223198Y0020508D03*
X0223998Y0020508D03*
X0224798Y0020508D03*
D26*
X0226248Y0021958D03*
X0226248Y0022758D03*
X0226248Y0023558D03*
X0226248Y0024358D03*
X0226248Y0025158D03*
X0226248Y0025958D03*
X0226248Y0026758D03*
X0226248Y0027558D03*
D29*
X0224798Y0029008D03*
X0223998Y0029008D03*
X0223198Y0029008D03*
X0222398Y0029008D03*
X0221598Y0029008D03*
X0220798Y0029008D03*
X0219998Y0029008D03*
X0219198Y0029008D03*
D26*
X0217748Y0027558D03*
X0217748Y0026758D03*
X0217748Y0025958D03*
X0217748Y0025158D03*
X0217748Y0024358D03*
X0217748Y0023558D03*
X0217748Y0022758D03*
X0217748Y0021958D03*
D47*
X0217807Y0037126D03*
X0219077Y0037126D03*
X0220347Y0037126D03*
X0221617Y0037126D03*
X0222887Y0037126D03*
X0224157Y0037126D03*
X0225427Y0037126D03*
X0226697Y0037126D03*
X0226697Y0046426D03*
X0225427Y0046426D03*
X0224157Y0046426D03*
X0222887Y0046426D03*
X0221617Y0046426D03*
X0220347Y0046426D03*
X0219077Y0046426D03*
X0217807Y0046426D03*
D23*
X0225010Y0002152D03*
X0220510Y0002152D03*
D48*
X0223760Y0004502D03*
X0221760Y0004502D03*
X0226260Y0004502D03*
X0219260Y0004502D03*
D25*
X0225252Y0049142D03*
X0223252Y0049142D03*
X0221252Y0049142D03*
X0219252Y0049142D03*
D37*
X0220220Y0032886D03*
X0225100Y0032886D03*
M02*
