M48
METRIC,0000.00
T01C0.486
T02C0.5
T03C0.65
T04C0.9
T05C1.02
T06C1.1
T07C2.3
%
T01
X+002171Y+002619
X+002171Y+002302
X+002488Y+002492
X+002552Y+002365
X+002678Y+002302
X+002805Y+002047
X+002805Y+001793
X+003028Y+002651
X+003059Y+002873
X+002932Y+002936
X+003377Y+003000
X+003599Y+003081
X+003853Y+002901
X+003853Y+002746
X+003377Y+002746
X+003853Y+002238
X+004393Y+002238
X+004393Y+002746
X+004393Y+002901
X+004107Y+003222
X+002869Y+003381
X+002615Y+003381
X+002425Y+003191
X+002202Y+003603
X+002615Y+004016
X+002869Y+004016
T02
X+002135Y+005225
T03
X+004365Y+003445
X+004365Y+003572
X+004365Y+003699
X+004365Y+003826
X+004365Y+003953
X+004365Y+004080
X+004365Y+004207
X+004365Y+004334
X+004365Y+004461
X+004365Y+004588
X+004365Y+004715
X+004365Y+004842
X+004365Y+004969
X+004365Y+005096
X+004365Y+005223
X+004238Y+005223
X+004238Y+005096
X+004238Y+004969
X+004238Y+004842
X+004238Y+004715
X+004238Y+004588
X+004238Y+004461
X+004238Y+004334
X+004238Y+004207
X+004238Y+004080
X+004238Y+003953
X+004238Y+003826
X+004238Y+003699
X+004238Y+003572
X+004238Y+003445
X+002262Y+004082
X+002262Y+004209
X+002262Y+004336
X+002262Y+004463
X+002262Y+004590
X+002262Y+004717
X+002262Y+004844
X+002262Y+004971
X+002262Y+005098
X+002262Y+005225
X+002135Y+005098
X+002135Y+004971
X+002135Y+004844
X+002135Y+004717
X+002135Y+004590
X+002135Y+004463
X+002135Y+004336
X+002135Y+004209
X+002135Y+004082
T04
X+003789Y+001803
X+004039Y+001803
X+004239Y+001803
X+004489Y+001803
T05
X+001250Y+001876
X+001250Y+002130
X+001250Y+002384
X+001250Y+002638
X+001250Y+002892
X+001250Y+003146
X+001250Y+003400
X+001250Y+003654
X+001250Y+003908
X+001250Y+004162
X+001250Y+004416
X+001250Y+004670
X+005250Y+004670
X+005250Y+004416
X+005250Y+004162
X+005250Y+003908
X+005250Y+003654
X+005250Y+003400
X+005250Y+003146
X+005250Y+002892
X+005250Y+002638
X+005250Y+002384
X+005250Y+002130
X+005250Y+001876
T06
X+001281Y+001285
X+001535Y+001285
X+001789Y+001285
X+002043Y+001285
X+002297Y+001285
X+002552Y+001285
X+002805Y+001285
T07
X+003482Y+001533
X+004796Y+001533
T00
M30
