G04 DipTrace 2.4.0.2*
%INTopMask.gbr*%
%MOIN*%
%ADD36C,0.0488*%
%ADD37R,0.0449X0.0449*%
%ADD39C,0.0724*%
%ADD41R,0.0724X0.0724*%
%ADD43C,0.1315*%
%ADD45C,0.0685*%
%ADD47R,0.0685X0.0685*%
%ADD49C,0.0693*%
%ADD51R,0.0693X0.0693*%
%ADD53R,0.0843X0.0528*%
%FSLAX44Y44*%
G04*
G70*
G90*
G75*
G01*
%LNTopMask*%
%LPD*%
D53*
X13545Y8811D3*
X12443D3*
D51*
X4921Y7386D3*
D49*
Y8386D3*
Y9386D3*
Y10386D3*
Y11386D3*
Y12386D3*
Y13386D3*
Y14386D3*
Y15386D3*
Y16386D3*
Y17386D3*
Y18386D3*
D51*
X20669Y7386D3*
D49*
Y8386D3*
Y9386D3*
Y10386D3*
Y11386D3*
Y12386D3*
Y13386D3*
Y14386D3*
Y15386D3*
Y16386D3*
Y17386D3*
Y18386D3*
D47*
X14917Y7099D3*
D45*
X15902D3*
X16689D3*
X17673D3*
D43*
X13709Y6036D3*
X18882D3*
D41*
X5045Y5061D3*
D39*
X6045D3*
X7045D3*
X8045D3*
X9045D3*
X10045D3*
X11045D3*
D37*
X17185Y13561D3*
D36*
Y14061D3*
Y14561D3*
Y15061D3*
Y15561D3*
Y16061D3*
Y16561D3*
Y17061D3*
Y17561D3*
Y18061D3*
Y18561D3*
Y19061D3*
Y19561D3*
Y20061D3*
Y20561D3*
X16685Y13561D3*
Y14061D3*
Y14561D3*
Y15061D3*
Y15561D3*
Y16061D3*
Y16561D3*
Y17061D3*
Y17561D3*
Y18061D3*
Y18561D3*
Y19061D3*
Y19561D3*
Y20061D3*
Y20561D3*
X8906Y16069D3*
Y16569D3*
Y17069D3*
Y17569D3*
Y18069D3*
Y18569D3*
Y19069D3*
Y19569D3*
Y20069D3*
Y20569D3*
X8406Y16069D3*
Y16569D3*
Y17069D3*
Y17569D3*
Y18069D3*
Y18569D3*
Y19069D3*
Y19569D3*
Y20069D3*
D37*
Y20569D3*
M02*
