G04 DipTrace 2.4.0.2*
%INTopSilk.gbr*%
%MOIN*%
%ADD10C,0.0079*%
%ADD17C,0.0157*%
%ADD55C,0.0062*%
%ADD56C,0.0077*%
%ADD57C,0.0093*%
%FSLAX44Y44*%
G04*
G70*
G90*
G75*
G01*
%LNTopSilk*%
%LPD*%
X13663Y8457D2*
D10*
X12325D1*
X13663Y9165D2*
X12325D1*
D17*
X14136Y8811D3*
X4429Y6787D2*
D10*
X5413D1*
Y18984D1*
X4429D1*
Y6787D1*
X20177D2*
X21161D1*
Y18984D1*
X20177D1*
Y6787D1*
X13579Y1981D2*
X19012D1*
X13579D2*
Y5248D1*
X19012Y1981D2*
Y5249D1*
X13579Y6824D2*
Y7591D1*
X19012D1*
Y6824D1*
X4545Y5561D2*
X11545D1*
Y4561D1*
X4545D1*
Y5561D1*
X7776Y9782D2*
X17815D1*
Y23561D1*
X7776D1*
Y9782D1*
X17520Y13745D2*
Y13182D1*
X17020D2*
X17520D1*
X8038Y20381D2*
Y20944D1*
X8599D2*
X8038D1*
X9746Y21150D2*
X15872D1*
Y19337D1*
X9746D1*
Y21150D1*
X12929Y8192D2*
D55*
X12914Y8230D1*
X12883Y8269D1*
X12852Y8288D1*
X12791D1*
X12761Y8269D1*
X12730Y8230D1*
X12715Y8192D1*
X12699Y8135D1*
Y8039D1*
X12715Y7982D1*
X12730Y7943D1*
X12761Y7905D1*
X12791Y7886D1*
X12852D1*
X12883Y7905D1*
X12914Y7943D1*
X12929Y7982D1*
X13028Y8211D2*
X13058Y8230D1*
X13104Y8287D1*
Y7886D1*
X6543Y18639D2*
Y18333D1*
X6528Y18275D1*
X6512Y18256D1*
X6482Y18237D1*
X6451D1*
X6421Y18256D1*
X6405Y18275D1*
X6390Y18333D1*
Y18371D1*
X6642Y18562D2*
X6673Y18581D1*
X6718Y18638D1*
Y18237D1*
X20708Y6521D2*
Y6215D1*
X20693Y6157D1*
X20678Y6138D1*
X20647Y6119D1*
X20616D1*
X20586Y6138D1*
X20571Y6157D1*
X20555Y6215D1*
Y6253D1*
X20823Y6425D2*
Y6444D1*
X20838Y6482D1*
X20853Y6501D1*
X20884Y6520D1*
X20945D1*
X20976Y6501D1*
X20991Y6482D1*
X21006Y6444D1*
Y6406D1*
X20991Y6367D1*
X20960Y6310D1*
X20807Y6119D1*
X21022D1*
X13079Y7592D2*
Y7286D1*
X13064Y7228D1*
X13048Y7209D1*
X13018Y7190D1*
X12987D1*
X12957Y7209D1*
X12942Y7228D1*
X12926Y7286D1*
Y7324D1*
X13209Y7591D2*
X13377D1*
X13285Y7438D1*
X13331D1*
X13362Y7419D1*
X13377Y7400D1*
X13392Y7343D1*
Y7305D1*
X13377Y7247D1*
X13346Y7209D1*
X13300Y7190D1*
X13254D1*
X13209Y7209D1*
X13194Y7228D1*
X13178Y7266D1*
X11888Y5316D2*
Y5010D1*
X11873Y4953D1*
X11857Y4934D1*
X11827Y4914D1*
X11796D1*
X11766Y4934D1*
X11751Y4953D1*
X11735Y5010D1*
Y5048D1*
X12140Y4914D2*
Y5316D1*
X11987Y5048D1*
X12217D1*
X18023Y18934D2*
Y18647D1*
X18038Y18590D1*
X18069Y18552D1*
X18115Y18532D1*
X18145D1*
X18191Y18552D1*
X18222Y18590D1*
X18237Y18647D1*
Y18934D1*
X18336Y18857D2*
X18367Y18877D1*
X18413Y18934D1*
Y18532D1*
X19136Y7463D2*
D56*
Y7486D1*
X19150Y7534D1*
X19165Y7558D1*
X19193Y7582D1*
X19251D1*
X19279Y7558D1*
X19294Y7534D1*
X19308Y7486D1*
Y7439D1*
X19294Y7391D1*
X19265Y7319D1*
X19121Y7080D1*
X19322D1*
X19559D2*
Y7582D1*
X19415Y7248D1*
X19630D1*
X19723Y7331D2*
X19889D1*
X19136Y8462D2*
Y8486D1*
X19150Y8534D1*
X19165Y8558D1*
X19194Y8582D1*
X19251D1*
X19279Y8558D1*
X19294Y8534D1*
X19308Y8486D1*
Y8439D1*
X19294Y8391D1*
X19265Y8319D1*
X19122Y8080D1*
X19323D1*
X19587Y8582D2*
X19444D1*
X19430Y8367D1*
X19444Y8391D1*
X19487Y8415D1*
X19530D1*
X19573Y8391D1*
X19602Y8343D1*
X19616Y8271D1*
Y8224D1*
X19602Y8152D1*
X19573Y8104D1*
X19530Y8080D1*
X19487D1*
X19444Y8104D1*
X19430Y8128D1*
X19415Y8176D1*
X19709Y8331D2*
X19875D1*
X19010Y16573D2*
X18982Y16621D1*
X18938Y16645D1*
X18881D1*
X18838Y16621D1*
X18809Y16573D1*
Y16525D1*
X18824Y16477D1*
X18838Y16453D1*
X18866Y16430D1*
X18953Y16382D1*
X18982Y16358D1*
X18996Y16334D1*
X19010Y16286D1*
Y16214D1*
X18982Y16167D1*
X18938Y16142D1*
X18881D1*
X18838Y16167D1*
X18809Y16214D1*
X19275Y16644D2*
X19132D1*
X19117Y16429D1*
X19132Y16453D1*
X19175Y16477D1*
X19217D1*
X19261Y16453D1*
X19289Y16405D1*
X19304Y16334D1*
Y16286D1*
X19289Y16214D1*
X19261Y16166D1*
X19217Y16142D1*
X19175D1*
X19132Y16166D1*
X19117Y16190D1*
X19103Y16238D1*
X19396Y16645D2*
X19511Y16142D1*
X19626Y16645D1*
X19718Y16393D2*
X19884D1*
X19294Y17644D2*
X19150D1*
X19136Y17429D1*
X19150Y17453D1*
X19194Y17477D1*
X19236D1*
X19279Y17453D1*
X19308Y17406D1*
X19323Y17334D1*
Y17286D1*
X19308Y17214D1*
X19279Y17166D1*
X19236Y17142D1*
X19194D1*
X19150Y17166D1*
X19136Y17191D1*
X19122Y17238D1*
X19415Y17645D2*
X19530Y17142D1*
X19645Y17645D1*
X19737Y17393D2*
X19903D1*
X18838Y18645D2*
X18995D1*
X18909Y18453D1*
X18953D1*
X18981Y18430D1*
X18995Y18406D1*
X19010Y18334D1*
Y18286D1*
X18995Y18215D1*
X18967Y18166D1*
X18924Y18143D1*
X18881D1*
X18838Y18166D1*
X18824Y18191D1*
X18809Y18238D1*
X19103Y18645D2*
X19217Y18143D1*
X19332Y18645D1*
X19454D2*
X19611D1*
X19525Y18453D1*
X19568D1*
X19597Y18430D1*
X19611Y18406D1*
X19626Y18334D1*
Y18286D1*
X19611Y18215D1*
X19583Y18166D1*
X19539Y18143D1*
X19496D1*
X19454Y18166D1*
X19439Y18191D1*
X19425Y18238D1*
X19718Y18394D2*
X19884D1*
X19649Y15526D2*
X19635Y15573D1*
X19606Y15621D1*
X19578Y15645D1*
X19520D1*
X19491Y15621D1*
X19463Y15573D1*
X19448Y15526D1*
X19434Y15454D1*
Y15334D1*
X19448Y15262D1*
X19463Y15214D1*
X19491Y15167D1*
X19520Y15142D1*
X19578D1*
X19606Y15167D1*
X19635Y15214D1*
X19649Y15262D1*
Y15334D1*
X19578D1*
X19742Y15393D2*
X19908D1*
X19649Y14526D2*
X19635Y14573D1*
X19606Y14621D1*
X19578Y14645D1*
X19520D1*
X19491Y14621D1*
X19463Y14573D1*
X19448Y14526D1*
X19434Y14454D1*
Y14334D1*
X19448Y14262D1*
X19463Y14214D1*
X19491Y14167D1*
X19520Y14142D1*
X19578D1*
X19606Y14167D1*
X19635Y14214D1*
X19649Y14262D1*
Y14334D1*
X19578D1*
X19742Y14393D2*
X19908D1*
X19150Y13644D2*
X19308D1*
X19222Y13453D1*
X19265D1*
X19294Y13429D1*
X19308Y13406D1*
X19323Y13334D1*
Y13286D1*
X19308Y13214D1*
X19279Y13166D1*
X19236Y13142D1*
X19193D1*
X19150Y13166D1*
X19136Y13191D1*
X19122Y13238D1*
X19501Y13644D2*
X19458Y13621D1*
X19429Y13549D1*
X19415Y13429D1*
Y13357D1*
X19429Y13238D1*
X19458Y13166D1*
X19501Y13142D1*
X19530D1*
X19573Y13166D1*
X19602Y13238D1*
X19616Y13357D1*
Y13429D1*
X19602Y13549D1*
X19573Y13621D1*
X19530Y13644D1*
X19501D1*
X19602Y13549D2*
X19429Y13238D1*
X19709Y13393D2*
X19875D1*
X19136Y12525D2*
Y12549D1*
X19150Y12597D1*
X19165Y12621D1*
X19194Y12644D1*
X19251D1*
X19279Y12621D1*
X19294Y12597D1*
X19308Y12549D1*
Y12501D1*
X19294Y12453D1*
X19265Y12382D1*
X19122Y12142D1*
X19323D1*
X19602Y12477D2*
X19587Y12406D1*
X19559Y12357D1*
X19516Y12334D1*
X19501D1*
X19458Y12357D1*
X19430Y12406D1*
X19415Y12477D1*
Y12501D1*
X19430Y12573D1*
X19458Y12621D1*
X19501Y12644D1*
X19516D1*
X19559Y12621D1*
X19587Y12573D1*
X19602Y12477D1*
Y12357D1*
X19587Y12238D1*
X19559Y12166D1*
X19516Y12142D1*
X19487D1*
X19444Y12166D1*
X19430Y12214D1*
X19695Y12393D2*
X19860D1*
X19136Y11525D2*
Y11549D1*
X19150Y11597D1*
X19165Y11621D1*
X19194Y11644D1*
X19251D1*
X19279Y11621D1*
X19294Y11597D1*
X19308Y11549D1*
Y11501D1*
X19294Y11453D1*
X19265Y11382D1*
X19122Y11142D1*
X19323D1*
X19487Y11644D2*
X19444Y11621D1*
X19429Y11573D1*
Y11525D1*
X19444Y11477D1*
X19473Y11453D1*
X19530Y11429D1*
X19573Y11406D1*
X19602Y11357D1*
X19616Y11310D1*
Y11238D1*
X19602Y11191D1*
X19587Y11166D1*
X19544Y11142D1*
X19487D1*
X19444Y11166D1*
X19429Y11191D1*
X19415Y11238D1*
Y11310D1*
X19429Y11357D1*
X19458Y11406D1*
X19501Y11429D1*
X19558Y11453D1*
X19587Y11477D1*
X19602Y11525D1*
Y11573D1*
X19587Y11621D1*
X19544Y11644D1*
X19487D1*
X19708Y11393D2*
X19874D1*
X19136Y10525D2*
Y10549D1*
X19150Y10597D1*
X19165Y10621D1*
X19194Y10644D1*
X19251D1*
X19279Y10621D1*
X19294Y10597D1*
X19308Y10549D1*
Y10501D1*
X19294Y10453D1*
X19265Y10382D1*
X19122Y10142D1*
X19323D1*
X19473D2*
X19616Y10644D1*
X19415D1*
X19709Y10393D2*
X19875D1*
X19136Y9525D2*
Y9549D1*
X19150Y9597D1*
X19165Y9621D1*
X19194Y9644D1*
X19251D1*
X19279Y9621D1*
X19294Y9597D1*
X19308Y9549D1*
Y9501D1*
X19294Y9453D1*
X19265Y9382D1*
X19122Y9142D1*
X19323D1*
X19587Y9573D2*
X19573Y9621D1*
X19530Y9644D1*
X19501D1*
X19458Y9621D1*
X19429Y9549D1*
X19415Y9429D1*
Y9310D1*
X19429Y9214D1*
X19458Y9166D1*
X19501Y9142D1*
X19516D1*
X19558Y9166D1*
X19587Y9214D1*
X19602Y9286D1*
Y9310D1*
X19587Y9382D1*
X19558Y9429D1*
X19516Y9453D1*
X19501D1*
X19458Y9429D1*
X19429Y9382D1*
X19415Y9310D1*
X19694Y9393D2*
X19860D1*
X5581Y18456D2*
X5746D1*
X5839Y18611D2*
X5868Y18636D1*
X5911Y18707D1*
Y18205D1*
X5581Y17456D2*
X5746D1*
X5854Y17587D2*
Y17611D1*
X5868Y17659D1*
X5882Y17683D1*
X5911Y17707D1*
X5968D1*
X5997Y17683D1*
X6011Y17659D1*
X6026Y17611D1*
Y17564D1*
X6011Y17516D1*
X5983Y17444D1*
X5839Y17205D1*
X6040D1*
X5581Y16456D2*
X5746D1*
X5868Y16707D2*
X6025D1*
X5939Y16516D1*
X5983D1*
X6011Y16492D1*
X6025Y16468D1*
X6040Y16396D1*
Y16349D1*
X6025Y16277D1*
X5997Y16229D1*
X5954Y16205D1*
X5911D1*
X5868Y16229D1*
X5854Y16253D1*
X5839Y16301D1*
X5581Y15456D2*
X5746D1*
X5983Y15205D2*
Y15707D1*
X5839Y15372D1*
X6054D1*
X5581Y14456D2*
X5746D1*
X6011Y14707D2*
X5868D1*
X5854Y14492D1*
X5868Y14516D1*
X5911Y14540D1*
X5954D1*
X5997Y14516D1*
X6026Y14468D1*
X6040Y14396D1*
Y14349D1*
X6026Y14277D1*
X5997Y14229D1*
X5954Y14205D1*
X5911D1*
X5868Y14229D1*
X5854Y14253D1*
X5839Y14301D1*
X5581Y13456D2*
X5746D1*
X6011Y13636D2*
X5997Y13683D1*
X5954Y13707D1*
X5925D1*
X5882Y13683D1*
X5853Y13611D1*
X5839Y13492D1*
Y13372D1*
X5853Y13277D1*
X5882Y13229D1*
X5925Y13205D1*
X5939D1*
X5982Y13229D1*
X6011Y13277D1*
X6025Y13349D1*
Y13372D1*
X6011Y13444D1*
X5982Y13492D1*
X5939Y13516D1*
X5925D1*
X5882Y13492D1*
X5853Y13444D1*
X5839Y13372D1*
X5581Y12456D2*
X5746D1*
X5896Y12205D2*
X6040Y12707D1*
X5839D1*
X5581Y11456D2*
X5746D1*
X6068Y11205D2*
Y11707D1*
X5954Y11205D1*
X5839Y11707D1*
Y11205D1*
X5581Y10456D2*
X5746D1*
X6054Y10588D2*
X6040Y10636D1*
X6011Y10684D1*
X5983Y10707D1*
X5925D1*
X5896Y10684D1*
X5868Y10636D1*
X5853Y10588D1*
X5839Y10516D1*
Y10396D1*
X5853Y10325D1*
X5868Y10277D1*
X5896Y10229D1*
X5925Y10205D1*
X5983D1*
X6011Y10229D1*
X6040Y10277D1*
X6054Y10325D1*
X5581Y9456D2*
X5746D1*
X5839Y9611D2*
X5868Y9636D1*
X5911Y9707D1*
Y9205D1*
X6176Y9636D2*
X6161Y9683D1*
X6118Y9707D1*
X6090D1*
X6047Y9683D1*
X6018Y9611D1*
X6004Y9492D1*
Y9372D1*
X6018Y9277D1*
X6047Y9229D1*
X6090Y9205D1*
X6104D1*
X6147Y9229D1*
X6176Y9277D1*
X6190Y9349D1*
Y9372D1*
X6176Y9444D1*
X6147Y9492D1*
X6104Y9516D1*
X6090D1*
X6047Y9492D1*
X6018Y9444D1*
X6004Y9372D1*
X10083Y20010D2*
D57*
X10175Y19608D1*
X10267Y20010D1*
X10359Y19608D1*
X10451Y20010D1*
X10599D2*
X10691Y19608D1*
X10782Y20010D1*
X10874Y19608D1*
X10966Y20010D1*
X11114D2*
X11206Y19608D1*
X11298Y20010D1*
X11390Y19608D1*
X11481Y20010D1*
X11652Y19666D2*
X11630Y19636D1*
X11652Y19608D1*
X11676Y19636D1*
X11652Y19666D1*
X11824Y20010D2*
Y19723D1*
X11847Y19637D1*
X11893Y19608D1*
X11962D1*
X12007Y19637D1*
X12076Y19723D1*
Y20010D2*
Y19608D1*
X12225Y20010D2*
Y19608D1*
Y19895D2*
X12294Y19981D1*
X12340Y20010D1*
X12408D1*
X12454Y19981D1*
X12477Y19895D1*
Y19608D1*
X12625Y20010D2*
X12717Y19608D1*
X12809Y20010D1*
X12901Y19608D1*
X12993Y20010D1*
X13416Y20211D2*
Y19608D1*
Y19924D2*
X13371Y19981D1*
X13324Y20010D1*
X13255D1*
X13210Y19981D1*
X13164Y19924D1*
X13141Y19837D1*
Y19780D1*
X13164Y19694D1*
X13210Y19637D1*
X13255Y19608D1*
X13324D1*
X13371Y19637D1*
X13416Y19694D1*
X13817Y19924D2*
X13794Y19981D1*
X13725Y20010D1*
X13656D1*
X13587Y19981D1*
X13564Y19924D1*
X13587Y19867D1*
X13633Y19837D1*
X13748Y19809D1*
X13794Y19780D1*
X13817Y19723D1*
Y19694D1*
X13794Y19637D1*
X13725Y19608D1*
X13656D1*
X13587Y19637D1*
X13564Y19694D1*
X13988Y19666D2*
X13965Y19636D1*
X13988Y19608D1*
X14011Y19636D1*
X13988Y19666D1*
X14435Y19924D2*
X14389Y19981D1*
X14343Y20010D1*
X14275D1*
X14229Y19981D1*
X14183Y19924D1*
X14160Y19837D1*
Y19780D1*
X14183Y19694D1*
X14229Y19637D1*
X14275Y19608D1*
X14343D1*
X14389Y19637D1*
X14435Y19694D1*
X14698Y20010D2*
X14653Y19981D1*
X14607Y19924D1*
X14584Y19837D1*
Y19780D1*
X14607Y19694D1*
X14653Y19637D1*
X14698Y19608D1*
X14767D1*
X14813Y19637D1*
X14859Y19694D1*
X14882Y19780D1*
Y19837D1*
X14859Y19924D1*
X14813Y19981D1*
X14767Y20010D1*
X14698D1*
X15031D2*
Y19608D1*
Y19895D2*
X15100Y19981D1*
X15146Y20010D1*
X15214D1*
X15260Y19981D1*
X15283Y19895D1*
Y19608D1*
Y19895D2*
X15352Y19981D1*
X15398Y20010D1*
X15467D1*
X15513Y19981D1*
X15536Y19895D1*
Y19608D1*
X10083Y20961D2*
Y20530D1*
X10106Y20444D1*
X10152Y20387D1*
X10221Y20358D1*
X10267D1*
X10336Y20387D1*
X10382Y20444D1*
X10405Y20530D1*
Y20961D1*
X10920Y20358D2*
Y20961D1*
X10737Y20358D1*
X10553Y20961D1*
Y20358D1*
X11069Y20961D2*
Y20358D1*
X11229D1*
X11298Y20387D1*
X11344Y20444D1*
X11367Y20502D1*
X11390Y20588D1*
Y20731D1*
X11367Y20818D1*
X11344Y20875D1*
X11298Y20932D1*
X11229Y20961D1*
X11069D1*
X11538D2*
Y20358D1*
X11860Y20961D2*
X11538Y20559D1*
X11653Y20703D2*
X11860Y20358D1*
X12008Y20659D2*
X12273D1*
X12766Y20818D2*
X12743Y20875D1*
X12697Y20932D1*
X12651Y20961D1*
X12559D1*
X12513Y20932D1*
X12468Y20875D1*
X12444Y20818D1*
X12422Y20731D1*
Y20588D1*
X12444Y20502D1*
X12468Y20444D1*
X12513Y20387D1*
X12559Y20358D1*
X12651D1*
X12697Y20387D1*
X12743Y20444D1*
X12766Y20502D1*
Y20588D1*
X12651D1*
X13282Y20358D2*
X13098Y20961D1*
X12914Y20358D1*
X12983Y20559D2*
X13213D1*
X13591Y20961D2*
Y20358D1*
X13430Y20961D2*
X13752D1*
X14198D2*
X13900D1*
Y20358D1*
X14198D1*
X13900Y20674D2*
X14083D1*
X4722Y6261D2*
X4702Y6318D1*
X4661Y6375D1*
X4621Y6404D1*
X4541D1*
X4501Y6375D1*
X4461Y6318D1*
X4440Y6261D1*
X4420Y6174D1*
Y6030D1*
X4440Y5945D1*
X4461Y5887D1*
X4501Y5830D1*
X4541Y5801D1*
X4621D1*
X4661Y5830D1*
X4702Y5887D1*
X4722Y5945D1*
Y6030D1*
X4621D1*
X5133Y6404D2*
Y5801D1*
X4851Y6404D1*
Y5801D1*
X5262Y6404D2*
Y5801D1*
X5403D1*
X5463Y5830D1*
X5504Y5887D1*
X5524Y5945D1*
X5544Y6030D1*
Y6174D1*
X5524Y6261D1*
X5504Y6318D1*
X5463Y6375D1*
X5403Y6404D1*
X5262D1*
X6161Y6318D2*
X6141Y6375D1*
X6081Y6403D1*
X6041D1*
X5981Y6375D1*
X5940Y6288D1*
X5920Y6145D1*
Y6002D1*
X5940Y5887D1*
X5981Y5829D1*
X6041Y5801D1*
X6061D1*
X6121Y5829D1*
X6161Y5887D1*
X6181Y5973D1*
Y6002D1*
X6161Y6088D1*
X6121Y6145D1*
X6061Y6174D1*
X6041D1*
X5981Y6145D1*
X5940Y6088D1*
X5920Y6002D1*
X7001Y5801D2*
X7202Y6403D1*
X6920D1*
X8021D2*
X7961Y6375D1*
X7940Y6318D1*
Y6260D1*
X7961Y6203D1*
X8001Y6174D1*
X8081Y6145D1*
X8141Y6117D1*
X8181Y6059D1*
X8201Y6002D1*
Y5916D1*
X8181Y5859D1*
X8161Y5829D1*
X8101Y5801D1*
X8021D1*
X7961Y5829D1*
X7940Y5859D1*
X7920Y5916D1*
Y6002D1*
X7940Y6059D1*
X7981Y6117D1*
X8041Y6145D1*
X8121Y6174D1*
X8161Y6203D1*
X8181Y6260D1*
Y6318D1*
X8161Y6375D1*
X8101Y6403D1*
X8021D1*
X8795Y6288D2*
X8836Y6318D1*
X8896Y6403D1*
Y5801D1*
X9126Y6403D2*
X9066Y6375D1*
X9046Y6318D1*
Y6260D1*
X9066Y6203D1*
X9106Y6174D1*
X9186Y6145D1*
X9247Y6117D1*
X9287Y6059D1*
X9307Y6002D1*
Y5916D1*
X9287Y5859D1*
X9267Y5829D1*
X9206Y5801D1*
X9126D1*
X9066Y5829D1*
X9046Y5859D1*
X9026Y5916D1*
Y6002D1*
X9046Y6059D1*
X9086Y6117D1*
X9146Y6145D1*
X9226Y6174D1*
X9267Y6203D1*
X9287Y6260D1*
Y6318D1*
X9267Y6375D1*
X9206Y6403D1*
X9126D1*
X9691Y6260D2*
Y6288D1*
X9711Y6346D1*
X9731Y6375D1*
X9771Y6403D1*
X9851D1*
X9891Y6375D1*
X9911Y6346D1*
X9932Y6288D1*
Y6231D1*
X9911Y6174D1*
X9871Y6088D1*
X9670Y5801D1*
X9952D1*
X10202Y6403D2*
X10142Y6375D1*
X10101Y6288D1*
X10081Y6145D1*
Y6059D1*
X10101Y5916D1*
X10142Y5829D1*
X10202Y5801D1*
X10242D1*
X10302Y5829D1*
X10342Y5916D1*
X10363Y6059D1*
Y6145D1*
X10342Y6288D1*
X10302Y6375D1*
X10242Y6403D1*
X10202D1*
X10342Y6288D2*
X10101Y5916D1*
X10691Y6260D2*
Y6288D1*
X10711Y6346D1*
X10731Y6375D1*
X10771Y6403D1*
X10851D1*
X10891Y6375D1*
X10911Y6346D1*
X10932Y6288D1*
Y6231D1*
X10911Y6174D1*
X10871Y6088D1*
X10670Y5801D1*
X10952D1*
X11282D2*
Y6403D1*
X11081Y6002D1*
X11383D1*
X6711Y7403D2*
X6931D1*
X6811Y7174D1*
X6871D1*
X6911Y7145D1*
X6931Y7117D1*
X6952Y7030D1*
Y6973D1*
X6931Y6887D1*
X6891Y6829D1*
X6831Y6801D1*
X6771D1*
X6711Y6829D1*
X6691Y6859D1*
X6670Y6916D1*
X7101Y6859D2*
X7081Y6829D1*
X7101Y6801D1*
X7122Y6829D1*
X7101Y6859D1*
X7292Y7403D2*
X7512D1*
X7392Y7174D1*
X7452D1*
X7492Y7145D1*
X7512Y7117D1*
X7533Y7030D1*
Y6973D1*
X7512Y6887D1*
X7472Y6829D1*
X7412Y6801D1*
X7352D1*
X7292Y6829D1*
X7272Y6859D1*
X7251Y6916D1*
X7662Y7404D2*
X7823Y6801D1*
X7984Y7404D1*
X8642D2*
X8602Y7375D1*
X8562Y7318D1*
X8542Y7261D1*
X8522Y7174D1*
Y7030D1*
X8542Y6945D1*
X8562Y6887D1*
X8602Y6830D1*
X8642Y6801D1*
X8723D1*
X8763Y6830D1*
X8803Y6887D1*
X8823Y6945D1*
X8843Y7030D1*
Y7174D1*
X8823Y7261D1*
X8803Y7318D1*
X8763Y7375D1*
X8723Y7404D1*
X8642D1*
X9254D2*
Y6801D1*
X8973Y7404D1*
Y6801D1*
X9384Y7404D2*
Y6801D1*
X9625D1*
X9754Y7404D2*
X9915Y7117D1*
Y6801D1*
X10076Y7404D2*
X9915Y7117D1*
X10226Y7403D2*
Y7002D1*
Y6859D2*
X10205Y6829D1*
X10226Y6801D1*
X10246Y6829D1*
X10226Y6859D1*
X14670Y8529D2*
Y8098D1*
X14690Y8012D1*
X14731Y7955D1*
X14791Y7926D1*
X14831D1*
X14891Y7955D1*
X14932Y8012D1*
X14952Y8098D1*
Y8529D1*
X15363Y8443D2*
X15323Y8500D1*
X15262Y8529D1*
X15182D1*
X15122Y8500D1*
X15081Y8443D1*
Y8386D1*
X15102Y8328D1*
X15122Y8299D1*
X15162Y8271D1*
X15282Y8213D1*
X15323Y8185D1*
X15343Y8155D1*
X15363Y8098D1*
Y8012D1*
X15323Y7955D1*
X15262Y7926D1*
X15182D1*
X15122Y7955D1*
X15081Y8012D1*
X15492Y8529D2*
Y7926D1*
X15673D1*
X15734Y7955D1*
X15754Y7984D1*
X15774Y8041D1*
Y8127D1*
X15754Y8185D1*
X15734Y8213D1*
X15673Y8242D1*
X15734Y8271D1*
X15754Y8299D1*
X15774Y8356D1*
Y8414D1*
X15754Y8471D1*
X15734Y8500D1*
X15673Y8529D1*
X15492D1*
Y8242D2*
X15673D1*
X16312Y8529D2*
Y7926D1*
X16593Y8529D2*
Y7926D1*
X16312Y8242D2*
X16593D1*
X16843Y8529D2*
X16803Y8500D1*
X16763Y8443D1*
X16743Y8386D1*
X16723Y8299D1*
Y8155D1*
X16743Y8070D1*
X16763Y8012D1*
X16803Y7955D1*
X16843Y7926D1*
X16924D1*
X16964Y7955D1*
X17004Y8012D1*
X17024Y8070D1*
X17044Y8155D1*
Y8299D1*
X17024Y8386D1*
X17004Y8443D1*
X16964Y8500D1*
X16924Y8529D1*
X16843D1*
X17455Y8443D2*
X17415Y8500D1*
X17355Y8529D1*
X17274D1*
X17214Y8500D1*
X17174Y8443D1*
Y8386D1*
X17194Y8328D1*
X17214Y8299D1*
X17254Y8271D1*
X17375Y8213D1*
X17415Y8185D1*
X17435Y8155D1*
X17455Y8098D1*
Y8012D1*
X17415Y7955D1*
X17355Y7926D1*
X17274D1*
X17214Y7955D1*
X17174Y8012D1*
X17725Y8529D2*
Y7926D1*
X17585Y8529D2*
X17866D1*
X5581Y8456D2*
D56*
X5746D1*
X5839Y8611D2*
X5868Y8636D1*
X5911Y8707D1*
Y8205D1*
X6061D2*
X6205Y8707D1*
X6004D1*
X5581Y7456D2*
X5746D1*
X5839Y7468D2*
X5968D1*
X6011Y7492D1*
X6026Y7516D1*
X6040Y7564D1*
Y7612D1*
X6026Y7659D1*
X6011Y7684D1*
X5968Y7707D1*
X5839D1*
Y7205D1*
X5939Y7468D2*
X6040Y7205D1*
M02*
