G04 DipTrace 2.4.0.2*
%INBottom.gbr*%
%MOMM*%
%ADD14C,0.3*%
%ADD15C,0.25*%
%ADD16C,1.0*%
%ADD17C,0.5*%
%ADD21R,1.9X1.9*%
%ADD22C,1.9*%
%ADD26R,1.62X1.62*%
%ADD27C,1.62*%
%ADD34C,0.5*%
%ADD40C,0.7*%
%ADD41C,1.016*%
%FSLAX53Y53*%
G04*
G71*
G90*
G75*
G01*
%LNBottom*%
%LPD*%
X27580Y98770D2*
D16*
X43459D1*
X45926Y96303D1*
Y91064D1*
X68947Y61377D2*
D17*
X71646Y64076D1*
Y75346D1*
X67995Y78998D1*
X61326D1*
X52580Y55675D2*
X62295D1*
X62914Y56294D1*
Y63599D1*
X64183Y64868D1*
X70215D1*
X70851Y65504D1*
Y73124D1*
X52580Y46711D2*
X72580D1*
X69453Y63091D2*
X63708D1*
X91580Y43910D2*
D16*
Y46522D1*
X86769Y51333D1*
X79267Y58834D1*
X66883D1*
X65772Y59946D1*
X47580Y49140D2*
D17*
X84576D1*
X86769Y51333D1*
X61962Y74552D2*
X57834D1*
X56246Y76140D1*
Y78695D1*
X61962Y74552D2*
Y56770D1*
X67518Y85983D2*
X54326D1*
X64026Y68520D2*
D14*
X69899D1*
X74663Y84554D2*
D17*
X48149D1*
D40*
X68947Y61377D3*
X61326Y78998D3*
D3*
X52580Y55675D3*
X70851Y73124D3*
X72580Y46711D3*
X52580D3*
X69453Y63091D3*
X63708D3*
D41*
X65772Y59946D3*
D40*
X47580Y49140D3*
X61962Y74552D3*
X56246Y78695D3*
X61962Y56770D3*
Y74552D3*
X67518Y85983D3*
X54326D3*
X64026Y68520D3*
X69899D3*
X74663Y84554D3*
X48149D3*
D41*
X61167Y77093D3*
X67041Y80903D3*
X52595Y82808D3*
X58945Y92332D3*
X61485D3*
X73550Y75505D3*
Y73600D3*
Y71695D3*
X64978Y80903D3*
D40*
X67200Y72965D3*
Y71854D3*
Y70743D3*
X61009Y72965D3*
Y71854D3*
Y70743D3*
D41*
X57834Y59947D3*
Y58042D3*
X56246Y64709D3*
X72281Y55500D3*
X56246Y67725D3*
X75457Y55500D3*
X74980Y73600D3*
X68946Y70425D3*
Y66456D3*
X64080Y52640D3*
X67255D3*
X53905D3*
X57080D3*
X72281Y61000D3*
X75457D3*
X44730Y93548D2*
D15*
X78530D1*
X80630D2*
X81430D1*
X44730Y93302D2*
X78401D1*
X80759D2*
X81430D1*
X44730Y93055D2*
X78330D1*
X80830D2*
X81430D1*
X44730Y92808D2*
X78311D1*
X80849D2*
X81430D1*
X44730Y92562D2*
X78342D1*
X80818D2*
X81430D1*
X44730Y92315D2*
X78428D1*
X80732D2*
X81430D1*
X44730Y92068D2*
X78576D1*
X80584D2*
X81430D1*
X44730Y91822D2*
X78838D1*
X80322D2*
X81430D1*
X44730Y91575D2*
X81430D1*
X44730Y91328D2*
X78854D1*
X80306D2*
X81430D1*
X44730Y91082D2*
X78588D1*
X80572D2*
X81430D1*
X44730Y90835D2*
X78432D1*
X80728D2*
X81430D1*
X44730Y90588D2*
X78346D1*
X80814D2*
X81430D1*
X44730Y90342D2*
X78311D1*
X80849D2*
X81430D1*
X44730Y90095D2*
X78326D1*
X80834D2*
X81430D1*
X44730Y89848D2*
X78397D1*
X80763D2*
X81430D1*
X44730Y89602D2*
X78526D1*
X80634D2*
X81430D1*
X44730Y89355D2*
X78744D1*
X80416D2*
X81430D1*
X44730Y89108D2*
X79198D1*
X79962D2*
X81430D1*
X44730Y88862D2*
X78975D1*
X80185D2*
X81430D1*
X44730Y88615D2*
X78651D1*
X80509D2*
X81430D1*
X44730Y88368D2*
X78471D1*
X80689D2*
X81430D1*
X44730Y88122D2*
X78366D1*
X80794D2*
X81430D1*
X44730Y87875D2*
X78315D1*
X80845D2*
X81430D1*
X44730Y87628D2*
X78319D1*
X80841D2*
X81430D1*
X44730Y87382D2*
X78369D1*
X80791D2*
X81430D1*
X44730Y87135D2*
X78479D1*
X80681D2*
X81430D1*
X44730Y86888D2*
X78666D1*
X80494D2*
X81430D1*
X44730Y86642D2*
X53873D1*
X67970D2*
X79010D1*
X80150D2*
X81430D1*
X44730Y86395D2*
X53631D1*
X68212D2*
X79143D1*
X80017D2*
X81430D1*
X44730Y86148D2*
X53534D1*
X68310D2*
X78725D1*
X80435D2*
X81430D1*
X44730Y85902D2*
X53522D1*
X68322D2*
X78514D1*
X80646D2*
X81430D1*
X44730Y85655D2*
X53588D1*
X68255D2*
X78389D1*
X80771D2*
X81430D1*
X44730Y85408D2*
X53768D1*
X68076D2*
X78326D1*
X80834D2*
X81430D1*
X44730Y85162D2*
X47627D1*
X75185D2*
X78311D1*
X80849D2*
X81430D1*
X44730Y84915D2*
X47428D1*
X75384D2*
X78350D1*
X80810D2*
X81430D1*
X44730Y84668D2*
X47346D1*
X75462D2*
X78440D1*
X80720D2*
X81430D1*
X44730Y84422D2*
X47350D1*
X75462D2*
X78600D1*
X80560D2*
X81430D1*
X44730Y84175D2*
X47436D1*
X75373D2*
X78877D1*
X80283D2*
X81430D1*
X44730Y83928D2*
X47651D1*
X75162D2*
X81430D1*
X44730Y83682D2*
X78815D1*
X80345D2*
X81430D1*
X44730Y83435D2*
X78565D1*
X80595D2*
X81430D1*
X44730Y83188D2*
X78420D1*
X80740D2*
X81430D1*
X44730Y82942D2*
X78338D1*
X80822D2*
X81430D1*
X44730Y82695D2*
X78311D1*
X80849D2*
X81430D1*
X44730Y82448D2*
X78330D1*
X80830D2*
X81430D1*
X44730Y82202D2*
X78405D1*
X80755D2*
X81430D1*
X44730Y81955D2*
X78545D1*
X80615D2*
X81430D1*
X44730Y81708D2*
X78776D1*
X80384D2*
X81430D1*
X44730Y81462D2*
X79299D1*
X79861D2*
X81430D1*
X44730Y81215D2*
X78928D1*
X80232D2*
X81430D1*
X44730Y80968D2*
X78627D1*
X80533D2*
X81430D1*
X44730Y80722D2*
X78455D1*
X80705D2*
X81430D1*
X44730Y80475D2*
X78358D1*
X80802D2*
X81430D1*
X44730Y80228D2*
X78315D1*
X80845D2*
X81430D1*
X44730Y79982D2*
X78319D1*
X80841D2*
X81430D1*
X44730Y79735D2*
X61034D1*
X61619D2*
X78377D1*
X80783D2*
X81430D1*
X44730Y79488D2*
X60690D1*
X68498D2*
X78494D1*
X80666D2*
X81430D1*
X44730Y79242D2*
X55659D1*
X56834D2*
X60557D1*
X68744D2*
X78694D1*
X80466D2*
X81430D1*
X44730Y78995D2*
X55494D1*
X56998D2*
X60518D1*
X68990D2*
X79069D1*
X80091D2*
X81430D1*
X44730Y78748D2*
X55440D1*
X57052D2*
X60557D1*
X69236D2*
X79076D1*
X80084D2*
X81430D1*
X44730Y78502D2*
X55459D1*
X57033D2*
X60694D1*
X69482D2*
X78698D1*
X80462D2*
X81430D1*
X44730Y78255D2*
X55537D1*
X56955D2*
X61049D1*
X61603D2*
X67744D1*
X69732D2*
X78498D1*
X80662D2*
X81430D1*
X44730Y78008D2*
X55537D1*
X56955D2*
X67991D1*
X69978D2*
X78381D1*
X80779D2*
X81430D1*
X44730Y77762D2*
X55537D1*
X56955D2*
X68237D1*
X70224D2*
X78323D1*
X80837D2*
X81430D1*
X44730Y77515D2*
X55537D1*
X56955D2*
X68483D1*
X70470D2*
X78315D1*
X80845D2*
X81430D1*
X44730Y77268D2*
X55537D1*
X56955D2*
X68729D1*
X70716D2*
X78354D1*
X80806D2*
X81430D1*
X44730Y77022D2*
X55537D1*
X56955D2*
X68979D1*
X70962D2*
X78451D1*
X80709D2*
X81430D1*
X44730Y76775D2*
X55537D1*
X56955D2*
X69225D1*
X71212D2*
X78623D1*
X80537D2*
X81430D1*
X44730Y76528D2*
X55537D1*
X56955D2*
X69471D1*
X71459D2*
X78920D1*
X80240D2*
X81430D1*
X44730Y76282D2*
X55537D1*
X57099D2*
X69717D1*
X71705D2*
X79319D1*
X79841D2*
X81430D1*
X44730Y76035D2*
X55545D1*
X57345D2*
X69963D1*
X71951D2*
X78780D1*
X80380D2*
X81430D1*
X44730Y75788D2*
X55635D1*
X57591D2*
X70209D1*
X72193D2*
X78545D1*
X80615D2*
X81430D1*
X44730Y75542D2*
X55850D1*
X57837D2*
X70455D1*
X72326D2*
X78409D1*
X80752D2*
X81430D1*
X44730Y75295D2*
X56096D1*
X58084D2*
X61682D1*
X62240D2*
X70705D1*
X72357D2*
X78334D1*
X80826D2*
X81430D1*
X44730Y75048D2*
X56346D1*
X62595D2*
X70936D1*
X72357D2*
X78311D1*
X80849D2*
X81430D1*
X44730Y74802D2*
X56592D1*
X62732D2*
X70936D1*
X72357D2*
X78338D1*
X80822D2*
X81430D1*
X44730Y74555D2*
X56838D1*
X62771D2*
X70936D1*
X72357D2*
X78416D1*
X80744D2*
X81430D1*
X44730Y74308D2*
X57084D1*
X62732D2*
X70936D1*
X72357D2*
X78565D1*
X80595D2*
X81430D1*
X44730Y74062D2*
X57330D1*
X62669D2*
X70936D1*
X72357D2*
X78811D1*
X80349D2*
X81430D1*
X44730Y73815D2*
X61252D1*
X62669D2*
X70455D1*
X72357D2*
X81430D1*
X44730Y73568D2*
X61252D1*
X62669D2*
X70178D1*
X72357D2*
X78885D1*
X80275D2*
X81430D1*
X44730Y73322D2*
X61252D1*
X62669D2*
X70069D1*
X72357D2*
X78604D1*
X80556D2*
X81430D1*
X44730Y73075D2*
X61252D1*
X62669D2*
X70041D1*
X72357D2*
X78440D1*
X80720D2*
X81430D1*
X44730Y72828D2*
X61252D1*
X62669D2*
X63100D1*
X64037D2*
X64600D1*
X65537D2*
X70100D1*
X72357D2*
X78350D1*
X80810D2*
X81430D1*
X44730Y72582D2*
X61252D1*
X62669D2*
X62916D1*
X64220D2*
X64416D1*
X65720D2*
X70143D1*
X72357D2*
X78311D1*
X80849D2*
X81430D1*
X44730Y72335D2*
X61252D1*
X62669D2*
X62862D1*
X65779D2*
X70143D1*
X72357D2*
X78323D1*
X80837D2*
X81430D1*
X44730Y72088D2*
X61252D1*
X62669D2*
X62897D1*
X65744D2*
X70143D1*
X72357D2*
X78389D1*
X80771D2*
X81430D1*
X44730Y71842D2*
X61252D1*
X62669D2*
X63041D1*
X65595D2*
X70143D1*
X72357D2*
X78510D1*
X80650D2*
X81430D1*
X44730Y71595D2*
X61252D1*
X62669D2*
X62924D1*
X65716D2*
X70143D1*
X72357D2*
X78721D1*
X80439D2*
X81430D1*
X44730Y71348D2*
X61252D1*
X62669D2*
X62862D1*
X65779D2*
X70143D1*
X72357D2*
X79135D1*
X80025D2*
X81430D1*
X44730Y71102D2*
X61252D1*
X62669D2*
X62893D1*
X64248D2*
X64390D1*
X65748D2*
X70143D1*
X72357D2*
X79014D1*
X80146D2*
X81430D1*
X44730Y70855D2*
X61252D1*
X62669D2*
X63030D1*
X64107D2*
X64530D1*
X65607D2*
X70143D1*
X72357D2*
X78670D1*
X80490D2*
X81430D1*
X44730Y70608D2*
X61252D1*
X62669D2*
X70143D1*
X72357D2*
X78479D1*
X80681D2*
X81430D1*
X44730Y70362D2*
X61252D1*
X62669D2*
X70143D1*
X72357D2*
X78369D1*
X80791D2*
X81430D1*
X44730Y70115D2*
X61252D1*
X62669D2*
X70143D1*
X72357D2*
X78319D1*
X80841D2*
X81430D1*
X44730Y69868D2*
X61252D1*
X62669D2*
X70143D1*
X72357D2*
X78315D1*
X80845D2*
X81430D1*
X44730Y69622D2*
X61252D1*
X62669D2*
X70143D1*
X72357D2*
X78362D1*
X80798D2*
X81430D1*
X44730Y69375D2*
X61252D1*
X62669D2*
X70143D1*
X72357D2*
X78467D1*
X80693D2*
X81430D1*
X44730Y69128D2*
X61252D1*
X62669D2*
X63506D1*
X64548D2*
X69377D1*
X72357D2*
X78647D1*
X80513D2*
X81430D1*
X44730Y68882D2*
X61252D1*
X62669D2*
X63303D1*
X72357D2*
X78971D1*
X80189D2*
X81430D1*
X44730Y68635D2*
X61252D1*
X62669D2*
X63225D1*
X72357D2*
X79205D1*
X79955D2*
X81430D1*
X44730Y68388D2*
X61252D1*
X62669D2*
X63229D1*
X72357D2*
X78748D1*
X80412D2*
X81430D1*
X44730Y68142D2*
X61252D1*
X62669D2*
X63315D1*
X72357D2*
X78526D1*
X80634D2*
X81430D1*
X44730Y67895D2*
X61252D1*
X62669D2*
X63526D1*
X64525D2*
X69401D1*
X72357D2*
X78397D1*
X80763D2*
X81430D1*
X44730Y67648D2*
X61252D1*
X62669D2*
X70143D1*
X72357D2*
X78326D1*
X80834D2*
X81430D1*
X44730Y67402D2*
X61252D1*
X62669D2*
X70143D1*
X72357D2*
X78311D1*
X80849D2*
X81430D1*
X44730Y67155D2*
X61252D1*
X62669D2*
X70143D1*
X72357D2*
X78342D1*
X80818D2*
X81430D1*
X44730Y66908D2*
X61252D1*
X62669D2*
X70143D1*
X72357D2*
X78428D1*
X80732D2*
X81430D1*
X44730Y66662D2*
X61252D1*
X62669D2*
X70143D1*
X72357D2*
X78584D1*
X80576D2*
X81430D1*
X44730Y66415D2*
X61252D1*
X62669D2*
X70143D1*
X72357D2*
X78850D1*
X80310D2*
X81430D1*
X44730Y66168D2*
X61252D1*
X62669D2*
X70143D1*
X72357D2*
X81430D1*
X44730Y65922D2*
X61252D1*
X62669D2*
X70143D1*
X72357D2*
X78311D1*
X80849D2*
X81430D1*
X44730Y65675D2*
X61252D1*
X62669D2*
X70030D1*
X72357D2*
X78311D1*
X80849D2*
X81430D1*
X44730Y65428D2*
X61252D1*
X62669D2*
X63764D1*
X72357D2*
X78311D1*
X80849D2*
X81430D1*
X44730Y65182D2*
X61252D1*
X62669D2*
X63502D1*
X72357D2*
X78311D1*
X80849D2*
X81430D1*
X44730Y64935D2*
X61252D1*
X62669D2*
X63256D1*
X72357D2*
X78311D1*
X80849D2*
X81430D1*
X44730Y64688D2*
X61252D1*
X62669D2*
X63010D1*
X72357D2*
X78311D1*
X80849D2*
X81430D1*
X44730Y64442D2*
X61252D1*
X72357D2*
X78311D1*
X80849D2*
X81430D1*
X44730Y64195D2*
X61252D1*
X72357D2*
X78311D1*
X80849D2*
X81430D1*
X44730Y63948D2*
X61252D1*
X72345D2*
X78311D1*
X80849D2*
X81430D1*
X44730Y63702D2*
X61252D1*
X72244D2*
X78311D1*
X80849D2*
X81430D1*
X44730Y63455D2*
X61252D1*
X72017D2*
X81430D1*
X44730Y63208D2*
X61252D1*
X71771D2*
X81430D1*
X44730Y62962D2*
X61252D1*
X71525D2*
X81430D1*
X44730Y62715D2*
X61252D1*
X71279D2*
X81430D1*
X44730Y62468D2*
X61252D1*
X71033D2*
X81430D1*
X44730Y62222D2*
X61252D1*
X63623D2*
X68799D1*
X70787D2*
X81430D1*
X44730Y61975D2*
X61252D1*
X63623D2*
X68412D1*
X70537D2*
X81430D1*
X44730Y61728D2*
X61252D1*
X63623D2*
X68221D1*
X70291D2*
X81430D1*
X44730Y61482D2*
X61252D1*
X63623D2*
X68143D1*
X70044D2*
X81430D1*
X44730Y61235D2*
X61252D1*
X63623D2*
X68151D1*
X69798D2*
X81430D1*
X44730Y60988D2*
X61252D1*
X63623D2*
X68241D1*
X69654D2*
X81430D1*
X44730Y60742D2*
X61252D1*
X63623D2*
X65241D1*
X66302D2*
X68463D1*
X69431D2*
X81430D1*
X44730Y60495D2*
X61252D1*
X63623D2*
X64979D1*
X66568D2*
X81430D1*
X44730Y60248D2*
X61252D1*
X63623D2*
X64854D1*
X66818D2*
X81430D1*
X44730Y60002D2*
X61252D1*
X63623D2*
X64807D1*
X67064D2*
X81430D1*
X44730Y59755D2*
X61252D1*
X63623D2*
X64823D1*
X79455D2*
X81430D1*
X44730Y59508D2*
X61252D1*
X63623D2*
X64912D1*
X79939D2*
X81430D1*
X44730Y59262D2*
X61252D1*
X63623D2*
X65100D1*
X80185D2*
X81430D1*
X44730Y59015D2*
X61252D1*
X63623D2*
X65358D1*
X80435D2*
X81430D1*
X44730Y58768D2*
X61252D1*
X63623D2*
X65604D1*
X80681D2*
X81430D1*
X44730Y58522D2*
X61252D1*
X63623D2*
X65850D1*
X80927D2*
X81430D1*
X44730Y58275D2*
X61252D1*
X63623D2*
X66096D1*
X81173D2*
X81430D1*
X44730Y58028D2*
X61252D1*
X63623D2*
X66385D1*
X44730Y57782D2*
X61252D1*
X63623D2*
X78975D1*
X44730Y57535D2*
X61252D1*
X63623D2*
X79221D1*
X44730Y57288D2*
X61252D1*
X63623D2*
X79467D1*
X44730Y57042D2*
X61202D1*
X63623D2*
X79713D1*
X44730Y56795D2*
X61151D1*
X63623D2*
X79959D1*
X44730Y56548D2*
X61186D1*
X63623D2*
X80205D1*
X44730Y56302D2*
X52084D1*
X63623D2*
X80451D1*
X44730Y56055D2*
X51869D1*
X63580D2*
X80701D1*
X44730Y55808D2*
X51784D1*
X63423D2*
X80948D1*
X44730Y55562D2*
X51780D1*
X63173D2*
X81194D1*
X44730Y55315D2*
X51858D1*
X62927D2*
X81430D1*
X44730Y55068D2*
X52057D1*
X62638D2*
X81430D1*
X44730Y54822D2*
X81430D1*
X44730Y54575D2*
X81430D1*
X44730Y54328D2*
X81430D1*
X44730Y54082D2*
X81430D1*
X44730Y53835D2*
X81430D1*
X44730Y53588D2*
X81430D1*
X44730Y53342D2*
X81430D1*
X44730Y53095D2*
X81430D1*
X44730Y52848D2*
X81430D1*
X44730Y52602D2*
X81430D1*
X44730Y52355D2*
X81430D1*
X44730Y52108D2*
X81430D1*
X44730Y51862D2*
X81430D1*
X44730Y51615D2*
X81430D1*
X44730Y51368D2*
X81430D1*
X78460Y66145D2*
X80825D1*
Y63655D1*
X78335D1*
Y66145D1*
X78460D1*
X80819Y67315D2*
X80800Y67192D1*
X80769Y67071D1*
X80726Y66953D1*
X80671Y66841D1*
X80606Y66735D1*
X80530Y66635D1*
X80445Y66544D1*
X80350Y66462D1*
X80248Y66390D1*
X80140Y66328D1*
X80026Y66277D1*
X79907Y66239D1*
X79785Y66212D1*
X79661Y66198D1*
X79536Y66196D1*
X79411Y66207D1*
X79288Y66230D1*
X79169Y66265D1*
X79053Y66312D1*
X78942Y66371D1*
X78838Y66440D1*
X78742Y66519D1*
X78654Y66608D1*
X78575Y66705D1*
X78507Y66809D1*
X78449Y66920D1*
X78402Y67036D1*
X78368Y67156D1*
X78345Y67279D1*
X78336Y67404D1*
X78338Y67529D1*
X78353Y67653D1*
X78381Y67775D1*
X78420Y67893D1*
X78472Y68007D1*
X78534Y68115D1*
X78607Y68217D1*
X78690Y68310D1*
X78781Y68395D1*
X78881Y68470D1*
X78988Y68535D1*
X79101Y68589D1*
X79218Y68631D1*
X79340Y68662D1*
X79463Y68680D1*
X79588Y68685D1*
X79713Y68678D1*
X79836Y68658D1*
X79957Y68627D1*
X80074Y68583D1*
X80186Y68527D1*
X80292Y68461D1*
X80391Y68385D1*
X80481Y68299D1*
X80563Y68204D1*
X80635Y68102D1*
X80696Y67993D1*
X80745Y67878D1*
X80783Y67759D1*
X80809Y67637D1*
X80825Y67440D1*
X80819Y67315D1*
Y69855D2*
X80800Y69732D1*
X80769Y69611D1*
X80726Y69493D1*
X80671Y69381D1*
X80606Y69275D1*
X80530Y69175D1*
X80445Y69084D1*
X80350Y69002D1*
X80248Y68930D1*
X80140Y68868D1*
X80026Y68817D1*
X79907Y68779D1*
X79785Y68752D1*
X79661Y68738D1*
X79536Y68736D1*
X79411Y68747D1*
X79288Y68770D1*
X79169Y68805D1*
X79053Y68852D1*
X78942Y68911D1*
X78838Y68980D1*
X78742Y69059D1*
X78654Y69148D1*
X78575Y69245D1*
X78507Y69349D1*
X78449Y69460D1*
X78402Y69576D1*
X78368Y69696D1*
X78345Y69819D1*
X78336Y69944D1*
X78338Y70069D1*
X78353Y70193D1*
X78381Y70315D1*
X78420Y70433D1*
X78472Y70547D1*
X78534Y70655D1*
X78607Y70757D1*
X78690Y70850D1*
X78781Y70935D1*
X78881Y71010D1*
X78988Y71075D1*
X79101Y71129D1*
X79218Y71171D1*
X79340Y71202D1*
X79463Y71219D1*
X79588Y71225D1*
X79713Y71218D1*
X79836Y71198D1*
X79957Y71167D1*
X80074Y71123D1*
X80186Y71067D1*
X80292Y71001D1*
X80391Y70925D1*
X80481Y70839D1*
X80563Y70744D1*
X80635Y70642D1*
X80696Y70533D1*
X80745Y70418D1*
X80783Y70299D1*
X80809Y70177D1*
X80825Y69980D1*
X80819Y69855D1*
Y72395D2*
X80800Y72272D1*
X80769Y72151D1*
X80726Y72033D1*
X80671Y71921D1*
X80606Y71815D1*
X80530Y71715D1*
X80445Y71624D1*
X80350Y71542D1*
X80248Y71470D1*
X80140Y71408D1*
X80026Y71357D1*
X79907Y71319D1*
X79785Y71292D1*
X79661Y71278D1*
X79536Y71276D1*
X79411Y71287D1*
X79288Y71310D1*
X79169Y71345D1*
X79053Y71392D1*
X78942Y71451D1*
X78838Y71520D1*
X78742Y71599D1*
X78654Y71688D1*
X78575Y71785D1*
X78507Y71889D1*
X78449Y72000D1*
X78402Y72116D1*
X78368Y72236D1*
X78345Y72359D1*
X78336Y72484D1*
X78338Y72609D1*
X78353Y72733D1*
X78381Y72855D1*
X78420Y72973D1*
X78472Y73087D1*
X78534Y73195D1*
X78607Y73297D1*
X78690Y73390D1*
X78781Y73475D1*
X78881Y73550D1*
X78988Y73615D1*
X79101Y73669D1*
X79218Y73711D1*
X79340Y73742D1*
X79463Y73760D1*
X79588Y73765D1*
X79713Y73758D1*
X79836Y73738D1*
X79957Y73707D1*
X80074Y73663D1*
X80186Y73607D1*
X80292Y73541D1*
X80391Y73465D1*
X80481Y73379D1*
X80563Y73284D1*
X80635Y73182D1*
X80696Y73073D1*
X80745Y72958D1*
X80783Y72839D1*
X80809Y72717D1*
X80825Y72520D1*
X80819Y72395D1*
Y74935D2*
X80800Y74812D1*
X80769Y74691D1*
X80726Y74573D1*
X80671Y74461D1*
X80606Y74355D1*
X80530Y74255D1*
X80445Y74164D1*
X80350Y74082D1*
X80248Y74010D1*
X80140Y73948D1*
X80026Y73897D1*
X79907Y73859D1*
X79785Y73832D1*
X79661Y73818D1*
X79536Y73816D1*
X79411Y73827D1*
X79288Y73850D1*
X79169Y73885D1*
X79053Y73932D1*
X78942Y73991D1*
X78838Y74060D1*
X78742Y74139D1*
X78654Y74228D1*
X78575Y74325D1*
X78507Y74429D1*
X78449Y74540D1*
X78402Y74656D1*
X78368Y74776D1*
X78345Y74899D1*
X78336Y75024D1*
X78338Y75149D1*
X78353Y75273D1*
X78381Y75395D1*
X78420Y75513D1*
X78472Y75627D1*
X78534Y75735D1*
X78607Y75837D1*
X78690Y75930D1*
X78781Y76015D1*
X78881Y76090D1*
X78988Y76155D1*
X79101Y76209D1*
X79218Y76251D1*
X79340Y76282D1*
X79463Y76300D1*
X79588Y76305D1*
X79713Y76298D1*
X79836Y76278D1*
X79957Y76247D1*
X80074Y76203D1*
X80186Y76147D1*
X80292Y76081D1*
X80391Y76005D1*
X80481Y75919D1*
X80563Y75824D1*
X80635Y75722D1*
X80696Y75613D1*
X80745Y75498D1*
X80783Y75379D1*
X80809Y75257D1*
X80825Y75060D1*
X80819Y74935D1*
Y77475D2*
X80800Y77352D1*
X80769Y77231D1*
X80726Y77113D1*
X80671Y77001D1*
X80606Y76895D1*
X80530Y76795D1*
X80445Y76704D1*
X80350Y76622D1*
X80248Y76550D1*
X80140Y76488D1*
X80026Y76437D1*
X79907Y76399D1*
X79785Y76372D1*
X79661Y76358D1*
X79536Y76356D1*
X79411Y76367D1*
X79288Y76390D1*
X79169Y76425D1*
X79053Y76472D1*
X78942Y76531D1*
X78838Y76600D1*
X78742Y76679D1*
X78654Y76768D1*
X78575Y76865D1*
X78507Y76969D1*
X78449Y77080D1*
X78402Y77196D1*
X78368Y77316D1*
X78345Y77439D1*
X78336Y77564D1*
X78338Y77689D1*
X78353Y77813D1*
X78381Y77935D1*
X78420Y78053D1*
X78472Y78167D1*
X78534Y78275D1*
X78607Y78377D1*
X78690Y78470D1*
X78781Y78555D1*
X78881Y78630D1*
X78988Y78695D1*
X79101Y78749D1*
X79218Y78791D1*
X79340Y78822D1*
X79463Y78840D1*
X79588Y78845D1*
X79713Y78838D1*
X79836Y78818D1*
X79957Y78787D1*
X80074Y78743D1*
X80186Y78687D1*
X80292Y78621D1*
X80391Y78545D1*
X80481Y78459D1*
X80563Y78364D1*
X80635Y78262D1*
X80696Y78153D1*
X80745Y78038D1*
X80783Y77919D1*
X80809Y77797D1*
X80825Y77600D1*
X80819Y77475D1*
Y80015D2*
X80800Y79892D1*
X80769Y79771D1*
X80726Y79653D1*
X80671Y79541D1*
X80606Y79435D1*
X80530Y79335D1*
X80445Y79244D1*
X80350Y79162D1*
X80248Y79090D1*
X80140Y79028D1*
X80026Y78977D1*
X79907Y78939D1*
X79785Y78912D1*
X79661Y78898D1*
X79536Y78896D1*
X79411Y78907D1*
X79288Y78930D1*
X79169Y78965D1*
X79053Y79012D1*
X78942Y79071D1*
X78838Y79140D1*
X78742Y79219D1*
X78654Y79308D1*
X78575Y79405D1*
X78507Y79509D1*
X78449Y79620D1*
X78402Y79736D1*
X78368Y79856D1*
X78345Y79979D1*
X78336Y80104D1*
X78338Y80229D1*
X78353Y80353D1*
X78381Y80475D1*
X78420Y80593D1*
X78472Y80707D1*
X78534Y80815D1*
X78607Y80917D1*
X78690Y81010D1*
X78781Y81095D1*
X78881Y81170D1*
X78988Y81235D1*
X79101Y81289D1*
X79218Y81331D1*
X79340Y81362D1*
X79463Y81380D1*
X79588Y81385D1*
X79713Y81378D1*
X79836Y81358D1*
X79957Y81327D1*
X80074Y81283D1*
X80186Y81227D1*
X80292Y81161D1*
X80391Y81085D1*
X80481Y80999D1*
X80563Y80904D1*
X80635Y80802D1*
X80696Y80693D1*
X80745Y80578D1*
X80783Y80459D1*
X80809Y80337D1*
X80825Y80140D1*
X80819Y80015D1*
X80825Y82655D2*
X80809Y82481D1*
X80769Y82311D1*
X80705Y82148D1*
X80620Y81995D1*
X80514Y81856D1*
X80389Y81734D1*
X80248Y81630D1*
X80095Y81546D1*
X79931Y81485D1*
X79760Y81448D1*
X79586Y81435D1*
X79411Y81447D1*
X79240Y81482D1*
X79076Y81542D1*
X78921Y81624D1*
X78780Y81726D1*
X78654Y81848D1*
X78546Y81986D1*
X78459Y82138D1*
X78394Y82300D1*
X78353Y82470D1*
X78336Y82644D1*
X78343Y82818D1*
X78374Y82990D1*
X78430Y83156D1*
X78508Y83313D1*
X78607Y83457D1*
X78725Y83585D1*
X78861Y83696D1*
X79010Y83787D1*
X79171Y83856D1*
X79340Y83902D1*
X79513Y83923D1*
X79688Y83920D1*
X79861Y83893D1*
X80028Y83842D1*
X80186Y83767D1*
X80333Y83672D1*
X80464Y83557D1*
X80578Y83424D1*
X80673Y83277D1*
X80745Y83118D1*
X80795Y82950D1*
X80821Y82777D1*
X80825Y82655D1*
Y85195D2*
X80809Y85021D1*
X80769Y84851D1*
X80705Y84688D1*
X80620Y84535D1*
X80514Y84396D1*
X80389Y84274D1*
X80248Y84170D1*
X80095Y84086D1*
X79931Y84025D1*
X79760Y83988D1*
X79586Y83975D1*
X79411Y83987D1*
X79240Y84022D1*
X79076Y84082D1*
X78921Y84164D1*
X78780Y84266D1*
X78654Y84388D1*
X78546Y84526D1*
X78459Y84678D1*
X78394Y84840D1*
X78353Y85010D1*
X78336Y85184D1*
X78343Y85358D1*
X78374Y85530D1*
X78430Y85696D1*
X78508Y85853D1*
X78607Y85997D1*
X78725Y86125D1*
X78861Y86236D1*
X79010Y86327D1*
X79171Y86396D1*
X79340Y86442D1*
X79513Y86463D1*
X79688Y86460D1*
X79861Y86433D1*
X80028Y86382D1*
X80186Y86307D1*
X80333Y86212D1*
X80464Y86097D1*
X80578Y85964D1*
X80673Y85817D1*
X80745Y85658D1*
X80795Y85490D1*
X80821Y85317D1*
X80825Y85195D1*
X80819Y87635D2*
X80800Y87512D1*
X80769Y87391D1*
X80726Y87273D1*
X80671Y87161D1*
X80606Y87055D1*
X80530Y86955D1*
X80445Y86864D1*
X80350Y86782D1*
X80248Y86710D1*
X80140Y86648D1*
X80026Y86597D1*
X79907Y86559D1*
X79785Y86532D1*
X79661Y86518D1*
X79536Y86516D1*
X79411Y86526D1*
X79288Y86550D1*
X79169Y86585D1*
X79053Y86632D1*
X78942Y86691D1*
X78838Y86760D1*
X78742Y86839D1*
X78654Y86928D1*
X78575Y87025D1*
X78507Y87129D1*
X78449Y87240D1*
X78402Y87356D1*
X78368Y87476D1*
X78345Y87599D1*
X78336Y87724D1*
X78338Y87849D1*
X78353Y87973D1*
X78381Y88095D1*
X78420Y88213D1*
X78472Y88327D1*
X78534Y88435D1*
X78607Y88537D1*
X78690Y88630D1*
X78781Y88715D1*
X78881Y88790D1*
X78988Y88855D1*
X79101Y88909D1*
X79218Y88951D1*
X79340Y88982D1*
X79463Y89000D1*
X79588Y89005D1*
X79713Y88998D1*
X79836Y88978D1*
X79957Y88947D1*
X80074Y88903D1*
X80186Y88847D1*
X80292Y88781D1*
X80391Y88705D1*
X80481Y88619D1*
X80563Y88524D1*
X80635Y88422D1*
X80696Y88313D1*
X80745Y88198D1*
X80783Y88079D1*
X80809Y87957D1*
X80825Y87760D1*
X80819Y87635D1*
Y90175D2*
X80800Y90052D1*
X80769Y89931D1*
X80726Y89813D1*
X80671Y89701D1*
X80606Y89595D1*
X80530Y89495D1*
X80445Y89404D1*
X80350Y89322D1*
X80248Y89250D1*
X80140Y89188D1*
X80026Y89137D1*
X79907Y89099D1*
X79785Y89072D1*
X79661Y89058D1*
X79536Y89056D1*
X79411Y89067D1*
X79288Y89090D1*
X79169Y89125D1*
X79053Y89172D1*
X78942Y89231D1*
X78838Y89300D1*
X78742Y89379D1*
X78654Y89468D1*
X78575Y89565D1*
X78507Y89669D1*
X78449Y89780D1*
X78402Y89896D1*
X78368Y90016D1*
X78345Y90139D1*
X78336Y90264D1*
X78338Y90389D1*
X78353Y90513D1*
X78381Y90635D1*
X78420Y90753D1*
X78472Y90867D1*
X78534Y90975D1*
X78607Y91077D1*
X78690Y91170D1*
X78781Y91255D1*
X78881Y91330D1*
X78988Y91395D1*
X79101Y91449D1*
X79218Y91491D1*
X79340Y91522D1*
X79463Y91540D1*
X79588Y91545D1*
X79713Y91538D1*
X79836Y91518D1*
X79957Y91487D1*
X80074Y91443D1*
X80186Y91387D1*
X80292Y91321D1*
X80391Y91245D1*
X80481Y91159D1*
X80563Y91064D1*
X80635Y90962D1*
X80696Y90853D1*
X80745Y90738D1*
X80783Y90619D1*
X80809Y90497D1*
X80825Y90300D1*
X80819Y90175D1*
Y92715D2*
X80800Y92592D1*
X80769Y92471D1*
X80726Y92353D1*
X80671Y92241D1*
X80606Y92135D1*
X80530Y92035D1*
X80445Y91944D1*
X80350Y91862D1*
X80248Y91790D1*
X80140Y91728D1*
X80026Y91677D1*
X79907Y91639D1*
X79785Y91612D1*
X79661Y91598D1*
X79536Y91596D1*
X79411Y91606D1*
X79288Y91630D1*
X79169Y91665D1*
X79053Y91712D1*
X78942Y91771D1*
X78838Y91840D1*
X78742Y91919D1*
X78654Y92008D1*
X78575Y92105D1*
X78507Y92209D1*
X78449Y92320D1*
X78402Y92436D1*
X78368Y92556D1*
X78345Y92679D1*
X78336Y92804D1*
X78338Y92929D1*
X78353Y93053D1*
X78381Y93175D1*
X78420Y93293D1*
X78472Y93407D1*
X78534Y93515D1*
X78607Y93617D1*
X78690Y93710D1*
X78785Y93798D1*
X77205Y93795D1*
X44705D1*
Y51265D1*
X81455D1*
Y55324D1*
X78879Y57900D1*
X66883Y57899D1*
X66759Y57908D1*
X66636Y57933D1*
X66518Y57974D1*
X66407Y58030D1*
X66304Y58101D1*
X66134Y58262D1*
X65177Y59214D1*
X65086Y59299D1*
X65006Y59396D1*
X64940Y59502D1*
X64889Y59615D1*
X64853Y59735D1*
X64833Y59858D1*
X64830Y59983D1*
X64843Y60107D1*
X64872Y60229D1*
X64918Y60345D1*
X64978Y60455D1*
X65052Y60555D1*
X65139Y60645D1*
X65237Y60722D1*
X65344Y60786D1*
X65459Y60835D1*
X65579Y60869D1*
X65703Y60886D1*
X65828Y60887D1*
X65952Y60871D1*
X66073Y60840D1*
X66188Y60792D1*
X66296Y60729D1*
X66395Y60653D1*
X66521Y60519D1*
X67270Y59770D1*
X79267Y59769D1*
X79392Y59761D1*
X79514Y59736D1*
X79632Y59695D1*
X79744Y59639D1*
X79847Y59568D1*
X80017Y59407D1*
X81456Y57968D1*
X81455Y93795D1*
X80381D1*
X80481Y93699D1*
X80563Y93604D1*
X80635Y93502D1*
X80696Y93393D1*
X80745Y93278D1*
X80783Y93159D1*
X80809Y93037D1*
X80825Y92840D1*
X80819Y92715D1*
X63101Y71807D2*
X63013Y71907D1*
X62950Y72015D1*
X62907Y72132D1*
X62886Y72255D1*
X62888Y72380D1*
X62913Y72502D1*
X62959Y72618D1*
X63026Y72724D1*
X63110Y72816D1*
X63210Y72891D1*
X63322Y72946D1*
X63442Y72980D1*
X63566Y72992D1*
X63691Y72981D1*
X63811Y72948D1*
X63923Y72894D1*
X64024Y72820D1*
X64109Y72729D1*
X64177Y72624D1*
X64224Y72508D1*
X64230Y72486D1*
X64366Y72491D1*
X64409Y72486D1*
X64448Y72596D1*
X64511Y72704D1*
X64592Y72799D1*
X64689Y72877D1*
X64799Y72937D1*
X64918Y72975D1*
X65041Y72992D1*
X65166Y72985D1*
X65287Y72957D1*
X65402Y72906D1*
X65505Y72836D1*
X65594Y72748D1*
X65665Y72646D1*
X65716Y72532D1*
X65746Y72411D1*
X65754Y72282D1*
X65738Y72158D1*
X65700Y72040D1*
X65641Y71930D1*
X65563Y71832D1*
X65538Y71808D1*
X65624Y71709D1*
X65688Y71601D1*
X65731Y71484D1*
X65752Y71361D1*
X65750Y71232D1*
X65725Y71110D1*
X65679Y70994D1*
X65612Y70889D1*
X65527Y70797D1*
X65427Y70723D1*
X65315Y70668D1*
X65195Y70634D1*
X65070Y70622D1*
X64946Y70633D1*
X64826Y70667D1*
X64714Y70722D1*
X64613Y70796D1*
X64528Y70887D1*
X64461Y70993D1*
X64414Y71108D1*
X64408Y71128D1*
X64295Y71123D1*
X64231Y71128D1*
X64179Y70994D1*
X64112Y70889D1*
X64027Y70797D1*
X63927Y70723D1*
X63815Y70668D1*
X63695Y70634D1*
X63570Y70622D1*
X63446Y70633D1*
X63326Y70667D1*
X63214Y70722D1*
X63113Y70796D1*
X63028Y70887D1*
X62961Y70993D1*
X62914Y71108D1*
X62889Y71230D1*
X62886Y71355D1*
X62906Y71478D1*
X62948Y71596D1*
X63011Y71704D1*
X63102Y71808D1*
X68731Y62130D2*
X69007Y62406D1*
X64090D1*
X63938Y62341D1*
X63816Y62314D1*
X63691Y62306D1*
X63602Y62316D1*
X63599Y60724D1*
Y56294D1*
X63588Y56170D1*
X63554Y56050D1*
X63499Y55938D1*
X63398Y55810D1*
X62779Y55190D1*
X62683Y55110D1*
X62574Y55049D1*
X62456Y55009D1*
X62295Y54990D1*
X52963D1*
X52810Y54924D1*
X52688Y54897D1*
X52563Y54890D1*
X52439Y54903D1*
X52318Y54935D1*
X52204Y54986D1*
X52100Y55054D1*
X52007Y55138D1*
X51929Y55235D1*
X51868Y55344D1*
X51825Y55461D1*
X51800Y55584D1*
X51796Y55709D1*
X51811Y55832D1*
X51846Y55952D1*
X51899Y56065D1*
X51970Y56168D1*
X52056Y56259D1*
X52155Y56335D1*
X52265Y56394D1*
X52383Y56435D1*
X52506Y56456D1*
X52631Y56458D1*
X52754Y56440D1*
X52873Y56403D1*
X52961Y56359D1*
X61295Y56360D1*
X61249Y56440D1*
X61206Y56557D1*
X61182Y56680D1*
X61177Y56804D1*
X61193Y56928D1*
X61227Y57048D1*
X61276Y57151D1*
Y73868D1*
X57834Y73867D1*
X57709Y73879D1*
X57589Y73912D1*
X57477Y73967D1*
X57349Y74068D1*
X55762Y75656D1*
X55682Y75752D1*
X55621Y75860D1*
X55580Y75979D1*
X55561Y76140D1*
Y78316D1*
X55490Y78482D1*
X55466Y78604D1*
X55462Y78729D1*
X55477Y78853D1*
X55512Y78973D1*
X55565Y79086D1*
X55636Y79189D1*
X55722Y79279D1*
X55821Y79355D1*
X55931Y79414D1*
X56049Y79455D1*
X56172Y79477D1*
X56297Y79478D1*
X56420Y79460D1*
X56539Y79423D1*
X56651Y79367D1*
X56753Y79295D1*
X56841Y79207D1*
X56915Y79106D1*
X56971Y78995D1*
X57010Y78876D1*
X57031Y78695D1*
X57021Y78571D1*
X56991Y78449D1*
X56929Y78311D1*
X56931Y76425D1*
X58120Y75235D1*
X60334Y75237D1*
X61580D1*
X61646Y75271D1*
X61764Y75312D1*
X61887Y75334D1*
X62012Y75336D1*
X62136Y75318D1*
X62255Y75280D1*
X62367Y75225D1*
X62468Y75152D1*
X62557Y75064D1*
X62630Y74963D1*
X62687Y74852D1*
X62725Y74733D1*
X62747Y74552D1*
X62737Y74428D1*
X62707Y74307D1*
X62644Y74168D1*
X62647Y71677D1*
Y64298D1*
X63698Y65352D1*
X63794Y65432D1*
X63903Y65493D1*
X64021Y65533D1*
X64183Y65553D1*
X69929D1*
X70164Y65786D1*
X70166Y67781D1*
X70007Y67742D1*
X69882Y67735D1*
X69758Y67748D1*
X69637Y67780D1*
X69523Y67831D1*
X69381Y67933D1*
X64551Y67935D1*
X64479Y67879D1*
X64372Y67815D1*
X64256Y67769D1*
X64134Y67742D1*
X64009Y67735D1*
X63885Y67748D1*
X63764Y67780D1*
X63650Y67831D1*
X63546Y67899D1*
X63454Y67983D1*
X63376Y68081D1*
X63314Y68190D1*
X63271Y68307D1*
X63247Y68429D1*
X63242Y68554D1*
X63257Y68678D1*
X63292Y68798D1*
X63345Y68911D1*
X63416Y69014D1*
X63502Y69104D1*
X63601Y69180D1*
X63711Y69239D1*
X63829Y69280D1*
X63952Y69302D1*
X64077Y69303D1*
X64201Y69285D1*
X64320Y69248D1*
X64431Y69192D1*
X64547Y69106D1*
X69374Y69105D1*
X69474Y69180D1*
X69584Y69239D1*
X69702Y69280D1*
X69825Y69302D1*
X69950Y69303D1*
X70073Y69285D1*
X70166Y69256D1*
Y72742D1*
X70096Y72910D1*
X70072Y73033D1*
X70067Y73158D1*
X70082Y73282D1*
X70117Y73401D1*
X70170Y73514D1*
X70241Y73617D1*
X70327Y73708D1*
X70426Y73784D1*
X70536Y73843D1*
X70654Y73884D1*
X70777Y73905D1*
X70902Y73907D1*
X70960Y73899D1*
X70961Y75065D1*
X67712Y78312D1*
X61709Y78313D1*
X61556Y78247D1*
X61434Y78220D1*
X61310Y78213D1*
X61185Y78225D1*
X61065Y78258D1*
X60951Y78308D1*
X60846Y78377D1*
X60754Y78461D1*
X60676Y78558D1*
X60614Y78667D1*
X60571Y78784D1*
X60547Y78907D1*
X60542Y79031D1*
X60557Y79155D1*
X60592Y79275D1*
X60646Y79388D1*
X60716Y79491D1*
X60802Y79582D1*
X60901Y79658D1*
X61011Y79717D1*
X61129Y79758D1*
X61252Y79779D1*
X61377Y79781D1*
X61501Y79763D1*
X61620Y79726D1*
X61707Y79682D1*
X67995Y79683D1*
X68119Y79671D1*
X68239Y79638D1*
X68351Y79583D1*
X68479Y79482D1*
X72131Y75830D1*
X72211Y75734D1*
X72272Y75626D1*
X72312Y75507D1*
X72331Y75346D1*
Y64076D1*
X72320Y63952D1*
X72286Y63832D1*
X72231Y63720D1*
X72131Y63592D1*
X69703Y61164D1*
X69644Y61016D1*
X69578Y60910D1*
X69496Y60816D1*
X69400Y60736D1*
X69293Y60673D1*
X69177Y60627D1*
X69055Y60600D1*
X68930Y60592D1*
X68806Y60605D1*
X68685Y60637D1*
X68571Y60688D1*
X68467Y60756D1*
X68374Y60840D1*
X68297Y60938D1*
X68235Y61047D1*
X68192Y61164D1*
X68168Y61286D1*
X68163Y61411D1*
X68178Y61535D1*
X68213Y61655D1*
X68266Y61768D1*
X68337Y61871D1*
X68423Y61961D1*
X68522Y62037D1*
X68632Y62096D1*
X68732Y62131D1*
X61709Y78315D2*
X61556Y78247D1*
X61434Y78220D1*
X61310Y78213D1*
X61185Y78225D1*
X61065Y78258D1*
X60951Y78308D1*
X60846Y78377D1*
X60754Y78461D1*
X60676Y78558D1*
X60614Y78667D1*
X60571Y78784D1*
X60547Y78907D1*
X60542Y79031D1*
X60557Y79155D1*
X60592Y79275D1*
X60646Y79388D1*
X60716Y79491D1*
X60802Y79582D1*
X60901Y79658D1*
X61011Y79717D1*
X61129Y79758D1*
X61252Y79779D1*
X61377Y79781D1*
X61501Y79763D1*
X61620Y79726D1*
X61707Y79682D1*
X61581Y75236D2*
X61646Y75271D1*
X61764Y75312D1*
X61887Y75334D1*
X62012Y75336D1*
X62136Y75318D1*
X62255Y75280D1*
X62367Y75225D1*
X62468Y75152D1*
X62557Y75064D1*
X62630Y74963D1*
X62687Y74852D1*
X62725Y74733D1*
X62747Y74552D1*
X62737Y74428D1*
X62707Y74307D1*
X62644Y74168D1*
X54705Y86668D2*
X67135D1*
X67321Y86743D1*
X67444Y86765D1*
X67569Y86767D1*
X67693Y86749D1*
X67812Y86711D1*
X67923Y86656D1*
X68025Y86583D1*
X68114Y86495D1*
X68187Y86394D1*
X68244Y86283D1*
X68282Y86164D1*
X68303Y85983D1*
X68293Y85859D1*
X68264Y85738D1*
X68215Y85622D1*
X68149Y85517D1*
X68067Y85422D1*
X67971Y85342D1*
X67864Y85279D1*
X67774Y85239D1*
X74278D1*
X74466Y85314D1*
X74589Y85336D1*
X74713Y85338D1*
X74837Y85320D1*
X74956Y85283D1*
X75068Y85227D1*
X75169Y85154D1*
X75258Y85066D1*
X75332Y84965D1*
X75388Y84854D1*
X75427Y84735D1*
X75448Y84554D1*
X75438Y84430D1*
X75408Y84309D1*
X75360Y84194D1*
X75294Y84088D1*
X75212Y83993D1*
X75116Y83913D1*
X75009Y83850D1*
X74892Y83804D1*
X74770Y83777D1*
X74646Y83770D1*
X74522Y83782D1*
X74401Y83814D1*
X74277Y83872D1*
X71413Y83869D1*
X48534D1*
X48378Y83804D1*
X48257Y83777D1*
X48132Y83770D1*
X48008Y83782D1*
X47887Y83814D1*
X47773Y83865D1*
X47668Y83934D1*
X47576Y84018D1*
X47498Y84115D1*
X47437Y84224D1*
X47393Y84341D1*
X47369Y84464D1*
X47365Y84588D1*
X47380Y84712D1*
X47415Y84832D1*
X47468Y84945D1*
X47538Y85048D1*
X47624Y85139D1*
X47724Y85214D1*
X47834Y85273D1*
X47952Y85314D1*
X48075Y85336D1*
X48200Y85338D1*
X48323Y85320D1*
X48442Y85283D1*
X48530Y85239D1*
X54064Y85243D1*
X53950Y85294D1*
X53846Y85363D1*
X53753Y85447D1*
X53675Y85544D1*
X53614Y85653D1*
X53571Y85770D1*
X53546Y85892D1*
X53542Y86017D1*
X53557Y86141D1*
X53592Y86261D1*
X53645Y86374D1*
X53716Y86477D1*
X53802Y86568D1*
X53901Y86643D1*
X54011Y86702D1*
X54129Y86743D1*
X54252Y86765D1*
X54377Y86767D1*
X54500Y86749D1*
X54619Y86711D1*
X54707Y86668D1*
X79580Y83925D2*
D14*
Y81436D1*
X78336Y82680D2*
X80825D1*
X79580Y86465D2*
Y83976D1*
X78336Y85220D2*
X80825D1*
X63569Y72992D2*
Y72307D1*
X62885D2*
X63569D1*
Y71307D2*
Y70623D1*
X62885Y71307D2*
X63569D1*
X65069Y72992D2*
Y72307D1*
X65754D1*
X64319Y72492D2*
Y71123D1*
X65069Y71307D2*
Y70623D1*
Y71307D2*
X65754D1*
X62905Y73228D2*
D15*
X66416D1*
X62905Y72982D2*
X66416D1*
X62905Y72735D2*
X66416D1*
X62905Y72488D2*
X66416D1*
X62905Y72242D2*
X66416D1*
X62905Y71995D2*
X66416D1*
X62905Y71748D2*
X66416D1*
X62905Y71502D2*
X66416D1*
X62905Y71255D2*
X66416D1*
X62905Y71008D2*
X66416D1*
X62905Y70762D2*
X66416D1*
X66315Y73475D2*
X62880D1*
Y70550D1*
X66440D1*
Y73475D1*
X66315D1*
D21*
X27580Y43910D3*
D22*
Y98770D3*
D26*
X39580Y64900D3*
D27*
Y67440D3*
Y69980D3*
Y72520D3*
Y75060D3*
Y77600D3*
Y80140D3*
Y82680D3*
Y85220D3*
Y87760D3*
Y90300D3*
Y92840D3*
D26*
X79580Y64900D3*
D27*
Y67440D3*
Y69980D3*
Y72520D3*
Y75060D3*
Y77600D3*
Y80140D3*
Y82680D3*
Y85220D3*
Y87760D3*
Y90300D3*
Y92840D3*
D34*
X63569Y72307D3*
Y71307D3*
X65069Y72307D3*
X64319Y71807D3*
X65069Y71307D3*
D21*
X91580Y43910D3*
D22*
Y98770D3*
M02*
