M48
METRIC,0000.00
T01C0.3
T02C0.486
T03C0.6
T04C1.02
T05C1.2
T06C2.36
T07C3.18
%
T01
X+006357Y+007231
X+006432Y+007181
X+006507Y+007231
X+006507Y+007131
X+006357Y+007131
X+006101Y+007185
X+006101Y+007074
X+006101Y+007297
X+006196Y+007455
X+006133Y+007900
X+005625Y+007870
X+005433Y+008598
X+004815Y+008455
X+006752Y+008598
X+007466Y+008455
X+007085Y+007312
X+006720Y+007297
X+006720Y+007185
X+006720Y+007074
X+006990Y+006852
X+006945Y+006309
X+006895Y+006138
X+006371Y+006309
X+006403Y+006852
X+006196Y+005677
X+005258Y+005567
X+004758Y+004914
X+005258Y+004671
X+007258Y+004671
T02
X+006117Y+007709
X+006498Y+008090
X+006704Y+008090
X+007355Y+007551
X+007355Y+007360
X+007498Y+007360
X+007355Y+007170
X+006895Y+007042
X+006895Y+006646
X+007228Y+006100
X+007546Y+006100
X+007546Y+005550
X+007228Y+005550
X+006726Y+005264
X+006408Y+005264
X+005708Y+005264
X+005390Y+005264
X+005783Y+005804
X+005783Y+005995
X+005625Y+006471
X+005625Y+006773
X+006577Y+005995
X+005260Y+008281
X+005895Y+009233
X+006149Y+009233
T03
X+006958Y+004541
X+006958Y+004271
X+004958Y+004266
X+004958Y+004536
T04
X+003958Y+006490
X+003958Y+006744
X+003958Y+006998
X+003958Y+007252
X+003958Y+007506
X+003958Y+007760
X+003958Y+008014
X+003958Y+008268
X+003958Y+008522
X+003958Y+008776
X+003958Y+009030
X+003958Y+009284
X+007958Y+009284
X+007958Y+009030
X+007958Y+008776
X+007958Y+008522
X+007958Y+008268
X+007958Y+008014
X+007958Y+007760
X+007958Y+007506
X+007958Y+007252
X+007958Y+006998
X+007958Y+006744
X+007958Y+006490
T05
X+002758Y+004391
X+002758Y+009877
X+009158Y+009877
X+009158Y+004391
T06
X+002011Y+004391
X+008411Y+004391
T07
X+002758Y+005407
X+002758Y+008861
X+009158Y+008861
X+009158Y+005407
T00
M30
