G04 DipTrace 2.4.0.2*
%INTopSilk.gbr*%
%MOMM*%
%ADD10C,0.2*%
%ADD20O,0.799X0.799*%
%ADD23C,0.15*%
%ADD30O,0.391X0.392*%
%ADD33O,0.4X0.4*%
%ADD83C,0.157*%
%ADD84C,0.235*%
%ADD85C,0.196*%
%FSLAX53Y53*%
G04*
G71*
G90*
G75*
G01*
%LNTopSilk*%
%LPD*%
D20*
X27580Y40649D3*
X19330Y46100D2*
D10*
Y100750D1*
X35830D1*
Y41750D1*
X19330D1*
X70908Y78328D2*
D23*
X69207D1*
Y75828D1*
X70908D1*
Y78328D1*
X62581Y58896D2*
X59381D1*
Y60996D1*
X62581D1*
Y58896D1*
X38330Y63380D2*
D10*
X40830D1*
Y94360D1*
X38330D1*
Y63380D1*
X78330D2*
X80830D1*
Y94360D1*
X78330D1*
Y63380D1*
X65805Y76445D2*
D23*
X67905D1*
Y79645D1*
X65805D1*
Y76445D1*
X53824Y93225D2*
X57024D1*
Y91125D1*
X53824D1*
Y93225D1*
X65419Y76343D2*
X62719D1*
Y77843D1*
X65419D1*
Y76343D1*
X60726Y81970D2*
X63426D1*
Y80470D1*
X60726D1*
Y81970D1*
D30*
X49906Y86245D3*
X50139Y87518D2*
D10*
X53139D1*
Y88018D1*
X50139D1*
Y87518D1*
X61080Y46830D2*
D23*
X58080D1*
Y48930D1*
X61080D1*
Y46830D1*
G36*
X59897Y48515D2*
Y47244D1*
X59263Y47880D1*
D1*
X59897Y48515D1*
G37*
D30*
X71831Y82270D3*
X71597Y80997D2*
D10*
X68597D1*
Y80497D1*
X71597D1*
Y80997D1*
X65869Y70257D2*
Y71107D1*
D33*
Y73357D3*
X62769Y70257D2*
D10*
Y71107D1*
Y72507D2*
Y73357D1*
X65869Y70257D2*
X65719D1*
X62819Y70252D2*
X62919Y70257D1*
X62769Y73357D2*
X62919D1*
X65869Y72507D2*
Y72853D1*
X63896Y84118D2*
Y89118D1*
X61295Y84118D2*
Y89118D1*
X63896D2*
X61295D1*
X63096Y84118D2*
X63896D1*
X62095D2*
X61295D1*
X63096D2*
G03X62095Y84118I-500J0D01*
G01*
X63231Y68519D2*
X65137D1*
X63231Y61534D2*
X65137D1*
D30*
X56615Y78429D3*
X56849Y79703D2*
D10*
X59849D1*
Y80203D1*
X56849D1*
Y79703D1*
X72973Y64991D2*
D23*
X71273D1*
Y62491D1*
X72973D1*
Y64991D1*
Y68008D2*
X71273D1*
Y65508D1*
X72973D1*
Y68008D1*
X53408Y84754D2*
X55908D1*
Y83054D1*
X53408D1*
Y84754D1*
X53899Y89850D2*
X56399D1*
Y88150D1*
X53899D1*
Y89850D1*
X55432Y77845D2*
X52932D1*
Y79545D1*
X55432D1*
Y77845D1*
X69797Y58670D2*
X68097D1*
Y56170D1*
X69797D1*
Y58670D1*
X70830Y73805D2*
X68330D1*
Y75505D1*
X70830D1*
Y73805D1*
X67180Y42261D2*
D10*
X71980D1*
X67180Y45861D2*
X71980D1*
X67180D2*
Y45490D1*
Y44380D2*
Y43743D1*
Y42261D2*
Y42632D1*
X71980Y45861D2*
Y45490D1*
Y44380D2*
Y43743D1*
Y42261D2*
Y42632D1*
X68280Y41311D2*
X70880D1*
X68280D2*
Y42261D1*
X70880Y41311D2*
Y42261D1*
X47180Y42213D2*
X51980D1*
X47180Y45813D2*
X51980D1*
X47180D2*
Y45442D1*
Y44331D2*
Y43695D1*
Y42213D2*
Y42584D1*
X51980Y45813D2*
Y45442D1*
Y44331D2*
Y43695D1*
Y42213D2*
Y42584D1*
X48280Y41263D2*
X50880D1*
X48280D2*
Y42213D1*
X50880Y41263D2*
Y42213D1*
D30*
X50904Y80437D3*
X49630Y80671D2*
D10*
Y83670D1*
X49130D1*
Y80671D1*
X49630D1*
X47299Y85383D2*
D23*
X48999D1*
Y87883D1*
X47299D1*
Y85383D1*
X55417Y80212D2*
X52917D1*
Y81912D1*
X55417D1*
Y80212D1*
X72228Y80585D2*
D10*
X75828D1*
Y86300D1*
X72228D1*
Y80585D1*
Y81219D2*
X75828D1*
Y85666D1*
X72228D1*
Y81219D1*
X73075Y81855D2*
X73710D1*
Y82491D1*
X73075D1*
Y81855D1*
X74345D2*
X74980D1*
Y82491D1*
X74345D1*
Y81855D1*
D33*
X72628Y79443D3*
X59477Y72454D2*
D23*
X57778D1*
Y69954D1*
X59477D1*
Y72454D1*
X57792Y72826D2*
X59493D1*
Y75326D1*
X57792D1*
Y72826D1*
D20*
X91580Y40649D3*
X83330Y46100D2*
D10*
Y100750D1*
X99830D1*
Y41750D1*
X83330D1*
X38464Y100273D2*
X54023D1*
Y95668D1*
X38464D1*
Y100273D1*
X36543Y100333D2*
D83*
Y99556D1*
X36504Y99410D1*
X36465Y99361D1*
X36387Y99312D1*
X36309D1*
X36232Y99361D1*
X36193Y99410D1*
X36154Y99556D1*
Y99652D1*
X36872Y100332D2*
X37299D1*
X37066Y99943D1*
X37183D1*
X37260Y99895D1*
X37299Y99846D1*
X37338Y99700D1*
Y99604D1*
X37299Y99458D1*
X37221Y99360D1*
X37105Y99312D1*
X36988D1*
X36872Y99360D1*
X36833Y99410D1*
X36794Y99506D1*
X71857Y75947D2*
Y76297D1*
X71808Y76414D1*
X71759Y76453D1*
X71663Y76492D1*
X71565D1*
X71469Y76453D1*
X71419Y76414D1*
X71371Y76297D1*
Y75947D1*
X72392D1*
X71857Y76220D2*
X72392Y76492D1*
X71566Y76743D2*
X71517Y76821D1*
X71372Y76938D1*
X72392D1*
X63733Y60336D2*
X63694Y60433D1*
X63616Y60530D1*
X63539Y60579D1*
X63383D1*
X63305Y60530D1*
X63228Y60433D1*
X63188Y60336D1*
X63150Y60190D1*
Y59946D1*
X63188Y59802D1*
X63228Y59704D1*
X63305Y59607D1*
X63383Y59558D1*
X63539D1*
X63616Y59607D1*
X63694Y59704D1*
X63733Y59802D1*
X64062Y60578D2*
X64489D1*
X64256Y60189D1*
X64373D1*
X64450Y60141D1*
X64489Y60092D1*
X64528Y59946D1*
Y59850D1*
X64489Y59704D1*
X64411Y59606D1*
X64294Y59558D1*
X64178D1*
X64062Y59606D1*
X64023Y59656D1*
X63984Y59752D1*
X39393Y62986D2*
Y62209D1*
X39354Y62063D1*
X39315Y62015D1*
X39237Y61966D1*
X39159D1*
X39082Y62015D1*
X39043Y62063D1*
X39004Y62209D1*
Y62306D1*
X39644Y62791D2*
X39722Y62840D1*
X39839Y62985D1*
Y61966D1*
X79059Y62986D2*
Y62209D1*
X79021Y62063D1*
X78981Y62015D1*
X78904Y61966D1*
X78826D1*
X78748Y62015D1*
X78710Y62063D1*
X78670Y62209D1*
Y62306D1*
X79350Y62743D2*
Y62791D1*
X79388Y62889D1*
X79427Y62937D1*
X79505Y62985D1*
X79661D1*
X79738Y62937D1*
X79777Y62889D1*
X79816Y62791D1*
Y62694D1*
X79777Y62597D1*
X79699Y62452D1*
X79310Y61966D1*
X79855D1*
X66791Y75956D2*
X66752Y76053D1*
X66674Y76150D1*
X66597Y76199D1*
X66441D1*
X66363Y76150D1*
X66286Y76053D1*
X66246Y75956D1*
X66207Y75810D1*
Y75566D1*
X66246Y75422D1*
X66286Y75324D1*
X66363Y75227D1*
X66441Y75178D1*
X66597D1*
X66674Y75227D1*
X66752Y75324D1*
X66791Y75422D1*
X67431Y75178D2*
Y76198D1*
X67042Y75518D1*
X67625D1*
X52481Y92883D2*
X52442Y92980D1*
X52364Y93077D1*
X52286Y93126D1*
X52131D1*
X52053Y93077D1*
X51976Y92980D1*
X51936Y92883D1*
X51897Y92737D1*
Y92493D1*
X51936Y92348D1*
X51976Y92251D1*
X52053Y92154D1*
X52131Y92105D1*
X52286D1*
X52364Y92154D1*
X52442Y92251D1*
X52481Y92348D1*
X53198Y92980D2*
X53159Y93076D1*
X53042Y93125D1*
X52965D1*
X52848Y93076D1*
X52770Y92930D1*
X52732Y92688D1*
Y92445D1*
X52770Y92251D1*
X52848Y92153D1*
X52965Y92105D1*
X53004D1*
X53120Y92153D1*
X53198Y92251D1*
X53236Y92397D1*
Y92445D1*
X53198Y92591D1*
X53120Y92688D1*
X53004Y92736D1*
X52965D1*
X52848Y92688D1*
X52770Y92591D1*
X52732Y92445D1*
X63963Y79088D2*
X63924Y79184D1*
X63846Y79282D1*
X63769Y79330D1*
X63613D1*
X63535Y79282D1*
X63458Y79184D1*
X63418Y79088D1*
X63379Y78942D1*
Y78698D1*
X63418Y78553D1*
X63458Y78456D1*
X63535Y78359D1*
X63613Y78310D1*
X63769D1*
X63846Y78359D1*
X63924Y78456D1*
X63963Y78553D1*
X64680Y79329D2*
X64292D1*
X64253Y78892D1*
X64292Y78941D1*
X64409Y78990D1*
X64524D1*
X64641Y78941D1*
X64719Y78844D1*
X64758Y78698D1*
Y78602D1*
X64719Y78456D1*
X64641Y78358D1*
X64524Y78310D1*
X64409D1*
X64292Y78358D1*
X64253Y78407D1*
X64214Y78504D1*
X61970Y83215D2*
X61931Y83312D1*
X61853Y83410D1*
X61776Y83458D1*
X61621D1*
X61542Y83410D1*
X61465Y83312D1*
X61426Y83215D1*
X61387Y83069D1*
Y82826D1*
X61426Y82681D1*
X61465Y82583D1*
X61542Y82486D1*
X61621Y82437D1*
X61776D1*
X61853Y82486D1*
X61931Y82583D1*
X61970Y82681D1*
X62377Y82437D2*
X62766Y83457D1*
X62221D1*
X49167Y89661D2*
Y88640D1*
X49439D1*
X49556Y88690D1*
X49634Y88786D1*
X49673Y88884D1*
X49711Y89029D1*
Y89273D1*
X49673Y89419D1*
X49634Y89515D1*
X49556Y89613D1*
X49439Y89661D1*
X49167D1*
X50429Y89660D2*
X50041D1*
X50002Y89223D1*
X50041Y89272D1*
X50157Y89321D1*
X50273D1*
X50390Y89272D1*
X50468Y89175D1*
X50507Y89029D1*
Y88932D1*
X50468Y88786D1*
X50390Y88689D1*
X50273Y88640D1*
X50157D1*
X50041Y88689D1*
X50002Y88738D1*
X49962Y88835D1*
X59049Y50259D2*
Y49238D1*
X59322D1*
X59439Y49288D1*
X59517Y49384D1*
X59555Y49482D1*
X59594Y49627D1*
Y49871D1*
X59555Y50017D1*
X59517Y50113D1*
X59439Y50211D1*
X59322Y50259D1*
X59049D1*
X60234Y49238D2*
Y50258D1*
X59845Y49579D1*
X60428D1*
X69007Y84272D2*
Y83251D1*
X69279D1*
X69396Y83300D1*
X69474Y83397D1*
X69513Y83494D1*
X69551Y83639D1*
Y83883D1*
X69513Y84029D1*
X69474Y84126D1*
X69396Y84223D1*
X69279Y84272D1*
X69007D1*
X69880Y84270D2*
X70307D1*
X70075Y83882D1*
X70191D1*
X70269Y83834D1*
X70307Y83785D1*
X70347Y83639D1*
Y83543D1*
X70307Y83397D1*
X70230Y83299D1*
X70113Y83251D1*
X69996D1*
X69880Y83299D1*
X69842Y83348D1*
X69802Y83445D1*
X66680Y70052D2*
Y69031D1*
X67514Y69810D2*
X67475Y69906D1*
X67397Y70004D1*
X67320Y70052D1*
X67164D1*
X67086Y70004D1*
X67009Y69906D1*
X66969Y69810D1*
X66931Y69664D1*
Y69420D1*
X66969Y69275D1*
X67009Y69177D1*
X67086Y69081D1*
X67164Y69031D1*
X67320D1*
X67397Y69081D1*
X67475Y69177D1*
X67514Y69275D1*
X67804Y69809D2*
Y69857D1*
X67843Y69955D1*
X67881Y70003D1*
X67960Y70051D1*
X68115D1*
X68192Y70003D1*
X68231Y69955D1*
X68270Y69857D1*
Y69760D1*
X68231Y69663D1*
X68154Y69518D1*
X67765Y69031D1*
X68309D1*
X61781Y90606D2*
Y89585D1*
X62615Y90364D2*
X62576Y90460D1*
X62498Y90558D1*
X62421Y90606D1*
X62265D1*
X62187Y90558D1*
X62110Y90460D1*
X62070Y90364D1*
X62032Y90218D1*
Y89974D1*
X62070Y89829D1*
X62110Y89731D1*
X62187Y89635D1*
X62265Y89585D1*
X62421D1*
X62498Y89635D1*
X62576Y89731D1*
X62615Y89829D1*
X62944Y90605D2*
X63371D1*
X63138Y90216D1*
X63255D1*
X63332Y90168D1*
X63371Y90120D1*
X63410Y89974D1*
Y89877D1*
X63371Y89731D1*
X63294Y89634D1*
X63177Y89585D1*
X63060D1*
X62944Y89634D1*
X62905Y89683D1*
X62866Y89780D1*
X63728Y70007D2*
Y68986D1*
X64194D1*
X64445Y69811D2*
X64523Y69861D1*
X64640Y70006D1*
Y68986D1*
X59246Y82163D2*
X59169Y82116D1*
X59091Y82018D1*
X59052Y81921D1*
X59012Y81775D1*
Y81532D1*
X59052Y81386D1*
X59091Y81289D1*
X59169Y81192D1*
X59246Y81143D1*
X59401D1*
X59480Y81192D1*
X59557Y81289D1*
X59595Y81386D1*
X59635Y81532D1*
Y81775D1*
X59595Y81921D1*
X59557Y82018D1*
X59480Y82116D1*
X59401Y82163D1*
X59246D1*
X59363Y81338D2*
X59595Y81046D1*
X59964Y82162D2*
X60391D1*
X60158Y81774D1*
X60275D1*
X60352Y81725D1*
X60391Y81677D1*
X60430Y81531D1*
Y81434D1*
X60391Y81288D1*
X60314Y81191D1*
X60197Y81142D1*
X60080D1*
X59964Y81191D1*
X59926Y81240D1*
X59886Y81337D1*
X74081Y63071D2*
Y63421D1*
X74032Y63538D1*
X73983Y63577D1*
X73887Y63616D1*
X73789D1*
X73692Y63577D1*
X73643Y63538D1*
X73595Y63421D1*
Y63071D1*
X74616D1*
X74081Y63344D2*
X74616Y63616D1*
X73596Y64333D2*
Y63945D1*
X74033Y63906D1*
X73984Y63945D1*
X73935Y64062D1*
Y64178D1*
X73984Y64294D1*
X74081Y64373D1*
X74227Y64411D1*
X74324D1*
X74470Y64373D1*
X74567Y64294D1*
X74616Y64178D1*
Y64062D1*
X74567Y63945D1*
X74518Y63906D1*
X74421Y63867D1*
X74081Y66108D2*
Y66457D1*
X74032Y66574D1*
X73983Y66613D1*
X73887Y66652D1*
X73789D1*
X73692Y66613D1*
X73643Y66574D1*
X73595Y66457D1*
Y66108D1*
X74616D1*
X74081Y66380D2*
X74616Y66652D1*
X73741Y67369D2*
X73644Y67331D1*
X73596Y67214D1*
Y67137D1*
X73644Y67020D1*
X73790Y66942D1*
X74033Y66903D1*
X74275D1*
X74470Y66942D1*
X74567Y67020D1*
X74616Y67137D1*
Y67175D1*
X74567Y67291D1*
X74470Y67369D1*
X74324Y67408D1*
X74275D1*
X74129Y67369D1*
X74033Y67291D1*
X73984Y67175D1*
Y67137D1*
X74033Y67020D1*
X74129Y66942D1*
X74275Y66903D1*
X53765Y85756D2*
X54115D1*
X54232Y85805D1*
X54271Y85854D1*
X54310Y85950D1*
Y86048D1*
X54271Y86145D1*
X54232Y86194D1*
X54115Y86242D1*
X53765D1*
Y85221D1*
X54038Y85756D2*
X54310Y85221D1*
X54561Y86047D2*
X54639Y86096D1*
X54756Y86241D1*
Y85221D1*
X55085Y86241D2*
X55512D1*
X55279Y85853D1*
X55396D1*
X55473Y85804D1*
X55512Y85756D1*
X55551Y85610D1*
Y85513D1*
X55512Y85367D1*
X55434Y85270D1*
X55318Y85221D1*
X55201D1*
X55085Y85270D1*
X55046Y85319D1*
X55007Y85416D1*
X56460Y88947D2*
X56809D1*
X56926Y88996D1*
X56966Y89044D1*
X57004Y89141D1*
Y89239D1*
X56966Y89335D1*
X56926Y89385D1*
X56809Y89433D1*
X56460D1*
Y88412D1*
X56732Y88947D2*
X57004Y88412D1*
X57255Y89237D2*
X57333Y89287D1*
X57450Y89432D1*
Y88412D1*
X58090D2*
Y89432D1*
X57701Y88752D1*
X58284D1*
X51067Y78642D2*
X51416D1*
X51533Y78691D1*
X51572Y78739D1*
X51611Y78836D1*
Y78934D1*
X51572Y79030D1*
X51533Y79080D1*
X51416Y79128D1*
X51067D1*
Y78107D1*
X51339Y78642D2*
X51611Y78107D1*
X51862Y78933D2*
X51940Y78982D1*
X52057Y79127D1*
Y78107D1*
X52541Y79127D2*
X52425Y79079D1*
X52347Y78933D1*
X52308Y78690D1*
Y78544D1*
X52347Y78301D1*
X52425Y78155D1*
X52541Y78107D1*
X52619D1*
X52736Y78155D1*
X52813Y78301D1*
X52852Y78544D1*
Y78690D1*
X52813Y78933D1*
X52736Y79079D1*
X52619Y79127D1*
X52541D1*
X52813Y78933D2*
X52347Y78301D1*
X67096Y56528D2*
Y56877D1*
X67046Y56994D1*
X66998Y57033D1*
X66901Y57072D1*
X66804D1*
X66707Y57033D1*
X66658Y56994D1*
X66609Y56877D1*
Y56528D1*
X67630D1*
X67096Y56800D2*
X67630Y57072D1*
X66805Y57323D2*
X66755Y57401D1*
X66610Y57518D1*
X67630D1*
X66853Y57808D2*
X66805D1*
X66707Y57847D1*
X66659Y57886D1*
X66610Y57964D1*
Y58119D1*
X66659Y58197D1*
X66707Y58235D1*
X66805Y58275D1*
X66901D1*
X66999Y58235D1*
X67144Y58158D1*
X67630Y57769D1*
Y58313D1*
X69049Y72855D2*
X69398D1*
X69515Y72905D1*
X69555Y72953D1*
X69593Y73049D1*
Y73147D1*
X69555Y73244D1*
X69515Y73293D1*
X69398Y73341D1*
X69049D1*
Y72321D1*
X69321Y72855D2*
X69593Y72321D1*
X70233D2*
Y73340D1*
X69844Y72661D1*
X70428D1*
X69296Y47252D2*
X69219Y47350D1*
X69102Y47398D1*
X68946D1*
X68829Y47350D1*
X68751Y47252D1*
Y47156D1*
X68791Y47058D1*
X68829Y47010D1*
X68907Y46962D1*
X69140Y46864D1*
X69219Y46816D1*
X69257Y46766D1*
X69296Y46670D1*
Y46524D1*
X69219Y46427D1*
X69102Y46378D1*
X68946D1*
X68829Y46427D1*
X68751Y46524D1*
X69625Y47397D2*
X70052D1*
X69819Y47009D1*
X69936D1*
X70013Y46960D1*
X70052Y46912D1*
X70091Y46766D1*
Y46670D1*
X70052Y46524D1*
X69974Y46426D1*
X69858Y46378D1*
X69741D1*
X69625Y46426D1*
X69586Y46475D1*
X69547Y46572D1*
X63824Y43825D2*
X63746Y43776D1*
X63669Y43679D1*
X63629Y43582D1*
X63591Y43436D1*
Y43192D1*
X63629Y43047D1*
X63669Y42950D1*
X63746Y42853D1*
X63824Y42804D1*
X63980D1*
X64057Y42853D1*
X64135Y42950D1*
X64174Y43047D1*
X64212Y43192D1*
Y43436D1*
X64174Y43582D1*
X64135Y43679D1*
X64057Y43776D1*
X63980Y43825D1*
X63824D1*
X64969D2*
X64463D1*
Y42804D1*
Y43338D2*
X64774D1*
X65726Y43825D2*
X65220D1*
Y42804D1*
Y43338D2*
X65531D1*
X49629Y47363D2*
X49552Y47461D1*
X49435Y47509D1*
X49280D1*
X49163Y47461D1*
X49085Y47363D1*
Y47266D1*
X49124Y47169D1*
X49163Y47120D1*
X49240Y47072D1*
X49474Y46974D1*
X49552Y46926D1*
X49591Y46877D1*
X49629Y46780D1*
Y46634D1*
X49552Y46537D1*
X49435Y46488D1*
X49280D1*
X49163Y46537D1*
X49085Y46634D1*
X49880Y47313D2*
X49958Y47363D1*
X50075Y47508D1*
Y46488D1*
X53709Y43935D2*
X53631Y43887D1*
X53554Y43789D1*
X53514Y43692D1*
X53476Y43546D1*
Y43303D1*
X53514Y43158D1*
X53554Y43060D1*
X53631Y42963D1*
X53709Y42914D1*
X53865D1*
X53942Y42963D1*
X54020Y43060D1*
X54059Y43158D1*
X54097Y43303D1*
Y43546D1*
X54059Y43692D1*
X54020Y43789D1*
X53942Y43887D1*
X53865Y43935D1*
X53709D1*
X54893D2*
Y42914D1*
X54348Y43935D1*
Y42914D1*
X47340Y81031D2*
X47262Y80984D1*
X47184Y80886D1*
X47146Y80788D1*
X47106Y80642D1*
Y80400D1*
X47146Y80254D1*
X47184Y80157D1*
X47262Y80059D1*
X47340Y80011D1*
X47495D1*
X47573Y80059D1*
X47650Y80157D1*
X47689Y80254D1*
X47729Y80400D1*
Y80642D1*
X47689Y80788D1*
X47650Y80886D1*
X47573Y80984D1*
X47495Y81031D1*
X47340D1*
X47456Y80205D2*
X47689Y79913D1*
X48019Y80787D2*
Y80835D1*
X48058Y80933D1*
X48096Y80981D1*
X48175Y81030D1*
X48330D1*
X48407Y80981D1*
X48446Y80933D1*
X48485Y80835D1*
Y80739D1*
X48446Y80641D1*
X48369Y80496D1*
X47980Y80010D1*
X48524D1*
X46297Y85915D2*
Y86265D1*
X46248Y86381D1*
X46199Y86421D1*
X46103Y86460D1*
X46005D1*
X45909Y86421D1*
X45859Y86381D1*
X45811Y86265D1*
Y85915D1*
X46832D1*
X46297Y86187D2*
X46832Y86460D1*
X46006Y86711D2*
X45957Y86789D1*
X45812Y86906D1*
X46832D1*
X46006Y87157D2*
X45957Y87235D1*
X45812Y87352D1*
X46832D1*
X56056Y81326D2*
X56406D1*
X56523Y81375D1*
X56562Y81423D1*
X56601Y81520D1*
Y81618D1*
X56562Y81714D1*
X56523Y81764D1*
X56406Y81812D1*
X56056D1*
Y80791D1*
X56329Y81326D2*
X56601Y80791D1*
X57358Y81472D2*
X57318Y81326D1*
X57241Y81228D1*
X57124Y81180D1*
X57085D1*
X56969Y81228D1*
X56891Y81326D1*
X56852Y81472D1*
Y81520D1*
X56891Y81666D1*
X56969Y81763D1*
X57085Y81811D1*
X57124D1*
X57241Y81763D1*
X57318Y81666D1*
X57358Y81472D1*
Y81228D1*
X57318Y80985D1*
X57241Y80839D1*
X57124Y80791D1*
X57047D1*
X56930Y80839D1*
X56891Y80937D1*
X73743Y90342D2*
X73666Y90439D1*
X73549Y90488D1*
X73394D1*
X73277Y90439D1*
X73199Y90342D1*
Y90245D1*
X73238Y90147D1*
X73277Y90099D1*
X73354Y90051D1*
X73588Y89953D1*
X73666Y89905D1*
X73704Y89855D1*
X73743Y89759D1*
Y89613D1*
X73666Y89516D1*
X73549Y89467D1*
X73394D1*
X73277Y89516D1*
X73199Y89613D1*
X74034Y90244D2*
Y90292D1*
X74072Y90390D1*
X74111Y90438D1*
X74189Y90486D1*
X74344D1*
X74422Y90438D1*
X74460Y90390D1*
X74500Y90292D1*
Y90196D1*
X74460Y90098D1*
X74383Y89953D1*
X73994Y89467D1*
X74539D1*
X60268Y70534D2*
Y70883D1*
X60219Y71000D1*
X60171Y71040D1*
X60074Y71078D1*
X59976D1*
X59880Y71040D1*
X59830Y71000D1*
X59782Y70883D1*
Y70534D1*
X60803D1*
X60268Y70806D2*
X60803Y71078D1*
Y71485D2*
X59783Y71874D1*
Y71329D1*
X60283Y73407D2*
Y73756D1*
X60234Y73873D1*
X60186Y73913D1*
X60089Y73951D1*
X59991D1*
X59895Y73913D1*
X59845Y73873D1*
X59797Y73756D1*
Y73407D1*
X60818D1*
X60283Y73679D2*
X60818Y73951D1*
X59798Y74396D2*
X59847Y74280D1*
X59943Y74241D1*
X60041D1*
X60137Y74280D1*
X60187Y74358D1*
X60235Y74513D1*
X60283Y74630D1*
X60381Y74707D1*
X60478Y74746D1*
X60624D1*
X60720Y74707D1*
X60770Y74669D1*
X60818Y74552D1*
Y74396D1*
X60770Y74280D1*
X60720Y74241D1*
X60624Y74202D1*
X60478D1*
X60381Y74241D1*
X60283Y74319D1*
X60235Y74435D1*
X60187Y74590D1*
X60137Y74669D1*
X60041Y74707D1*
X59943D1*
X59847Y74669D1*
X59798Y74552D1*
Y74396D1*
X81948Y100333D2*
Y99556D1*
X81909Y99410D1*
X81870Y99361D1*
X81792Y99312D1*
X81714D1*
X81637Y99361D1*
X81598Y99410D1*
X81559Y99556D1*
Y99652D1*
X82588Y99312D2*
Y100332D1*
X82199Y99652D1*
X82782D1*
X72437Y78369D2*
Y78417D1*
X72471Y78515D1*
X72505Y78563D1*
X72573Y78611D1*
X72709D1*
X72777Y78563D1*
X72810Y78515D1*
X72845Y78417D1*
Y78320D1*
X72810Y78223D1*
X72743Y78078D1*
X72402Y77591D1*
X72879D1*
X73234D2*
X73575Y78611D1*
X73098D1*
X74520Y78369D2*
Y78417D1*
X74554Y78515D1*
X74588Y78563D1*
X74656Y78611D1*
X74792D1*
X74860Y78563D1*
X74894Y78515D1*
X74928Y78417D1*
Y78320D1*
X74894Y78223D1*
X74826Y78078D1*
X74486Y77591D1*
X74962D1*
X75522D2*
Y78611D1*
X75182Y77932D1*
X75692D1*
X58151Y46371D2*
D84*
Y44839D1*
X58763D1*
X59347Y45860D2*
X59246Y45788D1*
X59143Y45641D1*
X59092Y45422D1*
Y45277D1*
X59143Y45058D1*
X59246Y44914D1*
X59347Y44839D1*
X59500D1*
X59603Y44914D1*
X59704Y45058D1*
X59756Y45277D1*
Y45422D1*
X59704Y45641D1*
X59603Y45788D1*
X59500Y45860D1*
X59347D1*
X60086D2*
X60290Y44839D1*
X60494Y45860D1*
X60698Y44839D1*
X60902Y45860D1*
X44233Y66607D2*
Y67066D1*
X44159Y67219D1*
X44087Y67271D1*
X43942Y67322D1*
X43795D1*
X43650Y67271D1*
X43576Y67219D1*
X43504Y67066D1*
Y66607D1*
X45035D1*
X44233Y66964D2*
X45035Y67322D1*
X44452Y67651D2*
Y68263D1*
X44306D1*
X44159Y68212D1*
X44087Y68162D1*
X44014Y68059D1*
Y67906D1*
X44087Y67804D1*
X44233Y67702D1*
X44452Y67651D1*
X44597D1*
X44816Y67702D1*
X44961Y67804D1*
X45035Y67906D1*
Y68059D1*
X44961Y68162D1*
X44816Y68263D1*
X44233Y69206D2*
X44087Y69103D1*
X44014Y69001D1*
Y68848D1*
X44087Y68746D1*
X44233Y68644D1*
X44452Y68593D1*
X44597D1*
X44816Y68644D1*
X44961Y68746D1*
X45035Y68848D1*
Y69001D1*
X44961Y69103D1*
X44816Y69206D1*
X43504Y69535D2*
X45035D1*
X44306D2*
X44087Y69689D1*
X44014Y69791D1*
Y69944D1*
X44087Y70046D1*
X44306Y70097D1*
X45035D1*
X44014Y71038D2*
X45035D1*
X44233D2*
X44087Y70937D1*
X44014Y70834D1*
Y70682D1*
X44087Y70579D1*
X44233Y70478D1*
X44452Y70426D1*
X44597D1*
X44816Y70478D1*
X44961Y70579D1*
X45035Y70682D1*
Y70834D1*
X44961Y70937D1*
X44816Y71038D1*
X44014Y71367D2*
X45035D1*
X44452D2*
X44233Y71419D1*
X44087Y71521D1*
X44014Y71623D1*
Y71777D1*
X44087Y72718D2*
X45254D1*
X45471Y72667D1*
X45546Y72617D1*
X45618Y72514D1*
Y72361D1*
X45546Y72259D1*
X44306Y72718D2*
X44161Y72617D1*
X44087Y72514D1*
Y72361D1*
X44161Y72259D1*
X44306Y72157D1*
X44525Y72106D1*
X44671D1*
X44889Y72157D1*
X45035Y72259D1*
X45108Y72361D1*
Y72514D1*
X45035Y72617D1*
X44889Y72718D1*
X44452Y73047D2*
Y73659D1*
X44306D1*
X44159Y73609D1*
X44087Y73558D1*
X44014Y73455D1*
Y73302D1*
X44087Y73201D1*
X44233Y73098D1*
X44452Y73047D1*
X44597D1*
X44816Y73098D1*
X44961Y73201D1*
X45035Y73302D1*
Y73455D1*
X44961Y73558D1*
X44816Y73659D1*
X44014Y74601D2*
X45035D1*
X44233D2*
X44087Y74499D1*
X44014Y74397D1*
Y74245D1*
X44087Y74142D1*
X44233Y74041D1*
X44452Y73989D1*
X44597D1*
X44816Y74041D1*
X44961Y74142D1*
X45035Y74245D1*
Y74397D1*
X44961Y74499D1*
X44816Y74601D1*
X43504Y74930D2*
X45035D1*
X44233D2*
X44087Y75033D1*
X44014Y75134D1*
Y75288D1*
X44087Y75389D1*
X44233Y75492D1*
X44452Y75542D1*
X44597D1*
X44816Y75492D1*
X44961Y75389D1*
X45035Y75288D1*
Y75134D1*
X44961Y75033D1*
X44816Y74930D1*
X43504Y75872D2*
X45035D1*
X44452Y76201D2*
Y76813D1*
X44306D1*
X44159Y76762D1*
X44087Y76712D1*
X44014Y76609D1*
Y76456D1*
X44087Y76354D1*
X44233Y76252D1*
X44452Y76201D1*
X44597D1*
X44816Y76252D1*
X44961Y76354D1*
X45035Y76456D1*
Y76609D1*
X44961Y76712D1*
X44816Y76813D1*
X43504Y78180D2*
X45035D1*
X44233D2*
X44087Y78282D1*
X44014Y78384D1*
Y78537D1*
X44087Y78638D1*
X44233Y78741D1*
X44452Y78792D1*
X44597D1*
X44816Y78741D1*
X44961Y78638D1*
X45035Y78537D1*
Y78384D1*
X44961Y78282D1*
X44816Y78180D1*
X44014Y79733D2*
X45035D1*
X44233D2*
X44087Y79632D1*
X44014Y79529D1*
Y79377D1*
X44087Y79274D1*
X44233Y79173D1*
X44452Y79121D1*
X44597D1*
X44816Y79173D1*
X44961Y79274D1*
X45035Y79377D1*
Y79529D1*
X44961Y79632D1*
X44816Y79733D1*
X43504Y80216D2*
X44744D1*
X44961Y80266D1*
X45035Y80369D1*
Y80470D1*
X44014Y80062D2*
Y80420D1*
X43504Y80953D2*
X44744D1*
X44961Y81004D1*
X45035Y81106D1*
Y81208D1*
X44014Y80800D2*
Y81157D1*
X44452Y81537D2*
Y82149D1*
X44306D1*
X44159Y82099D1*
X44087Y82048D1*
X44014Y81945D1*
Y81792D1*
X44087Y81691D1*
X44233Y81588D1*
X44452Y81537D1*
X44597D1*
X44816Y81588D1*
X44961Y81691D1*
X45035Y81792D1*
Y81945D1*
X44961Y82048D1*
X44816Y82149D1*
X44014Y82479D2*
X45035D1*
X44452D2*
X44233Y82531D1*
X44087Y82632D1*
X44014Y82735D1*
Y82888D1*
Y83269D2*
X45035Y83575D1*
X45327Y83473D1*
X45473Y83371D1*
X45546Y83269D1*
Y83217D1*
X44014Y83881D2*
X45035Y83575D1*
X44014Y85502D2*
X44087Y85401D1*
X44233Y85298D1*
X44452Y85248D1*
X44597D1*
X44816Y85298D1*
X44961Y85401D1*
X45035Y85502D1*
Y85656D1*
X44961Y85758D1*
X44816Y85860D1*
X44597Y85911D1*
X44452D1*
X44233Y85860D1*
X44087Y85758D1*
X44014Y85656D1*
Y85502D1*
Y86241D2*
X45035D1*
X44306D2*
X44087Y86394D1*
X44014Y86497D1*
Y86649D1*
X44087Y86751D1*
X44306Y86802D1*
X45035D1*
X43504Y87132D2*
X45035D1*
X44014Y87513D2*
X45035Y87818D1*
X45327Y87717D1*
X45473Y87614D1*
X45546Y87513D1*
Y87461D1*
X44014Y88125D2*
X45035Y87818D1*
X43505Y88506D2*
X44525D1*
X44889D2*
X44963Y88454D1*
X45035Y88506D1*
X44963Y88557D1*
X44889Y88506D1*
X76069Y65083D2*
D85*
Y65144D1*
X76106Y65266D1*
X76142Y65326D1*
X76215Y65387D1*
X76361D1*
X76433Y65326D1*
X76470Y65266D1*
X76507Y65144D1*
Y65023D1*
X76470Y64901D1*
X76397Y64720D1*
X76032Y64112D1*
X76543D1*
X77143D2*
Y65387D1*
X76778Y64537D1*
X77325D1*
X77560Y64749D2*
X77981D1*
X76070Y67623D2*
Y67683D1*
X76106Y67805D1*
X76142Y67866D1*
X76216Y67926D1*
X76361D1*
X76434Y67866D1*
X76470Y67805D1*
X76507Y67683D1*
Y67563D1*
X76470Y67440D1*
X76398Y67259D1*
X76033Y66651D1*
X76543D1*
X77216Y67926D2*
X76852D1*
X76816Y67380D1*
X76852Y67440D1*
X76961Y67502D1*
X77070D1*
X77180Y67440D1*
X77253Y67320D1*
X77289Y67137D1*
Y67016D1*
X77253Y66834D1*
X77180Y66712D1*
X77070Y66651D1*
X76961D1*
X76852Y66712D1*
X76816Y66774D1*
X76779Y66894D1*
X77524Y67289D2*
X77946D1*
X75749Y88223D2*
X75677Y88345D1*
X75568Y88406D1*
X75422D1*
X75312Y88345D1*
X75239Y88223D1*
Y88103D1*
X75276Y87980D1*
X75312Y87920D1*
X75385Y87860D1*
X75604Y87738D1*
X75677Y87677D1*
X75713Y87615D1*
X75749Y87495D1*
Y87312D1*
X75677Y87191D1*
X75568Y87130D1*
X75422D1*
X75312Y87191D1*
X75239Y87312D1*
X76422Y88404D2*
X76058D1*
X76022Y87858D1*
X76058Y87919D1*
X76168Y87980D1*
X76276D1*
X76386Y87919D1*
X76459Y87798D1*
X76495Y87615D1*
Y87495D1*
X76459Y87312D1*
X76386Y87190D1*
X76276Y87130D1*
X76168D1*
X76058Y87190D1*
X76022Y87252D1*
X75985Y87373D1*
X76731Y88406D2*
X77022Y87130D1*
X77313Y88406D1*
X77549Y87767D2*
X77970D1*
X76470Y90945D2*
X76106D1*
X76070Y90399D1*
X76106Y90459D1*
X76216Y90521D1*
X76324D1*
X76434Y90459D1*
X76507Y90338D1*
X76543Y90156D1*
Y90035D1*
X76507Y89853D1*
X76434Y89731D1*
X76324Y89670D1*
X76216D1*
X76106Y89731D1*
X76070Y89792D1*
X76033Y89913D1*
X76778Y90946D2*
X77070Y89670D1*
X77361Y90946D1*
X77597Y90308D2*
X78018D1*
X75312Y93485D2*
X75712D1*
X75494Y93000D1*
X75604D1*
X75676Y92939D1*
X75712Y92879D1*
X75749Y92696D1*
Y92576D1*
X75712Y92393D1*
X75640Y92271D1*
X75530Y92211D1*
X75421D1*
X75312Y92271D1*
X75276Y92333D1*
X75239Y92454D1*
X75985Y93487D2*
X76276Y92211D1*
X76568Y93487D1*
X76876Y93485D2*
X77276D1*
X77058Y93000D1*
X77168D1*
X77240Y92939D1*
X77276Y92879D1*
X77313Y92696D1*
Y92576D1*
X77276Y92393D1*
X77204Y92271D1*
X77094Y92211D1*
X76985D1*
X76876Y92271D1*
X76840Y92333D1*
X76803Y92454D1*
X77549Y92848D2*
X77970D1*
X77373Y85563D2*
X77337Y85684D1*
X77264Y85806D1*
X77191Y85866D1*
X77046D1*
X76972Y85806D1*
X76900Y85684D1*
X76863Y85563D1*
X76827Y85381D1*
Y85076D1*
X76863Y84895D1*
X76900Y84773D1*
X76972Y84652D1*
X77046Y84590D1*
X77191D1*
X77264Y84652D1*
X77337Y84773D1*
X77373Y84895D1*
Y85076D1*
X77191D1*
X77609Y85228D2*
X78030D1*
X77373Y83023D2*
X77337Y83144D1*
X77264Y83266D1*
X77191Y83326D1*
X77046D1*
X76972Y83266D1*
X76900Y83144D1*
X76863Y83023D1*
X76827Y82841D1*
Y82536D1*
X76863Y82355D1*
X76900Y82233D1*
X76972Y82112D1*
X77046Y82050D1*
X77191D1*
X77264Y82112D1*
X77337Y82233D1*
X77373Y82355D1*
Y82536D1*
X77191D1*
X77609Y82688D2*
X78030D1*
X76106Y80785D2*
X76506D1*
X76288Y80299D1*
X76398D1*
X76470Y80239D1*
X76506Y80178D1*
X76543Y79996D1*
Y79875D1*
X76506Y79693D1*
X76434Y79571D1*
X76324Y79510D1*
X76215D1*
X76106Y79571D1*
X76070Y79632D1*
X76033Y79753D1*
X76998Y80785D2*
X76888Y80725D1*
X76815Y80542D1*
X76779Y80239D1*
Y80056D1*
X76815Y79753D1*
X76888Y79571D1*
X76998Y79510D1*
X77070D1*
X77180Y79571D1*
X77252Y79753D1*
X77289Y80056D1*
Y80239D1*
X77252Y80542D1*
X77180Y80725D1*
X77070Y80785D1*
X76998D1*
X77252Y80542D2*
X76815Y79753D1*
X77524Y80148D2*
X77946D1*
X76070Y77942D2*
Y78002D1*
X76106Y78124D1*
X76142Y78185D1*
X76216Y78245D1*
X76361D1*
X76434Y78185D1*
X76470Y78124D1*
X76507Y78002D1*
Y77881D1*
X76470Y77759D1*
X76398Y77578D1*
X76033Y76970D1*
X76543D1*
X77253Y77821D2*
X77216Y77638D1*
X77143Y77516D1*
X77034Y77456D1*
X76998D1*
X76888Y77516D1*
X76816Y77638D1*
X76779Y77821D1*
Y77881D1*
X76816Y78064D1*
X76888Y78185D1*
X76998Y78245D1*
X77034D1*
X77143Y78185D1*
X77216Y78064D1*
X77253Y77821D1*
Y77516D1*
X77216Y77213D1*
X77143Y77031D1*
X77034Y76970D1*
X76961D1*
X76852Y77031D1*
X76816Y77153D1*
X77488Y77608D2*
X77909D1*
X76070Y75402D2*
Y75462D1*
X76106Y75584D1*
X76142Y75645D1*
X76216Y75705D1*
X76361D1*
X76434Y75645D1*
X76470Y75584D1*
X76507Y75462D1*
Y75341D1*
X76470Y75219D1*
X76398Y75038D1*
X76033Y74430D1*
X76543D1*
X76961Y75705D2*
X76852Y75645D1*
X76815Y75524D1*
Y75402D1*
X76852Y75281D1*
X76924Y75219D1*
X77070Y75159D1*
X77180Y75098D1*
X77252Y74976D1*
X77288Y74856D1*
Y74673D1*
X77252Y74552D1*
X77216Y74491D1*
X77106Y74430D1*
X76961D1*
X76852Y74491D1*
X76815Y74552D1*
X76779Y74673D1*
Y74856D1*
X76815Y74976D1*
X76888Y75098D1*
X76997Y75159D1*
X77143Y75219D1*
X77216Y75281D1*
X77252Y75402D1*
Y75524D1*
X77216Y75645D1*
X77106Y75705D1*
X76961D1*
X77524Y75068D2*
X77945D1*
X76070Y72862D2*
Y72922D1*
X76106Y73044D1*
X76142Y73105D1*
X76216Y73165D1*
X76361D1*
X76434Y73105D1*
X76470Y73044D1*
X76507Y72922D1*
Y72801D1*
X76470Y72679D1*
X76398Y72498D1*
X76033Y71890D1*
X76543D1*
X76924D2*
X77289Y73165D1*
X76779D1*
X77524Y72528D2*
X77946D1*
X76070Y70322D2*
Y70382D1*
X76106Y70504D1*
X76142Y70565D1*
X76216Y70625D1*
X76361D1*
X76434Y70565D1*
X76470Y70504D1*
X76507Y70382D1*
Y70261D1*
X76470Y70139D1*
X76398Y69958D1*
X76033Y69350D1*
X76543D1*
X77216Y70444D2*
X77180Y70565D1*
X77070Y70625D1*
X76998D1*
X76888Y70565D1*
X76815Y70382D1*
X76779Y70079D1*
Y69776D1*
X76815Y69533D1*
X76888Y69411D1*
X76998Y69350D1*
X77034D1*
X77143Y69411D1*
X77216Y69533D1*
X77252Y69715D1*
Y69776D1*
X77216Y69958D1*
X77143Y70079D1*
X77034Y70139D1*
X76998D1*
X76888Y70079D1*
X76815Y69958D1*
X76779Y69776D1*
X77487Y69988D2*
X77908D1*
X41107Y92848D2*
X41529D1*
X41764Y93242D2*
X41837Y93304D1*
X41947Y93485D1*
Y92210D1*
X41107Y90308D2*
X41529D1*
X41801Y90642D2*
Y90702D1*
X41837Y90824D1*
X41873Y90885D1*
X41947Y90945D1*
X42092D1*
X42165Y90885D1*
X42201Y90824D1*
X42238Y90702D1*
Y90581D1*
X42201Y90459D1*
X42129Y90278D1*
X41764Y89670D1*
X42274D1*
X41107Y87767D2*
X41529D1*
X41837Y88405D2*
X42237D1*
X42019Y87919D1*
X42129D1*
X42201Y87859D1*
X42237Y87798D1*
X42274Y87616D1*
Y87495D1*
X42237Y87313D1*
X42165Y87191D1*
X42055Y87130D1*
X41946D1*
X41837Y87191D1*
X41801Y87252D1*
X41764Y87373D1*
X41107Y85227D2*
X41529D1*
X42129Y84590D2*
Y85865D1*
X41764Y85016D1*
X42311D1*
X41107Y82688D2*
X41529D1*
X42201Y83325D2*
X41837D1*
X41801Y82779D1*
X41837Y82839D1*
X41947Y82901D1*
X42055D1*
X42165Y82839D1*
X42238Y82718D1*
X42274Y82536D1*
Y82415D1*
X42238Y82233D1*
X42165Y82111D1*
X42055Y82050D1*
X41947D1*
X41837Y82111D1*
X41801Y82172D1*
X41764Y82293D1*
X41107Y80147D2*
X41529D1*
X42201Y80604D2*
X42165Y80724D1*
X42055Y80785D1*
X41983D1*
X41873Y80724D1*
X41800Y80542D1*
X41764Y80239D1*
Y79936D1*
X41800Y79693D1*
X41873Y79571D1*
X41983Y79510D1*
X42019D1*
X42128Y79571D1*
X42201Y79693D1*
X42237Y79875D1*
Y79936D1*
X42201Y80118D1*
X42128Y80239D1*
X42019Y80299D1*
X41983D1*
X41873Y80239D1*
X41800Y80118D1*
X41764Y79936D1*
X41107Y77607D2*
X41529D1*
X41910Y76970D2*
X42274Y78245D1*
X41764D1*
X41107Y75068D2*
X41529D1*
X42347Y74430D2*
Y75706D1*
X42055Y74430D1*
X41764Y75706D1*
Y74430D1*
X41107Y72527D2*
X41529D1*
X42311Y72863D2*
X42274Y72984D1*
X42201Y73106D1*
X42129Y73166D1*
X41983D1*
X41910Y73106D1*
X41837Y72984D1*
X41800Y72863D1*
X41764Y72681D1*
Y72376D1*
X41800Y72195D1*
X41837Y72073D1*
X41910Y71952D1*
X41983Y71890D1*
X42129D1*
X42201Y71952D1*
X42274Y72073D1*
X42311Y72195D1*
X41107Y69987D2*
X41529D1*
X41764Y70382D2*
X41837Y70444D1*
X41947Y70625D1*
Y69350D1*
X42619Y70444D2*
X42583Y70564D1*
X42473Y70625D1*
X42401D1*
X42291Y70564D1*
X42218Y70382D1*
X42182Y70079D1*
Y69776D1*
X42218Y69533D1*
X42291Y69411D1*
X42401Y69350D1*
X42437D1*
X42546Y69411D1*
X42619Y69533D1*
X42655Y69715D1*
Y69776D1*
X42619Y69958D1*
X42546Y70079D1*
X42437Y70139D1*
X42401D1*
X42291Y70079D1*
X42218Y69958D1*
X42182Y69776D1*
X41107Y67448D2*
X41529D1*
X41764Y67842D2*
X41837Y67904D1*
X41947Y68085D1*
Y66810D1*
X42328D2*
X42692Y68085D1*
X42182D1*
X41107Y64907D2*
X41529D1*
X41764Y64938D2*
X42092D1*
X42201Y65000D1*
X42238Y65061D1*
X42274Y65181D1*
Y65303D1*
X42238Y65424D1*
X42201Y65486D1*
X42092Y65546D1*
X41764D1*
Y64270D1*
X42019Y64938D2*
X42274Y64270D1*
X39476Y45205D2*
D30*
Y43018D1*
X38384Y44110D2*
X40571D1*
X79644Y45205D2*
Y43018D1*
X78552Y44110D2*
X80739D1*
X39320Y97378D2*
D84*
X39553Y96357D1*
X39786Y97378D1*
X40019Y96357D1*
X40253Y97378D1*
X40629D2*
X40862Y96357D1*
X41095Y97378D1*
X41329Y96357D1*
X41562Y97378D1*
X41938D2*
X42171Y96357D1*
X42404Y97378D1*
X42638Y96357D1*
X42871Y97378D1*
X43305Y96503D2*
X43247Y96429D1*
X43305Y96357D1*
X43364Y96429D1*
X43305Y96503D1*
X43741Y97378D2*
Y96648D1*
X43799Y96431D1*
X43916Y96357D1*
X44091D1*
X44207Y96431D1*
X44382Y96648D1*
Y97378D2*
Y96357D1*
X44759Y97378D2*
Y96357D1*
Y97086D2*
X44934Y97305D1*
X45051Y97378D1*
X45225D1*
X45342Y97305D1*
X45400Y97086D1*
Y96357D1*
X45777Y97378D2*
X46010Y96357D1*
X46243Y97378D1*
X46476Y96357D1*
X46710Y97378D1*
X47785Y97888D2*
Y96357D1*
Y97159D2*
X47670Y97305D1*
X47552Y97378D1*
X47377D1*
X47261Y97305D1*
X47144Y97159D1*
X47086Y96940D1*
Y96795D1*
X47144Y96576D1*
X47261Y96431D1*
X47377Y96357D1*
X47552D1*
X47670Y96431D1*
X47785Y96576D1*
X48803Y97159D2*
X48745Y97305D1*
X48570Y97378D1*
X48395D1*
X48220Y97305D1*
X48162Y97159D1*
X48220Y97014D1*
X48337Y96940D1*
X48628Y96867D1*
X48745Y96795D1*
X48803Y96648D1*
Y96576D1*
X48745Y96431D1*
X48570Y96357D1*
X48395D1*
X48220Y96431D1*
X48162Y96576D1*
X49238Y96503D2*
X49180Y96429D1*
X49238Y96357D1*
X49297Y96429D1*
X49238Y96503D1*
X50374Y97159D2*
X50257Y97305D1*
X50140Y97378D1*
X49966D1*
X49849Y97305D1*
X49733Y97159D1*
X49674Y96940D1*
Y96795D1*
X49733Y96576D1*
X49849Y96431D1*
X49966Y96357D1*
X50140D1*
X50257Y96431D1*
X50374Y96576D1*
X51042Y97378D2*
X50926Y97305D1*
X50809Y97159D1*
X50751Y96940D1*
Y96795D1*
X50809Y96576D1*
X50926Y96431D1*
X51042Y96357D1*
X51217D1*
X51334Y96431D1*
X51450Y96576D1*
X51510Y96795D1*
Y96940D1*
X51450Y97159D1*
X51334Y97305D1*
X51217Y97378D1*
X51042D1*
X51886D2*
Y96357D1*
Y97086D2*
X52061Y97305D1*
X52179Y97378D1*
X52352D1*
X52470Y97305D1*
X52528Y97086D1*
Y96357D1*
Y97086D2*
X52703Y97305D1*
X52820Y97378D1*
X52994D1*
X53111Y97305D1*
X53170Y97086D1*
Y96357D1*
X39320Y99793D2*
Y98700D1*
X39378Y98481D1*
X39495Y98336D1*
X39670Y98262D1*
X39786D1*
X39962Y98336D1*
X40079Y98481D1*
X40137Y98700D1*
Y99793D1*
X41446Y98262D2*
Y99793D1*
X40979Y98262D1*
X40513Y99793D1*
Y98262D1*
X41822Y99793D2*
Y98262D1*
X42231D1*
X42406Y98336D1*
X42523Y98481D1*
X42581Y98628D1*
X42639Y98845D1*
Y99210D1*
X42581Y99429D1*
X42523Y99574D1*
X42406Y99721D1*
X42231Y99793D1*
X41822D1*
X43015D2*
Y98262D1*
X43832Y99793D2*
X43015Y98772D1*
X43307Y99138D2*
X43832Y98262D1*
X44209Y99027D2*
X44882D1*
X45318Y99428D2*
Y99500D1*
X45376Y99647D1*
X45434Y99719D1*
X45551Y99792D1*
X45785D1*
X45900Y99719D1*
X45958Y99647D1*
X46018Y99500D1*
Y99355D1*
X45958Y99209D1*
X45842Y98991D1*
X45259Y98262D1*
X46076D1*
X47386D2*
X46918Y99793D1*
X46452Y98262D1*
X46627Y98772D2*
X47211D1*
X48696Y98262D2*
X48229Y99793D1*
X47763Y98262D1*
X47938Y98772D2*
X48521D1*
M02*
