G04 #@! TF.FileFunction,Copper,L1,Top,Signal*
%FSLAX45Y45*%
G04 Gerber Fmt 4.5, Leading zero omitted, Abs format (unit mm)*
G04 Created by KiCad (PCBNEW 4.0.7) date Mon Dec 11 19:35:25 2017*
%MOMM*%
%LPD*%
G01*
G04 APERTURE LIST*
%ADD10C,0.100000*%
%ADD11R,1.200000X0.750000*%
%ADD12R,0.750000X1.200000*%
%ADD13R,1.200000X0.900000*%
%ADD14R,1.143000X0.508000*%
%ADD15R,1.200000X0.600000*%
%ADD16R,0.600000X1.200000*%
%ADD17R,1.500000X0.600000*%
%ADD18C,2.850000*%
%ADD19R,1.700000X1.300000*%
%ADD20C,1.308000*%
%ADD21C,1.500000*%
%ADD22C,0.800000*%
%ADD23C,0.600000*%
%ADD24C,0.400000*%
%ADD25C,0.500000*%
%ADD26C,0.300000*%
%ADD27C,0.200000*%
%ADD28C,0.254000*%
G04 APERTURE END LIST*
D10*
D11*
X13798300Y-11303000D03*
X13608300Y-11303000D03*
D12*
X12839700Y-11512800D03*
X12839700Y-11702800D03*
D13*
X13813300Y-11163300D03*
X13593300Y-11163300D03*
X13076700Y-11163300D03*
X12856700Y-11163300D03*
X13076700Y-11328400D03*
X12856700Y-11328400D03*
D14*
X13296900Y-11010900D03*
X13296900Y-10883900D03*
X13296900Y-10756900D03*
X13296900Y-10629900D03*
X13931900Y-10629900D03*
X13931900Y-10756900D03*
X13931900Y-10883900D03*
X13931900Y-11010900D03*
D15*
X14230800Y-10819800D03*
X14230800Y-10899800D03*
X14230800Y-10979800D03*
X14230800Y-11059800D03*
X14230800Y-11139800D03*
X14230800Y-11219800D03*
X14230800Y-11299800D03*
X14230800Y-11379800D03*
D16*
X14375800Y-11524800D03*
X14455800Y-11524800D03*
X14535800Y-11524800D03*
X14615800Y-11524800D03*
X14695800Y-11524800D03*
X14775800Y-11524800D03*
X14855800Y-11524800D03*
X14935800Y-11524800D03*
D15*
X15080800Y-11379800D03*
X15080800Y-11299800D03*
X15080800Y-11219800D03*
X15080800Y-11139800D03*
X15080800Y-11059800D03*
X15080800Y-10979800D03*
X15080800Y-10899800D03*
X15080800Y-10819800D03*
D16*
X14935800Y-10674800D03*
X14855800Y-10674800D03*
X14775800Y-10674800D03*
X14695800Y-10674800D03*
X14615800Y-10674800D03*
X14535800Y-10674800D03*
X14455800Y-10674800D03*
X14375800Y-10674800D03*
D17*
X15892600Y-10680700D03*
X15892600Y-10807700D03*
X15892600Y-10934700D03*
X15892600Y-11061700D03*
X15892600Y-11188700D03*
X15892600Y-11315700D03*
X15892600Y-11442700D03*
X15892600Y-11569700D03*
X16822600Y-11569700D03*
X16822600Y-11442700D03*
X16822600Y-11315700D03*
X16822600Y-11188700D03*
X16822600Y-11061700D03*
X16822600Y-10934700D03*
X16822600Y-10807700D03*
X16822600Y-10680700D03*
D18*
X12395200Y-11401000D03*
X12395200Y-10951000D03*
D19*
X12630200Y-11276000D03*
X12630200Y-11076000D03*
X12630200Y-11526000D03*
X12630200Y-10826000D03*
D20*
X17094200Y-11425200D03*
X17094200Y-11225200D03*
X17094200Y-11025200D03*
X17094200Y-10825200D03*
D21*
X15468600Y-10922000D03*
X15468600Y-11410000D03*
D22*
X14681200Y-11353800D03*
X16110200Y-10972800D03*
X16484600Y-10972800D03*
X16103600Y-11658600D03*
X16110200Y-11455400D03*
X16103600Y-10642600D03*
X14808200Y-10807700D03*
X14782800Y-11664800D03*
X14376400Y-11036300D03*
X14274800Y-11658600D03*
X13436600Y-11099800D03*
X13296900Y-11620500D03*
X14960600Y-11353800D03*
X16300200Y-11557000D03*
X16230600Y-10642600D03*
X16281400Y-11760200D03*
X15290800Y-11760200D03*
X14503400Y-11760200D03*
X14401800Y-11379200D03*
X14439900Y-10807700D03*
X14960600Y-11760200D03*
X14135100Y-11760200D03*
X13449300Y-11709400D03*
X13462000Y-11303000D03*
X13131800Y-10642600D03*
X13144500Y-11709400D03*
D23*
X13614400Y-10591800D03*
X13614400Y-10769600D03*
X14097000Y-10668000D03*
X14071600Y-10972800D03*
X16459200Y-11328400D03*
X16459200Y-11531600D03*
X15722600Y-11176000D03*
X15671800Y-11506200D03*
X15646400Y-11252200D03*
X15595600Y-10693400D03*
X16408400Y-11150600D03*
D22*
X14566900Y-10820400D03*
D23*
X15443200Y-10566400D03*
X14706600Y-10566400D03*
X15214600Y-11404600D03*
D22*
X17195800Y-10693400D03*
X17449800Y-10871200D03*
D24*
X14695800Y-11524800D02*
X14695800Y-11368400D01*
X14695800Y-11368400D02*
X14681200Y-11353800D01*
D25*
X16484600Y-10972800D02*
X16110200Y-10972800D01*
X16103600Y-11658600D02*
X16103600Y-11664800D01*
X16103600Y-11664800D02*
X16103600Y-11658600D01*
X16103600Y-11658600D02*
X16103600Y-11664800D01*
X14782800Y-11664800D02*
X16103600Y-11664800D01*
X16103600Y-11664800D02*
X16453000Y-11664800D01*
X16453000Y-11664800D02*
X16459200Y-11658600D01*
X15892600Y-11442700D02*
X16097500Y-11442700D01*
X16097500Y-11442700D02*
X16110200Y-11455400D01*
X16065500Y-10680700D02*
X15892600Y-10680700D01*
X16103600Y-10642600D02*
X16065500Y-10680700D01*
X14855800Y-10760100D02*
X14855800Y-10674800D01*
X14808200Y-10807700D02*
X14855800Y-10760100D01*
X14230800Y-10979800D02*
X14230800Y-11059800D01*
X14230800Y-11059800D02*
X14352900Y-11059800D01*
X14352900Y-11059800D02*
X14376400Y-11036300D01*
X14236700Y-10985700D02*
X14230800Y-10979800D01*
X14236700Y-11053900D02*
X14230800Y-11059800D01*
X14274800Y-11658600D02*
X14274800Y-11664800D01*
X14274800Y-11664800D02*
X14274800Y-11658600D01*
X14274800Y-11658600D02*
X14274800Y-11664800D01*
X13436600Y-11099800D02*
X13347700Y-11010900D01*
X13347700Y-11010900D02*
X13296900Y-11010900D01*
X12839700Y-11512800D02*
X12897100Y-11512800D01*
X14014300Y-11664800D02*
X14274800Y-11664800D01*
X14274800Y-11664800D02*
X14643100Y-11664800D01*
X14643100Y-11664800D02*
X14782800Y-11664800D01*
X13970000Y-11620500D02*
X14014300Y-11664800D01*
X13004800Y-11620500D02*
X13296900Y-11620500D01*
X13296900Y-11620500D02*
X13970000Y-11620500D01*
X12897100Y-11512800D02*
X13004800Y-11620500D01*
X12839700Y-11512800D02*
X12744200Y-11512800D01*
X12731000Y-11526000D02*
X12630200Y-11526000D01*
X12744200Y-11512800D02*
X12731000Y-11526000D01*
X12840200Y-11526000D02*
X12845800Y-11531600D01*
D24*
X14775800Y-11524800D02*
X14775800Y-11321400D01*
X14528800Y-11252200D02*
X14401800Y-11379200D01*
X14706600Y-11252200D02*
X14528800Y-11252200D01*
X14775800Y-11321400D02*
X14706600Y-11252200D01*
X15080800Y-11379800D02*
X14986600Y-11379800D01*
X14986600Y-11379800D02*
X14960600Y-11353800D01*
D25*
X15892600Y-11569700D02*
X16287500Y-11569700D01*
X16287500Y-11569700D02*
X16300200Y-11557000D01*
X16065500Y-10807700D02*
X15892600Y-10807700D01*
X16230600Y-10642600D02*
X16065500Y-10807700D01*
X16332200Y-11760200D02*
X16281400Y-11760200D01*
X16281400Y-11760200D02*
X16256000Y-11760200D01*
X16002000Y-11760200D02*
X15290800Y-11760200D01*
X16256000Y-11760200D02*
X16002000Y-11760200D01*
X15290800Y-11760200D02*
X15163800Y-11760200D01*
X15163800Y-11760200D02*
X14960600Y-11760200D01*
X14401800Y-11379200D02*
X14375800Y-11405200D01*
X14375800Y-11405200D02*
X14375800Y-11524800D01*
X14615800Y-10674800D02*
X14615800Y-10589900D01*
X14455800Y-10588600D02*
X14455800Y-10674800D01*
X14478000Y-10566400D02*
X14455800Y-10588600D01*
X14592300Y-10566400D02*
X14478000Y-10566400D01*
X14615800Y-10589900D02*
X14592300Y-10566400D01*
X14455800Y-10791800D02*
X14455800Y-10674800D01*
X14439900Y-10807700D02*
X14455800Y-10791800D01*
X13608300Y-11303000D02*
X13462000Y-11303000D01*
X13144500Y-10629900D02*
X13296900Y-10629900D01*
X13131800Y-10642600D02*
X13144500Y-10629900D01*
X14960600Y-11760200D02*
X14503400Y-11760200D01*
X14503400Y-11760200D02*
X14439900Y-11760200D01*
X14439900Y-11760200D02*
X14135100Y-11760200D01*
X14135100Y-11760200D02*
X13931900Y-11760200D01*
X13881100Y-11709400D02*
X13449300Y-11709400D01*
X13449300Y-11709400D02*
X13144500Y-11709400D01*
X13144500Y-11709400D02*
X12846300Y-11709400D01*
X13931900Y-11760200D02*
X13881100Y-11709400D01*
X12846300Y-11709400D02*
X12839700Y-11702800D01*
D26*
X14230800Y-11219800D02*
X14091300Y-11219800D01*
X14008100Y-11303000D02*
X13798300Y-11303000D01*
X14091300Y-11219800D02*
X14008100Y-11303000D01*
X12630200Y-11076000D02*
X12769400Y-11076000D01*
X12769400Y-11076000D02*
X12856700Y-11163300D01*
D24*
X12631800Y-11074400D02*
X12630200Y-11076000D01*
D26*
X12856700Y-11328400D02*
X12682600Y-11328400D01*
X12682600Y-11328400D02*
X12630200Y-11276000D01*
D24*
X12631800Y-11277600D02*
X12630200Y-11276000D01*
D26*
X14230800Y-11139800D02*
X14057000Y-11139800D01*
X14033500Y-11163300D02*
X13813300Y-11163300D01*
X14057000Y-11139800D02*
X14033500Y-11163300D01*
X13593300Y-11163300D02*
X13538200Y-11163300D01*
X13538200Y-11163300D02*
X13487400Y-11214100D01*
X13487400Y-11214100D02*
X13144500Y-11214100D01*
X13076700Y-11163300D02*
X13093700Y-11163300D01*
X13093700Y-11163300D02*
X13144500Y-11214100D01*
X13144500Y-11214100D02*
X13373100Y-11442700D01*
X13373100Y-11442700D02*
X14008100Y-11442700D01*
X14008100Y-11442700D02*
X14151000Y-11299800D01*
X14151000Y-11299800D02*
X14230800Y-11299800D01*
D27*
X13652500Y-10629900D02*
X13931900Y-10629900D01*
X13614400Y-10591800D02*
X13652500Y-10629900D01*
X14230800Y-10899800D02*
X14297000Y-10899800D01*
X14300200Y-10744200D02*
X13944600Y-10744200D01*
X14325600Y-10769600D02*
X14300200Y-10744200D01*
X14325600Y-10871200D02*
X14325600Y-10769600D01*
X14297000Y-10899800D02*
X14325600Y-10871200D01*
X13944600Y-10744200D02*
X13931900Y-10756900D01*
X13614400Y-10769600D02*
X13627100Y-10756900D01*
X13627100Y-10756900D02*
X13931900Y-10756900D01*
D26*
X13076700Y-11328400D02*
X13157200Y-11328400D01*
X14079000Y-11531600D02*
X14230800Y-11379800D01*
X13360400Y-11531600D02*
X14079000Y-11531600D01*
X13157200Y-11328400D02*
X13360400Y-11531600D01*
D27*
X14230800Y-10819800D02*
X14123000Y-10819800D01*
X14058900Y-10883900D02*
X13931900Y-10883900D01*
X14123000Y-10819800D02*
X14058900Y-10883900D01*
X13931900Y-11010900D02*
X14033500Y-11010900D01*
X14103800Y-10674800D02*
X14375800Y-10674800D01*
X14097000Y-10668000D02*
X14103800Y-10674800D01*
X14033500Y-11010900D02*
X14071600Y-10972800D01*
X15087600Y-11480800D02*
X15367000Y-11480800D01*
X14855800Y-11458600D02*
X14884400Y-11430000D01*
X14884400Y-11430000D02*
X14986000Y-11430000D01*
X14986000Y-11430000D02*
X15036800Y-11480800D01*
X15036800Y-11480800D02*
X15087600Y-11480800D01*
X14855800Y-11524800D02*
X14855800Y-11458600D01*
X16281400Y-11328400D02*
X16459200Y-11328400D01*
X16230600Y-11379200D02*
X16281400Y-11328400D01*
X15697200Y-11379200D02*
X16230600Y-11379200D01*
X15544800Y-11531600D02*
X15697200Y-11379200D01*
X15417800Y-11531600D02*
X15544800Y-11531600D01*
X15367000Y-11480800D02*
X15417800Y-11531600D01*
X16090900Y-11188700D02*
X15892600Y-11188700D01*
X16154400Y-11252200D02*
X16090900Y-11188700D01*
X16484600Y-11252200D02*
X16154400Y-11252200D01*
X16535400Y-11303000D02*
X16484600Y-11252200D01*
X16535400Y-11455400D02*
X16535400Y-11303000D01*
X16459200Y-11531600D02*
X16535400Y-11455400D01*
X14935800Y-11524800D02*
X15334800Y-11524800D01*
X15735300Y-11188700D02*
X15892600Y-11188700D01*
X15722600Y-11176000D02*
X15735300Y-11188700D01*
X15595600Y-11582400D02*
X15671800Y-11506200D01*
X15392400Y-11582400D02*
X15595600Y-11582400D01*
X15334800Y-11524800D02*
X15392400Y-11582400D01*
X15080800Y-10819800D02*
X15163800Y-10820400D01*
X15684500Y-10934700D02*
X15892600Y-10934700D01*
X15570200Y-11049000D02*
X15684500Y-10934700D01*
X15392400Y-11049000D02*
X15570200Y-11049000D01*
X15163800Y-10820400D02*
X15392400Y-11049000D01*
X14935800Y-10674800D02*
X15577000Y-10674800D01*
X15709900Y-11315700D02*
X15892600Y-11315700D01*
X15646400Y-11252200D02*
X15709900Y-11315700D01*
X15577000Y-10674800D02*
X15595600Y-10693400D01*
X16319500Y-11061700D02*
X15892600Y-11061700D01*
X16408400Y-11150600D02*
X16319500Y-11061700D01*
D25*
X14535800Y-10789300D02*
X14535800Y-10674800D01*
X14566900Y-10820400D02*
X14535800Y-10789300D01*
D27*
X14775800Y-10674800D02*
X14775800Y-10598800D01*
X14808200Y-10566400D02*
X15443200Y-10566400D01*
X14775800Y-10598800D02*
X14808200Y-10566400D01*
X14695800Y-10674800D02*
X14695800Y-10577200D01*
X14695800Y-10577200D02*
X14706600Y-10566400D01*
X15214600Y-11404600D02*
X15220000Y-11410000D01*
X15220000Y-11410000D02*
X15468600Y-11410000D01*
D25*
X17183100Y-10680700D02*
X16822600Y-10680700D01*
X17195800Y-10693400D02*
X17183100Y-10680700D01*
D26*
X16822600Y-11188700D02*
X17057700Y-11188700D01*
X17057700Y-11188700D02*
X17094200Y-11225200D01*
D27*
X17057700Y-11188700D02*
X17094200Y-11225200D01*
D26*
X16822600Y-11061700D02*
X17057700Y-11061700D01*
X17057700Y-11061700D02*
X17094200Y-11025200D01*
D27*
X17057700Y-11061700D02*
X17094200Y-11025200D01*
D25*
X17094200Y-10825200D02*
X17403800Y-10825200D01*
X17403800Y-10825200D02*
X17449800Y-10871200D01*
D28*
G36*
X16423637Y-11381523D02*
X16446673Y-11391089D01*
X16471617Y-11391111D01*
X16492700Y-11382400D01*
X16492700Y-11437713D01*
X16461511Y-11468902D01*
X16446783Y-11468889D01*
X16423730Y-11478414D01*
X16406076Y-11496037D01*
X16396511Y-11519073D01*
X16396489Y-11544017D01*
X16406014Y-11567070D01*
X16423637Y-11584723D01*
X16446673Y-11594289D01*
X16471617Y-11594311D01*
X16494670Y-11584785D01*
X16512323Y-11567163D01*
X16521889Y-11544126D01*
X16521902Y-11529285D01*
X16565593Y-11485594D01*
X16565593Y-11485593D01*
X16573500Y-11473761D01*
X16573500Y-11799800D01*
X12930002Y-11799800D01*
X12931033Y-11798770D01*
X12940700Y-11775431D01*
X12940700Y-11731375D01*
X12924825Y-11715500D01*
X12852400Y-11715500D01*
X12852400Y-11717500D01*
X12827000Y-11717500D01*
X12827000Y-11715500D01*
X12754575Y-11715500D01*
X12738700Y-11731375D01*
X12738700Y-11775431D01*
X12748367Y-11798770D01*
X12749397Y-11799800D01*
X12220200Y-11799800D01*
X12220200Y-11436254D01*
X12246586Y-11500113D01*
X12295828Y-11549441D01*
X12360198Y-11576169D01*
X12429896Y-11576230D01*
X12494313Y-11549614D01*
X12511859Y-11532098D01*
X12511859Y-11591000D01*
X12514139Y-11603118D01*
X12521301Y-11614247D01*
X12532229Y-11621714D01*
X12545200Y-11624341D01*
X12715200Y-11624341D01*
X12727318Y-11622060D01*
X12738447Y-11614899D01*
X12745914Y-11603971D01*
X12748541Y-11591000D01*
X12748541Y-11580211D01*
X12753081Y-11579308D01*
X12766263Y-11570500D01*
X12768859Y-11570500D01*
X12768859Y-11572800D01*
X12771139Y-11584918D01*
X12772164Y-11586509D01*
X12766230Y-11588967D01*
X12748367Y-11606830D01*
X12738700Y-11630169D01*
X12738700Y-11674225D01*
X12754575Y-11690100D01*
X12827000Y-11690100D01*
X12827000Y-11688100D01*
X12852400Y-11688100D01*
X12852400Y-11690100D01*
X12924825Y-11690100D01*
X12940700Y-11674225D01*
X12940700Y-11638000D01*
X12964000Y-11661300D01*
X12982719Y-11673808D01*
X13004800Y-11678200D01*
X13004800Y-11678200D01*
X13251776Y-11678200D01*
X13255665Y-11682096D01*
X13282376Y-11693187D01*
X13311297Y-11693213D01*
X13338027Y-11682168D01*
X13342002Y-11678200D01*
X13946100Y-11678200D01*
X13973499Y-11705600D01*
X13973500Y-11705600D01*
X13988316Y-11715500D01*
X13992219Y-11718108D01*
X14014300Y-11722500D01*
X14014300Y-11722500D01*
X14239113Y-11722500D01*
X14260276Y-11731287D01*
X14289197Y-11731313D01*
X14310526Y-11722500D01*
X14737676Y-11722500D01*
X14741565Y-11726396D01*
X14768276Y-11737487D01*
X14797197Y-11737512D01*
X14823927Y-11726468D01*
X14827902Y-11722500D01*
X16067913Y-11722500D01*
X16089076Y-11731287D01*
X16117997Y-11731313D01*
X16139326Y-11722500D01*
X16453000Y-11722500D01*
X16453000Y-11722500D01*
X16475081Y-11718108D01*
X16493800Y-11705600D01*
X16500000Y-11699400D01*
X16512508Y-11680681D01*
X16516900Y-11658600D01*
X16512508Y-11636519D01*
X16500000Y-11617800D01*
X16481281Y-11605292D01*
X16459200Y-11600900D01*
X16437119Y-11605292D01*
X16434414Y-11607100D01*
X16154913Y-11607100D01*
X16144835Y-11597004D01*
X16118124Y-11585913D01*
X16089202Y-11585887D01*
X16062472Y-11596932D01*
X16052287Y-11607100D01*
X16031100Y-11607100D01*
X16031100Y-11598275D01*
X16015225Y-11582400D01*
X15905300Y-11582400D01*
X15905300Y-11584400D01*
X15879900Y-11584400D01*
X15879900Y-11582400D01*
X15769975Y-11582400D01*
X15754100Y-11598275D01*
X15754100Y-11607100D01*
X15631287Y-11607100D01*
X15669489Y-11568898D01*
X15684217Y-11568911D01*
X15707270Y-11559385D01*
X15724923Y-11541763D01*
X15734489Y-11518726D01*
X15734511Y-11493783D01*
X15724985Y-11470730D01*
X15707363Y-11453076D01*
X15690650Y-11446137D01*
X15714887Y-11421900D01*
X15784259Y-11421900D01*
X15784259Y-11472700D01*
X15786368Y-11483905D01*
X15781630Y-11485867D01*
X15763767Y-11503730D01*
X15754100Y-11527069D01*
X15754100Y-11541125D01*
X15769975Y-11557000D01*
X15879900Y-11557000D01*
X15879900Y-11555000D01*
X15905300Y-11555000D01*
X15905300Y-11557000D01*
X16015225Y-11557000D01*
X16031100Y-11541125D01*
X16031100Y-11527069D01*
X16021433Y-11503730D01*
X16018103Y-11500400D01*
X16052398Y-11500400D01*
X16068965Y-11516996D01*
X16095676Y-11528087D01*
X16124597Y-11528113D01*
X16151327Y-11517068D01*
X16171796Y-11496635D01*
X16182887Y-11469924D01*
X16182913Y-11441002D01*
X16175020Y-11421900D01*
X16230599Y-11421900D01*
X16230600Y-11421900D01*
X16246941Y-11418650D01*
X16260793Y-11409393D01*
X16299087Y-11371100D01*
X16413232Y-11371100D01*
X16423637Y-11381523D01*
X16423637Y-11381523D01*
G37*
X16423637Y-11381523D02*
X16446673Y-11391089D01*
X16471617Y-11391111D01*
X16492700Y-11382400D01*
X16492700Y-11437713D01*
X16461511Y-11468902D01*
X16446783Y-11468889D01*
X16423730Y-11478414D01*
X16406076Y-11496037D01*
X16396511Y-11519073D01*
X16396489Y-11544017D01*
X16406014Y-11567070D01*
X16423637Y-11584723D01*
X16446673Y-11594289D01*
X16471617Y-11594311D01*
X16494670Y-11584785D01*
X16512323Y-11567163D01*
X16521889Y-11544126D01*
X16521902Y-11529285D01*
X16565593Y-11485594D01*
X16565593Y-11485593D01*
X16573500Y-11473761D01*
X16573500Y-11799800D01*
X12930002Y-11799800D01*
X12931033Y-11798770D01*
X12940700Y-11775431D01*
X12940700Y-11731375D01*
X12924825Y-11715500D01*
X12852400Y-11715500D01*
X12852400Y-11717500D01*
X12827000Y-11717500D01*
X12827000Y-11715500D01*
X12754575Y-11715500D01*
X12738700Y-11731375D01*
X12738700Y-11775431D01*
X12748367Y-11798770D01*
X12749397Y-11799800D01*
X12220200Y-11799800D01*
X12220200Y-11436254D01*
X12246586Y-11500113D01*
X12295828Y-11549441D01*
X12360198Y-11576169D01*
X12429896Y-11576230D01*
X12494313Y-11549614D01*
X12511859Y-11532098D01*
X12511859Y-11591000D01*
X12514139Y-11603118D01*
X12521301Y-11614247D01*
X12532229Y-11621714D01*
X12545200Y-11624341D01*
X12715200Y-11624341D01*
X12727318Y-11622060D01*
X12738447Y-11614899D01*
X12745914Y-11603971D01*
X12748541Y-11591000D01*
X12748541Y-11580211D01*
X12753081Y-11579308D01*
X12766263Y-11570500D01*
X12768859Y-11570500D01*
X12768859Y-11572800D01*
X12771139Y-11584918D01*
X12772164Y-11586509D01*
X12766230Y-11588967D01*
X12748367Y-11606830D01*
X12738700Y-11630169D01*
X12738700Y-11674225D01*
X12754575Y-11690100D01*
X12827000Y-11690100D01*
X12827000Y-11688100D01*
X12852400Y-11688100D01*
X12852400Y-11690100D01*
X12924825Y-11690100D01*
X12940700Y-11674225D01*
X12940700Y-11638000D01*
X12964000Y-11661300D01*
X12982719Y-11673808D01*
X13004800Y-11678200D01*
X13004800Y-11678200D01*
X13251776Y-11678200D01*
X13255665Y-11682096D01*
X13282376Y-11693187D01*
X13311297Y-11693213D01*
X13338027Y-11682168D01*
X13342002Y-11678200D01*
X13946100Y-11678200D01*
X13973499Y-11705600D01*
X13973500Y-11705600D01*
X13988316Y-11715500D01*
X13992219Y-11718108D01*
X14014300Y-11722500D01*
X14014300Y-11722500D01*
X14239113Y-11722500D01*
X14260276Y-11731287D01*
X14289197Y-11731313D01*
X14310526Y-11722500D01*
X14737676Y-11722500D01*
X14741565Y-11726396D01*
X14768276Y-11737487D01*
X14797197Y-11737512D01*
X14823927Y-11726468D01*
X14827902Y-11722500D01*
X16067913Y-11722500D01*
X16089076Y-11731287D01*
X16117997Y-11731313D01*
X16139326Y-11722500D01*
X16453000Y-11722500D01*
X16453000Y-11722500D01*
X16475081Y-11718108D01*
X16493800Y-11705600D01*
X16500000Y-11699400D01*
X16512508Y-11680681D01*
X16516900Y-11658600D01*
X16512508Y-11636519D01*
X16500000Y-11617800D01*
X16481281Y-11605292D01*
X16459200Y-11600900D01*
X16437119Y-11605292D01*
X16434414Y-11607100D01*
X16154913Y-11607100D01*
X16144835Y-11597004D01*
X16118124Y-11585913D01*
X16089202Y-11585887D01*
X16062472Y-11596932D01*
X16052287Y-11607100D01*
X16031100Y-11607100D01*
X16031100Y-11598275D01*
X16015225Y-11582400D01*
X15905300Y-11582400D01*
X15905300Y-11584400D01*
X15879900Y-11584400D01*
X15879900Y-11582400D01*
X15769975Y-11582400D01*
X15754100Y-11598275D01*
X15754100Y-11607100D01*
X15631287Y-11607100D01*
X15669489Y-11568898D01*
X15684217Y-11568911D01*
X15707270Y-11559385D01*
X15724923Y-11541763D01*
X15734489Y-11518726D01*
X15734511Y-11493783D01*
X15724985Y-11470730D01*
X15707363Y-11453076D01*
X15690650Y-11446137D01*
X15714887Y-11421900D01*
X15784259Y-11421900D01*
X15784259Y-11472700D01*
X15786368Y-11483905D01*
X15781630Y-11485867D01*
X15763767Y-11503730D01*
X15754100Y-11527069D01*
X15754100Y-11541125D01*
X15769975Y-11557000D01*
X15879900Y-11557000D01*
X15879900Y-11555000D01*
X15905300Y-11555000D01*
X15905300Y-11557000D01*
X16015225Y-11557000D01*
X16031100Y-11541125D01*
X16031100Y-11527069D01*
X16021433Y-11503730D01*
X16018103Y-11500400D01*
X16052398Y-11500400D01*
X16068965Y-11516996D01*
X16095676Y-11528087D01*
X16124597Y-11528113D01*
X16151327Y-11517068D01*
X16171796Y-11496635D01*
X16182887Y-11469924D01*
X16182913Y-11441002D01*
X16175020Y-11421900D01*
X16230599Y-11421900D01*
X16230600Y-11421900D01*
X16246941Y-11418650D01*
X16260793Y-11409393D01*
X16299087Y-11371100D01*
X16413232Y-11371100D01*
X16423637Y-11381523D01*
G36*
X13561276Y-10556237D02*
X13551711Y-10579274D01*
X13551689Y-10604217D01*
X13561214Y-10627270D01*
X13578837Y-10644924D01*
X13601873Y-10654489D01*
X13616715Y-10654502D01*
X13622306Y-10660093D01*
X13622306Y-10660094D01*
X13634546Y-10668271D01*
X13636159Y-10669350D01*
X13652500Y-10672600D01*
X13847024Y-10672600D01*
X13850851Y-10678547D01*
X13861779Y-10686014D01*
X13874750Y-10688641D01*
X13989050Y-10688641D01*
X14001168Y-10686361D01*
X14012297Y-10679199D01*
X14019764Y-10668271D01*
X14022391Y-10655300D01*
X14022391Y-10604500D01*
X14020110Y-10592382D01*
X14012949Y-10581253D01*
X14002021Y-10573786D01*
X13989050Y-10571159D01*
X13874750Y-10571159D01*
X13862632Y-10573440D01*
X13851503Y-10580601D01*
X13846994Y-10587200D01*
X13677104Y-10587200D01*
X13677111Y-10579383D01*
X13667585Y-10556330D01*
X13651484Y-10540200D01*
X14649589Y-10540200D01*
X14644979Y-10551300D01*
X14644375Y-10551300D01*
X14628500Y-10567175D01*
X14628500Y-10662100D01*
X14630500Y-10662100D01*
X14630500Y-10687500D01*
X14628500Y-10687500D01*
X14628500Y-10689500D01*
X14603100Y-10689500D01*
X14603100Y-10687500D01*
X14601100Y-10687500D01*
X14601100Y-10662100D01*
X14603100Y-10662100D01*
X14603100Y-10567175D01*
X14587225Y-10551300D01*
X14573169Y-10551300D01*
X14549830Y-10560967D01*
X14535800Y-10574998D01*
X14521770Y-10560967D01*
X14498431Y-10551300D01*
X14484375Y-10551300D01*
X14468500Y-10567175D01*
X14468500Y-10662100D01*
X14470500Y-10662100D01*
X14470500Y-10687500D01*
X14468500Y-10687500D01*
X14468500Y-10782425D01*
X14478776Y-10792702D01*
X14482492Y-10811381D01*
X14494192Y-10828892D01*
X14494187Y-10834798D01*
X14505232Y-10861528D01*
X14525665Y-10881996D01*
X14552376Y-10893087D01*
X14581297Y-10893113D01*
X14608027Y-10882068D01*
X14628496Y-10861635D01*
X14639587Y-10834924D01*
X14639613Y-10806003D01*
X14630836Y-10784761D01*
X14644375Y-10798300D01*
X14658431Y-10798300D01*
X14681770Y-10788633D01*
X14699633Y-10770770D01*
X14700722Y-10768141D01*
X14725800Y-10768141D01*
X14736167Y-10766190D01*
X14745800Y-10768141D01*
X14745908Y-10768141D01*
X14735513Y-10793176D01*
X14735487Y-10822098D01*
X14746532Y-10848828D01*
X14766965Y-10869296D01*
X14793676Y-10880387D01*
X14822597Y-10880413D01*
X14849327Y-10869368D01*
X14869796Y-10848935D01*
X14880887Y-10822224D01*
X14880892Y-10816608D01*
X14896600Y-10800900D01*
X14896600Y-10800900D01*
X14909108Y-10782181D01*
X14909708Y-10779165D01*
X14911901Y-10768141D01*
X14965800Y-10768141D01*
X14977918Y-10765861D01*
X14989047Y-10758699D01*
X14996514Y-10747771D01*
X14999141Y-10734800D01*
X14999141Y-10717500D01*
X15537716Y-10717500D01*
X15542414Y-10728870D01*
X15560037Y-10746524D01*
X15583073Y-10756089D01*
X15608017Y-10756111D01*
X15631070Y-10746586D01*
X15648723Y-10728963D01*
X15658289Y-10705927D01*
X15658311Y-10680983D01*
X15648785Y-10657930D01*
X15631163Y-10640277D01*
X15608126Y-10630711D01*
X15583183Y-10630689D01*
X15578869Y-10632472D01*
X15577000Y-10632100D01*
X15576999Y-10632100D01*
X14999141Y-10632100D01*
X14999141Y-10614800D01*
X14998068Y-10609100D01*
X15397232Y-10609100D01*
X15407637Y-10619524D01*
X15430673Y-10629089D01*
X15455617Y-10629111D01*
X15478670Y-10619586D01*
X15496323Y-10601963D01*
X15505889Y-10578927D01*
X15505911Y-10553983D01*
X15500216Y-10540200D01*
X16573500Y-10540200D01*
X16573500Y-11284639D01*
X16565593Y-11272806D01*
X16565593Y-11272806D01*
X16514793Y-11222006D01*
X16500941Y-11212750D01*
X16484600Y-11209500D01*
X16484599Y-11209500D01*
X16430040Y-11209500D01*
X16443870Y-11203785D01*
X16461523Y-11186163D01*
X16471089Y-11163127D01*
X16471111Y-11138183D01*
X16461585Y-11115130D01*
X16443963Y-11097477D01*
X16420926Y-11087911D01*
X16406085Y-11087898D01*
X16349693Y-11031507D01*
X16348187Y-11030500D01*
X16439476Y-11030500D01*
X16443365Y-11034396D01*
X16470076Y-11045487D01*
X16498997Y-11045513D01*
X16525727Y-11034468D01*
X16546196Y-11014035D01*
X16557287Y-10987324D01*
X16557313Y-10958403D01*
X16546268Y-10931673D01*
X16525835Y-10911204D01*
X16499124Y-10900113D01*
X16470202Y-10900087D01*
X16443472Y-10911132D01*
X16439498Y-10915100D01*
X16155324Y-10915100D01*
X16151435Y-10911204D01*
X16124724Y-10900113D01*
X16095802Y-10900087D01*
X16069072Y-10911132D01*
X16048604Y-10931565D01*
X16037513Y-10958276D01*
X16037487Y-10987198D01*
X16048532Y-11013928D01*
X16053596Y-11019000D01*
X15998286Y-11019000D01*
X15991499Y-11008453D01*
X15980571Y-11000986D01*
X15967600Y-10998359D01*
X15817600Y-10998359D01*
X15805482Y-11000640D01*
X15794353Y-11007801D01*
X15786886Y-11018729D01*
X15784259Y-11031700D01*
X15784259Y-11091700D01*
X15786539Y-11103818D01*
X15793701Y-11114947D01*
X15804629Y-11122414D01*
X15817600Y-11125041D01*
X15967600Y-11125041D01*
X15979718Y-11122761D01*
X15990847Y-11115599D01*
X15998314Y-11104671D01*
X15998369Y-11104400D01*
X16301813Y-11104400D01*
X16345702Y-11148289D01*
X16345689Y-11163017D01*
X16355214Y-11186070D01*
X16372837Y-11203723D01*
X16386748Y-11209500D01*
X16172087Y-11209500D01*
X16121093Y-11158507D01*
X16107241Y-11149250D01*
X16090900Y-11146000D01*
X16090899Y-11146000D01*
X15998286Y-11146000D01*
X15991499Y-11135453D01*
X15980571Y-11127986D01*
X15967600Y-11125359D01*
X15817600Y-11125359D01*
X15805482Y-11127640D01*
X15794353Y-11134801D01*
X15786886Y-11145729D01*
X15786831Y-11146000D01*
X15778046Y-11146000D01*
X15775785Y-11140530D01*
X15758163Y-11122877D01*
X15735126Y-11113311D01*
X15710183Y-11113289D01*
X15687130Y-11122815D01*
X15669476Y-11140437D01*
X15659911Y-11163474D01*
X15659889Y-11188417D01*
X15660634Y-11190220D01*
X15658926Y-11189511D01*
X15633983Y-11189489D01*
X15610930Y-11199014D01*
X15593276Y-11216637D01*
X15583711Y-11239673D01*
X15583689Y-11264617D01*
X15593214Y-11287670D01*
X15610837Y-11305323D01*
X15633873Y-11314889D01*
X15648715Y-11314902D01*
X15676486Y-11342673D01*
X15667006Y-11349006D01*
X15667006Y-11349007D01*
X15570448Y-11445565D01*
X15576281Y-11431517D01*
X15576319Y-11388671D01*
X15559957Y-11349072D01*
X15529687Y-11318750D01*
X15490117Y-11302319D01*
X15447271Y-11302281D01*
X15407672Y-11318643D01*
X15377350Y-11348913D01*
X15369715Y-11367300D01*
X15265959Y-11367300D01*
X15250163Y-11351476D01*
X15227126Y-11341911D01*
X15204300Y-11341891D01*
X15204300Y-11337169D01*
X15194633Y-11313830D01*
X15176770Y-11295967D01*
X15174141Y-11294878D01*
X15174141Y-11269800D01*
X15172190Y-11259433D01*
X15174141Y-11249800D01*
X15174141Y-11189800D01*
X15172190Y-11179433D01*
X15174141Y-11169800D01*
X15174141Y-11109800D01*
X15172190Y-11099433D01*
X15174141Y-11089800D01*
X15174141Y-11029800D01*
X15172190Y-11019433D01*
X15174141Y-11009800D01*
X15174141Y-10949800D01*
X15172190Y-10939433D01*
X15174141Y-10929800D01*
X15174141Y-10891128D01*
X15362206Y-11079193D01*
X15362206Y-11079194D01*
X15376059Y-11088450D01*
X15392400Y-11091700D01*
X15570199Y-11091700D01*
X15570200Y-11091700D01*
X15586541Y-11088450D01*
X15600393Y-11079194D01*
X15702187Y-10977400D01*
X15786914Y-10977400D01*
X15793701Y-10987947D01*
X15804629Y-10995414D01*
X15817600Y-10998041D01*
X15967600Y-10998041D01*
X15979718Y-10995761D01*
X15990847Y-10988599D01*
X15998314Y-10977671D01*
X16000941Y-10964700D01*
X16000941Y-10904700D01*
X15998832Y-10893495D01*
X16003570Y-10891533D01*
X16021433Y-10873670D01*
X16031100Y-10850331D01*
X16031100Y-10836275D01*
X16015225Y-10820400D01*
X15905300Y-10820400D01*
X15905300Y-10822400D01*
X15879900Y-10822400D01*
X15879900Y-10820400D01*
X15769975Y-10820400D01*
X15754100Y-10836275D01*
X15754100Y-10850331D01*
X15763767Y-10873670D01*
X15781630Y-10891533D01*
X15782758Y-10892000D01*
X15684500Y-10892000D01*
X15668159Y-10895250D01*
X15654306Y-10904507D01*
X15552513Y-11006300D01*
X15536597Y-11006300D01*
X15559850Y-10983087D01*
X15576281Y-10943517D01*
X15576319Y-10900671D01*
X15559957Y-10861073D01*
X15529687Y-10830750D01*
X15490117Y-10814319D01*
X15447271Y-10814281D01*
X15407672Y-10830643D01*
X15377350Y-10860913D01*
X15360919Y-10900483D01*
X15360881Y-10943329D01*
X15370574Y-10966787D01*
X15193993Y-10790207D01*
X15187196Y-10785664D01*
X15180425Y-10781070D01*
X15180271Y-10781038D01*
X15180141Y-10780950D01*
X15172177Y-10779366D01*
X15171860Y-10777682D01*
X15164699Y-10766553D01*
X15162527Y-10765069D01*
X15754100Y-10765069D01*
X15754100Y-10779125D01*
X15769975Y-10795000D01*
X15879900Y-10795000D01*
X15879900Y-10793000D01*
X15905300Y-10793000D01*
X15905300Y-10795000D01*
X16015225Y-10795000D01*
X16031100Y-10779125D01*
X16031100Y-10765069D01*
X16021433Y-10741730D01*
X16018103Y-10738400D01*
X16065499Y-10738400D01*
X16065500Y-10738400D01*
X16087581Y-10734008D01*
X16106300Y-10721500D01*
X16112492Y-10715308D01*
X16117997Y-10715313D01*
X16144727Y-10704268D01*
X16165196Y-10683835D01*
X16176287Y-10657124D01*
X16176313Y-10628203D01*
X16165268Y-10601473D01*
X16144835Y-10581004D01*
X16118124Y-10569913D01*
X16089202Y-10569887D01*
X16062472Y-10580932D01*
X16042004Y-10601365D01*
X16033020Y-10623000D01*
X15984982Y-10623000D01*
X15980571Y-10619986D01*
X15967600Y-10617359D01*
X15817600Y-10617359D01*
X15805482Y-10619640D01*
X15794353Y-10626801D01*
X15786886Y-10637729D01*
X15784259Y-10650700D01*
X15784259Y-10710700D01*
X15786368Y-10721905D01*
X15781630Y-10723867D01*
X15763767Y-10741730D01*
X15754100Y-10765069D01*
X15162527Y-10765069D01*
X15153771Y-10759086D01*
X15140800Y-10756459D01*
X15020800Y-10756459D01*
X15008682Y-10758740D01*
X14997553Y-10765901D01*
X14990086Y-10776829D01*
X14987459Y-10789800D01*
X14987459Y-10849800D01*
X14989410Y-10860167D01*
X14987459Y-10869800D01*
X14987459Y-10929800D01*
X14989410Y-10940167D01*
X14987459Y-10949800D01*
X14987459Y-11009800D01*
X14989410Y-11020167D01*
X14987459Y-11029800D01*
X14987459Y-11089800D01*
X14989410Y-11100167D01*
X14987459Y-11109800D01*
X14987459Y-11169800D01*
X14989410Y-11180167D01*
X14987459Y-11189800D01*
X14987459Y-11249800D01*
X14989410Y-11260167D01*
X14987459Y-11269800D01*
X14987459Y-11294878D01*
X14984830Y-11295967D01*
X14966967Y-11313830D01*
X14957300Y-11337169D01*
X14957300Y-11351225D01*
X14973175Y-11367100D01*
X15068100Y-11367100D01*
X15068100Y-11365100D01*
X15093500Y-11365100D01*
X15093500Y-11367100D01*
X15095500Y-11367100D01*
X15095500Y-11392500D01*
X15093500Y-11392500D01*
X15093500Y-11394500D01*
X15068100Y-11394500D01*
X15068100Y-11392500D01*
X15005258Y-11392500D01*
X15002341Y-11390550D01*
X14986000Y-11387300D01*
X14985999Y-11387300D01*
X14884400Y-11387300D01*
X14884400Y-11387300D01*
X14868059Y-11390550D01*
X14854206Y-11399806D01*
X14842408Y-11411605D01*
X14841770Y-11410967D01*
X14818431Y-11401300D01*
X14804375Y-11401300D01*
X14788500Y-11417175D01*
X14788500Y-11512100D01*
X14790500Y-11512100D01*
X14790500Y-11537500D01*
X14788500Y-11537500D01*
X14788500Y-11539500D01*
X14763100Y-11539500D01*
X14763100Y-11537500D01*
X14761100Y-11537500D01*
X14761100Y-11512100D01*
X14763100Y-11512100D01*
X14763100Y-11417175D01*
X14748500Y-11402575D01*
X14748500Y-11381299D01*
X14753887Y-11368324D01*
X14753913Y-11339402D01*
X14742868Y-11312672D01*
X14722435Y-11292204D01*
X14695724Y-11281113D01*
X14666802Y-11281087D01*
X14640072Y-11292132D01*
X14619604Y-11312565D01*
X14608513Y-11339276D01*
X14608487Y-11368197D01*
X14619532Y-11394927D01*
X14639965Y-11415396D01*
X14643100Y-11416698D01*
X14643100Y-11431459D01*
X14585800Y-11431459D01*
X14575433Y-11433410D01*
X14565800Y-11431459D01*
X14505800Y-11431459D01*
X14495433Y-11433410D01*
X14485800Y-11431459D01*
X14460722Y-11431459D01*
X14459633Y-11428830D01*
X14441770Y-11410967D01*
X14418431Y-11401300D01*
X14404375Y-11401300D01*
X14388500Y-11417175D01*
X14388500Y-11512100D01*
X14390500Y-11512100D01*
X14390500Y-11537500D01*
X14388500Y-11537500D01*
X14388500Y-11539500D01*
X14363100Y-11539500D01*
X14363100Y-11537500D01*
X14298175Y-11537500D01*
X14282300Y-11553375D01*
X14282300Y-11585906D01*
X14260402Y-11585887D01*
X14233672Y-11596932D01*
X14223487Y-11607100D01*
X14038200Y-11607100D01*
X14010800Y-11579700D01*
X14010202Y-11579300D01*
X14079000Y-11579300D01*
X14097254Y-11575669D01*
X14112729Y-11565329D01*
X14234917Y-11443141D01*
X14286040Y-11443141D01*
X14282300Y-11452169D01*
X14282300Y-11496225D01*
X14298175Y-11512100D01*
X14363100Y-11512100D01*
X14363100Y-11417175D01*
X14347225Y-11401300D01*
X14333169Y-11401300D01*
X14324141Y-11405040D01*
X14324141Y-11349800D01*
X14322190Y-11339433D01*
X14324141Y-11329800D01*
X14324141Y-11269800D01*
X14322190Y-11259433D01*
X14324141Y-11249800D01*
X14324141Y-11189800D01*
X14322190Y-11179433D01*
X14324141Y-11169800D01*
X14324141Y-11117500D01*
X14352899Y-11117500D01*
X14352900Y-11117500D01*
X14374981Y-11113108D01*
X14381122Y-11109004D01*
X14390797Y-11109013D01*
X14417527Y-11097968D01*
X14437996Y-11077535D01*
X14449087Y-11050824D01*
X14449113Y-11021903D01*
X14438068Y-10995173D01*
X14417635Y-10974704D01*
X14390924Y-10963613D01*
X14362002Y-10963587D01*
X14335272Y-10974632D01*
X14324141Y-10985745D01*
X14324141Y-10949800D01*
X14322190Y-10939433D01*
X14323618Y-10932383D01*
X14327193Y-10929994D01*
X14355793Y-10901394D01*
X14365050Y-10887541D01*
X14368300Y-10871200D01*
X14368300Y-10871200D01*
X14368300Y-10769600D01*
X14368010Y-10768141D01*
X14370878Y-10768141D01*
X14371967Y-10770770D01*
X14389830Y-10788633D01*
X14413169Y-10798300D01*
X14427225Y-10798300D01*
X14443100Y-10782425D01*
X14443100Y-10687500D01*
X14441100Y-10687500D01*
X14441100Y-10662100D01*
X14443100Y-10662100D01*
X14443100Y-10567175D01*
X14427225Y-10551300D01*
X14413169Y-10551300D01*
X14389830Y-10560967D01*
X14371967Y-10578830D01*
X14370878Y-10581459D01*
X14345800Y-10581459D01*
X14333682Y-10583740D01*
X14322553Y-10590901D01*
X14315086Y-10601829D01*
X14312459Y-10614800D01*
X14312459Y-10632100D01*
X14149756Y-10632100D01*
X14132563Y-10614877D01*
X14109526Y-10605311D01*
X14084583Y-10605289D01*
X14061530Y-10614815D01*
X14043876Y-10632437D01*
X14034311Y-10655474D01*
X14034289Y-10680417D01*
X14043000Y-10701500D01*
X14003066Y-10701500D01*
X14002021Y-10700786D01*
X13989050Y-10698159D01*
X13874750Y-10698159D01*
X13862632Y-10700440D01*
X13851503Y-10707601D01*
X13846994Y-10714200D01*
X13644481Y-10714200D01*
X13626926Y-10706911D01*
X13601983Y-10706889D01*
X13578930Y-10716415D01*
X13561276Y-10734037D01*
X13551711Y-10757074D01*
X13551689Y-10782017D01*
X13561214Y-10805070D01*
X13578837Y-10822724D01*
X13601873Y-10832289D01*
X13626817Y-10832311D01*
X13649870Y-10822786D01*
X13667523Y-10805163D01*
X13669833Y-10799600D01*
X13847024Y-10799600D01*
X13850851Y-10805547D01*
X13861779Y-10813014D01*
X13874750Y-10815641D01*
X13989050Y-10815641D01*
X14001168Y-10813361D01*
X14012297Y-10806199D01*
X14019764Y-10795271D01*
X14021459Y-10786900D01*
X14096857Y-10786900D01*
X14092806Y-10789607D01*
X14041213Y-10841200D01*
X14016776Y-10841200D01*
X14012949Y-10835253D01*
X14002021Y-10827786D01*
X13989050Y-10825159D01*
X13874750Y-10825159D01*
X13862632Y-10827440D01*
X13851503Y-10834601D01*
X13844036Y-10845529D01*
X13841409Y-10858500D01*
X13841409Y-10909300D01*
X13843689Y-10921418D01*
X13850851Y-10932547D01*
X13861779Y-10940014D01*
X13874750Y-10942641D01*
X13989050Y-10942641D01*
X14001168Y-10940361D01*
X14012297Y-10933199D01*
X14016806Y-10926600D01*
X14029132Y-10926600D01*
X14018476Y-10937237D01*
X14009163Y-10959666D01*
X14002021Y-10954786D01*
X13989050Y-10952159D01*
X13874750Y-10952159D01*
X13862632Y-10954440D01*
X13851503Y-10961601D01*
X13844036Y-10972529D01*
X13841409Y-10985500D01*
X13841409Y-11036300D01*
X13843689Y-11048418D01*
X13850851Y-11059547D01*
X13861779Y-11067014D01*
X13874750Y-11069641D01*
X13989050Y-11069641D01*
X14001168Y-11067361D01*
X14012297Y-11060199D01*
X14016806Y-11053600D01*
X14033499Y-11053600D01*
X14033500Y-11053600D01*
X14049841Y-11050350D01*
X14063693Y-11041094D01*
X14069289Y-11035498D01*
X14084017Y-11035511D01*
X14107070Y-11025986D01*
X14124723Y-11008363D01*
X14134289Y-10985327D01*
X14134311Y-10960383D01*
X14124785Y-10937330D01*
X14107163Y-10919677D01*
X14090450Y-10912737D01*
X14138493Y-10864694D01*
X14137459Y-10869800D01*
X14137459Y-10929800D01*
X14139410Y-10940167D01*
X14137459Y-10949800D01*
X14137459Y-11009800D01*
X14139410Y-11020167D01*
X14137459Y-11029800D01*
X14137459Y-11089800D01*
X14137892Y-11092100D01*
X14057000Y-11092100D01*
X14038746Y-11095731D01*
X14023271Y-11106071D01*
X14013742Y-11115600D01*
X13906133Y-11115600D01*
X13904360Y-11106182D01*
X13897199Y-11095053D01*
X13886271Y-11087586D01*
X13873300Y-11084959D01*
X13753300Y-11084959D01*
X13741182Y-11087240D01*
X13730053Y-11094401D01*
X13722586Y-11105329D01*
X13719959Y-11118300D01*
X13719959Y-11208300D01*
X13722239Y-11220418D01*
X13729401Y-11231547D01*
X13732025Y-11233340D01*
X13726182Y-11234439D01*
X13724590Y-11235464D01*
X13722133Y-11229530D01*
X13704270Y-11211667D01*
X13686641Y-11204365D01*
X13686641Y-11118300D01*
X13684360Y-11106182D01*
X13677199Y-11095053D01*
X13666271Y-11087586D01*
X13653300Y-11084959D01*
X13533300Y-11084959D01*
X13521182Y-11087240D01*
X13510053Y-11094401D01*
X13509304Y-11095497D01*
X13509313Y-11085403D01*
X13498268Y-11058673D01*
X13477835Y-11038204D01*
X13451124Y-11027113D01*
X13445508Y-11027108D01*
X13388500Y-10970100D01*
X13378849Y-10963651D01*
X13377949Y-10962253D01*
X13367021Y-10954786D01*
X13354050Y-10952159D01*
X13239750Y-10952159D01*
X13227632Y-10954440D01*
X13216503Y-10961601D01*
X13209036Y-10972529D01*
X13206409Y-10985500D01*
X13206409Y-11036300D01*
X13208689Y-11048418D01*
X13215851Y-11059547D01*
X13226779Y-11067014D01*
X13239750Y-11069641D01*
X13324840Y-11069641D01*
X13363892Y-11108692D01*
X13363887Y-11114198D01*
X13374932Y-11140928D01*
X13395365Y-11161396D01*
X13407416Y-11166400D01*
X13170041Y-11166400D01*
X13170041Y-11118300D01*
X13167760Y-11106182D01*
X13160599Y-11095053D01*
X13149671Y-11087586D01*
X13136700Y-11084959D01*
X13016700Y-11084959D01*
X13004582Y-11087240D01*
X12993453Y-11094401D01*
X12985986Y-11105329D01*
X12983359Y-11118300D01*
X12983359Y-11208300D01*
X12985639Y-11220418D01*
X12992801Y-11231547D01*
X13003729Y-11239014D01*
X13016700Y-11241641D01*
X13104583Y-11241641D01*
X13113001Y-11250059D01*
X13016700Y-11250059D01*
X13004582Y-11252339D01*
X12993453Y-11259501D01*
X12985986Y-11270429D01*
X12983359Y-11283400D01*
X12983359Y-11373400D01*
X12985639Y-11385518D01*
X12992801Y-11396647D01*
X13003729Y-11404114D01*
X13016700Y-11406741D01*
X13136700Y-11406741D01*
X13148818Y-11404460D01*
X13159152Y-11397810D01*
X13309153Y-11547811D01*
X13282502Y-11547787D01*
X13255772Y-11558832D01*
X13251798Y-11562800D01*
X13028700Y-11562800D01*
X12937900Y-11472000D01*
X12919181Y-11459492D01*
X12910541Y-11457773D01*
X12910541Y-11452800D01*
X12908260Y-11440682D01*
X12901099Y-11429553D01*
X12890171Y-11422086D01*
X12877200Y-11419459D01*
X12802200Y-11419459D01*
X12790082Y-11421739D01*
X12778953Y-11428901D01*
X12771486Y-11439829D01*
X12768859Y-11452800D01*
X12768859Y-11455100D01*
X12747430Y-11455100D01*
X12746260Y-11448882D01*
X12739099Y-11437753D01*
X12728171Y-11430286D01*
X12715200Y-11427659D01*
X12570377Y-11427659D01*
X12570423Y-11374341D01*
X12673755Y-11374341D01*
X12682600Y-11376100D01*
X12763867Y-11376100D01*
X12765639Y-11385518D01*
X12772801Y-11396647D01*
X12783729Y-11404114D01*
X12796700Y-11406741D01*
X12916700Y-11406741D01*
X12928818Y-11404460D01*
X12939947Y-11397299D01*
X12947414Y-11386371D01*
X12950041Y-11373400D01*
X12950041Y-11283400D01*
X12947760Y-11271282D01*
X12940599Y-11260153D01*
X12929671Y-11252686D01*
X12916700Y-11250059D01*
X12796700Y-11250059D01*
X12784582Y-11252339D01*
X12773453Y-11259501D01*
X12765986Y-11270429D01*
X12763906Y-11280700D01*
X12748541Y-11280700D01*
X12748541Y-11211000D01*
X12746260Y-11198882D01*
X12739099Y-11187753D01*
X12728171Y-11180286D01*
X12715200Y-11177659D01*
X12545200Y-11177659D01*
X12533082Y-11179940D01*
X12521953Y-11187101D01*
X12514486Y-11198029D01*
X12511859Y-11211000D01*
X12511859Y-11269876D01*
X12494572Y-11252559D01*
X12430202Y-11225830D01*
X12360503Y-11225770D01*
X12296087Y-11252386D01*
X12246759Y-11301628D01*
X12220200Y-11365589D01*
X12220200Y-10986254D01*
X12246586Y-11050113D01*
X12295828Y-11099441D01*
X12360198Y-11126170D01*
X12429896Y-11126230D01*
X12494313Y-11099614D01*
X12511859Y-11082098D01*
X12511859Y-11141000D01*
X12514139Y-11153118D01*
X12521301Y-11164247D01*
X12532229Y-11171714D01*
X12545200Y-11174341D01*
X12715200Y-11174341D01*
X12727318Y-11172061D01*
X12738447Y-11164899D01*
X12745914Y-11153971D01*
X12748541Y-11141000D01*
X12748541Y-11123700D01*
X12749642Y-11123700D01*
X12763359Y-11137417D01*
X12763359Y-11208300D01*
X12765639Y-11220418D01*
X12772801Y-11231547D01*
X12783729Y-11239014D01*
X12796700Y-11241641D01*
X12916700Y-11241641D01*
X12928818Y-11239360D01*
X12939947Y-11232199D01*
X12947414Y-11221271D01*
X12950041Y-11208300D01*
X12950041Y-11118300D01*
X12947760Y-11106182D01*
X12940599Y-11095053D01*
X12929671Y-11087586D01*
X12916700Y-11084959D01*
X12845817Y-11084959D01*
X12803129Y-11042271D01*
X12787654Y-11031931D01*
X12769400Y-11028300D01*
X12748541Y-11028300D01*
X12748541Y-11011000D01*
X12746260Y-10998882D01*
X12739099Y-10987753D01*
X12728171Y-10980286D01*
X12715200Y-10977659D01*
X12570377Y-10977659D01*
X12570397Y-10954500D01*
X12601625Y-10954500D01*
X12617500Y-10938625D01*
X12617500Y-10838700D01*
X12642900Y-10838700D01*
X12642900Y-10938625D01*
X12658775Y-10954500D01*
X12727831Y-10954500D01*
X12751170Y-10944833D01*
X12769033Y-10926970D01*
X12778700Y-10903631D01*
X12778700Y-10858500D01*
X13206409Y-10858500D01*
X13206409Y-10909300D01*
X13208689Y-10921418D01*
X13215851Y-10932547D01*
X13226779Y-10940014D01*
X13239750Y-10942641D01*
X13354050Y-10942641D01*
X13366168Y-10940361D01*
X13377297Y-10933199D01*
X13384764Y-10922271D01*
X13387391Y-10909300D01*
X13387391Y-10858500D01*
X13385110Y-10846382D01*
X13377949Y-10835253D01*
X13367021Y-10827786D01*
X13354050Y-10825159D01*
X13239750Y-10825159D01*
X13227632Y-10827440D01*
X13216503Y-10834601D01*
X13209036Y-10845529D01*
X13206409Y-10858500D01*
X12778700Y-10858500D01*
X12778700Y-10854575D01*
X12762825Y-10838700D01*
X12642900Y-10838700D01*
X12617500Y-10838700D01*
X12615500Y-10838700D01*
X12615500Y-10813300D01*
X12617500Y-10813300D01*
X12617500Y-10713375D01*
X12642900Y-10713375D01*
X12642900Y-10813300D01*
X12762825Y-10813300D01*
X12778700Y-10797425D01*
X12778700Y-10748369D01*
X12769033Y-10725030D01*
X12751170Y-10707167D01*
X12727831Y-10697500D01*
X12658775Y-10697500D01*
X12642900Y-10713375D01*
X12617500Y-10713375D01*
X12601625Y-10697500D01*
X12532569Y-10697500D01*
X12509230Y-10707167D01*
X12491367Y-10725030D01*
X12481700Y-10748369D01*
X12481700Y-10797214D01*
X12430202Y-10775831D01*
X12360503Y-10775770D01*
X12296087Y-10802386D01*
X12246759Y-10851628D01*
X12220200Y-10915590D01*
X12220200Y-10658475D01*
X13176250Y-10658475D01*
X13176250Y-10667931D01*
X13185917Y-10691270D01*
X13203780Y-10709133D01*
X13212880Y-10712902D01*
X13209036Y-10718529D01*
X13206409Y-10731500D01*
X13206409Y-10782300D01*
X13208689Y-10794418D01*
X13215851Y-10805547D01*
X13226779Y-10813014D01*
X13239750Y-10815641D01*
X13354050Y-10815641D01*
X13366168Y-10813361D01*
X13377297Y-10806199D01*
X13384764Y-10795271D01*
X13387391Y-10782300D01*
X13387391Y-10731500D01*
X13385110Y-10719382D01*
X13380936Y-10712895D01*
X13390020Y-10709133D01*
X13407883Y-10691270D01*
X13417550Y-10667931D01*
X13417550Y-10658475D01*
X13401675Y-10642600D01*
X13309600Y-10642600D01*
X13309600Y-10644600D01*
X13284200Y-10644600D01*
X13284200Y-10642600D01*
X13192125Y-10642600D01*
X13176250Y-10658475D01*
X12220200Y-10658475D01*
X12220200Y-10591869D01*
X13176250Y-10591869D01*
X13176250Y-10601325D01*
X13192125Y-10617200D01*
X13284200Y-10617200D01*
X13284200Y-10556875D01*
X13309600Y-10556875D01*
X13309600Y-10617200D01*
X13401675Y-10617200D01*
X13417550Y-10601325D01*
X13417550Y-10591869D01*
X13407883Y-10568530D01*
X13390020Y-10550667D01*
X13366681Y-10541000D01*
X13325475Y-10541000D01*
X13309600Y-10556875D01*
X13284200Y-10556875D01*
X13268325Y-10541000D01*
X13227119Y-10541000D01*
X13203780Y-10550667D01*
X13185917Y-10568530D01*
X13176250Y-10591869D01*
X12220200Y-10591869D01*
X12220200Y-10540200D01*
X13577341Y-10540200D01*
X13561276Y-10556237D01*
X13561276Y-10556237D01*
G37*
X13561276Y-10556237D02*
X13551711Y-10579274D01*
X13551689Y-10604217D01*
X13561214Y-10627270D01*
X13578837Y-10644924D01*
X13601873Y-10654489D01*
X13616715Y-10654502D01*
X13622306Y-10660093D01*
X13622306Y-10660094D01*
X13634546Y-10668271D01*
X13636159Y-10669350D01*
X13652500Y-10672600D01*
X13847024Y-10672600D01*
X13850851Y-10678547D01*
X13861779Y-10686014D01*
X13874750Y-10688641D01*
X13989050Y-10688641D01*
X14001168Y-10686361D01*
X14012297Y-10679199D01*
X14019764Y-10668271D01*
X14022391Y-10655300D01*
X14022391Y-10604500D01*
X14020110Y-10592382D01*
X14012949Y-10581253D01*
X14002021Y-10573786D01*
X13989050Y-10571159D01*
X13874750Y-10571159D01*
X13862632Y-10573440D01*
X13851503Y-10580601D01*
X13846994Y-10587200D01*
X13677104Y-10587200D01*
X13677111Y-10579383D01*
X13667585Y-10556330D01*
X13651484Y-10540200D01*
X14649589Y-10540200D01*
X14644979Y-10551300D01*
X14644375Y-10551300D01*
X14628500Y-10567175D01*
X14628500Y-10662100D01*
X14630500Y-10662100D01*
X14630500Y-10687500D01*
X14628500Y-10687500D01*
X14628500Y-10689500D01*
X14603100Y-10689500D01*
X14603100Y-10687500D01*
X14601100Y-10687500D01*
X14601100Y-10662100D01*
X14603100Y-10662100D01*
X14603100Y-10567175D01*
X14587225Y-10551300D01*
X14573169Y-10551300D01*
X14549830Y-10560967D01*
X14535800Y-10574998D01*
X14521770Y-10560967D01*
X14498431Y-10551300D01*
X14484375Y-10551300D01*
X14468500Y-10567175D01*
X14468500Y-10662100D01*
X14470500Y-10662100D01*
X14470500Y-10687500D01*
X14468500Y-10687500D01*
X14468500Y-10782425D01*
X14478776Y-10792702D01*
X14482492Y-10811381D01*
X14494192Y-10828892D01*
X14494187Y-10834798D01*
X14505232Y-10861528D01*
X14525665Y-10881996D01*
X14552376Y-10893087D01*
X14581297Y-10893113D01*
X14608027Y-10882068D01*
X14628496Y-10861635D01*
X14639587Y-10834924D01*
X14639613Y-10806003D01*
X14630836Y-10784761D01*
X14644375Y-10798300D01*
X14658431Y-10798300D01*
X14681770Y-10788633D01*
X14699633Y-10770770D01*
X14700722Y-10768141D01*
X14725800Y-10768141D01*
X14736167Y-10766190D01*
X14745800Y-10768141D01*
X14745908Y-10768141D01*
X14735513Y-10793176D01*
X14735487Y-10822098D01*
X14746532Y-10848828D01*
X14766965Y-10869296D01*
X14793676Y-10880387D01*
X14822597Y-10880413D01*
X14849327Y-10869368D01*
X14869796Y-10848935D01*
X14880887Y-10822224D01*
X14880892Y-10816608D01*
X14896600Y-10800900D01*
X14896600Y-10800900D01*
X14909108Y-10782181D01*
X14909708Y-10779165D01*
X14911901Y-10768141D01*
X14965800Y-10768141D01*
X14977918Y-10765861D01*
X14989047Y-10758699D01*
X14996514Y-10747771D01*
X14999141Y-10734800D01*
X14999141Y-10717500D01*
X15537716Y-10717500D01*
X15542414Y-10728870D01*
X15560037Y-10746524D01*
X15583073Y-10756089D01*
X15608017Y-10756111D01*
X15631070Y-10746586D01*
X15648723Y-10728963D01*
X15658289Y-10705927D01*
X15658311Y-10680983D01*
X15648785Y-10657930D01*
X15631163Y-10640277D01*
X15608126Y-10630711D01*
X15583183Y-10630689D01*
X15578869Y-10632472D01*
X15577000Y-10632100D01*
X15576999Y-10632100D01*
X14999141Y-10632100D01*
X14999141Y-10614800D01*
X14998068Y-10609100D01*
X15397232Y-10609100D01*
X15407637Y-10619524D01*
X15430673Y-10629089D01*
X15455617Y-10629111D01*
X15478670Y-10619586D01*
X15496323Y-10601963D01*
X15505889Y-10578927D01*
X15505911Y-10553983D01*
X15500216Y-10540200D01*
X16573500Y-10540200D01*
X16573500Y-11284639D01*
X16565593Y-11272806D01*
X16565593Y-11272806D01*
X16514793Y-11222006D01*
X16500941Y-11212750D01*
X16484600Y-11209500D01*
X16484599Y-11209500D01*
X16430040Y-11209500D01*
X16443870Y-11203785D01*
X16461523Y-11186163D01*
X16471089Y-11163127D01*
X16471111Y-11138183D01*
X16461585Y-11115130D01*
X16443963Y-11097477D01*
X16420926Y-11087911D01*
X16406085Y-11087898D01*
X16349693Y-11031507D01*
X16348187Y-11030500D01*
X16439476Y-11030500D01*
X16443365Y-11034396D01*
X16470076Y-11045487D01*
X16498997Y-11045513D01*
X16525727Y-11034468D01*
X16546196Y-11014035D01*
X16557287Y-10987324D01*
X16557313Y-10958403D01*
X16546268Y-10931673D01*
X16525835Y-10911204D01*
X16499124Y-10900113D01*
X16470202Y-10900087D01*
X16443472Y-10911132D01*
X16439498Y-10915100D01*
X16155324Y-10915100D01*
X16151435Y-10911204D01*
X16124724Y-10900113D01*
X16095802Y-10900087D01*
X16069072Y-10911132D01*
X16048604Y-10931565D01*
X16037513Y-10958276D01*
X16037487Y-10987198D01*
X16048532Y-11013928D01*
X16053596Y-11019000D01*
X15998286Y-11019000D01*
X15991499Y-11008453D01*
X15980571Y-11000986D01*
X15967600Y-10998359D01*
X15817600Y-10998359D01*
X15805482Y-11000640D01*
X15794353Y-11007801D01*
X15786886Y-11018729D01*
X15784259Y-11031700D01*
X15784259Y-11091700D01*
X15786539Y-11103818D01*
X15793701Y-11114947D01*
X15804629Y-11122414D01*
X15817600Y-11125041D01*
X15967600Y-11125041D01*
X15979718Y-11122761D01*
X15990847Y-11115599D01*
X15998314Y-11104671D01*
X15998369Y-11104400D01*
X16301813Y-11104400D01*
X16345702Y-11148289D01*
X16345689Y-11163017D01*
X16355214Y-11186070D01*
X16372837Y-11203723D01*
X16386748Y-11209500D01*
X16172087Y-11209500D01*
X16121093Y-11158507D01*
X16107241Y-11149250D01*
X16090900Y-11146000D01*
X16090899Y-11146000D01*
X15998286Y-11146000D01*
X15991499Y-11135453D01*
X15980571Y-11127986D01*
X15967600Y-11125359D01*
X15817600Y-11125359D01*
X15805482Y-11127640D01*
X15794353Y-11134801D01*
X15786886Y-11145729D01*
X15786831Y-11146000D01*
X15778046Y-11146000D01*
X15775785Y-11140530D01*
X15758163Y-11122877D01*
X15735126Y-11113311D01*
X15710183Y-11113289D01*
X15687130Y-11122815D01*
X15669476Y-11140437D01*
X15659911Y-11163474D01*
X15659889Y-11188417D01*
X15660634Y-11190220D01*
X15658926Y-11189511D01*
X15633983Y-11189489D01*
X15610930Y-11199014D01*
X15593276Y-11216637D01*
X15583711Y-11239673D01*
X15583689Y-11264617D01*
X15593214Y-11287670D01*
X15610837Y-11305323D01*
X15633873Y-11314889D01*
X15648715Y-11314902D01*
X15676486Y-11342673D01*
X15667006Y-11349006D01*
X15667006Y-11349007D01*
X15570448Y-11445565D01*
X15576281Y-11431517D01*
X15576319Y-11388671D01*
X15559957Y-11349072D01*
X15529687Y-11318750D01*
X15490117Y-11302319D01*
X15447271Y-11302281D01*
X15407672Y-11318643D01*
X15377350Y-11348913D01*
X15369715Y-11367300D01*
X15265959Y-11367300D01*
X15250163Y-11351476D01*
X15227126Y-11341911D01*
X15204300Y-11341891D01*
X15204300Y-11337169D01*
X15194633Y-11313830D01*
X15176770Y-11295967D01*
X15174141Y-11294878D01*
X15174141Y-11269800D01*
X15172190Y-11259433D01*
X15174141Y-11249800D01*
X15174141Y-11189800D01*
X15172190Y-11179433D01*
X15174141Y-11169800D01*
X15174141Y-11109800D01*
X15172190Y-11099433D01*
X15174141Y-11089800D01*
X15174141Y-11029800D01*
X15172190Y-11019433D01*
X15174141Y-11009800D01*
X15174141Y-10949800D01*
X15172190Y-10939433D01*
X15174141Y-10929800D01*
X15174141Y-10891128D01*
X15362206Y-11079193D01*
X15362206Y-11079194D01*
X15376059Y-11088450D01*
X15392400Y-11091700D01*
X15570199Y-11091700D01*
X15570200Y-11091700D01*
X15586541Y-11088450D01*
X15600393Y-11079194D01*
X15702187Y-10977400D01*
X15786914Y-10977400D01*
X15793701Y-10987947D01*
X15804629Y-10995414D01*
X15817600Y-10998041D01*
X15967600Y-10998041D01*
X15979718Y-10995761D01*
X15990847Y-10988599D01*
X15998314Y-10977671D01*
X16000941Y-10964700D01*
X16000941Y-10904700D01*
X15998832Y-10893495D01*
X16003570Y-10891533D01*
X16021433Y-10873670D01*
X16031100Y-10850331D01*
X16031100Y-10836275D01*
X16015225Y-10820400D01*
X15905300Y-10820400D01*
X15905300Y-10822400D01*
X15879900Y-10822400D01*
X15879900Y-10820400D01*
X15769975Y-10820400D01*
X15754100Y-10836275D01*
X15754100Y-10850331D01*
X15763767Y-10873670D01*
X15781630Y-10891533D01*
X15782758Y-10892000D01*
X15684500Y-10892000D01*
X15668159Y-10895250D01*
X15654306Y-10904507D01*
X15552513Y-11006300D01*
X15536597Y-11006300D01*
X15559850Y-10983087D01*
X15576281Y-10943517D01*
X15576319Y-10900671D01*
X15559957Y-10861073D01*
X15529687Y-10830750D01*
X15490117Y-10814319D01*
X15447271Y-10814281D01*
X15407672Y-10830643D01*
X15377350Y-10860913D01*
X15360919Y-10900483D01*
X15360881Y-10943329D01*
X15370574Y-10966787D01*
X15193993Y-10790207D01*
X15187196Y-10785664D01*
X15180425Y-10781070D01*
X15180271Y-10781038D01*
X15180141Y-10780950D01*
X15172177Y-10779366D01*
X15171860Y-10777682D01*
X15164699Y-10766553D01*
X15162527Y-10765069D01*
X15754100Y-10765069D01*
X15754100Y-10779125D01*
X15769975Y-10795000D01*
X15879900Y-10795000D01*
X15879900Y-10793000D01*
X15905300Y-10793000D01*
X15905300Y-10795000D01*
X16015225Y-10795000D01*
X16031100Y-10779125D01*
X16031100Y-10765069D01*
X16021433Y-10741730D01*
X16018103Y-10738400D01*
X16065499Y-10738400D01*
X16065500Y-10738400D01*
X16087581Y-10734008D01*
X16106300Y-10721500D01*
X16112492Y-10715308D01*
X16117997Y-10715313D01*
X16144727Y-10704268D01*
X16165196Y-10683835D01*
X16176287Y-10657124D01*
X16176313Y-10628203D01*
X16165268Y-10601473D01*
X16144835Y-10581004D01*
X16118124Y-10569913D01*
X16089202Y-10569887D01*
X16062472Y-10580932D01*
X16042004Y-10601365D01*
X16033020Y-10623000D01*
X15984982Y-10623000D01*
X15980571Y-10619986D01*
X15967600Y-10617359D01*
X15817600Y-10617359D01*
X15805482Y-10619640D01*
X15794353Y-10626801D01*
X15786886Y-10637729D01*
X15784259Y-10650700D01*
X15784259Y-10710700D01*
X15786368Y-10721905D01*
X15781630Y-10723867D01*
X15763767Y-10741730D01*
X15754100Y-10765069D01*
X15162527Y-10765069D01*
X15153771Y-10759086D01*
X15140800Y-10756459D01*
X15020800Y-10756459D01*
X15008682Y-10758740D01*
X14997553Y-10765901D01*
X14990086Y-10776829D01*
X14987459Y-10789800D01*
X14987459Y-10849800D01*
X14989410Y-10860167D01*
X14987459Y-10869800D01*
X14987459Y-10929800D01*
X14989410Y-10940167D01*
X14987459Y-10949800D01*
X14987459Y-11009800D01*
X14989410Y-11020167D01*
X14987459Y-11029800D01*
X14987459Y-11089800D01*
X14989410Y-11100167D01*
X14987459Y-11109800D01*
X14987459Y-11169800D01*
X14989410Y-11180167D01*
X14987459Y-11189800D01*
X14987459Y-11249800D01*
X14989410Y-11260167D01*
X14987459Y-11269800D01*
X14987459Y-11294878D01*
X14984830Y-11295967D01*
X14966967Y-11313830D01*
X14957300Y-11337169D01*
X14957300Y-11351225D01*
X14973175Y-11367100D01*
X15068100Y-11367100D01*
X15068100Y-11365100D01*
X15093500Y-11365100D01*
X15093500Y-11367100D01*
X15095500Y-11367100D01*
X15095500Y-11392500D01*
X15093500Y-11392500D01*
X15093500Y-11394500D01*
X15068100Y-11394500D01*
X15068100Y-11392500D01*
X15005258Y-11392500D01*
X15002341Y-11390550D01*
X14986000Y-11387300D01*
X14985999Y-11387300D01*
X14884400Y-11387300D01*
X14884400Y-11387300D01*
X14868059Y-11390550D01*
X14854206Y-11399806D01*
X14842408Y-11411605D01*
X14841770Y-11410967D01*
X14818431Y-11401300D01*
X14804375Y-11401300D01*
X14788500Y-11417175D01*
X14788500Y-11512100D01*
X14790500Y-11512100D01*
X14790500Y-11537500D01*
X14788500Y-11537500D01*
X14788500Y-11539500D01*
X14763100Y-11539500D01*
X14763100Y-11537500D01*
X14761100Y-11537500D01*
X14761100Y-11512100D01*
X14763100Y-11512100D01*
X14763100Y-11417175D01*
X14748500Y-11402575D01*
X14748500Y-11381299D01*
X14753887Y-11368324D01*
X14753913Y-11339402D01*
X14742868Y-11312672D01*
X14722435Y-11292204D01*
X14695724Y-11281113D01*
X14666802Y-11281087D01*
X14640072Y-11292132D01*
X14619604Y-11312565D01*
X14608513Y-11339276D01*
X14608487Y-11368197D01*
X14619532Y-11394927D01*
X14639965Y-11415396D01*
X14643100Y-11416698D01*
X14643100Y-11431459D01*
X14585800Y-11431459D01*
X14575433Y-11433410D01*
X14565800Y-11431459D01*
X14505800Y-11431459D01*
X14495433Y-11433410D01*
X14485800Y-11431459D01*
X14460722Y-11431459D01*
X14459633Y-11428830D01*
X14441770Y-11410967D01*
X14418431Y-11401300D01*
X14404375Y-11401300D01*
X14388500Y-11417175D01*
X14388500Y-11512100D01*
X14390500Y-11512100D01*
X14390500Y-11537500D01*
X14388500Y-11537500D01*
X14388500Y-11539500D01*
X14363100Y-11539500D01*
X14363100Y-11537500D01*
X14298175Y-11537500D01*
X14282300Y-11553375D01*
X14282300Y-11585906D01*
X14260402Y-11585887D01*
X14233672Y-11596932D01*
X14223487Y-11607100D01*
X14038200Y-11607100D01*
X14010800Y-11579700D01*
X14010202Y-11579300D01*
X14079000Y-11579300D01*
X14097254Y-11575669D01*
X14112729Y-11565329D01*
X14234917Y-11443141D01*
X14286040Y-11443141D01*
X14282300Y-11452169D01*
X14282300Y-11496225D01*
X14298175Y-11512100D01*
X14363100Y-11512100D01*
X14363100Y-11417175D01*
X14347225Y-11401300D01*
X14333169Y-11401300D01*
X14324141Y-11405040D01*
X14324141Y-11349800D01*
X14322190Y-11339433D01*
X14324141Y-11329800D01*
X14324141Y-11269800D01*
X14322190Y-11259433D01*
X14324141Y-11249800D01*
X14324141Y-11189800D01*
X14322190Y-11179433D01*
X14324141Y-11169800D01*
X14324141Y-11117500D01*
X14352899Y-11117500D01*
X14352900Y-11117500D01*
X14374981Y-11113108D01*
X14381122Y-11109004D01*
X14390797Y-11109013D01*
X14417527Y-11097968D01*
X14437996Y-11077535D01*
X14449087Y-11050824D01*
X14449113Y-11021903D01*
X14438068Y-10995173D01*
X14417635Y-10974704D01*
X14390924Y-10963613D01*
X14362002Y-10963587D01*
X14335272Y-10974632D01*
X14324141Y-10985745D01*
X14324141Y-10949800D01*
X14322190Y-10939433D01*
X14323618Y-10932383D01*
X14327193Y-10929994D01*
X14355793Y-10901394D01*
X14365050Y-10887541D01*
X14368300Y-10871200D01*
X14368300Y-10871200D01*
X14368300Y-10769600D01*
X14368010Y-10768141D01*
X14370878Y-10768141D01*
X14371967Y-10770770D01*
X14389830Y-10788633D01*
X14413169Y-10798300D01*
X14427225Y-10798300D01*
X14443100Y-10782425D01*
X14443100Y-10687500D01*
X14441100Y-10687500D01*
X14441100Y-10662100D01*
X14443100Y-10662100D01*
X14443100Y-10567175D01*
X14427225Y-10551300D01*
X14413169Y-10551300D01*
X14389830Y-10560967D01*
X14371967Y-10578830D01*
X14370878Y-10581459D01*
X14345800Y-10581459D01*
X14333682Y-10583740D01*
X14322553Y-10590901D01*
X14315086Y-10601829D01*
X14312459Y-10614800D01*
X14312459Y-10632100D01*
X14149756Y-10632100D01*
X14132563Y-10614877D01*
X14109526Y-10605311D01*
X14084583Y-10605289D01*
X14061530Y-10614815D01*
X14043876Y-10632437D01*
X14034311Y-10655474D01*
X14034289Y-10680417D01*
X14043000Y-10701500D01*
X14003066Y-10701500D01*
X14002021Y-10700786D01*
X13989050Y-10698159D01*
X13874750Y-10698159D01*
X13862632Y-10700440D01*
X13851503Y-10707601D01*
X13846994Y-10714200D01*
X13644481Y-10714200D01*
X13626926Y-10706911D01*
X13601983Y-10706889D01*
X13578930Y-10716415D01*
X13561276Y-10734037D01*
X13551711Y-10757074D01*
X13551689Y-10782017D01*
X13561214Y-10805070D01*
X13578837Y-10822724D01*
X13601873Y-10832289D01*
X13626817Y-10832311D01*
X13649870Y-10822786D01*
X13667523Y-10805163D01*
X13669833Y-10799600D01*
X13847024Y-10799600D01*
X13850851Y-10805547D01*
X13861779Y-10813014D01*
X13874750Y-10815641D01*
X13989050Y-10815641D01*
X14001168Y-10813361D01*
X14012297Y-10806199D01*
X14019764Y-10795271D01*
X14021459Y-10786900D01*
X14096857Y-10786900D01*
X14092806Y-10789607D01*
X14041213Y-10841200D01*
X14016776Y-10841200D01*
X14012949Y-10835253D01*
X14002021Y-10827786D01*
X13989050Y-10825159D01*
X13874750Y-10825159D01*
X13862632Y-10827440D01*
X13851503Y-10834601D01*
X13844036Y-10845529D01*
X13841409Y-10858500D01*
X13841409Y-10909300D01*
X13843689Y-10921418D01*
X13850851Y-10932547D01*
X13861779Y-10940014D01*
X13874750Y-10942641D01*
X13989050Y-10942641D01*
X14001168Y-10940361D01*
X14012297Y-10933199D01*
X14016806Y-10926600D01*
X14029132Y-10926600D01*
X14018476Y-10937237D01*
X14009163Y-10959666D01*
X14002021Y-10954786D01*
X13989050Y-10952159D01*
X13874750Y-10952159D01*
X13862632Y-10954440D01*
X13851503Y-10961601D01*
X13844036Y-10972529D01*
X13841409Y-10985500D01*
X13841409Y-11036300D01*
X13843689Y-11048418D01*
X13850851Y-11059547D01*
X13861779Y-11067014D01*
X13874750Y-11069641D01*
X13989050Y-11069641D01*
X14001168Y-11067361D01*
X14012297Y-11060199D01*
X14016806Y-11053600D01*
X14033499Y-11053600D01*
X14033500Y-11053600D01*
X14049841Y-11050350D01*
X14063693Y-11041094D01*
X14069289Y-11035498D01*
X14084017Y-11035511D01*
X14107070Y-11025986D01*
X14124723Y-11008363D01*
X14134289Y-10985327D01*
X14134311Y-10960383D01*
X14124785Y-10937330D01*
X14107163Y-10919677D01*
X14090450Y-10912737D01*
X14138493Y-10864694D01*
X14137459Y-10869800D01*
X14137459Y-10929800D01*
X14139410Y-10940167D01*
X14137459Y-10949800D01*
X14137459Y-11009800D01*
X14139410Y-11020167D01*
X14137459Y-11029800D01*
X14137459Y-11089800D01*
X14137892Y-11092100D01*
X14057000Y-11092100D01*
X14038746Y-11095731D01*
X14023271Y-11106071D01*
X14013742Y-11115600D01*
X13906133Y-11115600D01*
X13904360Y-11106182D01*
X13897199Y-11095053D01*
X13886271Y-11087586D01*
X13873300Y-11084959D01*
X13753300Y-11084959D01*
X13741182Y-11087240D01*
X13730053Y-11094401D01*
X13722586Y-11105329D01*
X13719959Y-11118300D01*
X13719959Y-11208300D01*
X13722239Y-11220418D01*
X13729401Y-11231547D01*
X13732025Y-11233340D01*
X13726182Y-11234439D01*
X13724590Y-11235464D01*
X13722133Y-11229530D01*
X13704270Y-11211667D01*
X13686641Y-11204365D01*
X13686641Y-11118300D01*
X13684360Y-11106182D01*
X13677199Y-11095053D01*
X13666271Y-11087586D01*
X13653300Y-11084959D01*
X13533300Y-11084959D01*
X13521182Y-11087240D01*
X13510053Y-11094401D01*
X13509304Y-11095497D01*
X13509313Y-11085403D01*
X13498268Y-11058673D01*
X13477835Y-11038204D01*
X13451124Y-11027113D01*
X13445508Y-11027108D01*
X13388500Y-10970100D01*
X13378849Y-10963651D01*
X13377949Y-10962253D01*
X13367021Y-10954786D01*
X13354050Y-10952159D01*
X13239750Y-10952159D01*
X13227632Y-10954440D01*
X13216503Y-10961601D01*
X13209036Y-10972529D01*
X13206409Y-10985500D01*
X13206409Y-11036300D01*
X13208689Y-11048418D01*
X13215851Y-11059547D01*
X13226779Y-11067014D01*
X13239750Y-11069641D01*
X13324840Y-11069641D01*
X13363892Y-11108692D01*
X13363887Y-11114198D01*
X13374932Y-11140928D01*
X13395365Y-11161396D01*
X13407416Y-11166400D01*
X13170041Y-11166400D01*
X13170041Y-11118300D01*
X13167760Y-11106182D01*
X13160599Y-11095053D01*
X13149671Y-11087586D01*
X13136700Y-11084959D01*
X13016700Y-11084959D01*
X13004582Y-11087240D01*
X12993453Y-11094401D01*
X12985986Y-11105329D01*
X12983359Y-11118300D01*
X12983359Y-11208300D01*
X12985639Y-11220418D01*
X12992801Y-11231547D01*
X13003729Y-11239014D01*
X13016700Y-11241641D01*
X13104583Y-11241641D01*
X13113001Y-11250059D01*
X13016700Y-11250059D01*
X13004582Y-11252339D01*
X12993453Y-11259501D01*
X12985986Y-11270429D01*
X12983359Y-11283400D01*
X12983359Y-11373400D01*
X12985639Y-11385518D01*
X12992801Y-11396647D01*
X13003729Y-11404114D01*
X13016700Y-11406741D01*
X13136700Y-11406741D01*
X13148818Y-11404460D01*
X13159152Y-11397810D01*
X13309153Y-11547811D01*
X13282502Y-11547787D01*
X13255772Y-11558832D01*
X13251798Y-11562800D01*
X13028700Y-11562800D01*
X12937900Y-11472000D01*
X12919181Y-11459492D01*
X12910541Y-11457773D01*
X12910541Y-11452800D01*
X12908260Y-11440682D01*
X12901099Y-11429553D01*
X12890171Y-11422086D01*
X12877200Y-11419459D01*
X12802200Y-11419459D01*
X12790082Y-11421739D01*
X12778953Y-11428901D01*
X12771486Y-11439829D01*
X12768859Y-11452800D01*
X12768859Y-11455100D01*
X12747430Y-11455100D01*
X12746260Y-11448882D01*
X12739099Y-11437753D01*
X12728171Y-11430286D01*
X12715200Y-11427659D01*
X12570377Y-11427659D01*
X12570423Y-11374341D01*
X12673755Y-11374341D01*
X12682600Y-11376100D01*
X12763867Y-11376100D01*
X12765639Y-11385518D01*
X12772801Y-11396647D01*
X12783729Y-11404114D01*
X12796700Y-11406741D01*
X12916700Y-11406741D01*
X12928818Y-11404460D01*
X12939947Y-11397299D01*
X12947414Y-11386371D01*
X12950041Y-11373400D01*
X12950041Y-11283400D01*
X12947760Y-11271282D01*
X12940599Y-11260153D01*
X12929671Y-11252686D01*
X12916700Y-11250059D01*
X12796700Y-11250059D01*
X12784582Y-11252339D01*
X12773453Y-11259501D01*
X12765986Y-11270429D01*
X12763906Y-11280700D01*
X12748541Y-11280700D01*
X12748541Y-11211000D01*
X12746260Y-11198882D01*
X12739099Y-11187753D01*
X12728171Y-11180286D01*
X12715200Y-11177659D01*
X12545200Y-11177659D01*
X12533082Y-11179940D01*
X12521953Y-11187101D01*
X12514486Y-11198029D01*
X12511859Y-11211000D01*
X12511859Y-11269876D01*
X12494572Y-11252559D01*
X12430202Y-11225830D01*
X12360503Y-11225770D01*
X12296087Y-11252386D01*
X12246759Y-11301628D01*
X12220200Y-11365589D01*
X12220200Y-10986254D01*
X12246586Y-11050113D01*
X12295828Y-11099441D01*
X12360198Y-11126170D01*
X12429896Y-11126230D01*
X12494313Y-11099614D01*
X12511859Y-11082098D01*
X12511859Y-11141000D01*
X12514139Y-11153118D01*
X12521301Y-11164247D01*
X12532229Y-11171714D01*
X12545200Y-11174341D01*
X12715200Y-11174341D01*
X12727318Y-11172061D01*
X12738447Y-11164899D01*
X12745914Y-11153971D01*
X12748541Y-11141000D01*
X12748541Y-11123700D01*
X12749642Y-11123700D01*
X12763359Y-11137417D01*
X12763359Y-11208300D01*
X12765639Y-11220418D01*
X12772801Y-11231547D01*
X12783729Y-11239014D01*
X12796700Y-11241641D01*
X12916700Y-11241641D01*
X12928818Y-11239360D01*
X12939947Y-11232199D01*
X12947414Y-11221271D01*
X12950041Y-11208300D01*
X12950041Y-11118300D01*
X12947760Y-11106182D01*
X12940599Y-11095053D01*
X12929671Y-11087586D01*
X12916700Y-11084959D01*
X12845817Y-11084959D01*
X12803129Y-11042271D01*
X12787654Y-11031931D01*
X12769400Y-11028300D01*
X12748541Y-11028300D01*
X12748541Y-11011000D01*
X12746260Y-10998882D01*
X12739099Y-10987753D01*
X12728171Y-10980286D01*
X12715200Y-10977659D01*
X12570377Y-10977659D01*
X12570397Y-10954500D01*
X12601625Y-10954500D01*
X12617500Y-10938625D01*
X12617500Y-10838700D01*
X12642900Y-10838700D01*
X12642900Y-10938625D01*
X12658775Y-10954500D01*
X12727831Y-10954500D01*
X12751170Y-10944833D01*
X12769033Y-10926970D01*
X12778700Y-10903631D01*
X12778700Y-10858500D01*
X13206409Y-10858500D01*
X13206409Y-10909300D01*
X13208689Y-10921418D01*
X13215851Y-10932547D01*
X13226779Y-10940014D01*
X13239750Y-10942641D01*
X13354050Y-10942641D01*
X13366168Y-10940361D01*
X13377297Y-10933199D01*
X13384764Y-10922271D01*
X13387391Y-10909300D01*
X13387391Y-10858500D01*
X13385110Y-10846382D01*
X13377949Y-10835253D01*
X13367021Y-10827786D01*
X13354050Y-10825159D01*
X13239750Y-10825159D01*
X13227632Y-10827440D01*
X13216503Y-10834601D01*
X13209036Y-10845529D01*
X13206409Y-10858500D01*
X12778700Y-10858500D01*
X12778700Y-10854575D01*
X12762825Y-10838700D01*
X12642900Y-10838700D01*
X12617500Y-10838700D01*
X12615500Y-10838700D01*
X12615500Y-10813300D01*
X12617500Y-10813300D01*
X12617500Y-10713375D01*
X12642900Y-10713375D01*
X12642900Y-10813300D01*
X12762825Y-10813300D01*
X12778700Y-10797425D01*
X12778700Y-10748369D01*
X12769033Y-10725030D01*
X12751170Y-10707167D01*
X12727831Y-10697500D01*
X12658775Y-10697500D01*
X12642900Y-10713375D01*
X12617500Y-10713375D01*
X12601625Y-10697500D01*
X12532569Y-10697500D01*
X12509230Y-10707167D01*
X12491367Y-10725030D01*
X12481700Y-10748369D01*
X12481700Y-10797214D01*
X12430202Y-10775831D01*
X12360503Y-10775770D01*
X12296087Y-10802386D01*
X12246759Y-10851628D01*
X12220200Y-10915590D01*
X12220200Y-10658475D01*
X13176250Y-10658475D01*
X13176250Y-10667931D01*
X13185917Y-10691270D01*
X13203780Y-10709133D01*
X13212880Y-10712902D01*
X13209036Y-10718529D01*
X13206409Y-10731500D01*
X13206409Y-10782300D01*
X13208689Y-10794418D01*
X13215851Y-10805547D01*
X13226779Y-10813014D01*
X13239750Y-10815641D01*
X13354050Y-10815641D01*
X13366168Y-10813361D01*
X13377297Y-10806199D01*
X13384764Y-10795271D01*
X13387391Y-10782300D01*
X13387391Y-10731500D01*
X13385110Y-10719382D01*
X13380936Y-10712895D01*
X13390020Y-10709133D01*
X13407883Y-10691270D01*
X13417550Y-10667931D01*
X13417550Y-10658475D01*
X13401675Y-10642600D01*
X13309600Y-10642600D01*
X13309600Y-10644600D01*
X13284200Y-10644600D01*
X13284200Y-10642600D01*
X13192125Y-10642600D01*
X13176250Y-10658475D01*
X12220200Y-10658475D01*
X12220200Y-10591869D01*
X13176250Y-10591869D01*
X13176250Y-10601325D01*
X13192125Y-10617200D01*
X13284200Y-10617200D01*
X13284200Y-10556875D01*
X13309600Y-10556875D01*
X13309600Y-10617200D01*
X13401675Y-10617200D01*
X13417550Y-10601325D01*
X13417550Y-10591869D01*
X13407883Y-10568530D01*
X13390020Y-10550667D01*
X13366681Y-10541000D01*
X13325475Y-10541000D01*
X13309600Y-10556875D01*
X13284200Y-10556875D01*
X13268325Y-10541000D01*
X13227119Y-10541000D01*
X13203780Y-10550667D01*
X13185917Y-10568530D01*
X13176250Y-10591869D01*
X12220200Y-10591869D01*
X12220200Y-10540200D01*
X13577341Y-10540200D01*
X13561276Y-10556237D01*
G36*
X13484800Y-11274425D02*
X13500675Y-11290300D01*
X13595600Y-11290300D01*
X13595600Y-11288300D01*
X13621000Y-11288300D01*
X13621000Y-11290300D01*
X13623000Y-11290300D01*
X13623000Y-11315700D01*
X13621000Y-11315700D01*
X13621000Y-11317700D01*
X13595600Y-11317700D01*
X13595600Y-11315700D01*
X13500675Y-11315700D01*
X13484800Y-11331575D01*
X13484800Y-11353131D01*
X13494467Y-11376470D01*
X13512330Y-11394333D01*
X13513941Y-11395000D01*
X13392858Y-11395000D01*
X13259658Y-11261800D01*
X13484800Y-11261800D01*
X13484800Y-11274425D01*
X13484800Y-11274425D01*
G37*
X13484800Y-11274425D02*
X13500675Y-11290300D01*
X13595600Y-11290300D01*
X13595600Y-11288300D01*
X13621000Y-11288300D01*
X13621000Y-11290300D01*
X13623000Y-11290300D01*
X13623000Y-11315700D01*
X13621000Y-11315700D01*
X13621000Y-11317700D01*
X13595600Y-11317700D01*
X13595600Y-11315700D01*
X13500675Y-11315700D01*
X13484800Y-11331575D01*
X13484800Y-11353131D01*
X13494467Y-11376470D01*
X13512330Y-11394333D01*
X13513941Y-11395000D01*
X13392858Y-11395000D01*
X13259658Y-11261800D01*
X13484800Y-11261800D01*
X13484800Y-11274425D01*
G36*
X17679800Y-11799800D02*
X16649700Y-11799800D01*
X16649700Y-11598275D01*
X16684100Y-11598275D01*
X16684100Y-11612331D01*
X16693767Y-11635670D01*
X16711630Y-11653533D01*
X16734969Y-11663200D01*
X16794025Y-11663200D01*
X16809900Y-11647325D01*
X16809900Y-11582400D01*
X16835300Y-11582400D01*
X16835300Y-11647325D01*
X16851175Y-11663200D01*
X16910231Y-11663200D01*
X16933570Y-11653533D01*
X16951433Y-11635670D01*
X16961100Y-11612331D01*
X16961100Y-11598275D01*
X16945225Y-11582400D01*
X16835300Y-11582400D01*
X16809900Y-11582400D01*
X16699975Y-11582400D01*
X16684100Y-11598275D01*
X16649700Y-11598275D01*
X16649700Y-11527069D01*
X16684100Y-11527069D01*
X16684100Y-11541125D01*
X16699975Y-11557000D01*
X16809900Y-11557000D01*
X16809900Y-11555000D01*
X16835300Y-11555000D01*
X16835300Y-11557000D01*
X16945225Y-11557000D01*
X16961100Y-11541125D01*
X16961100Y-11527069D01*
X16951433Y-11503730D01*
X16933570Y-11485867D01*
X16928684Y-11483843D01*
X16930941Y-11472700D01*
X16930941Y-11444628D01*
X16996083Y-11444628D01*
X17010986Y-11480697D01*
X17038558Y-11508317D01*
X17074601Y-11523283D01*
X17113628Y-11523317D01*
X17149697Y-11508414D01*
X17177317Y-11480842D01*
X17192283Y-11444799D01*
X17192317Y-11405772D01*
X17177414Y-11369703D01*
X17149842Y-11342083D01*
X17113799Y-11327117D01*
X17074772Y-11327083D01*
X17038703Y-11341986D01*
X17011083Y-11369558D01*
X16996117Y-11405601D01*
X16996083Y-11444628D01*
X16930941Y-11444628D01*
X16930941Y-11412700D01*
X16928661Y-11400582D01*
X16921499Y-11389453D01*
X16910571Y-11381986D01*
X16897600Y-11379359D01*
X16747600Y-11379359D01*
X16735482Y-11381639D01*
X16724353Y-11388801D01*
X16716886Y-11399729D01*
X16714259Y-11412700D01*
X16714259Y-11472700D01*
X16716368Y-11483905D01*
X16711630Y-11485867D01*
X16693767Y-11503730D01*
X16684100Y-11527069D01*
X16649700Y-11527069D01*
X16649700Y-11285700D01*
X16714259Y-11285700D01*
X16714259Y-11345700D01*
X16716539Y-11357818D01*
X16723701Y-11368947D01*
X16734629Y-11376414D01*
X16747600Y-11379041D01*
X16897600Y-11379041D01*
X16909718Y-11376760D01*
X16920847Y-11369599D01*
X16928314Y-11358671D01*
X16930941Y-11345700D01*
X16930941Y-11285700D01*
X16928661Y-11273582D01*
X16921499Y-11262453D01*
X16910571Y-11254986D01*
X16897600Y-11252359D01*
X16747600Y-11252359D01*
X16735482Y-11254639D01*
X16724353Y-11261801D01*
X16716886Y-11272729D01*
X16714259Y-11285700D01*
X16649700Y-11285700D01*
X16649700Y-11158700D01*
X16714259Y-11158700D01*
X16714259Y-11218700D01*
X16716539Y-11230818D01*
X16723701Y-11241947D01*
X16734629Y-11249414D01*
X16747600Y-11252041D01*
X16897600Y-11252041D01*
X16909718Y-11249760D01*
X16920847Y-11242599D01*
X16925083Y-11236400D01*
X16996090Y-11236400D01*
X16996083Y-11244628D01*
X17010986Y-11280697D01*
X17038558Y-11308317D01*
X17074601Y-11323283D01*
X17113628Y-11323317D01*
X17149697Y-11308414D01*
X17177317Y-11280842D01*
X17192283Y-11244799D01*
X17192317Y-11205772D01*
X17177414Y-11169703D01*
X17149842Y-11142083D01*
X17113799Y-11127117D01*
X17074772Y-11127083D01*
X17041091Y-11141000D01*
X16925069Y-11141000D01*
X16921499Y-11135453D01*
X16910571Y-11127986D01*
X16897600Y-11125359D01*
X16747600Y-11125359D01*
X16735482Y-11127640D01*
X16724353Y-11134801D01*
X16716886Y-11145729D01*
X16714259Y-11158700D01*
X16649700Y-11158700D01*
X16649700Y-11031700D01*
X16714259Y-11031700D01*
X16714259Y-11091700D01*
X16716539Y-11103818D01*
X16723701Y-11114947D01*
X16734629Y-11122414D01*
X16747600Y-11125041D01*
X16897600Y-11125041D01*
X16909718Y-11122761D01*
X16920847Y-11115599D01*
X16925083Y-11109400D01*
X17041167Y-11109400D01*
X17074601Y-11123283D01*
X17113628Y-11123317D01*
X17149697Y-11108414D01*
X17177317Y-11080842D01*
X17192283Y-11044799D01*
X17192317Y-11005772D01*
X17177414Y-10969703D01*
X17150515Y-10942758D01*
X17160814Y-10938493D01*
X17166431Y-10915392D01*
X17094200Y-10843161D01*
X17021969Y-10915392D01*
X17027586Y-10938493D01*
X17038422Y-10942267D01*
X17011083Y-10969558D01*
X16996117Y-11005601D01*
X16996110Y-11014000D01*
X16925069Y-11014000D01*
X16921499Y-11008453D01*
X16910571Y-11000986D01*
X16897600Y-10998359D01*
X16747600Y-10998359D01*
X16735482Y-11000640D01*
X16724353Y-11007801D01*
X16716886Y-11018729D01*
X16714259Y-11031700D01*
X16649700Y-11031700D01*
X16649700Y-10836275D01*
X16684100Y-10836275D01*
X16684100Y-10850331D01*
X16693767Y-10873670D01*
X16711630Y-10891533D01*
X16716516Y-10893557D01*
X16714259Y-10904700D01*
X16714259Y-10964700D01*
X16716539Y-10976818D01*
X16723701Y-10987947D01*
X16734629Y-10995414D01*
X16747600Y-10998041D01*
X16897600Y-10998041D01*
X16909718Y-10995761D01*
X16920847Y-10988599D01*
X16928314Y-10977671D01*
X16930941Y-10964700D01*
X16930941Y-10904700D01*
X16928832Y-10893495D01*
X16933570Y-10891533D01*
X16951433Y-10873670D01*
X16961100Y-10850331D01*
X16961100Y-10836275D01*
X16945225Y-10820400D01*
X16835300Y-10820400D01*
X16835300Y-10822400D01*
X16809900Y-10822400D01*
X16809900Y-10820400D01*
X16699975Y-10820400D01*
X16684100Y-10836275D01*
X16649700Y-10836275D01*
X16649700Y-10765069D01*
X16684100Y-10765069D01*
X16684100Y-10779125D01*
X16699975Y-10795000D01*
X16809900Y-10795000D01*
X16809900Y-10793000D01*
X16835300Y-10793000D01*
X16835300Y-10795000D01*
X16945225Y-10795000D01*
X16961100Y-10779125D01*
X16961100Y-10765069D01*
X16951433Y-10741730D01*
X16948103Y-10738400D01*
X16995488Y-10738400D01*
X16992464Y-10741425D01*
X17004008Y-10752969D01*
X16980907Y-10758586D01*
X16964039Y-10807012D01*
X16966987Y-10858207D01*
X16980907Y-10891814D01*
X17004008Y-10897431D01*
X17076240Y-10825200D01*
X17074825Y-10823786D01*
X17092786Y-10805825D01*
X17094200Y-10807240D01*
X17095614Y-10805825D01*
X17113575Y-10823786D01*
X17112161Y-10825200D01*
X17184392Y-10897431D01*
X17207493Y-10891814D01*
X17224361Y-10843388D01*
X17221413Y-10792193D01*
X17210550Y-10765967D01*
X17236928Y-10755068D01*
X17257396Y-10734635D01*
X17268487Y-10707924D01*
X17268513Y-10679003D01*
X17257468Y-10652273D01*
X17237035Y-10631804D01*
X17210324Y-10620713D01*
X17181403Y-10620687D01*
X17175806Y-10623000D01*
X16914982Y-10623000D01*
X16910571Y-10619986D01*
X16897600Y-10617359D01*
X16747600Y-10617359D01*
X16735482Y-10619640D01*
X16724353Y-10626801D01*
X16716886Y-10637729D01*
X16714259Y-10650700D01*
X16714259Y-10710700D01*
X16716368Y-10721905D01*
X16711630Y-10723867D01*
X16693767Y-10741730D01*
X16684100Y-10765069D01*
X16649700Y-10765069D01*
X16649700Y-10540200D01*
X17679800Y-10540200D01*
X17679800Y-11799800D01*
X17679800Y-11799800D01*
G37*
X17679800Y-11799800D02*
X16649700Y-11799800D01*
X16649700Y-11598275D01*
X16684100Y-11598275D01*
X16684100Y-11612331D01*
X16693767Y-11635670D01*
X16711630Y-11653533D01*
X16734969Y-11663200D01*
X16794025Y-11663200D01*
X16809900Y-11647325D01*
X16809900Y-11582400D01*
X16835300Y-11582400D01*
X16835300Y-11647325D01*
X16851175Y-11663200D01*
X16910231Y-11663200D01*
X16933570Y-11653533D01*
X16951433Y-11635670D01*
X16961100Y-11612331D01*
X16961100Y-11598275D01*
X16945225Y-11582400D01*
X16835300Y-11582400D01*
X16809900Y-11582400D01*
X16699975Y-11582400D01*
X16684100Y-11598275D01*
X16649700Y-11598275D01*
X16649700Y-11527069D01*
X16684100Y-11527069D01*
X16684100Y-11541125D01*
X16699975Y-11557000D01*
X16809900Y-11557000D01*
X16809900Y-11555000D01*
X16835300Y-11555000D01*
X16835300Y-11557000D01*
X16945225Y-11557000D01*
X16961100Y-11541125D01*
X16961100Y-11527069D01*
X16951433Y-11503730D01*
X16933570Y-11485867D01*
X16928684Y-11483843D01*
X16930941Y-11472700D01*
X16930941Y-11444628D01*
X16996083Y-11444628D01*
X17010986Y-11480697D01*
X17038558Y-11508317D01*
X17074601Y-11523283D01*
X17113628Y-11523317D01*
X17149697Y-11508414D01*
X17177317Y-11480842D01*
X17192283Y-11444799D01*
X17192317Y-11405772D01*
X17177414Y-11369703D01*
X17149842Y-11342083D01*
X17113799Y-11327117D01*
X17074772Y-11327083D01*
X17038703Y-11341986D01*
X17011083Y-11369558D01*
X16996117Y-11405601D01*
X16996083Y-11444628D01*
X16930941Y-11444628D01*
X16930941Y-11412700D01*
X16928661Y-11400582D01*
X16921499Y-11389453D01*
X16910571Y-11381986D01*
X16897600Y-11379359D01*
X16747600Y-11379359D01*
X16735482Y-11381639D01*
X16724353Y-11388801D01*
X16716886Y-11399729D01*
X16714259Y-11412700D01*
X16714259Y-11472700D01*
X16716368Y-11483905D01*
X16711630Y-11485867D01*
X16693767Y-11503730D01*
X16684100Y-11527069D01*
X16649700Y-11527069D01*
X16649700Y-11285700D01*
X16714259Y-11285700D01*
X16714259Y-11345700D01*
X16716539Y-11357818D01*
X16723701Y-11368947D01*
X16734629Y-11376414D01*
X16747600Y-11379041D01*
X16897600Y-11379041D01*
X16909718Y-11376760D01*
X16920847Y-11369599D01*
X16928314Y-11358671D01*
X16930941Y-11345700D01*
X16930941Y-11285700D01*
X16928661Y-11273582D01*
X16921499Y-11262453D01*
X16910571Y-11254986D01*
X16897600Y-11252359D01*
X16747600Y-11252359D01*
X16735482Y-11254639D01*
X16724353Y-11261801D01*
X16716886Y-11272729D01*
X16714259Y-11285700D01*
X16649700Y-11285700D01*
X16649700Y-11158700D01*
X16714259Y-11158700D01*
X16714259Y-11218700D01*
X16716539Y-11230818D01*
X16723701Y-11241947D01*
X16734629Y-11249414D01*
X16747600Y-11252041D01*
X16897600Y-11252041D01*
X16909718Y-11249760D01*
X16920847Y-11242599D01*
X16925083Y-11236400D01*
X16996090Y-11236400D01*
X16996083Y-11244628D01*
X17010986Y-11280697D01*
X17038558Y-11308317D01*
X17074601Y-11323283D01*
X17113628Y-11323317D01*
X17149697Y-11308414D01*
X17177317Y-11280842D01*
X17192283Y-11244799D01*
X17192317Y-11205772D01*
X17177414Y-11169703D01*
X17149842Y-11142083D01*
X17113799Y-11127117D01*
X17074772Y-11127083D01*
X17041091Y-11141000D01*
X16925069Y-11141000D01*
X16921499Y-11135453D01*
X16910571Y-11127986D01*
X16897600Y-11125359D01*
X16747600Y-11125359D01*
X16735482Y-11127640D01*
X16724353Y-11134801D01*
X16716886Y-11145729D01*
X16714259Y-11158700D01*
X16649700Y-11158700D01*
X16649700Y-11031700D01*
X16714259Y-11031700D01*
X16714259Y-11091700D01*
X16716539Y-11103818D01*
X16723701Y-11114947D01*
X16734629Y-11122414D01*
X16747600Y-11125041D01*
X16897600Y-11125041D01*
X16909718Y-11122761D01*
X16920847Y-11115599D01*
X16925083Y-11109400D01*
X17041167Y-11109400D01*
X17074601Y-11123283D01*
X17113628Y-11123317D01*
X17149697Y-11108414D01*
X17177317Y-11080842D01*
X17192283Y-11044799D01*
X17192317Y-11005772D01*
X17177414Y-10969703D01*
X17150515Y-10942758D01*
X17160814Y-10938493D01*
X17166431Y-10915392D01*
X17094200Y-10843161D01*
X17021969Y-10915392D01*
X17027586Y-10938493D01*
X17038422Y-10942267D01*
X17011083Y-10969558D01*
X16996117Y-11005601D01*
X16996110Y-11014000D01*
X16925069Y-11014000D01*
X16921499Y-11008453D01*
X16910571Y-11000986D01*
X16897600Y-10998359D01*
X16747600Y-10998359D01*
X16735482Y-11000640D01*
X16724353Y-11007801D01*
X16716886Y-11018729D01*
X16714259Y-11031700D01*
X16649700Y-11031700D01*
X16649700Y-10836275D01*
X16684100Y-10836275D01*
X16684100Y-10850331D01*
X16693767Y-10873670D01*
X16711630Y-10891533D01*
X16716516Y-10893557D01*
X16714259Y-10904700D01*
X16714259Y-10964700D01*
X16716539Y-10976818D01*
X16723701Y-10987947D01*
X16734629Y-10995414D01*
X16747600Y-10998041D01*
X16897600Y-10998041D01*
X16909718Y-10995761D01*
X16920847Y-10988599D01*
X16928314Y-10977671D01*
X16930941Y-10964700D01*
X16930941Y-10904700D01*
X16928832Y-10893495D01*
X16933570Y-10891533D01*
X16951433Y-10873670D01*
X16961100Y-10850331D01*
X16961100Y-10836275D01*
X16945225Y-10820400D01*
X16835300Y-10820400D01*
X16835300Y-10822400D01*
X16809900Y-10822400D01*
X16809900Y-10820400D01*
X16699975Y-10820400D01*
X16684100Y-10836275D01*
X16649700Y-10836275D01*
X16649700Y-10765069D01*
X16684100Y-10765069D01*
X16684100Y-10779125D01*
X16699975Y-10795000D01*
X16809900Y-10795000D01*
X16809900Y-10793000D01*
X16835300Y-10793000D01*
X16835300Y-10795000D01*
X16945225Y-10795000D01*
X16961100Y-10779125D01*
X16961100Y-10765069D01*
X16951433Y-10741730D01*
X16948103Y-10738400D01*
X16995488Y-10738400D01*
X16992464Y-10741425D01*
X17004008Y-10752969D01*
X16980907Y-10758586D01*
X16964039Y-10807012D01*
X16966987Y-10858207D01*
X16980907Y-10891814D01*
X17004008Y-10897431D01*
X17076240Y-10825200D01*
X17074825Y-10823786D01*
X17092786Y-10805825D01*
X17094200Y-10807240D01*
X17095614Y-10805825D01*
X17113575Y-10823786D01*
X17112161Y-10825200D01*
X17184392Y-10897431D01*
X17207493Y-10891814D01*
X17224361Y-10843388D01*
X17221413Y-10792193D01*
X17210550Y-10765967D01*
X17236928Y-10755068D01*
X17257396Y-10734635D01*
X17268487Y-10707924D01*
X17268513Y-10679003D01*
X17257468Y-10652273D01*
X17237035Y-10631804D01*
X17210324Y-10620713D01*
X17181403Y-10620687D01*
X17175806Y-10623000D01*
X16914982Y-10623000D01*
X16910571Y-10619986D01*
X16897600Y-10617359D01*
X16747600Y-10617359D01*
X16735482Y-10619640D01*
X16724353Y-10626801D01*
X16716886Y-10637729D01*
X16714259Y-10650700D01*
X16714259Y-10710700D01*
X16716368Y-10721905D01*
X16711630Y-10723867D01*
X16693767Y-10741730D01*
X16684100Y-10765069D01*
X16649700Y-10765069D01*
X16649700Y-10540200D01*
X17679800Y-10540200D01*
X17679800Y-11799800D01*
M02*
