G04 #@! TF.FileFunction,Copper,L2,Bot,Signal*
%FSLAX45Y45*%
G04 Gerber Fmt 4.5, Leading zero omitted, Abs format (unit mm)*
G04 Created by KiCad (PCBNEW 4.0.7) date Mon Dec 11 19:35:25 2017*
%MOMM*%
%LPD*%
G01*
G04 APERTURE LIST*
%ADD10C,0.100000*%
%ADD11R,1.200000X0.750000*%
%ADD12R,1.200000X0.900000*%
%ADD13C,2.850000*%
%ADD14C,1.308000*%
%ADD15R,0.400000X0.700000*%
%ADD16C,1.500000*%
%ADD17R,0.900000X1.200000*%
%ADD18C,0.800000*%
%ADD19C,0.600000*%
%ADD20C,0.400000*%
%ADD21C,0.200000*%
%ADD22C,0.500000*%
%ADD23C,0.300000*%
%ADD24C,0.254000*%
G04 APERTURE END LIST*
D10*
D11*
X14331700Y-11150600D03*
X14141700Y-11150600D03*
X14700000Y-11455400D03*
X14510000Y-11455400D03*
X13290300Y-11176000D03*
X13100300Y-11176000D03*
X14585700Y-10922000D03*
X14395700Y-10922000D03*
X14776700Y-10922000D03*
X14966700Y-10922000D03*
X15487400Y-10769600D03*
X15297400Y-10769600D03*
X15487400Y-11252200D03*
X15297400Y-11252200D03*
X16110200Y-10744200D03*
X16300200Y-10744200D03*
D12*
X14571200Y-11074400D03*
X14791200Y-11074400D03*
X13504400Y-10668000D03*
X13724400Y-10668000D03*
X13504400Y-10845800D03*
X13724400Y-10845800D03*
D13*
X12395200Y-11401000D03*
X12395200Y-10951000D03*
D14*
X17094200Y-11425200D03*
X17094200Y-11225200D03*
X17094200Y-11025200D03*
X17094200Y-10825200D03*
D15*
X16524200Y-11423400D03*
X16459200Y-11423400D03*
X16394200Y-11423400D03*
X16394200Y-11233400D03*
X16524200Y-11233400D03*
D16*
X15468600Y-10922000D03*
X15468600Y-11410000D03*
D11*
X16503400Y-11074400D03*
X16313400Y-11074400D03*
X17278600Y-11125200D03*
X17468600Y-11125200D03*
D17*
X16916400Y-11235200D03*
X16916400Y-11015200D03*
D18*
X14681200Y-11353800D03*
X16110200Y-10972800D03*
X16484600Y-10972800D03*
X16103600Y-11658600D03*
X16110200Y-11455400D03*
X16103600Y-10642600D03*
X14808200Y-10807700D03*
X14782800Y-11664800D03*
X14376400Y-11036300D03*
X14274800Y-11658600D03*
X13436600Y-11099800D03*
X13296900Y-11620500D03*
X14960600Y-11353800D03*
X16300200Y-11557000D03*
X16230600Y-10642600D03*
X16281400Y-11760200D03*
X15290800Y-11760200D03*
X14503400Y-11760200D03*
X14401800Y-11379200D03*
X14439900Y-10807700D03*
X14960600Y-11760200D03*
X14135100Y-11760200D03*
X13449300Y-11709400D03*
X13462000Y-11303000D03*
X13131800Y-10642600D03*
X13144500Y-11709400D03*
D19*
X13614400Y-10591800D03*
X13614400Y-10769600D03*
X14097000Y-10668000D03*
X14071600Y-10972800D03*
X16459200Y-11328400D03*
X16459200Y-11531600D03*
X15722600Y-11176000D03*
X15671800Y-11506200D03*
X15646400Y-11252200D03*
X15595600Y-10693400D03*
X16408400Y-11150600D03*
D18*
X14566900Y-10820400D03*
D19*
X15443200Y-10566400D03*
X14706600Y-10566400D03*
X15214600Y-11404600D03*
D18*
X17195800Y-10693400D03*
X17449800Y-10871200D03*
D20*
X14700000Y-11372600D02*
X14700000Y-11455400D01*
X14681200Y-11353800D02*
X14700000Y-11372600D01*
D21*
X13504400Y-10668000D02*
X13436600Y-10668000D01*
X13385800Y-11049000D02*
X13436600Y-11099800D01*
X13385800Y-10718800D02*
X13385800Y-11049000D01*
X13436600Y-10668000D02*
X13385800Y-10718800D01*
D20*
X16524200Y-11233400D02*
X16524200Y-11095200D01*
X16524200Y-11095200D02*
X16503400Y-11074400D01*
D22*
X16503400Y-11074400D02*
X16503400Y-10991600D01*
X16484600Y-10972800D02*
X16503400Y-10991600D01*
X16110200Y-11455400D02*
X16110200Y-11652000D01*
X16110200Y-11652000D02*
X16103600Y-11658600D01*
X16110200Y-10744200D02*
X16110200Y-10972800D01*
X16110200Y-10972800D02*
X16110200Y-11455400D01*
X16110200Y-10744200D02*
X16110200Y-10649200D01*
X16110200Y-10649200D02*
X16103600Y-10642600D01*
X14700000Y-11455400D02*
X14791200Y-11455400D01*
X14791200Y-11455400D02*
X14782800Y-11455400D01*
X14782800Y-11455400D02*
X14791200Y-11455400D01*
X14776700Y-10922000D02*
X14776700Y-10839200D01*
X14776700Y-10839200D02*
X14808200Y-10807700D01*
X14791200Y-11074400D02*
X14791200Y-11006600D01*
X14776700Y-10992100D02*
X14776700Y-10922000D01*
X14791200Y-11006600D02*
X14776700Y-10992100D01*
X14791200Y-11074400D02*
X14791200Y-11455400D01*
X14791200Y-11455400D02*
X14791200Y-11656400D01*
X14791200Y-11656400D02*
X14782800Y-11664800D01*
X14376400Y-11036300D02*
X14331700Y-11081000D01*
X14331700Y-11081000D02*
X14331700Y-11150600D01*
X14331700Y-11150600D02*
X14331700Y-11258800D01*
X14274800Y-11315700D02*
X14274800Y-11658600D01*
X14331700Y-11258800D02*
X14274800Y-11315700D01*
X13290300Y-11176000D02*
X13360400Y-11176000D01*
X13360400Y-11176000D02*
X13436600Y-11099800D01*
X13290300Y-11176000D02*
X13290300Y-11613900D01*
X13290300Y-11613900D02*
X13296900Y-11620500D01*
D20*
X14960600Y-11353800D02*
X14966700Y-11353800D01*
X16394200Y-11423400D02*
X16300200Y-11423400D01*
X16306800Y-11430000D02*
X16300200Y-11430000D01*
X16300200Y-11423400D02*
X16306800Y-11430000D01*
D22*
X16300200Y-10744200D02*
X16300200Y-10712200D01*
X16300200Y-10712200D02*
X16230600Y-10642600D01*
X16300200Y-10744200D02*
X16300200Y-11430000D01*
X16300200Y-11430000D02*
X16300200Y-11557000D01*
X16300200Y-11557000D02*
X16300200Y-11582400D01*
X16300200Y-11582400D02*
X16300200Y-11741400D01*
X16300200Y-11741400D02*
X16281400Y-11760200D01*
X15297400Y-10769600D02*
X15297400Y-11252200D01*
X15297400Y-11252200D02*
X15297400Y-11753600D01*
X15297400Y-11753600D02*
X15290800Y-11760200D01*
X14510000Y-11455400D02*
X14510000Y-11753600D01*
X14510000Y-11753600D02*
X14503400Y-11760200D01*
X14510000Y-11455400D02*
X14478000Y-11455400D01*
X14478000Y-11455400D02*
X14401800Y-11379200D01*
X14395700Y-10922000D02*
X14395700Y-10851900D01*
X14395700Y-10851900D02*
X14439900Y-10807700D01*
X14966700Y-10922000D02*
X14966700Y-11353800D01*
X14966700Y-11353800D02*
X14966700Y-11754100D01*
X14966700Y-11754100D02*
X14960600Y-11760200D01*
X14141700Y-11150600D02*
X14141700Y-11093200D01*
X14312900Y-10922000D02*
X14395700Y-10922000D01*
X14141700Y-11093200D02*
X14312900Y-10922000D01*
X14141700Y-11150600D02*
X14141700Y-11753600D01*
X14141700Y-11753600D02*
X14135100Y-11760200D01*
X13449300Y-11315700D02*
X13449300Y-11709400D01*
X13462000Y-11303000D02*
X13449300Y-11315700D01*
X13100300Y-11176000D02*
X13100300Y-10674100D01*
X13100300Y-10674100D02*
X13131800Y-10642600D01*
X13100300Y-11176000D02*
X13100300Y-11665200D01*
X13100300Y-11665200D02*
X13144500Y-11709400D01*
D21*
X13724400Y-10668000D02*
X13690600Y-10668000D01*
X13690600Y-10668000D02*
X13614400Y-10591800D01*
X13724400Y-10668000D02*
X13724400Y-10845800D01*
X13504400Y-10845800D02*
X13538200Y-10845800D01*
X13538200Y-10845800D02*
X13614400Y-10769600D01*
X14097000Y-10947400D02*
X14097000Y-10668000D01*
X14071600Y-10972800D02*
X14097000Y-10947400D01*
X16459200Y-11328400D02*
X16459200Y-11423400D01*
X16524200Y-11423400D02*
X16524200Y-11466600D01*
X16524200Y-11466600D02*
X16459200Y-11531600D01*
X15722600Y-11455400D02*
X15722600Y-11176000D01*
X15671800Y-11506200D02*
X15722600Y-11455400D01*
X15621000Y-11226800D02*
X15646400Y-11252200D01*
X15621000Y-10718800D02*
X15621000Y-11226800D01*
X15595600Y-10693400D02*
X15621000Y-10718800D01*
X16394200Y-11233400D02*
X16394200Y-11164800D01*
X16394200Y-11164800D02*
X16408400Y-11150600D01*
D22*
X14585700Y-10922000D02*
X14585700Y-10839200D01*
X14585700Y-10839200D02*
X14566900Y-10820400D01*
X14571200Y-11074400D02*
X14571200Y-11006600D01*
X14585700Y-10992100D02*
X14585700Y-10922000D01*
X14571200Y-11006600D02*
X14585700Y-10992100D01*
D21*
X15487400Y-10610600D02*
X15487400Y-10769600D01*
X15443200Y-10566400D02*
X15487400Y-10610600D01*
D23*
X15468600Y-10922000D02*
X15468600Y-10788400D01*
X15468600Y-10788400D02*
X15487400Y-10769600D01*
D21*
X15494000Y-10776200D02*
X15487400Y-10769600D01*
X14706600Y-10566400D02*
X15011400Y-10566400D01*
X15011400Y-10566400D02*
X15189200Y-10744200D01*
X15189200Y-10744200D02*
X15189200Y-11379200D01*
X15189200Y-11379200D02*
X15214600Y-11404600D01*
D23*
X15468600Y-11410000D02*
X15468600Y-11271000D01*
X15468600Y-11271000D02*
X15487400Y-11252200D01*
D22*
X17278600Y-11125200D02*
X17278600Y-10776200D01*
X17278600Y-10776200D02*
X17195800Y-10693400D01*
X17094200Y-11425200D02*
X17149800Y-11425200D01*
X17149800Y-11425200D02*
X17278600Y-11296400D01*
X17278600Y-11296400D02*
X17278600Y-11125200D01*
D23*
X16916400Y-11235200D02*
X17084200Y-11235200D01*
X17084200Y-11235200D02*
X17094200Y-11225200D01*
X16916400Y-11015200D02*
X17084200Y-11015200D01*
X17084200Y-11015200D02*
X17094200Y-11025200D01*
D22*
X17468600Y-10890000D02*
X17468600Y-11125200D01*
X17449800Y-10871200D02*
X17468600Y-10890000D01*
D24*
G36*
X13561276Y-10556237D02*
X13551711Y-10579274D01*
X13551702Y-10589659D01*
X13444400Y-10589659D01*
X13432282Y-10591940D01*
X13421153Y-10599101D01*
X13413686Y-10610029D01*
X13411059Y-10623000D01*
X13411059Y-10634698D01*
X13406406Y-10637807D01*
X13406406Y-10637807D01*
X13355606Y-10688607D01*
X13346350Y-10702459D01*
X13343100Y-10718800D01*
X13343100Y-10718801D01*
X13343100Y-11049000D01*
X13343100Y-11049000D01*
X13346350Y-11065341D01*
X13355606Y-11079194D01*
X13363911Y-11087498D01*
X13363908Y-11090892D01*
X13349640Y-11105159D01*
X13230300Y-11105159D01*
X13218182Y-11107440D01*
X13216590Y-11108464D01*
X13214133Y-11102530D01*
X13196270Y-11084667D01*
X13172931Y-11075000D01*
X13128875Y-11075000D01*
X13113000Y-11090875D01*
X13113000Y-11163300D01*
X13115000Y-11163300D01*
X13115000Y-11188700D01*
X13113000Y-11188700D01*
X13113000Y-11261125D01*
X13128875Y-11277000D01*
X13172931Y-11277000D01*
X13196270Y-11267333D01*
X13214133Y-11249470D01*
X13216535Y-11243671D01*
X13217329Y-11244214D01*
X13230300Y-11246841D01*
X13232600Y-11246841D01*
X13232600Y-11585777D01*
X13224213Y-11605976D01*
X13224187Y-11634897D01*
X13235232Y-11661627D01*
X13255665Y-11682096D01*
X13282376Y-11693187D01*
X13311297Y-11693213D01*
X13338027Y-11682168D01*
X13358496Y-11661735D01*
X13369587Y-11635024D01*
X13369613Y-11606102D01*
X13358568Y-11579372D01*
X13348000Y-11568786D01*
X13348000Y-11246841D01*
X13350300Y-11246841D01*
X13362418Y-11244560D01*
X13373547Y-11237399D01*
X13378540Y-11230092D01*
X13382481Y-11229308D01*
X13401200Y-11216800D01*
X13438825Y-11179175D01*
X14018200Y-11179175D01*
X14018200Y-11200731D01*
X14027867Y-11224070D01*
X14045730Y-11241933D01*
X14069069Y-11251600D01*
X14113125Y-11251600D01*
X14129000Y-11235725D01*
X14129000Y-11163300D01*
X14034075Y-11163300D01*
X14018200Y-11179175D01*
X13438825Y-11179175D01*
X13445492Y-11172508D01*
X13450997Y-11172513D01*
X13477727Y-11161468D01*
X13498196Y-11141035D01*
X13509287Y-11114324D01*
X13509299Y-11100469D01*
X14018200Y-11100469D01*
X14018200Y-11122025D01*
X14034075Y-11137900D01*
X14129000Y-11137900D01*
X14129000Y-11065475D01*
X14154400Y-11065475D01*
X14154400Y-11137900D01*
X14156400Y-11137900D01*
X14156400Y-11163300D01*
X14154400Y-11163300D01*
X14154400Y-11235725D01*
X14170275Y-11251600D01*
X14214331Y-11251600D01*
X14237670Y-11241933D01*
X14255533Y-11224070D01*
X14257935Y-11218271D01*
X14258729Y-11218814D01*
X14271700Y-11221441D01*
X14274000Y-11221441D01*
X14274000Y-11234900D01*
X14234000Y-11274900D01*
X14221492Y-11293619D01*
X14217100Y-11315700D01*
X14217100Y-11315700D01*
X14217100Y-11613476D01*
X14213204Y-11617365D01*
X14202113Y-11644076D01*
X14202087Y-11672997D01*
X14213132Y-11699727D01*
X14233565Y-11720196D01*
X14260276Y-11731287D01*
X14289197Y-11731313D01*
X14315927Y-11720268D01*
X14336396Y-11699835D01*
X14347487Y-11673124D01*
X14347513Y-11644202D01*
X14336468Y-11617472D01*
X14332500Y-11613498D01*
X14332500Y-11483975D01*
X14386500Y-11483975D01*
X14386500Y-11505531D01*
X14396167Y-11528870D01*
X14414030Y-11546733D01*
X14437369Y-11556400D01*
X14481425Y-11556400D01*
X14497300Y-11540525D01*
X14497300Y-11468100D01*
X14402375Y-11468100D01*
X14386500Y-11483975D01*
X14332500Y-11483975D01*
X14332500Y-11405269D01*
X14386500Y-11405269D01*
X14386500Y-11426825D01*
X14402375Y-11442700D01*
X14497300Y-11442700D01*
X14497300Y-11370275D01*
X14522700Y-11370275D01*
X14522700Y-11442700D01*
X14524700Y-11442700D01*
X14524700Y-11468100D01*
X14522700Y-11468100D01*
X14522700Y-11540525D01*
X14538575Y-11556400D01*
X14582631Y-11556400D01*
X14605970Y-11546733D01*
X14623833Y-11528870D01*
X14626235Y-11523071D01*
X14627029Y-11523614D01*
X14640000Y-11526241D01*
X14733500Y-11526241D01*
X14733500Y-11611290D01*
X14721204Y-11623565D01*
X14710113Y-11650275D01*
X14710087Y-11679197D01*
X14721132Y-11705927D01*
X14741565Y-11726396D01*
X14768276Y-11737487D01*
X14797197Y-11737512D01*
X14823927Y-11726468D01*
X14844396Y-11706035D01*
X14855487Y-11679324D01*
X14855513Y-11650402D01*
X14848900Y-11634399D01*
X14848900Y-11152741D01*
X14851200Y-11152741D01*
X14863318Y-11150461D01*
X14874447Y-11143299D01*
X14881914Y-11132371D01*
X14884541Y-11119400D01*
X14884541Y-11029400D01*
X14882429Y-11018179D01*
X14894069Y-11023000D01*
X14938125Y-11023000D01*
X14954000Y-11007125D01*
X14954000Y-10934700D01*
X14979400Y-10934700D01*
X14979400Y-11007125D01*
X14995275Y-11023000D01*
X15039331Y-11023000D01*
X15062670Y-11013333D01*
X15080533Y-10995470D01*
X15090200Y-10972131D01*
X15090200Y-10950575D01*
X15074325Y-10934700D01*
X14979400Y-10934700D01*
X14954000Y-10934700D01*
X14952000Y-10934700D01*
X14952000Y-10909300D01*
X14954000Y-10909300D01*
X14954000Y-10836875D01*
X14979400Y-10836875D01*
X14979400Y-10909300D01*
X15074325Y-10909300D01*
X15090200Y-10893425D01*
X15090200Y-10871869D01*
X15080533Y-10848530D01*
X15062670Y-10830667D01*
X15039331Y-10821000D01*
X14995275Y-10821000D01*
X14979400Y-10836875D01*
X14954000Y-10836875D01*
X14938125Y-10821000D01*
X14894069Y-10821000D01*
X14878763Y-10827340D01*
X14880887Y-10822224D01*
X14880913Y-10793303D01*
X14869868Y-10766573D01*
X14849435Y-10746104D01*
X14822724Y-10735013D01*
X14793802Y-10734987D01*
X14767072Y-10746032D01*
X14746604Y-10766465D01*
X14735513Y-10793176D01*
X14735507Y-10798987D01*
X14723392Y-10817119D01*
X14719000Y-10839200D01*
X14719000Y-10839201D01*
X14719000Y-10851159D01*
X14716700Y-10851159D01*
X14704582Y-10853440D01*
X14693453Y-10860601D01*
X14685986Y-10871529D01*
X14683359Y-10884500D01*
X14683359Y-10959500D01*
X14685639Y-10971618D01*
X14692801Y-10982747D01*
X14703729Y-10990214D01*
X14716700Y-10992841D01*
X14719147Y-10992841D01*
X14720199Y-10998129D01*
X14719082Y-10998340D01*
X14707953Y-11005501D01*
X14700486Y-11016429D01*
X14697859Y-11029400D01*
X14697859Y-11119400D01*
X14700139Y-11131518D01*
X14707301Y-11142647D01*
X14718229Y-11150114D01*
X14731200Y-11152741D01*
X14733500Y-11152741D01*
X14733500Y-11303288D01*
X14722435Y-11292204D01*
X14695724Y-11281113D01*
X14666802Y-11281087D01*
X14640072Y-11292132D01*
X14619604Y-11312565D01*
X14608513Y-11339276D01*
X14608489Y-11366586D01*
X14605970Y-11364067D01*
X14582631Y-11354400D01*
X14538575Y-11354400D01*
X14522700Y-11370275D01*
X14497300Y-11370275D01*
X14481425Y-11354400D01*
X14437369Y-11354400D01*
X14414030Y-11364067D01*
X14396167Y-11381930D01*
X14386500Y-11405269D01*
X14332500Y-11405269D01*
X14332500Y-11339600D01*
X14372500Y-11299600D01*
X14372500Y-11299600D01*
X14385008Y-11280881D01*
X14385080Y-11280518D01*
X14389400Y-11258800D01*
X14389400Y-11258799D01*
X14389400Y-11221441D01*
X14391700Y-11221441D01*
X14403818Y-11219160D01*
X14414947Y-11211999D01*
X14422414Y-11201071D01*
X14425041Y-11188100D01*
X14425041Y-11113100D01*
X14422760Y-11100982D01*
X14419533Y-11095966D01*
X14437996Y-11077535D01*
X14449087Y-11050824D01*
X14449112Y-11023000D01*
X14468331Y-11023000D01*
X14480147Y-11018106D01*
X14477859Y-11029400D01*
X14477859Y-11119400D01*
X14480139Y-11131518D01*
X14487301Y-11142647D01*
X14498229Y-11150114D01*
X14511200Y-11152741D01*
X14631200Y-11152741D01*
X14643318Y-11150461D01*
X14654447Y-11143299D01*
X14661914Y-11132371D01*
X14664541Y-11119400D01*
X14664541Y-11029400D01*
X14662260Y-11017282D01*
X14655099Y-11006153D01*
X14644171Y-10998686D01*
X14642171Y-10998281D01*
X14643253Y-10992841D01*
X14645700Y-10992841D01*
X14657818Y-10990561D01*
X14668947Y-10983399D01*
X14676414Y-10972471D01*
X14679041Y-10959500D01*
X14679041Y-10884500D01*
X14676760Y-10872382D01*
X14669599Y-10861253D01*
X14658671Y-10853786D01*
X14645700Y-10851159D01*
X14643400Y-10851159D01*
X14643400Y-10839200D01*
X14639600Y-10820098D01*
X14639613Y-10806003D01*
X14628568Y-10779273D01*
X14608135Y-10758804D01*
X14581424Y-10747713D01*
X14552502Y-10747687D01*
X14525772Y-10758732D01*
X14505304Y-10779165D01*
X14494213Y-10805876D01*
X14494189Y-10833186D01*
X14491670Y-10830667D01*
X14468331Y-10821000D01*
X14424275Y-10821000D01*
X14408400Y-10836875D01*
X14408400Y-10909300D01*
X14410400Y-10909300D01*
X14410400Y-10934700D01*
X14408400Y-10934700D01*
X14408400Y-10936700D01*
X14383000Y-10936700D01*
X14383000Y-10934700D01*
X14288075Y-10934700D01*
X14272200Y-10950575D01*
X14272200Y-10972131D01*
X14281867Y-10995470D01*
X14299730Y-11013333D01*
X14306119Y-11015979D01*
X14303713Y-11021776D01*
X14303708Y-11027392D01*
X14290900Y-11040200D01*
X14278392Y-11058919D01*
X14274247Y-11079759D01*
X14271700Y-11079759D01*
X14259582Y-11082040D01*
X14257990Y-11083064D01*
X14255533Y-11077130D01*
X14237670Y-11059267D01*
X14214331Y-11049600D01*
X14170275Y-11049600D01*
X14154400Y-11065475D01*
X14129000Y-11065475D01*
X14113125Y-11049600D01*
X14069069Y-11049600D01*
X14045730Y-11059267D01*
X14027867Y-11077130D01*
X14018200Y-11100469D01*
X13509299Y-11100469D01*
X13509313Y-11085403D01*
X13498268Y-11058673D01*
X13477835Y-11038204D01*
X13451124Y-11027113D01*
X13428500Y-11027093D01*
X13428500Y-10985217D01*
X14008889Y-10985217D01*
X14018414Y-11008270D01*
X14036037Y-11025924D01*
X14059073Y-11035489D01*
X14084017Y-11035511D01*
X14107070Y-11025986D01*
X14124723Y-11008363D01*
X14134289Y-10985327D01*
X14134305Y-10966950D01*
X14136450Y-10963741D01*
X14139700Y-10947400D01*
X14139700Y-10871869D01*
X14272200Y-10871869D01*
X14272200Y-10893425D01*
X14288075Y-10909300D01*
X14383000Y-10909300D01*
X14383000Y-10836875D01*
X14367125Y-10821000D01*
X14323069Y-10821000D01*
X14299730Y-10830667D01*
X14281867Y-10848530D01*
X14272200Y-10871869D01*
X14139700Y-10871869D01*
X14139700Y-10713968D01*
X14150123Y-10703563D01*
X14159689Y-10680527D01*
X14159711Y-10655583D01*
X14150185Y-10632530D01*
X14132563Y-10614877D01*
X14109526Y-10605311D01*
X14084583Y-10605289D01*
X14061530Y-10614815D01*
X14043876Y-10632437D01*
X14034311Y-10655474D01*
X14034289Y-10680417D01*
X14043814Y-10703470D01*
X14054300Y-10713974D01*
X14054300Y-10912107D01*
X14036130Y-10919615D01*
X14018476Y-10937237D01*
X14008911Y-10960274D01*
X14008889Y-10985217D01*
X13428500Y-10985217D01*
X13428500Y-10919513D01*
X13431429Y-10921514D01*
X13444400Y-10924141D01*
X13564400Y-10924141D01*
X13576518Y-10921861D01*
X13587647Y-10914699D01*
X13595114Y-10903771D01*
X13597741Y-10890800D01*
X13597741Y-10846646D01*
X13612089Y-10832298D01*
X13626817Y-10832311D01*
X13631059Y-10830558D01*
X13631059Y-10890800D01*
X13633339Y-10902918D01*
X13640501Y-10914047D01*
X13651429Y-10921514D01*
X13664400Y-10924141D01*
X13784400Y-10924141D01*
X13796518Y-10921861D01*
X13807647Y-10914699D01*
X13815114Y-10903771D01*
X13817741Y-10890800D01*
X13817741Y-10800800D01*
X13815460Y-10788682D01*
X13808299Y-10777553D01*
X13797371Y-10770086D01*
X13784400Y-10767459D01*
X13767100Y-10767459D01*
X13767100Y-10746341D01*
X13784400Y-10746341D01*
X13796518Y-10744061D01*
X13807647Y-10736899D01*
X13815114Y-10725971D01*
X13817741Y-10713000D01*
X13817741Y-10623000D01*
X13815460Y-10610882D01*
X13808299Y-10599753D01*
X13797371Y-10592286D01*
X13784400Y-10589659D01*
X13677102Y-10589659D01*
X13677111Y-10579383D01*
X13667585Y-10556330D01*
X13651484Y-10540200D01*
X14649589Y-10540200D01*
X14643911Y-10553874D01*
X14643889Y-10578817D01*
X14653414Y-10601870D01*
X14671037Y-10619524D01*
X14694073Y-10629089D01*
X14719017Y-10629111D01*
X14742070Y-10619586D01*
X14752574Y-10609100D01*
X14993713Y-10609100D01*
X15146500Y-10761887D01*
X15146500Y-11379199D01*
X15146500Y-11379200D01*
X15149750Y-11395541D01*
X15151905Y-11398765D01*
X15151889Y-11417017D01*
X15161414Y-11440070D01*
X15179037Y-11457723D01*
X15202073Y-11467289D01*
X15227017Y-11467311D01*
X15250070Y-11457785D01*
X15267723Y-11440163D01*
X15277289Y-11417126D01*
X15277311Y-11392183D01*
X15267785Y-11369130D01*
X15251884Y-11353200D01*
X15268825Y-11353200D01*
X15284700Y-11337325D01*
X15284700Y-11264900D01*
X15282700Y-11264900D01*
X15282700Y-11239500D01*
X15284700Y-11239500D01*
X15284700Y-11167075D01*
X15268825Y-11151200D01*
X15231900Y-11151200D01*
X15231900Y-10870600D01*
X15268825Y-10870600D01*
X15284700Y-10854725D01*
X15284700Y-10782300D01*
X15282700Y-10782300D01*
X15282700Y-10756900D01*
X15284700Y-10756900D01*
X15284700Y-10684475D01*
X15268825Y-10668600D01*
X15224769Y-10668600D01*
X15201430Y-10678267D01*
X15192542Y-10687155D01*
X15045587Y-10540200D01*
X15386189Y-10540200D01*
X15380511Y-10553874D01*
X15380489Y-10578817D01*
X15390014Y-10601870D01*
X15407637Y-10619524D01*
X15430673Y-10629089D01*
X15444700Y-10629101D01*
X15444700Y-10698759D01*
X15427400Y-10698759D01*
X15415282Y-10701040D01*
X15413690Y-10702064D01*
X15411233Y-10696130D01*
X15393370Y-10678267D01*
X15370031Y-10668600D01*
X15325975Y-10668600D01*
X15310100Y-10684475D01*
X15310100Y-10756900D01*
X15312100Y-10756900D01*
X15312100Y-10782300D01*
X15310100Y-10782300D01*
X15310100Y-10854725D01*
X15325975Y-10870600D01*
X15370031Y-10870600D01*
X15374012Y-10868951D01*
X15360919Y-10900483D01*
X15360881Y-10943329D01*
X15377243Y-10982928D01*
X15407513Y-11013250D01*
X15447083Y-11029681D01*
X15489929Y-11029719D01*
X15529527Y-11013357D01*
X15559850Y-10983087D01*
X15576281Y-10943517D01*
X15576319Y-10900671D01*
X15559957Y-10861073D01*
X15539361Y-10840441D01*
X15547400Y-10840441D01*
X15559518Y-10838161D01*
X15570647Y-10830999D01*
X15578114Y-10820071D01*
X15578300Y-10819152D01*
X15578300Y-11202333D01*
X15571299Y-11191453D01*
X15560371Y-11183986D01*
X15547400Y-11181359D01*
X15427400Y-11181359D01*
X15415282Y-11183640D01*
X15413690Y-11184664D01*
X15411233Y-11178730D01*
X15393370Y-11160867D01*
X15370031Y-11151200D01*
X15325975Y-11151200D01*
X15310100Y-11167075D01*
X15310100Y-11239500D01*
X15312100Y-11239500D01*
X15312100Y-11264900D01*
X15310100Y-11264900D01*
X15310100Y-11337325D01*
X15325975Y-11353200D01*
X15370031Y-11353200D01*
X15376720Y-11350429D01*
X15360919Y-11388483D01*
X15360881Y-11431329D01*
X15377243Y-11470927D01*
X15407513Y-11501250D01*
X15447083Y-11517681D01*
X15489929Y-11517719D01*
X15529527Y-11501357D01*
X15559850Y-11471087D01*
X15576281Y-11431517D01*
X15576319Y-11388671D01*
X15559957Y-11349072D01*
X15533970Y-11323041D01*
X15547400Y-11323041D01*
X15559518Y-11320760D01*
X15570647Y-11313599D01*
X15578114Y-11302671D01*
X15580741Y-11289700D01*
X15580741Y-11239070D01*
X15581550Y-11243141D01*
X15583705Y-11246365D01*
X15583689Y-11264617D01*
X15593214Y-11287670D01*
X15610837Y-11305323D01*
X15633873Y-11314889D01*
X15658817Y-11314911D01*
X15679900Y-11306200D01*
X15679900Y-11437713D01*
X15674111Y-11443502D01*
X15659383Y-11443489D01*
X15636330Y-11453014D01*
X15618676Y-11470637D01*
X15609111Y-11493673D01*
X15609089Y-11518617D01*
X15618614Y-11541670D01*
X15636237Y-11559323D01*
X15659273Y-11568889D01*
X15684217Y-11568911D01*
X15707270Y-11559385D01*
X15724923Y-11541763D01*
X15734489Y-11518726D01*
X15734502Y-11503885D01*
X15752793Y-11485594D01*
X15752793Y-11485593D01*
X15762050Y-11471741D01*
X15765300Y-11455400D01*
X15765300Y-11221968D01*
X15775723Y-11211563D01*
X15785289Y-11188526D01*
X15785311Y-11163583D01*
X15775785Y-11140530D01*
X15758163Y-11122877D01*
X15735126Y-11113311D01*
X15710183Y-11113289D01*
X15687130Y-11122815D01*
X15669476Y-11140437D01*
X15663700Y-11154348D01*
X15663700Y-10718800D01*
X15661293Y-10706700D01*
X16016859Y-10706700D01*
X16016859Y-10781700D01*
X16019139Y-10793818D01*
X16026301Y-10804947D01*
X16037229Y-10812414D01*
X16050200Y-10815041D01*
X16052500Y-10815041D01*
X16052500Y-10927676D01*
X16048604Y-10931565D01*
X16037513Y-10958276D01*
X16037487Y-10987198D01*
X16048532Y-11013928D01*
X16052500Y-11017902D01*
X16052500Y-11410276D01*
X16048604Y-11414165D01*
X16037513Y-11440876D01*
X16037487Y-11469797D01*
X16048532Y-11496527D01*
X16052500Y-11500502D01*
X16052500Y-11606887D01*
X16042004Y-11617365D01*
X16030913Y-11644076D01*
X16030887Y-11672997D01*
X16041932Y-11699727D01*
X16062365Y-11720196D01*
X16089076Y-11731287D01*
X16117997Y-11731313D01*
X16144727Y-11720268D01*
X16165196Y-11699835D01*
X16176287Y-11673124D01*
X16176313Y-11644202D01*
X16167900Y-11623842D01*
X16167900Y-11500524D01*
X16171796Y-11496635D01*
X16182887Y-11469924D01*
X16182903Y-11451975D01*
X16310700Y-11451975D01*
X16310700Y-11471031D01*
X16320367Y-11494370D01*
X16338230Y-11512233D01*
X16361569Y-11521900D01*
X16368325Y-11521900D01*
X16384200Y-11506025D01*
X16384200Y-11436100D01*
X16326575Y-11436100D01*
X16310700Y-11451975D01*
X16182903Y-11451975D01*
X16182913Y-11441002D01*
X16171868Y-11414272D01*
X16167900Y-11410298D01*
X16167900Y-11375769D01*
X16310700Y-11375769D01*
X16310700Y-11394825D01*
X16326575Y-11410700D01*
X16384200Y-11410700D01*
X16384200Y-11340775D01*
X16368325Y-11324900D01*
X16361569Y-11324900D01*
X16338230Y-11334567D01*
X16320367Y-11352430D01*
X16310700Y-11375769D01*
X16167900Y-11375769D01*
X16167900Y-11102975D01*
X16189900Y-11102975D01*
X16189900Y-11124531D01*
X16199567Y-11147870D01*
X16217430Y-11165733D01*
X16240769Y-11175400D01*
X16284825Y-11175400D01*
X16300700Y-11159525D01*
X16300700Y-11087100D01*
X16205775Y-11087100D01*
X16189900Y-11102975D01*
X16167900Y-11102975D01*
X16167900Y-11024269D01*
X16189900Y-11024269D01*
X16189900Y-11045825D01*
X16205775Y-11061700D01*
X16300700Y-11061700D01*
X16300700Y-10989275D01*
X16284825Y-10973400D01*
X16240769Y-10973400D01*
X16217430Y-10983067D01*
X16199567Y-11000930D01*
X16189900Y-11024269D01*
X16167900Y-11024269D01*
X16167900Y-11017924D01*
X16171796Y-11014035D01*
X16182887Y-10987324D01*
X16182913Y-10958403D01*
X16171868Y-10931673D01*
X16167900Y-10927698D01*
X16167900Y-10815041D01*
X16170200Y-10815041D01*
X16182318Y-10812761D01*
X16183909Y-10811736D01*
X16186367Y-10817670D01*
X16204230Y-10835533D01*
X16227569Y-10845200D01*
X16271625Y-10845200D01*
X16287500Y-10829325D01*
X16287500Y-10756900D01*
X16312900Y-10756900D01*
X16312900Y-10829325D01*
X16328775Y-10845200D01*
X16372831Y-10845200D01*
X16396170Y-10835533D01*
X16414033Y-10817670D01*
X16423700Y-10794331D01*
X16423700Y-10772775D01*
X16407825Y-10756900D01*
X16312900Y-10756900D01*
X16287500Y-10756900D01*
X16285500Y-10756900D01*
X16285500Y-10731500D01*
X16287500Y-10731500D01*
X16287500Y-10659075D01*
X16312900Y-10659075D01*
X16312900Y-10731500D01*
X16407825Y-10731500D01*
X16423700Y-10715625D01*
X16423700Y-10694069D01*
X16414033Y-10670730D01*
X16396170Y-10652867D01*
X16372831Y-10643200D01*
X16328775Y-10643200D01*
X16312900Y-10659075D01*
X16287500Y-10659075D01*
X16271625Y-10643200D01*
X16227569Y-10643200D01*
X16204230Y-10652867D01*
X16186367Y-10670730D01*
X16183965Y-10676529D01*
X16183171Y-10675986D01*
X16170200Y-10673359D01*
X16169546Y-10673359D01*
X16176287Y-10657124D01*
X16176313Y-10628203D01*
X16165268Y-10601473D01*
X16144835Y-10581004D01*
X16118124Y-10569913D01*
X16089202Y-10569887D01*
X16062472Y-10580932D01*
X16042004Y-10601365D01*
X16030913Y-10628076D01*
X16030887Y-10656998D01*
X16038553Y-10675551D01*
X16038082Y-10675640D01*
X16026953Y-10682801D01*
X16019486Y-10693729D01*
X16016859Y-10706700D01*
X15661293Y-10706700D01*
X15660450Y-10702459D01*
X15658295Y-10699235D01*
X15658311Y-10680983D01*
X15648785Y-10657930D01*
X15631163Y-10640277D01*
X15608126Y-10630711D01*
X15583183Y-10630689D01*
X15560130Y-10640215D01*
X15542476Y-10657837D01*
X15532911Y-10680874D01*
X15532895Y-10698759D01*
X15530100Y-10698759D01*
X15530100Y-10610600D01*
X15526850Y-10594259D01*
X15517593Y-10580407D01*
X15517593Y-10580406D01*
X15505898Y-10568711D01*
X15505911Y-10553983D01*
X15500216Y-10540200D01*
X16573500Y-10540200D01*
X16573500Y-11005605D01*
X16563400Y-11003559D01*
X16561100Y-11003559D01*
X16561100Y-10991600D01*
X16557300Y-10972498D01*
X16557313Y-10958403D01*
X16546268Y-10931673D01*
X16525835Y-10911204D01*
X16499124Y-10900113D01*
X16470202Y-10900087D01*
X16443472Y-10911132D01*
X16423004Y-10931565D01*
X16411913Y-10958276D01*
X16411889Y-10985586D01*
X16409370Y-10983067D01*
X16386031Y-10973400D01*
X16341975Y-10973400D01*
X16326100Y-10989275D01*
X16326100Y-11061700D01*
X16328100Y-11061700D01*
X16328100Y-11087100D01*
X16326100Y-11087100D01*
X16326100Y-11159525D01*
X16341975Y-11175400D01*
X16350338Y-11175400D01*
X16343486Y-11185429D01*
X16340859Y-11198400D01*
X16340859Y-11268400D01*
X16343139Y-11280518D01*
X16350301Y-11291647D01*
X16361229Y-11299114D01*
X16374200Y-11301741D01*
X16402379Y-11301741D01*
X16396511Y-11315873D01*
X16396489Y-11340817D01*
X16404200Y-11359479D01*
X16404200Y-11410700D01*
X16405859Y-11410700D01*
X16405859Y-11436100D01*
X16404200Y-11436100D01*
X16404200Y-11500556D01*
X16396511Y-11519073D01*
X16396489Y-11544017D01*
X16406014Y-11567070D01*
X16423637Y-11584723D01*
X16446673Y-11594289D01*
X16471617Y-11594311D01*
X16494670Y-11584785D01*
X16512323Y-11567163D01*
X16521889Y-11544126D01*
X16521902Y-11529285D01*
X16554393Y-11496794D01*
X16554393Y-11496793D01*
X16561537Y-11486102D01*
X16567447Y-11482299D01*
X16573500Y-11473441D01*
X16573500Y-11799800D01*
X12220200Y-11799800D01*
X12220200Y-11436254D01*
X12246586Y-11500113D01*
X12295828Y-11549441D01*
X12360198Y-11576169D01*
X12429896Y-11576230D01*
X12494313Y-11549614D01*
X12543641Y-11500372D01*
X12570369Y-11436002D01*
X12570430Y-11366303D01*
X12543814Y-11301887D01*
X12494572Y-11252559D01*
X12430202Y-11225830D01*
X12360503Y-11225770D01*
X12296087Y-11252386D01*
X12246759Y-11301628D01*
X12220200Y-11365589D01*
X12220200Y-11204575D01*
X12976800Y-11204575D01*
X12976800Y-11226131D01*
X12986467Y-11249470D01*
X13004330Y-11267333D01*
X13027669Y-11277000D01*
X13071725Y-11277000D01*
X13087600Y-11261125D01*
X13087600Y-11188700D01*
X12992675Y-11188700D01*
X12976800Y-11204575D01*
X12220200Y-11204575D01*
X12220200Y-10986254D01*
X12246586Y-11050113D01*
X12295828Y-11099441D01*
X12360198Y-11126170D01*
X12429896Y-11126230D01*
X12430771Y-11125869D01*
X12976800Y-11125869D01*
X12976800Y-11147425D01*
X12992675Y-11163300D01*
X13087600Y-11163300D01*
X13087600Y-11090875D01*
X13071725Y-11075000D01*
X13027669Y-11075000D01*
X13004330Y-11084667D01*
X12986467Y-11102530D01*
X12976800Y-11125869D01*
X12430771Y-11125869D01*
X12494313Y-11099614D01*
X12543641Y-11050372D01*
X12570369Y-10986002D01*
X12570430Y-10916304D01*
X12543814Y-10851887D01*
X12494572Y-10802559D01*
X12430202Y-10775831D01*
X12360503Y-10775770D01*
X12296087Y-10802386D01*
X12246759Y-10851628D01*
X12220200Y-10915590D01*
X12220200Y-10540200D01*
X13577341Y-10540200D01*
X13561276Y-10556237D01*
X13561276Y-10556237D01*
G37*
X13561276Y-10556237D02*
X13551711Y-10579274D01*
X13551702Y-10589659D01*
X13444400Y-10589659D01*
X13432282Y-10591940D01*
X13421153Y-10599101D01*
X13413686Y-10610029D01*
X13411059Y-10623000D01*
X13411059Y-10634698D01*
X13406406Y-10637807D01*
X13406406Y-10637807D01*
X13355606Y-10688607D01*
X13346350Y-10702459D01*
X13343100Y-10718800D01*
X13343100Y-10718801D01*
X13343100Y-11049000D01*
X13343100Y-11049000D01*
X13346350Y-11065341D01*
X13355606Y-11079194D01*
X13363911Y-11087498D01*
X13363908Y-11090892D01*
X13349640Y-11105159D01*
X13230300Y-11105159D01*
X13218182Y-11107440D01*
X13216590Y-11108464D01*
X13214133Y-11102530D01*
X13196270Y-11084667D01*
X13172931Y-11075000D01*
X13128875Y-11075000D01*
X13113000Y-11090875D01*
X13113000Y-11163300D01*
X13115000Y-11163300D01*
X13115000Y-11188700D01*
X13113000Y-11188700D01*
X13113000Y-11261125D01*
X13128875Y-11277000D01*
X13172931Y-11277000D01*
X13196270Y-11267333D01*
X13214133Y-11249470D01*
X13216535Y-11243671D01*
X13217329Y-11244214D01*
X13230300Y-11246841D01*
X13232600Y-11246841D01*
X13232600Y-11585777D01*
X13224213Y-11605976D01*
X13224187Y-11634897D01*
X13235232Y-11661627D01*
X13255665Y-11682096D01*
X13282376Y-11693187D01*
X13311297Y-11693213D01*
X13338027Y-11682168D01*
X13358496Y-11661735D01*
X13369587Y-11635024D01*
X13369613Y-11606102D01*
X13358568Y-11579372D01*
X13348000Y-11568786D01*
X13348000Y-11246841D01*
X13350300Y-11246841D01*
X13362418Y-11244560D01*
X13373547Y-11237399D01*
X13378540Y-11230092D01*
X13382481Y-11229308D01*
X13401200Y-11216800D01*
X13438825Y-11179175D01*
X14018200Y-11179175D01*
X14018200Y-11200731D01*
X14027867Y-11224070D01*
X14045730Y-11241933D01*
X14069069Y-11251600D01*
X14113125Y-11251600D01*
X14129000Y-11235725D01*
X14129000Y-11163300D01*
X14034075Y-11163300D01*
X14018200Y-11179175D01*
X13438825Y-11179175D01*
X13445492Y-11172508D01*
X13450997Y-11172513D01*
X13477727Y-11161468D01*
X13498196Y-11141035D01*
X13509287Y-11114324D01*
X13509299Y-11100469D01*
X14018200Y-11100469D01*
X14018200Y-11122025D01*
X14034075Y-11137900D01*
X14129000Y-11137900D01*
X14129000Y-11065475D01*
X14154400Y-11065475D01*
X14154400Y-11137900D01*
X14156400Y-11137900D01*
X14156400Y-11163300D01*
X14154400Y-11163300D01*
X14154400Y-11235725D01*
X14170275Y-11251600D01*
X14214331Y-11251600D01*
X14237670Y-11241933D01*
X14255533Y-11224070D01*
X14257935Y-11218271D01*
X14258729Y-11218814D01*
X14271700Y-11221441D01*
X14274000Y-11221441D01*
X14274000Y-11234900D01*
X14234000Y-11274900D01*
X14221492Y-11293619D01*
X14217100Y-11315700D01*
X14217100Y-11315700D01*
X14217100Y-11613476D01*
X14213204Y-11617365D01*
X14202113Y-11644076D01*
X14202087Y-11672997D01*
X14213132Y-11699727D01*
X14233565Y-11720196D01*
X14260276Y-11731287D01*
X14289197Y-11731313D01*
X14315927Y-11720268D01*
X14336396Y-11699835D01*
X14347487Y-11673124D01*
X14347513Y-11644202D01*
X14336468Y-11617472D01*
X14332500Y-11613498D01*
X14332500Y-11483975D01*
X14386500Y-11483975D01*
X14386500Y-11505531D01*
X14396167Y-11528870D01*
X14414030Y-11546733D01*
X14437369Y-11556400D01*
X14481425Y-11556400D01*
X14497300Y-11540525D01*
X14497300Y-11468100D01*
X14402375Y-11468100D01*
X14386500Y-11483975D01*
X14332500Y-11483975D01*
X14332500Y-11405269D01*
X14386500Y-11405269D01*
X14386500Y-11426825D01*
X14402375Y-11442700D01*
X14497300Y-11442700D01*
X14497300Y-11370275D01*
X14522700Y-11370275D01*
X14522700Y-11442700D01*
X14524700Y-11442700D01*
X14524700Y-11468100D01*
X14522700Y-11468100D01*
X14522700Y-11540525D01*
X14538575Y-11556400D01*
X14582631Y-11556400D01*
X14605970Y-11546733D01*
X14623833Y-11528870D01*
X14626235Y-11523071D01*
X14627029Y-11523614D01*
X14640000Y-11526241D01*
X14733500Y-11526241D01*
X14733500Y-11611290D01*
X14721204Y-11623565D01*
X14710113Y-11650275D01*
X14710087Y-11679197D01*
X14721132Y-11705927D01*
X14741565Y-11726396D01*
X14768276Y-11737487D01*
X14797197Y-11737512D01*
X14823927Y-11726468D01*
X14844396Y-11706035D01*
X14855487Y-11679324D01*
X14855513Y-11650402D01*
X14848900Y-11634399D01*
X14848900Y-11152741D01*
X14851200Y-11152741D01*
X14863318Y-11150461D01*
X14874447Y-11143299D01*
X14881914Y-11132371D01*
X14884541Y-11119400D01*
X14884541Y-11029400D01*
X14882429Y-11018179D01*
X14894069Y-11023000D01*
X14938125Y-11023000D01*
X14954000Y-11007125D01*
X14954000Y-10934700D01*
X14979400Y-10934700D01*
X14979400Y-11007125D01*
X14995275Y-11023000D01*
X15039331Y-11023000D01*
X15062670Y-11013333D01*
X15080533Y-10995470D01*
X15090200Y-10972131D01*
X15090200Y-10950575D01*
X15074325Y-10934700D01*
X14979400Y-10934700D01*
X14954000Y-10934700D01*
X14952000Y-10934700D01*
X14952000Y-10909300D01*
X14954000Y-10909300D01*
X14954000Y-10836875D01*
X14979400Y-10836875D01*
X14979400Y-10909300D01*
X15074325Y-10909300D01*
X15090200Y-10893425D01*
X15090200Y-10871869D01*
X15080533Y-10848530D01*
X15062670Y-10830667D01*
X15039331Y-10821000D01*
X14995275Y-10821000D01*
X14979400Y-10836875D01*
X14954000Y-10836875D01*
X14938125Y-10821000D01*
X14894069Y-10821000D01*
X14878763Y-10827340D01*
X14880887Y-10822224D01*
X14880913Y-10793303D01*
X14869868Y-10766573D01*
X14849435Y-10746104D01*
X14822724Y-10735013D01*
X14793802Y-10734987D01*
X14767072Y-10746032D01*
X14746604Y-10766465D01*
X14735513Y-10793176D01*
X14735507Y-10798987D01*
X14723392Y-10817119D01*
X14719000Y-10839200D01*
X14719000Y-10839201D01*
X14719000Y-10851159D01*
X14716700Y-10851159D01*
X14704582Y-10853440D01*
X14693453Y-10860601D01*
X14685986Y-10871529D01*
X14683359Y-10884500D01*
X14683359Y-10959500D01*
X14685639Y-10971618D01*
X14692801Y-10982747D01*
X14703729Y-10990214D01*
X14716700Y-10992841D01*
X14719147Y-10992841D01*
X14720199Y-10998129D01*
X14719082Y-10998340D01*
X14707953Y-11005501D01*
X14700486Y-11016429D01*
X14697859Y-11029400D01*
X14697859Y-11119400D01*
X14700139Y-11131518D01*
X14707301Y-11142647D01*
X14718229Y-11150114D01*
X14731200Y-11152741D01*
X14733500Y-11152741D01*
X14733500Y-11303288D01*
X14722435Y-11292204D01*
X14695724Y-11281113D01*
X14666802Y-11281087D01*
X14640072Y-11292132D01*
X14619604Y-11312565D01*
X14608513Y-11339276D01*
X14608489Y-11366586D01*
X14605970Y-11364067D01*
X14582631Y-11354400D01*
X14538575Y-11354400D01*
X14522700Y-11370275D01*
X14497300Y-11370275D01*
X14481425Y-11354400D01*
X14437369Y-11354400D01*
X14414030Y-11364067D01*
X14396167Y-11381930D01*
X14386500Y-11405269D01*
X14332500Y-11405269D01*
X14332500Y-11339600D01*
X14372500Y-11299600D01*
X14372500Y-11299600D01*
X14385008Y-11280881D01*
X14385080Y-11280518D01*
X14389400Y-11258800D01*
X14389400Y-11258799D01*
X14389400Y-11221441D01*
X14391700Y-11221441D01*
X14403818Y-11219160D01*
X14414947Y-11211999D01*
X14422414Y-11201071D01*
X14425041Y-11188100D01*
X14425041Y-11113100D01*
X14422760Y-11100982D01*
X14419533Y-11095966D01*
X14437996Y-11077535D01*
X14449087Y-11050824D01*
X14449112Y-11023000D01*
X14468331Y-11023000D01*
X14480147Y-11018106D01*
X14477859Y-11029400D01*
X14477859Y-11119400D01*
X14480139Y-11131518D01*
X14487301Y-11142647D01*
X14498229Y-11150114D01*
X14511200Y-11152741D01*
X14631200Y-11152741D01*
X14643318Y-11150461D01*
X14654447Y-11143299D01*
X14661914Y-11132371D01*
X14664541Y-11119400D01*
X14664541Y-11029400D01*
X14662260Y-11017282D01*
X14655099Y-11006153D01*
X14644171Y-10998686D01*
X14642171Y-10998281D01*
X14643253Y-10992841D01*
X14645700Y-10992841D01*
X14657818Y-10990561D01*
X14668947Y-10983399D01*
X14676414Y-10972471D01*
X14679041Y-10959500D01*
X14679041Y-10884500D01*
X14676760Y-10872382D01*
X14669599Y-10861253D01*
X14658671Y-10853786D01*
X14645700Y-10851159D01*
X14643400Y-10851159D01*
X14643400Y-10839200D01*
X14639600Y-10820098D01*
X14639613Y-10806003D01*
X14628568Y-10779273D01*
X14608135Y-10758804D01*
X14581424Y-10747713D01*
X14552502Y-10747687D01*
X14525772Y-10758732D01*
X14505304Y-10779165D01*
X14494213Y-10805876D01*
X14494189Y-10833186D01*
X14491670Y-10830667D01*
X14468331Y-10821000D01*
X14424275Y-10821000D01*
X14408400Y-10836875D01*
X14408400Y-10909300D01*
X14410400Y-10909300D01*
X14410400Y-10934700D01*
X14408400Y-10934700D01*
X14408400Y-10936700D01*
X14383000Y-10936700D01*
X14383000Y-10934700D01*
X14288075Y-10934700D01*
X14272200Y-10950575D01*
X14272200Y-10972131D01*
X14281867Y-10995470D01*
X14299730Y-11013333D01*
X14306119Y-11015979D01*
X14303713Y-11021776D01*
X14303708Y-11027392D01*
X14290900Y-11040200D01*
X14278392Y-11058919D01*
X14274247Y-11079759D01*
X14271700Y-11079759D01*
X14259582Y-11082040D01*
X14257990Y-11083064D01*
X14255533Y-11077130D01*
X14237670Y-11059267D01*
X14214331Y-11049600D01*
X14170275Y-11049600D01*
X14154400Y-11065475D01*
X14129000Y-11065475D01*
X14113125Y-11049600D01*
X14069069Y-11049600D01*
X14045730Y-11059267D01*
X14027867Y-11077130D01*
X14018200Y-11100469D01*
X13509299Y-11100469D01*
X13509313Y-11085403D01*
X13498268Y-11058673D01*
X13477835Y-11038204D01*
X13451124Y-11027113D01*
X13428500Y-11027093D01*
X13428500Y-10985217D01*
X14008889Y-10985217D01*
X14018414Y-11008270D01*
X14036037Y-11025924D01*
X14059073Y-11035489D01*
X14084017Y-11035511D01*
X14107070Y-11025986D01*
X14124723Y-11008363D01*
X14134289Y-10985327D01*
X14134305Y-10966950D01*
X14136450Y-10963741D01*
X14139700Y-10947400D01*
X14139700Y-10871869D01*
X14272200Y-10871869D01*
X14272200Y-10893425D01*
X14288075Y-10909300D01*
X14383000Y-10909300D01*
X14383000Y-10836875D01*
X14367125Y-10821000D01*
X14323069Y-10821000D01*
X14299730Y-10830667D01*
X14281867Y-10848530D01*
X14272200Y-10871869D01*
X14139700Y-10871869D01*
X14139700Y-10713968D01*
X14150123Y-10703563D01*
X14159689Y-10680527D01*
X14159711Y-10655583D01*
X14150185Y-10632530D01*
X14132563Y-10614877D01*
X14109526Y-10605311D01*
X14084583Y-10605289D01*
X14061530Y-10614815D01*
X14043876Y-10632437D01*
X14034311Y-10655474D01*
X14034289Y-10680417D01*
X14043814Y-10703470D01*
X14054300Y-10713974D01*
X14054300Y-10912107D01*
X14036130Y-10919615D01*
X14018476Y-10937237D01*
X14008911Y-10960274D01*
X14008889Y-10985217D01*
X13428500Y-10985217D01*
X13428500Y-10919513D01*
X13431429Y-10921514D01*
X13444400Y-10924141D01*
X13564400Y-10924141D01*
X13576518Y-10921861D01*
X13587647Y-10914699D01*
X13595114Y-10903771D01*
X13597741Y-10890800D01*
X13597741Y-10846646D01*
X13612089Y-10832298D01*
X13626817Y-10832311D01*
X13631059Y-10830558D01*
X13631059Y-10890800D01*
X13633339Y-10902918D01*
X13640501Y-10914047D01*
X13651429Y-10921514D01*
X13664400Y-10924141D01*
X13784400Y-10924141D01*
X13796518Y-10921861D01*
X13807647Y-10914699D01*
X13815114Y-10903771D01*
X13817741Y-10890800D01*
X13817741Y-10800800D01*
X13815460Y-10788682D01*
X13808299Y-10777553D01*
X13797371Y-10770086D01*
X13784400Y-10767459D01*
X13767100Y-10767459D01*
X13767100Y-10746341D01*
X13784400Y-10746341D01*
X13796518Y-10744061D01*
X13807647Y-10736899D01*
X13815114Y-10725971D01*
X13817741Y-10713000D01*
X13817741Y-10623000D01*
X13815460Y-10610882D01*
X13808299Y-10599753D01*
X13797371Y-10592286D01*
X13784400Y-10589659D01*
X13677102Y-10589659D01*
X13677111Y-10579383D01*
X13667585Y-10556330D01*
X13651484Y-10540200D01*
X14649589Y-10540200D01*
X14643911Y-10553874D01*
X14643889Y-10578817D01*
X14653414Y-10601870D01*
X14671037Y-10619524D01*
X14694073Y-10629089D01*
X14719017Y-10629111D01*
X14742070Y-10619586D01*
X14752574Y-10609100D01*
X14993713Y-10609100D01*
X15146500Y-10761887D01*
X15146500Y-11379199D01*
X15146500Y-11379200D01*
X15149750Y-11395541D01*
X15151905Y-11398765D01*
X15151889Y-11417017D01*
X15161414Y-11440070D01*
X15179037Y-11457723D01*
X15202073Y-11467289D01*
X15227017Y-11467311D01*
X15250070Y-11457785D01*
X15267723Y-11440163D01*
X15277289Y-11417126D01*
X15277311Y-11392183D01*
X15267785Y-11369130D01*
X15251884Y-11353200D01*
X15268825Y-11353200D01*
X15284700Y-11337325D01*
X15284700Y-11264900D01*
X15282700Y-11264900D01*
X15282700Y-11239500D01*
X15284700Y-11239500D01*
X15284700Y-11167075D01*
X15268825Y-11151200D01*
X15231900Y-11151200D01*
X15231900Y-10870600D01*
X15268825Y-10870600D01*
X15284700Y-10854725D01*
X15284700Y-10782300D01*
X15282700Y-10782300D01*
X15282700Y-10756900D01*
X15284700Y-10756900D01*
X15284700Y-10684475D01*
X15268825Y-10668600D01*
X15224769Y-10668600D01*
X15201430Y-10678267D01*
X15192542Y-10687155D01*
X15045587Y-10540200D01*
X15386189Y-10540200D01*
X15380511Y-10553874D01*
X15380489Y-10578817D01*
X15390014Y-10601870D01*
X15407637Y-10619524D01*
X15430673Y-10629089D01*
X15444700Y-10629101D01*
X15444700Y-10698759D01*
X15427400Y-10698759D01*
X15415282Y-10701040D01*
X15413690Y-10702064D01*
X15411233Y-10696130D01*
X15393370Y-10678267D01*
X15370031Y-10668600D01*
X15325975Y-10668600D01*
X15310100Y-10684475D01*
X15310100Y-10756900D01*
X15312100Y-10756900D01*
X15312100Y-10782300D01*
X15310100Y-10782300D01*
X15310100Y-10854725D01*
X15325975Y-10870600D01*
X15370031Y-10870600D01*
X15374012Y-10868951D01*
X15360919Y-10900483D01*
X15360881Y-10943329D01*
X15377243Y-10982928D01*
X15407513Y-11013250D01*
X15447083Y-11029681D01*
X15489929Y-11029719D01*
X15529527Y-11013357D01*
X15559850Y-10983087D01*
X15576281Y-10943517D01*
X15576319Y-10900671D01*
X15559957Y-10861073D01*
X15539361Y-10840441D01*
X15547400Y-10840441D01*
X15559518Y-10838161D01*
X15570647Y-10830999D01*
X15578114Y-10820071D01*
X15578300Y-10819152D01*
X15578300Y-11202333D01*
X15571299Y-11191453D01*
X15560371Y-11183986D01*
X15547400Y-11181359D01*
X15427400Y-11181359D01*
X15415282Y-11183640D01*
X15413690Y-11184664D01*
X15411233Y-11178730D01*
X15393370Y-11160867D01*
X15370031Y-11151200D01*
X15325975Y-11151200D01*
X15310100Y-11167075D01*
X15310100Y-11239500D01*
X15312100Y-11239500D01*
X15312100Y-11264900D01*
X15310100Y-11264900D01*
X15310100Y-11337325D01*
X15325975Y-11353200D01*
X15370031Y-11353200D01*
X15376720Y-11350429D01*
X15360919Y-11388483D01*
X15360881Y-11431329D01*
X15377243Y-11470927D01*
X15407513Y-11501250D01*
X15447083Y-11517681D01*
X15489929Y-11517719D01*
X15529527Y-11501357D01*
X15559850Y-11471087D01*
X15576281Y-11431517D01*
X15576319Y-11388671D01*
X15559957Y-11349072D01*
X15533970Y-11323041D01*
X15547400Y-11323041D01*
X15559518Y-11320760D01*
X15570647Y-11313599D01*
X15578114Y-11302671D01*
X15580741Y-11289700D01*
X15580741Y-11239070D01*
X15581550Y-11243141D01*
X15583705Y-11246365D01*
X15583689Y-11264617D01*
X15593214Y-11287670D01*
X15610837Y-11305323D01*
X15633873Y-11314889D01*
X15658817Y-11314911D01*
X15679900Y-11306200D01*
X15679900Y-11437713D01*
X15674111Y-11443502D01*
X15659383Y-11443489D01*
X15636330Y-11453014D01*
X15618676Y-11470637D01*
X15609111Y-11493673D01*
X15609089Y-11518617D01*
X15618614Y-11541670D01*
X15636237Y-11559323D01*
X15659273Y-11568889D01*
X15684217Y-11568911D01*
X15707270Y-11559385D01*
X15724923Y-11541763D01*
X15734489Y-11518726D01*
X15734502Y-11503885D01*
X15752793Y-11485594D01*
X15752793Y-11485593D01*
X15762050Y-11471741D01*
X15765300Y-11455400D01*
X15765300Y-11221968D01*
X15775723Y-11211563D01*
X15785289Y-11188526D01*
X15785311Y-11163583D01*
X15775785Y-11140530D01*
X15758163Y-11122877D01*
X15735126Y-11113311D01*
X15710183Y-11113289D01*
X15687130Y-11122815D01*
X15669476Y-11140437D01*
X15663700Y-11154348D01*
X15663700Y-10718800D01*
X15661293Y-10706700D01*
X16016859Y-10706700D01*
X16016859Y-10781700D01*
X16019139Y-10793818D01*
X16026301Y-10804947D01*
X16037229Y-10812414D01*
X16050200Y-10815041D01*
X16052500Y-10815041D01*
X16052500Y-10927676D01*
X16048604Y-10931565D01*
X16037513Y-10958276D01*
X16037487Y-10987198D01*
X16048532Y-11013928D01*
X16052500Y-11017902D01*
X16052500Y-11410276D01*
X16048604Y-11414165D01*
X16037513Y-11440876D01*
X16037487Y-11469797D01*
X16048532Y-11496527D01*
X16052500Y-11500502D01*
X16052500Y-11606887D01*
X16042004Y-11617365D01*
X16030913Y-11644076D01*
X16030887Y-11672997D01*
X16041932Y-11699727D01*
X16062365Y-11720196D01*
X16089076Y-11731287D01*
X16117997Y-11731313D01*
X16144727Y-11720268D01*
X16165196Y-11699835D01*
X16176287Y-11673124D01*
X16176313Y-11644202D01*
X16167900Y-11623842D01*
X16167900Y-11500524D01*
X16171796Y-11496635D01*
X16182887Y-11469924D01*
X16182903Y-11451975D01*
X16310700Y-11451975D01*
X16310700Y-11471031D01*
X16320367Y-11494370D01*
X16338230Y-11512233D01*
X16361569Y-11521900D01*
X16368325Y-11521900D01*
X16384200Y-11506025D01*
X16384200Y-11436100D01*
X16326575Y-11436100D01*
X16310700Y-11451975D01*
X16182903Y-11451975D01*
X16182913Y-11441002D01*
X16171868Y-11414272D01*
X16167900Y-11410298D01*
X16167900Y-11375769D01*
X16310700Y-11375769D01*
X16310700Y-11394825D01*
X16326575Y-11410700D01*
X16384200Y-11410700D01*
X16384200Y-11340775D01*
X16368325Y-11324900D01*
X16361569Y-11324900D01*
X16338230Y-11334567D01*
X16320367Y-11352430D01*
X16310700Y-11375769D01*
X16167900Y-11375769D01*
X16167900Y-11102975D01*
X16189900Y-11102975D01*
X16189900Y-11124531D01*
X16199567Y-11147870D01*
X16217430Y-11165733D01*
X16240769Y-11175400D01*
X16284825Y-11175400D01*
X16300700Y-11159525D01*
X16300700Y-11087100D01*
X16205775Y-11087100D01*
X16189900Y-11102975D01*
X16167900Y-11102975D01*
X16167900Y-11024269D01*
X16189900Y-11024269D01*
X16189900Y-11045825D01*
X16205775Y-11061700D01*
X16300700Y-11061700D01*
X16300700Y-10989275D01*
X16284825Y-10973400D01*
X16240769Y-10973400D01*
X16217430Y-10983067D01*
X16199567Y-11000930D01*
X16189900Y-11024269D01*
X16167900Y-11024269D01*
X16167900Y-11017924D01*
X16171796Y-11014035D01*
X16182887Y-10987324D01*
X16182913Y-10958403D01*
X16171868Y-10931673D01*
X16167900Y-10927698D01*
X16167900Y-10815041D01*
X16170200Y-10815041D01*
X16182318Y-10812761D01*
X16183909Y-10811736D01*
X16186367Y-10817670D01*
X16204230Y-10835533D01*
X16227569Y-10845200D01*
X16271625Y-10845200D01*
X16287500Y-10829325D01*
X16287500Y-10756900D01*
X16312900Y-10756900D01*
X16312900Y-10829325D01*
X16328775Y-10845200D01*
X16372831Y-10845200D01*
X16396170Y-10835533D01*
X16414033Y-10817670D01*
X16423700Y-10794331D01*
X16423700Y-10772775D01*
X16407825Y-10756900D01*
X16312900Y-10756900D01*
X16287500Y-10756900D01*
X16285500Y-10756900D01*
X16285500Y-10731500D01*
X16287500Y-10731500D01*
X16287500Y-10659075D01*
X16312900Y-10659075D01*
X16312900Y-10731500D01*
X16407825Y-10731500D01*
X16423700Y-10715625D01*
X16423700Y-10694069D01*
X16414033Y-10670730D01*
X16396170Y-10652867D01*
X16372831Y-10643200D01*
X16328775Y-10643200D01*
X16312900Y-10659075D01*
X16287500Y-10659075D01*
X16271625Y-10643200D01*
X16227569Y-10643200D01*
X16204230Y-10652867D01*
X16186367Y-10670730D01*
X16183965Y-10676529D01*
X16183171Y-10675986D01*
X16170200Y-10673359D01*
X16169546Y-10673359D01*
X16176287Y-10657124D01*
X16176313Y-10628203D01*
X16165268Y-10601473D01*
X16144835Y-10581004D01*
X16118124Y-10569913D01*
X16089202Y-10569887D01*
X16062472Y-10580932D01*
X16042004Y-10601365D01*
X16030913Y-10628076D01*
X16030887Y-10656998D01*
X16038553Y-10675551D01*
X16038082Y-10675640D01*
X16026953Y-10682801D01*
X16019486Y-10693729D01*
X16016859Y-10706700D01*
X15661293Y-10706700D01*
X15660450Y-10702459D01*
X15658295Y-10699235D01*
X15658311Y-10680983D01*
X15648785Y-10657930D01*
X15631163Y-10640277D01*
X15608126Y-10630711D01*
X15583183Y-10630689D01*
X15560130Y-10640215D01*
X15542476Y-10657837D01*
X15532911Y-10680874D01*
X15532895Y-10698759D01*
X15530100Y-10698759D01*
X15530100Y-10610600D01*
X15526850Y-10594259D01*
X15517593Y-10580407D01*
X15517593Y-10580406D01*
X15505898Y-10568711D01*
X15505911Y-10553983D01*
X15500216Y-10540200D01*
X16573500Y-10540200D01*
X16573500Y-11005605D01*
X16563400Y-11003559D01*
X16561100Y-11003559D01*
X16561100Y-10991600D01*
X16557300Y-10972498D01*
X16557313Y-10958403D01*
X16546268Y-10931673D01*
X16525835Y-10911204D01*
X16499124Y-10900113D01*
X16470202Y-10900087D01*
X16443472Y-10911132D01*
X16423004Y-10931565D01*
X16411913Y-10958276D01*
X16411889Y-10985586D01*
X16409370Y-10983067D01*
X16386031Y-10973400D01*
X16341975Y-10973400D01*
X16326100Y-10989275D01*
X16326100Y-11061700D01*
X16328100Y-11061700D01*
X16328100Y-11087100D01*
X16326100Y-11087100D01*
X16326100Y-11159525D01*
X16341975Y-11175400D01*
X16350338Y-11175400D01*
X16343486Y-11185429D01*
X16340859Y-11198400D01*
X16340859Y-11268400D01*
X16343139Y-11280518D01*
X16350301Y-11291647D01*
X16361229Y-11299114D01*
X16374200Y-11301741D01*
X16402379Y-11301741D01*
X16396511Y-11315873D01*
X16396489Y-11340817D01*
X16404200Y-11359479D01*
X16404200Y-11410700D01*
X16405859Y-11410700D01*
X16405859Y-11436100D01*
X16404200Y-11436100D01*
X16404200Y-11500556D01*
X16396511Y-11519073D01*
X16396489Y-11544017D01*
X16406014Y-11567070D01*
X16423637Y-11584723D01*
X16446673Y-11594289D01*
X16471617Y-11594311D01*
X16494670Y-11584785D01*
X16512323Y-11567163D01*
X16521889Y-11544126D01*
X16521902Y-11529285D01*
X16554393Y-11496794D01*
X16554393Y-11496793D01*
X16561537Y-11486102D01*
X16567447Y-11482299D01*
X16573500Y-11473441D01*
X16573500Y-11799800D01*
X12220200Y-11799800D01*
X12220200Y-11436254D01*
X12246586Y-11500113D01*
X12295828Y-11549441D01*
X12360198Y-11576169D01*
X12429896Y-11576230D01*
X12494313Y-11549614D01*
X12543641Y-11500372D01*
X12570369Y-11436002D01*
X12570430Y-11366303D01*
X12543814Y-11301887D01*
X12494572Y-11252559D01*
X12430202Y-11225830D01*
X12360503Y-11225770D01*
X12296087Y-11252386D01*
X12246759Y-11301628D01*
X12220200Y-11365589D01*
X12220200Y-11204575D01*
X12976800Y-11204575D01*
X12976800Y-11226131D01*
X12986467Y-11249470D01*
X13004330Y-11267333D01*
X13027669Y-11277000D01*
X13071725Y-11277000D01*
X13087600Y-11261125D01*
X13087600Y-11188700D01*
X12992675Y-11188700D01*
X12976800Y-11204575D01*
X12220200Y-11204575D01*
X12220200Y-10986254D01*
X12246586Y-11050113D01*
X12295828Y-11099441D01*
X12360198Y-11126170D01*
X12429896Y-11126230D01*
X12430771Y-11125869D01*
X12976800Y-11125869D01*
X12976800Y-11147425D01*
X12992675Y-11163300D01*
X13087600Y-11163300D01*
X13087600Y-11090875D01*
X13071725Y-11075000D01*
X13027669Y-11075000D01*
X13004330Y-11084667D01*
X12986467Y-11102530D01*
X12976800Y-11125869D01*
X12430771Y-11125869D01*
X12494313Y-11099614D01*
X12543641Y-11050372D01*
X12570369Y-10986002D01*
X12570430Y-10916304D01*
X12543814Y-10851887D01*
X12494572Y-10802559D01*
X12430202Y-10775831D01*
X12360503Y-10775770D01*
X12296087Y-10802386D01*
X12246759Y-10851628D01*
X12220200Y-10915590D01*
X12220200Y-10540200D01*
X13577341Y-10540200D01*
X13561276Y-10556237D01*
G36*
X17679800Y-11799800D02*
X16649700Y-11799800D01*
X16649700Y-11444628D01*
X16996083Y-11444628D01*
X17010986Y-11480697D01*
X17038558Y-11508317D01*
X17074601Y-11523283D01*
X17113628Y-11523317D01*
X17149697Y-11508414D01*
X17177317Y-11480842D01*
X17180745Y-11472585D01*
X17190600Y-11466000D01*
X17319400Y-11337200D01*
X17331908Y-11318481D01*
X17336300Y-11296400D01*
X17336300Y-11196041D01*
X17338600Y-11196041D01*
X17350718Y-11193760D01*
X17352310Y-11192736D01*
X17354767Y-11198670D01*
X17372630Y-11216533D01*
X17395969Y-11226200D01*
X17440025Y-11226200D01*
X17455900Y-11210325D01*
X17455900Y-11137900D01*
X17481300Y-11137900D01*
X17481300Y-11210325D01*
X17497175Y-11226200D01*
X17541231Y-11226200D01*
X17564570Y-11216533D01*
X17582433Y-11198670D01*
X17592100Y-11175331D01*
X17592100Y-11153775D01*
X17576225Y-11137900D01*
X17481300Y-11137900D01*
X17455900Y-11137900D01*
X17453900Y-11137900D01*
X17453900Y-11112500D01*
X17455900Y-11112500D01*
X17455900Y-11040075D01*
X17481300Y-11040075D01*
X17481300Y-11112500D01*
X17576225Y-11112500D01*
X17592100Y-11096625D01*
X17592100Y-11075069D01*
X17582433Y-11051730D01*
X17564570Y-11033867D01*
X17541231Y-11024200D01*
X17497175Y-11024200D01*
X17481300Y-11040075D01*
X17455900Y-11040075D01*
X17440025Y-11024200D01*
X17395969Y-11024200D01*
X17372630Y-11033867D01*
X17354767Y-11051730D01*
X17352365Y-11057529D01*
X17351571Y-11056986D01*
X17338600Y-11054359D01*
X17336300Y-11054359D01*
X17336300Y-10776201D01*
X17336300Y-10776200D01*
X17331908Y-10754119D01*
X17331139Y-10752969D01*
X17319400Y-10735400D01*
X17319400Y-10735400D01*
X17268508Y-10684508D01*
X17268513Y-10679003D01*
X17257468Y-10652273D01*
X17237035Y-10631804D01*
X17210324Y-10620713D01*
X17181403Y-10620687D01*
X17154673Y-10631732D01*
X17134204Y-10652165D01*
X17123113Y-10678876D01*
X17123095Y-10698769D01*
X17112388Y-10695039D01*
X17061193Y-10697987D01*
X17027586Y-10711907D01*
X17021969Y-10735008D01*
X17094200Y-10807240D01*
X17095614Y-10805825D01*
X17113575Y-10823786D01*
X17112161Y-10825200D01*
X17184392Y-10897431D01*
X17207493Y-10891814D01*
X17220900Y-10853323D01*
X17220900Y-11054359D01*
X17218600Y-11054359D01*
X17206482Y-11056640D01*
X17195353Y-11063801D01*
X17187886Y-11074729D01*
X17185259Y-11087700D01*
X17185259Y-11162700D01*
X17187540Y-11174818D01*
X17194701Y-11185947D01*
X17205629Y-11193414D01*
X17218600Y-11196041D01*
X17220900Y-11196041D01*
X17220900Y-11272500D01*
X17150578Y-11342821D01*
X17149842Y-11342083D01*
X17113799Y-11327117D01*
X17074772Y-11327083D01*
X17038703Y-11341986D01*
X17011083Y-11369558D01*
X16996117Y-11405601D01*
X16996083Y-11444628D01*
X16649700Y-11444628D01*
X16649700Y-11175200D01*
X16838059Y-11175200D01*
X16838059Y-11295200D01*
X16840340Y-11307318D01*
X16847501Y-11318447D01*
X16858429Y-11325914D01*
X16871400Y-11328541D01*
X16961400Y-11328541D01*
X16973518Y-11326260D01*
X16984647Y-11319099D01*
X16992114Y-11308171D01*
X16994741Y-11295200D01*
X16994741Y-11282900D01*
X17013186Y-11282900D01*
X17038558Y-11308317D01*
X17074601Y-11323283D01*
X17113628Y-11323317D01*
X17149697Y-11308414D01*
X17177317Y-11280842D01*
X17192283Y-11244799D01*
X17192317Y-11205772D01*
X17177414Y-11169703D01*
X17149842Y-11142083D01*
X17113799Y-11127117D01*
X17074772Y-11127083D01*
X17038703Y-11141986D01*
X17011083Y-11169558D01*
X17003633Y-11187500D01*
X16994741Y-11187500D01*
X16994741Y-11175200D01*
X16992461Y-11163082D01*
X16985299Y-11151953D01*
X16974371Y-11144486D01*
X16961400Y-11141859D01*
X16871400Y-11141859D01*
X16859282Y-11144140D01*
X16848153Y-11151301D01*
X16840686Y-11162229D01*
X16838059Y-11175200D01*
X16649700Y-11175200D01*
X16649700Y-10955200D01*
X16838059Y-10955200D01*
X16838059Y-11075200D01*
X16840340Y-11087318D01*
X16847501Y-11098447D01*
X16858429Y-11105914D01*
X16871400Y-11108541D01*
X16961400Y-11108541D01*
X16973518Y-11106261D01*
X16984647Y-11099099D01*
X16992114Y-11088171D01*
X16994741Y-11075200D01*
X16994741Y-11062900D01*
X17003633Y-11062900D01*
X17010986Y-11080697D01*
X17038558Y-11108317D01*
X17074601Y-11123283D01*
X17113628Y-11123317D01*
X17149697Y-11108414D01*
X17177317Y-11080842D01*
X17192283Y-11044799D01*
X17192317Y-11005772D01*
X17177414Y-10969703D01*
X17150515Y-10942758D01*
X17160814Y-10938493D01*
X17166431Y-10915392D01*
X17094200Y-10843161D01*
X17021969Y-10915392D01*
X17027586Y-10938493D01*
X17038422Y-10942267D01*
X17013145Y-10967500D01*
X16994741Y-10967500D01*
X16994741Y-10955200D01*
X16992461Y-10943082D01*
X16985299Y-10931953D01*
X16974371Y-10924486D01*
X16961400Y-10921859D01*
X16871400Y-10921859D01*
X16859282Y-10924140D01*
X16848153Y-10931301D01*
X16840686Y-10942229D01*
X16838059Y-10955200D01*
X16649700Y-10955200D01*
X16649700Y-10807012D01*
X16964039Y-10807012D01*
X16966987Y-10858207D01*
X16980907Y-10891814D01*
X17004008Y-10897431D01*
X17076240Y-10825200D01*
X17004008Y-10752969D01*
X16980907Y-10758586D01*
X16964039Y-10807012D01*
X16649700Y-10807012D01*
X16649700Y-10540200D01*
X17679800Y-10540200D01*
X17679800Y-11799800D01*
X17679800Y-11799800D01*
G37*
X17679800Y-11799800D02*
X16649700Y-11799800D01*
X16649700Y-11444628D01*
X16996083Y-11444628D01*
X17010986Y-11480697D01*
X17038558Y-11508317D01*
X17074601Y-11523283D01*
X17113628Y-11523317D01*
X17149697Y-11508414D01*
X17177317Y-11480842D01*
X17180745Y-11472585D01*
X17190600Y-11466000D01*
X17319400Y-11337200D01*
X17331908Y-11318481D01*
X17336300Y-11296400D01*
X17336300Y-11196041D01*
X17338600Y-11196041D01*
X17350718Y-11193760D01*
X17352310Y-11192736D01*
X17354767Y-11198670D01*
X17372630Y-11216533D01*
X17395969Y-11226200D01*
X17440025Y-11226200D01*
X17455900Y-11210325D01*
X17455900Y-11137900D01*
X17481300Y-11137900D01*
X17481300Y-11210325D01*
X17497175Y-11226200D01*
X17541231Y-11226200D01*
X17564570Y-11216533D01*
X17582433Y-11198670D01*
X17592100Y-11175331D01*
X17592100Y-11153775D01*
X17576225Y-11137900D01*
X17481300Y-11137900D01*
X17455900Y-11137900D01*
X17453900Y-11137900D01*
X17453900Y-11112500D01*
X17455900Y-11112500D01*
X17455900Y-11040075D01*
X17481300Y-11040075D01*
X17481300Y-11112500D01*
X17576225Y-11112500D01*
X17592100Y-11096625D01*
X17592100Y-11075069D01*
X17582433Y-11051730D01*
X17564570Y-11033867D01*
X17541231Y-11024200D01*
X17497175Y-11024200D01*
X17481300Y-11040075D01*
X17455900Y-11040075D01*
X17440025Y-11024200D01*
X17395969Y-11024200D01*
X17372630Y-11033867D01*
X17354767Y-11051730D01*
X17352365Y-11057529D01*
X17351571Y-11056986D01*
X17338600Y-11054359D01*
X17336300Y-11054359D01*
X17336300Y-10776201D01*
X17336300Y-10776200D01*
X17331908Y-10754119D01*
X17331139Y-10752969D01*
X17319400Y-10735400D01*
X17319400Y-10735400D01*
X17268508Y-10684508D01*
X17268513Y-10679003D01*
X17257468Y-10652273D01*
X17237035Y-10631804D01*
X17210324Y-10620713D01*
X17181403Y-10620687D01*
X17154673Y-10631732D01*
X17134204Y-10652165D01*
X17123113Y-10678876D01*
X17123095Y-10698769D01*
X17112388Y-10695039D01*
X17061193Y-10697987D01*
X17027586Y-10711907D01*
X17021969Y-10735008D01*
X17094200Y-10807240D01*
X17095614Y-10805825D01*
X17113575Y-10823786D01*
X17112161Y-10825200D01*
X17184392Y-10897431D01*
X17207493Y-10891814D01*
X17220900Y-10853323D01*
X17220900Y-11054359D01*
X17218600Y-11054359D01*
X17206482Y-11056640D01*
X17195353Y-11063801D01*
X17187886Y-11074729D01*
X17185259Y-11087700D01*
X17185259Y-11162700D01*
X17187540Y-11174818D01*
X17194701Y-11185947D01*
X17205629Y-11193414D01*
X17218600Y-11196041D01*
X17220900Y-11196041D01*
X17220900Y-11272500D01*
X17150578Y-11342821D01*
X17149842Y-11342083D01*
X17113799Y-11327117D01*
X17074772Y-11327083D01*
X17038703Y-11341986D01*
X17011083Y-11369558D01*
X16996117Y-11405601D01*
X16996083Y-11444628D01*
X16649700Y-11444628D01*
X16649700Y-11175200D01*
X16838059Y-11175200D01*
X16838059Y-11295200D01*
X16840340Y-11307318D01*
X16847501Y-11318447D01*
X16858429Y-11325914D01*
X16871400Y-11328541D01*
X16961400Y-11328541D01*
X16973518Y-11326260D01*
X16984647Y-11319099D01*
X16992114Y-11308171D01*
X16994741Y-11295200D01*
X16994741Y-11282900D01*
X17013186Y-11282900D01*
X17038558Y-11308317D01*
X17074601Y-11323283D01*
X17113628Y-11323317D01*
X17149697Y-11308414D01*
X17177317Y-11280842D01*
X17192283Y-11244799D01*
X17192317Y-11205772D01*
X17177414Y-11169703D01*
X17149842Y-11142083D01*
X17113799Y-11127117D01*
X17074772Y-11127083D01*
X17038703Y-11141986D01*
X17011083Y-11169558D01*
X17003633Y-11187500D01*
X16994741Y-11187500D01*
X16994741Y-11175200D01*
X16992461Y-11163082D01*
X16985299Y-11151953D01*
X16974371Y-11144486D01*
X16961400Y-11141859D01*
X16871400Y-11141859D01*
X16859282Y-11144140D01*
X16848153Y-11151301D01*
X16840686Y-11162229D01*
X16838059Y-11175200D01*
X16649700Y-11175200D01*
X16649700Y-10955200D01*
X16838059Y-10955200D01*
X16838059Y-11075200D01*
X16840340Y-11087318D01*
X16847501Y-11098447D01*
X16858429Y-11105914D01*
X16871400Y-11108541D01*
X16961400Y-11108541D01*
X16973518Y-11106261D01*
X16984647Y-11099099D01*
X16992114Y-11088171D01*
X16994741Y-11075200D01*
X16994741Y-11062900D01*
X17003633Y-11062900D01*
X17010986Y-11080697D01*
X17038558Y-11108317D01*
X17074601Y-11123283D01*
X17113628Y-11123317D01*
X17149697Y-11108414D01*
X17177317Y-11080842D01*
X17192283Y-11044799D01*
X17192317Y-11005772D01*
X17177414Y-10969703D01*
X17150515Y-10942758D01*
X17160814Y-10938493D01*
X17166431Y-10915392D01*
X17094200Y-10843161D01*
X17021969Y-10915392D01*
X17027586Y-10938493D01*
X17038422Y-10942267D01*
X17013145Y-10967500D01*
X16994741Y-10967500D01*
X16994741Y-10955200D01*
X16992461Y-10943082D01*
X16985299Y-10931953D01*
X16974371Y-10924486D01*
X16961400Y-10921859D01*
X16871400Y-10921859D01*
X16859282Y-10924140D01*
X16848153Y-10931301D01*
X16840686Y-10942229D01*
X16838059Y-10955200D01*
X16649700Y-10955200D01*
X16649700Y-10807012D01*
X16964039Y-10807012D01*
X16966987Y-10858207D01*
X16980907Y-10891814D01*
X17004008Y-10897431D01*
X17076240Y-10825200D01*
X17004008Y-10752969D01*
X16980907Y-10758586D01*
X16964039Y-10807012D01*
X16649700Y-10807012D01*
X16649700Y-10540200D01*
X17679800Y-10540200D01*
X17679800Y-11799800D01*
M02*
