M48
INCH,LZ
%
T01C0.011800
X018303Y012270
X018599Y012074
X018894Y012270
X018894Y011877
X018303Y011877
X017295Y012092
X017295Y011654
X017295Y012529
X017670Y013154
X017420Y014904
X015420Y014785
X014664Y017655
X012232Y017092
X019858Y017655
X022671Y017092
X021170Y012592
X019733Y012529
X019733Y012092
X019733Y011654
X020795Y010779
X020620Y008642
X020421Y007967
X018358Y008642
X018483Y010779
X017670Y006154
X013977Y005722
X012008Y003149
X013977Y002193
X021851Y002193
X018303Y036892
X018599Y036696
X018894Y036892
X018894Y036499
X018303Y036499
X017295Y036714
X017295Y036276
X017295Y037151
X017670Y037776
X017420Y039526
X015420Y039407
X014664Y042277
X012232Y041714
X019858Y042277
X022671Y041714
X021170Y037214
X019733Y037151
X019733Y036714
X019733Y036276
X020795Y035401
X020620Y033264
X020421Y032589
X018358Y033264
X018483Y035401
X017670Y030776
X013977Y030344
X012008Y027771
X013977Y026815
X021851Y026815
X052768Y012270
X053064Y012074
X053359Y012270
X053359Y011877
X052768Y011877
X051760Y012092
X051760Y011654
X051760Y012529
X052135Y013154
X051885Y014904
X049885Y014785
X049129Y017655
X046697Y017092
X054323Y017655
X057136Y017092
X055635Y012592
X054198Y012529
X054198Y012092
X054198Y011654
X055260Y010779
X055085Y008642
X054886Y007967
X052823Y008642
X052948Y010779
X052135Y006154
X048442Y005722
X046473Y003149
X048442Y002193
X056316Y002193
X018303Y061514
X018599Y061318
X018894Y061514
X018894Y061121
X018303Y061121
X017295Y061336
X017295Y060898
X017295Y061773
X017670Y062398
X017420Y064148
X015420Y064029
X014664Y066899
X012232Y066336
X019858Y066899
X022671Y066336
X021170Y061836
X019733Y061773
X019733Y061336
X019733Y060898
X020795Y060023
X020620Y057886
X020421Y057211
X018358Y057886
X018483Y060023
X017670Y055398
X013977Y054966
X012008Y052393
X013977Y051437
X021851Y051437
X052768Y036892
X053064Y036696
X053359Y036892
X053359Y036499
X052768Y036499
X051760Y036714
X051760Y036276
X051760Y037151
X052135Y037776
X051885Y039526
X049885Y039407
X049129Y042277
X046697Y041714
X054323Y042277
X057136Y041714
X055635Y037214
X054198Y037151
X054198Y036714
X054198Y036276
X055260Y035401
X055085Y033264
X054886Y032589
X052823Y033264
X052948Y035401
X052135Y030776
X048442Y030344
X046473Y027771
X048442Y026815
X056316Y026815
X018303Y086136
X018599Y085940
X018894Y086136
X018894Y085743
X018303Y085743
X017295Y085958
X017295Y085520
X017295Y086395
X017670Y087020
X017420Y088770
X015420Y088651
X014664Y091521
X012232Y090958
X019858Y091521
X022671Y090958
X021170Y086458
X019733Y086395
X019733Y085958
X019733Y085520
X020795Y084645
X020620Y082508
X020421Y081833
X018358Y082508
X018483Y084645
X017670Y080020
X013977Y079588
X012008Y077015
X013977Y076059
X021851Y076059
X052768Y061514
X053064Y061318
X053359Y061514
X053359Y061121
X052768Y061121
X051760Y061336
X051760Y060898
X051760Y061773
X052135Y062398
X051885Y064148
X049885Y064029
X049129Y066899
X046697Y066336
X054323Y066899
X057136Y066336
X055635Y061836
X054198Y061773
X054198Y061336
X054198Y060898
X055260Y060023
X055085Y057886
X054886Y057211
X052823Y057886
X052948Y060023
X052135Y055398
X048442Y054966
X046473Y052393
X048442Y051437
X056316Y051437
X052768Y086136
X053064Y085940
X053359Y086136
X053359Y085743
X052768Y085743
X051760Y085958
X051760Y085520
X051760Y086395
X052135Y087020
X051885Y088770
X049885Y088651
X049129Y091521
X046697Y090958
X054323Y091521
X057136Y090958
X055635Y086458
X054198Y086395
X054198Y085958
X054198Y085520
X055260Y084645
X055085Y082508
X054886Y081833
X052823Y082508
X052948Y084645
X052135Y080020
X048442Y079588
X046473Y077015
X048442Y076059
X056316Y076059
X018303Y110758
X018599Y110562
X018894Y110758
X018894Y110365
X018303Y110365
X017295Y110580
X017295Y110142
X017295Y111017
X017670Y111642
X017420Y113392
X015420Y113273
X014664Y116143
X012232Y115580
X019858Y116143
X022671Y115580
X021170Y111080
X019733Y111017
X019733Y110580
X019733Y110142
X020795Y109267
X020620Y107130
X020421Y106455
X018358Y107130
X018483Y109267
X017670Y104642
X013977Y104210
X012008Y101637
X013977Y100681
X021851Y100681
X052768Y110758
X053064Y110562
X053359Y110758
X053359Y110365
X052768Y110365
X051760Y110580
X051760Y110142
X051760Y111017
X052135Y111642
X051885Y113392
X049885Y113273
X049129Y116143
X046697Y115580
X054323Y116143
X057136Y115580
X055635Y111080
X054198Y111017
X054198Y110580
X054198Y110142
X055260Y109267
X055085Y107130
X054886Y106455
X052823Y107130
X052948Y109267
X052135Y104642
X048442Y104210
X046473Y101637
X048442Y100681
X056316Y100681
T02C0.019400
X017358Y014154
X018858Y015654
X019670Y015654
X022233Y013529
X022233Y012779
X022796Y012779
X022233Y012029
X020420Y011529
X020420Y009967
X021733Y007819
X022983Y007819
X022983Y005654
X021733Y005654
X019754Y004527
X018504Y004527
X015748Y004527
X014498Y004527
X016045Y006654
X016045Y007404
X015420Y009279
X015420Y010467
X019170Y007404
X013983Y016404
X016483Y020154
X017483Y020154
X017358Y038776
X018858Y040276
X019670Y040276
X022233Y038151
X022233Y037401
X022796Y037401
X022233Y036651
X020420Y036151
X020420Y034589
X021733Y032441
X022983Y032441
X022983Y030276
X021733Y030276
X019754Y029149
X018504Y029149
X015748Y029149
X014498Y029149
X016045Y031276
X016045Y032026
X015420Y033901
X015420Y035089
X019170Y032026
X013983Y041026
X016483Y044776
X017483Y044776
X051823Y014154
X053323Y015654
X054135Y015654
X056698Y013529
X056698Y012779
X057261Y012779
X056698Y012029
X054885Y011529
X054885Y009967
X056198Y007819
X057448Y007819
X057448Y005654
X056198Y005654
X054219Y004527
X052969Y004527
X050213Y004527
X048963Y004527
X050510Y006654
X050510Y007404
X049885Y009279
X049885Y010467
X053635Y007404
X048448Y016404
X050948Y020154
X051948Y020154
X073399Y016632
X073538Y006374
X073538Y005124
X074788Y005874
X075038Y005374
X075538Y005124
X076038Y004124
X076038Y003124
X076913Y006499
X077038Y007374
X076538Y007624
X078288Y007874
X079163Y008194
X080163Y007485
X080163Y006874
X078288Y006874
X080163Y004874
X082288Y004874
X082288Y006874
X082288Y007485
X081163Y008749
X076288Y009374
X075288Y009374
X074538Y008624
X073663Y010249
X075288Y011874
X076288Y011874
X017358Y063398
X018858Y064898
X019670Y064898
X022233Y062773
X022233Y062023
X022796Y062023
X022233Y061273
X020420Y060773
X020420Y059211
X021733Y057063
X022983Y057063
X022983Y054898
X021733Y054898
X019754Y053771
X018504Y053771
X015748Y053771
X014498Y053771
X016045Y055898
X016045Y056648
X015420Y058523
X015420Y059711
X019170Y056648
X013983Y065648
X016483Y069398
X017483Y069398
X051823Y038776
X053323Y040276
X054135Y040276
X056698Y038151
X056698Y037401
X057261Y037401
X056698Y036651
X054885Y036151
X054885Y034589
X056198Y032441
X057448Y032441
X057448Y030276
X056198Y030276
X054219Y029149
X052969Y029149
X050213Y029149
X048963Y029149
X050510Y031276
X050510Y032026
X049885Y033901
X049885Y035089
X053635Y032026
X048448Y041026
X050948Y044776
X051948Y044776
X017358Y088020
X018858Y089520
X019670Y089520
X022233Y087395
X022233Y086645
X022796Y086645
X022233Y085895
X020420Y085395
X020420Y083833
X021733Y081685
X022983Y081685
X022983Y079520
X021733Y079520
X019754Y078393
X018504Y078393
X015748Y078393
X014498Y078393
X016045Y080520
X016045Y081270
X015420Y083145
X015420Y084333
X019170Y081270
X013983Y090270
X016483Y094020
X017483Y094020
X051823Y063398
X053323Y064898
X054135Y064898
X056698Y062773
X056698Y062023
X057261Y062023
X056698Y061273
X054885Y060773
X054885Y059211
X056198Y057063
X057448Y057063
X057448Y054898
X056198Y054898
X054219Y053771
X052969Y053771
X050213Y053771
X048963Y053771
X050510Y055898
X050510Y056648
X049885Y058523
X049885Y059711
X053635Y056648
X048448Y065648
X050948Y069398
X051948Y069398
X073399Y035349
X073538Y025091
X073538Y023841
X074788Y024591
X075038Y024091
X075538Y023841
X076038Y022841
X076038Y021841
X076913Y025216
X077038Y026091
X076538Y026341
X078288Y026591
X079163Y026911
X080163Y026202
X080163Y025591
X078288Y025591
X080163Y023591
X082288Y023591
X082288Y025591
X082288Y026202
X081163Y027466
X076288Y028091
X075288Y028091
X074538Y027341
X073663Y028966
X075288Y030591
X076288Y030591
X051823Y088020
X053323Y089520
X054135Y089520
X056698Y087395
X056698Y086645
X057261Y086645
X056698Y085895
X054885Y085395
X054885Y083833
X056198Y081685
X057448Y081685
X057448Y079520
X056198Y079520
X054219Y078393
X052969Y078393
X050213Y078393
X048963Y078393
X050510Y080520
X050510Y081270
X049885Y083145
X049885Y084333
X053635Y081270
X048448Y090270
X050948Y094020
X051948Y094020
X073399Y054066
X073538Y043808
X073538Y042558
X074788Y043308
X075038Y042808
X075538Y042558
X076038Y041558
X076038Y040558
X076913Y043933
X077038Y044808
X076538Y045058
X078288Y045308
X079163Y045628
X080163Y044919
X080163Y044308
X078288Y044308
X080163Y042308
X082288Y042308
X082288Y044308
X082288Y044919
X081163Y046183
X076288Y046808
X075288Y046808
X074538Y046058
X073663Y047683
X075288Y049308
X076288Y049308
X073399Y072783
X073538Y062525
X073538Y061275
X074788Y062025
X075038Y061525
X075538Y061275
X076038Y060275
X076038Y059275
X076913Y062650
X077038Y063525
X076538Y063775
X078288Y064025
X079163Y064345
X080163Y063636
X080163Y063025
X078288Y063025
X080163Y061025
X082288Y061025
X082288Y063025
X082288Y063636
X081163Y064900
X076288Y065525
X075288Y065525
X074538Y064775
X073663Y066400
X075288Y068025
X076288Y068025
X017358Y112642
X018858Y114142
X019670Y114142
X022233Y112017
X022233Y111267
X022796Y111267
X022233Y110517
X020420Y110017
X020420Y108455
X021733Y106307
X022983Y106307
X022983Y104142
X021733Y104142
X019754Y103015
X018504Y103015
X015748Y103015
X014498Y103015
X016045Y105142
X016045Y105892
X015420Y107767
X015420Y108955
X019170Y105892
X013983Y114892
X016483Y118642
X017483Y118642
X051823Y112642
X053323Y114142
X054135Y114142
X056698Y112017
X056698Y111267
X057261Y111267
X056698Y110517
X054885Y110017
X054885Y108455
X056198Y106307
X057448Y106307
X057448Y104142
X056198Y104142
X054219Y103015
X052969Y103015
X050213Y103015
X048963Y103015
X050510Y105142
X050510Y105892
X049885Y107767
X049885Y108955
X053635Y105892
X048448Y114892
X050948Y118642
X051948Y118642
X073399Y091500
X073538Y081242
X073538Y079992
X074788Y080742
X075038Y080242
X075538Y079992
X076038Y078992
X076038Y077992
X076913Y081367
X077038Y082242
X076538Y082492
X078288Y082742
X079163Y083062
X080163Y082353
X080163Y081742
X078288Y081742
X080163Y079742
X082288Y079742
X082288Y081742
X082288Y082353
X081163Y083617
X076288Y084242
X075288Y084242
X074538Y083492
X073663Y085117
X075288Y086742
X076288Y086742
X073399Y110217
X073538Y099959
X073538Y098709
X074788Y099459
X075038Y098959
X075538Y098709
X076038Y097709
X076038Y096709
X076913Y100084
X077038Y100959
X076538Y101209
X078288Y101459
X079163Y101779
X080163Y101070
X080163Y100459
X078288Y100459
X080163Y098459
X082288Y098459
X082288Y100459
X082288Y101070
X081163Y102334
X076288Y102959
X075288Y102959
X074538Y102209
X073663Y103834
X075288Y105459
X076288Y105459
T03C0.024600
X020670Y001681
X020670Y000618
X012796Y000599
X012796Y001662
X020670Y026303
X020670Y025240
X012796Y025221
X012796Y026284
X055135Y001681
X055135Y000618
X047261Y000599
X047261Y001662
X082178Y009624
X082178Y010124
X082178Y010624
X082178Y011124
X082178Y011624
X082178Y012124
X082178Y012624
X082178Y013124
X082178Y013624
X082178Y014124
X082178Y014624
X082178Y015124
X082178Y015624
X082178Y016124
X082178Y016624
X081678Y016624
X081678Y016124
X081678Y015624
X081678Y015124
X081678Y014624
X081678Y014124
X081678Y013624
X081678Y013124
X081678Y012624
X081678Y012124
X081678Y011624
X081678Y011124
X081678Y010624
X081678Y010124
X081678Y009624
X073899Y012132
X073899Y012632
X073899Y013132
X073899Y013632
X073899Y014132
X073899Y014632
X073899Y015132
X073899Y015632
X073899Y016132
X073899Y016632
X073399Y016132
X073399Y015632
X073399Y015132
X073399Y014632
X073399Y014132
X073399Y013632
X073399Y013132
X073399Y012632
X073399Y012132
X020670Y050925
X020670Y049862
X012796Y049843
X012796Y050906
X055135Y026303
X055135Y025240
X047261Y025221
X047261Y026284
X020670Y075547
X020670Y074484
X012796Y074465
X012796Y075528
X055135Y050925
X055135Y049862
X047261Y049843
X047261Y050906
X082178Y028341
X082178Y028841
X082178Y029341
X082178Y029841
X082178Y030341
X082178Y030841
X082178Y031341
X082178Y031841
X082178Y032341
X082178Y032841
X082178Y033341
X082178Y033841
X082178Y034341
X082178Y034841
X082178Y035341
X081678Y035341
X081678Y034841
X081678Y034341
X081678Y033841
X081678Y033341
X081678Y032841
X081678Y032341
X081678Y031841
X081678Y031341
X081678Y030841
X081678Y030341
X081678Y029841
X081678Y029341
X081678Y028841
X081678Y028341
X073899Y030849
X073899Y031349
X073899Y031849
X073899Y032349
X073899Y032849
X073899Y033349
X073899Y033849
X073899Y034349
X073899Y034849
X073899Y035349
X073399Y034849
X073399Y034349
X073399Y033849
X073399Y033349
X073399Y032849
X073399Y032349
X073399Y031849
X073399Y031349
X073399Y030849
X055135Y075547
X055135Y074484
X047261Y074465
X047261Y075528
X082178Y047058
X082178Y047558
X082178Y048058
X082178Y048558
X082178Y049058
X082178Y049558
X082178Y050058
X082178Y050558
X082178Y051058
X082178Y051558
X082178Y052058
X082178Y052558
X082178Y053058
X082178Y053558
X082178Y054058
X081678Y054058
X081678Y053558
X081678Y053058
X081678Y052558
X081678Y052058
X081678Y051558
X081678Y051058
X081678Y050558
X081678Y050058
X081678Y049558
X081678Y049058
X081678Y048558
X081678Y048058
X081678Y047558
X081678Y047058
X073899Y049566
X073899Y050066
X073899Y050566
X073899Y051066
X073899Y051566
X073899Y052066
X073899Y052566
X073899Y053066
X073899Y053566
X073899Y054066
X073399Y053566
X073399Y053066
X073399Y052566
X073399Y052066
X073399Y051566
X073399Y051066
X073399Y050566
X073399Y050066
X073399Y049566
X082178Y065775
X082178Y066275
X082178Y066775
X082178Y067275
X082178Y067775
X082178Y068275
X082178Y068775
X082178Y069275
X082178Y069775
X082178Y070275
X082178Y070775
X082178Y071275
X082178Y071775
X082178Y072275
X082178Y072775
X081678Y072775
X081678Y072275
X081678Y071775
X081678Y071275
X081678Y070775
X081678Y070275
X081678Y069775
X081678Y069275
X081678Y068775
X081678Y068275
X081678Y067775
X081678Y067275
X081678Y066775
X081678Y066275
X081678Y065775
X073899Y068283
X073899Y068783
X073899Y069283
X073899Y069783
X073899Y070283
X073899Y070783
X073899Y071283
X073899Y071783
X073899Y072283
X073899Y072783
X073399Y072283
X073399Y071783
X073399Y071283
X073399Y070783
X073399Y070283
X073399Y069783
X073399Y069283
X073399Y068783
X073399Y068283
X020670Y100169
X020670Y099106
X012796Y099087
X012796Y100150
X055135Y100169
X055135Y099106
X047261Y099087
X047261Y100150
X082178Y084492
X082178Y084992
X082178Y085492
X082178Y085992
X082178Y086492
X082178Y086992
X082178Y087492
X082178Y087992
X082178Y088492
X082178Y088992
X082178Y089492
X082178Y089992
X082178Y090492
X082178Y090992
X082178Y091492
X081678Y091492
X081678Y090992
X081678Y090492
X081678Y089992
X081678Y089492
X081678Y088992
X081678Y088492
X081678Y087992
X081678Y087492
X081678Y086992
X081678Y086492
X081678Y085992
X081678Y085492
X081678Y084992
X081678Y084492
X073899Y087000
X073899Y087500
X073899Y088000
X073899Y088500
X073899Y089000
X073899Y089500
X073899Y090000
X073899Y090500
X073899Y091000
X073899Y091500
X073399Y091000
X073399Y090500
X073399Y090000
X073399Y089500
X073399Y089000
X073399Y088500
X073399Y088000
X073399Y087500
X073399Y087000
X082178Y103209
X082178Y103709
X082178Y104209
X082178Y104709
X082178Y105209
X082178Y105709
X082178Y106209
X082178Y106709
X082178Y107209
X082178Y107709
X082178Y108209
X082178Y108709
X082178Y109209
X082178Y109709
X082178Y110209
X081678Y110209
X081678Y109709
X081678Y109209
X081678Y108709
X081678Y108209
X081678Y107709
X081678Y107209
X081678Y106709
X081678Y106209
X081678Y105709
X081678Y105209
X081678Y104709
X081678Y104209
X081678Y103709
X081678Y103209
X073899Y105717
X073899Y106217
X073899Y106717
X073899Y107217
X073899Y107717
X073899Y108217
X073899Y108717
X073899Y109217
X073899Y109717
X073899Y110217
X073399Y109717
X073399Y109217
X073399Y108717
X073399Y108217
X073399Y107717
X073399Y107217
X073399Y106717
X073399Y106217
X073399Y105717
T04C0.035400
X079910Y003162
X080895Y003162
X081682Y003162
X082666Y003162
X079910Y021879
X080895Y021879
X081682Y021879
X082666Y021879
X079910Y040596
X080895Y040596
X081682Y040596
X082666Y040596
X079910Y059313
X080895Y059313
X081682Y059313
X082666Y059313
X079910Y078030
X080895Y078030
X081682Y078030
X082666Y078030
X079910Y096747
X080895Y096747
X081682Y096747
X082666Y096747
T05C0.041750
X008859Y009354
X008859Y010354
X008859Y011354
X008859Y012354
X008859Y013354
X008859Y014354
X008859Y015354
X008859Y016354
X008859Y017354
X008859Y018354
X008859Y019354
X008859Y020354
X024607Y020354
X024607Y019354
X024607Y018354
X024607Y017354
X024607Y016354
X024607Y015354
X024607Y014354
X024607Y013354
X024607Y012354
X024607Y011354
X024607Y010354
X024607Y009354
X008859Y033976
X008859Y034976
X008859Y035976
X008859Y036976
X008859Y037976
X008859Y038976
X008859Y039976
X008859Y040976
X008859Y041976
X008859Y042976
X008859Y043976
X008859Y044976
X024607Y044976
X024607Y043976
X024607Y042976
X024607Y041976
X024607Y040976
X024607Y039976
X024607Y038976
X024607Y037976
X024607Y036976
X024607Y035976
X024607Y034976
X024607Y033976
X043324Y009354
X043324Y010354
X043324Y011354
X043324Y012354
X043324Y013354
X043324Y014354
X043324Y015354
X043324Y016354
X043324Y017354
X043324Y018354
X043324Y019354
X043324Y020354
X059072Y020354
X059072Y019354
X059072Y018354
X059072Y017354
X059072Y016354
X059072Y015354
X059072Y014354
X059072Y013354
X059072Y012354
X059072Y011354
X059072Y010354
X059072Y009354
X070038Y001124
X071038Y001124
X072038Y001124
X073038Y001124
X074038Y001124
X075038Y001124
X076038Y001124
X069914Y003449
X069914Y004449
X069914Y005449
X069914Y006449
X069914Y007449
X069914Y008449
X069914Y009449
X069914Y010449
X069914Y011449
X069914Y012449
X069914Y013449
X069914Y014449
X085662Y014449
X085662Y013449
X085662Y012449
X085662Y011449
X085662Y010449
X085662Y009449
X085662Y008449
X085662Y007449
X085662Y006449
X085662Y005449
X085662Y004449
X085662Y003449
X008859Y058598
X008859Y059598
X008859Y060598
X008859Y061598
X008859Y062598
X008859Y063598
X008859Y064598
X008859Y065598
X008859Y066598
X008859Y067598
X008859Y068598
X008859Y069598
X024607Y069598
X024607Y068598
X024607Y067598
X024607Y066598
X024607Y065598
X024607Y064598
X024607Y063598
X024607Y062598
X024607Y061598
X024607Y060598
X024607Y059598
X024607Y058598
X043324Y033976
X043324Y034976
X043324Y035976
X043324Y036976
X043324Y037976
X043324Y038976
X043324Y039976
X043324Y040976
X043324Y041976
X043324Y042976
X043324Y043976
X043324Y044976
X059072Y044976
X059072Y043976
X059072Y042976
X059072Y041976
X059072Y040976
X059072Y039976
X059072Y038976
X059072Y037976
X059072Y036976
X059072Y035976
X059072Y034976
X059072Y033976
X008859Y083220
X008859Y084220
X008859Y085220
X008859Y086220
X008859Y087220
X008859Y088220
X008859Y089220
X008859Y090220
X008859Y091220
X008859Y092220
X008859Y093220
X008859Y094220
X024607Y094220
X024607Y093220
X024607Y092220
X024607Y091220
X024607Y090220
X024607Y089220
X024607Y088220
X024607Y087220
X024607Y086220
X024607Y085220
X024607Y084220
X024607Y083220
X043324Y058598
X043324Y059598
X043324Y060598
X043324Y061598
X043324Y062598
X043324Y063598
X043324Y064598
X043324Y065598
X043324Y066598
X043324Y067598
X043324Y068598
X043324Y069598
X059072Y069598
X059072Y068598
X059072Y067598
X059072Y066598
X059072Y065598
X059072Y064598
X059072Y063598
X059072Y062598
X059072Y061598
X059072Y060598
X059072Y059598
X059072Y058598
X070038Y019841
X071038Y019841
X072038Y019841
X073038Y019841
X074038Y019841
X075038Y019841
X076038Y019841
X069914Y022166
X069914Y023166
X069914Y024166
X069914Y025166
X069914Y026166
X069914Y027166
X069914Y028166
X069914Y029166
X069914Y030166
X069914Y031166
X069914Y032166
X069914Y033166
X085662Y033166
X085662Y032166
X085662Y031166
X085662Y030166
X085662Y029166
X085662Y028166
X085662Y027166
X085662Y026166
X085662Y025166
X085662Y024166
X085662Y023166
X085662Y022166
X043324Y083220
X043324Y084220
X043324Y085220
X043324Y086220
X043324Y087220
X043324Y088220
X043324Y089220
X043324Y090220
X043324Y091220
X043324Y092220
X043324Y093220
X043324Y094220
X059072Y094220
X059072Y093220
X059072Y092220
X059072Y091220
X059072Y090220
X059072Y089220
X059072Y088220
X059072Y087220
X059072Y086220
X059072Y085220
X059072Y084220
X059072Y083220
X070038Y038558
X071038Y038558
X072038Y038558
X073038Y038558
X074038Y038558
X075038Y038558
X076038Y038558
X069914Y040883
X069914Y041883
X069914Y042883
X069914Y043883
X069914Y044883
X069914Y045883
X069914Y046883
X069914Y047883
X069914Y048883
X069914Y049883
X069914Y050883
X069914Y051883
X085662Y051883
X085662Y050883
X085662Y049883
X085662Y048883
X085662Y047883
X085662Y046883
X085662Y045883
X085662Y044883
X085662Y043883
X085662Y042883
X085662Y041883
X085662Y040883
X070038Y057275
X071038Y057275
X072038Y057275
X073038Y057275
X074038Y057275
X075038Y057275
X076038Y057275
X069914Y059600
X069914Y060600
X069914Y061600
X069914Y062600
X069914Y063600
X069914Y064600
X069914Y065600
X069914Y066600
X069914Y067600
X069914Y068600
X069914Y069600
X069914Y070600
X085662Y070600
X085662Y069600
X085662Y068600
X085662Y067600
X085662Y066600
X085662Y065600
X085662Y064600
X085662Y063600
X085662Y062600
X085662Y061600
X085662Y060600
X085662Y059600
X008859Y107842
X008859Y108842
X008859Y109842
X008859Y110842
X008859Y111842
X008859Y112842
X008859Y113842
X008859Y114842
X008859Y115842
X008859Y116842
X008859Y117842
X008859Y118842
X024607Y118842
X024607Y117842
X024607Y116842
X024607Y115842
X024607Y114842
X024607Y113842
X024607Y112842
X024607Y111842
X024607Y110842
X024607Y109842
X024607Y108842
X024607Y107842
X043324Y107842
X043324Y108842
X043324Y109842
X043324Y110842
X043324Y111842
X043324Y112842
X043324Y113842
X043324Y114842
X043324Y115842
X043324Y116842
X043324Y117842
X043324Y118842
X059072Y118842
X059072Y117842
X059072Y116842
X059072Y115842
X059072Y114842
X059072Y113842
X059072Y112842
X059072Y111842
X059072Y110842
X059072Y109842
X059072Y108842
X059072Y107842
X070038Y075992
X071038Y075992
X072038Y075992
X073038Y075992
X074038Y075992
X075038Y075992
X076038Y075992
X069914Y078317
X069914Y079317
X069914Y080317
X069914Y081317
X069914Y082317
X069914Y083317
X069914Y084317
X069914Y085317
X069914Y086317
X069914Y087317
X069914Y088317
X069914Y089317
X085662Y089317
X085662Y088317
X085662Y087317
X085662Y086317
X085662Y085317
X085662Y084317
X085662Y083317
X085662Y082317
X085662Y081317
X085662Y080317
X085662Y079317
X085662Y078317
X070038Y094709
X071038Y094709
X072038Y094709
X073038Y094709
X074038Y094709
X075038Y094709
X076038Y094709
X069914Y097034
X069914Y098034
X069914Y099034
X069914Y100034
X069914Y101034
X069914Y102034
X069914Y103034
X069914Y104034
X069914Y105034
X069914Y106034
X069914Y107034
X069914Y108034
X085662Y108034
X085662Y107034
X085662Y106034
X085662Y105034
X085662Y104034
X085662Y103034
X085662Y102034
X085662Y101034
X085662Y100034
X085662Y099034
X085662Y098034
X085662Y097034
T06C0.047200
X004134Y001090
X004134Y022689
X029331Y022689
X029331Y001090
X004134Y025712
X004134Y047311
X029331Y047311
X029331Y025712
X038599Y001090
X038599Y022689
X063796Y022689
X063796Y001090
X004134Y050334
X004134Y071933
X029331Y071933
X029331Y050334
X038599Y025712
X038599Y047311
X063796Y047311
X063796Y025712
X004134Y074956
X004134Y096555
X029331Y096555
X029331Y074956
X038599Y050334
X038599Y071933
X063796Y071933
X063796Y050334
X038599Y074956
X038599Y096555
X063796Y096555
X063796Y074956
X004134Y099578
X004134Y121177
X029331Y121177
X029331Y099578
X038599Y099578
X038599Y121177
X063796Y121177
X063796Y099578
T07C0.091750
X001193Y001090
X026390Y001090
X001193Y025712
X026390Y025712
X035658Y001090
X060855Y001090
X078702Y002099
X083875Y002099
X001193Y050334
X026390Y050334
X035658Y025712
X060855Y025712
X001193Y074956
X026390Y074956
X035658Y050334
X060855Y050334
X078702Y020816
X083875Y020816
X035658Y074956
X060855Y074956
X078702Y039533
X083875Y039533
X078702Y058250
X083875Y058250
X001193Y099578
X026390Y099578
X035658Y099578
X060855Y099578
X078702Y076967
X083875Y076967
X078702Y095684
X083875Y095684
T08C0.125200
X004134Y005090
X004134Y018689
X029331Y018689
X029331Y005090
X004134Y029712
X004134Y043311
X029331Y043311
X029331Y029712
X038599Y005090
X038599Y018689
X063796Y018689
X063796Y005090
X004134Y054334
X004134Y067933
X029331Y067933
X029331Y054334
X038599Y029712
X038599Y043311
X063796Y043311
X063796Y029712
X004134Y078956
X004134Y092555
X029331Y092555
X029331Y078956
X038599Y054334
X038599Y067933
X063796Y067933
X063796Y054334
X038599Y078956
X038599Y092555
X063796Y092555
X063796Y078956
X004134Y103578
X004134Y117177
X029331Y117177
X029331Y103578
X038599Y103578
X038599Y117177
X063796Y117177
X063796Y103578
M30
