G75*
G70*
%OFA0B0*%
%FSLAX25Y25*%
%IPPOS*%
%LPD*%
%AMOC8*
5,1,8,0,0,1.08239X$1,22.5*
%
%ADD10R,0.06930X0.06930*%
%ADD11R,0.04090X0.03700*%
%ADD13C,0.02520*%
%ADD14C,0.02360*%
%ADD16R,0.08430X0.02910*%
%ADD22R,0.03540X0.05550*%
%ADD24R,0.07240X0.07240*%
%ADD30C,0.06850*%
%ADD34R,0.08030X0.08030*%
%ADD40R,0.04490X0.03310*%
%ADD41C,0.07240*%
%ADD44C,0.06930*%
%ADD45C,0.08030*%
%ADD47R,0.06850X0.06850*%
%ADD48R,0.04290X0.06060*%
%ADD54C,0.09290*%
%ADD55R,0.08430X0.05280*%
%ADD58R,0.04690X0.03110*%
%ADD61C,0.12520*%
%ADD62R,0.03110X0.04690*%
%ADD63R,0.10390X0.27320*%
%ADD67R,0.03900X0.06060*%
%ADD69R,0.04490X0.04490*%
%ADD72C,0.04880*%
%ADD75R,0.06060X0.04290*%
%ADD76C,0.13150*%
%ADD78R,0.03700X0.04090*%
X0000000Y0000000D02*
G75*
G01*
%LPD*%
D34*
X0041340Y0010900D03*
D45*
X0041340Y0226890D03*
D61*
X0041340Y0050900D03*
X0041340Y0186890D03*
D54*
X0011930Y0010900D03*
D11*
X0208580Y0144040D03*
X0208580Y0138930D03*
D48*
X0176490Y0074040D03*
X0169200Y0074040D03*
D10*
X0088590Y0093540D03*
D44*
X0088590Y0103540D03*
X0088590Y0113540D03*
X0088590Y0123540D03*
X0088590Y0133540D03*
X0088590Y0143540D03*
X0088590Y0153540D03*
X0088590Y0163540D03*
X0088590Y0173540D03*
X0088590Y0183540D03*
X0088590Y0193540D03*
X0088590Y0203540D03*
D10*
X0246070Y0093540D03*
D44*
X0246070Y0103540D03*
X0246070Y0113540D03*
X0246070Y0123540D03*
X0246070Y0133540D03*
X0246070Y0143540D03*
X0246070Y0153540D03*
X0246070Y0163540D03*
X0246070Y0173540D03*
X0246070Y0183540D03*
X0246070Y0193540D03*
X0246070Y0203540D03*
D75*
X0195970Y0141650D03*
X0195970Y0148940D03*
D48*
X0147320Y0200920D03*
X0154610Y0200920D03*
D78*
X0187950Y0141540D03*
X0182050Y0141540D03*
X0174200Y0157790D03*
X0180110Y0157790D03*
D62*
X0132320Y0179050D03*
X0139800Y0179050D03*
X0136060Y0188100D03*
D67*
X0170770Y0026530D03*
X0163880Y0026530D03*
D62*
X0212470Y0160460D03*
X0204990Y0160460D03*
X0208730Y0151400D03*
G36*
X0188780Y0125630D02*
X0188710Y0125300D01*
X0188500Y0125030D01*
X0188250Y0124890D01*
X0187950Y0124840D01*
X0187660Y0124890D01*
X0187410Y0125030D01*
X0187200Y0125310D01*
X0187130Y0125630D01*
X0187130Y0128240D01*
X0188780Y0128240D01*
X0188780Y0125630D01*
G37*
G36*
X0186810Y0125630D02*
X0186740Y0125300D01*
X0186530Y0125030D01*
X0186280Y0124890D01*
X0185990Y0124840D01*
X0185690Y0124890D01*
X0185440Y0125030D01*
X0185230Y0125310D01*
X0185160Y0125630D01*
X0185160Y0128240D01*
X0186810Y0128240D01*
X0186810Y0125630D01*
G37*
G36*
X0184840Y0125630D02*
X0184770Y0125300D01*
X0184560Y0125030D01*
X0184310Y0124890D01*
X0184020Y0124840D01*
X0183720Y0124890D01*
X0183470Y0125030D01*
X0183260Y0125310D01*
X0183190Y0125630D01*
X0183190Y0128240D01*
X0184840Y0128240D01*
X0184840Y0125630D01*
G37*
G36*
X0182880Y0125630D02*
X0182800Y0125300D01*
X0182590Y0125030D01*
X0182350Y0124890D01*
X0182050Y0124840D01*
X0181750Y0124890D01*
X0181510Y0125030D01*
X0181290Y0125310D01*
X0181220Y0125630D01*
X0181220Y0128240D01*
X0182880Y0128240D01*
X0182880Y0125630D01*
G37*
G36*
X0181220Y0115640D02*
X0181290Y0115970D01*
X0181510Y0116250D01*
X0181750Y0116390D01*
X0182050Y0116440D01*
X0182350Y0116390D01*
X0182590Y0116250D01*
X0182810Y0115970D01*
X0182880Y0115640D01*
X0182880Y0113030D01*
X0181220Y0113030D01*
X0181220Y0115640D01*
G37*
G36*
X0183190Y0115640D02*
X0183260Y0115970D01*
X0183480Y0116250D01*
X0183720Y0116390D01*
X0184020Y0116440D01*
X0184320Y0116390D01*
X0184560Y0116250D01*
X0184770Y0115970D01*
X0184840Y0115640D01*
X0184840Y0113030D01*
X0183190Y0113030D01*
X0183190Y0115640D01*
G37*
G36*
X0185160Y0115640D02*
X0185230Y0115970D01*
X0185440Y0116250D01*
X0185690Y0116390D01*
X0185990Y0116440D01*
X0186280Y0116390D01*
X0186530Y0116250D01*
X0186740Y0115970D01*
X0186810Y0115640D01*
X0186810Y0113030D01*
X0185160Y0113030D01*
X0185160Y0115640D01*
G37*
G36*
X0187130Y0115640D02*
X0187200Y0115970D01*
X0187410Y0116250D01*
X0187660Y0116390D01*
X0187950Y0116440D01*
X0188250Y0116390D01*
X0188500Y0116250D01*
X0188710Y0115970D01*
X0188780Y0115640D01*
X0188780Y0113030D01*
X0187130Y0113030D01*
X0187130Y0115640D01*
G37*
G36*
X0189100Y0115640D02*
X0189170Y0115970D01*
X0189380Y0116250D01*
X0189630Y0116390D01*
X0189920Y0116440D01*
X0190220Y0116390D01*
X0190470Y0116250D01*
X0190680Y0115970D01*
X0190750Y0115640D01*
X0190750Y0113030D01*
X0189100Y0113030D01*
X0189100Y0115640D01*
G37*
D13*
X0183030Y0122700D03*
G36*
X0190990Y0124260D02*
X0180990Y0124260D01*
X0180990Y0122660D01*
X0178230Y0122660D01*
X0178230Y0121010D01*
X0180990Y0121010D01*
X0180990Y0120460D01*
X0178230Y0120460D01*
X0178230Y0118810D01*
X0180990Y0118810D01*
X0180990Y0117210D01*
X0190990Y0117210D01*
X0190990Y0118810D01*
X0193740Y0118810D01*
X0193740Y0120460D01*
X0190990Y0120460D01*
X0190990Y0121010D01*
X0193740Y0121010D01*
X0193740Y0122660D01*
X0190990Y0122660D01*
X0190990Y0124260D01*
G37*
G36*
X0190750Y0125630D02*
X0190680Y0125300D01*
X0190460Y0125030D01*
X0190220Y0124890D01*
X0189920Y0124840D01*
X0189620Y0124890D01*
X0189380Y0125030D01*
X0189170Y0125310D01*
X0189100Y0125630D01*
X0189100Y0128240D01*
X0190750Y0128240D01*
X0190750Y0125630D01*
G37*
D13*
X0183030Y0118770D03*
X0188940Y0122700D03*
X0185990Y0120740D03*
X0188940Y0118770D03*
D16*
X0189830Y0171550D03*
X0189830Y0176550D03*
X0189830Y0181550D03*
X0189830Y0186550D03*
X0168570Y0186550D03*
X0168570Y0181550D03*
X0168570Y0176550D03*
X0168570Y0171550D03*
D63*
X0176080Y0094040D03*
X0194830Y0094040D03*
D62*
X0158740Y0148280D03*
X0166220Y0148280D03*
X0162480Y0157330D03*
D11*
X0216710Y0091540D03*
X0216710Y0086420D03*
X0216710Y0103420D03*
X0216710Y0098300D03*
D78*
X0145390Y0168360D03*
X0150510Y0168360D03*
X0147320Y0188420D03*
X0152440Y0188420D03*
X0148630Y0147850D03*
X0143520Y0147850D03*
D11*
X0204210Y0066650D03*
X0204210Y0061540D03*
D78*
X0209260Y0131950D03*
X0204140Y0131950D03*
D40*
X0195480Y0014850D03*
X0195480Y0008150D03*
X0217920Y0014850D03*
X0217920Y0008150D03*
D14*
X0206700Y0016810D03*
X0206700Y0006180D03*
D40*
X0116740Y0014660D03*
X0116740Y0007960D03*
X0139180Y0014660D03*
X0139180Y0007960D03*
D14*
X0127960Y0016620D03*
X0127960Y0005990D03*
D58*
X0131700Y0157800D03*
X0131700Y0165280D03*
X0122640Y0161540D03*
D11*
X0122320Y0176550D03*
X0122320Y0181670D03*
D78*
X0148570Y0157170D03*
X0143460Y0157170D03*
D22*
X0221710Y0151540D03*
X0226710Y0151540D03*
X0226710Y0181540D03*
X0221710Y0181540D03*
D11*
X0163580Y0120920D03*
X0163580Y0115800D03*
X0163640Y0127110D03*
X0163640Y0132230D03*
D34*
X0293310Y0010900D03*
D45*
X0293310Y0226890D03*
D61*
X0293310Y0050900D03*
X0293310Y0186890D03*
D54*
X0263900Y0010900D03*
X0000000Y0246220D02*
G75*
G01*
%LPD*%
D34*
X0041340Y0257120D03*
D45*
X0041340Y0473110D03*
D61*
X0041340Y0297120D03*
X0041340Y0433110D03*
D54*
X0011930Y0257120D03*
D11*
X0208580Y0390260D03*
X0208580Y0385150D03*
D48*
X0176490Y0320260D03*
X0169200Y0320260D03*
D10*
X0088590Y0339760D03*
D44*
X0088590Y0349760D03*
X0088590Y0359760D03*
X0088590Y0369760D03*
X0088590Y0379760D03*
X0088590Y0389760D03*
X0088590Y0399760D03*
X0088590Y0409760D03*
X0088590Y0419760D03*
X0088590Y0429760D03*
X0088590Y0439760D03*
X0088590Y0449760D03*
D10*
X0246070Y0339760D03*
D44*
X0246070Y0349760D03*
X0246070Y0359760D03*
X0246070Y0369760D03*
X0246070Y0379760D03*
X0246070Y0389760D03*
X0246070Y0399760D03*
X0246070Y0409760D03*
X0246070Y0419760D03*
X0246070Y0429760D03*
X0246070Y0439760D03*
X0246070Y0449760D03*
D75*
X0195970Y0387870D03*
X0195970Y0395160D03*
D48*
X0147320Y0447140D03*
X0154610Y0447140D03*
D78*
X0187950Y0387760D03*
X0182050Y0387760D03*
X0174200Y0404010D03*
X0180110Y0404010D03*
D62*
X0132320Y0425270D03*
X0139800Y0425270D03*
X0136060Y0434320D03*
D67*
X0170770Y0272750D03*
X0163880Y0272750D03*
D62*
X0212470Y0406680D03*
X0204990Y0406680D03*
X0208730Y0397620D03*
G36*
X0188780Y0371850D02*
X0188710Y0371520D01*
X0188500Y0371250D01*
X0188250Y0371110D01*
X0187950Y0371060D01*
X0187660Y0371110D01*
X0187410Y0371250D01*
X0187200Y0371530D01*
X0187130Y0371850D01*
X0187130Y0374460D01*
X0188780Y0374460D01*
X0188780Y0371850D01*
G37*
G36*
X0186810Y0371850D02*
X0186740Y0371520D01*
X0186530Y0371250D01*
X0186280Y0371110D01*
X0185990Y0371060D01*
X0185690Y0371110D01*
X0185440Y0371250D01*
X0185230Y0371530D01*
X0185160Y0371850D01*
X0185160Y0374460D01*
X0186810Y0374460D01*
X0186810Y0371850D01*
G37*
G36*
X0184840Y0371850D02*
X0184770Y0371520D01*
X0184560Y0371250D01*
X0184310Y0371110D01*
X0184020Y0371060D01*
X0183720Y0371110D01*
X0183470Y0371250D01*
X0183260Y0371530D01*
X0183190Y0371850D01*
X0183190Y0374460D01*
X0184840Y0374460D01*
X0184840Y0371850D01*
G37*
G36*
X0182880Y0371850D02*
X0182800Y0371520D01*
X0182590Y0371250D01*
X0182350Y0371110D01*
X0182050Y0371060D01*
X0181750Y0371110D01*
X0181510Y0371250D01*
X0181290Y0371530D01*
X0181220Y0371850D01*
X0181220Y0374460D01*
X0182880Y0374460D01*
X0182880Y0371850D01*
G37*
G36*
X0181220Y0361860D02*
X0181290Y0362190D01*
X0181510Y0362470D01*
X0181750Y0362610D01*
X0182050Y0362660D01*
X0182350Y0362610D01*
X0182590Y0362470D01*
X0182810Y0362190D01*
X0182880Y0361860D01*
X0182880Y0359250D01*
X0181220Y0359250D01*
X0181220Y0361860D01*
G37*
G36*
X0183190Y0361860D02*
X0183260Y0362190D01*
X0183480Y0362470D01*
X0183720Y0362610D01*
X0184020Y0362660D01*
X0184320Y0362610D01*
X0184560Y0362470D01*
X0184770Y0362190D01*
X0184840Y0361860D01*
X0184840Y0359250D01*
X0183190Y0359250D01*
X0183190Y0361860D01*
G37*
G36*
X0185160Y0361860D02*
X0185230Y0362190D01*
X0185440Y0362470D01*
X0185690Y0362610D01*
X0185990Y0362660D01*
X0186280Y0362610D01*
X0186530Y0362470D01*
X0186740Y0362190D01*
X0186810Y0361860D01*
X0186810Y0359250D01*
X0185160Y0359250D01*
X0185160Y0361860D01*
G37*
G36*
X0187130Y0361860D02*
X0187200Y0362190D01*
X0187410Y0362470D01*
X0187660Y0362610D01*
X0187950Y0362660D01*
X0188250Y0362610D01*
X0188500Y0362470D01*
X0188710Y0362190D01*
X0188780Y0361860D01*
X0188780Y0359250D01*
X0187130Y0359250D01*
X0187130Y0361860D01*
G37*
G36*
X0189100Y0361860D02*
X0189170Y0362190D01*
X0189380Y0362470D01*
X0189630Y0362610D01*
X0189920Y0362660D01*
X0190220Y0362610D01*
X0190470Y0362470D01*
X0190680Y0362190D01*
X0190750Y0361860D01*
X0190750Y0359250D01*
X0189100Y0359250D01*
X0189100Y0361860D01*
G37*
D13*
X0183030Y0368920D03*
G36*
X0190990Y0370480D02*
X0180990Y0370480D01*
X0180990Y0368880D01*
X0178230Y0368880D01*
X0178230Y0367230D01*
X0180990Y0367230D01*
X0180990Y0366680D01*
X0178230Y0366680D01*
X0178230Y0365030D01*
X0180990Y0365030D01*
X0180990Y0363430D01*
X0190990Y0363430D01*
X0190990Y0365030D01*
X0193740Y0365030D01*
X0193740Y0366680D01*
X0190990Y0366680D01*
X0190990Y0367230D01*
X0193740Y0367230D01*
X0193740Y0368880D01*
X0190990Y0368880D01*
X0190990Y0370480D01*
G37*
G36*
X0190750Y0371850D02*
X0190680Y0371520D01*
X0190460Y0371250D01*
X0190220Y0371110D01*
X0189920Y0371060D01*
X0189620Y0371110D01*
X0189380Y0371250D01*
X0189170Y0371530D01*
X0189100Y0371850D01*
X0189100Y0374460D01*
X0190750Y0374460D01*
X0190750Y0371850D01*
G37*
D13*
X0183030Y0364990D03*
X0188940Y0368920D03*
X0185990Y0366960D03*
X0188940Y0364990D03*
D16*
X0189830Y0417770D03*
X0189830Y0422770D03*
X0189830Y0427770D03*
X0189830Y0432770D03*
X0168570Y0432770D03*
X0168570Y0427770D03*
X0168570Y0422770D03*
X0168570Y0417770D03*
D63*
X0176080Y0340260D03*
X0194830Y0340260D03*
D62*
X0158740Y0394500D03*
X0166220Y0394500D03*
X0162480Y0403550D03*
D11*
X0216710Y0337760D03*
X0216710Y0332640D03*
X0216710Y0349640D03*
X0216710Y0344520D03*
D78*
X0145390Y0414580D03*
X0150510Y0414580D03*
X0147320Y0434640D03*
X0152440Y0434640D03*
X0148630Y0394070D03*
X0143520Y0394070D03*
D11*
X0204210Y0312870D03*
X0204210Y0307760D03*
D78*
X0209260Y0378170D03*
X0204140Y0378170D03*
D40*
X0195480Y0261070D03*
X0195480Y0254370D03*
X0217920Y0261070D03*
X0217920Y0254370D03*
D14*
X0206700Y0263030D03*
X0206700Y0252400D03*
D40*
X0116740Y0260880D03*
X0116740Y0254180D03*
X0139180Y0260880D03*
X0139180Y0254180D03*
D14*
X0127960Y0262840D03*
X0127960Y0252210D03*
D58*
X0131700Y0404020D03*
X0131700Y0411500D03*
X0122640Y0407760D03*
D11*
X0122320Y0422770D03*
X0122320Y0427890D03*
D78*
X0148570Y0403390D03*
X0143460Y0403390D03*
D22*
X0221710Y0397760D03*
X0226710Y0397760D03*
X0226710Y0427760D03*
X0221710Y0427760D03*
D11*
X0163580Y0367140D03*
X0163580Y0362020D03*
X0163640Y0373330D03*
X0163640Y0378450D03*
D34*
X0293310Y0257120D03*
D45*
X0293310Y0473110D03*
D61*
X0293310Y0297120D03*
X0293310Y0433110D03*
D54*
X0263900Y0257120D03*
X0344650Y0000000D02*
G75*
G01*
%LPD*%
D34*
X0385990Y0010900D03*
D45*
X0385990Y0226890D03*
D61*
X0385990Y0050900D03*
X0385990Y0186890D03*
D54*
X0356580Y0010900D03*
D11*
X0553230Y0144040D03*
X0553230Y0138930D03*
D48*
X0521140Y0074040D03*
X0513850Y0074040D03*
D10*
X0433240Y0093540D03*
D44*
X0433240Y0103540D03*
X0433240Y0113540D03*
X0433240Y0123540D03*
X0433240Y0133540D03*
X0433240Y0143540D03*
X0433240Y0153540D03*
X0433240Y0163540D03*
X0433240Y0173540D03*
X0433240Y0183540D03*
X0433240Y0193540D03*
X0433240Y0203540D03*
D10*
X0590720Y0093540D03*
D44*
X0590720Y0103540D03*
X0590720Y0113540D03*
X0590720Y0123540D03*
X0590720Y0133540D03*
X0590720Y0143540D03*
X0590720Y0153540D03*
X0590720Y0163540D03*
X0590720Y0173540D03*
X0590720Y0183540D03*
X0590720Y0193540D03*
X0590720Y0203540D03*
D75*
X0540620Y0141650D03*
X0540620Y0148940D03*
D48*
X0491970Y0200920D03*
X0499260Y0200920D03*
D78*
X0532600Y0141540D03*
X0526700Y0141540D03*
X0518850Y0157790D03*
X0524760Y0157790D03*
D62*
X0476970Y0179050D03*
X0484450Y0179050D03*
X0480710Y0188100D03*
D67*
X0515420Y0026530D03*
X0508530Y0026530D03*
D62*
X0557120Y0160460D03*
X0549640Y0160460D03*
X0553380Y0151400D03*
G36*
X0533430Y0125630D02*
X0533360Y0125300D01*
X0533150Y0125030D01*
X0532900Y0124890D01*
X0532600Y0124840D01*
X0532310Y0124890D01*
X0532060Y0125030D01*
X0531850Y0125310D01*
X0531780Y0125630D01*
X0531780Y0128240D01*
X0533430Y0128240D01*
X0533430Y0125630D01*
G37*
G36*
X0531460Y0125630D02*
X0531390Y0125300D01*
X0531180Y0125030D01*
X0530930Y0124890D01*
X0530640Y0124840D01*
X0530340Y0124890D01*
X0530090Y0125030D01*
X0529880Y0125310D01*
X0529810Y0125630D01*
X0529810Y0128240D01*
X0531460Y0128240D01*
X0531460Y0125630D01*
G37*
G36*
X0529490Y0125630D02*
X0529420Y0125300D01*
X0529210Y0125030D01*
X0528960Y0124890D01*
X0528670Y0124840D01*
X0528370Y0124890D01*
X0528120Y0125030D01*
X0527910Y0125310D01*
X0527840Y0125630D01*
X0527840Y0128240D01*
X0529490Y0128240D01*
X0529490Y0125630D01*
G37*
G36*
X0527530Y0125630D02*
X0527450Y0125300D01*
X0527240Y0125030D01*
X0527000Y0124890D01*
X0526700Y0124840D01*
X0526400Y0124890D01*
X0526160Y0125030D01*
X0525940Y0125310D01*
X0525870Y0125630D01*
X0525870Y0128240D01*
X0527530Y0128240D01*
X0527530Y0125630D01*
G37*
G36*
X0525870Y0115640D02*
X0525940Y0115970D01*
X0526160Y0116250D01*
X0526400Y0116390D01*
X0526700Y0116440D01*
X0527000Y0116390D01*
X0527240Y0116250D01*
X0527460Y0115970D01*
X0527530Y0115640D01*
X0527530Y0113030D01*
X0525870Y0113030D01*
X0525870Y0115640D01*
G37*
G36*
X0527840Y0115640D02*
X0527910Y0115970D01*
X0528130Y0116250D01*
X0528370Y0116390D01*
X0528670Y0116440D01*
X0528970Y0116390D01*
X0529210Y0116250D01*
X0529420Y0115970D01*
X0529490Y0115640D01*
X0529490Y0113030D01*
X0527840Y0113030D01*
X0527840Y0115640D01*
G37*
G36*
X0529810Y0115640D02*
X0529880Y0115970D01*
X0530090Y0116250D01*
X0530340Y0116390D01*
X0530640Y0116440D01*
X0530930Y0116390D01*
X0531180Y0116250D01*
X0531390Y0115970D01*
X0531460Y0115640D01*
X0531460Y0113030D01*
X0529810Y0113030D01*
X0529810Y0115640D01*
G37*
G36*
X0531780Y0115640D02*
X0531850Y0115970D01*
X0532060Y0116250D01*
X0532310Y0116390D01*
X0532600Y0116440D01*
X0532900Y0116390D01*
X0533150Y0116250D01*
X0533360Y0115970D01*
X0533430Y0115640D01*
X0533430Y0113030D01*
X0531780Y0113030D01*
X0531780Y0115640D01*
G37*
G36*
X0533750Y0115640D02*
X0533820Y0115970D01*
X0534030Y0116250D01*
X0534280Y0116390D01*
X0534570Y0116440D01*
X0534870Y0116390D01*
X0535120Y0116250D01*
X0535330Y0115970D01*
X0535400Y0115640D01*
X0535400Y0113030D01*
X0533750Y0113030D01*
X0533750Y0115640D01*
G37*
D13*
X0527680Y0122700D03*
G36*
X0535640Y0124260D02*
X0525640Y0124260D01*
X0525640Y0122660D01*
X0522880Y0122660D01*
X0522880Y0121010D01*
X0525640Y0121010D01*
X0525640Y0120460D01*
X0522880Y0120460D01*
X0522880Y0118810D01*
X0525640Y0118810D01*
X0525640Y0117210D01*
X0535640Y0117210D01*
X0535640Y0118810D01*
X0538390Y0118810D01*
X0538390Y0120460D01*
X0535640Y0120460D01*
X0535640Y0121010D01*
X0538390Y0121010D01*
X0538390Y0122660D01*
X0535640Y0122660D01*
X0535640Y0124260D01*
G37*
G36*
X0535400Y0125630D02*
X0535330Y0125300D01*
X0535110Y0125030D01*
X0534870Y0124890D01*
X0534570Y0124840D01*
X0534270Y0124890D01*
X0534030Y0125030D01*
X0533820Y0125310D01*
X0533750Y0125630D01*
X0533750Y0128240D01*
X0535400Y0128240D01*
X0535400Y0125630D01*
G37*
D13*
X0527680Y0118770D03*
X0533590Y0122700D03*
X0530640Y0120740D03*
X0533590Y0118770D03*
D16*
X0534480Y0171550D03*
X0534480Y0176550D03*
X0534480Y0181550D03*
X0534480Y0186550D03*
X0513220Y0186550D03*
X0513220Y0181550D03*
X0513220Y0176550D03*
X0513220Y0171550D03*
D63*
X0520730Y0094040D03*
X0539480Y0094040D03*
D62*
X0503390Y0148280D03*
X0510870Y0148280D03*
X0507130Y0157330D03*
D11*
X0561360Y0091540D03*
X0561360Y0086420D03*
X0561360Y0103420D03*
X0561360Y0098300D03*
D78*
X0490040Y0168360D03*
X0495160Y0168360D03*
X0491970Y0188420D03*
X0497090Y0188420D03*
X0493280Y0147850D03*
X0488170Y0147850D03*
D11*
X0548860Y0066650D03*
X0548860Y0061540D03*
D78*
X0553910Y0131950D03*
X0548790Y0131950D03*
D40*
X0540130Y0014850D03*
X0540130Y0008150D03*
X0562570Y0014850D03*
X0562570Y0008150D03*
D14*
X0551350Y0016810D03*
X0551350Y0006180D03*
D40*
X0461390Y0014660D03*
X0461390Y0007960D03*
X0483830Y0014660D03*
X0483830Y0007960D03*
D14*
X0472610Y0016620D03*
X0472610Y0005990D03*
D58*
X0476350Y0157800D03*
X0476350Y0165280D03*
X0467290Y0161540D03*
D11*
X0466970Y0176550D03*
X0466970Y0181670D03*
D78*
X0493220Y0157170D03*
X0488110Y0157170D03*
D22*
X0566360Y0151540D03*
X0571360Y0151540D03*
X0571360Y0181540D03*
X0566360Y0181540D03*
D11*
X0508230Y0120920D03*
X0508230Y0115800D03*
X0508290Y0127110D03*
X0508290Y0132230D03*
D34*
X0637960Y0010900D03*
D45*
X0637960Y0226890D03*
D61*
X0637960Y0050900D03*
X0637960Y0186890D03*
D54*
X0608550Y0010900D03*
X0689300Y0000000D02*
G75*
G01*
%LPD*%
D55*
X0785380Y0048740D03*
X0774360Y0048740D03*
D10*
X0699140Y0034490D03*
D44*
X0699140Y0044490D03*
X0699140Y0054490D03*
X0699140Y0064490D03*
X0699140Y0074490D03*
X0699140Y0084490D03*
X0699140Y0094490D03*
X0699140Y0104490D03*
X0699140Y0114490D03*
X0699140Y0124490D03*
X0699140Y0134490D03*
X0699140Y0144490D03*
D10*
X0856620Y0034490D03*
D44*
X0856620Y0044490D03*
X0856620Y0054490D03*
X0856620Y0064490D03*
X0856620Y0074490D03*
X0856620Y0084490D03*
X0856620Y0094490D03*
X0856620Y0104490D03*
X0856620Y0114490D03*
X0856620Y0124490D03*
X0856620Y0134490D03*
X0856620Y0144490D03*
D47*
X0799100Y0031620D03*
D30*
X0808950Y0031620D03*
X0816820Y0031620D03*
X0826660Y0031620D03*
D76*
X0787020Y0020990D03*
X0838750Y0020990D03*
D24*
X0700380Y0011240D03*
D41*
X0710380Y0011240D03*
X0720380Y0011240D03*
X0730380Y0011240D03*
X0740380Y0011240D03*
X0750380Y0011240D03*
X0760380Y0011240D03*
D69*
X0821780Y0096240D03*
D72*
X0821780Y0101240D03*
X0821780Y0106240D03*
X0821780Y0111240D03*
X0821780Y0116240D03*
X0821780Y0121240D03*
X0821780Y0126240D03*
X0821780Y0131240D03*
X0821780Y0136240D03*
X0821780Y0141240D03*
X0821780Y0146240D03*
X0821780Y0151240D03*
X0821780Y0156240D03*
X0821780Y0161240D03*
X0821780Y0166240D03*
X0816780Y0096240D03*
X0816780Y0101240D03*
X0816780Y0106240D03*
X0816780Y0111240D03*
X0816780Y0116240D03*
X0816780Y0121240D03*
X0816780Y0126240D03*
X0816780Y0131240D03*
X0816780Y0136240D03*
X0816780Y0141240D03*
X0816780Y0146240D03*
X0816780Y0151240D03*
X0816780Y0156240D03*
X0816780Y0161240D03*
X0816780Y0166240D03*
X0738990Y0121320D03*
X0738990Y0126320D03*
X0738990Y0131320D03*
X0738990Y0136320D03*
X0738990Y0141320D03*
X0738990Y0146320D03*
X0738990Y0151320D03*
X0738990Y0156320D03*
X0738990Y0161320D03*
X0738990Y0166320D03*
X0733990Y0121320D03*
X0733990Y0126320D03*
X0733990Y0131320D03*
X0733990Y0136320D03*
X0733990Y0141320D03*
X0733990Y0146320D03*
X0733990Y0151320D03*
X0733990Y0156320D03*
X0733990Y0161320D03*
D69*
X0733990Y0166320D03*
X0000000Y0492440D02*
G75*
G01*
%LPD*%
D34*
X0041340Y0503340D03*
D45*
X0041340Y0719330D03*
D61*
X0041340Y0543340D03*
X0041340Y0679330D03*
D54*
X0011930Y0503340D03*
D11*
X0208580Y0636480D03*
X0208580Y0631370D03*
D48*
X0176490Y0566480D03*
X0169200Y0566480D03*
D10*
X0088590Y0585980D03*
D44*
X0088590Y0595980D03*
X0088590Y0605980D03*
X0088590Y0615980D03*
X0088590Y0625980D03*
X0088590Y0635980D03*
X0088590Y0645980D03*
X0088590Y0655980D03*
X0088590Y0665980D03*
X0088590Y0675980D03*
X0088590Y0685980D03*
X0088590Y0695980D03*
D10*
X0246070Y0585980D03*
D44*
X0246070Y0595980D03*
X0246070Y0605980D03*
X0246070Y0615980D03*
X0246070Y0625980D03*
X0246070Y0635980D03*
X0246070Y0645980D03*
X0246070Y0655980D03*
X0246070Y0665980D03*
X0246070Y0675980D03*
X0246070Y0685980D03*
X0246070Y0695980D03*
D75*
X0195970Y0634090D03*
X0195970Y0641380D03*
D48*
X0147320Y0693360D03*
X0154610Y0693360D03*
D78*
X0187950Y0633980D03*
X0182050Y0633980D03*
X0174200Y0650230D03*
X0180110Y0650230D03*
D62*
X0132320Y0671490D03*
X0139800Y0671490D03*
X0136060Y0680540D03*
D67*
X0170770Y0518970D03*
X0163880Y0518970D03*
D62*
X0212470Y0652900D03*
X0204990Y0652900D03*
X0208730Y0643840D03*
G36*
X0188780Y0618070D02*
X0188710Y0617740D01*
X0188500Y0617470D01*
X0188250Y0617330D01*
X0187950Y0617280D01*
X0187660Y0617330D01*
X0187410Y0617470D01*
X0187200Y0617750D01*
X0187130Y0618070D01*
X0187130Y0620680D01*
X0188780Y0620680D01*
X0188780Y0618070D01*
G37*
G36*
X0186810Y0618070D02*
X0186740Y0617740D01*
X0186530Y0617470D01*
X0186280Y0617330D01*
X0185990Y0617280D01*
X0185690Y0617330D01*
X0185440Y0617470D01*
X0185230Y0617750D01*
X0185160Y0618070D01*
X0185160Y0620680D01*
X0186810Y0620680D01*
X0186810Y0618070D01*
G37*
G36*
X0184840Y0618070D02*
X0184770Y0617740D01*
X0184560Y0617470D01*
X0184310Y0617330D01*
X0184020Y0617280D01*
X0183720Y0617330D01*
X0183470Y0617470D01*
X0183260Y0617750D01*
X0183190Y0618070D01*
X0183190Y0620680D01*
X0184840Y0620680D01*
X0184840Y0618070D01*
G37*
G36*
X0182880Y0618070D02*
X0182800Y0617740D01*
X0182590Y0617470D01*
X0182350Y0617330D01*
X0182050Y0617280D01*
X0181750Y0617330D01*
X0181510Y0617470D01*
X0181290Y0617750D01*
X0181220Y0618070D01*
X0181220Y0620680D01*
X0182880Y0620680D01*
X0182880Y0618070D01*
G37*
G36*
X0181220Y0608080D02*
X0181290Y0608410D01*
X0181510Y0608690D01*
X0181750Y0608830D01*
X0182050Y0608880D01*
X0182350Y0608830D01*
X0182590Y0608690D01*
X0182810Y0608410D01*
X0182880Y0608080D01*
X0182880Y0605470D01*
X0181220Y0605470D01*
X0181220Y0608080D01*
G37*
G36*
X0183190Y0608080D02*
X0183260Y0608410D01*
X0183480Y0608690D01*
X0183720Y0608830D01*
X0184020Y0608880D01*
X0184320Y0608830D01*
X0184560Y0608690D01*
X0184770Y0608410D01*
X0184840Y0608080D01*
X0184840Y0605470D01*
X0183190Y0605470D01*
X0183190Y0608080D01*
G37*
G36*
X0185160Y0608080D02*
X0185230Y0608410D01*
X0185440Y0608690D01*
X0185690Y0608830D01*
X0185990Y0608880D01*
X0186280Y0608830D01*
X0186530Y0608690D01*
X0186740Y0608410D01*
X0186810Y0608080D01*
X0186810Y0605470D01*
X0185160Y0605470D01*
X0185160Y0608080D01*
G37*
G36*
X0187130Y0608080D02*
X0187200Y0608410D01*
X0187410Y0608690D01*
X0187660Y0608830D01*
X0187950Y0608880D01*
X0188250Y0608830D01*
X0188500Y0608690D01*
X0188710Y0608410D01*
X0188780Y0608080D01*
X0188780Y0605470D01*
X0187130Y0605470D01*
X0187130Y0608080D01*
G37*
G36*
X0189100Y0608080D02*
X0189170Y0608410D01*
X0189380Y0608690D01*
X0189630Y0608830D01*
X0189920Y0608880D01*
X0190220Y0608830D01*
X0190470Y0608690D01*
X0190680Y0608410D01*
X0190750Y0608080D01*
X0190750Y0605470D01*
X0189100Y0605470D01*
X0189100Y0608080D01*
G37*
D13*
X0183030Y0615140D03*
G36*
X0190990Y0616700D02*
X0180990Y0616700D01*
X0180990Y0615100D01*
X0178230Y0615100D01*
X0178230Y0613450D01*
X0180990Y0613450D01*
X0180990Y0612900D01*
X0178230Y0612900D01*
X0178230Y0611250D01*
X0180990Y0611250D01*
X0180990Y0609650D01*
X0190990Y0609650D01*
X0190990Y0611250D01*
X0193740Y0611250D01*
X0193740Y0612900D01*
X0190990Y0612900D01*
X0190990Y0613450D01*
X0193740Y0613450D01*
X0193740Y0615100D01*
X0190990Y0615100D01*
X0190990Y0616700D01*
G37*
G36*
X0190750Y0618070D02*
X0190680Y0617740D01*
X0190460Y0617470D01*
X0190220Y0617330D01*
X0189920Y0617280D01*
X0189620Y0617330D01*
X0189380Y0617470D01*
X0189170Y0617750D01*
X0189100Y0618070D01*
X0189100Y0620680D01*
X0190750Y0620680D01*
X0190750Y0618070D01*
G37*
D13*
X0183030Y0611210D03*
X0188940Y0615140D03*
X0185990Y0613180D03*
X0188940Y0611210D03*
D16*
X0189830Y0663990D03*
X0189830Y0668990D03*
X0189830Y0673990D03*
X0189830Y0678990D03*
X0168570Y0678990D03*
X0168570Y0673990D03*
X0168570Y0668990D03*
X0168570Y0663990D03*
D63*
X0176080Y0586480D03*
X0194830Y0586480D03*
D62*
X0158740Y0640720D03*
X0166220Y0640720D03*
X0162480Y0649770D03*
D11*
X0216710Y0583980D03*
X0216710Y0578860D03*
X0216710Y0595860D03*
X0216710Y0590740D03*
D78*
X0145390Y0660800D03*
X0150510Y0660800D03*
X0147320Y0680860D03*
X0152440Y0680860D03*
X0148630Y0640290D03*
X0143520Y0640290D03*
D11*
X0204210Y0559090D03*
X0204210Y0553980D03*
D78*
X0209260Y0624390D03*
X0204140Y0624390D03*
D40*
X0195480Y0507290D03*
X0195480Y0500590D03*
X0217920Y0507290D03*
X0217920Y0500590D03*
D14*
X0206700Y0509250D03*
X0206700Y0498620D03*
D40*
X0116740Y0507100D03*
X0116740Y0500400D03*
X0139180Y0507100D03*
X0139180Y0500400D03*
D14*
X0127960Y0509060D03*
X0127960Y0498430D03*
D58*
X0131700Y0650240D03*
X0131700Y0657720D03*
X0122640Y0653980D03*
D11*
X0122320Y0668990D03*
X0122320Y0674110D03*
D78*
X0148570Y0649610D03*
X0143460Y0649610D03*
D22*
X0221710Y0643980D03*
X0226710Y0643980D03*
X0226710Y0673980D03*
X0221710Y0673980D03*
D11*
X0163580Y0613360D03*
X0163580Y0608240D03*
X0163640Y0619550D03*
X0163640Y0624670D03*
D34*
X0293310Y0503340D03*
D45*
X0293310Y0719330D03*
D61*
X0293310Y0543340D03*
X0293310Y0679330D03*
D54*
X0263900Y0503340D03*
X0344650Y0246220D02*
G75*
G01*
%LPD*%
D34*
X0385990Y0257120D03*
D45*
X0385990Y0473110D03*
D61*
X0385990Y0297120D03*
X0385990Y0433110D03*
D54*
X0356580Y0257120D03*
D11*
X0553230Y0390260D03*
X0553230Y0385150D03*
D48*
X0521140Y0320260D03*
X0513850Y0320260D03*
D10*
X0433240Y0339760D03*
D44*
X0433240Y0349760D03*
X0433240Y0359760D03*
X0433240Y0369760D03*
X0433240Y0379760D03*
X0433240Y0389760D03*
X0433240Y0399760D03*
X0433240Y0409760D03*
X0433240Y0419760D03*
X0433240Y0429760D03*
X0433240Y0439760D03*
X0433240Y0449760D03*
D10*
X0590720Y0339760D03*
D44*
X0590720Y0349760D03*
X0590720Y0359760D03*
X0590720Y0369760D03*
X0590720Y0379760D03*
X0590720Y0389760D03*
X0590720Y0399760D03*
X0590720Y0409760D03*
X0590720Y0419760D03*
X0590720Y0429760D03*
X0590720Y0439760D03*
X0590720Y0449760D03*
D75*
X0540620Y0387870D03*
X0540620Y0395160D03*
D48*
X0491970Y0447140D03*
X0499260Y0447140D03*
D78*
X0532600Y0387760D03*
X0526700Y0387760D03*
X0518850Y0404010D03*
X0524760Y0404010D03*
D62*
X0476970Y0425270D03*
X0484450Y0425270D03*
X0480710Y0434320D03*
D67*
X0515420Y0272750D03*
X0508530Y0272750D03*
D62*
X0557120Y0406680D03*
X0549640Y0406680D03*
X0553380Y0397620D03*
G36*
X0533430Y0371850D02*
X0533360Y0371520D01*
X0533150Y0371250D01*
X0532900Y0371110D01*
X0532600Y0371060D01*
X0532310Y0371110D01*
X0532060Y0371250D01*
X0531850Y0371530D01*
X0531780Y0371850D01*
X0531780Y0374460D01*
X0533430Y0374460D01*
X0533430Y0371850D01*
G37*
G36*
X0531460Y0371850D02*
X0531390Y0371520D01*
X0531180Y0371250D01*
X0530930Y0371110D01*
X0530640Y0371060D01*
X0530340Y0371110D01*
X0530090Y0371250D01*
X0529880Y0371530D01*
X0529810Y0371850D01*
X0529810Y0374460D01*
X0531460Y0374460D01*
X0531460Y0371850D01*
G37*
G36*
X0529490Y0371850D02*
X0529420Y0371520D01*
X0529210Y0371250D01*
X0528960Y0371110D01*
X0528670Y0371060D01*
X0528370Y0371110D01*
X0528120Y0371250D01*
X0527910Y0371530D01*
X0527840Y0371850D01*
X0527840Y0374460D01*
X0529490Y0374460D01*
X0529490Y0371850D01*
G37*
G36*
X0527530Y0371850D02*
X0527450Y0371520D01*
X0527240Y0371250D01*
X0527000Y0371110D01*
X0526700Y0371060D01*
X0526400Y0371110D01*
X0526160Y0371250D01*
X0525940Y0371530D01*
X0525870Y0371850D01*
X0525870Y0374460D01*
X0527530Y0374460D01*
X0527530Y0371850D01*
G37*
G36*
X0525870Y0361860D02*
X0525940Y0362190D01*
X0526160Y0362470D01*
X0526400Y0362610D01*
X0526700Y0362660D01*
X0527000Y0362610D01*
X0527240Y0362470D01*
X0527460Y0362190D01*
X0527530Y0361860D01*
X0527530Y0359250D01*
X0525870Y0359250D01*
X0525870Y0361860D01*
G37*
G36*
X0527840Y0361860D02*
X0527910Y0362190D01*
X0528130Y0362470D01*
X0528370Y0362610D01*
X0528670Y0362660D01*
X0528970Y0362610D01*
X0529210Y0362470D01*
X0529420Y0362190D01*
X0529490Y0361860D01*
X0529490Y0359250D01*
X0527840Y0359250D01*
X0527840Y0361860D01*
G37*
G36*
X0529810Y0361860D02*
X0529880Y0362190D01*
X0530090Y0362470D01*
X0530340Y0362610D01*
X0530640Y0362660D01*
X0530930Y0362610D01*
X0531180Y0362470D01*
X0531390Y0362190D01*
X0531460Y0361860D01*
X0531460Y0359250D01*
X0529810Y0359250D01*
X0529810Y0361860D01*
G37*
G36*
X0531780Y0361860D02*
X0531850Y0362190D01*
X0532060Y0362470D01*
X0532310Y0362610D01*
X0532600Y0362660D01*
X0532900Y0362610D01*
X0533150Y0362470D01*
X0533360Y0362190D01*
X0533430Y0361860D01*
X0533430Y0359250D01*
X0531780Y0359250D01*
X0531780Y0361860D01*
G37*
G36*
X0533750Y0361860D02*
X0533820Y0362190D01*
X0534030Y0362470D01*
X0534280Y0362610D01*
X0534570Y0362660D01*
X0534870Y0362610D01*
X0535120Y0362470D01*
X0535330Y0362190D01*
X0535400Y0361860D01*
X0535400Y0359250D01*
X0533750Y0359250D01*
X0533750Y0361860D01*
G37*
D13*
X0527680Y0368920D03*
G36*
X0535640Y0370480D02*
X0525640Y0370480D01*
X0525640Y0368880D01*
X0522880Y0368880D01*
X0522880Y0367230D01*
X0525640Y0367230D01*
X0525640Y0366680D01*
X0522880Y0366680D01*
X0522880Y0365030D01*
X0525640Y0365030D01*
X0525640Y0363430D01*
X0535640Y0363430D01*
X0535640Y0365030D01*
X0538390Y0365030D01*
X0538390Y0366680D01*
X0535640Y0366680D01*
X0535640Y0367230D01*
X0538390Y0367230D01*
X0538390Y0368880D01*
X0535640Y0368880D01*
X0535640Y0370480D01*
G37*
G36*
X0535400Y0371850D02*
X0535330Y0371520D01*
X0535110Y0371250D01*
X0534870Y0371110D01*
X0534570Y0371060D01*
X0534270Y0371110D01*
X0534030Y0371250D01*
X0533820Y0371530D01*
X0533750Y0371850D01*
X0533750Y0374460D01*
X0535400Y0374460D01*
X0535400Y0371850D01*
G37*
D13*
X0527680Y0364990D03*
X0533590Y0368920D03*
X0530640Y0366960D03*
X0533590Y0364990D03*
D16*
X0534480Y0417770D03*
X0534480Y0422770D03*
X0534480Y0427770D03*
X0534480Y0432770D03*
X0513220Y0432770D03*
X0513220Y0427770D03*
X0513220Y0422770D03*
X0513220Y0417770D03*
D63*
X0520730Y0340260D03*
X0539480Y0340260D03*
D62*
X0503390Y0394500D03*
X0510870Y0394500D03*
X0507130Y0403550D03*
D11*
X0561360Y0337760D03*
X0561360Y0332640D03*
X0561360Y0349640D03*
X0561360Y0344520D03*
D78*
X0490040Y0414580D03*
X0495160Y0414580D03*
X0491970Y0434640D03*
X0497090Y0434640D03*
X0493280Y0394070D03*
X0488170Y0394070D03*
D11*
X0548860Y0312870D03*
X0548860Y0307760D03*
D78*
X0553910Y0378170D03*
X0548790Y0378170D03*
D40*
X0540130Y0261070D03*
X0540130Y0254370D03*
X0562570Y0261070D03*
X0562570Y0254370D03*
D14*
X0551350Y0263030D03*
X0551350Y0252400D03*
D40*
X0461390Y0260880D03*
X0461390Y0254180D03*
X0483830Y0260880D03*
X0483830Y0254180D03*
D14*
X0472610Y0262840D03*
X0472610Y0252210D03*
D58*
X0476350Y0404020D03*
X0476350Y0411500D03*
X0467290Y0407760D03*
D11*
X0466970Y0422770D03*
X0466970Y0427890D03*
D78*
X0493220Y0403390D03*
X0488110Y0403390D03*
D22*
X0566360Y0397760D03*
X0571360Y0397760D03*
X0571360Y0427760D03*
X0566360Y0427760D03*
D11*
X0508230Y0367140D03*
X0508230Y0362020D03*
X0508290Y0373330D03*
X0508290Y0378450D03*
D34*
X0637960Y0257120D03*
D45*
X0637960Y0473110D03*
D61*
X0637960Y0297120D03*
X0637960Y0433110D03*
D54*
X0608550Y0257120D03*
X0000000Y0738660D02*
G75*
G01*
%LPD*%
D34*
X0041340Y0749560D03*
D45*
X0041340Y0965550D03*
D61*
X0041340Y0789560D03*
X0041340Y0925550D03*
D54*
X0011930Y0749560D03*
D11*
X0208580Y0882700D03*
X0208580Y0877590D03*
D48*
X0176490Y0812700D03*
X0169200Y0812700D03*
D10*
X0088590Y0832200D03*
D44*
X0088590Y0842200D03*
X0088590Y0852200D03*
X0088590Y0862200D03*
X0088590Y0872200D03*
X0088590Y0882200D03*
X0088590Y0892200D03*
X0088590Y0902200D03*
X0088590Y0912200D03*
X0088590Y0922200D03*
X0088590Y0932200D03*
X0088590Y0942200D03*
D10*
X0246070Y0832200D03*
D44*
X0246070Y0842200D03*
X0246070Y0852200D03*
X0246070Y0862200D03*
X0246070Y0872200D03*
X0246070Y0882200D03*
X0246070Y0892200D03*
X0246070Y0902200D03*
X0246070Y0912200D03*
X0246070Y0922200D03*
X0246070Y0932200D03*
X0246070Y0942200D03*
D75*
X0195970Y0880310D03*
X0195970Y0887600D03*
D48*
X0147320Y0939580D03*
X0154610Y0939580D03*
D78*
X0187950Y0880200D03*
X0182050Y0880200D03*
X0174200Y0896450D03*
X0180110Y0896450D03*
D62*
X0132320Y0917710D03*
X0139800Y0917710D03*
X0136060Y0926760D03*
D67*
X0170770Y0765190D03*
X0163880Y0765190D03*
D62*
X0212470Y0899120D03*
X0204990Y0899120D03*
X0208730Y0890060D03*
G36*
X0188780Y0864290D02*
X0188710Y0863960D01*
X0188500Y0863690D01*
X0188250Y0863550D01*
X0187950Y0863500D01*
X0187660Y0863550D01*
X0187410Y0863690D01*
X0187200Y0863970D01*
X0187130Y0864290D01*
X0187130Y0866900D01*
X0188780Y0866900D01*
X0188780Y0864290D01*
G37*
G36*
X0186810Y0864290D02*
X0186740Y0863960D01*
X0186530Y0863690D01*
X0186280Y0863550D01*
X0185990Y0863500D01*
X0185690Y0863550D01*
X0185440Y0863690D01*
X0185230Y0863970D01*
X0185160Y0864290D01*
X0185160Y0866900D01*
X0186810Y0866900D01*
X0186810Y0864290D01*
G37*
G36*
X0184840Y0864290D02*
X0184770Y0863960D01*
X0184560Y0863690D01*
X0184310Y0863550D01*
X0184020Y0863500D01*
X0183720Y0863550D01*
X0183470Y0863690D01*
X0183260Y0863970D01*
X0183190Y0864290D01*
X0183190Y0866900D01*
X0184840Y0866900D01*
X0184840Y0864290D01*
G37*
G36*
X0182880Y0864290D02*
X0182800Y0863960D01*
X0182590Y0863690D01*
X0182350Y0863550D01*
X0182050Y0863500D01*
X0181750Y0863550D01*
X0181510Y0863690D01*
X0181290Y0863970D01*
X0181220Y0864290D01*
X0181220Y0866900D01*
X0182880Y0866900D01*
X0182880Y0864290D01*
G37*
G36*
X0181220Y0854300D02*
X0181290Y0854630D01*
X0181510Y0854910D01*
X0181750Y0855050D01*
X0182050Y0855100D01*
X0182350Y0855050D01*
X0182590Y0854910D01*
X0182810Y0854630D01*
X0182880Y0854300D01*
X0182880Y0851690D01*
X0181220Y0851690D01*
X0181220Y0854300D01*
G37*
G36*
X0183190Y0854300D02*
X0183260Y0854630D01*
X0183480Y0854910D01*
X0183720Y0855050D01*
X0184020Y0855100D01*
X0184320Y0855050D01*
X0184560Y0854910D01*
X0184770Y0854630D01*
X0184840Y0854300D01*
X0184840Y0851690D01*
X0183190Y0851690D01*
X0183190Y0854300D01*
G37*
G36*
X0185160Y0854300D02*
X0185230Y0854630D01*
X0185440Y0854910D01*
X0185690Y0855050D01*
X0185990Y0855100D01*
X0186280Y0855050D01*
X0186530Y0854910D01*
X0186740Y0854630D01*
X0186810Y0854300D01*
X0186810Y0851690D01*
X0185160Y0851690D01*
X0185160Y0854300D01*
G37*
G36*
X0187130Y0854300D02*
X0187200Y0854630D01*
X0187410Y0854910D01*
X0187660Y0855050D01*
X0187950Y0855100D01*
X0188250Y0855050D01*
X0188500Y0854910D01*
X0188710Y0854630D01*
X0188780Y0854300D01*
X0188780Y0851690D01*
X0187130Y0851690D01*
X0187130Y0854300D01*
G37*
G36*
X0189100Y0854300D02*
X0189170Y0854630D01*
X0189380Y0854910D01*
X0189630Y0855050D01*
X0189920Y0855100D01*
X0190220Y0855050D01*
X0190470Y0854910D01*
X0190680Y0854630D01*
X0190750Y0854300D01*
X0190750Y0851690D01*
X0189100Y0851690D01*
X0189100Y0854300D01*
G37*
D13*
X0183030Y0861360D03*
G36*
X0190990Y0862920D02*
X0180990Y0862920D01*
X0180990Y0861320D01*
X0178230Y0861320D01*
X0178230Y0859670D01*
X0180990Y0859670D01*
X0180990Y0859120D01*
X0178230Y0859120D01*
X0178230Y0857470D01*
X0180990Y0857470D01*
X0180990Y0855870D01*
X0190990Y0855870D01*
X0190990Y0857470D01*
X0193740Y0857470D01*
X0193740Y0859120D01*
X0190990Y0859120D01*
X0190990Y0859670D01*
X0193740Y0859670D01*
X0193740Y0861320D01*
X0190990Y0861320D01*
X0190990Y0862920D01*
G37*
G36*
X0190750Y0864290D02*
X0190680Y0863960D01*
X0190460Y0863690D01*
X0190220Y0863550D01*
X0189920Y0863500D01*
X0189620Y0863550D01*
X0189380Y0863690D01*
X0189170Y0863970D01*
X0189100Y0864290D01*
X0189100Y0866900D01*
X0190750Y0866900D01*
X0190750Y0864290D01*
G37*
D13*
X0183030Y0857430D03*
X0188940Y0861360D03*
X0185990Y0859400D03*
X0188940Y0857430D03*
D16*
X0189830Y0910210D03*
X0189830Y0915210D03*
X0189830Y0920210D03*
X0189830Y0925210D03*
X0168570Y0925210D03*
X0168570Y0920210D03*
X0168570Y0915210D03*
X0168570Y0910210D03*
D63*
X0176080Y0832700D03*
X0194830Y0832700D03*
D62*
X0158740Y0886940D03*
X0166220Y0886940D03*
X0162480Y0895990D03*
D11*
X0216710Y0830200D03*
X0216710Y0825080D03*
X0216710Y0842080D03*
X0216710Y0836960D03*
D78*
X0145390Y0907020D03*
X0150510Y0907020D03*
X0147320Y0927080D03*
X0152440Y0927080D03*
X0148630Y0886510D03*
X0143520Y0886510D03*
D11*
X0204210Y0805310D03*
X0204210Y0800200D03*
D78*
X0209260Y0870610D03*
X0204140Y0870610D03*
D40*
X0195480Y0753510D03*
X0195480Y0746810D03*
X0217920Y0753510D03*
X0217920Y0746810D03*
D14*
X0206700Y0755470D03*
X0206700Y0744840D03*
D40*
X0116740Y0753320D03*
X0116740Y0746620D03*
X0139180Y0753320D03*
X0139180Y0746620D03*
D14*
X0127960Y0755280D03*
X0127960Y0744650D03*
D58*
X0131700Y0896460D03*
X0131700Y0903940D03*
X0122640Y0900200D03*
D11*
X0122320Y0915210D03*
X0122320Y0920330D03*
D78*
X0148570Y0895830D03*
X0143460Y0895830D03*
D22*
X0221710Y0890200D03*
X0226710Y0890200D03*
X0226710Y0920200D03*
X0221710Y0920200D03*
D11*
X0163580Y0859580D03*
X0163580Y0854460D03*
X0163640Y0865770D03*
X0163640Y0870890D03*
D34*
X0293310Y0749560D03*
D45*
X0293310Y0965550D03*
D61*
X0293310Y0789560D03*
X0293310Y0925550D03*
D54*
X0263900Y0749560D03*
X0344650Y0492440D02*
G75*
G01*
%LPD*%
D34*
X0385990Y0503340D03*
D45*
X0385990Y0719330D03*
D61*
X0385990Y0543340D03*
X0385990Y0679330D03*
D54*
X0356580Y0503340D03*
D11*
X0553230Y0636480D03*
X0553230Y0631370D03*
D48*
X0521140Y0566480D03*
X0513850Y0566480D03*
D10*
X0433240Y0585980D03*
D44*
X0433240Y0595980D03*
X0433240Y0605980D03*
X0433240Y0615980D03*
X0433240Y0625980D03*
X0433240Y0635980D03*
X0433240Y0645980D03*
X0433240Y0655980D03*
X0433240Y0665980D03*
X0433240Y0675980D03*
X0433240Y0685980D03*
X0433240Y0695980D03*
D10*
X0590720Y0585980D03*
D44*
X0590720Y0595980D03*
X0590720Y0605980D03*
X0590720Y0615980D03*
X0590720Y0625980D03*
X0590720Y0635980D03*
X0590720Y0645980D03*
X0590720Y0655980D03*
X0590720Y0665980D03*
X0590720Y0675980D03*
X0590720Y0685980D03*
X0590720Y0695980D03*
D75*
X0540620Y0634090D03*
X0540620Y0641380D03*
D48*
X0491970Y0693360D03*
X0499260Y0693360D03*
D78*
X0532600Y0633980D03*
X0526700Y0633980D03*
X0518850Y0650230D03*
X0524760Y0650230D03*
D62*
X0476970Y0671490D03*
X0484450Y0671490D03*
X0480710Y0680540D03*
D67*
X0515420Y0518970D03*
X0508530Y0518970D03*
D62*
X0557120Y0652900D03*
X0549640Y0652900D03*
X0553380Y0643840D03*
G36*
X0533430Y0618070D02*
X0533360Y0617740D01*
X0533150Y0617470D01*
X0532900Y0617330D01*
X0532600Y0617280D01*
X0532310Y0617330D01*
X0532060Y0617470D01*
X0531850Y0617750D01*
X0531780Y0618070D01*
X0531780Y0620680D01*
X0533430Y0620680D01*
X0533430Y0618070D01*
G37*
G36*
X0531460Y0618070D02*
X0531390Y0617740D01*
X0531180Y0617470D01*
X0530930Y0617330D01*
X0530640Y0617280D01*
X0530340Y0617330D01*
X0530090Y0617470D01*
X0529880Y0617750D01*
X0529810Y0618070D01*
X0529810Y0620680D01*
X0531460Y0620680D01*
X0531460Y0618070D01*
G37*
G36*
X0529490Y0618070D02*
X0529420Y0617740D01*
X0529210Y0617470D01*
X0528960Y0617330D01*
X0528670Y0617280D01*
X0528370Y0617330D01*
X0528120Y0617470D01*
X0527910Y0617750D01*
X0527840Y0618070D01*
X0527840Y0620680D01*
X0529490Y0620680D01*
X0529490Y0618070D01*
G37*
G36*
X0527530Y0618070D02*
X0527450Y0617740D01*
X0527240Y0617470D01*
X0527000Y0617330D01*
X0526700Y0617280D01*
X0526400Y0617330D01*
X0526160Y0617470D01*
X0525940Y0617750D01*
X0525870Y0618070D01*
X0525870Y0620680D01*
X0527530Y0620680D01*
X0527530Y0618070D01*
G37*
G36*
X0525870Y0608080D02*
X0525940Y0608410D01*
X0526160Y0608690D01*
X0526400Y0608830D01*
X0526700Y0608880D01*
X0527000Y0608830D01*
X0527240Y0608690D01*
X0527460Y0608410D01*
X0527530Y0608080D01*
X0527530Y0605470D01*
X0525870Y0605470D01*
X0525870Y0608080D01*
G37*
G36*
X0527840Y0608080D02*
X0527910Y0608410D01*
X0528130Y0608690D01*
X0528370Y0608830D01*
X0528670Y0608880D01*
X0528970Y0608830D01*
X0529210Y0608690D01*
X0529420Y0608410D01*
X0529490Y0608080D01*
X0529490Y0605470D01*
X0527840Y0605470D01*
X0527840Y0608080D01*
G37*
G36*
X0529810Y0608080D02*
X0529880Y0608410D01*
X0530090Y0608690D01*
X0530340Y0608830D01*
X0530640Y0608880D01*
X0530930Y0608830D01*
X0531180Y0608690D01*
X0531390Y0608410D01*
X0531460Y0608080D01*
X0531460Y0605470D01*
X0529810Y0605470D01*
X0529810Y0608080D01*
G37*
G36*
X0531780Y0608080D02*
X0531850Y0608410D01*
X0532060Y0608690D01*
X0532310Y0608830D01*
X0532600Y0608880D01*
X0532900Y0608830D01*
X0533150Y0608690D01*
X0533360Y0608410D01*
X0533430Y0608080D01*
X0533430Y0605470D01*
X0531780Y0605470D01*
X0531780Y0608080D01*
G37*
G36*
X0533750Y0608080D02*
X0533820Y0608410D01*
X0534030Y0608690D01*
X0534280Y0608830D01*
X0534570Y0608880D01*
X0534870Y0608830D01*
X0535120Y0608690D01*
X0535330Y0608410D01*
X0535400Y0608080D01*
X0535400Y0605470D01*
X0533750Y0605470D01*
X0533750Y0608080D01*
G37*
D13*
X0527680Y0615140D03*
G36*
X0535640Y0616700D02*
X0525640Y0616700D01*
X0525640Y0615100D01*
X0522880Y0615100D01*
X0522880Y0613450D01*
X0525640Y0613450D01*
X0525640Y0612900D01*
X0522880Y0612900D01*
X0522880Y0611250D01*
X0525640Y0611250D01*
X0525640Y0609650D01*
X0535640Y0609650D01*
X0535640Y0611250D01*
X0538390Y0611250D01*
X0538390Y0612900D01*
X0535640Y0612900D01*
X0535640Y0613450D01*
X0538390Y0613450D01*
X0538390Y0615100D01*
X0535640Y0615100D01*
X0535640Y0616700D01*
G37*
G36*
X0535400Y0618070D02*
X0535330Y0617740D01*
X0535110Y0617470D01*
X0534870Y0617330D01*
X0534570Y0617280D01*
X0534270Y0617330D01*
X0534030Y0617470D01*
X0533820Y0617750D01*
X0533750Y0618070D01*
X0533750Y0620680D01*
X0535400Y0620680D01*
X0535400Y0618070D01*
G37*
D13*
X0527680Y0611210D03*
X0533590Y0615140D03*
X0530640Y0613180D03*
X0533590Y0611210D03*
D16*
X0534480Y0663990D03*
X0534480Y0668990D03*
X0534480Y0673990D03*
X0534480Y0678990D03*
X0513220Y0678990D03*
X0513220Y0673990D03*
X0513220Y0668990D03*
X0513220Y0663990D03*
D63*
X0520730Y0586480D03*
X0539480Y0586480D03*
D62*
X0503390Y0640720D03*
X0510870Y0640720D03*
X0507130Y0649770D03*
D11*
X0561360Y0583980D03*
X0561360Y0578860D03*
X0561360Y0595860D03*
X0561360Y0590740D03*
D78*
X0490040Y0660800D03*
X0495160Y0660800D03*
X0491970Y0680860D03*
X0497090Y0680860D03*
X0493280Y0640290D03*
X0488170Y0640290D03*
D11*
X0548860Y0559090D03*
X0548860Y0553980D03*
D78*
X0553910Y0624390D03*
X0548790Y0624390D03*
D40*
X0540130Y0507290D03*
X0540130Y0500590D03*
X0562570Y0507290D03*
X0562570Y0500590D03*
D14*
X0551350Y0509250D03*
X0551350Y0498620D03*
D40*
X0461390Y0507100D03*
X0461390Y0500400D03*
X0483830Y0507100D03*
X0483830Y0500400D03*
D14*
X0472610Y0509060D03*
X0472610Y0498430D03*
D58*
X0476350Y0650240D03*
X0476350Y0657720D03*
X0467290Y0653980D03*
D11*
X0466970Y0668990D03*
X0466970Y0674110D03*
D78*
X0493220Y0649610D03*
X0488110Y0649610D03*
D22*
X0566360Y0643980D03*
X0571360Y0643980D03*
X0571360Y0673980D03*
X0566360Y0673980D03*
D11*
X0508230Y0613360D03*
X0508230Y0608240D03*
X0508290Y0619550D03*
X0508290Y0624670D03*
D34*
X0637960Y0503340D03*
D45*
X0637960Y0719330D03*
D61*
X0637960Y0543340D03*
X0637960Y0679330D03*
D54*
X0608550Y0503340D03*
X0689300Y0187170D02*
G75*
G01*
%LPD*%
D55*
X0785380Y0235910D03*
X0774360Y0235910D03*
D10*
X0699140Y0221660D03*
D44*
X0699140Y0231660D03*
X0699140Y0241660D03*
X0699140Y0251660D03*
X0699140Y0261660D03*
X0699140Y0271660D03*
X0699140Y0281660D03*
X0699140Y0291660D03*
X0699140Y0301660D03*
X0699140Y0311660D03*
X0699140Y0321660D03*
X0699140Y0331660D03*
D10*
X0856620Y0221660D03*
D44*
X0856620Y0231660D03*
X0856620Y0241660D03*
X0856620Y0251660D03*
X0856620Y0261660D03*
X0856620Y0271660D03*
X0856620Y0281660D03*
X0856620Y0291660D03*
X0856620Y0301660D03*
X0856620Y0311660D03*
X0856620Y0321660D03*
X0856620Y0331660D03*
D47*
X0799100Y0218790D03*
D30*
X0808950Y0218790D03*
X0816820Y0218790D03*
X0826660Y0218790D03*
D76*
X0787020Y0208160D03*
X0838750Y0208160D03*
D24*
X0700380Y0198410D03*
D41*
X0710380Y0198410D03*
X0720380Y0198410D03*
X0730380Y0198410D03*
X0740380Y0198410D03*
X0750380Y0198410D03*
X0760380Y0198410D03*
D69*
X0821780Y0283410D03*
D72*
X0821780Y0288410D03*
X0821780Y0293410D03*
X0821780Y0298410D03*
X0821780Y0303410D03*
X0821780Y0308410D03*
X0821780Y0313410D03*
X0821780Y0318410D03*
X0821780Y0323410D03*
X0821780Y0328410D03*
X0821780Y0333410D03*
X0821780Y0338410D03*
X0821780Y0343410D03*
X0821780Y0348410D03*
X0821780Y0353410D03*
X0816780Y0283410D03*
X0816780Y0288410D03*
X0816780Y0293410D03*
X0816780Y0298410D03*
X0816780Y0303410D03*
X0816780Y0308410D03*
X0816780Y0313410D03*
X0816780Y0318410D03*
X0816780Y0323410D03*
X0816780Y0328410D03*
X0816780Y0333410D03*
X0816780Y0338410D03*
X0816780Y0343410D03*
X0816780Y0348410D03*
X0816780Y0353410D03*
X0738990Y0308490D03*
X0738990Y0313490D03*
X0738990Y0318490D03*
X0738990Y0323490D03*
X0738990Y0328490D03*
X0738990Y0333490D03*
X0738990Y0338490D03*
X0738990Y0343490D03*
X0738990Y0348490D03*
X0738990Y0353490D03*
X0733990Y0308490D03*
X0733990Y0313490D03*
X0733990Y0318490D03*
X0733990Y0323490D03*
X0733990Y0328490D03*
X0733990Y0333490D03*
X0733990Y0338490D03*
X0733990Y0343490D03*
X0733990Y0348490D03*
D69*
X0733990Y0353490D03*
X0344650Y0738660D02*
G75*
G01*
%LPD*%
D34*
X0385990Y0749560D03*
D45*
X0385990Y0965550D03*
D61*
X0385990Y0789560D03*
X0385990Y0925550D03*
D54*
X0356580Y0749560D03*
D11*
X0553230Y0882700D03*
X0553230Y0877590D03*
D48*
X0521140Y0812700D03*
X0513850Y0812700D03*
D10*
X0433240Y0832200D03*
D44*
X0433240Y0842200D03*
X0433240Y0852200D03*
X0433240Y0862200D03*
X0433240Y0872200D03*
X0433240Y0882200D03*
X0433240Y0892200D03*
X0433240Y0902200D03*
X0433240Y0912200D03*
X0433240Y0922200D03*
X0433240Y0932200D03*
X0433240Y0942200D03*
D10*
X0590720Y0832200D03*
D44*
X0590720Y0842200D03*
X0590720Y0852200D03*
X0590720Y0862200D03*
X0590720Y0872200D03*
X0590720Y0882200D03*
X0590720Y0892200D03*
X0590720Y0902200D03*
X0590720Y0912200D03*
X0590720Y0922200D03*
X0590720Y0932200D03*
X0590720Y0942200D03*
D75*
X0540620Y0880310D03*
X0540620Y0887600D03*
D48*
X0491970Y0939580D03*
X0499260Y0939580D03*
D78*
X0532600Y0880200D03*
X0526700Y0880200D03*
X0518850Y0896450D03*
X0524760Y0896450D03*
D62*
X0476970Y0917710D03*
X0484450Y0917710D03*
X0480710Y0926760D03*
D67*
X0515420Y0765190D03*
X0508530Y0765190D03*
D62*
X0557120Y0899120D03*
X0549640Y0899120D03*
X0553380Y0890060D03*
G36*
X0533430Y0864290D02*
X0533360Y0863960D01*
X0533150Y0863690D01*
X0532900Y0863550D01*
X0532600Y0863500D01*
X0532310Y0863550D01*
X0532060Y0863690D01*
X0531850Y0863970D01*
X0531780Y0864290D01*
X0531780Y0866900D01*
X0533430Y0866900D01*
X0533430Y0864290D01*
G37*
G36*
X0531460Y0864290D02*
X0531390Y0863960D01*
X0531180Y0863690D01*
X0530930Y0863550D01*
X0530640Y0863500D01*
X0530340Y0863550D01*
X0530090Y0863690D01*
X0529880Y0863970D01*
X0529810Y0864290D01*
X0529810Y0866900D01*
X0531460Y0866900D01*
X0531460Y0864290D01*
G37*
G36*
X0529490Y0864290D02*
X0529420Y0863960D01*
X0529210Y0863690D01*
X0528960Y0863550D01*
X0528670Y0863500D01*
X0528370Y0863550D01*
X0528120Y0863690D01*
X0527910Y0863970D01*
X0527840Y0864290D01*
X0527840Y0866900D01*
X0529490Y0866900D01*
X0529490Y0864290D01*
G37*
G36*
X0527530Y0864290D02*
X0527450Y0863960D01*
X0527240Y0863690D01*
X0527000Y0863550D01*
X0526700Y0863500D01*
X0526400Y0863550D01*
X0526160Y0863690D01*
X0525940Y0863970D01*
X0525870Y0864290D01*
X0525870Y0866900D01*
X0527530Y0866900D01*
X0527530Y0864290D01*
G37*
G36*
X0525870Y0854300D02*
X0525940Y0854630D01*
X0526160Y0854910D01*
X0526400Y0855050D01*
X0526700Y0855100D01*
X0527000Y0855050D01*
X0527240Y0854910D01*
X0527460Y0854630D01*
X0527530Y0854300D01*
X0527530Y0851690D01*
X0525870Y0851690D01*
X0525870Y0854300D01*
G37*
G36*
X0527840Y0854300D02*
X0527910Y0854630D01*
X0528130Y0854910D01*
X0528370Y0855050D01*
X0528670Y0855100D01*
X0528970Y0855050D01*
X0529210Y0854910D01*
X0529420Y0854630D01*
X0529490Y0854300D01*
X0529490Y0851690D01*
X0527840Y0851690D01*
X0527840Y0854300D01*
G37*
G36*
X0529810Y0854300D02*
X0529880Y0854630D01*
X0530090Y0854910D01*
X0530340Y0855050D01*
X0530640Y0855100D01*
X0530930Y0855050D01*
X0531180Y0854910D01*
X0531390Y0854630D01*
X0531460Y0854300D01*
X0531460Y0851690D01*
X0529810Y0851690D01*
X0529810Y0854300D01*
G37*
G36*
X0531780Y0854300D02*
X0531850Y0854630D01*
X0532060Y0854910D01*
X0532310Y0855050D01*
X0532600Y0855100D01*
X0532900Y0855050D01*
X0533150Y0854910D01*
X0533360Y0854630D01*
X0533430Y0854300D01*
X0533430Y0851690D01*
X0531780Y0851690D01*
X0531780Y0854300D01*
G37*
G36*
X0533750Y0854300D02*
X0533820Y0854630D01*
X0534030Y0854910D01*
X0534280Y0855050D01*
X0534570Y0855100D01*
X0534870Y0855050D01*
X0535120Y0854910D01*
X0535330Y0854630D01*
X0535400Y0854300D01*
X0535400Y0851690D01*
X0533750Y0851690D01*
X0533750Y0854300D01*
G37*
D13*
X0527680Y0861360D03*
G36*
X0535640Y0862920D02*
X0525640Y0862920D01*
X0525640Y0861320D01*
X0522880Y0861320D01*
X0522880Y0859670D01*
X0525640Y0859670D01*
X0525640Y0859120D01*
X0522880Y0859120D01*
X0522880Y0857470D01*
X0525640Y0857470D01*
X0525640Y0855870D01*
X0535640Y0855870D01*
X0535640Y0857470D01*
X0538390Y0857470D01*
X0538390Y0859120D01*
X0535640Y0859120D01*
X0535640Y0859670D01*
X0538390Y0859670D01*
X0538390Y0861320D01*
X0535640Y0861320D01*
X0535640Y0862920D01*
G37*
G36*
X0535400Y0864290D02*
X0535330Y0863960D01*
X0535110Y0863690D01*
X0534870Y0863550D01*
X0534570Y0863500D01*
X0534270Y0863550D01*
X0534030Y0863690D01*
X0533820Y0863970D01*
X0533750Y0864290D01*
X0533750Y0866900D01*
X0535400Y0866900D01*
X0535400Y0864290D01*
G37*
D13*
X0527680Y0857430D03*
X0533590Y0861360D03*
X0530640Y0859400D03*
X0533590Y0857430D03*
D16*
X0534480Y0910210D03*
X0534480Y0915210D03*
X0534480Y0920210D03*
X0534480Y0925210D03*
X0513220Y0925210D03*
X0513220Y0920210D03*
X0513220Y0915210D03*
X0513220Y0910210D03*
D63*
X0520730Y0832700D03*
X0539480Y0832700D03*
D62*
X0503390Y0886940D03*
X0510870Y0886940D03*
X0507130Y0895990D03*
D11*
X0561360Y0830200D03*
X0561360Y0825080D03*
X0561360Y0842080D03*
X0561360Y0836960D03*
D78*
X0490040Y0907020D03*
X0495160Y0907020D03*
X0491970Y0927080D03*
X0497090Y0927080D03*
X0493280Y0886510D03*
X0488170Y0886510D03*
D11*
X0548860Y0805310D03*
X0548860Y0800200D03*
D78*
X0553910Y0870610D03*
X0548790Y0870610D03*
D40*
X0540130Y0753510D03*
X0540130Y0746810D03*
X0562570Y0753510D03*
X0562570Y0746810D03*
D14*
X0551350Y0755470D03*
X0551350Y0744840D03*
D40*
X0461390Y0753320D03*
X0461390Y0746620D03*
X0483830Y0753320D03*
X0483830Y0746620D03*
D14*
X0472610Y0755280D03*
X0472610Y0744650D03*
D58*
X0476350Y0896460D03*
X0476350Y0903940D03*
X0467290Y0900200D03*
D11*
X0466970Y0915210D03*
X0466970Y0920330D03*
D78*
X0493220Y0895830D03*
X0488110Y0895830D03*
D22*
X0566360Y0890200D03*
X0571360Y0890200D03*
X0571360Y0920200D03*
X0566360Y0920200D03*
D11*
X0508230Y0859580D03*
X0508230Y0854460D03*
X0508290Y0865770D03*
X0508290Y0870890D03*
D34*
X0637960Y0749560D03*
D45*
X0637960Y0965550D03*
D61*
X0637960Y0789560D03*
X0637960Y0925550D03*
D54*
X0608550Y0749560D03*
X0689300Y0374340D02*
G75*
G01*
%LPD*%
D55*
X0785380Y0423080D03*
X0774360Y0423080D03*
D10*
X0699140Y0408830D03*
D44*
X0699140Y0418830D03*
X0699140Y0428830D03*
X0699140Y0438830D03*
X0699140Y0448830D03*
X0699140Y0458830D03*
X0699140Y0468830D03*
X0699140Y0478830D03*
X0699140Y0488830D03*
X0699140Y0498830D03*
X0699140Y0508830D03*
X0699140Y0518830D03*
D10*
X0856620Y0408830D03*
D44*
X0856620Y0418830D03*
X0856620Y0428830D03*
X0856620Y0438830D03*
X0856620Y0448830D03*
X0856620Y0458830D03*
X0856620Y0468830D03*
X0856620Y0478830D03*
X0856620Y0488830D03*
X0856620Y0498830D03*
X0856620Y0508830D03*
X0856620Y0518830D03*
D47*
X0799100Y0405960D03*
D30*
X0808950Y0405960D03*
X0816820Y0405960D03*
X0826660Y0405960D03*
D76*
X0787020Y0395330D03*
X0838750Y0395330D03*
D24*
X0700380Y0385580D03*
D41*
X0710380Y0385580D03*
X0720380Y0385580D03*
X0730380Y0385580D03*
X0740380Y0385580D03*
X0750380Y0385580D03*
X0760380Y0385580D03*
D69*
X0821780Y0470580D03*
D72*
X0821780Y0475580D03*
X0821780Y0480580D03*
X0821780Y0485580D03*
X0821780Y0490580D03*
X0821780Y0495580D03*
X0821780Y0500580D03*
X0821780Y0505580D03*
X0821780Y0510580D03*
X0821780Y0515580D03*
X0821780Y0520580D03*
X0821780Y0525580D03*
X0821780Y0530580D03*
X0821780Y0535580D03*
X0821780Y0540580D03*
X0816780Y0470580D03*
X0816780Y0475580D03*
X0816780Y0480580D03*
X0816780Y0485580D03*
X0816780Y0490580D03*
X0816780Y0495580D03*
X0816780Y0500580D03*
X0816780Y0505580D03*
X0816780Y0510580D03*
X0816780Y0515580D03*
X0816780Y0520580D03*
X0816780Y0525580D03*
X0816780Y0530580D03*
X0816780Y0535580D03*
X0816780Y0540580D03*
X0738990Y0495660D03*
X0738990Y0500660D03*
X0738990Y0505660D03*
X0738990Y0510660D03*
X0738990Y0515660D03*
X0738990Y0520660D03*
X0738990Y0525660D03*
X0738990Y0530660D03*
X0738990Y0535660D03*
X0738990Y0540660D03*
X0733990Y0495660D03*
X0733990Y0500660D03*
X0733990Y0505660D03*
X0733990Y0510660D03*
X0733990Y0515660D03*
X0733990Y0520660D03*
X0733990Y0525660D03*
X0733990Y0530660D03*
X0733990Y0535660D03*
D69*
X0733990Y0540660D03*
X0689300Y0561510D02*
G75*
G01*
%LPD*%
D55*
X0785380Y0610250D03*
X0774360Y0610250D03*
D10*
X0699140Y0596000D03*
D44*
X0699140Y0606000D03*
X0699140Y0616000D03*
X0699140Y0626000D03*
X0699140Y0636000D03*
X0699140Y0646000D03*
X0699140Y0656000D03*
X0699140Y0666000D03*
X0699140Y0676000D03*
X0699140Y0686000D03*
X0699140Y0696000D03*
X0699140Y0706000D03*
D10*
X0856620Y0596000D03*
D44*
X0856620Y0606000D03*
X0856620Y0616000D03*
X0856620Y0626000D03*
X0856620Y0636000D03*
X0856620Y0646000D03*
X0856620Y0656000D03*
X0856620Y0666000D03*
X0856620Y0676000D03*
X0856620Y0686000D03*
X0856620Y0696000D03*
X0856620Y0706000D03*
D47*
X0799100Y0593130D03*
D30*
X0808950Y0593130D03*
X0816820Y0593130D03*
X0826660Y0593130D03*
D76*
X0787020Y0582500D03*
X0838750Y0582500D03*
D24*
X0700380Y0572750D03*
D41*
X0710380Y0572750D03*
X0720380Y0572750D03*
X0730380Y0572750D03*
X0740380Y0572750D03*
X0750380Y0572750D03*
X0760380Y0572750D03*
D69*
X0821780Y0657750D03*
D72*
X0821780Y0662750D03*
X0821780Y0667750D03*
X0821780Y0672750D03*
X0821780Y0677750D03*
X0821780Y0682750D03*
X0821780Y0687750D03*
X0821780Y0692750D03*
X0821780Y0697750D03*
X0821780Y0702750D03*
X0821780Y0707750D03*
X0821780Y0712750D03*
X0821780Y0717750D03*
X0821780Y0722750D03*
X0821780Y0727750D03*
X0816780Y0657750D03*
X0816780Y0662750D03*
X0816780Y0667750D03*
X0816780Y0672750D03*
X0816780Y0677750D03*
X0816780Y0682750D03*
X0816780Y0687750D03*
X0816780Y0692750D03*
X0816780Y0697750D03*
X0816780Y0702750D03*
X0816780Y0707750D03*
X0816780Y0712750D03*
X0816780Y0717750D03*
X0816780Y0722750D03*
X0816780Y0727750D03*
X0738990Y0682830D03*
X0738990Y0687830D03*
X0738990Y0692830D03*
X0738990Y0697830D03*
X0738990Y0702830D03*
X0738990Y0707830D03*
X0738990Y0712830D03*
X0738990Y0717830D03*
X0738990Y0722830D03*
X0738990Y0727830D03*
X0733990Y0682830D03*
X0733990Y0687830D03*
X0733990Y0692830D03*
X0733990Y0697830D03*
X0733990Y0702830D03*
X0733990Y0707830D03*
X0733990Y0712830D03*
X0733990Y0717830D03*
X0733990Y0722830D03*
D69*
X0733990Y0727830D03*
X0000000Y0984880D02*
G75*
G01*
%LPD*%
D34*
X0041340Y0995780D03*
D45*
X0041340Y1211770D03*
D61*
X0041340Y1035780D03*
X0041340Y1171770D03*
D54*
X0011930Y0995780D03*
D11*
X0208580Y1128920D03*
X0208580Y1123810D03*
D48*
X0176490Y1058920D03*
X0169200Y1058920D03*
D10*
X0088590Y1078420D03*
D44*
X0088590Y1088420D03*
X0088590Y1098420D03*
X0088590Y1108420D03*
X0088590Y1118420D03*
X0088590Y1128420D03*
X0088590Y1138420D03*
X0088590Y1148420D03*
X0088590Y1158420D03*
X0088590Y1168420D03*
X0088590Y1178420D03*
X0088590Y1188420D03*
D10*
X0246070Y1078420D03*
D44*
X0246070Y1088420D03*
X0246070Y1098420D03*
X0246070Y1108420D03*
X0246070Y1118420D03*
X0246070Y1128420D03*
X0246070Y1138420D03*
X0246070Y1148420D03*
X0246070Y1158420D03*
X0246070Y1168420D03*
X0246070Y1178420D03*
X0246070Y1188420D03*
D75*
X0195970Y1126530D03*
X0195970Y1133820D03*
D48*
X0147320Y1185800D03*
X0154610Y1185800D03*
D78*
X0187950Y1126420D03*
X0182050Y1126420D03*
X0174200Y1142670D03*
X0180110Y1142670D03*
D62*
X0132320Y1163930D03*
X0139800Y1163930D03*
X0136060Y1172980D03*
D67*
X0170770Y1011410D03*
X0163880Y1011410D03*
D62*
X0212470Y1145340D03*
X0204990Y1145340D03*
X0208730Y1136280D03*
G36*
X0188780Y1110510D02*
X0188710Y1110180D01*
X0188500Y1109910D01*
X0188250Y1109770D01*
X0187950Y1109720D01*
X0187660Y1109770D01*
X0187410Y1109910D01*
X0187200Y1110190D01*
X0187130Y1110510D01*
X0187130Y1113120D01*
X0188780Y1113120D01*
X0188780Y1110510D01*
G37*
G36*
X0186810Y1110510D02*
X0186740Y1110180D01*
X0186530Y1109910D01*
X0186280Y1109770D01*
X0185990Y1109720D01*
X0185690Y1109770D01*
X0185440Y1109910D01*
X0185230Y1110190D01*
X0185160Y1110510D01*
X0185160Y1113120D01*
X0186810Y1113120D01*
X0186810Y1110510D01*
G37*
G36*
X0184840Y1110510D02*
X0184770Y1110180D01*
X0184560Y1109910D01*
X0184310Y1109770D01*
X0184020Y1109720D01*
X0183720Y1109770D01*
X0183470Y1109910D01*
X0183260Y1110190D01*
X0183190Y1110510D01*
X0183190Y1113120D01*
X0184840Y1113120D01*
X0184840Y1110510D01*
G37*
G36*
X0182880Y1110510D02*
X0182800Y1110180D01*
X0182590Y1109910D01*
X0182350Y1109770D01*
X0182050Y1109720D01*
X0181750Y1109770D01*
X0181510Y1109910D01*
X0181290Y1110190D01*
X0181220Y1110510D01*
X0181220Y1113120D01*
X0182880Y1113120D01*
X0182880Y1110510D01*
G37*
G36*
X0181220Y1100520D02*
X0181290Y1100850D01*
X0181510Y1101130D01*
X0181750Y1101270D01*
X0182050Y1101320D01*
X0182350Y1101270D01*
X0182590Y1101130D01*
X0182810Y1100850D01*
X0182880Y1100520D01*
X0182880Y1097910D01*
X0181220Y1097910D01*
X0181220Y1100520D01*
G37*
G36*
X0183190Y1100520D02*
X0183260Y1100850D01*
X0183480Y1101130D01*
X0183720Y1101270D01*
X0184020Y1101320D01*
X0184320Y1101270D01*
X0184560Y1101130D01*
X0184770Y1100850D01*
X0184840Y1100520D01*
X0184840Y1097910D01*
X0183190Y1097910D01*
X0183190Y1100520D01*
G37*
G36*
X0185160Y1100520D02*
X0185230Y1100850D01*
X0185440Y1101130D01*
X0185690Y1101270D01*
X0185990Y1101320D01*
X0186280Y1101270D01*
X0186530Y1101130D01*
X0186740Y1100850D01*
X0186810Y1100520D01*
X0186810Y1097910D01*
X0185160Y1097910D01*
X0185160Y1100520D01*
G37*
G36*
X0187130Y1100520D02*
X0187200Y1100850D01*
X0187410Y1101130D01*
X0187660Y1101270D01*
X0187950Y1101320D01*
X0188250Y1101270D01*
X0188500Y1101130D01*
X0188710Y1100850D01*
X0188780Y1100520D01*
X0188780Y1097910D01*
X0187130Y1097910D01*
X0187130Y1100520D01*
G37*
G36*
X0189100Y1100520D02*
X0189170Y1100850D01*
X0189380Y1101130D01*
X0189630Y1101270D01*
X0189920Y1101320D01*
X0190220Y1101270D01*
X0190470Y1101130D01*
X0190680Y1100850D01*
X0190750Y1100520D01*
X0190750Y1097910D01*
X0189100Y1097910D01*
X0189100Y1100520D01*
G37*
D13*
X0183030Y1107580D03*
G36*
X0190990Y1109140D02*
X0180990Y1109140D01*
X0180990Y1107540D01*
X0178230Y1107540D01*
X0178230Y1105890D01*
X0180990Y1105890D01*
X0180990Y1105340D01*
X0178230Y1105340D01*
X0178230Y1103690D01*
X0180990Y1103690D01*
X0180990Y1102090D01*
X0190990Y1102090D01*
X0190990Y1103690D01*
X0193740Y1103690D01*
X0193740Y1105340D01*
X0190990Y1105340D01*
X0190990Y1105890D01*
X0193740Y1105890D01*
X0193740Y1107540D01*
X0190990Y1107540D01*
X0190990Y1109140D01*
G37*
G36*
X0190750Y1110510D02*
X0190680Y1110180D01*
X0190460Y1109910D01*
X0190220Y1109770D01*
X0189920Y1109720D01*
X0189620Y1109770D01*
X0189380Y1109910D01*
X0189170Y1110190D01*
X0189100Y1110510D01*
X0189100Y1113120D01*
X0190750Y1113120D01*
X0190750Y1110510D01*
G37*
D13*
X0183030Y1103650D03*
X0188940Y1107580D03*
X0185990Y1105620D03*
X0188940Y1103650D03*
D16*
X0189830Y1156430D03*
X0189830Y1161430D03*
X0189830Y1166430D03*
X0189830Y1171430D03*
X0168570Y1171430D03*
X0168570Y1166430D03*
X0168570Y1161430D03*
X0168570Y1156430D03*
D63*
X0176080Y1078920D03*
X0194830Y1078920D03*
D62*
X0158740Y1133160D03*
X0166220Y1133160D03*
X0162480Y1142210D03*
D11*
X0216710Y1076420D03*
X0216710Y1071300D03*
X0216710Y1088300D03*
X0216710Y1083180D03*
D78*
X0145390Y1153240D03*
X0150510Y1153240D03*
X0147320Y1173300D03*
X0152440Y1173300D03*
X0148630Y1132730D03*
X0143520Y1132730D03*
D11*
X0204210Y1051530D03*
X0204210Y1046420D03*
D78*
X0209260Y1116830D03*
X0204140Y1116830D03*
D40*
X0195480Y0999730D03*
X0195480Y0993030D03*
X0217920Y0999730D03*
X0217920Y0993030D03*
D14*
X0206700Y1001690D03*
X0206700Y0991060D03*
D40*
X0116740Y0999540D03*
X0116740Y0992840D03*
X0139180Y0999540D03*
X0139180Y0992840D03*
D14*
X0127960Y1001500D03*
X0127960Y0990870D03*
D58*
X0131700Y1142680D03*
X0131700Y1150160D03*
X0122640Y1146420D03*
D11*
X0122320Y1161430D03*
X0122320Y1166550D03*
D78*
X0148570Y1142050D03*
X0143460Y1142050D03*
D22*
X0221710Y1136420D03*
X0226710Y1136420D03*
X0226710Y1166420D03*
X0221710Y1166420D03*
D11*
X0163580Y1105800D03*
X0163580Y1100680D03*
X0163640Y1111990D03*
X0163640Y1117110D03*
D34*
X0293310Y0995780D03*
D45*
X0293310Y1211770D03*
D61*
X0293310Y1035780D03*
X0293310Y1171770D03*
D54*
X0263900Y0995780D03*
X0344650Y0984880D02*
G75*
G01*
%LPD*%
D34*
X0385990Y0995780D03*
D45*
X0385990Y1211770D03*
D61*
X0385990Y1035780D03*
X0385990Y1171770D03*
D54*
X0356580Y0995780D03*
D11*
X0553230Y1128920D03*
X0553230Y1123810D03*
D48*
X0521140Y1058920D03*
X0513850Y1058920D03*
D10*
X0433240Y1078420D03*
D44*
X0433240Y1088420D03*
X0433240Y1098420D03*
X0433240Y1108420D03*
X0433240Y1118420D03*
X0433240Y1128420D03*
X0433240Y1138420D03*
X0433240Y1148420D03*
X0433240Y1158420D03*
X0433240Y1168420D03*
X0433240Y1178420D03*
X0433240Y1188420D03*
D10*
X0590720Y1078420D03*
D44*
X0590720Y1088420D03*
X0590720Y1098420D03*
X0590720Y1108420D03*
X0590720Y1118420D03*
X0590720Y1128420D03*
X0590720Y1138420D03*
X0590720Y1148420D03*
X0590720Y1158420D03*
X0590720Y1168420D03*
X0590720Y1178420D03*
X0590720Y1188420D03*
D75*
X0540620Y1126530D03*
X0540620Y1133820D03*
D48*
X0491970Y1185800D03*
X0499260Y1185800D03*
D78*
X0532600Y1126420D03*
X0526700Y1126420D03*
X0518850Y1142670D03*
X0524760Y1142670D03*
D62*
X0476970Y1163930D03*
X0484450Y1163930D03*
X0480710Y1172980D03*
D67*
X0515420Y1011410D03*
X0508530Y1011410D03*
D62*
X0557120Y1145340D03*
X0549640Y1145340D03*
X0553380Y1136280D03*
G36*
X0533430Y1110510D02*
X0533360Y1110180D01*
X0533150Y1109910D01*
X0532900Y1109770D01*
X0532600Y1109720D01*
X0532310Y1109770D01*
X0532060Y1109910D01*
X0531850Y1110190D01*
X0531780Y1110510D01*
X0531780Y1113120D01*
X0533430Y1113120D01*
X0533430Y1110510D01*
G37*
G36*
X0531460Y1110510D02*
X0531390Y1110180D01*
X0531180Y1109910D01*
X0530930Y1109770D01*
X0530640Y1109720D01*
X0530340Y1109770D01*
X0530090Y1109910D01*
X0529880Y1110190D01*
X0529810Y1110510D01*
X0529810Y1113120D01*
X0531460Y1113120D01*
X0531460Y1110510D01*
G37*
G36*
X0529490Y1110510D02*
X0529420Y1110180D01*
X0529210Y1109910D01*
X0528960Y1109770D01*
X0528670Y1109720D01*
X0528370Y1109770D01*
X0528120Y1109910D01*
X0527910Y1110190D01*
X0527840Y1110510D01*
X0527840Y1113120D01*
X0529490Y1113120D01*
X0529490Y1110510D01*
G37*
G36*
X0527530Y1110510D02*
X0527450Y1110180D01*
X0527240Y1109910D01*
X0527000Y1109770D01*
X0526700Y1109720D01*
X0526400Y1109770D01*
X0526160Y1109910D01*
X0525940Y1110190D01*
X0525870Y1110510D01*
X0525870Y1113120D01*
X0527530Y1113120D01*
X0527530Y1110510D01*
G37*
G36*
X0525870Y1100520D02*
X0525940Y1100850D01*
X0526160Y1101130D01*
X0526400Y1101270D01*
X0526700Y1101320D01*
X0527000Y1101270D01*
X0527240Y1101130D01*
X0527460Y1100850D01*
X0527530Y1100520D01*
X0527530Y1097910D01*
X0525870Y1097910D01*
X0525870Y1100520D01*
G37*
G36*
X0527840Y1100520D02*
X0527910Y1100850D01*
X0528130Y1101130D01*
X0528370Y1101270D01*
X0528670Y1101320D01*
X0528970Y1101270D01*
X0529210Y1101130D01*
X0529420Y1100850D01*
X0529490Y1100520D01*
X0529490Y1097910D01*
X0527840Y1097910D01*
X0527840Y1100520D01*
G37*
G36*
X0529810Y1100520D02*
X0529880Y1100850D01*
X0530090Y1101130D01*
X0530340Y1101270D01*
X0530640Y1101320D01*
X0530930Y1101270D01*
X0531180Y1101130D01*
X0531390Y1100850D01*
X0531460Y1100520D01*
X0531460Y1097910D01*
X0529810Y1097910D01*
X0529810Y1100520D01*
G37*
G36*
X0531780Y1100520D02*
X0531850Y1100850D01*
X0532060Y1101130D01*
X0532310Y1101270D01*
X0532600Y1101320D01*
X0532900Y1101270D01*
X0533150Y1101130D01*
X0533360Y1100850D01*
X0533430Y1100520D01*
X0533430Y1097910D01*
X0531780Y1097910D01*
X0531780Y1100520D01*
G37*
G36*
X0533750Y1100520D02*
X0533820Y1100850D01*
X0534030Y1101130D01*
X0534280Y1101270D01*
X0534570Y1101320D01*
X0534870Y1101270D01*
X0535120Y1101130D01*
X0535330Y1100850D01*
X0535400Y1100520D01*
X0535400Y1097910D01*
X0533750Y1097910D01*
X0533750Y1100520D01*
G37*
D13*
X0527680Y1107580D03*
G36*
X0535640Y1109140D02*
X0525640Y1109140D01*
X0525640Y1107540D01*
X0522880Y1107540D01*
X0522880Y1105890D01*
X0525640Y1105890D01*
X0525640Y1105340D01*
X0522880Y1105340D01*
X0522880Y1103690D01*
X0525640Y1103690D01*
X0525640Y1102090D01*
X0535640Y1102090D01*
X0535640Y1103690D01*
X0538390Y1103690D01*
X0538390Y1105340D01*
X0535640Y1105340D01*
X0535640Y1105890D01*
X0538390Y1105890D01*
X0538390Y1107540D01*
X0535640Y1107540D01*
X0535640Y1109140D01*
G37*
G36*
X0535400Y1110510D02*
X0535330Y1110180D01*
X0535110Y1109910D01*
X0534870Y1109770D01*
X0534570Y1109720D01*
X0534270Y1109770D01*
X0534030Y1109910D01*
X0533820Y1110190D01*
X0533750Y1110510D01*
X0533750Y1113120D01*
X0535400Y1113120D01*
X0535400Y1110510D01*
G37*
D13*
X0527680Y1103650D03*
X0533590Y1107580D03*
X0530640Y1105620D03*
X0533590Y1103650D03*
D16*
X0534480Y1156430D03*
X0534480Y1161430D03*
X0534480Y1166430D03*
X0534480Y1171430D03*
X0513220Y1171430D03*
X0513220Y1166430D03*
X0513220Y1161430D03*
X0513220Y1156430D03*
D63*
X0520730Y1078920D03*
X0539480Y1078920D03*
D62*
X0503390Y1133160D03*
X0510870Y1133160D03*
X0507130Y1142210D03*
D11*
X0561360Y1076420D03*
X0561360Y1071300D03*
X0561360Y1088300D03*
X0561360Y1083180D03*
D78*
X0490040Y1153240D03*
X0495160Y1153240D03*
X0491970Y1173300D03*
X0497090Y1173300D03*
X0493280Y1132730D03*
X0488170Y1132730D03*
D11*
X0548860Y1051530D03*
X0548860Y1046420D03*
D78*
X0553910Y1116830D03*
X0548790Y1116830D03*
D40*
X0540130Y0999730D03*
X0540130Y0993030D03*
X0562570Y0999730D03*
X0562570Y0993030D03*
D14*
X0551350Y1001690D03*
X0551350Y0991060D03*
D40*
X0461390Y0999540D03*
X0461390Y0992840D03*
X0483830Y0999540D03*
X0483830Y0992840D03*
D14*
X0472610Y1001500D03*
X0472610Y0990870D03*
D58*
X0476350Y1142680D03*
X0476350Y1150160D03*
X0467290Y1146420D03*
D11*
X0466970Y1161430D03*
X0466970Y1166550D03*
D78*
X0493220Y1142050D03*
X0488110Y1142050D03*
D22*
X0566360Y1136420D03*
X0571360Y1136420D03*
X0571360Y1166420D03*
X0566360Y1166420D03*
D11*
X0508230Y1105800D03*
X0508230Y1100680D03*
X0508290Y1111990D03*
X0508290Y1117110D03*
D34*
X0637960Y0995780D03*
D45*
X0637960Y1211770D03*
D61*
X0637960Y1035780D03*
X0637960Y1171770D03*
D54*
X0608550Y0995780D03*
X0689300Y0748680D02*
G75*
G01*
%LPD*%
D55*
X0785380Y0797420D03*
X0774360Y0797420D03*
D10*
X0699140Y0783170D03*
D44*
X0699140Y0793170D03*
X0699140Y0803170D03*
X0699140Y0813170D03*
X0699140Y0823170D03*
X0699140Y0833170D03*
X0699140Y0843170D03*
X0699140Y0853170D03*
X0699140Y0863170D03*
X0699140Y0873170D03*
X0699140Y0883170D03*
X0699140Y0893170D03*
D10*
X0856620Y0783170D03*
D44*
X0856620Y0793170D03*
X0856620Y0803170D03*
X0856620Y0813170D03*
X0856620Y0823170D03*
X0856620Y0833170D03*
X0856620Y0843170D03*
X0856620Y0853170D03*
X0856620Y0863170D03*
X0856620Y0873170D03*
X0856620Y0883170D03*
X0856620Y0893170D03*
D47*
X0799100Y0780300D03*
D30*
X0808950Y0780300D03*
X0816820Y0780300D03*
X0826660Y0780300D03*
D76*
X0787020Y0769670D03*
X0838750Y0769670D03*
D24*
X0700380Y0759920D03*
D41*
X0710380Y0759920D03*
X0720380Y0759920D03*
X0730380Y0759920D03*
X0740380Y0759920D03*
X0750380Y0759920D03*
X0760380Y0759920D03*
D69*
X0821780Y0844920D03*
D72*
X0821780Y0849920D03*
X0821780Y0854920D03*
X0821780Y0859920D03*
X0821780Y0864920D03*
X0821780Y0869920D03*
X0821780Y0874920D03*
X0821780Y0879920D03*
X0821780Y0884920D03*
X0821780Y0889920D03*
X0821780Y0894920D03*
X0821780Y0899920D03*
X0821780Y0904920D03*
X0821780Y0909920D03*
X0821780Y0914920D03*
X0816780Y0844920D03*
X0816780Y0849920D03*
X0816780Y0854920D03*
X0816780Y0859920D03*
X0816780Y0864920D03*
X0816780Y0869920D03*
X0816780Y0874920D03*
X0816780Y0879920D03*
X0816780Y0884920D03*
X0816780Y0889920D03*
X0816780Y0894920D03*
X0816780Y0899920D03*
X0816780Y0904920D03*
X0816780Y0909920D03*
X0816780Y0914920D03*
X0738990Y0870000D03*
X0738990Y0875000D03*
X0738990Y0880000D03*
X0738990Y0885000D03*
X0738990Y0890000D03*
X0738990Y0895000D03*
X0738990Y0900000D03*
X0738990Y0905000D03*
X0738990Y0910000D03*
X0738990Y0915000D03*
X0733990Y0870000D03*
X0733990Y0875000D03*
X0733990Y0880000D03*
X0733990Y0885000D03*
X0733990Y0890000D03*
X0733990Y0895000D03*
X0733990Y0900000D03*
X0733990Y0905000D03*
X0733990Y0910000D03*
D69*
X0733990Y0915000D03*
X0689300Y0935850D02*
G75*
G01*
%LPD*%
D55*
X0785380Y0984590D03*
X0774360Y0984590D03*
D10*
X0699140Y0970340D03*
D44*
X0699140Y0980340D03*
X0699140Y0990340D03*
X0699140Y1000340D03*
X0699140Y1010340D03*
X0699140Y1020340D03*
X0699140Y1030340D03*
X0699140Y1040340D03*
X0699140Y1050340D03*
X0699140Y1060340D03*
X0699140Y1070340D03*
X0699140Y1080340D03*
D10*
X0856620Y0970340D03*
D44*
X0856620Y0980340D03*
X0856620Y0990340D03*
X0856620Y1000340D03*
X0856620Y1010340D03*
X0856620Y1020340D03*
X0856620Y1030340D03*
X0856620Y1040340D03*
X0856620Y1050340D03*
X0856620Y1060340D03*
X0856620Y1070340D03*
X0856620Y1080340D03*
D47*
X0799100Y0967470D03*
D30*
X0808950Y0967470D03*
X0816820Y0967470D03*
X0826660Y0967470D03*
D76*
X0787020Y0956840D03*
X0838750Y0956840D03*
D24*
X0700380Y0947090D03*
D41*
X0710380Y0947090D03*
X0720380Y0947090D03*
X0730380Y0947090D03*
X0740380Y0947090D03*
X0750380Y0947090D03*
X0760380Y0947090D03*
D69*
X0821780Y1032090D03*
D72*
X0821780Y1037090D03*
X0821780Y1042090D03*
X0821780Y1047090D03*
X0821780Y1052090D03*
X0821780Y1057090D03*
X0821780Y1062090D03*
X0821780Y1067090D03*
X0821780Y1072090D03*
X0821780Y1077090D03*
X0821780Y1082090D03*
X0821780Y1087090D03*
X0821780Y1092090D03*
X0821780Y1097090D03*
X0821780Y1102090D03*
X0816780Y1032090D03*
X0816780Y1037090D03*
X0816780Y1042090D03*
X0816780Y1047090D03*
X0816780Y1052090D03*
X0816780Y1057090D03*
X0816780Y1062090D03*
X0816780Y1067090D03*
X0816780Y1072090D03*
X0816780Y1077090D03*
X0816780Y1082090D03*
X0816780Y1087090D03*
X0816780Y1092090D03*
X0816780Y1097090D03*
X0816780Y1102090D03*
X0738990Y1057170D03*
X0738990Y1062170D03*
X0738990Y1067170D03*
X0738990Y1072170D03*
X0738990Y1077170D03*
X0738990Y1082170D03*
X0738990Y1087170D03*
X0738990Y1092170D03*
X0738990Y1097170D03*
X0738990Y1102170D03*
X0733990Y1057170D03*
X0733990Y1062170D03*
X0733990Y1067170D03*
X0733990Y1072170D03*
X0733990Y1077170D03*
X0733990Y1082170D03*
X0733990Y1087170D03*
X0733990Y1092170D03*
X0733990Y1097170D03*
D69*
X0733990Y1102170D03*
M02*
