G04 DipTrace 2.4.0.2*
%INTopAssy.gbr*%
%MOMM*%
%ADD10C,0.2*%
%ADD14C,0.5*%
%ADD58C,0.118*%
%ADD59C,0.078*%
%FSLAX53Y53*%
G04*
G71*
G90*
G75*
G01*
%LNTopAssy*%
%LPD*%
X33890Y5051D2*
D10*
X48890D1*
X10555Y14375D2*
X30315D1*
X24121Y54355D2*
D14*
X40950D1*
Y48481D1*
X24121D1*
Y54355D1*
X42321Y6171D2*
D58*
X41848D1*
Y5405D1*
X42321D1*
X41848Y5806D2*
X42139D1*
X42556Y6171D2*
Y5405D1*
X42811D1*
X42921Y5442D1*
X42994Y5515D1*
X43030Y5588D1*
X43067Y5697D1*
Y5880D1*
X43030Y5989D1*
X42994Y6062D1*
X42921Y6135D1*
X42811Y6171D1*
X42556D1*
X43849Y5989D2*
X43812Y6062D1*
X43739Y6135D1*
X43667Y6171D1*
X43521D1*
X43448Y6135D1*
X43375Y6062D1*
X43338Y5989D1*
X43302Y5880D1*
Y5697D1*
X43338Y5588D1*
X43375Y5515D1*
X43448Y5442D1*
X43521Y5405D1*
X43667D1*
X43739Y5442D1*
X43812Y5515D1*
X43849Y5588D1*
Y5697D1*
X43667D1*
X44557Y6171D2*
X44084D1*
Y5405D1*
X44557D1*
X44084Y5806D2*
X44375D1*
X37297Y6161D2*
Y5395D1*
X37625D1*
X37735Y5432D1*
X37771Y5469D1*
X37807Y5541D1*
Y5651D1*
X37771Y5724D1*
X37735Y5760D1*
X37625Y5796D1*
X37735Y5833D1*
X37771Y5870D1*
X37807Y5942D1*
Y6015D1*
X37771Y6088D1*
X37735Y6125D1*
X37625Y6161D1*
X37297D1*
Y5796D2*
X37625D1*
X38262Y6161D2*
X38188Y6125D1*
X38116Y6052D1*
X38079Y5979D1*
X38043Y5870D1*
Y5687D1*
X38079Y5578D1*
X38116Y5505D1*
X38188Y5432D1*
X38262Y5395D1*
X38407D1*
X38480Y5432D1*
X38553Y5505D1*
X38589Y5578D1*
X38625Y5687D1*
Y5870D1*
X38589Y5979D1*
X38553Y6052D1*
X38480Y6125D1*
X38407Y6161D1*
X38262D1*
X39444Y5395D2*
X39152Y6161D1*
X38861Y5395D1*
X38970Y5651D2*
X39335D1*
X39680Y5796D2*
X40007D1*
X40117Y5833D1*
X40154Y5870D1*
X40190Y5942D1*
Y6015D1*
X40154Y6088D1*
X40117Y6125D1*
X40007Y6161D1*
X39680D1*
Y5395D1*
X39935Y5796D2*
X40190Y5395D1*
X40425Y6161D2*
Y5395D1*
X40681D1*
X40790Y5432D1*
X40863Y5505D1*
X40900Y5578D1*
X40936Y5687D1*
Y5870D1*
X40900Y5979D1*
X40863Y6052D1*
X40790Y6125D1*
X40681Y6161D1*
X40425D1*
X17909Y15348D2*
D59*
Y14837D1*
X18128D1*
X18201Y14862D1*
X18226Y14886D1*
X18250Y14934D1*
Y15007D1*
X18226Y15056D1*
X18201Y15080D1*
X18128Y15105D1*
X18201Y15129D1*
X18226Y15153D1*
X18250Y15202D1*
Y15251D1*
X18226Y15299D1*
X18201Y15324D1*
X18128Y15348D1*
X17909D1*
Y15105D2*
X18128D1*
X18553Y15348D2*
X18504Y15324D1*
X18455Y15275D1*
X18431Y15226D1*
X18407Y15153D1*
Y15032D1*
X18431Y14959D1*
X18455Y14910D1*
X18504Y14862D1*
X18553Y14837D1*
X18650D1*
X18698Y14862D1*
X18747Y14910D1*
X18771Y14959D1*
X18795Y15032D1*
Y15153D1*
X18771Y15226D1*
X18747Y15275D1*
X18698Y15324D1*
X18650Y15348D1*
X18553D1*
X19341Y14837D2*
X19146Y15348D1*
X18952Y14837D1*
X19025Y15007D2*
X19268D1*
X19498Y15105D2*
X19716D1*
X19789Y15129D1*
X19814Y15153D1*
X19838Y15202D1*
Y15251D1*
X19814Y15299D1*
X19789Y15324D1*
X19716Y15348D1*
X19498D1*
Y14837D1*
X19668Y15105D2*
X19838Y14837D1*
X19995Y15348D2*
Y14837D1*
X20165D1*
X20238Y14862D1*
X20287Y14910D1*
X20311Y14959D1*
X20335Y15032D1*
Y15153D1*
X20311Y15226D1*
X20287Y15275D1*
X20238Y15324D1*
X20165Y15348D1*
X19995D1*
X21302D2*
X20986D1*
Y14837D1*
X21302D1*
X20986Y15105D2*
X21180D1*
X21459Y15348D2*
Y14837D1*
X21629D1*
X21702Y14862D1*
X21751Y14910D1*
X21775Y14959D1*
X21799Y15032D1*
Y15153D1*
X21775Y15226D1*
X21751Y15275D1*
X21702Y15324D1*
X21629Y15348D1*
X21459D1*
X22320Y15226D2*
X22296Y15275D1*
X22247Y15324D1*
X22199Y15348D1*
X22102D1*
X22053Y15324D1*
X22005Y15275D1*
X21980Y15226D1*
X21956Y15153D1*
Y15032D1*
X21980Y14959D1*
X22005Y14910D1*
X22053Y14862D1*
X22102Y14837D1*
X22199D1*
X22247Y14862D1*
X22296Y14910D1*
X22320Y14959D1*
Y15032D1*
X22199D1*
X22793Y15348D2*
X22477D1*
Y14837D1*
X22793D1*
X22477Y15105D2*
X22671D1*
M02*
