G04 DipTrace 2.4.0.2*
%INTopMask.gbr*%
%MOMM*%
%ADD36C,1.24*%
%ADD37R,1.14X1.14*%
%ADD39C,1.84*%
%ADD41R,1.84X1.84*%
%ADD43C,3.34*%
%ADD45C,1.74*%
%ADD47R,1.74X1.74*%
%ADD49C,1.76*%
%ADD51R,1.76X1.76*%
%ADD53R,2.14X1.34*%
%FSLAX53Y53*%
G04*
G71*
G90*
G75*
G01*
%LNTopMask*%
%LPD*%
D53*
X34405Y22380D3*
X31605D3*
D51*
X12500Y18760D3*
D49*
Y21300D3*
Y23840D3*
Y26380D3*
Y28920D3*
Y31460D3*
Y34000D3*
Y36540D3*
Y39080D3*
Y41620D3*
Y44160D3*
Y46700D3*
D51*
X52500Y18760D3*
D49*
Y21300D3*
Y23840D3*
Y26380D3*
Y28920D3*
Y31460D3*
Y34000D3*
Y36540D3*
Y39080D3*
Y41620D3*
Y44160D3*
Y46700D3*
D47*
X37890Y18032D3*
D45*
X40390D3*
X42390D3*
X44890D3*
D43*
X34820Y15332D3*
X47960D3*
D41*
X12815Y12855D3*
D39*
X15355D3*
X17895D3*
X20435D3*
X22975D3*
X25515D3*
X28055D3*
D37*
X43650Y34445D3*
D36*
Y35715D3*
Y36985D3*
Y38255D3*
Y39525D3*
Y40795D3*
Y42065D3*
Y43335D3*
Y44605D3*
Y45875D3*
Y47145D3*
Y48415D3*
Y49685D3*
Y50955D3*
Y52225D3*
X42380Y34445D3*
Y35715D3*
Y36985D3*
Y38255D3*
Y39525D3*
Y40795D3*
Y42065D3*
Y43335D3*
Y44605D3*
Y45875D3*
Y47145D3*
Y48415D3*
Y49685D3*
Y50955D3*
Y52225D3*
X22620Y40815D3*
Y42085D3*
Y43355D3*
Y44625D3*
Y45895D3*
Y47165D3*
Y48435D3*
Y49705D3*
Y50975D3*
Y52245D3*
X21350Y40815D3*
Y42085D3*
Y43355D3*
Y44625D3*
Y45895D3*
Y47165D3*
Y48435D3*
Y49705D3*
Y50975D3*
D37*
Y52245D3*
M02*
