G04 DipTrace 2.4.0.2*
%INTopSilk.gbr*%
%MOMM*%
%ADD10C,0.2*%
%ADD17O,0.4X0.4*%
%ADD55C,0.157*%
%ADD56C,0.196*%
%ADD57C,0.235*%
%FSLAX53Y53*%
G04*
G71*
G90*
G75*
G01*
%LNTopSilk*%
%LPD*%
X34705Y21480D2*
D10*
X31305D1*
X34705Y23280D2*
X31305D1*
D17*
X35905Y22380D3*
X11250Y17240D2*
D10*
X13750D1*
Y48220D1*
X11250D1*
Y17240D1*
X51250D2*
X53750D1*
Y48220D1*
X51250D1*
Y17240D1*
X34490Y5032D2*
X48290D1*
X34490D2*
Y13331D1*
X48290Y5032D2*
Y13332D1*
X34490Y17332D2*
Y19282D1*
X48290D1*
Y17332D1*
X11545Y14125D2*
X29325D1*
Y11585D1*
X11545D1*
Y14125D1*
X19750Y24845D2*
X45250D1*
Y59845D1*
X19750D1*
Y24845D1*
X44500Y34911D2*
Y33483D1*
X43230D2*
X44500D1*
X20416Y51767D2*
Y53199D1*
X21841D2*
X20416D1*
X24756Y53720D2*
X40315D1*
Y49116D1*
X24756D1*
Y53720D1*
X32839Y20808D2*
D55*
X32801Y20905D1*
X32723Y21002D1*
X32645Y21051D1*
X32490D1*
X32412Y21002D1*
X32334Y20905D1*
X32295Y20808D1*
X32256Y20662D1*
Y20418D1*
X32295Y20273D1*
X32334Y20176D1*
X32412Y20079D1*
X32490Y20030D1*
X32645D1*
X32723Y20079D1*
X32801Y20176D1*
X32839Y20273D1*
X33090Y20855D2*
X33169Y20905D1*
X33285Y21049D1*
Y20030D1*
X16619Y47342D2*
Y46565D1*
X16580Y46419D1*
X16541Y46371D1*
X16464Y46321D1*
X16385D1*
X16308Y46371D1*
X16270Y46419D1*
X16230Y46565D1*
Y46662D1*
X16870Y47147D2*
X16948Y47196D1*
X17065Y47341D1*
Y46321D1*
X52599Y16563D2*
Y15786D1*
X52561Y15640D1*
X52521Y15591D1*
X52444Y15542D1*
X52366D1*
X52289Y15591D1*
X52250Y15640D1*
X52210Y15786D1*
Y15882D1*
X52890Y16319D2*
Y16367D1*
X52929Y16465D1*
X52967Y16513D1*
X53045Y16562D1*
X53201D1*
X53278Y16513D1*
X53317Y16465D1*
X53356Y16367D1*
Y16271D1*
X53317Y16173D1*
X53240Y16028D1*
X52850Y15542D1*
X53395D1*
X33221Y19282D2*
Y18505D1*
X33182Y18359D1*
X33143Y18311D1*
X33066Y18262D1*
X32987D1*
X32910Y18311D1*
X32872Y18359D1*
X32832Y18505D1*
Y18602D1*
X33550Y19281D2*
X33977D1*
X33744Y18893D1*
X33861D1*
X33938Y18844D1*
X33977Y18796D1*
X34017Y18650D1*
Y18554D1*
X33977Y18408D1*
X33900Y18310D1*
X33783Y18262D1*
X33666D1*
X33550Y18310D1*
X33512Y18359D1*
X33472Y18456D1*
X30196Y13503D2*
Y12726D1*
X30158Y12580D1*
X30118Y12531D1*
X30041Y12482D1*
X29963D1*
X29885Y12531D1*
X29847Y12580D1*
X29807Y12726D1*
Y12822D1*
X30836Y12482D2*
Y13502D1*
X30447Y12822D1*
X31030D1*
X45778Y48093D2*
Y47364D1*
X45817Y47218D1*
X45895Y47121D1*
X46012Y47072D1*
X46089D1*
X46206Y47121D1*
X46284Y47218D1*
X46323Y47364D1*
Y48093D1*
X46574Y47897D2*
X46652Y47947D1*
X46769Y48092D1*
Y47072D1*
X48605Y18955D2*
D56*
Y19015D1*
X48642Y19138D1*
X48678Y19198D1*
X48751Y19258D1*
X48897D1*
X48969Y19198D1*
X49006Y19138D1*
X49043Y19015D1*
Y18895D1*
X49006Y18773D1*
X48933Y18591D1*
X48568Y17984D1*
X49079D1*
X49679D2*
Y19258D1*
X49314Y18409D1*
X49861D1*
X50096Y18621D2*
X50517D1*
X48606Y21495D2*
Y21555D1*
X48642Y21677D1*
X48678Y21737D1*
X48752Y21798D1*
X48897D1*
X48970Y21737D1*
X49006Y21677D1*
X49043Y21555D1*
Y21434D1*
X49006Y21312D1*
X48934Y21131D1*
X48569Y20523D1*
X49079D1*
X49752Y21798D2*
X49388D1*
X49352Y21252D1*
X49388Y21312D1*
X49497Y21374D1*
X49606D1*
X49716Y21312D1*
X49789Y21191D1*
X49825Y21009D1*
Y20888D1*
X49789Y20706D1*
X49716Y20584D1*
X49606Y20523D1*
X49497D1*
X49388Y20584D1*
X49352Y20645D1*
X49315Y20766D1*
X50060Y21160D2*
X50482D1*
X48285Y42095D2*
X48213Y42217D1*
X48104Y42277D1*
X47958D1*
X47848Y42217D1*
X47775Y42095D1*
Y41974D1*
X47812Y41852D1*
X47848Y41792D1*
X47921Y41731D1*
X48140Y41609D1*
X48213Y41549D1*
X48249Y41487D1*
X48285Y41366D1*
Y41184D1*
X48213Y41063D1*
X48104Y41001D1*
X47958D1*
X47848Y41063D1*
X47775Y41184D1*
X48958Y42276D2*
X48594D1*
X48558Y41730D1*
X48594Y41790D1*
X48704Y41852D1*
X48812D1*
X48922Y41790D1*
X48995Y41670D1*
X49031Y41487D1*
Y41366D1*
X48995Y41184D1*
X48922Y41062D1*
X48812Y41001D1*
X48704D1*
X48594Y41062D1*
X48558Y41124D1*
X48521Y41244D1*
X49267Y42277D2*
X49558Y41001D1*
X49849Y42277D1*
X50085Y41639D2*
X50506D1*
X49006Y44817D2*
X48642D1*
X48606Y44271D1*
X48642Y44331D1*
X48752Y44393D1*
X48860D1*
X48970Y44331D1*
X49043Y44210D1*
X49079Y44028D1*
Y43907D1*
X49043Y43724D1*
X48970Y43602D1*
X48860Y43542D1*
X48752D1*
X48642Y43602D1*
X48606Y43664D1*
X48569Y43785D1*
X49314Y44818D2*
X49606Y43542D1*
X49897Y44818D1*
X50133Y44179D2*
X50554D1*
X47848Y47357D2*
X48248D1*
X48030Y46871D1*
X48140D1*
X48212Y46811D1*
X48248Y46751D1*
X48285Y46568D1*
Y46447D1*
X48248Y46265D1*
X48176Y46143D1*
X48066Y46082D1*
X47957D1*
X47848Y46143D1*
X47812Y46205D1*
X47775Y46325D1*
X48521Y47359D2*
X48812Y46082D1*
X49104Y47359D1*
X49412Y47357D2*
X49812D1*
X49594Y46871D1*
X49704D1*
X49776Y46811D1*
X49812Y46751D1*
X49849Y46568D1*
Y46447D1*
X49812Y46265D1*
X49740Y46143D1*
X49630Y46082D1*
X49521D1*
X49412Y46143D1*
X49376Y46205D1*
X49339Y46325D1*
X50085Y46720D2*
X50506D1*
X49909Y39435D2*
X49873Y39556D1*
X49800Y39678D1*
X49727Y39738D1*
X49582D1*
X49508Y39678D1*
X49436Y39556D1*
X49399Y39435D1*
X49363Y39252D1*
Y38948D1*
X49399Y38767D1*
X49436Y38644D1*
X49508Y38524D1*
X49582Y38462D1*
X49727D1*
X49800Y38524D1*
X49873Y38644D1*
X49909Y38767D1*
Y38948D1*
X49727D1*
X50145Y39099D2*
X50566D1*
X49909Y36895D2*
X49873Y37016D1*
X49800Y37138D1*
X49727Y37198D1*
X49582D1*
X49508Y37138D1*
X49436Y37016D1*
X49399Y36895D1*
X49363Y36712D1*
Y36408D1*
X49399Y36227D1*
X49436Y36104D1*
X49508Y35984D1*
X49582Y35922D1*
X49727D1*
X49800Y35984D1*
X49873Y36104D1*
X49909Y36227D1*
Y36408D1*
X49727D1*
X50145Y36559D2*
X50566D1*
X48642Y34657D2*
X49042D1*
X48824Y34171D1*
X48934D1*
X49006Y34111D1*
X49042Y34050D1*
X49079Y33868D1*
Y33747D1*
X49042Y33564D1*
X48970Y33442D1*
X48860Y33382D1*
X48751D1*
X48642Y33442D1*
X48606Y33504D1*
X48569Y33625D1*
X49534Y34657D2*
X49424Y34596D1*
X49351Y34414D1*
X49315Y34111D1*
Y33928D1*
X49351Y33625D1*
X49424Y33442D1*
X49534Y33382D1*
X49606D1*
X49716Y33442D1*
X49788Y33625D1*
X49825Y33928D1*
Y34111D1*
X49788Y34414D1*
X49716Y34596D1*
X49606Y34657D1*
X49534D1*
X49788Y34414D2*
X49351Y33625D1*
X50060Y34019D2*
X50482D1*
X48606Y31813D2*
Y31874D1*
X48642Y31996D1*
X48678Y32056D1*
X48752Y32117D1*
X48897D1*
X48970Y32056D1*
X49006Y31996D1*
X49043Y31874D1*
Y31753D1*
X49006Y31631D1*
X48934Y31450D1*
X48569Y30842D1*
X49079D1*
X49789Y31693D2*
X49752Y31510D1*
X49679Y31388D1*
X49570Y31328D1*
X49534D1*
X49424Y31388D1*
X49352Y31510D1*
X49315Y31693D1*
Y31753D1*
X49352Y31936D1*
X49424Y32056D1*
X49534Y32117D1*
X49570D1*
X49679Y32056D1*
X49752Y31936D1*
X49789Y31693D1*
Y31388D1*
X49752Y31085D1*
X49679Y30902D1*
X49570Y30842D1*
X49497D1*
X49388Y30902D1*
X49352Y31024D1*
X50024Y31479D2*
X50445D1*
X48606Y29273D2*
Y29334D1*
X48642Y29456D1*
X48678Y29516D1*
X48752Y29577D1*
X48897D1*
X48970Y29516D1*
X49006Y29456D1*
X49043Y29334D1*
Y29213D1*
X49006Y29091D1*
X48934Y28910D1*
X48569Y28302D1*
X49079D1*
X49497Y29577D2*
X49388Y29516D1*
X49351Y29396D1*
Y29273D1*
X49388Y29153D1*
X49460Y29091D1*
X49606Y29031D1*
X49716Y28970D1*
X49788Y28848D1*
X49824Y28727D1*
Y28545D1*
X49788Y28424D1*
X49752Y28362D1*
X49642Y28302D1*
X49497D1*
X49388Y28362D1*
X49351Y28424D1*
X49315Y28545D1*
Y28727D1*
X49351Y28848D1*
X49424Y28970D1*
X49533Y29031D1*
X49679Y29091D1*
X49752Y29153D1*
X49788Y29273D1*
Y29396D1*
X49752Y29516D1*
X49642Y29577D1*
X49497D1*
X50060Y28939D2*
X50481D1*
X48606Y26733D2*
Y26794D1*
X48642Y26916D1*
X48678Y26976D1*
X48752Y27037D1*
X48897D1*
X48970Y26976D1*
X49006Y26916D1*
X49043Y26794D1*
Y26673D1*
X49006Y26551D1*
X48934Y26370D1*
X48569Y25762D1*
X49079D1*
X49460D2*
X49825Y27037D1*
X49315D1*
X50060Y26399D2*
X50482D1*
X48606Y24193D2*
Y24254D1*
X48642Y24376D1*
X48678Y24436D1*
X48752Y24497D1*
X48897D1*
X48970Y24436D1*
X49006Y24376D1*
X49043Y24254D1*
Y24133D1*
X49006Y24011D1*
X48934Y23830D1*
X48569Y23222D1*
X49079D1*
X49752Y24316D2*
X49716Y24436D1*
X49606Y24497D1*
X49534D1*
X49424Y24436D1*
X49351Y24254D1*
X49315Y23951D1*
Y23647D1*
X49351Y23404D1*
X49424Y23282D1*
X49534Y23222D1*
X49570D1*
X49679Y23282D1*
X49752Y23404D1*
X49788Y23587D1*
Y23647D1*
X49752Y23830D1*
X49679Y23951D1*
X49570Y24011D1*
X49534D1*
X49424Y23951D1*
X49351Y23830D1*
X49315Y23647D1*
X50023Y23859D2*
X50444D1*
X14174Y46878D2*
X14596D1*
X14831Y47273D2*
X14904Y47334D1*
X15014Y47515D1*
Y46241D1*
X14174Y44338D2*
X14596D1*
X14868Y44672D2*
Y44733D1*
X14904Y44855D1*
X14940Y44915D1*
X15014Y44975D1*
X15159D1*
X15232Y44915D1*
X15268Y44855D1*
X15305Y44733D1*
Y44612D1*
X15268Y44490D1*
X15196Y44309D1*
X14831Y43701D1*
X15341D1*
X14174Y41798D2*
X14596D1*
X14904Y42435D2*
X15304D1*
X15086Y41950D1*
X15196D1*
X15268Y41889D1*
X15304Y41829D1*
X15341Y41646D1*
Y41526D1*
X15304Y41343D1*
X15232Y41221D1*
X15122Y41161D1*
X15013D1*
X14904Y41221D1*
X14868Y41283D1*
X14831Y41404D1*
X14174Y39258D2*
X14596D1*
X15196Y38621D2*
Y39895D1*
X14831Y39046D1*
X15378D1*
X14174Y36718D2*
X14596D1*
X15268Y37355D2*
X14904D1*
X14868Y36809D1*
X14904Y36870D1*
X15014Y36931D1*
X15122D1*
X15232Y36870D1*
X15305Y36749D1*
X15341Y36566D1*
Y36446D1*
X15305Y36263D1*
X15232Y36141D1*
X15122Y36081D1*
X15014D1*
X14904Y36141D1*
X14868Y36203D1*
X14831Y36324D1*
X14174Y34178D2*
X14596D1*
X15268Y34634D2*
X15232Y34755D1*
X15122Y34815D1*
X15050D1*
X14940Y34755D1*
X14867Y34572D1*
X14831Y34269D1*
Y33966D1*
X14867Y33723D1*
X14940Y33601D1*
X15050Y33541D1*
X15086D1*
X15195Y33601D1*
X15268Y33723D1*
X15304Y33906D1*
Y33966D1*
X15268Y34149D1*
X15195Y34269D1*
X15086Y34330D1*
X15050D1*
X14940Y34269D1*
X14867Y34149D1*
X14831Y33966D1*
X14174Y31638D2*
X14596D1*
X14977Y31001D2*
X15341Y32275D1*
X14831D1*
X14174Y29098D2*
X14596D1*
X15414Y28461D2*
Y29737D1*
X15122Y28461D1*
X14831Y29737D1*
Y28461D1*
X14174Y26558D2*
X14596D1*
X15378Y26894D2*
X15341Y27014D1*
X15268Y27136D1*
X15196Y27197D1*
X15050D1*
X14977Y27136D1*
X14904Y27014D1*
X14867Y26894D1*
X14831Y26711D1*
Y26406D1*
X14867Y26225D1*
X14904Y26103D1*
X14977Y25982D1*
X15050Y25921D1*
X15196D1*
X15268Y25982D1*
X15341Y26103D1*
X15378Y26225D1*
X14174Y24018D2*
X14596D1*
X14831Y24412D2*
X14904Y24474D1*
X15014Y24655D1*
Y23381D1*
X15686Y24474D2*
X15650Y24595D1*
X15540Y24655D1*
X15468D1*
X15358Y24595D1*
X15285Y24412D1*
X15249Y24109D1*
Y23806D1*
X15285Y23563D1*
X15358Y23441D1*
X15468Y23381D1*
X15504D1*
X15613Y23441D1*
X15686Y23563D1*
X15722Y23746D1*
Y23806D1*
X15686Y23989D1*
X15613Y24109D1*
X15504Y24170D1*
X15468D1*
X15358Y24109D1*
X15285Y23989D1*
X15249Y23806D1*
X25612Y50825D2*
D57*
X25845Y49804D1*
X26078Y50825D1*
X26311Y49804D1*
X26544Y50825D1*
X26921D2*
X27154Y49804D1*
X27387Y50825D1*
X27620Y49804D1*
X27853Y50825D1*
X28230D2*
X28463Y49804D1*
X28696Y50825D1*
X28929Y49804D1*
X29162Y50825D1*
X29597Y49951D2*
X29539Y49877D1*
X29597Y49804D1*
X29656Y49877D1*
X29597Y49951D1*
X30033Y50825D2*
Y50096D1*
X30091Y49878D1*
X30208Y49804D1*
X30383D1*
X30499Y49878D1*
X30674Y50096D1*
Y50825D2*
Y49804D1*
X31051Y50825D2*
Y49804D1*
Y50534D2*
X31226Y50753D1*
X31343Y50825D1*
X31517D1*
X31634Y50753D1*
X31692Y50534D1*
Y49804D1*
X32069Y50825D2*
X32302Y49804D1*
X32535Y50825D1*
X32768Y49804D1*
X33001Y50825D1*
X34077Y51336D2*
Y49804D1*
Y50606D2*
X33961Y50753D1*
X33844Y50825D1*
X33669D1*
X33553Y50753D1*
X33436Y50606D1*
X33378Y50387D1*
Y50242D1*
X33436Y50023D1*
X33553Y49878D1*
X33669Y49804D1*
X33844D1*
X33961Y49878D1*
X34077Y50023D1*
X35095Y50606D2*
X35037Y50753D1*
X34862Y50825D1*
X34687D1*
X34512Y50753D1*
X34454Y50606D1*
X34512Y50461D1*
X34629Y50387D1*
X34920Y50315D1*
X35037Y50242D1*
X35095Y50096D1*
Y50023D1*
X35037Y49878D1*
X34862Y49804D1*
X34687D1*
X34512Y49878D1*
X34454Y50023D1*
X35530Y49951D2*
X35472Y49877D1*
X35530Y49804D1*
X35589Y49877D1*
X35530Y49951D1*
X36666Y50606D2*
X36549Y50753D1*
X36432Y50825D1*
X36258D1*
X36141Y50753D1*
X36025Y50606D1*
X35965Y50387D1*
Y50242D1*
X36025Y50023D1*
X36141Y49878D1*
X36258Y49804D1*
X36432D1*
X36549Y49878D1*
X36666Y50023D1*
X37334Y50825D2*
X37218Y50753D1*
X37101Y50606D1*
X37043Y50387D1*
Y50242D1*
X37101Y50023D1*
X37218Y49878D1*
X37334Y49804D1*
X37509D1*
X37626Y49878D1*
X37742Y50023D1*
X37801Y50242D1*
Y50387D1*
X37742Y50606D1*
X37626Y50753D1*
X37509Y50825D1*
X37334D1*
X38178D2*
Y49804D1*
Y50534D2*
X38353Y50753D1*
X38470Y50825D1*
X38644D1*
X38761Y50753D1*
X38819Y50534D1*
Y49804D1*
Y50534D2*
X38995Y50753D1*
X39112Y50825D1*
X39286D1*
X39403Y50753D1*
X39462Y50534D1*
Y49804D1*
X25612Y53241D2*
Y52147D1*
X25670Y51928D1*
X25787Y51784D1*
X25962Y51709D1*
X26078D1*
X26253Y51784D1*
X26370Y51928D1*
X26428Y52147D1*
Y53241D1*
X27738Y51709D2*
Y53241D1*
X27271Y51709D1*
X26805Y53241D1*
Y51709D1*
X28114Y53241D2*
Y51709D1*
X28522D1*
X28698Y51784D1*
X28815Y51928D1*
X28873Y52075D1*
X28931Y52292D1*
Y52658D1*
X28873Y52877D1*
X28815Y53022D1*
X28698Y53168D1*
X28522Y53241D1*
X28114D1*
X29307D2*
Y51709D1*
X30124Y53241D2*
X29307Y52220D1*
X29598Y52585D2*
X30124Y51709D1*
X30500Y52474D2*
X31174D1*
X32425Y52877D2*
X32367Y53022D1*
X32250Y53168D1*
X32134Y53241D1*
X31901D1*
X31784Y53168D1*
X31668Y53022D1*
X31609Y52877D1*
X31551Y52658D1*
Y52292D1*
X31609Y52075D1*
X31668Y51928D1*
X31784Y51784D1*
X31901Y51709D1*
X32134D1*
X32250Y51784D1*
X32367Y51928D1*
X32425Y52075D1*
Y52292D1*
X32134D1*
X33736Y51709D2*
X33268Y53241D1*
X32802Y51709D1*
X32977Y52220D2*
X33561D1*
X34521Y53241D2*
Y51709D1*
X34112Y53241D2*
X34929D1*
X36063D2*
X35305D1*
Y51709D1*
X36063D1*
X35305Y52511D2*
X35772D1*
X11993Y15902D2*
X11942Y16047D1*
X11840Y16193D1*
X11738Y16266D1*
X11534D1*
X11432Y16193D1*
X11330Y16047D1*
X11278Y15902D1*
X11228Y15683D1*
Y15317D1*
X11278Y15100D1*
X11330Y14953D1*
X11432Y14809D1*
X11534Y14734D1*
X11738D1*
X11840Y14809D1*
X11942Y14953D1*
X11993Y15100D1*
Y15317D1*
X11738D1*
X13037Y16266D2*
Y14734D1*
X12322Y16266D1*
Y14734D1*
X13366Y16266D2*
Y14734D1*
X13724D1*
X13877Y14809D1*
X13979Y14953D1*
X14030Y15100D1*
X14081Y15317D1*
Y15683D1*
X14030Y15902D1*
X13979Y16047D1*
X13877Y16193D1*
X13724Y16266D1*
X13366D1*
X15650Y16047D2*
X15599Y16192D1*
X15446Y16264D1*
X15344D1*
X15191Y16192D1*
X15088Y15973D1*
X15038Y15609D1*
Y15245D1*
X15088Y14953D1*
X15191Y14807D1*
X15344Y14734D1*
X15395D1*
X15547Y14807D1*
X15650Y14953D1*
X15700Y15172D1*
Y15245D1*
X15650Y15464D1*
X15547Y15609D1*
X15395Y15681D1*
X15344D1*
X15191Y15609D1*
X15088Y15464D1*
X15038Y15245D1*
X17782Y14734D2*
X18292Y16264D1*
X17578D1*
X20372D2*
X20220Y16192D1*
X20168Y16047D1*
Y15900D1*
X20220Y15755D1*
X20322Y15681D1*
X20526Y15609D1*
X20679Y15536D1*
X20780Y15390D1*
X20831Y15245D1*
Y15026D1*
X20780Y14881D1*
X20730Y14807D1*
X20576Y14734D1*
X20372D1*
X20220Y14807D1*
X20168Y14881D1*
X20118Y15026D1*
Y15245D1*
X20168Y15390D1*
X20271Y15536D1*
X20423Y15609D1*
X20627Y15681D1*
X20730Y15755D1*
X20780Y15900D1*
Y16047D1*
X20730Y16192D1*
X20576Y16264D1*
X20372D1*
X22340Y15973D2*
X22443Y16047D1*
X22596Y16264D1*
Y14734D1*
X23180Y16264D2*
X23028Y16192D1*
X22976Y16047D1*
Y15900D1*
X23028Y15755D1*
X23129Y15681D1*
X23333Y15609D1*
X23487Y15536D1*
X23588Y15390D1*
X23639Y15245D1*
Y15026D1*
X23588Y14881D1*
X23537Y14807D1*
X23384Y14734D1*
X23180D1*
X23028Y14807D1*
X22976Y14881D1*
X22925Y15026D1*
Y15245D1*
X22976Y15390D1*
X23079Y15536D1*
X23231Y15609D1*
X23435Y15681D1*
X23537Y15755D1*
X23588Y15900D1*
Y16047D1*
X23537Y16192D1*
X23384Y16264D1*
X23180D1*
X24614Y15900D2*
Y15973D1*
X24665Y16119D1*
X24716Y16192D1*
X24818Y16264D1*
X25022D1*
X25124Y16192D1*
X25175Y16119D1*
X25226Y15973D1*
Y15828D1*
X25175Y15681D1*
X25073Y15464D1*
X24563Y14734D1*
X25277D1*
X25913Y16264D2*
X25760Y16192D1*
X25657Y15973D1*
X25607Y15609D1*
Y15390D1*
X25657Y15026D1*
X25760Y14807D1*
X25913Y14734D1*
X26015D1*
X26168Y14807D1*
X26269Y15026D1*
X26321Y15390D1*
Y15609D1*
X26269Y15973D1*
X26168Y16192D1*
X26015Y16264D1*
X25913D1*
X26269Y15973D2*
X25657Y15026D1*
X27154Y15900D2*
Y15973D1*
X27205Y16119D1*
X27256Y16192D1*
X27358Y16264D1*
X27562D1*
X27664Y16192D1*
X27715Y16119D1*
X27766Y15973D1*
Y15828D1*
X27715Y15681D1*
X27613Y15464D1*
X27103Y14734D1*
X27817D1*
X28657D2*
Y16264D1*
X28147Y15245D1*
X28912D1*
X17045Y18804D2*
X17605D1*
X17300Y18221D1*
X17453D1*
X17555Y18149D1*
X17605Y18076D1*
X17657Y17857D1*
Y17712D1*
X17605Y17493D1*
X17504Y17347D1*
X17351Y17274D1*
X17197D1*
X17045Y17347D1*
X16994Y17421D1*
X16943Y17566D1*
X18037Y17421D2*
X17987Y17347D1*
X18037Y17274D1*
X18089Y17347D1*
X18037Y17421D1*
X18521Y18804D2*
X19081D1*
X18776Y18221D1*
X18929D1*
X19031Y18149D1*
X19081Y18076D1*
X19133Y17857D1*
Y17712D1*
X19081Y17493D1*
X18980Y17347D1*
X18827Y17274D1*
X18673D1*
X18521Y17347D1*
X18470Y17421D1*
X18419Y17566D1*
X19463Y18806D2*
X19871Y17274D1*
X20279Y18806D1*
X21952D2*
X21849Y18733D1*
X21748Y18587D1*
X21696Y18442D1*
X21645Y18223D1*
Y17857D1*
X21696Y17640D1*
X21748Y17493D1*
X21849Y17349D1*
X21952Y17274D1*
X22156D1*
X22257Y17349D1*
X22360Y17493D1*
X22410Y17640D1*
X22461Y17857D1*
Y18223D1*
X22410Y18442D1*
X22360Y18587D1*
X22257Y18733D1*
X22156Y18806D1*
X21952D1*
X23505D2*
Y17274D1*
X22790Y18806D1*
Y17274D1*
X23834Y18806D2*
Y17274D1*
X24446D1*
X24776Y18806D2*
X25184Y18076D1*
Y17274D1*
X25592Y18806D2*
X25184Y18076D1*
X25973Y18804D2*
Y17785D1*
Y17421D2*
X25921Y17347D1*
X25973Y17274D1*
X26024Y17347D1*
X25973Y17421D1*
X37263Y21663D2*
Y20570D1*
X37313Y20351D1*
X37416Y20206D1*
X37569Y20132D1*
X37671D1*
X37824Y20206D1*
X37926Y20351D1*
X37977Y20570D1*
Y21663D1*
X39021Y21444D2*
X38920Y21591D1*
X38766Y21663D1*
X38562D1*
X38409Y21591D1*
X38307Y21444D1*
Y21299D1*
X38358Y21153D1*
X38409Y21080D1*
X38511Y21008D1*
X38817Y20861D1*
X38920Y20789D1*
X38970Y20715D1*
X39021Y20570D1*
Y20351D1*
X38920Y20206D1*
X38766Y20132D1*
X38562D1*
X38409Y20206D1*
X38307Y20351D1*
X39351Y21663D2*
Y20132D1*
X39810D1*
X39964Y20206D1*
X40014Y20278D1*
X40065Y20423D1*
Y20642D1*
X40014Y20789D1*
X39964Y20861D1*
X39810Y20934D1*
X39964Y21008D1*
X40014Y21080D1*
X40065Y21225D1*
Y21372D1*
X40014Y21517D1*
X39964Y21591D1*
X39810Y21663D1*
X39351D1*
Y20934D2*
X39810D1*
X41432Y21663D2*
Y20132D1*
X42146Y21663D2*
Y20132D1*
X41432Y20934D2*
X42146D1*
X42782Y21663D2*
X42680Y21591D1*
X42578Y21444D1*
X42526Y21299D1*
X42476Y21080D1*
Y20715D1*
X42526Y20497D1*
X42578Y20351D1*
X42680Y20206D1*
X42782Y20132D1*
X42986D1*
X43088Y20206D1*
X43190Y20351D1*
X43241Y20497D1*
X43292Y20715D1*
Y21080D1*
X43241Y21299D1*
X43190Y21444D1*
X43088Y21591D1*
X42986Y21663D1*
X42782D1*
X44336Y21444D2*
X44234Y21591D1*
X44081Y21663D1*
X43877D1*
X43724Y21591D1*
X43621Y21444D1*
Y21299D1*
X43673Y21153D1*
X43724Y21080D1*
X43825Y21008D1*
X44132Y20861D1*
X44234Y20789D1*
X44285Y20715D1*
X44336Y20570D1*
Y20351D1*
X44234Y20206D1*
X44081Y20132D1*
X43877D1*
X43724Y20206D1*
X43621Y20351D1*
X45022Y21663D2*
Y20132D1*
X44665Y21663D2*
X45380D1*
X14174Y21478D2*
D56*
X14596D1*
X14831Y21873D2*
X14904Y21934D1*
X15014Y22115D1*
Y20841D1*
X15395D2*
X15759Y22115D1*
X15249D1*
X14174Y18938D2*
X14596D1*
X14831Y18969D2*
X15159D1*
X15268Y19031D1*
X15305Y19091D1*
X15341Y19212D1*
Y19334D1*
X15305Y19455D1*
X15268Y19516D1*
X15159Y19577D1*
X14831D1*
Y18301D1*
X15086Y18969D2*
X15341Y18301D1*
M02*
