G75*
G70*
%OFA0B0*%
%FSLAX25Y25*%
%IPPOS*%
%LPD*%
%AMOC8*
5,1,8,0,0,1.08239X$1,22.5*
%
%ADD14R,0.06299X0.05118*%
%ADD18C,0.12795*%
%ADD21C,0.07480*%
%ADD29R,0.04528X0.06299*%
%ADD34C,0.06724*%
%ADD35R,0.05118X0.06299*%
%ADD37C,0.00394*%
%ADD45R,0.04331X0.03150*%
%LPD*%X0000000Y0000000D02*
%LPD*%
G01*
D37*
D29*
X0025614Y0084712D03*
X0025614Y0077232D03*
X0037614Y0099212D03*
X0037614Y0091732D03*
X0026614Y0043712D03*
X0026614Y0036232D03*
X0016614Y0094712D03*
X0016614Y0087232D03*
X0016614Y0102232D03*
X0016614Y0109712D03*
X0010614Y0130212D03*
X0010614Y0122732D03*
X0029614Y0130212D03*
X0029614Y0122732D03*
X0009614Y0154732D03*
X0009614Y0162212D03*
D35*
X0022614Y0094141D03*
X0022614Y0102803D03*
X0006614Y0052141D03*
X0006614Y0060803D03*
X0013614Y0052141D03*
X0013614Y0060803D03*
D18*
X0035472Y0008472D03*
X0017756Y0008472D03*
D34*
X0036425Y0193472D03*
X0028551Y0193472D03*
X0020677Y0193472D03*
X0012803Y0193472D03*
D45*
X0036354Y0171031D03*
X0036354Y0168472D03*
X0036354Y0165913D03*
X0028874Y0165913D03*
X0028874Y0171031D03*
D21*
X0016614Y0129472D03*
X0035827Y0129472D03*
D29*
X0022614Y0170212D03*
X0022614Y0162732D03*
X0024614Y0200732D03*
X0024614Y0208212D03*
D14*
X0028945Y0186472D03*
X0020283Y0186472D03*
%LPD*%X0062756Y0000000D02*
%LPD*%
G01*
D37*
D29*
X0088370Y0084712D03*
X0088370Y0077232D03*
X0100370Y0099212D03*
X0100370Y0091732D03*
X0089370Y0043712D03*
X0089370Y0036232D03*
X0079370Y0094712D03*
X0079370Y0087232D03*
X0079370Y0102232D03*
X0079370Y0109712D03*
X0073370Y0130212D03*
X0073370Y0122732D03*
X0092370Y0130212D03*
X0092370Y0122732D03*
X0072370Y0154732D03*
X0072370Y0162212D03*
D35*
X0085370Y0094141D03*
X0085370Y0102803D03*
X0069370Y0052141D03*
X0069370Y0060803D03*
X0076370Y0052141D03*
X0076370Y0060803D03*
D18*
X0098228Y0008472D03*
X0080512Y0008472D03*
D34*
X0099181Y0193472D03*
X0091307Y0193472D03*
X0083433Y0193472D03*
X0075559Y0193472D03*
D45*
X0099110Y0171031D03*
X0099110Y0168472D03*
X0099110Y0165913D03*
X0091630Y0165913D03*
X0091630Y0171031D03*
D21*
X0079370Y0129472D03*
X0098583Y0129472D03*
D29*
X0085370Y0170212D03*
X0085370Y0162732D03*
X0087370Y0200732D03*
X0087370Y0208212D03*
D14*
X0091701Y0186472D03*
X0083039Y0186472D03*
%LPD*%X0125512Y0000000D02*
%LPD*%
G01*
D37*
D29*
X0151126Y0084712D03*
X0151126Y0077232D03*
X0163126Y0099212D03*
X0163126Y0091732D03*
X0152126Y0043712D03*
X0152126Y0036232D03*
X0142126Y0094712D03*
X0142126Y0087232D03*
X0142126Y0102232D03*
X0142126Y0109712D03*
X0136126Y0130212D03*
X0136126Y0122732D03*
X0155126Y0130212D03*
X0155126Y0122732D03*
X0135126Y0154732D03*
X0135126Y0162212D03*
D35*
X0148126Y0094141D03*
X0148126Y0102803D03*
X0132126Y0052141D03*
X0132126Y0060803D03*
X0139126Y0052141D03*
X0139126Y0060803D03*
D18*
X0160984Y0008472D03*
X0143268Y0008472D03*
D34*
X0161937Y0193472D03*
X0154063Y0193472D03*
X0146189Y0193472D03*
X0138315Y0193472D03*
D45*
X0161866Y0171031D03*
X0161866Y0168472D03*
X0161866Y0165913D03*
X0154386Y0165913D03*
X0154386Y0171031D03*
D21*
X0142126Y0129472D03*
X0161339Y0129472D03*
D29*
X0148126Y0170212D03*
X0148126Y0162732D03*
X0150126Y0200732D03*
X0150126Y0208212D03*
D14*
X0154457Y0186472D03*
X0145795Y0186472D03*
%LPD*%X0188268Y0000000D02*
%LPD*%
G01*
D37*
D29*
X0213882Y0084712D03*
X0213882Y0077232D03*
X0225882Y0099212D03*
X0225882Y0091732D03*
X0214882Y0043712D03*
X0214882Y0036232D03*
X0204882Y0094712D03*
X0204882Y0087232D03*
X0204882Y0102232D03*
X0204882Y0109712D03*
X0198882Y0130212D03*
X0198882Y0122732D03*
X0217882Y0130212D03*
X0217882Y0122732D03*
X0197882Y0154732D03*
X0197882Y0162212D03*
D35*
X0210882Y0094141D03*
X0210882Y0102803D03*
X0194882Y0052141D03*
X0194882Y0060803D03*
X0201882Y0052141D03*
X0201882Y0060803D03*
D18*
X0223740Y0008472D03*
X0206024Y0008472D03*
D34*
X0224693Y0193472D03*
X0216819Y0193472D03*
X0208945Y0193472D03*
X0201071Y0193472D03*
D45*
X0224622Y0171031D03*
X0224622Y0168472D03*
X0224622Y0165913D03*
X0217142Y0165913D03*
X0217142Y0171031D03*
D21*
X0204882Y0129472D03*
X0224095Y0129472D03*
D29*
X0210882Y0170212D03*
X0210882Y0162732D03*
X0212882Y0200732D03*
X0212882Y0208212D03*
D14*
X0217213Y0186472D03*
X0208551Y0186472D03*
%LPD*%X0251024Y0000000D02*
%LPD*%
G01*
D37*
D29*
X0276638Y0084712D03*
X0276638Y0077232D03*
X0288638Y0099212D03*
X0288638Y0091732D03*
X0277638Y0043712D03*
X0277638Y0036232D03*
X0267638Y0094712D03*
X0267638Y0087232D03*
X0267638Y0102232D03*
X0267638Y0109712D03*
X0261638Y0130212D03*
X0261638Y0122732D03*
X0280638Y0130212D03*
X0280638Y0122732D03*
X0260638Y0154732D03*
X0260638Y0162212D03*
D35*
X0273638Y0094141D03*
X0273638Y0102803D03*
X0257638Y0052141D03*
X0257638Y0060803D03*
X0264638Y0052141D03*
X0264638Y0060803D03*
D18*
X0286496Y0008472D03*
X0268780Y0008472D03*
D34*
X0287449Y0193472D03*
X0279575Y0193472D03*
X0271701Y0193472D03*
X0263827Y0193472D03*
D45*
X0287378Y0171031D03*
X0287378Y0168472D03*
X0287378Y0165913D03*
X0279898Y0165913D03*
X0279898Y0171031D03*
D21*
X0267638Y0129472D03*
X0286851Y0129472D03*
D29*
X0273638Y0170212D03*
X0273638Y0162732D03*
X0275638Y0200732D03*
X0275638Y0208212D03*
D14*
X0279969Y0186472D03*
X0271307Y0186472D03*
%LPD*%X0313780Y0000000D02*
%LPD*%
G01*
D37*
D29*
X0339394Y0084712D03*
X0339394Y0077232D03*
X0351394Y0099212D03*
X0351394Y0091732D03*
X0340394Y0043712D03*
X0340394Y0036232D03*
X0330394Y0094712D03*
X0330394Y0087232D03*
X0330394Y0102232D03*
X0330394Y0109712D03*
X0324394Y0130212D03*
X0324394Y0122732D03*
X0343394Y0130212D03*
X0343394Y0122732D03*
X0323394Y0154732D03*
X0323394Y0162212D03*
D35*
X0336394Y0094141D03*
X0336394Y0102803D03*
X0320394Y0052141D03*
X0320394Y0060803D03*
X0327394Y0052141D03*
X0327394Y0060803D03*
D18*
X0349252Y0008472D03*
X0331536Y0008472D03*
D34*
X0350205Y0193472D03*
X0342331Y0193472D03*
X0334457Y0193472D03*
X0326583Y0193472D03*
D45*
X0350134Y0171031D03*
X0350134Y0168472D03*
X0350134Y0165913D03*
X0342654Y0165913D03*
X0342654Y0171031D03*
D21*
X0330394Y0129472D03*
X0349607Y0129472D03*
D29*
X0336394Y0170212D03*
X0336394Y0162732D03*
X0338394Y0200732D03*
X0338394Y0208212D03*
D14*
X0342725Y0186472D03*
X0334063Y0186472D03*
%LPD*%X0376536Y0000000D02*
%LPD*%
G01*
D37*
D29*
X0402150Y0084712D03*
X0402150Y0077232D03*
X0414150Y0099212D03*
X0414150Y0091732D03*
X0403150Y0043712D03*
X0403150Y0036232D03*
X0393150Y0094712D03*
X0393150Y0087232D03*
X0393150Y0102232D03*
X0393150Y0109712D03*
X0387150Y0130212D03*
X0387150Y0122732D03*
X0406150Y0130212D03*
X0406150Y0122732D03*
X0386150Y0154732D03*
X0386150Y0162212D03*
D35*
X0399150Y0094141D03*
X0399150Y0102803D03*
X0383150Y0052141D03*
X0383150Y0060803D03*
X0390150Y0052141D03*
X0390150Y0060803D03*
D18*
X0412008Y0008472D03*
X0394292Y0008472D03*
D34*
X0412961Y0193472D03*
X0405087Y0193472D03*
X0397213Y0193472D03*
X0389339Y0193472D03*
D45*
X0412890Y0171031D03*
X0412890Y0168472D03*
X0412890Y0165913D03*
X0405410Y0165913D03*
X0405410Y0171031D03*
D21*
X0393150Y0129472D03*
X0412363Y0129472D03*
D29*
X0399150Y0170212D03*
X0399150Y0162732D03*
X0401150Y0200732D03*
X0401150Y0208212D03*
D14*
X0405481Y0186472D03*
X0396819Y0186472D03*
%LPD*%X0439292Y0000000D02*
%LPD*%
G01*
D37*
D29*
X0464906Y0084712D03*
X0464906Y0077232D03*
X0476906Y0099212D03*
X0476906Y0091732D03*
X0465906Y0043712D03*
X0465906Y0036232D03*
X0455906Y0094712D03*
X0455906Y0087232D03*
X0455906Y0102232D03*
X0455906Y0109712D03*
X0449906Y0130212D03*
X0449906Y0122732D03*
X0468906Y0130212D03*
X0468906Y0122732D03*
X0448906Y0154732D03*
X0448906Y0162212D03*
D35*
X0461906Y0094141D03*
X0461906Y0102803D03*
X0445906Y0052141D03*
X0445906Y0060803D03*
X0452906Y0052141D03*
X0452906Y0060803D03*
D18*
X0474764Y0008472D03*
X0457048Y0008472D03*
D34*
X0475717Y0193472D03*
X0467843Y0193472D03*
X0459969Y0193472D03*
X0452095Y0193472D03*
D45*
X0475646Y0171031D03*
X0475646Y0168472D03*
X0475646Y0165913D03*
X0468166Y0165913D03*
X0468166Y0171031D03*
D21*
X0455906Y0129472D03*
X0475119Y0129472D03*
D29*
X0461906Y0170212D03*
X0461906Y0162732D03*
X0463906Y0200732D03*
X0463906Y0208212D03*
D14*
X0468237Y0186472D03*
X0459575Y0186472D03*
%LPD*%X0502048Y0000000D02*
%LPD*%
G01*
D37*
D29*
X0527662Y0084712D03*
X0527662Y0077232D03*
X0539662Y0099212D03*
X0539662Y0091732D03*
X0528662Y0043712D03*
X0528662Y0036232D03*
X0518662Y0094712D03*
X0518662Y0087232D03*
X0518662Y0102232D03*
X0518662Y0109712D03*
X0512662Y0130212D03*
X0512662Y0122732D03*
X0531662Y0130212D03*
X0531662Y0122732D03*
X0511662Y0154732D03*
X0511662Y0162212D03*
D35*
X0524662Y0094141D03*
X0524662Y0102803D03*
X0508662Y0052141D03*
X0508662Y0060803D03*
X0515662Y0052141D03*
X0515662Y0060803D03*
D18*
X0537520Y0008472D03*
X0519804Y0008472D03*
D34*
X0538473Y0193472D03*
X0530599Y0193472D03*
X0522725Y0193472D03*
X0514851Y0193472D03*
D45*
X0538402Y0171031D03*
X0538402Y0168472D03*
X0538402Y0165913D03*
X0530922Y0165913D03*
X0530922Y0171031D03*
D21*
X0518662Y0129472D03*
X0537875Y0129472D03*
D29*
X0524662Y0170212D03*
X0524662Y0162732D03*
X0526662Y0200732D03*
X0526662Y0208212D03*
D14*
X0530993Y0186472D03*
X0522331Y0186472D03*
%LPD*%X0564804Y0000000D02*
%LPD*%
G01*
D37*
D29*
X0590418Y0084712D03*
X0590418Y0077232D03*
X0602418Y0099212D03*
X0602418Y0091732D03*
X0591418Y0043712D03*
X0591418Y0036232D03*
X0581418Y0094712D03*
X0581418Y0087232D03*
X0581418Y0102232D03*
X0581418Y0109712D03*
X0575418Y0130212D03*
X0575418Y0122732D03*
X0594418Y0130212D03*
X0594418Y0122732D03*
X0574418Y0154732D03*
X0574418Y0162212D03*
D35*
X0587418Y0094141D03*
X0587418Y0102803D03*
X0571418Y0052141D03*
X0571418Y0060803D03*
X0578418Y0052141D03*
X0578418Y0060803D03*
D18*
X0600276Y0008472D03*
X0582560Y0008472D03*
D34*
X0601229Y0193472D03*
X0593355Y0193472D03*
X0585481Y0193472D03*
X0577607Y0193472D03*
D45*
X0601158Y0171031D03*
X0601158Y0168472D03*
X0601158Y0165913D03*
X0593678Y0165913D03*
X0593678Y0171031D03*
D21*
X0581418Y0129472D03*
X0600631Y0129472D03*
D29*
X0587418Y0170212D03*
X0587418Y0162732D03*
X0589418Y0200732D03*
X0589418Y0208212D03*
D14*
X0593749Y0186472D03*
X0585087Y0186472D03*
%LPD*%X0627560Y0000000D02*
%LPD*%
G01*
D37*
D29*
X0653174Y0084712D03*
X0653174Y0077232D03*
X0665174Y0099212D03*
X0665174Y0091732D03*
X0654174Y0043712D03*
X0654174Y0036232D03*
X0644174Y0094712D03*
X0644174Y0087232D03*
X0644174Y0102232D03*
X0644174Y0109712D03*
X0638174Y0130212D03*
X0638174Y0122732D03*
X0657174Y0130212D03*
X0657174Y0122732D03*
X0637174Y0154732D03*
X0637174Y0162212D03*
D35*
X0650174Y0094141D03*
X0650174Y0102803D03*
X0634174Y0052141D03*
X0634174Y0060803D03*
X0641174Y0052141D03*
X0641174Y0060803D03*
D18*
X0663032Y0008472D03*
X0645316Y0008472D03*
D34*
X0663985Y0193472D03*
X0656111Y0193472D03*
X0648237Y0193472D03*
X0640363Y0193472D03*
D45*
X0663914Y0171031D03*
X0663914Y0168472D03*
X0663914Y0165913D03*
X0656434Y0165913D03*
X0656434Y0171031D03*
D21*
X0644174Y0129472D03*
X0663387Y0129472D03*
D29*
X0650174Y0170212D03*
X0650174Y0162732D03*
X0652174Y0200732D03*
X0652174Y0208212D03*
D14*
X0656505Y0186472D03*
X0647843Y0186472D03*
%LPD*%X0690316Y0000000D02*
%LPD*%
G01*
D37*
D29*
X0715930Y0084712D03*
X0715930Y0077232D03*
X0727930Y0099212D03*
X0727930Y0091732D03*
X0716930Y0043712D03*
X0716930Y0036232D03*
X0706930Y0094712D03*
X0706930Y0087232D03*
X0706930Y0102232D03*
X0706930Y0109712D03*
X0700930Y0130212D03*
X0700930Y0122732D03*
X0719930Y0130212D03*
X0719930Y0122732D03*
X0699930Y0154732D03*
X0699930Y0162212D03*
D35*
X0712930Y0094141D03*
X0712930Y0102803D03*
X0696930Y0052141D03*
X0696930Y0060803D03*
X0703930Y0052141D03*
X0703930Y0060803D03*
D18*
X0725788Y0008472D03*
X0708072Y0008472D03*
D34*
X0726741Y0193472D03*
X0718867Y0193472D03*
X0710993Y0193472D03*
X0703119Y0193472D03*
D45*
X0726670Y0171031D03*
X0726670Y0168472D03*
X0726670Y0165913D03*
X0719190Y0165913D03*
X0719190Y0171031D03*
D21*
X0706930Y0129472D03*
X0726143Y0129472D03*
D29*
X0712930Y0170212D03*
X0712930Y0162732D03*
X0714930Y0200732D03*
X0714930Y0208212D03*
D14*
X0719261Y0186472D03*
X0710599Y0186472D03*
%LPD*%X0753072Y0000000D02*
%LPD*%
G01*
D37*
D29*
X0778686Y0084712D03*
X0778686Y0077232D03*
X0790686Y0099212D03*
X0790686Y0091732D03*
X0779686Y0043712D03*
X0779686Y0036232D03*
X0769686Y0094712D03*
X0769686Y0087232D03*
X0769686Y0102232D03*
X0769686Y0109712D03*
X0763686Y0130212D03*
X0763686Y0122732D03*
X0782686Y0130212D03*
X0782686Y0122732D03*
X0762686Y0154732D03*
X0762686Y0162212D03*
D35*
X0775686Y0094141D03*
X0775686Y0102803D03*
X0759686Y0052141D03*
X0759686Y0060803D03*
X0766686Y0052141D03*
X0766686Y0060803D03*
D18*
X0788544Y0008472D03*
X0770828Y0008472D03*
D34*
X0789497Y0193472D03*
X0781623Y0193472D03*
X0773749Y0193472D03*
X0765875Y0193472D03*
D45*
X0789426Y0171031D03*
X0789426Y0168472D03*
X0789426Y0165913D03*
X0781946Y0165913D03*
X0781946Y0171031D03*
D21*
X0769686Y0129472D03*
X0788899Y0129472D03*
D29*
X0775686Y0170212D03*
X0775686Y0162732D03*
X0777686Y0200732D03*
X0777686Y0208212D03*
D14*
X0782017Y0186472D03*
X0773355Y0186472D03*
%LPD*%X0815828Y0000000D02*
%LPD*%
G01*
D37*
D29*
X0841442Y0084712D03*
X0841442Y0077232D03*
X0853442Y0099212D03*
X0853442Y0091732D03*
X0842442Y0043712D03*
X0842442Y0036232D03*
X0832442Y0094712D03*
X0832442Y0087232D03*
X0832442Y0102232D03*
X0832442Y0109712D03*
X0826442Y0130212D03*
X0826442Y0122732D03*
X0845442Y0130212D03*
X0845442Y0122732D03*
X0825442Y0154732D03*
X0825442Y0162212D03*
D35*
X0838442Y0094141D03*
X0838442Y0102803D03*
X0822442Y0052141D03*
X0822442Y0060803D03*
X0829442Y0052141D03*
X0829442Y0060803D03*
D18*
X0851300Y0008472D03*
X0833584Y0008472D03*
D34*
X0852253Y0193472D03*
X0844379Y0193472D03*
X0836505Y0193472D03*
X0828631Y0193472D03*
D45*
X0852182Y0171031D03*
X0852182Y0168472D03*
X0852182Y0165913D03*
X0844702Y0165913D03*
X0844702Y0171031D03*
D21*
X0832442Y0129472D03*
X0851655Y0129472D03*
D29*
X0838442Y0170212D03*
X0838442Y0162732D03*
X0840442Y0200732D03*
X0840442Y0208212D03*
D14*
X0844773Y0186472D03*
X0836111Y0186472D03*
%LPD*%X0878584Y0000000D02*
%LPD*%
G01*
D37*
D29*
X0904198Y0084712D03*
X0904198Y0077232D03*
X0916198Y0099212D03*
X0916198Y0091732D03*
X0905198Y0043712D03*
X0905198Y0036232D03*
X0895198Y0094712D03*
X0895198Y0087232D03*
X0895198Y0102232D03*
X0895198Y0109712D03*
X0889198Y0130212D03*
X0889198Y0122732D03*
X0908198Y0130212D03*
X0908198Y0122732D03*
X0888198Y0154732D03*
X0888198Y0162212D03*
D35*
X0901198Y0094141D03*
X0901198Y0102803D03*
X0885198Y0052141D03*
X0885198Y0060803D03*
X0892198Y0052141D03*
X0892198Y0060803D03*
D18*
X0914056Y0008472D03*
X0896340Y0008472D03*
D34*
X0915009Y0193472D03*
X0907135Y0193472D03*
X0899261Y0193472D03*
X0891387Y0193472D03*
D45*
X0914938Y0171031D03*
X0914938Y0168472D03*
X0914938Y0165913D03*
X0907458Y0165913D03*
X0907458Y0171031D03*
D21*
X0895198Y0129472D03*
X0914411Y0129472D03*
D29*
X0901198Y0170212D03*
X0901198Y0162732D03*
X0903198Y0200732D03*
X0903198Y0208212D03*
D14*
X0907529Y0186472D03*
X0898867Y0186472D03*
%LPD*%X0941340Y0000000D02*
%LPD*%
G01*
D37*
D29*
X0966954Y0084712D03*
X0966954Y0077232D03*
X0978954Y0099212D03*
X0978954Y0091732D03*
X0967954Y0043712D03*
X0967954Y0036232D03*
X0957954Y0094712D03*
X0957954Y0087232D03*
X0957954Y0102232D03*
X0957954Y0109712D03*
X0951954Y0130212D03*
X0951954Y0122732D03*
X0970954Y0130212D03*
X0970954Y0122732D03*
X0950954Y0154732D03*
X0950954Y0162212D03*
D35*
X0963954Y0094141D03*
X0963954Y0102803D03*
X0947954Y0052141D03*
X0947954Y0060803D03*
X0954954Y0052141D03*
X0954954Y0060803D03*
D18*
X0976812Y0008472D03*
X0959096Y0008472D03*
D34*
X0977765Y0193472D03*
X0969891Y0193472D03*
X0962017Y0193472D03*
X0954143Y0193472D03*
D45*
X0977694Y0171031D03*
X0977694Y0168472D03*
X0977694Y0165913D03*
X0970214Y0165913D03*
X0970214Y0171031D03*
D21*
X0957954Y0129472D03*
X0977167Y0129472D03*
D29*
X0963954Y0170212D03*
X0963954Y0162732D03*
X0965954Y0200732D03*
X0965954Y0208212D03*
D14*
X0970285Y0186472D03*
X0961623Y0186472D03*
M02*
