M48
INCH,LZ
%
T01C0.015874
X000361Y005647
X001061Y005647
X001861Y007447
X000661Y007547
X000261Y009947
X003561Y011947
X000261Y012847
X000761Y013447
X002961Y013647
X003961Y013747
X002661Y013947
X002561Y016647
X003261Y016847
X004061Y016847
X006637Y005647
X007337Y005647
X008137Y007447
X006937Y007547
X006537Y009947
X009837Y011947
X006537Y012847
X007037Y013447
X009237Y013647
X010237Y013747
X008937Y013947
X008837Y016647
X009537Y016847
X010337Y016847
X025464Y005647
X026164Y005647
X026964Y007447
X025764Y007547
X025364Y009947
X028664Y011947
X025364Y012847
X025864Y013447
X028064Y013647
X029064Y013747
X027764Y013947
X027664Y016647
X028364Y016847
X029164Y016847
X031739Y005647
X032439Y005647
X033239Y007447
X032039Y007547
X031639Y009947
X034939Y011947
X031639Y012847
X032139Y013447
X034339Y013647
X035339Y013747
X034039Y013947
X033939Y016647
X034639Y016847
X035439Y016847
X050566Y005647
X051266Y005647
X052066Y007447
X050866Y007547
X050466Y009947
X053766Y011947
X050466Y012847
X050966Y013447
X053166Y013647
X054166Y013747
X052866Y013947
X052766Y016647
X053466Y016847
X054266Y016847
X056842Y005647
X057542Y005647
X058342Y007447
X057142Y007547
X056742Y009947
X060042Y011947
X056742Y012847
X057242Y013447
X059442Y013647
X060442Y013747
X059142Y013947
X059042Y016647
X059742Y016847
X060542Y016847
X063117Y005647
X063817Y005647
X064617Y007447
X063017Y009947
X066317Y011947
X063017Y012847
X063517Y013447
X065717Y013647
X066717Y013747
X065317Y016647
X066017Y016847
X066817Y016847
X069393Y005647
X070093Y005647
X070893Y007447
X069293Y009947
X072593Y011947
X069293Y012847
X069793Y013447
X071993Y013647
X072993Y013747
X071593Y016647
X072293Y016847
X073093Y016847
X075668Y005647
X076368Y005647
X077168Y007447
X075968Y007547
X075568Y009947
X078868Y011947
X075568Y012847
X076068Y013447
X078268Y013647
X079268Y013747
X077968Y013947
X077868Y016647
X078568Y016847
X079368Y016847
X081944Y005647
X082644Y005647
X083444Y007447
X082244Y007547
X081844Y009947
X085144Y011947
X081844Y012847
X082344Y013447
X084544Y013647
X085544Y013747
X084244Y013947
X084144Y016647
X084844Y016847
X085644Y016847
T02C0.023811
X000561Y003747
X004761Y003797
X004411Y004397
X002361Y004947
X004761Y004997
X003161Y005047
X004961Y007697
X004561Y008247
X002111Y008647
X003461Y008747
X001211Y008897
X004961Y009147
X001261Y009397
X003361Y009847
X004585Y010247
X001211Y010347
X003361Y010947
X004961Y010947
X004961Y012247
X000561Y015447
X004561Y015447
X001861Y015473
X003761Y015473
X000561Y015947
X004961Y016147
X004161Y016221
X001861Y016947
X000761Y019747
X001461Y020747
X006837Y003747
X011037Y003797
X010687Y004397
X008637Y004947
X011037Y004997
X009437Y005047
X011237Y007697
X010837Y008247
X008387Y008647
X009737Y008747
X007487Y008897
X011237Y009147
X007537Y009397
X009637Y009847
X010861Y010247
X007487Y010347
X009637Y010947
X011237Y010947
X011237Y012247
X006837Y015447
X010837Y015447
X008137Y015473
X010037Y015473
X006837Y015947
X011237Y016147
X010437Y016221
X008137Y016947
X007037Y019747
X007737Y020747
X025664Y003747
X029864Y003797
X029514Y004397
X027464Y004947
X029864Y004997
X028264Y005047
X030064Y007697
X029664Y008247
X027214Y008647
X028564Y008747
X026314Y008897
X030064Y009147
X026364Y009397
X028464Y009847
X029688Y010247
X026314Y010347
X028464Y010947
X030064Y010947
X030064Y012247
X025664Y015447
X029664Y015447
X026964Y015473
X028864Y015473
X025664Y015947
X030064Y016147
X029264Y016221
X026964Y016947
X025864Y019747
X026564Y020747
X031939Y003747
X036139Y003797
X035789Y004397
X033739Y004947
X036139Y004997
X034539Y005047
X036339Y007697
X035939Y008247
X033489Y008647
X034839Y008747
X032589Y008897
X036339Y009147
X032639Y009397
X034739Y009847
X035963Y010247
X032589Y010347
X034739Y010947
X036339Y010947
X036339Y012247
X031939Y015447
X035939Y015447
X033239Y015473
X035139Y015473
X031939Y015947
X036339Y016147
X035539Y016221
X033239Y016947
X032139Y019747
X032839Y020747
X050766Y003747
X054966Y003797
X054616Y004397
X052566Y004947
X054966Y004997
X053366Y005047
X055166Y007697
X054766Y008247
X052316Y008647
X053666Y008747
X051416Y008897
X055166Y009147
X051466Y009397
X053566Y009847
X054790Y010247
X051416Y010347
X053566Y010947
X055166Y010947
X055166Y012247
X050766Y015447
X054766Y015447
X052066Y015473
X053966Y015473
X050766Y015947
X055166Y016147
X054366Y016221
X052066Y016947
X050966Y019747
X051666Y020747
X057042Y003747
X061242Y003797
X060892Y004397
X058842Y004947
X061242Y004997
X059642Y005047
X061442Y007697
X061042Y008247
X058592Y008647
X059942Y008747
X057692Y008897
X061442Y009147
X057742Y009397
X059842Y009847
X061066Y010247
X057692Y010347
X059842Y010947
X061442Y010947
X061442Y012247
X057042Y015447
X061042Y015447
X058342Y015473
X060242Y015473
X057042Y015947
X061442Y016147
X060642Y016221
X058342Y016947
X057242Y019747
X057942Y020747
X063317Y003747
X067517Y003797
X067167Y004397
X065117Y004947
X067517Y004997
X067717Y007697
X067317Y008247
X064867Y008647
X066217Y008747
X063967Y008897
X067717Y009147
X064017Y009397
X066117Y009847
X067341Y010247
X063967Y010347
X066117Y010947
X067717Y010947
X067717Y012247
X063317Y015447
X067317Y015447
X064617Y015473
X066517Y015473
X063317Y015947
X067717Y016147
X064617Y016947
X063517Y019747
X064217Y020747
X069593Y003747
X073793Y003797
X073443Y004397
X071393Y004947
X073793Y004997
X073993Y007697
X073593Y008247
X071143Y008647
X072493Y008747
X070243Y008897
X073993Y009147
X070293Y009397
X072393Y009847
X073617Y010247
X070243Y010347
X072393Y010947
X073993Y010947
X073993Y012247
X069593Y015447
X073593Y015447
X070893Y015473
X072793Y015473
X069593Y015947
X073993Y016147
X070893Y016947
X069793Y019747
X070493Y020747
X075868Y003747
X080068Y003797
X079718Y004397
X077668Y004947
X080068Y004997
X078468Y005047
X080268Y007697
X079868Y008247
X077418Y008647
X078768Y008747
X076518Y008897
X080268Y009147
X076568Y009397
X078668Y009847
X079892Y010247
X076518Y010347
X078668Y010947
X080268Y010947
X080268Y012247
X075868Y015447
X079868Y015447
X077168Y015473
X079068Y015473
X075868Y015947
X080268Y016147
X079468Y016221
X077168Y016947
X076068Y019747
X076768Y020747
X082144Y003747
X086344Y003797
X085994Y004397
X083944Y004947
X086344Y004997
X084744Y005047
X086544Y007697
X086144Y008247
X083694Y008647
X085044Y008747
X082794Y008897
X086544Y009147
X082844Y009397
X084944Y009847
X086168Y010247
X082794Y010347
X084944Y010947
X086544Y010947
X086544Y012247
X082144Y015447
X086144Y015447
X083444Y015473
X085344Y015473
X082144Y015947
X086544Y016147
X085744Y016221
X083444Y016947
X082344Y019747
X083044Y020747
T03C0.031248
X001661Y012947
X003582Y012947
X001280Y019347
X002067Y019347
X002855Y019347
X003642Y019347
X007937Y012947
X009858Y012947
X007556Y019347
X008343Y019347
X009131Y019347
X009918Y019347
X026764Y012947
X028685Y012947
X026383Y019347
X027170Y019347
X027958Y019347
X028745Y019347
X033039Y012947
X034960Y012947
X032658Y019347
X033445Y019347
X034233Y019347
X035020Y019347
X051866Y012947
X053787Y012947
X051485Y019347
X052272Y019347
X053060Y019347
X053847Y019347
X058142Y012947
X060063Y012947
X057761Y019347
X058548Y019347
X059336Y019347
X060123Y019347
X064036Y019347
X064823Y019347
X065611Y019347
X066398Y019347
X070312Y019347
X071099Y019347
X071887Y019347
X072674Y019347
X076968Y012947
X078889Y012947
X076587Y019347
X077374Y019347
X078162Y019347
X078949Y019347
X083244Y012947
X085165Y012947
X082863Y019347
X083650Y019347
X084438Y019347
X085225Y019347
T04C0.074902
X001775Y000847
X003547Y000847
X008051Y000847
X009823Y000847
X026878Y000847
X028650Y000847
X033153Y000847
X034925Y000847
X051980Y000847
X053752Y000847
X058256Y000847
X060028Y000847
X077082Y000847
X078854Y000847
X083358Y000847
X085130Y000847
M30
