G75*
G70*
%OFA0B0*%
%FSLAX25Y25*%
%IPPOS*%
%LPD*%
%AMOC8*
5,1,8,0,0,1.08239X$1,22.5*
%
%ADD16R,0.03937X0.06299*%
%ADD18C,0.12795*%
%ADD21C,0.07480*%
%ADD24R,0.06299X0.03937*%
%ADD25R,0.06299X0.04528*%
%ADD29R,0.04528X0.06299*%
%ADD34C,0.06724*%
%ADD35R,0.05118X0.06299*%
%ADD37C,0.00394*%
%ADD46R,0.03575X0.06075*%
%ADD47R,0.03937X0.07480*%
%ADD48R,0.06693X0.08268*%
%LPD*%X0000000Y0000000D02*
%LPD*%
G01*
D37*
D29*
X0031614Y0063712D03*
X0031614Y0056232D03*
D25*
X0039874Y0025972D03*
X0047354Y0025972D03*
D35*
X0026114Y0064303D03*
X0026114Y0055641D03*
X0026114Y0035303D03*
X0026114Y0026641D03*
X0032614Y0035303D03*
X0032614Y0026641D03*
D46*
X0020114Y0043972D03*
X0015114Y0043972D03*
X0010114Y0043972D03*
X0005114Y0043972D03*
X0005114Y0068972D03*
X0010114Y0068972D03*
X0015114Y0068972D03*
X0020114Y0068972D03*
D16*
X0012590Y0080740D03*
X0015740Y0080740D03*
X0018890Y0080740D03*
X0022039Y0080740D03*
X0025189Y0080740D03*
X0028338Y0080740D03*
X0031488Y0080740D03*
X0034638Y0080740D03*
D24*
X0040346Y0086448D03*
X0040346Y0089598D03*
X0040346Y0092748D03*
X0040346Y0095897D03*
X0040346Y0099047D03*
X0040346Y0102196D03*
X0040346Y0105346D03*
X0040346Y0108496D03*
D16*
X0034638Y0114204D03*
X0031488Y0114204D03*
X0028338Y0114204D03*
X0025189Y0114204D03*
X0022039Y0114204D03*
X0018890Y0114204D03*
X0015740Y0114204D03*
X0012590Y0114204D03*
D24*
X0006882Y0108496D03*
X0006882Y0105346D03*
X0006882Y0102196D03*
X0006882Y0099047D03*
X0006882Y0095897D03*
X0006882Y0092748D03*
X0006882Y0089598D03*
X0006882Y0086448D03*
D47*
X0007114Y0146165D03*
X0012114Y0146165D03*
X0017114Y0146165D03*
X0022114Y0146165D03*
X0027114Y0146165D03*
X0032114Y0146165D03*
X0037114Y0146165D03*
X0042114Y0146165D03*
X0042114Y0182779D03*
X0037114Y0182779D03*
X0032114Y0182779D03*
X0027114Y0182779D03*
X0022114Y0182779D03*
X0017114Y0182779D03*
X0012114Y0182779D03*
X0007114Y0182779D03*
D18*
X0035472Y0008472D03*
X0017756Y0008472D03*
D48*
X0030551Y0017724D03*
X0022677Y0017724D03*
X0040394Y0017724D03*
X0012834Y0017724D03*
D34*
X0036425Y0193472D03*
X0028551Y0193472D03*
X0020677Y0193472D03*
X0012803Y0193472D03*
D21*
X0016614Y0129472D03*
X0035827Y0129472D03*
%LPD*%X0062756Y0000000D02*
%LPD*%
G01*
D37*
D29*
X0094370Y0063712D03*
X0094370Y0056232D03*
D25*
X0102630Y0025972D03*
X0110110Y0025972D03*
D35*
X0088870Y0064303D03*
X0088870Y0055641D03*
X0088870Y0035303D03*
X0088870Y0026641D03*
X0095370Y0035303D03*
X0095370Y0026641D03*
D46*
X0082870Y0043972D03*
X0077870Y0043972D03*
X0072870Y0043972D03*
X0067870Y0043972D03*
X0067870Y0068972D03*
X0072870Y0068972D03*
X0077870Y0068972D03*
X0082870Y0068972D03*
D16*
X0075346Y0080740D03*
X0078496Y0080740D03*
X0081646Y0080740D03*
X0084795Y0080740D03*
X0087945Y0080740D03*
X0091094Y0080740D03*
X0094244Y0080740D03*
X0097394Y0080740D03*
D24*
X0103102Y0086448D03*
X0103102Y0089598D03*
X0103102Y0092748D03*
X0103102Y0095897D03*
X0103102Y0099047D03*
X0103102Y0102196D03*
X0103102Y0105346D03*
X0103102Y0108496D03*
D16*
X0097394Y0114204D03*
X0094244Y0114204D03*
X0091094Y0114204D03*
X0087945Y0114204D03*
X0084795Y0114204D03*
X0081646Y0114204D03*
X0078496Y0114204D03*
X0075346Y0114204D03*
D24*
X0069638Y0108496D03*
X0069638Y0105346D03*
X0069638Y0102196D03*
X0069638Y0099047D03*
X0069638Y0095897D03*
X0069638Y0092748D03*
X0069638Y0089598D03*
X0069638Y0086448D03*
D47*
X0069870Y0146165D03*
X0074870Y0146165D03*
X0079870Y0146165D03*
X0084870Y0146165D03*
X0089870Y0146165D03*
X0094870Y0146165D03*
X0099870Y0146165D03*
X0104870Y0146165D03*
X0104870Y0182779D03*
X0099870Y0182779D03*
X0094870Y0182779D03*
X0089870Y0182779D03*
X0084870Y0182779D03*
X0079870Y0182779D03*
X0074870Y0182779D03*
X0069870Y0182779D03*
D18*
X0098228Y0008472D03*
X0080512Y0008472D03*
D48*
X0093307Y0017724D03*
X0085433Y0017724D03*
X0103150Y0017724D03*
X0075590Y0017724D03*
D34*
X0099181Y0193472D03*
X0091307Y0193472D03*
X0083433Y0193472D03*
X0075559Y0193472D03*
D21*
X0079370Y0129472D03*
X0098583Y0129472D03*
%LPD*%X0125512Y0000000D02*
%LPD*%
G01*
D37*
D29*
X0157126Y0063712D03*
X0157126Y0056232D03*
D25*
X0165386Y0025972D03*
X0172866Y0025972D03*
D35*
X0151626Y0064303D03*
X0151626Y0055641D03*
X0151626Y0035303D03*
X0151626Y0026641D03*
X0158126Y0035303D03*
X0158126Y0026641D03*
D46*
X0145626Y0043972D03*
X0140626Y0043972D03*
X0135626Y0043972D03*
X0130626Y0043972D03*
X0130626Y0068972D03*
X0135626Y0068972D03*
X0140626Y0068972D03*
X0145626Y0068972D03*
D16*
X0138102Y0080740D03*
X0141252Y0080740D03*
X0144402Y0080740D03*
X0147551Y0080740D03*
X0150701Y0080740D03*
X0153850Y0080740D03*
X0157000Y0080740D03*
X0160150Y0080740D03*
D24*
X0165858Y0086448D03*
X0165858Y0089598D03*
X0165858Y0092748D03*
X0165858Y0095897D03*
X0165858Y0099047D03*
X0165858Y0102196D03*
X0165858Y0105346D03*
X0165858Y0108496D03*
D16*
X0160150Y0114204D03*
X0157000Y0114204D03*
X0153850Y0114204D03*
X0150701Y0114204D03*
X0147551Y0114204D03*
X0144402Y0114204D03*
X0141252Y0114204D03*
X0138102Y0114204D03*
D24*
X0132394Y0108496D03*
X0132394Y0105346D03*
X0132394Y0102196D03*
X0132394Y0099047D03*
X0132394Y0095897D03*
X0132394Y0092748D03*
X0132394Y0089598D03*
X0132394Y0086448D03*
D47*
X0132626Y0146165D03*
X0137626Y0146165D03*
X0142626Y0146165D03*
X0147626Y0146165D03*
X0152626Y0146165D03*
X0157626Y0146165D03*
X0162626Y0146165D03*
X0167626Y0146165D03*
X0167626Y0182779D03*
X0162626Y0182779D03*
X0157626Y0182779D03*
X0152626Y0182779D03*
X0147626Y0182779D03*
X0142626Y0182779D03*
X0137626Y0182779D03*
X0132626Y0182779D03*
D18*
X0160984Y0008472D03*
X0143268Y0008472D03*
D48*
X0156063Y0017724D03*
X0148189Y0017724D03*
X0165906Y0017724D03*
X0138346Y0017724D03*
D34*
X0161937Y0193472D03*
X0154063Y0193472D03*
X0146189Y0193472D03*
X0138315Y0193472D03*
D21*
X0142126Y0129472D03*
X0161339Y0129472D03*
%LPD*%X0188268Y0000000D02*
%LPD*%
G01*
D37*
D29*
X0219882Y0063712D03*
X0219882Y0056232D03*
D25*
X0228142Y0025972D03*
X0235622Y0025972D03*
D35*
X0214382Y0064303D03*
X0214382Y0055641D03*
X0214382Y0035303D03*
X0214382Y0026641D03*
X0220882Y0035303D03*
X0220882Y0026641D03*
D46*
X0208382Y0043972D03*
X0203382Y0043972D03*
X0198382Y0043972D03*
X0193382Y0043972D03*
X0193382Y0068972D03*
X0198382Y0068972D03*
X0203382Y0068972D03*
X0208382Y0068972D03*
D16*
X0200858Y0080740D03*
X0204008Y0080740D03*
X0207158Y0080740D03*
X0210307Y0080740D03*
X0213457Y0080740D03*
X0216606Y0080740D03*
X0219756Y0080740D03*
X0222906Y0080740D03*
D24*
X0228614Y0086448D03*
X0228614Y0089598D03*
X0228614Y0092748D03*
X0228614Y0095897D03*
X0228614Y0099047D03*
X0228614Y0102196D03*
X0228614Y0105346D03*
X0228614Y0108496D03*
D16*
X0222906Y0114204D03*
X0219756Y0114204D03*
X0216606Y0114204D03*
X0213457Y0114204D03*
X0210307Y0114204D03*
X0207158Y0114204D03*
X0204008Y0114204D03*
X0200858Y0114204D03*
D24*
X0195150Y0108496D03*
X0195150Y0105346D03*
X0195150Y0102196D03*
X0195150Y0099047D03*
X0195150Y0095897D03*
X0195150Y0092748D03*
X0195150Y0089598D03*
X0195150Y0086448D03*
D47*
X0195382Y0146165D03*
X0200382Y0146165D03*
X0205382Y0146165D03*
X0210382Y0146165D03*
X0215382Y0146165D03*
X0220382Y0146165D03*
X0225382Y0146165D03*
X0230382Y0146165D03*
X0230382Y0182779D03*
X0225382Y0182779D03*
X0220382Y0182779D03*
X0215382Y0182779D03*
X0210382Y0182779D03*
X0205382Y0182779D03*
X0200382Y0182779D03*
X0195382Y0182779D03*
D18*
X0223740Y0008472D03*
X0206024Y0008472D03*
D48*
X0218819Y0017724D03*
X0210945Y0017724D03*
X0228662Y0017724D03*
X0201102Y0017724D03*
D34*
X0224693Y0193472D03*
X0216819Y0193472D03*
X0208945Y0193472D03*
X0201071Y0193472D03*
D21*
X0204882Y0129472D03*
X0224095Y0129472D03*
%LPD*%X0251024Y0000000D02*
%LPD*%
G01*
D37*
D29*
X0282638Y0063712D03*
X0282638Y0056232D03*
D25*
X0290898Y0025972D03*
X0298378Y0025972D03*
D35*
X0277138Y0064303D03*
X0277138Y0055641D03*
X0277138Y0035303D03*
X0277138Y0026641D03*
X0283638Y0035303D03*
X0283638Y0026641D03*
D46*
X0271138Y0043972D03*
X0266138Y0043972D03*
X0261138Y0043972D03*
X0256138Y0043972D03*
X0256138Y0068972D03*
X0261138Y0068972D03*
X0266138Y0068972D03*
X0271138Y0068972D03*
D16*
X0263614Y0080740D03*
X0266764Y0080740D03*
X0269914Y0080740D03*
X0273063Y0080740D03*
X0276213Y0080740D03*
X0279362Y0080740D03*
X0282512Y0080740D03*
X0285662Y0080740D03*
D24*
X0291370Y0086448D03*
X0291370Y0089598D03*
X0291370Y0092748D03*
X0291370Y0095897D03*
X0291370Y0099047D03*
X0291370Y0102196D03*
X0291370Y0105346D03*
X0291370Y0108496D03*
D16*
X0285662Y0114204D03*
X0282512Y0114204D03*
X0279362Y0114204D03*
X0276213Y0114204D03*
X0273063Y0114204D03*
X0269914Y0114204D03*
X0266764Y0114204D03*
X0263614Y0114204D03*
D24*
X0257906Y0108496D03*
X0257906Y0105346D03*
X0257906Y0102196D03*
X0257906Y0099047D03*
X0257906Y0095897D03*
X0257906Y0092748D03*
X0257906Y0089598D03*
X0257906Y0086448D03*
D47*
X0258138Y0146165D03*
X0263138Y0146165D03*
X0268138Y0146165D03*
X0273138Y0146165D03*
X0278138Y0146165D03*
X0283138Y0146165D03*
X0288138Y0146165D03*
X0293138Y0146165D03*
X0293138Y0182779D03*
X0288138Y0182779D03*
X0283138Y0182779D03*
X0278138Y0182779D03*
X0273138Y0182779D03*
X0268138Y0182779D03*
X0263138Y0182779D03*
X0258138Y0182779D03*
D18*
X0286496Y0008472D03*
X0268780Y0008472D03*
D48*
X0281575Y0017724D03*
X0273701Y0017724D03*
X0291418Y0017724D03*
X0263858Y0017724D03*
D34*
X0287449Y0193472D03*
X0279575Y0193472D03*
X0271701Y0193472D03*
X0263827Y0193472D03*
D21*
X0267638Y0129472D03*
X0286851Y0129472D03*
%LPD*%X0313780Y0000000D02*
%LPD*%
G01*
D37*
D29*
X0345394Y0063712D03*
X0345394Y0056232D03*
D25*
X0353654Y0025972D03*
X0361134Y0025972D03*
D35*
X0339894Y0064303D03*
X0339894Y0055641D03*
X0339894Y0035303D03*
X0339894Y0026641D03*
X0346394Y0035303D03*
X0346394Y0026641D03*
D46*
X0333894Y0043972D03*
X0328894Y0043972D03*
X0323894Y0043972D03*
X0318894Y0043972D03*
X0318894Y0068972D03*
X0323894Y0068972D03*
X0328894Y0068972D03*
X0333894Y0068972D03*
D16*
X0326370Y0080740D03*
X0329520Y0080740D03*
X0332670Y0080740D03*
X0335819Y0080740D03*
X0338969Y0080740D03*
X0342118Y0080740D03*
X0345268Y0080740D03*
X0348418Y0080740D03*
D24*
X0354126Y0086448D03*
X0354126Y0089598D03*
X0354126Y0092748D03*
X0354126Y0095897D03*
X0354126Y0099047D03*
X0354126Y0102196D03*
X0354126Y0105346D03*
X0354126Y0108496D03*
D16*
X0348418Y0114204D03*
X0345268Y0114204D03*
X0342118Y0114204D03*
X0338969Y0114204D03*
X0335819Y0114204D03*
X0332670Y0114204D03*
X0329520Y0114204D03*
X0326370Y0114204D03*
D24*
X0320662Y0108496D03*
X0320662Y0105346D03*
X0320662Y0102196D03*
X0320662Y0099047D03*
X0320662Y0095897D03*
X0320662Y0092748D03*
X0320662Y0089598D03*
X0320662Y0086448D03*
D47*
X0320894Y0146165D03*
X0325894Y0146165D03*
X0330894Y0146165D03*
X0335894Y0146165D03*
X0340894Y0146165D03*
X0345894Y0146165D03*
X0350894Y0146165D03*
X0355894Y0146165D03*
X0355894Y0182779D03*
X0350894Y0182779D03*
X0345894Y0182779D03*
X0340894Y0182779D03*
X0335894Y0182779D03*
X0330894Y0182779D03*
X0325894Y0182779D03*
X0320894Y0182779D03*
D18*
X0349252Y0008472D03*
X0331536Y0008472D03*
D48*
X0344331Y0017724D03*
X0336457Y0017724D03*
X0354174Y0017724D03*
X0326614Y0017724D03*
D34*
X0350205Y0193472D03*
X0342331Y0193472D03*
X0334457Y0193472D03*
X0326583Y0193472D03*
D21*
X0330394Y0129472D03*
X0349607Y0129472D03*
%LPD*%X0376536Y0000000D02*
%LPD*%
G01*
D37*
D29*
X0408150Y0063712D03*
X0408150Y0056232D03*
D25*
X0416410Y0025972D03*
X0423890Y0025972D03*
D35*
X0402650Y0064303D03*
X0402650Y0055641D03*
X0402650Y0035303D03*
X0402650Y0026641D03*
X0409150Y0035303D03*
X0409150Y0026641D03*
D46*
X0396650Y0043972D03*
X0391650Y0043972D03*
X0386650Y0043972D03*
X0381650Y0043972D03*
X0381650Y0068972D03*
X0386650Y0068972D03*
X0391650Y0068972D03*
X0396650Y0068972D03*
D16*
X0389126Y0080740D03*
X0392276Y0080740D03*
X0395426Y0080740D03*
X0398575Y0080740D03*
X0401725Y0080740D03*
X0404874Y0080740D03*
X0408024Y0080740D03*
X0411174Y0080740D03*
D24*
X0416882Y0086448D03*
X0416882Y0089598D03*
X0416882Y0092748D03*
X0416882Y0095897D03*
X0416882Y0099047D03*
X0416882Y0102196D03*
X0416882Y0105346D03*
X0416882Y0108496D03*
D16*
X0411174Y0114204D03*
X0408024Y0114204D03*
X0404874Y0114204D03*
X0401725Y0114204D03*
X0398575Y0114204D03*
X0395426Y0114204D03*
X0392276Y0114204D03*
X0389126Y0114204D03*
D24*
X0383418Y0108496D03*
X0383418Y0105346D03*
X0383418Y0102196D03*
X0383418Y0099047D03*
X0383418Y0095897D03*
X0383418Y0092748D03*
X0383418Y0089598D03*
X0383418Y0086448D03*
D47*
X0383650Y0146165D03*
X0388650Y0146165D03*
X0393650Y0146165D03*
X0398650Y0146165D03*
X0403650Y0146165D03*
X0408650Y0146165D03*
X0413650Y0146165D03*
X0418650Y0146165D03*
X0418650Y0182779D03*
X0413650Y0182779D03*
X0408650Y0182779D03*
X0403650Y0182779D03*
X0398650Y0182779D03*
X0393650Y0182779D03*
X0388650Y0182779D03*
X0383650Y0182779D03*
D18*
X0412008Y0008472D03*
X0394292Y0008472D03*
D48*
X0407087Y0017724D03*
X0399213Y0017724D03*
X0416930Y0017724D03*
X0389370Y0017724D03*
D34*
X0412961Y0193472D03*
X0405087Y0193472D03*
X0397213Y0193472D03*
X0389339Y0193472D03*
D21*
X0393150Y0129472D03*
X0412363Y0129472D03*
%LPD*%X0439292Y0000000D02*
%LPD*%
G01*
D37*
D29*
X0470906Y0063712D03*
X0470906Y0056232D03*
D25*
X0479166Y0025972D03*
X0486646Y0025972D03*
D35*
X0465406Y0064303D03*
X0465406Y0055641D03*
X0465406Y0035303D03*
X0465406Y0026641D03*
X0471906Y0035303D03*
X0471906Y0026641D03*
D46*
X0459406Y0043972D03*
X0454406Y0043972D03*
X0449406Y0043972D03*
X0444406Y0043972D03*
X0444406Y0068972D03*
X0449406Y0068972D03*
X0454406Y0068972D03*
X0459406Y0068972D03*
D16*
X0451882Y0080740D03*
X0455032Y0080740D03*
X0458182Y0080740D03*
X0461331Y0080740D03*
X0464481Y0080740D03*
X0467630Y0080740D03*
X0470780Y0080740D03*
X0473930Y0080740D03*
D24*
X0479638Y0086448D03*
X0479638Y0089598D03*
X0479638Y0092748D03*
X0479638Y0095897D03*
X0479638Y0099047D03*
X0479638Y0102196D03*
X0479638Y0105346D03*
X0479638Y0108496D03*
D16*
X0473930Y0114204D03*
X0470780Y0114204D03*
X0467630Y0114204D03*
X0464481Y0114204D03*
X0461331Y0114204D03*
X0458182Y0114204D03*
X0455032Y0114204D03*
X0451882Y0114204D03*
D24*
X0446174Y0108496D03*
X0446174Y0105346D03*
X0446174Y0102196D03*
X0446174Y0099047D03*
X0446174Y0095897D03*
X0446174Y0092748D03*
X0446174Y0089598D03*
X0446174Y0086448D03*
D47*
X0446406Y0146165D03*
X0451406Y0146165D03*
X0456406Y0146165D03*
X0461406Y0146165D03*
X0466406Y0146165D03*
X0471406Y0146165D03*
X0476406Y0146165D03*
X0481406Y0146165D03*
X0481406Y0182779D03*
X0476406Y0182779D03*
X0471406Y0182779D03*
X0466406Y0182779D03*
X0461406Y0182779D03*
X0456406Y0182779D03*
X0451406Y0182779D03*
X0446406Y0182779D03*
D18*
X0474764Y0008472D03*
X0457048Y0008472D03*
D48*
X0469843Y0017724D03*
X0461969Y0017724D03*
X0479686Y0017724D03*
X0452126Y0017724D03*
D34*
X0475717Y0193472D03*
X0467843Y0193472D03*
X0459969Y0193472D03*
X0452095Y0193472D03*
D21*
X0455906Y0129472D03*
X0475119Y0129472D03*
%LPD*%X0502048Y0000000D02*
%LPD*%
G01*
D37*
D29*
X0533662Y0063712D03*
X0533662Y0056232D03*
D25*
X0541922Y0025972D03*
X0549402Y0025972D03*
D35*
X0528162Y0064303D03*
X0528162Y0055641D03*
X0528162Y0035303D03*
X0528162Y0026641D03*
X0534662Y0035303D03*
X0534662Y0026641D03*
D46*
X0522162Y0043972D03*
X0517162Y0043972D03*
X0512162Y0043972D03*
X0507162Y0043972D03*
X0507162Y0068972D03*
X0512162Y0068972D03*
X0517162Y0068972D03*
X0522162Y0068972D03*
D16*
X0514638Y0080740D03*
X0517788Y0080740D03*
X0520938Y0080740D03*
X0524087Y0080740D03*
X0527237Y0080740D03*
X0530386Y0080740D03*
X0533536Y0080740D03*
X0536686Y0080740D03*
D24*
X0542394Y0086448D03*
X0542394Y0089598D03*
X0542394Y0092748D03*
X0542394Y0095897D03*
X0542394Y0099047D03*
X0542394Y0102196D03*
X0542394Y0105346D03*
X0542394Y0108496D03*
D16*
X0536686Y0114204D03*
X0533536Y0114204D03*
X0530386Y0114204D03*
X0527237Y0114204D03*
X0524087Y0114204D03*
X0520938Y0114204D03*
X0517788Y0114204D03*
X0514638Y0114204D03*
D24*
X0508930Y0108496D03*
X0508930Y0105346D03*
X0508930Y0102196D03*
X0508930Y0099047D03*
X0508930Y0095897D03*
X0508930Y0092748D03*
X0508930Y0089598D03*
X0508930Y0086448D03*
D47*
X0509162Y0146165D03*
X0514162Y0146165D03*
X0519162Y0146165D03*
X0524162Y0146165D03*
X0529162Y0146165D03*
X0534162Y0146165D03*
X0539162Y0146165D03*
X0544162Y0146165D03*
X0544162Y0182779D03*
X0539162Y0182779D03*
X0534162Y0182779D03*
X0529162Y0182779D03*
X0524162Y0182779D03*
X0519162Y0182779D03*
X0514162Y0182779D03*
X0509162Y0182779D03*
D18*
X0537520Y0008472D03*
X0519804Y0008472D03*
D48*
X0532599Y0017724D03*
X0524725Y0017724D03*
X0542442Y0017724D03*
X0514882Y0017724D03*
D34*
X0538473Y0193472D03*
X0530599Y0193472D03*
X0522725Y0193472D03*
X0514851Y0193472D03*
D21*
X0518662Y0129472D03*
X0537875Y0129472D03*
%LPD*%X0564804Y0000000D02*
%LPD*%
G01*
D37*
D29*
X0596418Y0063712D03*
X0596418Y0056232D03*
D25*
X0604678Y0025972D03*
X0612158Y0025972D03*
D35*
X0590918Y0064303D03*
X0590918Y0055641D03*
X0590918Y0035303D03*
X0590918Y0026641D03*
X0597418Y0035303D03*
X0597418Y0026641D03*
D46*
X0584918Y0043972D03*
X0579918Y0043972D03*
X0574918Y0043972D03*
X0569918Y0043972D03*
X0569918Y0068972D03*
X0574918Y0068972D03*
X0579918Y0068972D03*
X0584918Y0068972D03*
D16*
X0577394Y0080740D03*
X0580544Y0080740D03*
X0583694Y0080740D03*
X0586843Y0080740D03*
X0589993Y0080740D03*
X0593142Y0080740D03*
X0596292Y0080740D03*
X0599442Y0080740D03*
D24*
X0605150Y0086448D03*
X0605150Y0089598D03*
X0605150Y0092748D03*
X0605150Y0095897D03*
X0605150Y0099047D03*
X0605150Y0102196D03*
X0605150Y0105346D03*
X0605150Y0108496D03*
D16*
X0599442Y0114204D03*
X0596292Y0114204D03*
X0593142Y0114204D03*
X0589993Y0114204D03*
X0586843Y0114204D03*
X0583694Y0114204D03*
X0580544Y0114204D03*
X0577394Y0114204D03*
D24*
X0571686Y0108496D03*
X0571686Y0105346D03*
X0571686Y0102196D03*
X0571686Y0099047D03*
X0571686Y0095897D03*
X0571686Y0092748D03*
X0571686Y0089598D03*
X0571686Y0086448D03*
D47*
X0571918Y0146165D03*
X0576918Y0146165D03*
X0581918Y0146165D03*
X0586918Y0146165D03*
X0591918Y0146165D03*
X0596918Y0146165D03*
X0601918Y0146165D03*
X0606918Y0146165D03*
X0606918Y0182779D03*
X0601918Y0182779D03*
X0596918Y0182779D03*
X0591918Y0182779D03*
X0586918Y0182779D03*
X0581918Y0182779D03*
X0576918Y0182779D03*
X0571918Y0182779D03*
D18*
X0600276Y0008472D03*
X0582560Y0008472D03*
D48*
X0595355Y0017724D03*
X0587481Y0017724D03*
X0605198Y0017724D03*
X0577638Y0017724D03*
D34*
X0601229Y0193472D03*
X0593355Y0193472D03*
X0585481Y0193472D03*
X0577607Y0193472D03*
D21*
X0581418Y0129472D03*
X0600631Y0129472D03*
%LPD*%X0627560Y0000000D02*
%LPD*%
G01*
D37*
D29*
X0659174Y0063712D03*
X0659174Y0056232D03*
D25*
X0667434Y0025972D03*
X0674914Y0025972D03*
D35*
X0653674Y0064303D03*
X0653674Y0055641D03*
X0653674Y0035303D03*
X0653674Y0026641D03*
X0660174Y0035303D03*
X0660174Y0026641D03*
D46*
X0647674Y0043972D03*
X0642674Y0043972D03*
X0637674Y0043972D03*
X0632674Y0043972D03*
X0632674Y0068972D03*
X0637674Y0068972D03*
X0642674Y0068972D03*
X0647674Y0068972D03*
D16*
X0640150Y0080740D03*
X0643300Y0080740D03*
X0646450Y0080740D03*
X0649599Y0080740D03*
X0652749Y0080740D03*
X0655898Y0080740D03*
X0659048Y0080740D03*
X0662198Y0080740D03*
D24*
X0667906Y0086448D03*
X0667906Y0089598D03*
X0667906Y0092748D03*
X0667906Y0095897D03*
X0667906Y0099047D03*
X0667906Y0102196D03*
X0667906Y0105346D03*
X0667906Y0108496D03*
D16*
X0662198Y0114204D03*
X0659048Y0114204D03*
X0655898Y0114204D03*
X0652749Y0114204D03*
X0649599Y0114204D03*
X0646450Y0114204D03*
X0643300Y0114204D03*
X0640150Y0114204D03*
D24*
X0634442Y0108496D03*
X0634442Y0105346D03*
X0634442Y0102196D03*
X0634442Y0099047D03*
X0634442Y0095897D03*
X0634442Y0092748D03*
X0634442Y0089598D03*
X0634442Y0086448D03*
D47*
X0634674Y0146165D03*
X0639674Y0146165D03*
X0644674Y0146165D03*
X0649674Y0146165D03*
X0654674Y0146165D03*
X0659674Y0146165D03*
X0664674Y0146165D03*
X0669674Y0146165D03*
X0669674Y0182779D03*
X0664674Y0182779D03*
X0659674Y0182779D03*
X0654674Y0182779D03*
X0649674Y0182779D03*
X0644674Y0182779D03*
X0639674Y0182779D03*
X0634674Y0182779D03*
D18*
X0663032Y0008472D03*
X0645316Y0008472D03*
D48*
X0658111Y0017724D03*
X0650237Y0017724D03*
X0667954Y0017724D03*
X0640394Y0017724D03*
D34*
X0663985Y0193472D03*
X0656111Y0193472D03*
X0648237Y0193472D03*
X0640363Y0193472D03*
D21*
X0644174Y0129472D03*
X0663387Y0129472D03*
%LPD*%X0690316Y0000000D02*
%LPD*%
G01*
D37*
D29*
X0721930Y0063712D03*
X0721930Y0056232D03*
D25*
X0730190Y0025972D03*
X0737670Y0025972D03*
D35*
X0716430Y0064303D03*
X0716430Y0055641D03*
X0716430Y0035303D03*
X0716430Y0026641D03*
X0722930Y0035303D03*
X0722930Y0026641D03*
D46*
X0710430Y0043972D03*
X0705430Y0043972D03*
X0700430Y0043972D03*
X0695430Y0043972D03*
X0695430Y0068972D03*
X0700430Y0068972D03*
X0705430Y0068972D03*
X0710430Y0068972D03*
D16*
X0702906Y0080740D03*
X0706056Y0080740D03*
X0709206Y0080740D03*
X0712355Y0080740D03*
X0715505Y0080740D03*
X0718654Y0080740D03*
X0721804Y0080740D03*
X0724954Y0080740D03*
D24*
X0730662Y0086448D03*
X0730662Y0089598D03*
X0730662Y0092748D03*
X0730662Y0095897D03*
X0730662Y0099047D03*
X0730662Y0102196D03*
X0730662Y0105346D03*
X0730662Y0108496D03*
D16*
X0724954Y0114204D03*
X0721804Y0114204D03*
X0718654Y0114204D03*
X0715505Y0114204D03*
X0712355Y0114204D03*
X0709206Y0114204D03*
X0706056Y0114204D03*
X0702906Y0114204D03*
D24*
X0697198Y0108496D03*
X0697198Y0105346D03*
X0697198Y0102196D03*
X0697198Y0099047D03*
X0697198Y0095897D03*
X0697198Y0092748D03*
X0697198Y0089598D03*
X0697198Y0086448D03*
D47*
X0697430Y0146165D03*
X0702430Y0146165D03*
X0707430Y0146165D03*
X0712430Y0146165D03*
X0717430Y0146165D03*
X0722430Y0146165D03*
X0727430Y0146165D03*
X0732430Y0146165D03*
X0732430Y0182779D03*
X0727430Y0182779D03*
X0722430Y0182779D03*
X0717430Y0182779D03*
X0712430Y0182779D03*
X0707430Y0182779D03*
X0702430Y0182779D03*
X0697430Y0182779D03*
D18*
X0725788Y0008472D03*
X0708072Y0008472D03*
D48*
X0720867Y0017724D03*
X0712993Y0017724D03*
X0730710Y0017724D03*
X0703150Y0017724D03*
D34*
X0726741Y0193472D03*
X0718867Y0193472D03*
X0710993Y0193472D03*
X0703119Y0193472D03*
D21*
X0706930Y0129472D03*
X0726143Y0129472D03*
%LPD*%X0753072Y0000000D02*
%LPD*%
G01*
D37*
D29*
X0784686Y0063712D03*
X0784686Y0056232D03*
D25*
X0792946Y0025972D03*
X0800426Y0025972D03*
D35*
X0779186Y0064303D03*
X0779186Y0055641D03*
X0779186Y0035303D03*
X0779186Y0026641D03*
X0785686Y0035303D03*
X0785686Y0026641D03*
D46*
X0773186Y0043972D03*
X0768186Y0043972D03*
X0763186Y0043972D03*
X0758186Y0043972D03*
X0758186Y0068972D03*
X0763186Y0068972D03*
X0768186Y0068972D03*
X0773186Y0068972D03*
D16*
X0765662Y0080740D03*
X0768812Y0080740D03*
X0771962Y0080740D03*
X0775111Y0080740D03*
X0778261Y0080740D03*
X0781410Y0080740D03*
X0784560Y0080740D03*
X0787710Y0080740D03*
D24*
X0793418Y0086448D03*
X0793418Y0089598D03*
X0793418Y0092748D03*
X0793418Y0095897D03*
X0793418Y0099047D03*
X0793418Y0102196D03*
X0793418Y0105346D03*
X0793418Y0108496D03*
D16*
X0787710Y0114204D03*
X0784560Y0114204D03*
X0781410Y0114204D03*
X0778261Y0114204D03*
X0775111Y0114204D03*
X0771962Y0114204D03*
X0768812Y0114204D03*
X0765662Y0114204D03*
D24*
X0759954Y0108496D03*
X0759954Y0105346D03*
X0759954Y0102196D03*
X0759954Y0099047D03*
X0759954Y0095897D03*
X0759954Y0092748D03*
X0759954Y0089598D03*
X0759954Y0086448D03*
D47*
X0760186Y0146165D03*
X0765186Y0146165D03*
X0770186Y0146165D03*
X0775186Y0146165D03*
X0780186Y0146165D03*
X0785186Y0146165D03*
X0790186Y0146165D03*
X0795186Y0146165D03*
X0795186Y0182779D03*
X0790186Y0182779D03*
X0785186Y0182779D03*
X0780186Y0182779D03*
X0775186Y0182779D03*
X0770186Y0182779D03*
X0765186Y0182779D03*
X0760186Y0182779D03*
D18*
X0788544Y0008472D03*
X0770828Y0008472D03*
D48*
X0783623Y0017724D03*
X0775749Y0017724D03*
X0793466Y0017724D03*
X0765906Y0017724D03*
D34*
X0789497Y0193472D03*
X0781623Y0193472D03*
X0773749Y0193472D03*
X0765875Y0193472D03*
D21*
X0769686Y0129472D03*
X0788899Y0129472D03*
%LPD*%X0815828Y0000000D02*
%LPD*%
G01*
D37*
D29*
X0847442Y0063712D03*
X0847442Y0056232D03*
D25*
X0855702Y0025972D03*
X0863182Y0025972D03*
D35*
X0841942Y0064303D03*
X0841942Y0055641D03*
X0841942Y0035303D03*
X0841942Y0026641D03*
X0848442Y0035303D03*
X0848442Y0026641D03*
D46*
X0835942Y0043972D03*
X0830942Y0043972D03*
X0825942Y0043972D03*
X0820942Y0043972D03*
X0820942Y0068972D03*
X0825942Y0068972D03*
X0830942Y0068972D03*
X0835942Y0068972D03*
D16*
X0828418Y0080740D03*
X0831568Y0080740D03*
X0834718Y0080740D03*
X0837867Y0080740D03*
X0841017Y0080740D03*
X0844166Y0080740D03*
X0847316Y0080740D03*
X0850466Y0080740D03*
D24*
X0856174Y0086448D03*
X0856174Y0089598D03*
X0856174Y0092748D03*
X0856174Y0095897D03*
X0856174Y0099047D03*
X0856174Y0102196D03*
X0856174Y0105346D03*
X0856174Y0108496D03*
D16*
X0850466Y0114204D03*
X0847316Y0114204D03*
X0844166Y0114204D03*
X0841017Y0114204D03*
X0837867Y0114204D03*
X0834718Y0114204D03*
X0831568Y0114204D03*
X0828418Y0114204D03*
D24*
X0822710Y0108496D03*
X0822710Y0105346D03*
X0822710Y0102196D03*
X0822710Y0099047D03*
X0822710Y0095897D03*
X0822710Y0092748D03*
X0822710Y0089598D03*
X0822710Y0086448D03*
D47*
X0822942Y0146165D03*
X0827942Y0146165D03*
X0832942Y0146165D03*
X0837942Y0146165D03*
X0842942Y0146165D03*
X0847942Y0146165D03*
X0852942Y0146165D03*
X0857942Y0146165D03*
X0857942Y0182779D03*
X0852942Y0182779D03*
X0847942Y0182779D03*
X0842942Y0182779D03*
X0837942Y0182779D03*
X0832942Y0182779D03*
X0827942Y0182779D03*
X0822942Y0182779D03*
D18*
X0851300Y0008472D03*
X0833584Y0008472D03*
D48*
X0846379Y0017724D03*
X0838505Y0017724D03*
X0856222Y0017724D03*
X0828662Y0017724D03*
D34*
X0852253Y0193472D03*
X0844379Y0193472D03*
X0836505Y0193472D03*
X0828631Y0193472D03*
D21*
X0832442Y0129472D03*
X0851655Y0129472D03*
%LPD*%X0878584Y0000000D02*
%LPD*%
G01*
D37*
D29*
X0910198Y0063712D03*
X0910198Y0056232D03*
D25*
X0918458Y0025972D03*
X0925938Y0025972D03*
D35*
X0904698Y0064303D03*
X0904698Y0055641D03*
X0904698Y0035303D03*
X0904698Y0026641D03*
X0911198Y0035303D03*
X0911198Y0026641D03*
D46*
X0898698Y0043972D03*
X0893698Y0043972D03*
X0888698Y0043972D03*
X0883698Y0043972D03*
X0883698Y0068972D03*
X0888698Y0068972D03*
X0893698Y0068972D03*
X0898698Y0068972D03*
D16*
X0891174Y0080740D03*
X0894324Y0080740D03*
X0897474Y0080740D03*
X0900623Y0080740D03*
X0903773Y0080740D03*
X0906922Y0080740D03*
X0910072Y0080740D03*
X0913222Y0080740D03*
D24*
X0918930Y0086448D03*
X0918930Y0089598D03*
X0918930Y0092748D03*
X0918930Y0095897D03*
X0918930Y0099047D03*
X0918930Y0102196D03*
X0918930Y0105346D03*
X0918930Y0108496D03*
D16*
X0913222Y0114204D03*
X0910072Y0114204D03*
X0906922Y0114204D03*
X0903773Y0114204D03*
X0900623Y0114204D03*
X0897474Y0114204D03*
X0894324Y0114204D03*
X0891174Y0114204D03*
D24*
X0885466Y0108496D03*
X0885466Y0105346D03*
X0885466Y0102196D03*
X0885466Y0099047D03*
X0885466Y0095897D03*
X0885466Y0092748D03*
X0885466Y0089598D03*
X0885466Y0086448D03*
D47*
X0885698Y0146165D03*
X0890698Y0146165D03*
X0895698Y0146165D03*
X0900698Y0146165D03*
X0905698Y0146165D03*
X0910698Y0146165D03*
X0915698Y0146165D03*
X0920698Y0146165D03*
X0920698Y0182779D03*
X0915698Y0182779D03*
X0910698Y0182779D03*
X0905698Y0182779D03*
X0900698Y0182779D03*
X0895698Y0182779D03*
X0890698Y0182779D03*
X0885698Y0182779D03*
D18*
X0914056Y0008472D03*
X0896340Y0008472D03*
D48*
X0909135Y0017724D03*
X0901261Y0017724D03*
X0918978Y0017724D03*
X0891418Y0017724D03*
D34*
X0915009Y0193472D03*
X0907135Y0193472D03*
X0899261Y0193472D03*
X0891387Y0193472D03*
D21*
X0895198Y0129472D03*
X0914411Y0129472D03*
%LPD*%X0941340Y0000000D02*
%LPD*%
G01*
D37*
D29*
X0972954Y0063712D03*
X0972954Y0056232D03*
D25*
X0981214Y0025972D03*
X0988694Y0025972D03*
D35*
X0967454Y0064303D03*
X0967454Y0055641D03*
X0967454Y0035303D03*
X0967454Y0026641D03*
X0973954Y0035303D03*
X0973954Y0026641D03*
D46*
X0961454Y0043972D03*
X0956454Y0043972D03*
X0951454Y0043972D03*
X0946454Y0043972D03*
X0946454Y0068972D03*
X0951454Y0068972D03*
X0956454Y0068972D03*
X0961454Y0068972D03*
D16*
X0953930Y0080740D03*
X0957080Y0080740D03*
X0960230Y0080740D03*
X0963379Y0080740D03*
X0966529Y0080740D03*
X0969678Y0080740D03*
X0972828Y0080740D03*
X0975978Y0080740D03*
D24*
X0981686Y0086448D03*
X0981686Y0089598D03*
X0981686Y0092748D03*
X0981686Y0095897D03*
X0981686Y0099047D03*
X0981686Y0102196D03*
X0981686Y0105346D03*
X0981686Y0108496D03*
D16*
X0975978Y0114204D03*
X0972828Y0114204D03*
X0969678Y0114204D03*
X0966529Y0114204D03*
X0963379Y0114204D03*
X0960230Y0114204D03*
X0957080Y0114204D03*
X0953930Y0114204D03*
D24*
X0948222Y0108496D03*
X0948222Y0105346D03*
X0948222Y0102196D03*
X0948222Y0099047D03*
X0948222Y0095897D03*
X0948222Y0092748D03*
X0948222Y0089598D03*
X0948222Y0086448D03*
D47*
X0948454Y0146165D03*
X0953454Y0146165D03*
X0958454Y0146165D03*
X0963454Y0146165D03*
X0968454Y0146165D03*
X0973454Y0146165D03*
X0978454Y0146165D03*
X0983454Y0146165D03*
X0983454Y0182779D03*
X0978454Y0182779D03*
X0973454Y0182779D03*
X0968454Y0182779D03*
X0963454Y0182779D03*
X0958454Y0182779D03*
X0953454Y0182779D03*
X0948454Y0182779D03*
D18*
X0976812Y0008472D03*
X0959096Y0008472D03*
D48*
X0971891Y0017724D03*
X0964017Y0017724D03*
X0981734Y0017724D03*
X0954174Y0017724D03*
D34*
X0977765Y0193472D03*
X0969891Y0193472D03*
X0962017Y0193472D03*
X0954143Y0193472D03*
D21*
X0957954Y0129472D03*
X0977167Y0129472D03*
M02*
