%TF.GenerationSoftware,KiCad,Pcbnew,4.0.7*%
%TF.CreationDate,2017-12-11T19:35:04+01:00*%
%TF.ProjectId,usb2rs485,7573623272733438352E6B696361645F,1*%
%TF.FileFunction,Copper,L2,Bot,Signal*%
%FSLAX46Y46*%
G04 Gerber Fmt 4.6, Leading zero omitted, Abs format (unit mm)*
G04 Created by KiCad (PCBNEW 4.0.7) date Mon Dec 11 19:35:04 2017*
%MOMM*%
%LPD*%
G01*
G04 APERTURE LIST*
%ADD10C,0.100000*%
%ADD11R,1.200000X0.750000*%
%ADD12R,1.200000X0.900000*%
%ADD13C,2.850000*%
%ADD14C,1.308000*%
%ADD15R,0.400000X0.700000*%
%ADD16C,1.500000*%
%ADD17R,0.900000X1.200000*%
%ADD18C,0.800000*%
%ADD19C,0.600000*%
%ADD20C,0.400000*%
%ADD21C,0.200000*%
%ADD22C,0.500000*%
%ADD23C,0.300000*%
%ADD24C,0.254000*%
G04 APERTURE END LIST*
D10*
D11*
X143317000Y-111506000D03*
X141417000Y-111506000D03*
X147000000Y-114554000D03*
X145100000Y-114554000D03*
X132903000Y-111760000D03*
X131003000Y-111760000D03*
X145857000Y-109220000D03*
X143957000Y-109220000D03*
X147767000Y-109220000D03*
X149667000Y-109220000D03*
X154874000Y-107696000D03*
X152974000Y-107696000D03*
X154874000Y-112522000D03*
X152974000Y-112522000D03*
X161102000Y-107442000D03*
X163002000Y-107442000D03*
D12*
X145712000Y-110744000D03*
X147912000Y-110744000D03*
X135044000Y-106680000D03*
X137244000Y-106680000D03*
X135044000Y-108458000D03*
X137244000Y-108458000D03*
D13*
X123952000Y-114010000D03*
X123952000Y-109510000D03*
D14*
X170942000Y-114252000D03*
X170942000Y-112252000D03*
X170942000Y-110252000D03*
X170942000Y-108252000D03*
D15*
X165242000Y-114234000D03*
X164592000Y-114234000D03*
X163942000Y-114234000D03*
X163942000Y-112334000D03*
X165242000Y-112334000D03*
D16*
X154686000Y-109220000D03*
X154686000Y-114100000D03*
D11*
X165034000Y-110744000D03*
X163134000Y-110744000D03*
X172786000Y-111252000D03*
X174686000Y-111252000D03*
D17*
X169164000Y-112352000D03*
X169164000Y-110152000D03*
D18*
X146812000Y-113538000D03*
X161102000Y-109728000D03*
X164846000Y-109728000D03*
X161036000Y-116586000D03*
X161102000Y-114554000D03*
X161036000Y-106426000D03*
X148082000Y-108077000D03*
X147828000Y-116647998D03*
X143764000Y-110363000D03*
X142748000Y-116586000D03*
X134366000Y-110998000D03*
X132969000Y-116205000D03*
X149606000Y-113538000D03*
X163002000Y-115570000D03*
X162306000Y-106426000D03*
X162814000Y-117602000D03*
X152908000Y-117602000D03*
X145034000Y-117602000D03*
X144018000Y-113792000D03*
X144399000Y-108077000D03*
X149606000Y-117602000D03*
X141351000Y-117602000D03*
X134493000Y-117094000D03*
X134620000Y-113030000D03*
X131318000Y-106426000D03*
X131445000Y-117094000D03*
D19*
X136144000Y-105918000D03*
X136144000Y-107696000D03*
X140970000Y-106680000D03*
X140716000Y-109728000D03*
X164592000Y-113284000D03*
X164592000Y-115316000D03*
X157226000Y-111760000D03*
X156718000Y-115062000D03*
X156464000Y-112522000D03*
X155956000Y-106934000D03*
X164084000Y-111506000D03*
D18*
X145669000Y-108204000D03*
D19*
X154432000Y-105664000D03*
X147066000Y-105664000D03*
X152146000Y-114046000D03*
D18*
X171958000Y-106934000D03*
X174498000Y-108712000D03*
D20*
X147000000Y-113726000D02*
X147000000Y-114554000D01*
X146812000Y-113538000D02*
X147000000Y-113726000D01*
D21*
X135044000Y-106680000D02*
X134366000Y-106680000D01*
X133858000Y-110490000D02*
X134366000Y-110998000D01*
X133858000Y-107188000D02*
X133858000Y-110490000D01*
X134366000Y-106680000D02*
X133858000Y-107188000D01*
D20*
X165242000Y-112334000D02*
X165242000Y-110952000D01*
X165242000Y-110952000D02*
X165034000Y-110744000D01*
D22*
X165034000Y-110744000D02*
X165034000Y-109916000D01*
X164846000Y-109728000D02*
X165034000Y-109916000D01*
X161102000Y-114554000D02*
X161102000Y-116520000D01*
X161102000Y-116520000D02*
X161036000Y-116586000D01*
X161102000Y-107442000D02*
X161102000Y-109728000D01*
X161102000Y-109728000D02*
X161102000Y-114554000D01*
X161102000Y-107442000D02*
X161102000Y-106492000D01*
X161102000Y-106492000D02*
X161036000Y-106426000D01*
X147000000Y-114554000D02*
X147912000Y-114554000D01*
X147912000Y-114554000D02*
X147828000Y-114554000D01*
X147828000Y-114554000D02*
X147912000Y-114554000D01*
X147767000Y-109220000D02*
X147767000Y-108392000D01*
X147767000Y-108392000D02*
X148082000Y-108077000D01*
X147912000Y-110744000D02*
X147912000Y-110066000D01*
X147767000Y-109921000D02*
X147767000Y-109220000D01*
X147912000Y-110066000D02*
X147767000Y-109921000D01*
X147912000Y-110744000D02*
X147912000Y-114554000D01*
X147912000Y-114554000D02*
X147912000Y-116563998D01*
X147912000Y-116563998D02*
X147828000Y-116647998D01*
X143764000Y-110363000D02*
X143317000Y-110810000D01*
X143317000Y-110810000D02*
X143317000Y-111506000D01*
X143317000Y-111506000D02*
X143317000Y-112588000D01*
X142748000Y-113157000D02*
X142748000Y-116586000D01*
X143317000Y-112588000D02*
X142748000Y-113157000D01*
X132903000Y-111760000D02*
X133604000Y-111760000D01*
X133604000Y-111760000D02*
X134366000Y-110998000D01*
X132903000Y-111760000D02*
X132903000Y-116139000D01*
X132903000Y-116139000D02*
X132969000Y-116205000D01*
D20*
X149606000Y-113538000D02*
X149667000Y-113538000D01*
X163942000Y-114234000D02*
X163002000Y-114234000D01*
X163068000Y-114300000D02*
X163002000Y-114300000D01*
X163002000Y-114234000D02*
X163068000Y-114300000D01*
D22*
X163002000Y-107442000D02*
X163002000Y-107122000D01*
X163002000Y-107122000D02*
X162306000Y-106426000D01*
X163002000Y-107442000D02*
X163002000Y-114300000D01*
X163002000Y-114300000D02*
X163002000Y-115570000D01*
X163002000Y-115570000D02*
X163002000Y-115824000D01*
X163002000Y-115824000D02*
X163002000Y-117414000D01*
X163002000Y-117414000D02*
X162814000Y-117602000D01*
X152974000Y-107696000D02*
X152974000Y-112522000D01*
X152974000Y-112522000D02*
X152974000Y-117536000D01*
X152974000Y-117536000D02*
X152908000Y-117602000D01*
X145100000Y-114554000D02*
X145100000Y-117536000D01*
X145100000Y-117536000D02*
X145034000Y-117602000D01*
X145100000Y-114554000D02*
X144780000Y-114554000D01*
X144780000Y-114554000D02*
X144018000Y-113792000D01*
X143957000Y-109220000D02*
X143957000Y-108519000D01*
X143957000Y-108519000D02*
X144399000Y-108077000D01*
X149667000Y-109220000D02*
X149667000Y-113538000D01*
X149667000Y-113538000D02*
X149667000Y-117541000D01*
X149667000Y-117541000D02*
X149606000Y-117602000D01*
X141417000Y-111506000D02*
X141417000Y-110932000D01*
X143129000Y-109220000D02*
X143957000Y-109220000D01*
X141417000Y-110932000D02*
X143129000Y-109220000D01*
X141417000Y-111506000D02*
X141417000Y-117536000D01*
X141417000Y-117536000D02*
X141351000Y-117602000D01*
X134493000Y-113157000D02*
X134493000Y-117094000D01*
X134620000Y-113030000D02*
X134493000Y-113157000D01*
X131003000Y-111760000D02*
X131003000Y-106741000D01*
X131003000Y-106741000D02*
X131318000Y-106426000D01*
X131003000Y-111760000D02*
X131003000Y-116652000D01*
X131003000Y-116652000D02*
X131445000Y-117094000D01*
D21*
X137244000Y-106680000D02*
X136906000Y-106680000D01*
X136906000Y-106680000D02*
X136144000Y-105918000D01*
X137244000Y-106680000D02*
X137244000Y-108458000D01*
X135044000Y-108458000D02*
X135382000Y-108458000D01*
X135382000Y-108458000D02*
X136144000Y-107696000D01*
X140970000Y-109474000D02*
X140970000Y-106680000D01*
X140716000Y-109728000D02*
X140970000Y-109474000D01*
X164592000Y-113284000D02*
X164592000Y-114234000D01*
X165242000Y-114234000D02*
X165242000Y-114666000D01*
X165242000Y-114666000D02*
X164592000Y-115316000D01*
X157226000Y-114554000D02*
X157226000Y-111760000D01*
X156718000Y-115062000D02*
X157226000Y-114554000D01*
X156210000Y-112268000D02*
X156464000Y-112522000D01*
X156210000Y-107188000D02*
X156210000Y-112268000D01*
X155956000Y-106934000D02*
X156210000Y-107188000D01*
X163942000Y-112334000D02*
X163942000Y-111648000D01*
X163942000Y-111648000D02*
X164084000Y-111506000D01*
D22*
X145857000Y-109220000D02*
X145857000Y-108392000D01*
X145857000Y-108392000D02*
X145669000Y-108204000D01*
X145712000Y-110744000D02*
X145712000Y-110066000D01*
X145857000Y-109921000D02*
X145857000Y-109220000D01*
X145712000Y-110066000D02*
X145857000Y-109921000D01*
D21*
X154874000Y-106106000D02*
X154874000Y-107696000D01*
X154432000Y-105664000D02*
X154874000Y-106106000D01*
D23*
X154686000Y-109220000D02*
X154686000Y-107884000D01*
X154686000Y-107884000D02*
X154874000Y-107696000D01*
D21*
X154940000Y-107762000D02*
X154874000Y-107696000D01*
X147066000Y-105664000D02*
X150114000Y-105664000D01*
X150114000Y-105664000D02*
X151892000Y-107442000D01*
X151892000Y-107442000D02*
X151892000Y-113792000D01*
X151892000Y-113792000D02*
X152146000Y-114046000D01*
D23*
X154686000Y-114100000D02*
X154686000Y-112710000D01*
X154686000Y-112710000D02*
X154874000Y-112522000D01*
D22*
X172786000Y-111252000D02*
X172786000Y-107762000D01*
X172786000Y-107762000D02*
X171958000Y-106934000D01*
X170942000Y-114252000D02*
X171498000Y-114252000D01*
X171498000Y-114252000D02*
X172786000Y-112964000D01*
X172786000Y-112964000D02*
X172786000Y-111252000D01*
D23*
X169164000Y-112352000D02*
X170842000Y-112352000D01*
X170842000Y-112352000D02*
X170942000Y-112252000D01*
X169164000Y-110152000D02*
X170842000Y-110152000D01*
X170842000Y-110152000D02*
X170942000Y-110252000D01*
D22*
X174686000Y-108900000D02*
X174686000Y-111252000D01*
X174498000Y-108712000D02*
X174686000Y-108900000D01*
D24*
G36*
X135612765Y-105562369D02*
X135517109Y-105792735D01*
X135517018Y-105896594D01*
X134444000Y-105896594D01*
X134322821Y-105919395D01*
X134211526Y-105991012D01*
X134136862Y-106100286D01*
X134110594Y-106230000D01*
X134110594Y-106346975D01*
X134064065Y-106378065D01*
X134064063Y-106378068D01*
X133556065Y-106886065D01*
X133463503Y-107024594D01*
X133430999Y-107188000D01*
X133431000Y-107188005D01*
X133431000Y-110489995D01*
X133430999Y-110490000D01*
X133463503Y-110653406D01*
X133556065Y-110791935D01*
X133639107Y-110874976D01*
X133639077Y-110908922D01*
X133496404Y-111051594D01*
X132303000Y-111051594D01*
X132181821Y-111074395D01*
X132165905Y-111084637D01*
X132141327Y-111025301D01*
X131962698Y-110846673D01*
X131729309Y-110750000D01*
X131288750Y-110750000D01*
X131130000Y-110908750D01*
X131130000Y-111633000D01*
X131150000Y-111633000D01*
X131150000Y-111887000D01*
X131130000Y-111887000D01*
X131130000Y-112611250D01*
X131288750Y-112770000D01*
X131729309Y-112770000D01*
X131962698Y-112673327D01*
X132141327Y-112494699D01*
X132165346Y-112436713D01*
X132173286Y-112442138D01*
X132303000Y-112468406D01*
X132326000Y-112468406D01*
X132326000Y-115857767D01*
X132242126Y-116059756D01*
X132241874Y-116348975D01*
X132352320Y-116616275D01*
X132556650Y-116820961D01*
X132823756Y-116931874D01*
X133112975Y-116932126D01*
X133380275Y-116821680D01*
X133584961Y-116617350D01*
X133695874Y-116350244D01*
X133696126Y-116061025D01*
X133585680Y-115793725D01*
X133480000Y-115687861D01*
X133480000Y-112468406D01*
X133503000Y-112468406D01*
X133624179Y-112445605D01*
X133735474Y-112373988D01*
X133785402Y-112300917D01*
X133824808Y-112293078D01*
X134012001Y-112168001D01*
X134388251Y-111791750D01*
X140182000Y-111791750D01*
X140182000Y-112007310D01*
X140278673Y-112240699D01*
X140457302Y-112419327D01*
X140690691Y-112516000D01*
X141131250Y-112516000D01*
X141290000Y-112357250D01*
X141290000Y-111633000D01*
X140340750Y-111633000D01*
X140182000Y-111791750D01*
X134388251Y-111791750D01*
X134454923Y-111725078D01*
X134509975Y-111725126D01*
X134777275Y-111614680D01*
X134981961Y-111410350D01*
X135092874Y-111143244D01*
X135092994Y-111004690D01*
X140182000Y-111004690D01*
X140182000Y-111220250D01*
X140340750Y-111379000D01*
X141290000Y-111379000D01*
X141290000Y-110654750D01*
X141544000Y-110654750D01*
X141544000Y-111379000D01*
X141564000Y-111379000D01*
X141564000Y-111633000D01*
X141544000Y-111633000D01*
X141544000Y-112357250D01*
X141702750Y-112516000D01*
X142143309Y-112516000D01*
X142376698Y-112419327D01*
X142555327Y-112240699D01*
X142579346Y-112182713D01*
X142587286Y-112188138D01*
X142717000Y-112214406D01*
X142740000Y-112214406D01*
X142740000Y-112348999D01*
X142339999Y-112748999D01*
X142214922Y-112936192D01*
X142170999Y-113157000D01*
X142171000Y-113157005D01*
X142171000Y-116134757D01*
X142132039Y-116173650D01*
X142021126Y-116440756D01*
X142020874Y-116729975D01*
X142131320Y-116997275D01*
X142335650Y-117201961D01*
X142602756Y-117312874D01*
X142891975Y-117313126D01*
X143159275Y-117202680D01*
X143363961Y-116998350D01*
X143474874Y-116731244D01*
X143475126Y-116442025D01*
X143364680Y-116174725D01*
X143325000Y-116134976D01*
X143325000Y-114839750D01*
X143865000Y-114839750D01*
X143865000Y-115055310D01*
X143961673Y-115288699D01*
X144140302Y-115467327D01*
X144373691Y-115564000D01*
X144814250Y-115564000D01*
X144973000Y-115405250D01*
X144973000Y-114681000D01*
X144023750Y-114681000D01*
X143865000Y-114839750D01*
X143325000Y-114839750D01*
X143325000Y-114052690D01*
X143865000Y-114052690D01*
X143865000Y-114268250D01*
X144023750Y-114427000D01*
X144973000Y-114427000D01*
X144973000Y-113702750D01*
X145227000Y-113702750D01*
X145227000Y-114427000D01*
X145247000Y-114427000D01*
X145247000Y-114681000D01*
X145227000Y-114681000D01*
X145227000Y-115405250D01*
X145385750Y-115564000D01*
X145826309Y-115564000D01*
X146059698Y-115467327D01*
X146238327Y-115288699D01*
X146262346Y-115230713D01*
X146270286Y-115236138D01*
X146400000Y-115262406D01*
X147335000Y-115262406D01*
X147335000Y-116112901D01*
X147212039Y-116235648D01*
X147101126Y-116502754D01*
X147100874Y-116791973D01*
X147211320Y-117059273D01*
X147415650Y-117263959D01*
X147682756Y-117374872D01*
X147971975Y-117375124D01*
X148239275Y-117264678D01*
X148443961Y-117060348D01*
X148554874Y-116793242D01*
X148555126Y-116504023D01*
X148489000Y-116343986D01*
X148489000Y-111527406D01*
X148512000Y-111527406D01*
X148633179Y-111504605D01*
X148744474Y-111432988D01*
X148819138Y-111323714D01*
X148845406Y-111194000D01*
X148845406Y-110294000D01*
X148824292Y-110181786D01*
X148940691Y-110230000D01*
X149381250Y-110230000D01*
X149540000Y-110071250D01*
X149540000Y-109347000D01*
X149794000Y-109347000D01*
X149794000Y-110071250D01*
X149952750Y-110230000D01*
X150393309Y-110230000D01*
X150626698Y-110133327D01*
X150805327Y-109954699D01*
X150902000Y-109721310D01*
X150902000Y-109505750D01*
X150743250Y-109347000D01*
X149794000Y-109347000D01*
X149540000Y-109347000D01*
X149520000Y-109347000D01*
X149520000Y-109093000D01*
X149540000Y-109093000D01*
X149540000Y-108368750D01*
X149794000Y-108368750D01*
X149794000Y-109093000D01*
X150743250Y-109093000D01*
X150902000Y-108934250D01*
X150902000Y-108718690D01*
X150805327Y-108485301D01*
X150626698Y-108306673D01*
X150393309Y-108210000D01*
X149952750Y-108210000D01*
X149794000Y-108368750D01*
X149540000Y-108368750D01*
X149381250Y-108210000D01*
X148940691Y-108210000D01*
X148787632Y-108273399D01*
X148808874Y-108222244D01*
X148809126Y-107933025D01*
X148698680Y-107665725D01*
X148494350Y-107461039D01*
X148227244Y-107350126D01*
X147938025Y-107349874D01*
X147670725Y-107460320D01*
X147466039Y-107664650D01*
X147355126Y-107931756D01*
X147355075Y-107989871D01*
X147233922Y-108171192D01*
X147189999Y-108392000D01*
X147190000Y-108392005D01*
X147190000Y-108511594D01*
X147167000Y-108511594D01*
X147045821Y-108534395D01*
X146934526Y-108606012D01*
X146859862Y-108715286D01*
X146833594Y-108845000D01*
X146833594Y-109595000D01*
X146856395Y-109716179D01*
X146928012Y-109827474D01*
X147037286Y-109902138D01*
X147167000Y-109928406D01*
X147191472Y-109928406D01*
X147201992Y-109981293D01*
X147190821Y-109983395D01*
X147079526Y-110055012D01*
X147004862Y-110164286D01*
X146978594Y-110294000D01*
X146978594Y-111194000D01*
X147001395Y-111315179D01*
X147073012Y-111426474D01*
X147182286Y-111501138D01*
X147312000Y-111527406D01*
X147335000Y-111527406D01*
X147335000Y-113032882D01*
X147224350Y-112922039D01*
X146957244Y-112811126D01*
X146668025Y-112810874D01*
X146400725Y-112921320D01*
X146196039Y-113125650D01*
X146085126Y-113392756D01*
X146084888Y-113665863D01*
X146059698Y-113640673D01*
X145826309Y-113544000D01*
X145385750Y-113544000D01*
X145227000Y-113702750D01*
X144973000Y-113702750D01*
X144814250Y-113544000D01*
X144373691Y-113544000D01*
X144140302Y-113640673D01*
X143961673Y-113819301D01*
X143865000Y-114052690D01*
X143325000Y-114052690D01*
X143325000Y-113396002D01*
X143724998Y-112996003D01*
X143725001Y-112996001D01*
X143850078Y-112808808D01*
X143850800Y-112805179D01*
X143894001Y-112588000D01*
X143894000Y-112587995D01*
X143894000Y-112214406D01*
X143917000Y-112214406D01*
X144038179Y-112191605D01*
X144149474Y-112119988D01*
X144224138Y-112010714D01*
X144250406Y-111881000D01*
X144250406Y-111131000D01*
X144227605Y-111009821D01*
X144195328Y-110959662D01*
X144379961Y-110775350D01*
X144490874Y-110508244D01*
X144491116Y-110230000D01*
X144683309Y-110230000D01*
X144801466Y-110181058D01*
X144778594Y-110294000D01*
X144778594Y-111194000D01*
X144801395Y-111315179D01*
X144873012Y-111426474D01*
X144982286Y-111501138D01*
X145112000Y-111527406D01*
X146312000Y-111527406D01*
X146433179Y-111504605D01*
X146544474Y-111432988D01*
X146619138Y-111323714D01*
X146645406Y-111194000D01*
X146645406Y-110294000D01*
X146622605Y-110172821D01*
X146550988Y-110061526D01*
X146441714Y-109986862D01*
X146421706Y-109982810D01*
X146432528Y-109928406D01*
X146457000Y-109928406D01*
X146578179Y-109905605D01*
X146689474Y-109833988D01*
X146764138Y-109724714D01*
X146790406Y-109595000D01*
X146790406Y-108845000D01*
X146767605Y-108723821D01*
X146695988Y-108612526D01*
X146586714Y-108537862D01*
X146457000Y-108511594D01*
X146434000Y-108511594D01*
X146434000Y-108392000D01*
X146396003Y-108200980D01*
X146396126Y-108060025D01*
X146285680Y-107792725D01*
X146081350Y-107588039D01*
X145814244Y-107477126D01*
X145525025Y-107476874D01*
X145257725Y-107587320D01*
X145053039Y-107791650D01*
X144942126Y-108058756D01*
X144941888Y-108331863D01*
X144916698Y-108306673D01*
X144683309Y-108210000D01*
X144242750Y-108210000D01*
X144084000Y-108368750D01*
X144084000Y-109093000D01*
X144104000Y-109093000D01*
X144104000Y-109347000D01*
X144084000Y-109347000D01*
X144084000Y-109367000D01*
X143830000Y-109367000D01*
X143830000Y-109347000D01*
X142880750Y-109347000D01*
X142722000Y-109505750D01*
X142722000Y-109721310D01*
X142818673Y-109954699D01*
X142997302Y-110133327D01*
X143061195Y-110159792D01*
X143037126Y-110217756D01*
X143037077Y-110273921D01*
X142908999Y-110401999D01*
X142783922Y-110589192D01*
X142742467Y-110797594D01*
X142717000Y-110797594D01*
X142595821Y-110820395D01*
X142579905Y-110830637D01*
X142555327Y-110771301D01*
X142376698Y-110592673D01*
X142143309Y-110496000D01*
X141702750Y-110496000D01*
X141544000Y-110654750D01*
X141290000Y-110654750D01*
X141131250Y-110496000D01*
X140690691Y-110496000D01*
X140457302Y-110592673D01*
X140278673Y-110771301D01*
X140182000Y-111004690D01*
X135092994Y-111004690D01*
X135093126Y-110854025D01*
X134982680Y-110586725D01*
X134778350Y-110382039D01*
X134511244Y-110271126D01*
X134285000Y-110270929D01*
X134285000Y-109852171D01*
X140088891Y-109852171D01*
X140184145Y-110082703D01*
X140360369Y-110259235D01*
X140590735Y-110354891D01*
X140840171Y-110355109D01*
X141070703Y-110259855D01*
X141247235Y-110083631D01*
X141342891Y-109853265D01*
X141343052Y-109669501D01*
X141364497Y-109637406D01*
X141397000Y-109474000D01*
X141397000Y-108718690D01*
X142722000Y-108718690D01*
X142722000Y-108934250D01*
X142880750Y-109093000D01*
X143830000Y-109093000D01*
X143830000Y-108368750D01*
X143671250Y-108210000D01*
X143230691Y-108210000D01*
X142997302Y-108306673D01*
X142818673Y-108485301D01*
X142722000Y-108718690D01*
X141397000Y-108718690D01*
X141397000Y-107139684D01*
X141501235Y-107035631D01*
X141596891Y-106805265D01*
X141597109Y-106555829D01*
X141501855Y-106325297D01*
X141325631Y-106148765D01*
X141095265Y-106053109D01*
X140845829Y-106052891D01*
X140615297Y-106148145D01*
X140438765Y-106324369D01*
X140343109Y-106554735D01*
X140342891Y-106804171D01*
X140438145Y-107034703D01*
X140543000Y-107139741D01*
X140543000Y-109121067D01*
X140361297Y-109196145D01*
X140184765Y-109372369D01*
X140089109Y-109602735D01*
X140088891Y-109852171D01*
X134285000Y-109852171D01*
X134285000Y-109195128D01*
X134314286Y-109215138D01*
X134444000Y-109241406D01*
X135644000Y-109241406D01*
X135765179Y-109218605D01*
X135876474Y-109146988D01*
X135951138Y-109037714D01*
X135977406Y-108908000D01*
X135977406Y-108466464D01*
X136120889Y-108322980D01*
X136268171Y-108323109D01*
X136310594Y-108305580D01*
X136310594Y-108908000D01*
X136333395Y-109029179D01*
X136405012Y-109140474D01*
X136514286Y-109215138D01*
X136644000Y-109241406D01*
X137844000Y-109241406D01*
X137965179Y-109218605D01*
X138076474Y-109146988D01*
X138151138Y-109037714D01*
X138177406Y-108908000D01*
X138177406Y-108008000D01*
X138154605Y-107886821D01*
X138082988Y-107775526D01*
X137973714Y-107700862D01*
X137844000Y-107674594D01*
X137671000Y-107674594D01*
X137671000Y-107463406D01*
X137844000Y-107463406D01*
X137965179Y-107440605D01*
X138076474Y-107368988D01*
X138151138Y-107259714D01*
X138177406Y-107130000D01*
X138177406Y-106230000D01*
X138154605Y-106108821D01*
X138082988Y-105997526D01*
X137973714Y-105922862D01*
X137844000Y-105896594D01*
X136771019Y-105896594D01*
X136771109Y-105793829D01*
X136675855Y-105563297D01*
X136514839Y-105402000D01*
X146495886Y-105402000D01*
X146439109Y-105538735D01*
X146438891Y-105788171D01*
X146534145Y-106018703D01*
X146710369Y-106195235D01*
X146940735Y-106290891D01*
X147190171Y-106291109D01*
X147420703Y-106195855D01*
X147525741Y-106091000D01*
X149937130Y-106091000D01*
X151465000Y-107618869D01*
X151465000Y-113791995D01*
X151464999Y-113792000D01*
X151497503Y-113955406D01*
X151519051Y-113987654D01*
X151518891Y-114170171D01*
X151614145Y-114400703D01*
X151790369Y-114577235D01*
X152020735Y-114672891D01*
X152270171Y-114673109D01*
X152500703Y-114577855D01*
X152677235Y-114401631D01*
X152772891Y-114171265D01*
X152773109Y-113921829D01*
X152677855Y-113691297D01*
X152518836Y-113532000D01*
X152688250Y-113532000D01*
X152847000Y-113373250D01*
X152847000Y-112649000D01*
X152827000Y-112649000D01*
X152827000Y-112395000D01*
X152847000Y-112395000D01*
X152847000Y-111670750D01*
X152688250Y-111512000D01*
X152319000Y-111512000D01*
X152319000Y-108706000D01*
X152688250Y-108706000D01*
X152847000Y-108547250D01*
X152847000Y-107823000D01*
X152827000Y-107823000D01*
X152827000Y-107569000D01*
X152847000Y-107569000D01*
X152847000Y-106844750D01*
X152688250Y-106686000D01*
X152247691Y-106686000D01*
X152014302Y-106782673D01*
X151925422Y-106871553D01*
X150455870Y-105402000D01*
X153861886Y-105402000D01*
X153805109Y-105538735D01*
X153804891Y-105788171D01*
X153900145Y-106018703D01*
X154076369Y-106195235D01*
X154306735Y-106290891D01*
X154447000Y-106291014D01*
X154447000Y-106987594D01*
X154274000Y-106987594D01*
X154152821Y-107010395D01*
X154136905Y-107020637D01*
X154112327Y-106961301D01*
X153933698Y-106782673D01*
X153700309Y-106686000D01*
X153259750Y-106686000D01*
X153101000Y-106844750D01*
X153101000Y-107569000D01*
X153121000Y-107569000D01*
X153121000Y-107823000D01*
X153101000Y-107823000D01*
X153101000Y-108547250D01*
X153259750Y-108706000D01*
X153700309Y-108706000D01*
X153740120Y-108689510D01*
X153609187Y-109004832D01*
X153608813Y-109433289D01*
X153772431Y-109829275D01*
X154075132Y-110132504D01*
X154470832Y-110296813D01*
X154899289Y-110297187D01*
X155295275Y-110133569D01*
X155598504Y-109830868D01*
X155762813Y-109435168D01*
X155763187Y-109006711D01*
X155599569Y-108610725D01*
X155393609Y-108404406D01*
X155474000Y-108404406D01*
X155595179Y-108381605D01*
X155706474Y-108309988D01*
X155781138Y-108200714D01*
X155783000Y-108191519D01*
X155783000Y-112023327D01*
X155712988Y-111914526D01*
X155603714Y-111839862D01*
X155474000Y-111813594D01*
X154274000Y-111813594D01*
X154152821Y-111836395D01*
X154136905Y-111846637D01*
X154112327Y-111787301D01*
X153933698Y-111608673D01*
X153700309Y-111512000D01*
X153259750Y-111512000D01*
X153101000Y-111670750D01*
X153101000Y-112395000D01*
X153121000Y-112395000D01*
X153121000Y-112649000D01*
X153101000Y-112649000D01*
X153101000Y-113373250D01*
X153259750Y-113532000D01*
X153700309Y-113532000D01*
X153767201Y-113504292D01*
X153609187Y-113884832D01*
X153608813Y-114313289D01*
X153772431Y-114709275D01*
X154075132Y-115012504D01*
X154470832Y-115176813D01*
X154899289Y-115177187D01*
X155295275Y-115013569D01*
X155598504Y-114710868D01*
X155762813Y-114315168D01*
X155763187Y-113886711D01*
X155599569Y-113490725D01*
X155339703Y-113230406D01*
X155474000Y-113230406D01*
X155595179Y-113207605D01*
X155706474Y-113135988D01*
X155781138Y-113026714D01*
X155807406Y-112897000D01*
X155807406Y-112390700D01*
X155815503Y-112431406D01*
X155837051Y-112463654D01*
X155836891Y-112646171D01*
X155932145Y-112876703D01*
X156108369Y-113053235D01*
X156338735Y-113148891D01*
X156588171Y-113149109D01*
X156799000Y-113061996D01*
X156799000Y-114377131D01*
X156741111Y-114435020D01*
X156593829Y-114434891D01*
X156363297Y-114530145D01*
X156186765Y-114706369D01*
X156091109Y-114936735D01*
X156090891Y-115186171D01*
X156186145Y-115416703D01*
X156362369Y-115593235D01*
X156592735Y-115688891D01*
X156842171Y-115689109D01*
X157072703Y-115593855D01*
X157249235Y-115417631D01*
X157344891Y-115187265D01*
X157345021Y-115038849D01*
X157527932Y-114855937D01*
X157527935Y-114855935D01*
X157620497Y-114717406D01*
X157653000Y-114554000D01*
X157653000Y-112219684D01*
X157757235Y-112115631D01*
X157852891Y-111885265D01*
X157853109Y-111635829D01*
X157757855Y-111405297D01*
X157581631Y-111228765D01*
X157351265Y-111133109D01*
X157101829Y-111132891D01*
X156871297Y-111228145D01*
X156694765Y-111404369D01*
X156637000Y-111543483D01*
X156637000Y-107188000D01*
X156612932Y-107067000D01*
X160168594Y-107067000D01*
X160168594Y-107817000D01*
X160191395Y-107938179D01*
X160263012Y-108049474D01*
X160372286Y-108124138D01*
X160502000Y-108150406D01*
X160525000Y-108150406D01*
X160525000Y-109276757D01*
X160486039Y-109315650D01*
X160375126Y-109582756D01*
X160374874Y-109871975D01*
X160485320Y-110139275D01*
X160525000Y-110179024D01*
X160525000Y-114102757D01*
X160486039Y-114141650D01*
X160375126Y-114408756D01*
X160374874Y-114697975D01*
X160485320Y-114965275D01*
X160525000Y-115005024D01*
X160525000Y-116068872D01*
X160420039Y-116173650D01*
X160309126Y-116440756D01*
X160308874Y-116729975D01*
X160419320Y-116997275D01*
X160623650Y-117201961D01*
X160890756Y-117312874D01*
X161179975Y-117313126D01*
X161447275Y-117202680D01*
X161651961Y-116998350D01*
X161762874Y-116731244D01*
X161763126Y-116442025D01*
X161679000Y-116238424D01*
X161679000Y-115005243D01*
X161717961Y-114966350D01*
X161828874Y-114699244D01*
X161829030Y-114519750D01*
X163107000Y-114519750D01*
X163107000Y-114710310D01*
X163203673Y-114943699D01*
X163382302Y-115122327D01*
X163615691Y-115219000D01*
X163683250Y-115219000D01*
X163842000Y-115060250D01*
X163842000Y-114361000D01*
X163265750Y-114361000D01*
X163107000Y-114519750D01*
X161829030Y-114519750D01*
X161829126Y-114410025D01*
X161718680Y-114142725D01*
X161679000Y-114102976D01*
X161679000Y-113757690D01*
X163107000Y-113757690D01*
X163107000Y-113948250D01*
X163265750Y-114107000D01*
X163842000Y-114107000D01*
X163842000Y-113407750D01*
X163683250Y-113249000D01*
X163615691Y-113249000D01*
X163382302Y-113345673D01*
X163203673Y-113524301D01*
X163107000Y-113757690D01*
X161679000Y-113757690D01*
X161679000Y-111029750D01*
X161899000Y-111029750D01*
X161899000Y-111245310D01*
X161995673Y-111478699D01*
X162174302Y-111657327D01*
X162407691Y-111754000D01*
X162848250Y-111754000D01*
X163007000Y-111595250D01*
X163007000Y-110871000D01*
X162057750Y-110871000D01*
X161899000Y-111029750D01*
X161679000Y-111029750D01*
X161679000Y-110242690D01*
X161899000Y-110242690D01*
X161899000Y-110458250D01*
X162057750Y-110617000D01*
X163007000Y-110617000D01*
X163007000Y-109892750D01*
X162848250Y-109734000D01*
X162407691Y-109734000D01*
X162174302Y-109830673D01*
X161995673Y-110009301D01*
X161899000Y-110242690D01*
X161679000Y-110242690D01*
X161679000Y-110179243D01*
X161717961Y-110140350D01*
X161828874Y-109873244D01*
X161829126Y-109584025D01*
X161718680Y-109316725D01*
X161679000Y-109276976D01*
X161679000Y-108150406D01*
X161702000Y-108150406D01*
X161823179Y-108127605D01*
X161839095Y-108117363D01*
X161863673Y-108176699D01*
X162042302Y-108355327D01*
X162275691Y-108452000D01*
X162716250Y-108452000D01*
X162875000Y-108293250D01*
X162875000Y-107569000D01*
X163129000Y-107569000D01*
X163129000Y-108293250D01*
X163287750Y-108452000D01*
X163728309Y-108452000D01*
X163961698Y-108355327D01*
X164140327Y-108176699D01*
X164237000Y-107943310D01*
X164237000Y-107727750D01*
X164078250Y-107569000D01*
X163129000Y-107569000D01*
X162875000Y-107569000D01*
X162855000Y-107569000D01*
X162855000Y-107315000D01*
X162875000Y-107315000D01*
X162875000Y-106590750D01*
X163129000Y-106590750D01*
X163129000Y-107315000D01*
X164078250Y-107315000D01*
X164237000Y-107156250D01*
X164237000Y-106940690D01*
X164140327Y-106707301D01*
X163961698Y-106528673D01*
X163728309Y-106432000D01*
X163287750Y-106432000D01*
X163129000Y-106590750D01*
X162875000Y-106590750D01*
X162716250Y-106432000D01*
X162275691Y-106432000D01*
X162042302Y-106528673D01*
X161863673Y-106707301D01*
X161839654Y-106765287D01*
X161831714Y-106759862D01*
X161702000Y-106733594D01*
X161695460Y-106733594D01*
X161762874Y-106571244D01*
X161763126Y-106282025D01*
X161652680Y-106014725D01*
X161448350Y-105810039D01*
X161181244Y-105699126D01*
X160892025Y-105698874D01*
X160624725Y-105809320D01*
X160420039Y-106013650D01*
X160309126Y-106280756D01*
X160308874Y-106569975D01*
X160385535Y-106755508D01*
X160380821Y-106756395D01*
X160269526Y-106828012D01*
X160194862Y-106937286D01*
X160168594Y-107067000D01*
X156612932Y-107067000D01*
X156604497Y-107024594D01*
X156582949Y-106992346D01*
X156583109Y-106809829D01*
X156487855Y-106579297D01*
X156311631Y-106402765D01*
X156081265Y-106307109D01*
X155831829Y-106306891D01*
X155601297Y-106402145D01*
X155424765Y-106578369D01*
X155329109Y-106808735D01*
X155328953Y-106987594D01*
X155301000Y-106987594D01*
X155301000Y-106106000D01*
X155268497Y-105942594D01*
X155175935Y-105804065D01*
X155175932Y-105804063D01*
X155058980Y-105687111D01*
X155059109Y-105539829D01*
X155002159Y-105402000D01*
X165735000Y-105402000D01*
X165735000Y-110056047D01*
X165634000Y-110035594D01*
X165611000Y-110035594D01*
X165611000Y-109916000D01*
X165573003Y-109724980D01*
X165573126Y-109584025D01*
X165462680Y-109316725D01*
X165258350Y-109112039D01*
X164991244Y-109001126D01*
X164702025Y-109000874D01*
X164434725Y-109111320D01*
X164230039Y-109315650D01*
X164119126Y-109582756D01*
X164118888Y-109855863D01*
X164093698Y-109830673D01*
X163860309Y-109734000D01*
X163419750Y-109734000D01*
X163261000Y-109892750D01*
X163261000Y-110617000D01*
X163281000Y-110617000D01*
X163281000Y-110871000D01*
X163261000Y-110871000D01*
X163261000Y-111595250D01*
X163419750Y-111754000D01*
X163503385Y-111754000D01*
X163434862Y-111854286D01*
X163408594Y-111984000D01*
X163408594Y-112684000D01*
X163431395Y-112805179D01*
X163503012Y-112916474D01*
X163612286Y-112991138D01*
X163742000Y-113017406D01*
X164023794Y-113017406D01*
X163965109Y-113158735D01*
X163964891Y-113408171D01*
X164042000Y-113594789D01*
X164042000Y-114107000D01*
X164058594Y-114107000D01*
X164058594Y-114361000D01*
X164042000Y-114361000D01*
X164042000Y-115005560D01*
X163965109Y-115190735D01*
X163964891Y-115440171D01*
X164060145Y-115670703D01*
X164236369Y-115847235D01*
X164466735Y-115942891D01*
X164716171Y-115943109D01*
X164946703Y-115847855D01*
X165123235Y-115671631D01*
X165218891Y-115441265D01*
X165219021Y-115292849D01*
X165543932Y-114967937D01*
X165543935Y-114967935D01*
X165615375Y-114861018D01*
X165674474Y-114822988D01*
X165735000Y-114734406D01*
X165735000Y-117998000D01*
X122202000Y-117998000D01*
X122202000Y-114362541D01*
X122465860Y-115001132D01*
X122958276Y-115494408D01*
X123601977Y-115761695D01*
X124298965Y-115762304D01*
X124943132Y-115496140D01*
X125436408Y-115003724D01*
X125703695Y-114360023D01*
X125704304Y-113663035D01*
X125438140Y-113018868D01*
X124945724Y-112525592D01*
X124302023Y-112258305D01*
X123605035Y-112257696D01*
X122960868Y-112523860D01*
X122467592Y-113016276D01*
X122202000Y-113655895D01*
X122202000Y-112045750D01*
X129768000Y-112045750D01*
X129768000Y-112261310D01*
X129864673Y-112494699D01*
X130043302Y-112673327D01*
X130276691Y-112770000D01*
X130717250Y-112770000D01*
X130876000Y-112611250D01*
X130876000Y-111887000D01*
X129926750Y-111887000D01*
X129768000Y-112045750D01*
X122202000Y-112045750D01*
X122202000Y-109862541D01*
X122465860Y-110501132D01*
X122958276Y-110994408D01*
X123601977Y-111261695D01*
X124298965Y-111262304D01*
X124307711Y-111258690D01*
X129768000Y-111258690D01*
X129768000Y-111474250D01*
X129926750Y-111633000D01*
X130876000Y-111633000D01*
X130876000Y-110908750D01*
X130717250Y-110750000D01*
X130276691Y-110750000D01*
X130043302Y-110846673D01*
X129864673Y-111025301D01*
X129768000Y-111258690D01*
X124307711Y-111258690D01*
X124943132Y-110996140D01*
X125436408Y-110503724D01*
X125703695Y-109860023D01*
X125704304Y-109163035D01*
X125438140Y-108518868D01*
X124945724Y-108025592D01*
X124302023Y-107758305D01*
X123605035Y-107757696D01*
X122960868Y-108023860D01*
X122467592Y-108516276D01*
X122202000Y-109155895D01*
X122202000Y-105402000D01*
X135773414Y-105402000D01*
X135612765Y-105562369D01*
X135612765Y-105562369D01*
G37*
X135612765Y-105562369D02*
X135517109Y-105792735D01*
X135517018Y-105896594D01*
X134444000Y-105896594D01*
X134322821Y-105919395D01*
X134211526Y-105991012D01*
X134136862Y-106100286D01*
X134110594Y-106230000D01*
X134110594Y-106346975D01*
X134064065Y-106378065D01*
X134064063Y-106378068D01*
X133556065Y-106886065D01*
X133463503Y-107024594D01*
X133430999Y-107188000D01*
X133431000Y-107188005D01*
X133431000Y-110489995D01*
X133430999Y-110490000D01*
X133463503Y-110653406D01*
X133556065Y-110791935D01*
X133639107Y-110874976D01*
X133639077Y-110908922D01*
X133496404Y-111051594D01*
X132303000Y-111051594D01*
X132181821Y-111074395D01*
X132165905Y-111084637D01*
X132141327Y-111025301D01*
X131962698Y-110846673D01*
X131729309Y-110750000D01*
X131288750Y-110750000D01*
X131130000Y-110908750D01*
X131130000Y-111633000D01*
X131150000Y-111633000D01*
X131150000Y-111887000D01*
X131130000Y-111887000D01*
X131130000Y-112611250D01*
X131288750Y-112770000D01*
X131729309Y-112770000D01*
X131962698Y-112673327D01*
X132141327Y-112494699D01*
X132165346Y-112436713D01*
X132173286Y-112442138D01*
X132303000Y-112468406D01*
X132326000Y-112468406D01*
X132326000Y-115857767D01*
X132242126Y-116059756D01*
X132241874Y-116348975D01*
X132352320Y-116616275D01*
X132556650Y-116820961D01*
X132823756Y-116931874D01*
X133112975Y-116932126D01*
X133380275Y-116821680D01*
X133584961Y-116617350D01*
X133695874Y-116350244D01*
X133696126Y-116061025D01*
X133585680Y-115793725D01*
X133480000Y-115687861D01*
X133480000Y-112468406D01*
X133503000Y-112468406D01*
X133624179Y-112445605D01*
X133735474Y-112373988D01*
X133785402Y-112300917D01*
X133824808Y-112293078D01*
X134012001Y-112168001D01*
X134388251Y-111791750D01*
X140182000Y-111791750D01*
X140182000Y-112007310D01*
X140278673Y-112240699D01*
X140457302Y-112419327D01*
X140690691Y-112516000D01*
X141131250Y-112516000D01*
X141290000Y-112357250D01*
X141290000Y-111633000D01*
X140340750Y-111633000D01*
X140182000Y-111791750D01*
X134388251Y-111791750D01*
X134454923Y-111725078D01*
X134509975Y-111725126D01*
X134777275Y-111614680D01*
X134981961Y-111410350D01*
X135092874Y-111143244D01*
X135092994Y-111004690D01*
X140182000Y-111004690D01*
X140182000Y-111220250D01*
X140340750Y-111379000D01*
X141290000Y-111379000D01*
X141290000Y-110654750D01*
X141544000Y-110654750D01*
X141544000Y-111379000D01*
X141564000Y-111379000D01*
X141564000Y-111633000D01*
X141544000Y-111633000D01*
X141544000Y-112357250D01*
X141702750Y-112516000D01*
X142143309Y-112516000D01*
X142376698Y-112419327D01*
X142555327Y-112240699D01*
X142579346Y-112182713D01*
X142587286Y-112188138D01*
X142717000Y-112214406D01*
X142740000Y-112214406D01*
X142740000Y-112348999D01*
X142339999Y-112748999D01*
X142214922Y-112936192D01*
X142170999Y-113157000D01*
X142171000Y-113157005D01*
X142171000Y-116134757D01*
X142132039Y-116173650D01*
X142021126Y-116440756D01*
X142020874Y-116729975D01*
X142131320Y-116997275D01*
X142335650Y-117201961D01*
X142602756Y-117312874D01*
X142891975Y-117313126D01*
X143159275Y-117202680D01*
X143363961Y-116998350D01*
X143474874Y-116731244D01*
X143475126Y-116442025D01*
X143364680Y-116174725D01*
X143325000Y-116134976D01*
X143325000Y-114839750D01*
X143865000Y-114839750D01*
X143865000Y-115055310D01*
X143961673Y-115288699D01*
X144140302Y-115467327D01*
X144373691Y-115564000D01*
X144814250Y-115564000D01*
X144973000Y-115405250D01*
X144973000Y-114681000D01*
X144023750Y-114681000D01*
X143865000Y-114839750D01*
X143325000Y-114839750D01*
X143325000Y-114052690D01*
X143865000Y-114052690D01*
X143865000Y-114268250D01*
X144023750Y-114427000D01*
X144973000Y-114427000D01*
X144973000Y-113702750D01*
X145227000Y-113702750D01*
X145227000Y-114427000D01*
X145247000Y-114427000D01*
X145247000Y-114681000D01*
X145227000Y-114681000D01*
X145227000Y-115405250D01*
X145385750Y-115564000D01*
X145826309Y-115564000D01*
X146059698Y-115467327D01*
X146238327Y-115288699D01*
X146262346Y-115230713D01*
X146270286Y-115236138D01*
X146400000Y-115262406D01*
X147335000Y-115262406D01*
X147335000Y-116112901D01*
X147212039Y-116235648D01*
X147101126Y-116502754D01*
X147100874Y-116791973D01*
X147211320Y-117059273D01*
X147415650Y-117263959D01*
X147682756Y-117374872D01*
X147971975Y-117375124D01*
X148239275Y-117264678D01*
X148443961Y-117060348D01*
X148554874Y-116793242D01*
X148555126Y-116504023D01*
X148489000Y-116343986D01*
X148489000Y-111527406D01*
X148512000Y-111527406D01*
X148633179Y-111504605D01*
X148744474Y-111432988D01*
X148819138Y-111323714D01*
X148845406Y-111194000D01*
X148845406Y-110294000D01*
X148824292Y-110181786D01*
X148940691Y-110230000D01*
X149381250Y-110230000D01*
X149540000Y-110071250D01*
X149540000Y-109347000D01*
X149794000Y-109347000D01*
X149794000Y-110071250D01*
X149952750Y-110230000D01*
X150393309Y-110230000D01*
X150626698Y-110133327D01*
X150805327Y-109954699D01*
X150902000Y-109721310D01*
X150902000Y-109505750D01*
X150743250Y-109347000D01*
X149794000Y-109347000D01*
X149540000Y-109347000D01*
X149520000Y-109347000D01*
X149520000Y-109093000D01*
X149540000Y-109093000D01*
X149540000Y-108368750D01*
X149794000Y-108368750D01*
X149794000Y-109093000D01*
X150743250Y-109093000D01*
X150902000Y-108934250D01*
X150902000Y-108718690D01*
X150805327Y-108485301D01*
X150626698Y-108306673D01*
X150393309Y-108210000D01*
X149952750Y-108210000D01*
X149794000Y-108368750D01*
X149540000Y-108368750D01*
X149381250Y-108210000D01*
X148940691Y-108210000D01*
X148787632Y-108273399D01*
X148808874Y-108222244D01*
X148809126Y-107933025D01*
X148698680Y-107665725D01*
X148494350Y-107461039D01*
X148227244Y-107350126D01*
X147938025Y-107349874D01*
X147670725Y-107460320D01*
X147466039Y-107664650D01*
X147355126Y-107931756D01*
X147355075Y-107989871D01*
X147233922Y-108171192D01*
X147189999Y-108392000D01*
X147190000Y-108392005D01*
X147190000Y-108511594D01*
X147167000Y-108511594D01*
X147045821Y-108534395D01*
X146934526Y-108606012D01*
X146859862Y-108715286D01*
X146833594Y-108845000D01*
X146833594Y-109595000D01*
X146856395Y-109716179D01*
X146928012Y-109827474D01*
X147037286Y-109902138D01*
X147167000Y-109928406D01*
X147191472Y-109928406D01*
X147201992Y-109981293D01*
X147190821Y-109983395D01*
X147079526Y-110055012D01*
X147004862Y-110164286D01*
X146978594Y-110294000D01*
X146978594Y-111194000D01*
X147001395Y-111315179D01*
X147073012Y-111426474D01*
X147182286Y-111501138D01*
X147312000Y-111527406D01*
X147335000Y-111527406D01*
X147335000Y-113032882D01*
X147224350Y-112922039D01*
X146957244Y-112811126D01*
X146668025Y-112810874D01*
X146400725Y-112921320D01*
X146196039Y-113125650D01*
X146085126Y-113392756D01*
X146084888Y-113665863D01*
X146059698Y-113640673D01*
X145826309Y-113544000D01*
X145385750Y-113544000D01*
X145227000Y-113702750D01*
X144973000Y-113702750D01*
X144814250Y-113544000D01*
X144373691Y-113544000D01*
X144140302Y-113640673D01*
X143961673Y-113819301D01*
X143865000Y-114052690D01*
X143325000Y-114052690D01*
X143325000Y-113396002D01*
X143724998Y-112996003D01*
X143725001Y-112996001D01*
X143850078Y-112808808D01*
X143850800Y-112805179D01*
X143894001Y-112588000D01*
X143894000Y-112587995D01*
X143894000Y-112214406D01*
X143917000Y-112214406D01*
X144038179Y-112191605D01*
X144149474Y-112119988D01*
X144224138Y-112010714D01*
X144250406Y-111881000D01*
X144250406Y-111131000D01*
X144227605Y-111009821D01*
X144195328Y-110959662D01*
X144379961Y-110775350D01*
X144490874Y-110508244D01*
X144491116Y-110230000D01*
X144683309Y-110230000D01*
X144801466Y-110181058D01*
X144778594Y-110294000D01*
X144778594Y-111194000D01*
X144801395Y-111315179D01*
X144873012Y-111426474D01*
X144982286Y-111501138D01*
X145112000Y-111527406D01*
X146312000Y-111527406D01*
X146433179Y-111504605D01*
X146544474Y-111432988D01*
X146619138Y-111323714D01*
X146645406Y-111194000D01*
X146645406Y-110294000D01*
X146622605Y-110172821D01*
X146550988Y-110061526D01*
X146441714Y-109986862D01*
X146421706Y-109982810D01*
X146432528Y-109928406D01*
X146457000Y-109928406D01*
X146578179Y-109905605D01*
X146689474Y-109833988D01*
X146764138Y-109724714D01*
X146790406Y-109595000D01*
X146790406Y-108845000D01*
X146767605Y-108723821D01*
X146695988Y-108612526D01*
X146586714Y-108537862D01*
X146457000Y-108511594D01*
X146434000Y-108511594D01*
X146434000Y-108392000D01*
X146396003Y-108200980D01*
X146396126Y-108060025D01*
X146285680Y-107792725D01*
X146081350Y-107588039D01*
X145814244Y-107477126D01*
X145525025Y-107476874D01*
X145257725Y-107587320D01*
X145053039Y-107791650D01*
X144942126Y-108058756D01*
X144941888Y-108331863D01*
X144916698Y-108306673D01*
X144683309Y-108210000D01*
X144242750Y-108210000D01*
X144084000Y-108368750D01*
X144084000Y-109093000D01*
X144104000Y-109093000D01*
X144104000Y-109347000D01*
X144084000Y-109347000D01*
X144084000Y-109367000D01*
X143830000Y-109367000D01*
X143830000Y-109347000D01*
X142880750Y-109347000D01*
X142722000Y-109505750D01*
X142722000Y-109721310D01*
X142818673Y-109954699D01*
X142997302Y-110133327D01*
X143061195Y-110159792D01*
X143037126Y-110217756D01*
X143037077Y-110273921D01*
X142908999Y-110401999D01*
X142783922Y-110589192D01*
X142742467Y-110797594D01*
X142717000Y-110797594D01*
X142595821Y-110820395D01*
X142579905Y-110830637D01*
X142555327Y-110771301D01*
X142376698Y-110592673D01*
X142143309Y-110496000D01*
X141702750Y-110496000D01*
X141544000Y-110654750D01*
X141290000Y-110654750D01*
X141131250Y-110496000D01*
X140690691Y-110496000D01*
X140457302Y-110592673D01*
X140278673Y-110771301D01*
X140182000Y-111004690D01*
X135092994Y-111004690D01*
X135093126Y-110854025D01*
X134982680Y-110586725D01*
X134778350Y-110382039D01*
X134511244Y-110271126D01*
X134285000Y-110270929D01*
X134285000Y-109852171D01*
X140088891Y-109852171D01*
X140184145Y-110082703D01*
X140360369Y-110259235D01*
X140590735Y-110354891D01*
X140840171Y-110355109D01*
X141070703Y-110259855D01*
X141247235Y-110083631D01*
X141342891Y-109853265D01*
X141343052Y-109669501D01*
X141364497Y-109637406D01*
X141397000Y-109474000D01*
X141397000Y-108718690D01*
X142722000Y-108718690D01*
X142722000Y-108934250D01*
X142880750Y-109093000D01*
X143830000Y-109093000D01*
X143830000Y-108368750D01*
X143671250Y-108210000D01*
X143230691Y-108210000D01*
X142997302Y-108306673D01*
X142818673Y-108485301D01*
X142722000Y-108718690D01*
X141397000Y-108718690D01*
X141397000Y-107139684D01*
X141501235Y-107035631D01*
X141596891Y-106805265D01*
X141597109Y-106555829D01*
X141501855Y-106325297D01*
X141325631Y-106148765D01*
X141095265Y-106053109D01*
X140845829Y-106052891D01*
X140615297Y-106148145D01*
X140438765Y-106324369D01*
X140343109Y-106554735D01*
X140342891Y-106804171D01*
X140438145Y-107034703D01*
X140543000Y-107139741D01*
X140543000Y-109121067D01*
X140361297Y-109196145D01*
X140184765Y-109372369D01*
X140089109Y-109602735D01*
X140088891Y-109852171D01*
X134285000Y-109852171D01*
X134285000Y-109195128D01*
X134314286Y-109215138D01*
X134444000Y-109241406D01*
X135644000Y-109241406D01*
X135765179Y-109218605D01*
X135876474Y-109146988D01*
X135951138Y-109037714D01*
X135977406Y-108908000D01*
X135977406Y-108466464D01*
X136120889Y-108322980D01*
X136268171Y-108323109D01*
X136310594Y-108305580D01*
X136310594Y-108908000D01*
X136333395Y-109029179D01*
X136405012Y-109140474D01*
X136514286Y-109215138D01*
X136644000Y-109241406D01*
X137844000Y-109241406D01*
X137965179Y-109218605D01*
X138076474Y-109146988D01*
X138151138Y-109037714D01*
X138177406Y-108908000D01*
X138177406Y-108008000D01*
X138154605Y-107886821D01*
X138082988Y-107775526D01*
X137973714Y-107700862D01*
X137844000Y-107674594D01*
X137671000Y-107674594D01*
X137671000Y-107463406D01*
X137844000Y-107463406D01*
X137965179Y-107440605D01*
X138076474Y-107368988D01*
X138151138Y-107259714D01*
X138177406Y-107130000D01*
X138177406Y-106230000D01*
X138154605Y-106108821D01*
X138082988Y-105997526D01*
X137973714Y-105922862D01*
X137844000Y-105896594D01*
X136771019Y-105896594D01*
X136771109Y-105793829D01*
X136675855Y-105563297D01*
X136514839Y-105402000D01*
X146495886Y-105402000D01*
X146439109Y-105538735D01*
X146438891Y-105788171D01*
X146534145Y-106018703D01*
X146710369Y-106195235D01*
X146940735Y-106290891D01*
X147190171Y-106291109D01*
X147420703Y-106195855D01*
X147525741Y-106091000D01*
X149937130Y-106091000D01*
X151465000Y-107618869D01*
X151465000Y-113791995D01*
X151464999Y-113792000D01*
X151497503Y-113955406D01*
X151519051Y-113987654D01*
X151518891Y-114170171D01*
X151614145Y-114400703D01*
X151790369Y-114577235D01*
X152020735Y-114672891D01*
X152270171Y-114673109D01*
X152500703Y-114577855D01*
X152677235Y-114401631D01*
X152772891Y-114171265D01*
X152773109Y-113921829D01*
X152677855Y-113691297D01*
X152518836Y-113532000D01*
X152688250Y-113532000D01*
X152847000Y-113373250D01*
X152847000Y-112649000D01*
X152827000Y-112649000D01*
X152827000Y-112395000D01*
X152847000Y-112395000D01*
X152847000Y-111670750D01*
X152688250Y-111512000D01*
X152319000Y-111512000D01*
X152319000Y-108706000D01*
X152688250Y-108706000D01*
X152847000Y-108547250D01*
X152847000Y-107823000D01*
X152827000Y-107823000D01*
X152827000Y-107569000D01*
X152847000Y-107569000D01*
X152847000Y-106844750D01*
X152688250Y-106686000D01*
X152247691Y-106686000D01*
X152014302Y-106782673D01*
X151925422Y-106871553D01*
X150455870Y-105402000D01*
X153861886Y-105402000D01*
X153805109Y-105538735D01*
X153804891Y-105788171D01*
X153900145Y-106018703D01*
X154076369Y-106195235D01*
X154306735Y-106290891D01*
X154447000Y-106291014D01*
X154447000Y-106987594D01*
X154274000Y-106987594D01*
X154152821Y-107010395D01*
X154136905Y-107020637D01*
X154112327Y-106961301D01*
X153933698Y-106782673D01*
X153700309Y-106686000D01*
X153259750Y-106686000D01*
X153101000Y-106844750D01*
X153101000Y-107569000D01*
X153121000Y-107569000D01*
X153121000Y-107823000D01*
X153101000Y-107823000D01*
X153101000Y-108547250D01*
X153259750Y-108706000D01*
X153700309Y-108706000D01*
X153740120Y-108689510D01*
X153609187Y-109004832D01*
X153608813Y-109433289D01*
X153772431Y-109829275D01*
X154075132Y-110132504D01*
X154470832Y-110296813D01*
X154899289Y-110297187D01*
X155295275Y-110133569D01*
X155598504Y-109830868D01*
X155762813Y-109435168D01*
X155763187Y-109006711D01*
X155599569Y-108610725D01*
X155393609Y-108404406D01*
X155474000Y-108404406D01*
X155595179Y-108381605D01*
X155706474Y-108309988D01*
X155781138Y-108200714D01*
X155783000Y-108191519D01*
X155783000Y-112023327D01*
X155712988Y-111914526D01*
X155603714Y-111839862D01*
X155474000Y-111813594D01*
X154274000Y-111813594D01*
X154152821Y-111836395D01*
X154136905Y-111846637D01*
X154112327Y-111787301D01*
X153933698Y-111608673D01*
X153700309Y-111512000D01*
X153259750Y-111512000D01*
X153101000Y-111670750D01*
X153101000Y-112395000D01*
X153121000Y-112395000D01*
X153121000Y-112649000D01*
X153101000Y-112649000D01*
X153101000Y-113373250D01*
X153259750Y-113532000D01*
X153700309Y-113532000D01*
X153767201Y-113504292D01*
X153609187Y-113884832D01*
X153608813Y-114313289D01*
X153772431Y-114709275D01*
X154075132Y-115012504D01*
X154470832Y-115176813D01*
X154899289Y-115177187D01*
X155295275Y-115013569D01*
X155598504Y-114710868D01*
X155762813Y-114315168D01*
X155763187Y-113886711D01*
X155599569Y-113490725D01*
X155339703Y-113230406D01*
X155474000Y-113230406D01*
X155595179Y-113207605D01*
X155706474Y-113135988D01*
X155781138Y-113026714D01*
X155807406Y-112897000D01*
X155807406Y-112390700D01*
X155815503Y-112431406D01*
X155837051Y-112463654D01*
X155836891Y-112646171D01*
X155932145Y-112876703D01*
X156108369Y-113053235D01*
X156338735Y-113148891D01*
X156588171Y-113149109D01*
X156799000Y-113061996D01*
X156799000Y-114377131D01*
X156741111Y-114435020D01*
X156593829Y-114434891D01*
X156363297Y-114530145D01*
X156186765Y-114706369D01*
X156091109Y-114936735D01*
X156090891Y-115186171D01*
X156186145Y-115416703D01*
X156362369Y-115593235D01*
X156592735Y-115688891D01*
X156842171Y-115689109D01*
X157072703Y-115593855D01*
X157249235Y-115417631D01*
X157344891Y-115187265D01*
X157345021Y-115038849D01*
X157527932Y-114855937D01*
X157527935Y-114855935D01*
X157620497Y-114717406D01*
X157653000Y-114554000D01*
X157653000Y-112219684D01*
X157757235Y-112115631D01*
X157852891Y-111885265D01*
X157853109Y-111635829D01*
X157757855Y-111405297D01*
X157581631Y-111228765D01*
X157351265Y-111133109D01*
X157101829Y-111132891D01*
X156871297Y-111228145D01*
X156694765Y-111404369D01*
X156637000Y-111543483D01*
X156637000Y-107188000D01*
X156612932Y-107067000D01*
X160168594Y-107067000D01*
X160168594Y-107817000D01*
X160191395Y-107938179D01*
X160263012Y-108049474D01*
X160372286Y-108124138D01*
X160502000Y-108150406D01*
X160525000Y-108150406D01*
X160525000Y-109276757D01*
X160486039Y-109315650D01*
X160375126Y-109582756D01*
X160374874Y-109871975D01*
X160485320Y-110139275D01*
X160525000Y-110179024D01*
X160525000Y-114102757D01*
X160486039Y-114141650D01*
X160375126Y-114408756D01*
X160374874Y-114697975D01*
X160485320Y-114965275D01*
X160525000Y-115005024D01*
X160525000Y-116068872D01*
X160420039Y-116173650D01*
X160309126Y-116440756D01*
X160308874Y-116729975D01*
X160419320Y-116997275D01*
X160623650Y-117201961D01*
X160890756Y-117312874D01*
X161179975Y-117313126D01*
X161447275Y-117202680D01*
X161651961Y-116998350D01*
X161762874Y-116731244D01*
X161763126Y-116442025D01*
X161679000Y-116238424D01*
X161679000Y-115005243D01*
X161717961Y-114966350D01*
X161828874Y-114699244D01*
X161829030Y-114519750D01*
X163107000Y-114519750D01*
X163107000Y-114710310D01*
X163203673Y-114943699D01*
X163382302Y-115122327D01*
X163615691Y-115219000D01*
X163683250Y-115219000D01*
X163842000Y-115060250D01*
X163842000Y-114361000D01*
X163265750Y-114361000D01*
X163107000Y-114519750D01*
X161829030Y-114519750D01*
X161829126Y-114410025D01*
X161718680Y-114142725D01*
X161679000Y-114102976D01*
X161679000Y-113757690D01*
X163107000Y-113757690D01*
X163107000Y-113948250D01*
X163265750Y-114107000D01*
X163842000Y-114107000D01*
X163842000Y-113407750D01*
X163683250Y-113249000D01*
X163615691Y-113249000D01*
X163382302Y-113345673D01*
X163203673Y-113524301D01*
X163107000Y-113757690D01*
X161679000Y-113757690D01*
X161679000Y-111029750D01*
X161899000Y-111029750D01*
X161899000Y-111245310D01*
X161995673Y-111478699D01*
X162174302Y-111657327D01*
X162407691Y-111754000D01*
X162848250Y-111754000D01*
X163007000Y-111595250D01*
X163007000Y-110871000D01*
X162057750Y-110871000D01*
X161899000Y-111029750D01*
X161679000Y-111029750D01*
X161679000Y-110242690D01*
X161899000Y-110242690D01*
X161899000Y-110458250D01*
X162057750Y-110617000D01*
X163007000Y-110617000D01*
X163007000Y-109892750D01*
X162848250Y-109734000D01*
X162407691Y-109734000D01*
X162174302Y-109830673D01*
X161995673Y-110009301D01*
X161899000Y-110242690D01*
X161679000Y-110242690D01*
X161679000Y-110179243D01*
X161717961Y-110140350D01*
X161828874Y-109873244D01*
X161829126Y-109584025D01*
X161718680Y-109316725D01*
X161679000Y-109276976D01*
X161679000Y-108150406D01*
X161702000Y-108150406D01*
X161823179Y-108127605D01*
X161839095Y-108117363D01*
X161863673Y-108176699D01*
X162042302Y-108355327D01*
X162275691Y-108452000D01*
X162716250Y-108452000D01*
X162875000Y-108293250D01*
X162875000Y-107569000D01*
X163129000Y-107569000D01*
X163129000Y-108293250D01*
X163287750Y-108452000D01*
X163728309Y-108452000D01*
X163961698Y-108355327D01*
X164140327Y-108176699D01*
X164237000Y-107943310D01*
X164237000Y-107727750D01*
X164078250Y-107569000D01*
X163129000Y-107569000D01*
X162875000Y-107569000D01*
X162855000Y-107569000D01*
X162855000Y-107315000D01*
X162875000Y-107315000D01*
X162875000Y-106590750D01*
X163129000Y-106590750D01*
X163129000Y-107315000D01*
X164078250Y-107315000D01*
X164237000Y-107156250D01*
X164237000Y-106940690D01*
X164140327Y-106707301D01*
X163961698Y-106528673D01*
X163728309Y-106432000D01*
X163287750Y-106432000D01*
X163129000Y-106590750D01*
X162875000Y-106590750D01*
X162716250Y-106432000D01*
X162275691Y-106432000D01*
X162042302Y-106528673D01*
X161863673Y-106707301D01*
X161839654Y-106765287D01*
X161831714Y-106759862D01*
X161702000Y-106733594D01*
X161695460Y-106733594D01*
X161762874Y-106571244D01*
X161763126Y-106282025D01*
X161652680Y-106014725D01*
X161448350Y-105810039D01*
X161181244Y-105699126D01*
X160892025Y-105698874D01*
X160624725Y-105809320D01*
X160420039Y-106013650D01*
X160309126Y-106280756D01*
X160308874Y-106569975D01*
X160385535Y-106755508D01*
X160380821Y-106756395D01*
X160269526Y-106828012D01*
X160194862Y-106937286D01*
X160168594Y-107067000D01*
X156612932Y-107067000D01*
X156604497Y-107024594D01*
X156582949Y-106992346D01*
X156583109Y-106809829D01*
X156487855Y-106579297D01*
X156311631Y-106402765D01*
X156081265Y-106307109D01*
X155831829Y-106306891D01*
X155601297Y-106402145D01*
X155424765Y-106578369D01*
X155329109Y-106808735D01*
X155328953Y-106987594D01*
X155301000Y-106987594D01*
X155301000Y-106106000D01*
X155268497Y-105942594D01*
X155175935Y-105804065D01*
X155175932Y-105804063D01*
X155058980Y-105687111D01*
X155059109Y-105539829D01*
X155002159Y-105402000D01*
X165735000Y-105402000D01*
X165735000Y-110056047D01*
X165634000Y-110035594D01*
X165611000Y-110035594D01*
X165611000Y-109916000D01*
X165573003Y-109724980D01*
X165573126Y-109584025D01*
X165462680Y-109316725D01*
X165258350Y-109112039D01*
X164991244Y-109001126D01*
X164702025Y-109000874D01*
X164434725Y-109111320D01*
X164230039Y-109315650D01*
X164119126Y-109582756D01*
X164118888Y-109855863D01*
X164093698Y-109830673D01*
X163860309Y-109734000D01*
X163419750Y-109734000D01*
X163261000Y-109892750D01*
X163261000Y-110617000D01*
X163281000Y-110617000D01*
X163281000Y-110871000D01*
X163261000Y-110871000D01*
X163261000Y-111595250D01*
X163419750Y-111754000D01*
X163503385Y-111754000D01*
X163434862Y-111854286D01*
X163408594Y-111984000D01*
X163408594Y-112684000D01*
X163431395Y-112805179D01*
X163503012Y-112916474D01*
X163612286Y-112991138D01*
X163742000Y-113017406D01*
X164023794Y-113017406D01*
X163965109Y-113158735D01*
X163964891Y-113408171D01*
X164042000Y-113594789D01*
X164042000Y-114107000D01*
X164058594Y-114107000D01*
X164058594Y-114361000D01*
X164042000Y-114361000D01*
X164042000Y-115005560D01*
X163965109Y-115190735D01*
X163964891Y-115440171D01*
X164060145Y-115670703D01*
X164236369Y-115847235D01*
X164466735Y-115942891D01*
X164716171Y-115943109D01*
X164946703Y-115847855D01*
X165123235Y-115671631D01*
X165218891Y-115441265D01*
X165219021Y-115292849D01*
X165543932Y-114967937D01*
X165543935Y-114967935D01*
X165615375Y-114861018D01*
X165674474Y-114822988D01*
X165735000Y-114734406D01*
X165735000Y-117998000D01*
X122202000Y-117998000D01*
X122202000Y-114362541D01*
X122465860Y-115001132D01*
X122958276Y-115494408D01*
X123601977Y-115761695D01*
X124298965Y-115762304D01*
X124943132Y-115496140D01*
X125436408Y-115003724D01*
X125703695Y-114360023D01*
X125704304Y-113663035D01*
X125438140Y-113018868D01*
X124945724Y-112525592D01*
X124302023Y-112258305D01*
X123605035Y-112257696D01*
X122960868Y-112523860D01*
X122467592Y-113016276D01*
X122202000Y-113655895D01*
X122202000Y-112045750D01*
X129768000Y-112045750D01*
X129768000Y-112261310D01*
X129864673Y-112494699D01*
X130043302Y-112673327D01*
X130276691Y-112770000D01*
X130717250Y-112770000D01*
X130876000Y-112611250D01*
X130876000Y-111887000D01*
X129926750Y-111887000D01*
X129768000Y-112045750D01*
X122202000Y-112045750D01*
X122202000Y-109862541D01*
X122465860Y-110501132D01*
X122958276Y-110994408D01*
X123601977Y-111261695D01*
X124298965Y-111262304D01*
X124307711Y-111258690D01*
X129768000Y-111258690D01*
X129768000Y-111474250D01*
X129926750Y-111633000D01*
X130876000Y-111633000D01*
X130876000Y-110908750D01*
X130717250Y-110750000D01*
X130276691Y-110750000D01*
X130043302Y-110846673D01*
X129864673Y-111025301D01*
X129768000Y-111258690D01*
X124307711Y-111258690D01*
X124943132Y-110996140D01*
X125436408Y-110503724D01*
X125703695Y-109860023D01*
X125704304Y-109163035D01*
X125438140Y-108518868D01*
X124945724Y-108025592D01*
X124302023Y-107758305D01*
X123605035Y-107757696D01*
X122960868Y-108023860D01*
X122467592Y-108516276D01*
X122202000Y-109155895D01*
X122202000Y-105402000D01*
X135773414Y-105402000D01*
X135612765Y-105562369D01*
G36*
X176798000Y-117998000D02*
X166497000Y-117998000D01*
X166497000Y-114446277D01*
X169960830Y-114446277D01*
X170109864Y-114806966D01*
X170385583Y-115083166D01*
X170746011Y-115232829D01*
X171136277Y-115233170D01*
X171496966Y-115084136D01*
X171773166Y-114808417D01*
X171807451Y-114725849D01*
X171906001Y-114660001D01*
X173194001Y-113372001D01*
X173319078Y-113184808D01*
X173363000Y-112964000D01*
X173363000Y-111960406D01*
X173386000Y-111960406D01*
X173507179Y-111937605D01*
X173523095Y-111927363D01*
X173547673Y-111986699D01*
X173726302Y-112165327D01*
X173959691Y-112262000D01*
X174400250Y-112262000D01*
X174559000Y-112103250D01*
X174559000Y-111379000D01*
X174813000Y-111379000D01*
X174813000Y-112103250D01*
X174971750Y-112262000D01*
X175412309Y-112262000D01*
X175645698Y-112165327D01*
X175824327Y-111986699D01*
X175921000Y-111753310D01*
X175921000Y-111537750D01*
X175762250Y-111379000D01*
X174813000Y-111379000D01*
X174559000Y-111379000D01*
X174539000Y-111379000D01*
X174539000Y-111125000D01*
X174559000Y-111125000D01*
X174559000Y-110400750D01*
X174813000Y-110400750D01*
X174813000Y-111125000D01*
X175762250Y-111125000D01*
X175921000Y-110966250D01*
X175921000Y-110750690D01*
X175824327Y-110517301D01*
X175645698Y-110338673D01*
X175412309Y-110242000D01*
X174971750Y-110242000D01*
X174813000Y-110400750D01*
X174559000Y-110400750D01*
X174400250Y-110242000D01*
X173959691Y-110242000D01*
X173726302Y-110338673D01*
X173547673Y-110517301D01*
X173523654Y-110575287D01*
X173515714Y-110569862D01*
X173386000Y-110543594D01*
X173363000Y-110543594D01*
X173363000Y-107762005D01*
X173363001Y-107762000D01*
X173319078Y-107541192D01*
X173311391Y-107529688D01*
X173194001Y-107353999D01*
X173193998Y-107353997D01*
X172685078Y-106845076D01*
X172685126Y-106790025D01*
X172574680Y-106522725D01*
X172370350Y-106318039D01*
X172103244Y-106207126D01*
X171814025Y-106206874D01*
X171546725Y-106317320D01*
X171342039Y-106521650D01*
X171231126Y-106788756D01*
X171230953Y-106987690D01*
X171123879Y-106950393D01*
X170611931Y-106979870D01*
X170275862Y-107119074D01*
X170219688Y-107350083D01*
X170942000Y-108072395D01*
X170956143Y-108058253D01*
X171135748Y-108237858D01*
X171121605Y-108252000D01*
X171843917Y-108974312D01*
X172074926Y-108918138D01*
X172209000Y-108533231D01*
X172209000Y-110543594D01*
X172186000Y-110543594D01*
X172064821Y-110566395D01*
X171953526Y-110638012D01*
X171878862Y-110747286D01*
X171852594Y-110877000D01*
X171852594Y-111627000D01*
X171875395Y-111748179D01*
X171947012Y-111859474D01*
X172056286Y-111934138D01*
X172186000Y-111960406D01*
X172209000Y-111960406D01*
X172209000Y-112724998D01*
X171505784Y-113428214D01*
X171498417Y-113420834D01*
X171137989Y-113271171D01*
X170747723Y-113270830D01*
X170387034Y-113419864D01*
X170110834Y-113695583D01*
X169961171Y-114056011D01*
X169960830Y-114446277D01*
X166497000Y-114446277D01*
X166497000Y-111752000D01*
X168380594Y-111752000D01*
X168380594Y-112952000D01*
X168403395Y-113073179D01*
X168475012Y-113184474D01*
X168584286Y-113259138D01*
X168714000Y-113285406D01*
X169614000Y-113285406D01*
X169735179Y-113262605D01*
X169846474Y-113190988D01*
X169921138Y-113081714D01*
X169947406Y-112952000D01*
X169947406Y-112829000D01*
X170131860Y-112829000D01*
X170385583Y-113083166D01*
X170746011Y-113232829D01*
X171136277Y-113233170D01*
X171496966Y-113084136D01*
X171773166Y-112808417D01*
X171922829Y-112447989D01*
X171923170Y-112057723D01*
X171774136Y-111697034D01*
X171498417Y-111420834D01*
X171137989Y-111271171D01*
X170747723Y-111270830D01*
X170387034Y-111419864D01*
X170110834Y-111695583D01*
X170036333Y-111875000D01*
X169947406Y-111875000D01*
X169947406Y-111752000D01*
X169924605Y-111630821D01*
X169852988Y-111519526D01*
X169743714Y-111444862D01*
X169614000Y-111418594D01*
X168714000Y-111418594D01*
X168592821Y-111441395D01*
X168481526Y-111513012D01*
X168406862Y-111622286D01*
X168380594Y-111752000D01*
X166497000Y-111752000D01*
X166497000Y-109552000D01*
X168380594Y-109552000D01*
X168380594Y-110752000D01*
X168403395Y-110873179D01*
X168475012Y-110984474D01*
X168584286Y-111059138D01*
X168714000Y-111085406D01*
X169614000Y-111085406D01*
X169735179Y-111062605D01*
X169846474Y-110990988D01*
X169921138Y-110881714D01*
X169947406Y-110752000D01*
X169947406Y-110629000D01*
X170036330Y-110629000D01*
X170109864Y-110806966D01*
X170385583Y-111083166D01*
X170746011Y-111232829D01*
X171136277Y-111233170D01*
X171496966Y-111084136D01*
X171773166Y-110808417D01*
X171922829Y-110447989D01*
X171923170Y-110057723D01*
X171774136Y-109697034D01*
X171505154Y-109427583D01*
X171608138Y-109384926D01*
X171664312Y-109153917D01*
X170942000Y-108431605D01*
X170219688Y-109153917D01*
X170275862Y-109384926D01*
X170384222Y-109422671D01*
X170131453Y-109675000D01*
X169947406Y-109675000D01*
X169947406Y-109552000D01*
X169924605Y-109430821D01*
X169852988Y-109319526D01*
X169743714Y-109244862D01*
X169614000Y-109218594D01*
X168714000Y-109218594D01*
X168592821Y-109241395D01*
X168481526Y-109313012D01*
X168406862Y-109422286D01*
X168380594Y-109552000D01*
X166497000Y-109552000D01*
X166497000Y-108070121D01*
X169640393Y-108070121D01*
X169669870Y-108582069D01*
X169809074Y-108918138D01*
X170040083Y-108974312D01*
X170762395Y-108252000D01*
X170040083Y-107529688D01*
X169809074Y-107585862D01*
X169640393Y-108070121D01*
X166497000Y-108070121D01*
X166497000Y-105402000D01*
X176798000Y-105402000D01*
X176798000Y-117998000D01*
X176798000Y-117998000D01*
G37*
X176798000Y-117998000D02*
X166497000Y-117998000D01*
X166497000Y-114446277D01*
X169960830Y-114446277D01*
X170109864Y-114806966D01*
X170385583Y-115083166D01*
X170746011Y-115232829D01*
X171136277Y-115233170D01*
X171496966Y-115084136D01*
X171773166Y-114808417D01*
X171807451Y-114725849D01*
X171906001Y-114660001D01*
X173194001Y-113372001D01*
X173319078Y-113184808D01*
X173363000Y-112964000D01*
X173363000Y-111960406D01*
X173386000Y-111960406D01*
X173507179Y-111937605D01*
X173523095Y-111927363D01*
X173547673Y-111986699D01*
X173726302Y-112165327D01*
X173959691Y-112262000D01*
X174400250Y-112262000D01*
X174559000Y-112103250D01*
X174559000Y-111379000D01*
X174813000Y-111379000D01*
X174813000Y-112103250D01*
X174971750Y-112262000D01*
X175412309Y-112262000D01*
X175645698Y-112165327D01*
X175824327Y-111986699D01*
X175921000Y-111753310D01*
X175921000Y-111537750D01*
X175762250Y-111379000D01*
X174813000Y-111379000D01*
X174559000Y-111379000D01*
X174539000Y-111379000D01*
X174539000Y-111125000D01*
X174559000Y-111125000D01*
X174559000Y-110400750D01*
X174813000Y-110400750D01*
X174813000Y-111125000D01*
X175762250Y-111125000D01*
X175921000Y-110966250D01*
X175921000Y-110750690D01*
X175824327Y-110517301D01*
X175645698Y-110338673D01*
X175412309Y-110242000D01*
X174971750Y-110242000D01*
X174813000Y-110400750D01*
X174559000Y-110400750D01*
X174400250Y-110242000D01*
X173959691Y-110242000D01*
X173726302Y-110338673D01*
X173547673Y-110517301D01*
X173523654Y-110575287D01*
X173515714Y-110569862D01*
X173386000Y-110543594D01*
X173363000Y-110543594D01*
X173363000Y-107762005D01*
X173363001Y-107762000D01*
X173319078Y-107541192D01*
X173311391Y-107529688D01*
X173194001Y-107353999D01*
X173193998Y-107353997D01*
X172685078Y-106845076D01*
X172685126Y-106790025D01*
X172574680Y-106522725D01*
X172370350Y-106318039D01*
X172103244Y-106207126D01*
X171814025Y-106206874D01*
X171546725Y-106317320D01*
X171342039Y-106521650D01*
X171231126Y-106788756D01*
X171230953Y-106987690D01*
X171123879Y-106950393D01*
X170611931Y-106979870D01*
X170275862Y-107119074D01*
X170219688Y-107350083D01*
X170942000Y-108072395D01*
X170956143Y-108058253D01*
X171135748Y-108237858D01*
X171121605Y-108252000D01*
X171843917Y-108974312D01*
X172074926Y-108918138D01*
X172209000Y-108533231D01*
X172209000Y-110543594D01*
X172186000Y-110543594D01*
X172064821Y-110566395D01*
X171953526Y-110638012D01*
X171878862Y-110747286D01*
X171852594Y-110877000D01*
X171852594Y-111627000D01*
X171875395Y-111748179D01*
X171947012Y-111859474D01*
X172056286Y-111934138D01*
X172186000Y-111960406D01*
X172209000Y-111960406D01*
X172209000Y-112724998D01*
X171505784Y-113428214D01*
X171498417Y-113420834D01*
X171137989Y-113271171D01*
X170747723Y-113270830D01*
X170387034Y-113419864D01*
X170110834Y-113695583D01*
X169961171Y-114056011D01*
X169960830Y-114446277D01*
X166497000Y-114446277D01*
X166497000Y-111752000D01*
X168380594Y-111752000D01*
X168380594Y-112952000D01*
X168403395Y-113073179D01*
X168475012Y-113184474D01*
X168584286Y-113259138D01*
X168714000Y-113285406D01*
X169614000Y-113285406D01*
X169735179Y-113262605D01*
X169846474Y-113190988D01*
X169921138Y-113081714D01*
X169947406Y-112952000D01*
X169947406Y-112829000D01*
X170131860Y-112829000D01*
X170385583Y-113083166D01*
X170746011Y-113232829D01*
X171136277Y-113233170D01*
X171496966Y-113084136D01*
X171773166Y-112808417D01*
X171922829Y-112447989D01*
X171923170Y-112057723D01*
X171774136Y-111697034D01*
X171498417Y-111420834D01*
X171137989Y-111271171D01*
X170747723Y-111270830D01*
X170387034Y-111419864D01*
X170110834Y-111695583D01*
X170036333Y-111875000D01*
X169947406Y-111875000D01*
X169947406Y-111752000D01*
X169924605Y-111630821D01*
X169852988Y-111519526D01*
X169743714Y-111444862D01*
X169614000Y-111418594D01*
X168714000Y-111418594D01*
X168592821Y-111441395D01*
X168481526Y-111513012D01*
X168406862Y-111622286D01*
X168380594Y-111752000D01*
X166497000Y-111752000D01*
X166497000Y-109552000D01*
X168380594Y-109552000D01*
X168380594Y-110752000D01*
X168403395Y-110873179D01*
X168475012Y-110984474D01*
X168584286Y-111059138D01*
X168714000Y-111085406D01*
X169614000Y-111085406D01*
X169735179Y-111062605D01*
X169846474Y-110990988D01*
X169921138Y-110881714D01*
X169947406Y-110752000D01*
X169947406Y-110629000D01*
X170036330Y-110629000D01*
X170109864Y-110806966D01*
X170385583Y-111083166D01*
X170746011Y-111232829D01*
X171136277Y-111233170D01*
X171496966Y-111084136D01*
X171773166Y-110808417D01*
X171922829Y-110447989D01*
X171923170Y-110057723D01*
X171774136Y-109697034D01*
X171505154Y-109427583D01*
X171608138Y-109384926D01*
X171664312Y-109153917D01*
X170942000Y-108431605D01*
X170219688Y-109153917D01*
X170275862Y-109384926D01*
X170384222Y-109422671D01*
X170131453Y-109675000D01*
X169947406Y-109675000D01*
X169947406Y-109552000D01*
X169924605Y-109430821D01*
X169852988Y-109319526D01*
X169743714Y-109244862D01*
X169614000Y-109218594D01*
X168714000Y-109218594D01*
X168592821Y-109241395D01*
X168481526Y-109313012D01*
X168406862Y-109422286D01*
X168380594Y-109552000D01*
X166497000Y-109552000D01*
X166497000Y-108070121D01*
X169640393Y-108070121D01*
X169669870Y-108582069D01*
X169809074Y-108918138D01*
X170040083Y-108974312D01*
X170762395Y-108252000D01*
X170040083Y-107529688D01*
X169809074Y-107585862D01*
X169640393Y-108070121D01*
X166497000Y-108070121D01*
X166497000Y-105402000D01*
X176798000Y-105402000D01*
X176798000Y-117998000D01*
M02*
