%TF.GenerationSoftware,KiCad,Pcbnew,4.0.7*%
%TF.CreationDate,2017-12-11T19:35:04+01:00*%
%TF.ProjectId,usb2rs485,7573623272733438352E6B696361645F,1*%
%TF.FileFunction,Soldermask,Bot*%
%FSLAX46Y46*%
G04 Gerber Fmt 4.6, Leading zero omitted, Abs format (unit mm)*
G04 Created by KiCad (PCBNEW 4.0.7) date Mon Dec 11 19:35:04 2017*
%MOMM*%
%LPD*%
G01*
G04 APERTURE LIST*
%ADD10C,0.100000*%
%ADD11R,1.600000X1.150000*%
%ADD12R,1.600000X1.300000*%
%ADD13C,3.250000*%
%ADD14C,1.708000*%
%ADD15R,0.800000X1.100000*%
%ADD16C,1.900000*%
%ADD17R,1.300000X1.600000*%
G04 APERTURE END LIST*
D10*
D11*
X143317000Y-111506000D03*
X141417000Y-111506000D03*
X147000000Y-114554000D03*
X145100000Y-114554000D03*
X132903000Y-111760000D03*
X131003000Y-111760000D03*
X145857000Y-109220000D03*
X143957000Y-109220000D03*
X147767000Y-109220000D03*
X149667000Y-109220000D03*
X154874000Y-107696000D03*
X152974000Y-107696000D03*
X154874000Y-112522000D03*
X152974000Y-112522000D03*
X161102000Y-107442000D03*
X163002000Y-107442000D03*
D12*
X145712000Y-110744000D03*
X147912000Y-110744000D03*
X135044000Y-106680000D03*
X137244000Y-106680000D03*
X135044000Y-108458000D03*
X137244000Y-108458000D03*
D13*
X123952000Y-114010000D03*
X123952000Y-109510000D03*
D14*
X170942000Y-114252000D03*
X170942000Y-112252000D03*
X170942000Y-110252000D03*
X170942000Y-108252000D03*
D15*
X165242000Y-114234000D03*
X164592000Y-114234000D03*
X163942000Y-114234000D03*
X163942000Y-112334000D03*
X165242000Y-112334000D03*
D16*
X154686000Y-109220000D03*
X154686000Y-114100000D03*
D11*
X165034000Y-110744000D03*
X163134000Y-110744000D03*
X172786000Y-111252000D03*
X174686000Y-111252000D03*
D17*
X169164000Y-112352000D03*
X169164000Y-110152000D03*
M02*
