G75*
G70*
%OFA0B0*%
%FSLAX25Y25*%
%IPPOS*%
%LPD*%
%AMOC8*
5,1,8,0,0,1.08239X$1,22.5*
%
%ADD19C,0.00550*%
X0000000Y0000000D02*
G75*
G01*
%LPD*%
X0000000Y0236220D02*
D19*
X0334650Y0236220D01*
X0334650Y0000000D01*
X0000000Y0000000D01*
X0000000Y0236220D01*
X0000000Y0246220D02*
G75*
G01*
%LPD*%
X0000000Y0482440D02*
D19*
X0334650Y0482440D01*
X0334650Y0246220D01*
X0000000Y0246220D01*
X0000000Y0482440D01*
X0344650Y0000000D02*
G75*
G01*
%LPD*%
X0344650Y0236220D02*
D19*
X0679300Y0236220D01*
X0679300Y0000000D01*
X0344650Y0000000D01*
X0344650Y0236220D01*
X0689300Y0000000D02*
G75*
G01*
%LPD*%
X0689300Y0177170D02*
D19*
X0866470Y0177170D01*
X0866470Y0000000D01*
X0689300Y0000000D01*
X0689300Y0177170D01*
X0000000Y0492440D02*
G75*
G01*
%LPD*%
X0000000Y0728660D02*
D19*
X0334650Y0728660D01*
X0334650Y0492440D01*
X0000000Y0492440D01*
X0000000Y0728660D01*
X0344650Y0246220D02*
G75*
G01*
%LPD*%
X0344650Y0482440D02*
D19*
X0679300Y0482440D01*
X0679300Y0246220D01*
X0344650Y0246220D01*
X0344650Y0482440D01*
X0000000Y0738660D02*
G75*
G01*
%LPD*%
X0000000Y0974880D02*
D19*
X0334650Y0974880D01*
X0334650Y0738660D01*
X0000000Y0738660D01*
X0000000Y0974880D01*
X0344650Y0492440D02*
G75*
G01*
%LPD*%
X0344650Y0728660D02*
D19*
X0679300Y0728660D01*
X0679300Y0492440D01*
X0344650Y0492440D01*
X0344650Y0728660D01*
X0689300Y0187170D02*
G75*
G01*
%LPD*%
X0689300Y0364340D02*
D19*
X0866470Y0364340D01*
X0866470Y0187170D01*
X0689300Y0187170D01*
X0689300Y0364340D01*
X0344650Y0738660D02*
G75*
G01*
%LPD*%
X0344650Y0974880D02*
D19*
X0679300Y0974880D01*
X0679300Y0738660D01*
X0344650Y0738660D01*
X0344650Y0974880D01*
X0689300Y0374340D02*
G75*
G01*
%LPD*%
X0689300Y0551510D02*
D19*
X0866470Y0551510D01*
X0866470Y0374340D01*
X0689300Y0374340D01*
X0689300Y0551510D01*
X0689300Y0561510D02*
G75*
G01*
%LPD*%
X0689300Y0738680D02*
D19*
X0866470Y0738680D01*
X0866470Y0561510D01*
X0689300Y0561510D01*
X0689300Y0738680D01*
X0000000Y0984880D02*
G75*
G01*
%LPD*%
X0000000Y1221100D02*
D19*
X0334650Y1221100D01*
X0334650Y0984880D01*
X0000000Y0984880D01*
X0000000Y1221100D01*
X0344650Y0984880D02*
G75*
G01*
%LPD*%
X0344650Y1221100D02*
D19*
X0679300Y1221100D01*
X0679300Y0984880D01*
X0344650Y0984880D01*
X0344650Y1221100D01*
X0689300Y0748680D02*
G75*
G01*
%LPD*%
X0689300Y0925850D02*
D19*
X0866470Y0925850D01*
X0866470Y0748680D01*
X0689300Y0748680D01*
X0689300Y0925850D01*
X0689300Y0935850D02*
G75*
G01*
%LPD*%
X0689300Y1113020D02*
D19*
X0866470Y1113020D01*
X0866470Y0935850D01*
X0689300Y0935850D01*
X0689300Y1113020D01*
M02*
