G75*
G70*
%OFA0B0*%
%FSLAX25Y25*%
%IPPOS*%
%LPD*%
%AMOC8*
5,1,8,0,0,1.08239X$1,22.5*
%
%ADD10R,0.06930X0.06930*%
%ADD13C,0.02520*%
%ADD14C,0.02360*%
%ADD24R,0.07240X0.07240*%
%ADD30C,0.06850*%
%ADD34R,0.08030X0.08030*%
%ADD41C,0.07240*%
%ADD44C,0.06930*%
%ADD45C,0.08030*%
%ADD47R,0.06850X0.06850*%
%ADD54C,0.09290*%
%ADD61C,0.12520*%
%ADD69R,0.04490X0.04490*%
%ADD72C,0.04880*%
%ADD76C,0.13150*%
X0000000Y0000000D02*
G75*
G01*
%LPD*%
D34*
X0041340Y0010900D03*
D45*
X0041340Y0226890D03*
D61*
X0041340Y0050900D03*
X0041340Y0186890D03*
D54*
X0011930Y0010900D03*
D10*
X0088590Y0093540D03*
D44*
X0088590Y0103540D03*
X0088590Y0113540D03*
X0088590Y0123540D03*
X0088590Y0133540D03*
X0088590Y0143540D03*
X0088590Y0153540D03*
X0088590Y0163540D03*
X0088590Y0173540D03*
X0088590Y0183540D03*
X0088590Y0193540D03*
X0088590Y0203540D03*
D10*
X0246070Y0093540D03*
D44*
X0246070Y0103540D03*
X0246070Y0113540D03*
X0246070Y0123540D03*
X0246070Y0133540D03*
X0246070Y0143540D03*
X0246070Y0153540D03*
X0246070Y0163540D03*
X0246070Y0173540D03*
X0246070Y0183540D03*
X0246070Y0193540D03*
X0246070Y0203540D03*
D13*
X0183030Y0122700D03*
X0183030Y0118770D03*
X0188940Y0122700D03*
X0185990Y0120740D03*
X0188940Y0118770D03*
D14*
X0206700Y0016810D03*
X0206700Y0006180D03*
X0127960Y0016620D03*
X0127960Y0005990D03*
D34*
X0293310Y0010900D03*
D45*
X0293310Y0226890D03*
D61*
X0293310Y0050900D03*
X0293310Y0186890D03*
D54*
X0263900Y0010900D03*
X0000000Y0246220D02*
G75*
G01*
%LPD*%
D34*
X0041340Y0257120D03*
D45*
X0041340Y0473110D03*
D61*
X0041340Y0297120D03*
X0041340Y0433110D03*
D54*
X0011930Y0257120D03*
D10*
X0088590Y0339760D03*
D44*
X0088590Y0349760D03*
X0088590Y0359760D03*
X0088590Y0369760D03*
X0088590Y0379760D03*
X0088590Y0389760D03*
X0088590Y0399760D03*
X0088590Y0409760D03*
X0088590Y0419760D03*
X0088590Y0429760D03*
X0088590Y0439760D03*
X0088590Y0449760D03*
D10*
X0246070Y0339760D03*
D44*
X0246070Y0349760D03*
X0246070Y0359760D03*
X0246070Y0369760D03*
X0246070Y0379760D03*
X0246070Y0389760D03*
X0246070Y0399760D03*
X0246070Y0409760D03*
X0246070Y0419760D03*
X0246070Y0429760D03*
X0246070Y0439760D03*
X0246070Y0449760D03*
D13*
X0183030Y0368920D03*
X0183030Y0364990D03*
X0188940Y0368920D03*
X0185990Y0366960D03*
X0188940Y0364990D03*
D14*
X0206700Y0263030D03*
X0206700Y0252400D03*
X0127960Y0262840D03*
X0127960Y0252210D03*
D34*
X0293310Y0257120D03*
D45*
X0293310Y0473110D03*
D61*
X0293310Y0297120D03*
X0293310Y0433110D03*
D54*
X0263900Y0257120D03*
X0344650Y0000000D02*
G75*
G01*
%LPD*%
D34*
X0385990Y0010900D03*
D45*
X0385990Y0226890D03*
D61*
X0385990Y0050900D03*
X0385990Y0186890D03*
D54*
X0356580Y0010900D03*
D10*
X0433240Y0093540D03*
D44*
X0433240Y0103540D03*
X0433240Y0113540D03*
X0433240Y0123540D03*
X0433240Y0133540D03*
X0433240Y0143540D03*
X0433240Y0153540D03*
X0433240Y0163540D03*
X0433240Y0173540D03*
X0433240Y0183540D03*
X0433240Y0193540D03*
X0433240Y0203540D03*
D10*
X0590720Y0093540D03*
D44*
X0590720Y0103540D03*
X0590720Y0113540D03*
X0590720Y0123540D03*
X0590720Y0133540D03*
X0590720Y0143540D03*
X0590720Y0153540D03*
X0590720Y0163540D03*
X0590720Y0173540D03*
X0590720Y0183540D03*
X0590720Y0193540D03*
X0590720Y0203540D03*
D13*
X0527680Y0122700D03*
X0527680Y0118770D03*
X0533590Y0122700D03*
X0530640Y0120740D03*
X0533590Y0118770D03*
D14*
X0551350Y0016810D03*
X0551350Y0006180D03*
X0472610Y0016620D03*
X0472610Y0005990D03*
D34*
X0637960Y0010900D03*
D45*
X0637960Y0226890D03*
D61*
X0637960Y0050900D03*
X0637960Y0186890D03*
D54*
X0608550Y0010900D03*
X0689300Y0000000D02*
G75*
G01*
%LPD*%
D10*
X0699140Y0034490D03*
D44*
X0699140Y0044490D03*
X0699140Y0054490D03*
X0699140Y0064490D03*
X0699140Y0074490D03*
X0699140Y0084490D03*
X0699140Y0094490D03*
X0699140Y0104490D03*
X0699140Y0114490D03*
X0699140Y0124490D03*
X0699140Y0134490D03*
X0699140Y0144490D03*
D10*
X0856620Y0034490D03*
D44*
X0856620Y0044490D03*
X0856620Y0054490D03*
X0856620Y0064490D03*
X0856620Y0074490D03*
X0856620Y0084490D03*
X0856620Y0094490D03*
X0856620Y0104490D03*
X0856620Y0114490D03*
X0856620Y0124490D03*
X0856620Y0134490D03*
X0856620Y0144490D03*
D47*
X0799100Y0031620D03*
D30*
X0808950Y0031620D03*
X0816820Y0031620D03*
X0826660Y0031620D03*
D76*
X0787020Y0020990D03*
X0838750Y0020990D03*
D24*
X0700380Y0011240D03*
D41*
X0710380Y0011240D03*
X0720380Y0011240D03*
X0730380Y0011240D03*
X0740380Y0011240D03*
X0750380Y0011240D03*
X0760380Y0011240D03*
D69*
X0821780Y0096240D03*
D72*
X0821780Y0101240D03*
X0821780Y0106240D03*
X0821780Y0111240D03*
X0821780Y0116240D03*
X0821780Y0121240D03*
X0821780Y0126240D03*
X0821780Y0131240D03*
X0821780Y0136240D03*
X0821780Y0141240D03*
X0821780Y0146240D03*
X0821780Y0151240D03*
X0821780Y0156240D03*
X0821780Y0161240D03*
X0821780Y0166240D03*
X0816780Y0096240D03*
X0816780Y0101240D03*
X0816780Y0106240D03*
X0816780Y0111240D03*
X0816780Y0116240D03*
X0816780Y0121240D03*
X0816780Y0126240D03*
X0816780Y0131240D03*
X0816780Y0136240D03*
X0816780Y0141240D03*
X0816780Y0146240D03*
X0816780Y0151240D03*
X0816780Y0156240D03*
X0816780Y0161240D03*
X0816780Y0166240D03*
X0738990Y0121320D03*
X0738990Y0126320D03*
X0738990Y0131320D03*
X0738990Y0136320D03*
X0738990Y0141320D03*
X0738990Y0146320D03*
X0738990Y0151320D03*
X0738990Y0156320D03*
X0738990Y0161320D03*
X0738990Y0166320D03*
X0733990Y0121320D03*
X0733990Y0126320D03*
X0733990Y0131320D03*
X0733990Y0136320D03*
X0733990Y0141320D03*
X0733990Y0146320D03*
X0733990Y0151320D03*
X0733990Y0156320D03*
X0733990Y0161320D03*
D69*
X0733990Y0166320D03*
X0000000Y0492440D02*
G75*
G01*
%LPD*%
D34*
X0041340Y0503340D03*
D45*
X0041340Y0719330D03*
D61*
X0041340Y0543340D03*
X0041340Y0679330D03*
D54*
X0011930Y0503340D03*
D10*
X0088590Y0585980D03*
D44*
X0088590Y0595980D03*
X0088590Y0605980D03*
X0088590Y0615980D03*
X0088590Y0625980D03*
X0088590Y0635980D03*
X0088590Y0645980D03*
X0088590Y0655980D03*
X0088590Y0665980D03*
X0088590Y0675980D03*
X0088590Y0685980D03*
X0088590Y0695980D03*
D10*
X0246070Y0585980D03*
D44*
X0246070Y0595980D03*
X0246070Y0605980D03*
X0246070Y0615980D03*
X0246070Y0625980D03*
X0246070Y0635980D03*
X0246070Y0645980D03*
X0246070Y0655980D03*
X0246070Y0665980D03*
X0246070Y0675980D03*
X0246070Y0685980D03*
X0246070Y0695980D03*
D13*
X0183030Y0615140D03*
X0183030Y0611210D03*
X0188940Y0615140D03*
X0185990Y0613180D03*
X0188940Y0611210D03*
D14*
X0206700Y0509250D03*
X0206700Y0498620D03*
X0127960Y0509060D03*
X0127960Y0498430D03*
D34*
X0293310Y0503340D03*
D45*
X0293310Y0719330D03*
D61*
X0293310Y0543340D03*
X0293310Y0679330D03*
D54*
X0263900Y0503340D03*
X0344650Y0246220D02*
G75*
G01*
%LPD*%
D34*
X0385990Y0257120D03*
D45*
X0385990Y0473110D03*
D61*
X0385990Y0297120D03*
X0385990Y0433110D03*
D54*
X0356580Y0257120D03*
D10*
X0433240Y0339760D03*
D44*
X0433240Y0349760D03*
X0433240Y0359760D03*
X0433240Y0369760D03*
X0433240Y0379760D03*
X0433240Y0389760D03*
X0433240Y0399760D03*
X0433240Y0409760D03*
X0433240Y0419760D03*
X0433240Y0429760D03*
X0433240Y0439760D03*
X0433240Y0449760D03*
D10*
X0590720Y0339760D03*
D44*
X0590720Y0349760D03*
X0590720Y0359760D03*
X0590720Y0369760D03*
X0590720Y0379760D03*
X0590720Y0389760D03*
X0590720Y0399760D03*
X0590720Y0409760D03*
X0590720Y0419760D03*
X0590720Y0429760D03*
X0590720Y0439760D03*
X0590720Y0449760D03*
D13*
X0527680Y0368920D03*
X0527680Y0364990D03*
X0533590Y0368920D03*
X0530640Y0366960D03*
X0533590Y0364990D03*
D14*
X0551350Y0263030D03*
X0551350Y0252400D03*
X0472610Y0262840D03*
X0472610Y0252210D03*
D34*
X0637960Y0257120D03*
D45*
X0637960Y0473110D03*
D61*
X0637960Y0297120D03*
X0637960Y0433110D03*
D54*
X0608550Y0257120D03*
X0000000Y0738660D02*
G75*
G01*
%LPD*%
D34*
X0041340Y0749560D03*
D45*
X0041340Y0965550D03*
D61*
X0041340Y0789560D03*
X0041340Y0925550D03*
D54*
X0011930Y0749560D03*
D10*
X0088590Y0832200D03*
D44*
X0088590Y0842200D03*
X0088590Y0852200D03*
X0088590Y0862200D03*
X0088590Y0872200D03*
X0088590Y0882200D03*
X0088590Y0892200D03*
X0088590Y0902200D03*
X0088590Y0912200D03*
X0088590Y0922200D03*
X0088590Y0932200D03*
X0088590Y0942200D03*
D10*
X0246070Y0832200D03*
D44*
X0246070Y0842200D03*
X0246070Y0852200D03*
X0246070Y0862200D03*
X0246070Y0872200D03*
X0246070Y0882200D03*
X0246070Y0892200D03*
X0246070Y0902200D03*
X0246070Y0912200D03*
X0246070Y0922200D03*
X0246070Y0932200D03*
X0246070Y0942200D03*
D13*
X0183030Y0861360D03*
X0183030Y0857430D03*
X0188940Y0861360D03*
X0185990Y0859400D03*
X0188940Y0857430D03*
D14*
X0206700Y0755470D03*
X0206700Y0744840D03*
X0127960Y0755280D03*
X0127960Y0744650D03*
D34*
X0293310Y0749560D03*
D45*
X0293310Y0965550D03*
D61*
X0293310Y0789560D03*
X0293310Y0925550D03*
D54*
X0263900Y0749560D03*
X0344650Y0492440D02*
G75*
G01*
%LPD*%
D34*
X0385990Y0503340D03*
D45*
X0385990Y0719330D03*
D61*
X0385990Y0543340D03*
X0385990Y0679330D03*
D54*
X0356580Y0503340D03*
D10*
X0433240Y0585980D03*
D44*
X0433240Y0595980D03*
X0433240Y0605980D03*
X0433240Y0615980D03*
X0433240Y0625980D03*
X0433240Y0635980D03*
X0433240Y0645980D03*
X0433240Y0655980D03*
X0433240Y0665980D03*
X0433240Y0675980D03*
X0433240Y0685980D03*
X0433240Y0695980D03*
D10*
X0590720Y0585980D03*
D44*
X0590720Y0595980D03*
X0590720Y0605980D03*
X0590720Y0615980D03*
X0590720Y0625980D03*
X0590720Y0635980D03*
X0590720Y0645980D03*
X0590720Y0655980D03*
X0590720Y0665980D03*
X0590720Y0675980D03*
X0590720Y0685980D03*
X0590720Y0695980D03*
D13*
X0527680Y0615140D03*
X0527680Y0611210D03*
X0533590Y0615140D03*
X0530640Y0613180D03*
X0533590Y0611210D03*
D14*
X0551350Y0509250D03*
X0551350Y0498620D03*
X0472610Y0509060D03*
X0472610Y0498430D03*
D34*
X0637960Y0503340D03*
D45*
X0637960Y0719330D03*
D61*
X0637960Y0543340D03*
X0637960Y0679330D03*
D54*
X0608550Y0503340D03*
X0689300Y0187170D02*
G75*
G01*
%LPD*%
D10*
X0699140Y0221660D03*
D44*
X0699140Y0231660D03*
X0699140Y0241660D03*
X0699140Y0251660D03*
X0699140Y0261660D03*
X0699140Y0271660D03*
X0699140Y0281660D03*
X0699140Y0291660D03*
X0699140Y0301660D03*
X0699140Y0311660D03*
X0699140Y0321660D03*
X0699140Y0331660D03*
D10*
X0856620Y0221660D03*
D44*
X0856620Y0231660D03*
X0856620Y0241660D03*
X0856620Y0251660D03*
X0856620Y0261660D03*
X0856620Y0271660D03*
X0856620Y0281660D03*
X0856620Y0291660D03*
X0856620Y0301660D03*
X0856620Y0311660D03*
X0856620Y0321660D03*
X0856620Y0331660D03*
D47*
X0799100Y0218790D03*
D30*
X0808950Y0218790D03*
X0816820Y0218790D03*
X0826660Y0218790D03*
D76*
X0787020Y0208160D03*
X0838750Y0208160D03*
D24*
X0700380Y0198410D03*
D41*
X0710380Y0198410D03*
X0720380Y0198410D03*
X0730380Y0198410D03*
X0740380Y0198410D03*
X0750380Y0198410D03*
X0760380Y0198410D03*
D69*
X0821780Y0283410D03*
D72*
X0821780Y0288410D03*
X0821780Y0293410D03*
X0821780Y0298410D03*
X0821780Y0303410D03*
X0821780Y0308410D03*
X0821780Y0313410D03*
X0821780Y0318410D03*
X0821780Y0323410D03*
X0821780Y0328410D03*
X0821780Y0333410D03*
X0821780Y0338410D03*
X0821780Y0343410D03*
X0821780Y0348410D03*
X0821780Y0353410D03*
X0816780Y0283410D03*
X0816780Y0288410D03*
X0816780Y0293410D03*
X0816780Y0298410D03*
X0816780Y0303410D03*
X0816780Y0308410D03*
X0816780Y0313410D03*
X0816780Y0318410D03*
X0816780Y0323410D03*
X0816780Y0328410D03*
X0816780Y0333410D03*
X0816780Y0338410D03*
X0816780Y0343410D03*
X0816780Y0348410D03*
X0816780Y0353410D03*
X0738990Y0308490D03*
X0738990Y0313490D03*
X0738990Y0318490D03*
X0738990Y0323490D03*
X0738990Y0328490D03*
X0738990Y0333490D03*
X0738990Y0338490D03*
X0738990Y0343490D03*
X0738990Y0348490D03*
X0738990Y0353490D03*
X0733990Y0308490D03*
X0733990Y0313490D03*
X0733990Y0318490D03*
X0733990Y0323490D03*
X0733990Y0328490D03*
X0733990Y0333490D03*
X0733990Y0338490D03*
X0733990Y0343490D03*
X0733990Y0348490D03*
D69*
X0733990Y0353490D03*
X0344650Y0738660D02*
G75*
G01*
%LPD*%
D34*
X0385990Y0749560D03*
D45*
X0385990Y0965550D03*
D61*
X0385990Y0789560D03*
X0385990Y0925550D03*
D54*
X0356580Y0749560D03*
D10*
X0433240Y0832200D03*
D44*
X0433240Y0842200D03*
X0433240Y0852200D03*
X0433240Y0862200D03*
X0433240Y0872200D03*
X0433240Y0882200D03*
X0433240Y0892200D03*
X0433240Y0902200D03*
X0433240Y0912200D03*
X0433240Y0922200D03*
X0433240Y0932200D03*
X0433240Y0942200D03*
D10*
X0590720Y0832200D03*
D44*
X0590720Y0842200D03*
X0590720Y0852200D03*
X0590720Y0862200D03*
X0590720Y0872200D03*
X0590720Y0882200D03*
X0590720Y0892200D03*
X0590720Y0902200D03*
X0590720Y0912200D03*
X0590720Y0922200D03*
X0590720Y0932200D03*
X0590720Y0942200D03*
D13*
X0527680Y0861360D03*
X0527680Y0857430D03*
X0533590Y0861360D03*
X0530640Y0859400D03*
X0533590Y0857430D03*
D14*
X0551350Y0755470D03*
X0551350Y0744840D03*
X0472610Y0755280D03*
X0472610Y0744650D03*
D34*
X0637960Y0749560D03*
D45*
X0637960Y0965550D03*
D61*
X0637960Y0789560D03*
X0637960Y0925550D03*
D54*
X0608550Y0749560D03*
X0689300Y0374340D02*
G75*
G01*
%LPD*%
D10*
X0699140Y0408830D03*
D44*
X0699140Y0418830D03*
X0699140Y0428830D03*
X0699140Y0438830D03*
X0699140Y0448830D03*
X0699140Y0458830D03*
X0699140Y0468830D03*
X0699140Y0478830D03*
X0699140Y0488830D03*
X0699140Y0498830D03*
X0699140Y0508830D03*
X0699140Y0518830D03*
D10*
X0856620Y0408830D03*
D44*
X0856620Y0418830D03*
X0856620Y0428830D03*
X0856620Y0438830D03*
X0856620Y0448830D03*
X0856620Y0458830D03*
X0856620Y0468830D03*
X0856620Y0478830D03*
X0856620Y0488830D03*
X0856620Y0498830D03*
X0856620Y0508830D03*
X0856620Y0518830D03*
D47*
X0799100Y0405960D03*
D30*
X0808950Y0405960D03*
X0816820Y0405960D03*
X0826660Y0405960D03*
D76*
X0787020Y0395330D03*
X0838750Y0395330D03*
D24*
X0700380Y0385580D03*
D41*
X0710380Y0385580D03*
X0720380Y0385580D03*
X0730380Y0385580D03*
X0740380Y0385580D03*
X0750380Y0385580D03*
X0760380Y0385580D03*
D69*
X0821780Y0470580D03*
D72*
X0821780Y0475580D03*
X0821780Y0480580D03*
X0821780Y0485580D03*
X0821780Y0490580D03*
X0821780Y0495580D03*
X0821780Y0500580D03*
X0821780Y0505580D03*
X0821780Y0510580D03*
X0821780Y0515580D03*
X0821780Y0520580D03*
X0821780Y0525580D03*
X0821780Y0530580D03*
X0821780Y0535580D03*
X0821780Y0540580D03*
X0816780Y0470580D03*
X0816780Y0475580D03*
X0816780Y0480580D03*
X0816780Y0485580D03*
X0816780Y0490580D03*
X0816780Y0495580D03*
X0816780Y0500580D03*
X0816780Y0505580D03*
X0816780Y0510580D03*
X0816780Y0515580D03*
X0816780Y0520580D03*
X0816780Y0525580D03*
X0816780Y0530580D03*
X0816780Y0535580D03*
X0816780Y0540580D03*
X0738990Y0495660D03*
X0738990Y0500660D03*
X0738990Y0505660D03*
X0738990Y0510660D03*
X0738990Y0515660D03*
X0738990Y0520660D03*
X0738990Y0525660D03*
X0738990Y0530660D03*
X0738990Y0535660D03*
X0738990Y0540660D03*
X0733990Y0495660D03*
X0733990Y0500660D03*
X0733990Y0505660D03*
X0733990Y0510660D03*
X0733990Y0515660D03*
X0733990Y0520660D03*
X0733990Y0525660D03*
X0733990Y0530660D03*
X0733990Y0535660D03*
D69*
X0733990Y0540660D03*
X0689300Y0561510D02*
G75*
G01*
%LPD*%
D10*
X0699140Y0596000D03*
D44*
X0699140Y0606000D03*
X0699140Y0616000D03*
X0699140Y0626000D03*
X0699140Y0636000D03*
X0699140Y0646000D03*
X0699140Y0656000D03*
X0699140Y0666000D03*
X0699140Y0676000D03*
X0699140Y0686000D03*
X0699140Y0696000D03*
X0699140Y0706000D03*
D10*
X0856620Y0596000D03*
D44*
X0856620Y0606000D03*
X0856620Y0616000D03*
X0856620Y0626000D03*
X0856620Y0636000D03*
X0856620Y0646000D03*
X0856620Y0656000D03*
X0856620Y0666000D03*
X0856620Y0676000D03*
X0856620Y0686000D03*
X0856620Y0696000D03*
X0856620Y0706000D03*
D47*
X0799100Y0593130D03*
D30*
X0808950Y0593130D03*
X0816820Y0593130D03*
X0826660Y0593130D03*
D76*
X0787020Y0582500D03*
X0838750Y0582500D03*
D24*
X0700380Y0572750D03*
D41*
X0710380Y0572750D03*
X0720380Y0572750D03*
X0730380Y0572750D03*
X0740380Y0572750D03*
X0750380Y0572750D03*
X0760380Y0572750D03*
D69*
X0821780Y0657750D03*
D72*
X0821780Y0662750D03*
X0821780Y0667750D03*
X0821780Y0672750D03*
X0821780Y0677750D03*
X0821780Y0682750D03*
X0821780Y0687750D03*
X0821780Y0692750D03*
X0821780Y0697750D03*
X0821780Y0702750D03*
X0821780Y0707750D03*
X0821780Y0712750D03*
X0821780Y0717750D03*
X0821780Y0722750D03*
X0821780Y0727750D03*
X0816780Y0657750D03*
X0816780Y0662750D03*
X0816780Y0667750D03*
X0816780Y0672750D03*
X0816780Y0677750D03*
X0816780Y0682750D03*
X0816780Y0687750D03*
X0816780Y0692750D03*
X0816780Y0697750D03*
X0816780Y0702750D03*
X0816780Y0707750D03*
X0816780Y0712750D03*
X0816780Y0717750D03*
X0816780Y0722750D03*
X0816780Y0727750D03*
X0738990Y0682830D03*
X0738990Y0687830D03*
X0738990Y0692830D03*
X0738990Y0697830D03*
X0738990Y0702830D03*
X0738990Y0707830D03*
X0738990Y0712830D03*
X0738990Y0717830D03*
X0738990Y0722830D03*
X0738990Y0727830D03*
X0733990Y0682830D03*
X0733990Y0687830D03*
X0733990Y0692830D03*
X0733990Y0697830D03*
X0733990Y0702830D03*
X0733990Y0707830D03*
X0733990Y0712830D03*
X0733990Y0717830D03*
X0733990Y0722830D03*
D69*
X0733990Y0727830D03*
X0000000Y0984880D02*
G75*
G01*
%LPD*%
D34*
X0041340Y0995780D03*
D45*
X0041340Y1211770D03*
D61*
X0041340Y1035780D03*
X0041340Y1171770D03*
D54*
X0011930Y0995780D03*
D10*
X0088590Y1078420D03*
D44*
X0088590Y1088420D03*
X0088590Y1098420D03*
X0088590Y1108420D03*
X0088590Y1118420D03*
X0088590Y1128420D03*
X0088590Y1138420D03*
X0088590Y1148420D03*
X0088590Y1158420D03*
X0088590Y1168420D03*
X0088590Y1178420D03*
X0088590Y1188420D03*
D10*
X0246070Y1078420D03*
D44*
X0246070Y1088420D03*
X0246070Y1098420D03*
X0246070Y1108420D03*
X0246070Y1118420D03*
X0246070Y1128420D03*
X0246070Y1138420D03*
X0246070Y1148420D03*
X0246070Y1158420D03*
X0246070Y1168420D03*
X0246070Y1178420D03*
X0246070Y1188420D03*
D13*
X0183030Y1107580D03*
X0183030Y1103650D03*
X0188940Y1107580D03*
X0185990Y1105620D03*
X0188940Y1103650D03*
D14*
X0206700Y1001690D03*
X0206700Y0991060D03*
X0127960Y1001500D03*
X0127960Y0990870D03*
D34*
X0293310Y0995780D03*
D45*
X0293310Y1211770D03*
D61*
X0293310Y1035780D03*
X0293310Y1171770D03*
D54*
X0263900Y0995780D03*
X0344650Y0984880D02*
G75*
G01*
%LPD*%
D34*
X0385990Y0995780D03*
D45*
X0385990Y1211770D03*
D61*
X0385990Y1035780D03*
X0385990Y1171770D03*
D54*
X0356580Y0995780D03*
D10*
X0433240Y1078420D03*
D44*
X0433240Y1088420D03*
X0433240Y1098420D03*
X0433240Y1108420D03*
X0433240Y1118420D03*
X0433240Y1128420D03*
X0433240Y1138420D03*
X0433240Y1148420D03*
X0433240Y1158420D03*
X0433240Y1168420D03*
X0433240Y1178420D03*
X0433240Y1188420D03*
D10*
X0590720Y1078420D03*
D44*
X0590720Y1088420D03*
X0590720Y1098420D03*
X0590720Y1108420D03*
X0590720Y1118420D03*
X0590720Y1128420D03*
X0590720Y1138420D03*
X0590720Y1148420D03*
X0590720Y1158420D03*
X0590720Y1168420D03*
X0590720Y1178420D03*
X0590720Y1188420D03*
D13*
X0527680Y1107580D03*
X0527680Y1103650D03*
X0533590Y1107580D03*
X0530640Y1105620D03*
X0533590Y1103650D03*
D14*
X0551350Y1001690D03*
X0551350Y0991060D03*
X0472610Y1001500D03*
X0472610Y0990870D03*
D34*
X0637960Y0995780D03*
D45*
X0637960Y1211770D03*
D61*
X0637960Y1035780D03*
X0637960Y1171770D03*
D54*
X0608550Y0995780D03*
X0689300Y0748680D02*
G75*
G01*
%LPD*%
D10*
X0699140Y0783170D03*
D44*
X0699140Y0793170D03*
X0699140Y0803170D03*
X0699140Y0813170D03*
X0699140Y0823170D03*
X0699140Y0833170D03*
X0699140Y0843170D03*
X0699140Y0853170D03*
X0699140Y0863170D03*
X0699140Y0873170D03*
X0699140Y0883170D03*
X0699140Y0893170D03*
D10*
X0856620Y0783170D03*
D44*
X0856620Y0793170D03*
X0856620Y0803170D03*
X0856620Y0813170D03*
X0856620Y0823170D03*
X0856620Y0833170D03*
X0856620Y0843170D03*
X0856620Y0853170D03*
X0856620Y0863170D03*
X0856620Y0873170D03*
X0856620Y0883170D03*
X0856620Y0893170D03*
D47*
X0799100Y0780300D03*
D30*
X0808950Y0780300D03*
X0816820Y0780300D03*
X0826660Y0780300D03*
D76*
X0787020Y0769670D03*
X0838750Y0769670D03*
D24*
X0700380Y0759920D03*
D41*
X0710380Y0759920D03*
X0720380Y0759920D03*
X0730380Y0759920D03*
X0740380Y0759920D03*
X0750380Y0759920D03*
X0760380Y0759920D03*
D69*
X0821780Y0844920D03*
D72*
X0821780Y0849920D03*
X0821780Y0854920D03*
X0821780Y0859920D03*
X0821780Y0864920D03*
X0821780Y0869920D03*
X0821780Y0874920D03*
X0821780Y0879920D03*
X0821780Y0884920D03*
X0821780Y0889920D03*
X0821780Y0894920D03*
X0821780Y0899920D03*
X0821780Y0904920D03*
X0821780Y0909920D03*
X0821780Y0914920D03*
X0816780Y0844920D03*
X0816780Y0849920D03*
X0816780Y0854920D03*
X0816780Y0859920D03*
X0816780Y0864920D03*
X0816780Y0869920D03*
X0816780Y0874920D03*
X0816780Y0879920D03*
X0816780Y0884920D03*
X0816780Y0889920D03*
X0816780Y0894920D03*
X0816780Y0899920D03*
X0816780Y0904920D03*
X0816780Y0909920D03*
X0816780Y0914920D03*
X0738990Y0870000D03*
X0738990Y0875000D03*
X0738990Y0880000D03*
X0738990Y0885000D03*
X0738990Y0890000D03*
X0738990Y0895000D03*
X0738990Y0900000D03*
X0738990Y0905000D03*
X0738990Y0910000D03*
X0738990Y0915000D03*
X0733990Y0870000D03*
X0733990Y0875000D03*
X0733990Y0880000D03*
X0733990Y0885000D03*
X0733990Y0890000D03*
X0733990Y0895000D03*
X0733990Y0900000D03*
X0733990Y0905000D03*
X0733990Y0910000D03*
D69*
X0733990Y0915000D03*
X0689300Y0935850D02*
G75*
G01*
%LPD*%
D10*
X0699140Y0970340D03*
D44*
X0699140Y0980340D03*
X0699140Y0990340D03*
X0699140Y1000340D03*
X0699140Y1010340D03*
X0699140Y1020340D03*
X0699140Y1030340D03*
X0699140Y1040340D03*
X0699140Y1050340D03*
X0699140Y1060340D03*
X0699140Y1070340D03*
X0699140Y1080340D03*
D10*
X0856620Y0970340D03*
D44*
X0856620Y0980340D03*
X0856620Y0990340D03*
X0856620Y1000340D03*
X0856620Y1010340D03*
X0856620Y1020340D03*
X0856620Y1030340D03*
X0856620Y1040340D03*
X0856620Y1050340D03*
X0856620Y1060340D03*
X0856620Y1070340D03*
X0856620Y1080340D03*
D47*
X0799100Y0967470D03*
D30*
X0808950Y0967470D03*
X0816820Y0967470D03*
X0826660Y0967470D03*
D76*
X0787020Y0956840D03*
X0838750Y0956840D03*
D24*
X0700380Y0947090D03*
D41*
X0710380Y0947090D03*
X0720380Y0947090D03*
X0730380Y0947090D03*
X0740380Y0947090D03*
X0750380Y0947090D03*
X0760380Y0947090D03*
D69*
X0821780Y1032090D03*
D72*
X0821780Y1037090D03*
X0821780Y1042090D03*
X0821780Y1047090D03*
X0821780Y1052090D03*
X0821780Y1057090D03*
X0821780Y1062090D03*
X0821780Y1067090D03*
X0821780Y1072090D03*
X0821780Y1077090D03*
X0821780Y1082090D03*
X0821780Y1087090D03*
X0821780Y1092090D03*
X0821780Y1097090D03*
X0821780Y1102090D03*
X0816780Y1032090D03*
X0816780Y1037090D03*
X0816780Y1042090D03*
X0816780Y1047090D03*
X0816780Y1052090D03*
X0816780Y1057090D03*
X0816780Y1062090D03*
X0816780Y1067090D03*
X0816780Y1072090D03*
X0816780Y1077090D03*
X0816780Y1082090D03*
X0816780Y1087090D03*
X0816780Y1092090D03*
X0816780Y1097090D03*
X0816780Y1102090D03*
X0738990Y1057170D03*
X0738990Y1062170D03*
X0738990Y1067170D03*
X0738990Y1072170D03*
X0738990Y1077170D03*
X0738990Y1082170D03*
X0738990Y1087170D03*
X0738990Y1092170D03*
X0738990Y1097170D03*
X0738990Y1102170D03*
X0733990Y1057170D03*
X0733990Y1062170D03*
X0733990Y1067170D03*
X0733990Y1072170D03*
X0733990Y1077170D03*
X0733990Y1082170D03*
X0733990Y1087170D03*
X0733990Y1092170D03*
X0733990Y1097170D03*
D69*
X0733990Y1102170D03*
M02*
