M48
INCH
T01C0.0118
T02C0.0191
T03C0.0236
T04C0.0402
T05C0.0472
T06C0.0929
T07C0.1252
%
T01
X+025027Y+028467
X+025323Y+028271
X+025618Y+028467
X+025618Y+028074
X+025027Y+028074
X+024019Y+028289
X+024019Y+027851
X+024019Y+028726
X+024394Y+029351
X+024144Y+031101
X+022144Y+030982
X+021388Y+033852
X+018956Y+033289
X+026582Y+033852
X+029395Y+033289
X+027894Y+028789
X+026457Y+028726
X+026457Y+028289
X+026457Y+027851
X+027519Y+026976
X+027344Y+024839
X+027145Y+024164
X+025082Y+024839
X+025207Y+026976
X+024394Y+022351
X+020701Y+021919
X+018732Y+019346
X+020701Y+018390
X+028575Y+018390
T02
X+024082Y+030351
X+025582Y+031851
X+026394Y+031851
X+028957Y+029726
X+028957Y+028976
X+029520Y+028976
X+028957Y+028226
X+027144Y+027726
X+027144Y+026164
X+028457Y+024016
X+029707Y+024016
X+029707Y+021851
X+028457Y+021851
X+026478Y+020724
X+025228Y+020724
X+022472Y+020724
X+021222Y+020724
X+022769Y+022851
X+022769Y+023601
X+022144Y+025476
X+022144Y+026664
X+025894Y+023601
X+020707Y+032601
X+023207Y+036351
X+024207Y+036351
T03
X+027394Y+017878
X+027394Y+016815
X+019520Y+016796
X+019520Y+017859
T04
X+015583Y+025551
X+015583Y+026551
X+015583Y+027551
X+015583Y+028551
X+015583Y+029551
X+015583Y+030551
X+015583Y+031551
X+015583Y+032551
X+015583Y+033551
X+015583Y+034551
X+015583Y+035551
X+015583Y+036551
X+031331Y+036551
X+031331Y+035551
X+031331Y+034551
X+031331Y+033551
X+031331Y+032551
X+031331Y+031551
X+031331Y+030551
X+031331Y+029551
X+031331Y+028551
X+031331Y+027551
X+031331Y+026551
X+031331Y+025551
T05
X+010858Y+017287
X+010858Y+038886
X+036055Y+038886
X+036055Y+017287
T06
X+007917Y+017287
X+033114Y+017287
T07
X+010858Y+021287
X+010858Y+034886
X+036055Y+034886
X+036055Y+021287
T00
M30
