G04 DipTrace 2.4.0.2*
%INBottom.gbr*%
%MOIN*%
%ADD14C,0.0118*%
%ADD15C,0.0098*%
%ADD16C,0.0394*%
%ADD17C,0.0197*%
%ADD21R,0.0748X0.0748*%
%ADD22C,0.0748*%
%ADD26R,0.0638X0.0638*%
%ADD27C,0.0638*%
%ADD34C,0.0197*%
%ADD40C,0.0276*%
%ADD41C,0.04*%
%FSLAX44Y44*%
G04*
G70*
G90*
G75*
G01*
%LNBottom*%
%LPD*%
X10858Y38886D2*
D16*
X17110D1*
X18081Y37915D1*
Y35852D1*
X27145Y24164D2*
D17*
X28207Y25227D1*
Y29664D1*
X26770Y31101D1*
X24144D1*
X20701Y21919D2*
X24525D1*
X24769Y22163D1*
Y25039D1*
X25269Y25538D1*
X27644D1*
X27894Y25789D1*
Y28789D1*
X20701Y18390D2*
X28575D1*
X27344Y24839D2*
X25082D1*
X36055Y17287D2*
D16*
Y18316D1*
X34161Y20210D1*
X31208Y23163D1*
X26332D1*
X25894Y23601D1*
X18732Y19346D2*
D17*
X33298D1*
X34161Y20210D1*
X24394Y29351D2*
X22769D1*
X22144Y29976D1*
Y30982D1*
X24394Y29351D2*
Y22351D1*
X26582Y33852D2*
X21388D1*
X25207Y26976D2*
D14*
X27519D1*
X29395Y33289D2*
D17*
X18956D1*
D40*
X27145Y24164D3*
X24144Y31101D3*
D3*
X20701Y21919D3*
X27894Y28789D3*
X28575Y18390D3*
X20701D3*
X27344Y24839D3*
X25082D3*
D41*
X25894Y23601D3*
D40*
X18732Y19346D3*
X24394Y29351D3*
X22144Y30982D3*
X24394Y22351D3*
Y29351D3*
X26582Y33852D3*
X21388D3*
X25207Y26976D3*
X27519D3*
X29395Y33289D3*
X18956D3*
D41*
X24082Y30351D3*
X26394Y31851D3*
X20707Y32601D3*
X23207Y36351D3*
X24207D3*
X28957Y29726D3*
Y28976D3*
Y28226D3*
X25582Y31851D3*
D40*
X26457Y28726D3*
Y28289D3*
Y27851D3*
X24019Y28726D3*
Y28289D3*
Y27851D3*
D41*
X22769Y23601D3*
Y22851D3*
X22144Y25476D3*
X28457Y21851D3*
X22144Y26664D3*
X29707Y21851D3*
X29520Y28976D3*
X27144Y27726D3*
Y26164D3*
X25228Y20724D3*
X26478D3*
X21222D3*
X22472D3*
X28457Y24016D3*
X29707D3*
X17610Y36830D2*
D15*
X30917D1*
X31744D2*
X32059D1*
X17610Y36733D2*
X30866D1*
X31795D2*
X32059D1*
X17610Y36636D2*
X30839D1*
X31823D2*
X32059D1*
X17610Y36539D2*
X30831D1*
X31830D2*
X32059D1*
X17610Y36442D2*
X30843D1*
X31818D2*
X32059D1*
X17610Y36344D2*
X30877D1*
X31784D2*
X32059D1*
X17610Y36247D2*
X30936D1*
X31726D2*
X32059D1*
X17610Y36150D2*
X31039D1*
X31623D2*
X32059D1*
X17610Y36053D2*
X32059D1*
X17610Y35956D2*
X31045D1*
X31617D2*
X32059D1*
X17610Y35859D2*
X30940D1*
X31721D2*
X32059D1*
X17610Y35762D2*
X30879D1*
X31783D2*
X32059D1*
X17610Y35665D2*
X30845D1*
X31817D2*
X32059D1*
X17610Y35568D2*
X30831D1*
X31830D2*
X32059D1*
X17610Y35470D2*
X30837D1*
X31824D2*
X32059D1*
X17610Y35373D2*
X30865D1*
X31797D2*
X32059D1*
X17610Y35276D2*
X30916D1*
X31746D2*
X32059D1*
X17610Y35179D2*
X31002D1*
X31660D2*
X32059D1*
X17610Y35082D2*
X31180D1*
X31481D2*
X32059D1*
X17610Y34985D2*
X31092D1*
X31569D2*
X32059D1*
X17610Y34888D2*
X30965D1*
X31697D2*
X32059D1*
X17610Y34791D2*
X30894D1*
X31767D2*
X32059D1*
X17610Y34694D2*
X30853D1*
X31809D2*
X32059D1*
X17610Y34596D2*
X30833D1*
X31829D2*
X32059D1*
X17610Y34499D2*
X30834D1*
X31827D2*
X32059D1*
X17610Y34402D2*
X30854D1*
X31807D2*
X32059D1*
X17610Y34305D2*
X30897D1*
X31764D2*
X32059D1*
X17610Y34208D2*
X30971D1*
X31690D2*
X32059D1*
X17610Y34111D2*
X21210D1*
X26760D2*
X31106D1*
X31555D2*
X32059D1*
X17610Y34014D2*
X21115D1*
X26855D2*
X31159D1*
X31503D2*
X32059D1*
X17610Y33917D2*
X21076D1*
X26894D2*
X30994D1*
X31667D2*
X32059D1*
X17610Y33820D2*
X21072D1*
X26898D2*
X30911D1*
X31750D2*
X32059D1*
X17610Y33722D2*
X21098D1*
X26872D2*
X30862D1*
X31800D2*
X32059D1*
X17610Y33625D2*
X21168D1*
X26801D2*
X30837D1*
X31824D2*
X32059D1*
X17610Y33528D2*
X18751D1*
X29600D2*
X30831D1*
X31830D2*
X32059D1*
X17610Y33431D2*
X18672D1*
X29679D2*
X30846D1*
X31815D2*
X32059D1*
X17610Y33334D2*
X18640D1*
X29710D2*
X30882D1*
X31780D2*
X32059D1*
X17610Y33237D2*
X18642D1*
X29710D2*
X30945D1*
X31717D2*
X32059D1*
X17610Y33140D2*
X18676D1*
X29674D2*
X31054D1*
X31607D2*
X32059D1*
X17610Y33043D2*
X18760D1*
X29591D2*
X32059D1*
X17610Y32946D2*
X31029D1*
X31632D2*
X32059D1*
X17610Y32848D2*
X30931D1*
X31730D2*
X32059D1*
X17610Y32751D2*
X30874D1*
X31787D2*
X32059D1*
X17610Y32654D2*
X30842D1*
X31820D2*
X32059D1*
X17610Y32557D2*
X30831D1*
X31830D2*
X32059D1*
X17610Y32460D2*
X30839D1*
X31823D2*
X32059D1*
X17610Y32363D2*
X30868D1*
X31793D2*
X32059D1*
X17610Y32266D2*
X30923D1*
X31738D2*
X32059D1*
X17610Y32169D2*
X31014D1*
X31647D2*
X32059D1*
X17610Y32072D2*
X31220D1*
X31441D2*
X32059D1*
X17610Y31974D2*
X31074D1*
X31587D2*
X32059D1*
X17610Y31877D2*
X30956D1*
X31706D2*
X32059D1*
X17610Y31780D2*
X30888D1*
X31773D2*
X32059D1*
X17610Y31683D2*
X30850D1*
X31812D2*
X32059D1*
X17610Y31586D2*
X30833D1*
X31829D2*
X32059D1*
X17610Y31489D2*
X30834D1*
X31827D2*
X32059D1*
X17610Y31392D2*
X24029D1*
X24259D2*
X30857D1*
X31804D2*
X32059D1*
X17610Y31295D2*
X23894D1*
X26968D2*
X30903D1*
X31758D2*
X32059D1*
X17610Y31198D2*
X21913D1*
X22375D2*
X23841D1*
X27064D2*
X30982D1*
X31680D2*
X32059D1*
X17610Y31100D2*
X21848D1*
X22440D2*
X23826D1*
X27161D2*
X31129D1*
X31532D2*
X32059D1*
X17610Y31003D2*
X21827D1*
X22462D2*
X23841D1*
X27258D2*
X31132D1*
X31529D2*
X32059D1*
X17610Y30906D2*
X21834D1*
X22454D2*
X23895D1*
X27355D2*
X30983D1*
X31678D2*
X32059D1*
X17610Y30809D2*
X21865D1*
X22423D2*
X24035D1*
X24253D2*
X26671D1*
X27454D2*
X30905D1*
X31757D2*
X32059D1*
X17610Y30712D2*
X21865D1*
X22423D2*
X26768D1*
X27550D2*
X30859D1*
X31803D2*
X32059D1*
X17610Y30615D2*
X21865D1*
X22423D2*
X26865D1*
X27647D2*
X30836D1*
X31826D2*
X32059D1*
X17610Y30518D2*
X21865D1*
X22423D2*
X26962D1*
X27744D2*
X30833D1*
X31829D2*
X32059D1*
X17610Y30421D2*
X21865D1*
X22423D2*
X27059D1*
X27841D2*
X30848D1*
X31813D2*
X32059D1*
X17610Y30323D2*
X21865D1*
X22423D2*
X27157D1*
X27938D2*
X30886D1*
X31775D2*
X32059D1*
X17610Y30226D2*
X21865D1*
X22423D2*
X27254D1*
X28036D2*
X30954D1*
X31707D2*
X32059D1*
X17610Y30129D2*
X21865D1*
X22423D2*
X27351D1*
X28133D2*
X31071D1*
X31590D2*
X32059D1*
X17610Y30032D2*
X21865D1*
X22480D2*
X27448D1*
X28230D2*
X31228D1*
X31434D2*
X32059D1*
X17610Y29935D2*
X21868D1*
X22577D2*
X27545D1*
X28327D2*
X31016D1*
X31646D2*
X32059D1*
X17610Y29838D2*
X21904D1*
X22674D2*
X27641D1*
X28422D2*
X30923D1*
X31738D2*
X32059D1*
X17610Y29741D2*
X21988D1*
X22771D2*
X27738D1*
X28475D2*
X30869D1*
X31792D2*
X32059D1*
X17610Y29644D2*
X22085D1*
X22868D2*
X24284D1*
X24504D2*
X27837D1*
X28487D2*
X30840D1*
X31821D2*
X32059D1*
X17610Y29547D2*
X22183D1*
X24644D2*
X27928D1*
X28487D2*
X30831D1*
X31830D2*
X32059D1*
X17610Y29449D2*
X22280D1*
X24698D2*
X27928D1*
X28487D2*
X30842D1*
X31820D2*
X32059D1*
X17610Y29352D2*
X22377D1*
X24713D2*
X27928D1*
X28487D2*
X30873D1*
X31789D2*
X32059D1*
X17610Y29255D2*
X22474D1*
X24698D2*
X27928D1*
X28487D2*
X30931D1*
X31730D2*
X32059D1*
X17610Y29158D2*
X22571D1*
X24673D2*
X27928D1*
X28487D2*
X31028D1*
X31634D2*
X32059D1*
X17610Y29061D2*
X24115D1*
X24673D2*
X27738D1*
X28487D2*
X32059D1*
X17610Y28964D2*
X24115D1*
X24673D2*
X27629D1*
X28487D2*
X31057D1*
X31604D2*
X32059D1*
X17610Y28867D2*
X24115D1*
X24673D2*
X27586D1*
X28487D2*
X30946D1*
X31715D2*
X32059D1*
X17610Y28770D2*
X24115D1*
X24673D2*
X27575D1*
X28487D2*
X30882D1*
X31780D2*
X32059D1*
X17610Y28673D2*
X24115D1*
X24673D2*
X24842D1*
X25211D2*
X25433D1*
X25802D2*
X27598D1*
X28487D2*
X30846D1*
X31815D2*
X32059D1*
X17610Y28575D2*
X24115D1*
X24673D2*
X24770D1*
X25284D2*
X25361D1*
X25874D2*
X27615D1*
X28487D2*
X30831D1*
X31830D2*
X32059D1*
X17610Y28478D2*
X24115D1*
X24673D2*
X24749D1*
X25897D2*
X27615D1*
X28487D2*
X30836D1*
X31826D2*
X32059D1*
X17610Y28381D2*
X24115D1*
X24673D2*
X24763D1*
X25883D2*
X27615D1*
X28487D2*
X30862D1*
X31800D2*
X32059D1*
X17610Y28284D2*
X24115D1*
X24673D2*
X24819D1*
X25825D2*
X27615D1*
X28487D2*
X30909D1*
X31752D2*
X32059D1*
X17610Y28187D2*
X24115D1*
X24673D2*
X24773D1*
X25873D2*
X27615D1*
X28487D2*
X30993D1*
X31669D2*
X32059D1*
X17610Y28090D2*
X24115D1*
X24673D2*
X24749D1*
X25897D2*
X27615D1*
X28487D2*
X31156D1*
X31506D2*
X32059D1*
X17610Y27993D2*
X24115D1*
X24673D2*
X24761D1*
X25294D2*
X25350D1*
X25885D2*
X27615D1*
X28487D2*
X31108D1*
X31554D2*
X32059D1*
X17610Y27896D2*
X24115D1*
X24673D2*
X24815D1*
X25239D2*
X25405D1*
X25830D2*
X27615D1*
X28487D2*
X30973D1*
X31689D2*
X32059D1*
X17610Y27799D2*
X24115D1*
X24673D2*
X27615D1*
X28487D2*
X30897D1*
X31764D2*
X32059D1*
X17610Y27701D2*
X24115D1*
X24673D2*
X27615D1*
X28487D2*
X30854D1*
X31807D2*
X32059D1*
X17610Y27604D2*
X24115D1*
X24673D2*
X27615D1*
X28487D2*
X30834D1*
X31827D2*
X32059D1*
X17610Y27507D2*
X24115D1*
X24673D2*
X27615D1*
X28487D2*
X30833D1*
X31829D2*
X32059D1*
X17610Y27410D2*
X24115D1*
X24673D2*
X27615D1*
X28487D2*
X30851D1*
X31810D2*
X32059D1*
X17610Y27313D2*
X24115D1*
X24673D2*
X27615D1*
X28487D2*
X30893D1*
X31769D2*
X32059D1*
X17610Y27216D2*
X24115D1*
X24673D2*
X25002D1*
X25413D2*
X27314D1*
X28487D2*
X30963D1*
X31698D2*
X32059D1*
X17610Y27119D2*
X24115D1*
X24673D2*
X24922D1*
X28487D2*
X31091D1*
X31570D2*
X32059D1*
X17610Y27022D2*
X24115D1*
X24673D2*
X24892D1*
X28487D2*
X31183D1*
X31478D2*
X32059D1*
X17610Y26925D2*
X24115D1*
X24673D2*
X24893D1*
X28487D2*
X31003D1*
X31658D2*
X32059D1*
X17610Y26827D2*
X24115D1*
X24673D2*
X24927D1*
X28487D2*
X30916D1*
X31746D2*
X32059D1*
X17610Y26730D2*
X24115D1*
X24673D2*
X25010D1*
X25404D2*
X27323D1*
X28487D2*
X30865D1*
X31797D2*
X32059D1*
X17610Y26633D2*
X24115D1*
X24673D2*
X27615D1*
X28487D2*
X30837D1*
X31824D2*
X32059D1*
X17610Y26536D2*
X24115D1*
X24673D2*
X27615D1*
X28487D2*
X30831D1*
X31830D2*
X32059D1*
X17610Y26439D2*
X24115D1*
X24673D2*
X27615D1*
X28487D2*
X30843D1*
X31818D2*
X32059D1*
X17610Y26342D2*
X24115D1*
X24673D2*
X27615D1*
X28487D2*
X30877D1*
X31784D2*
X32059D1*
X17610Y26245D2*
X24115D1*
X24673D2*
X27615D1*
X28487D2*
X30939D1*
X31723D2*
X32059D1*
X17610Y26148D2*
X24115D1*
X24673D2*
X27615D1*
X28487D2*
X31043D1*
X31618D2*
X32059D1*
X17610Y26051D2*
X24115D1*
X24673D2*
X27615D1*
X28487D2*
X32059D1*
X17610Y25953D2*
X24115D1*
X24673D2*
X27615D1*
X28487D2*
X30831D1*
X31830D2*
X32059D1*
X17610Y25856D2*
X24115D1*
X24673D2*
X27571D1*
X28487D2*
X30831D1*
X31830D2*
X32059D1*
X17610Y25759D2*
X24115D1*
X24673D2*
X25104D1*
X28487D2*
X30831D1*
X31830D2*
X32059D1*
X17610Y25662D2*
X24115D1*
X24673D2*
X25001D1*
X28487D2*
X30831D1*
X31830D2*
X32059D1*
X17610Y25565D2*
X24115D1*
X24673D2*
X24904D1*
X28487D2*
X30831D1*
X31830D2*
X32059D1*
X17610Y25468D2*
X24115D1*
X24673D2*
X24807D1*
X28487D2*
X30831D1*
X31830D2*
X32059D1*
X17610Y25371D2*
X24115D1*
X28487D2*
X30831D1*
X31830D2*
X32059D1*
X17610Y25274D2*
X24115D1*
X28487D2*
X30831D1*
X31830D2*
X32059D1*
X17610Y25177D2*
X24115D1*
X28482D2*
X30831D1*
X31830D2*
X32059D1*
X17610Y25079D2*
X24115D1*
X28442D2*
X30831D1*
X31830D2*
X32059D1*
X17610Y24982D2*
X24115D1*
X28353D2*
X32059D1*
X17610Y24885D2*
X24115D1*
X28256D2*
X32059D1*
X17610Y24788D2*
X24115D1*
X28159D2*
X32059D1*
X17610Y24691D2*
X24115D1*
X28063D2*
X32059D1*
X17610Y24594D2*
X24115D1*
X27966D2*
X32059D1*
X17610Y24497D2*
X24115D1*
X25048D2*
X27086D1*
X27869D2*
X32059D1*
X17610Y24400D2*
X24115D1*
X25048D2*
X26934D1*
X27770D2*
X32059D1*
X17610Y24302D2*
X24115D1*
X25048D2*
X26859D1*
X27673D2*
X32059D1*
X17610Y24205D2*
X24115D1*
X25048D2*
X26828D1*
X27577D2*
X32059D1*
X17610Y24108D2*
X24115D1*
X25048D2*
X26831D1*
X27480D2*
X32059D1*
X17610Y24011D2*
X24115D1*
X25048D2*
X26866D1*
X27423D2*
X32059D1*
X17610Y23914D2*
X24115D1*
X25048D2*
X25685D1*
X26103D2*
X26954D1*
X27335D2*
X32059D1*
X17610Y23817D2*
X24115D1*
X25048D2*
X25582D1*
X26208D2*
X32059D1*
X17610Y23720D2*
X24115D1*
X25048D2*
X25533D1*
X26306D2*
X32059D1*
X17610Y23623D2*
X24115D1*
X25048D2*
X25515D1*
X26403D2*
X32059D1*
X17610Y23526D2*
X24115D1*
X25048D2*
X25521D1*
X31281D2*
X32059D1*
X17610Y23428D2*
X24115D1*
X25048D2*
X25556D1*
X31472D2*
X32059D1*
X17610Y23331D2*
X24115D1*
X25048D2*
X25630D1*
X31569D2*
X32059D1*
X17610Y23234D2*
X24115D1*
X25048D2*
X25731D1*
X31667D2*
X32059D1*
X17610Y23137D2*
X24115D1*
X25048D2*
X25828D1*
X31764D2*
X32059D1*
X17610Y23040D2*
X24115D1*
X25048D2*
X25925D1*
X31861D2*
X32059D1*
X17610Y22943D2*
X24115D1*
X25048D2*
X26022D1*
X31958D2*
X32059D1*
X17610Y22846D2*
X24115D1*
X25048D2*
X26136D1*
X17610Y22749D2*
X24115D1*
X25048D2*
X31092D1*
X17610Y22652D2*
X24115D1*
X25048D2*
X31189D1*
X17610Y22554D2*
X24115D1*
X25048D2*
X31286D1*
X17610Y22457D2*
X24095D1*
X25048D2*
X31383D1*
X17610Y22360D2*
X24075D1*
X25048D2*
X31480D1*
X17610Y22263D2*
X24089D1*
X25048D2*
X31577D1*
X17610Y22166D2*
X20506D1*
X25048D2*
X31674D1*
X17610Y22069D2*
X20421D1*
X25031D2*
X31772D1*
X17610Y21972D2*
X20387D1*
X24970D2*
X31869D1*
X17610Y21875D2*
X20386D1*
X24871D2*
X31966D1*
X17610Y21778D2*
X20416D1*
X24775D2*
X32059D1*
X17610Y21680D2*
X20495D1*
X24661D2*
X32059D1*
X17610Y21583D2*
X32059D1*
X17610Y21486D2*
X32059D1*
X17610Y21389D2*
X32059D1*
X17610Y21292D2*
X32059D1*
X17610Y21195D2*
X32059D1*
X17610Y21098D2*
X32059D1*
X17610Y21001D2*
X32059D1*
X17610Y20904D2*
X32059D1*
X17610Y20806D2*
X32059D1*
X17610Y20709D2*
X32059D1*
X17610Y20612D2*
X32059D1*
X17610Y20515D2*
X32059D1*
X17610Y20418D2*
X32059D1*
X17610Y20321D2*
X32059D1*
X17610Y20224D2*
X32059D1*
X30890Y26041D2*
X31821D1*
Y25061D1*
X30841D1*
Y26041D1*
X30890D1*
X31818Y26502D2*
X31811Y26453D1*
X31799Y26406D1*
X31782Y26360D1*
X31760Y26315D1*
X31735Y26273D1*
X31705Y26234D1*
X31671Y26198D1*
X31634Y26166D1*
X31594Y26138D1*
X31551Y26113D1*
X31506Y26093D1*
X31459Y26078D1*
X31411Y26068D1*
X31362Y26062D1*
X31313Y26061D1*
X31264Y26066D1*
X31216Y26075D1*
X31169Y26089D1*
X31123Y26107D1*
X31080Y26130D1*
X31039Y26157D1*
X31001Y26189D1*
X30966Y26224D1*
X30935Y26262D1*
X30908Y26303D1*
X30885Y26347D1*
X30867Y26392D1*
X30853Y26439D1*
X30845Y26488D1*
X30841Y26537D1*
X30842Y26586D1*
X30848Y26635D1*
X30859Y26683D1*
X30874Y26730D1*
X30894Y26774D1*
X30919Y26817D1*
X30948Y26857D1*
X30980Y26894D1*
X31016Y26927D1*
X31056Y26957D1*
X31098Y26982D1*
X31142Y27004D1*
X31188Y27020D1*
X31236Y27032D1*
X31285Y27039D1*
X31334Y27041D1*
X31383Y27039D1*
X31432Y27031D1*
X31479Y27018D1*
X31525Y27001D1*
X31569Y26979D1*
X31611Y26953D1*
X31650Y26923D1*
X31686Y26889D1*
X31718Y26852D1*
X31746Y26812D1*
X31770Y26769D1*
X31790Y26724D1*
X31805Y26677D1*
X31815Y26629D1*
X31821Y26551D1*
X31818Y26502D1*
Y27502D2*
X31811Y27453D1*
X31799Y27406D1*
X31782Y27360D1*
X31760Y27315D1*
X31735Y27273D1*
X31705Y27234D1*
X31671Y27198D1*
X31634Y27166D1*
X31594Y27138D1*
X31551Y27113D1*
X31506Y27093D1*
X31459Y27078D1*
X31411Y27068D1*
X31362Y27062D1*
X31313Y27061D1*
X31264Y27066D1*
X31216Y27075D1*
X31169Y27089D1*
X31123Y27107D1*
X31080Y27130D1*
X31039Y27157D1*
X31001Y27189D1*
X30966Y27224D1*
X30935Y27262D1*
X30908Y27303D1*
X30885Y27347D1*
X30867Y27392D1*
X30853Y27439D1*
X30845Y27488D1*
X30841Y27537D1*
X30842Y27586D1*
X30848Y27635D1*
X30859Y27683D1*
X30874Y27730D1*
X30894Y27774D1*
X30919Y27817D1*
X30948Y27857D1*
X30980Y27894D1*
X31016Y27927D1*
X31056Y27957D1*
X31098Y27982D1*
X31142Y28004D1*
X31188Y28020D1*
X31236Y28032D1*
X31285Y28039D1*
X31334Y28041D1*
X31383Y28039D1*
X31432Y28031D1*
X31479Y28018D1*
X31525Y28001D1*
X31569Y27979D1*
X31611Y27953D1*
X31650Y27923D1*
X31686Y27889D1*
X31718Y27852D1*
X31746Y27812D1*
X31770Y27769D1*
X31790Y27724D1*
X31805Y27677D1*
X31815Y27629D1*
X31821Y27551D1*
X31818Y27502D1*
Y28502D2*
X31811Y28453D1*
X31799Y28406D1*
X31782Y28360D1*
X31760Y28315D1*
X31735Y28273D1*
X31705Y28234D1*
X31671Y28198D1*
X31634Y28166D1*
X31594Y28138D1*
X31551Y28113D1*
X31506Y28093D1*
X31459Y28078D1*
X31411Y28068D1*
X31362Y28062D1*
X31313Y28061D1*
X31264Y28066D1*
X31216Y28075D1*
X31169Y28089D1*
X31123Y28107D1*
X31080Y28130D1*
X31039Y28157D1*
X31001Y28189D1*
X30966Y28224D1*
X30935Y28262D1*
X30908Y28303D1*
X30885Y28347D1*
X30867Y28392D1*
X30853Y28439D1*
X30845Y28488D1*
X30841Y28537D1*
X30842Y28586D1*
X30848Y28635D1*
X30859Y28683D1*
X30874Y28730D1*
X30894Y28774D1*
X30919Y28817D1*
X30948Y28857D1*
X30980Y28894D1*
X31016Y28927D1*
X31056Y28957D1*
X31098Y28982D1*
X31142Y29004D1*
X31188Y29020D1*
X31236Y29032D1*
X31285Y29039D1*
X31334Y29041D1*
X31383Y29039D1*
X31432Y29031D1*
X31479Y29018D1*
X31525Y29001D1*
X31569Y28979D1*
X31611Y28953D1*
X31650Y28923D1*
X31686Y28889D1*
X31718Y28852D1*
X31746Y28812D1*
X31770Y28769D1*
X31790Y28724D1*
X31805Y28677D1*
X31815Y28629D1*
X31821Y28551D1*
X31818Y28502D1*
Y29502D2*
X31811Y29453D1*
X31799Y29406D1*
X31782Y29360D1*
X31760Y29315D1*
X31735Y29273D1*
X31705Y29234D1*
X31671Y29198D1*
X31634Y29166D1*
X31594Y29138D1*
X31551Y29113D1*
X31506Y29093D1*
X31459Y29078D1*
X31411Y29068D1*
X31362Y29062D1*
X31313Y29061D1*
X31264Y29066D1*
X31216Y29075D1*
X31169Y29089D1*
X31123Y29107D1*
X31080Y29130D1*
X31039Y29157D1*
X31001Y29189D1*
X30966Y29224D1*
X30935Y29262D1*
X30908Y29303D1*
X30885Y29347D1*
X30867Y29392D1*
X30853Y29439D1*
X30845Y29488D1*
X30841Y29537D1*
X30842Y29586D1*
X30848Y29635D1*
X30859Y29683D1*
X30874Y29730D1*
X30894Y29774D1*
X30919Y29817D1*
X30948Y29857D1*
X30980Y29894D1*
X31016Y29927D1*
X31056Y29957D1*
X31098Y29982D1*
X31142Y30004D1*
X31188Y30020D1*
X31236Y30032D1*
X31285Y30039D1*
X31334Y30041D1*
X31383Y30039D1*
X31432Y30031D1*
X31479Y30018D1*
X31525Y30001D1*
X31569Y29979D1*
X31611Y29953D1*
X31650Y29923D1*
X31686Y29889D1*
X31718Y29852D1*
X31746Y29812D1*
X31770Y29769D1*
X31790Y29724D1*
X31805Y29677D1*
X31815Y29629D1*
X31821Y29551D1*
X31818Y29502D1*
Y30502D2*
X31811Y30453D1*
X31799Y30406D1*
X31782Y30360D1*
X31760Y30315D1*
X31735Y30273D1*
X31705Y30234D1*
X31671Y30198D1*
X31634Y30166D1*
X31594Y30138D1*
X31551Y30113D1*
X31506Y30093D1*
X31459Y30078D1*
X31411Y30068D1*
X31362Y30062D1*
X31313Y30061D1*
X31264Y30066D1*
X31216Y30075D1*
X31169Y30089D1*
X31123Y30107D1*
X31080Y30130D1*
X31039Y30157D1*
X31001Y30189D1*
X30966Y30224D1*
X30935Y30262D1*
X30908Y30303D1*
X30885Y30347D1*
X30867Y30392D1*
X30853Y30439D1*
X30845Y30488D1*
X30841Y30537D1*
X30842Y30586D1*
X30848Y30635D1*
X30859Y30683D1*
X30874Y30730D1*
X30894Y30774D1*
X30919Y30817D1*
X30948Y30857D1*
X30980Y30894D1*
X31016Y30927D1*
X31056Y30957D1*
X31098Y30982D1*
X31142Y31004D1*
X31188Y31020D1*
X31236Y31032D1*
X31285Y31039D1*
X31334Y31041D1*
X31383Y31039D1*
X31432Y31031D1*
X31479Y31018D1*
X31525Y31001D1*
X31569Y30979D1*
X31611Y30953D1*
X31650Y30923D1*
X31686Y30889D1*
X31718Y30852D1*
X31746Y30812D1*
X31770Y30769D1*
X31790Y30724D1*
X31805Y30677D1*
X31815Y30629D1*
X31821Y30551D1*
X31818Y30502D1*
Y31502D2*
X31811Y31453D1*
X31799Y31406D1*
X31782Y31360D1*
X31760Y31315D1*
X31735Y31273D1*
X31705Y31234D1*
X31671Y31198D1*
X31634Y31166D1*
X31594Y31138D1*
X31551Y31113D1*
X31506Y31093D1*
X31459Y31078D1*
X31411Y31068D1*
X31362Y31062D1*
X31313Y31061D1*
X31264Y31066D1*
X31216Y31075D1*
X31169Y31089D1*
X31123Y31107D1*
X31080Y31130D1*
X31039Y31157D1*
X31001Y31189D1*
X30966Y31224D1*
X30935Y31262D1*
X30908Y31303D1*
X30885Y31347D1*
X30867Y31392D1*
X30853Y31439D1*
X30845Y31488D1*
X30841Y31537D1*
X30842Y31586D1*
X30848Y31635D1*
X30859Y31683D1*
X30874Y31730D1*
X30894Y31774D1*
X30919Y31817D1*
X30948Y31857D1*
X30980Y31894D1*
X31016Y31927D1*
X31056Y31957D1*
X31098Y31982D1*
X31142Y32004D1*
X31188Y32020D1*
X31236Y32032D1*
X31285Y32039D1*
X31334Y32041D1*
X31383Y32039D1*
X31432Y32031D1*
X31479Y32018D1*
X31525Y32001D1*
X31569Y31979D1*
X31611Y31953D1*
X31650Y31923D1*
X31686Y31889D1*
X31718Y31852D1*
X31746Y31812D1*
X31770Y31769D1*
X31790Y31724D1*
X31805Y31677D1*
X31815Y31629D1*
X31821Y31551D1*
X31818Y31502D1*
X31821Y32541D2*
X31815Y32473D1*
X31799Y32406D1*
X31774Y32342D1*
X31740Y32282D1*
X31698Y32227D1*
X31649Y32179D1*
X31594Y32138D1*
X31533Y32105D1*
X31469Y32081D1*
X31402Y32066D1*
X31333Y32061D1*
X31264Y32066D1*
X31197Y32080D1*
X31132Y32103D1*
X31071Y32135D1*
X31016Y32176D1*
X30966Y32224D1*
X30924Y32278D1*
X30890Y32338D1*
X30864Y32402D1*
X30848Y32468D1*
X30841Y32537D1*
X30844Y32606D1*
X30856Y32673D1*
X30878Y32739D1*
X30909Y32800D1*
X30948Y32857D1*
X30994Y32908D1*
X31048Y32951D1*
X31106Y32987D1*
X31170Y33014D1*
X31236Y33032D1*
X31304Y33041D1*
X31373Y33039D1*
X31441Y33029D1*
X31507Y33009D1*
X31569Y32979D1*
X31627Y32942D1*
X31679Y32896D1*
X31724Y32844D1*
X31761Y32786D1*
X31790Y32724D1*
X31809Y32658D1*
X31819Y32590D1*
X31821Y32541D1*
Y33541D2*
X31815Y33473D1*
X31799Y33406D1*
X31774Y33342D1*
X31740Y33282D1*
X31698Y33227D1*
X31649Y33179D1*
X31594Y33138D1*
X31533Y33105D1*
X31469Y33081D1*
X31402Y33066D1*
X31333Y33061D1*
X31264Y33066D1*
X31197Y33080D1*
X31132Y33103D1*
X31071Y33135D1*
X31016Y33176D1*
X30966Y33224D1*
X30924Y33278D1*
X30890Y33338D1*
X30864Y33402D1*
X30848Y33468D1*
X30841Y33537D1*
X30844Y33606D1*
X30856Y33673D1*
X30878Y33739D1*
X30909Y33800D1*
X30948Y33857D1*
X30994Y33908D1*
X31048Y33951D1*
X31106Y33987D1*
X31170Y34014D1*
X31236Y34032D1*
X31304Y34041D1*
X31373Y34039D1*
X31441Y34029D1*
X31507Y34009D1*
X31569Y33979D1*
X31627Y33942D1*
X31679Y33896D1*
X31724Y33844D1*
X31761Y33786D1*
X31790Y33724D1*
X31809Y33658D1*
X31819Y33590D1*
X31821Y33541D1*
X31818Y34502D2*
X31811Y34453D1*
X31799Y34406D1*
X31782Y34360D1*
X31760Y34315D1*
X31735Y34273D1*
X31705Y34234D1*
X31671Y34198D1*
X31634Y34166D1*
X31594Y34138D1*
X31551Y34113D1*
X31506Y34093D1*
X31459Y34078D1*
X31411Y34068D1*
X31362Y34062D1*
X31313Y34061D1*
X31264Y34066D1*
X31216Y34075D1*
X31169Y34089D1*
X31123Y34107D1*
X31080Y34130D1*
X31039Y34157D1*
X31001Y34189D1*
X30966Y34224D1*
X30935Y34262D1*
X30908Y34303D1*
X30885Y34347D1*
X30867Y34392D1*
X30853Y34439D1*
X30845Y34488D1*
X30841Y34537D1*
X30842Y34586D1*
X30848Y34635D1*
X30859Y34683D1*
X30874Y34730D1*
X30894Y34774D1*
X30919Y34817D1*
X30948Y34857D1*
X30980Y34894D1*
X31016Y34927D1*
X31056Y34957D1*
X31098Y34982D1*
X31142Y35004D1*
X31188Y35020D1*
X31236Y35032D1*
X31285Y35039D1*
X31334Y35041D1*
X31383Y35039D1*
X31432Y35031D1*
X31479Y35018D1*
X31525Y35001D1*
X31569Y34979D1*
X31611Y34953D1*
X31650Y34923D1*
X31686Y34889D1*
X31718Y34852D1*
X31746Y34812D1*
X31770Y34769D1*
X31790Y34724D1*
X31805Y34677D1*
X31815Y34629D1*
X31821Y34551D1*
X31818Y34502D1*
Y35502D2*
X31811Y35453D1*
X31799Y35406D1*
X31782Y35360D1*
X31760Y35315D1*
X31735Y35273D1*
X31705Y35234D1*
X31671Y35198D1*
X31634Y35166D1*
X31594Y35138D1*
X31551Y35113D1*
X31506Y35093D1*
X31459Y35078D1*
X31411Y35068D1*
X31362Y35062D1*
X31313Y35061D1*
X31264Y35066D1*
X31216Y35075D1*
X31169Y35089D1*
X31123Y35107D1*
X31080Y35130D1*
X31039Y35157D1*
X31001Y35189D1*
X30966Y35224D1*
X30935Y35262D1*
X30908Y35303D1*
X30885Y35347D1*
X30867Y35392D1*
X30853Y35439D1*
X30845Y35488D1*
X30841Y35537D1*
X30842Y35586D1*
X30848Y35635D1*
X30859Y35683D1*
X30874Y35730D1*
X30894Y35774D1*
X30919Y35817D1*
X30948Y35857D1*
X30980Y35894D1*
X31016Y35927D1*
X31056Y35957D1*
X31098Y35982D1*
X31142Y36004D1*
X31188Y36020D1*
X31236Y36032D1*
X31285Y36039D1*
X31334Y36041D1*
X31383Y36039D1*
X31432Y36031D1*
X31479Y36018D1*
X31525Y36001D1*
X31569Y35979D1*
X31611Y35953D1*
X31650Y35923D1*
X31686Y35889D1*
X31718Y35852D1*
X31746Y35812D1*
X31770Y35769D1*
X31790Y35724D1*
X31805Y35677D1*
X31815Y35629D1*
X31821Y35551D1*
X31818Y35502D1*
Y36502D2*
X31811Y36453D1*
X31799Y36406D1*
X31782Y36360D1*
X31760Y36315D1*
X31735Y36273D1*
X31705Y36234D1*
X31671Y36198D1*
X31634Y36166D1*
X31594Y36138D1*
X31551Y36113D1*
X31506Y36093D1*
X31459Y36078D1*
X31411Y36068D1*
X31362Y36062D1*
X31313Y36061D1*
X31264Y36066D1*
X31216Y36075D1*
X31169Y36089D1*
X31123Y36107D1*
X31080Y36130D1*
X31039Y36157D1*
X31001Y36189D1*
X30966Y36224D1*
X30935Y36262D1*
X30908Y36303D1*
X30885Y36347D1*
X30867Y36392D1*
X30853Y36439D1*
X30845Y36488D1*
X30841Y36537D1*
X30842Y36586D1*
X30848Y36635D1*
X30859Y36683D1*
X30874Y36730D1*
X30894Y36774D1*
X30919Y36817D1*
X30948Y36857D1*
X30980Y36894D1*
X31018Y36928D1*
X30396Y36927D1*
X17600D1*
Y20183D1*
X32069D1*
Y21781D1*
X31055Y22795D1*
X26332D1*
X26283Y22798D1*
X26235Y22808D1*
X26188Y22824D1*
X26144Y22846D1*
X26104Y22874D1*
X26037Y22938D1*
X25660Y23313D1*
X25624Y23346D1*
X25593Y23384D1*
X25567Y23426D1*
X25547Y23471D1*
X25533Y23518D1*
X25525Y23566D1*
X25523Y23615D1*
X25529Y23664D1*
X25540Y23712D1*
X25558Y23758D1*
X25582Y23801D1*
X25611Y23841D1*
X25645Y23876D1*
X25684Y23906D1*
X25726Y23932D1*
X25771Y23951D1*
X25819Y23964D1*
X25867Y23971D1*
X25917D1*
X25965Y23965D1*
X26013Y23953D1*
X26058Y23934D1*
X26101Y23909D1*
X26140Y23879D1*
X26190Y23826D1*
X26484Y23532D1*
X31208Y23531D1*
X31257Y23528D1*
X31305Y23518D1*
X31351Y23502D1*
X31395Y23480D1*
X31436Y23452D1*
X31503Y23389D1*
X32069Y22822D1*
Y36927D1*
X31646D1*
X31686Y36889D1*
X31718Y36852D1*
X31746Y36812D1*
X31770Y36769D1*
X31790Y36724D1*
X31805Y36677D1*
X31815Y36629D1*
X31821Y36551D1*
X31818Y36502D1*
X24843Y28271D2*
X24808Y28310D1*
X24783Y28352D1*
X24767Y28398D1*
X24758Y28447D1*
X24759Y28496D1*
X24769Y28544D1*
X24787Y28590D1*
X24813Y28631D1*
X24847Y28668D1*
X24886Y28697D1*
X24930Y28719D1*
X24977Y28732D1*
X25026Y28737D1*
X25075Y28733D1*
X25122Y28720D1*
X25167Y28698D1*
X25206Y28669D1*
X25240Y28633D1*
X25266Y28592D1*
X25285Y28547D1*
X25288Y28538D1*
X25341Y28540D1*
X25358Y28538D1*
X25373Y28581D1*
X25398Y28624D1*
X25430Y28661D1*
X25468Y28692D1*
X25511Y28715D1*
X25558Y28730D1*
X25607Y28737D1*
X25656Y28734D1*
X25704Y28723D1*
X25749Y28703D1*
X25789Y28676D1*
X25824Y28641D1*
X25852Y28601D1*
X25873Y28556D1*
X25884Y28508D1*
X25887Y28458D1*
X25881Y28409D1*
X25866Y28362D1*
X25843Y28319D1*
X25812Y28280D1*
X25802Y28271D1*
X25836Y28232D1*
X25861Y28189D1*
X25878Y28143D1*
X25887Y28095D1*
X25886Y28044D1*
X25876Y27996D1*
X25858Y27950D1*
X25831Y27909D1*
X25798Y27873D1*
X25759Y27844D1*
X25714Y27822D1*
X25667Y27809D1*
X25618Y27804D1*
X25569Y27808D1*
X25522Y27822D1*
X25478Y27843D1*
X25438Y27872D1*
X25405Y27908D1*
X25378Y27950D1*
X25360Y27995D1*
X25358Y28003D1*
X25313Y28001D1*
X25288Y28003D1*
X25267Y27950D1*
X25241Y27909D1*
X25207Y27873D1*
X25168Y27844D1*
X25124Y27822D1*
X25077Y27809D1*
X25028Y27804D1*
X24979Y27808D1*
X24931Y27822D1*
X24887Y27843D1*
X24848Y27872D1*
X24814Y27908D1*
X24788Y27950D1*
X24769Y27995D1*
X24759Y28043D1*
X24758Y28093D1*
X24766Y28141D1*
X24783Y28187D1*
X24807Y28230D1*
X24843Y28271D1*
X27059Y24460D2*
X27168Y24569D1*
X25232D1*
X25172Y24544D1*
X25124Y24533D1*
X25075Y24530D1*
X25040Y24534D1*
X25039Y23907D1*
Y22163D1*
X25035Y22114D1*
X25021Y22067D1*
X25000Y22023D1*
X24960Y21972D1*
X24716Y21728D1*
X24678Y21697D1*
X24636Y21673D1*
X24589Y21657D1*
X24525Y21649D1*
X20851D1*
X20791Y21624D1*
X20743Y21613D1*
X20694Y21610D1*
X20645Y21615D1*
X20598Y21628D1*
X20553Y21648D1*
X20512Y21675D1*
X20475Y21708D1*
X20445Y21746D1*
X20420Y21789D1*
X20403Y21835D1*
X20394Y21883D1*
X20392Y21932D1*
X20398Y21981D1*
X20412Y22029D1*
X20433Y22073D1*
X20460Y22114D1*
X20494Y22149D1*
X20533Y22179D1*
X20577Y22202D1*
X20623Y22218D1*
X20672Y22227D1*
X20721Y22228D1*
X20769Y22221D1*
X20816Y22206D1*
X20851Y22189D1*
X24132D1*
X24114Y22220D1*
X24097Y22267D1*
X24087Y22315D1*
X24086Y22364D1*
X24092Y22413D1*
X24105Y22460D1*
X24124Y22500D1*
X24125Y29082D1*
X22769D1*
X22720Y29086D1*
X22673Y29099D1*
X22629Y29121D1*
X22578Y29161D1*
X21953Y29786D1*
X21922Y29823D1*
X21898Y29866D1*
X21882Y29913D1*
X21874Y29976D1*
Y30833D1*
X21847Y30898D1*
X21837Y30946D1*
X21835Y30996D1*
X21841Y31044D1*
X21855Y31092D1*
X21876Y31136D1*
X21904Y31177D1*
X21938Y31212D1*
X21977Y31242D1*
X22020Y31265D1*
X22066Y31281D1*
X22115Y31290D1*
X22164Y31291D1*
X22213Y31284D1*
X22260Y31269D1*
X22304Y31247D1*
X22344Y31218D1*
X22378Y31184D1*
X22407Y31144D1*
X22430Y31100D1*
X22445Y31053D1*
X22453Y30982D1*
X22449Y30933D1*
X22438Y30886D1*
X22413Y30831D1*
X22414Y30089D1*
X22882Y29620D1*
X23753Y29621D1*
X24244D1*
X24270Y29634D1*
X24317Y29650D1*
X24365Y29659D1*
X24414Y29660D1*
X24463Y29653D1*
X24510Y29638D1*
X24554Y29616D1*
X24594Y29587D1*
X24629Y29553D1*
X24658Y29513D1*
X24680Y29469D1*
X24695Y29422D1*
X24703Y29351D1*
X24699Y29302D1*
X24688Y29255D1*
X24663Y29200D1*
X24664Y28219D1*
Y25314D1*
X25078Y25729D1*
X25116Y25761D1*
X25159Y25785D1*
X25205Y25800D1*
X25269Y25808D1*
X27531D1*
X27624Y25900D1*
X27625Y26685D1*
X27562Y26670D1*
X27513Y26667D1*
X27464Y26672D1*
X27416Y26685D1*
X27371Y26705D1*
X27315Y26745D1*
X25414Y26746D1*
X25386Y26724D1*
X25343Y26699D1*
X25298Y26681D1*
X25250Y26670D1*
X25201Y26667D1*
X25152Y26672D1*
X25104Y26685D1*
X25059Y26705D1*
X25018Y26732D1*
X24982Y26765D1*
X24951Y26803D1*
X24927Y26846D1*
X24910Y26892D1*
X24900Y26941D1*
X24898Y26990D1*
X24904Y27038D1*
X24918Y27086D1*
X24939Y27130D1*
X24967Y27171D1*
X25001Y27206D1*
X25040Y27236D1*
X25083Y27259D1*
X25130Y27276D1*
X25178Y27284D1*
X25227Y27285D1*
X25276Y27278D1*
X25323Y27263D1*
X25367Y27241D1*
X25412Y27207D1*
X27313D1*
X27352Y27236D1*
X27395Y27259D1*
X27442Y27276D1*
X27490Y27284D1*
X27539Y27285D1*
X27588Y27278D1*
X27624Y27266D1*
X27625Y28639D1*
X27597Y28705D1*
X27587Y28753D1*
X27585Y28802D1*
X27591Y28851D1*
X27605Y28898D1*
X27626Y28943D1*
X27654Y28983D1*
X27688Y29019D1*
X27727Y29049D1*
X27770Y29072D1*
X27817Y29088D1*
X27865Y29097D1*
X27914D1*
X27937Y29094D1*
X27938Y29553D1*
X26658Y30831D1*
X24295Y30832D1*
X24235Y30806D1*
X24187Y30795D1*
X24138Y30792D1*
X24089Y30797D1*
X24041Y30810D1*
X23996Y30830D1*
X23955Y30857D1*
X23919Y30890D1*
X23888Y30929D1*
X23864Y30971D1*
X23847Y31017D1*
X23837Y31066D1*
X23835Y31115D1*
X23842Y31164D1*
X23855Y31211D1*
X23876Y31255D1*
X23904Y31296D1*
X23938Y31331D1*
X23977Y31361D1*
X24020Y31385D1*
X24067Y31401D1*
X24115Y31409D1*
X24164Y31410D1*
X24213Y31403D1*
X24260Y31388D1*
X24294Y31371D1*
X26770D1*
X26818Y31367D1*
X26866Y31353D1*
X26910Y31332D1*
X26960Y31292D1*
X28398Y29854D1*
X28429Y29817D1*
X28453Y29774D1*
X28469Y29727D1*
X28477Y29664D1*
Y25227D1*
X28472Y25178D1*
X28459Y25131D1*
X28437Y25087D1*
X28398Y25036D1*
X27442Y24080D1*
X27419Y24022D1*
X27393Y23980D1*
X27361Y23943D1*
X27323Y23912D1*
X27281Y23887D1*
X27235Y23869D1*
X27187Y23858D1*
X27138Y23855D1*
X27089Y23860D1*
X27042Y23873D1*
X26997Y23893D1*
X26955Y23920D1*
X26919Y23953D1*
X26888Y23991D1*
X26864Y24034D1*
X26847Y24080D1*
X26838Y24128D1*
X26836Y24178D1*
X26842Y24226D1*
X26856Y24274D1*
X26877Y24318D1*
X26904Y24359D1*
X26938Y24394D1*
X26977Y24424D1*
X27021Y24447D1*
X27060Y24461D1*
X24295Y30833D2*
X24235Y30806D1*
X24187Y30795D1*
X24138Y30792D1*
X24089Y30797D1*
X24041Y30810D1*
X23996Y30830D1*
X23955Y30857D1*
X23919Y30890D1*
X23888Y30929D1*
X23864Y30971D1*
X23847Y31017D1*
X23837Y31066D1*
X23835Y31115D1*
X23842Y31164D1*
X23855Y31211D1*
X23876Y31255D1*
X23904Y31296D1*
X23938Y31331D1*
X23977Y31361D1*
X24020Y31385D1*
X24067Y31401D1*
X24115Y31409D1*
X24164Y31410D1*
X24213Y31403D1*
X24260Y31388D1*
X24294Y31371D1*
X24245Y29621D2*
X24270Y29634D1*
X24317Y29650D1*
X24365Y29659D1*
X24414Y29660D1*
X24463Y29653D1*
X24510Y29638D1*
X24554Y29616D1*
X24594Y29587D1*
X24629Y29553D1*
X24658Y29513D1*
X24680Y29469D1*
X24695Y29422D1*
X24703Y29351D1*
X24699Y29302D1*
X24688Y29255D1*
X24663Y29200D1*
X21537Y34121D2*
X26431D1*
X26504Y34151D1*
X26553Y34159D1*
X26602Y34160D1*
X26651Y34153D1*
X26698Y34138D1*
X26741Y34116D1*
X26781Y34088D1*
X26816Y34053D1*
X26845Y34013D1*
X26868Y33970D1*
X26883Y33923D1*
X26891Y33852D1*
X26887Y33803D1*
X26875Y33755D1*
X26856Y33710D1*
X26830Y33668D1*
X26798Y33631D1*
X26760Y33599D1*
X26718Y33574D1*
X26683Y33559D1*
X29243D1*
X29317Y33588D1*
X29366Y33597D1*
X29415Y33598D1*
X29463Y33590D1*
X29510Y33576D1*
X29554Y33554D1*
X29594Y33525D1*
X29629Y33491D1*
X29658Y33451D1*
X29680Y33407D1*
X29696Y33360D1*
X29704Y33289D1*
X29700Y33240D1*
X29688Y33192D1*
X29669Y33147D1*
X29643Y33105D1*
X29611Y33068D1*
X29573Y33037D1*
X29531Y33012D1*
X29485Y32994D1*
X29437Y32983D1*
X29388Y32980D1*
X29339Y32985D1*
X29292Y32998D1*
X29243Y33020D1*
X28115Y33019D1*
X19108D1*
X19047Y32994D1*
X18999Y32983D1*
X18950Y32980D1*
X18901Y32985D1*
X18853Y32998D1*
X18808Y33018D1*
X18767Y33045D1*
X18731Y33078D1*
X18700Y33116D1*
X18676Y33159D1*
X18659Y33205D1*
X18649Y33253D1*
X18647Y33302D1*
X18653Y33351D1*
X18667Y33398D1*
X18688Y33443D1*
X18716Y33484D1*
X18750Y33519D1*
X18789Y33549D1*
X18832Y33572D1*
X18879Y33588D1*
X18927Y33597D1*
X18976Y33598D1*
X19025Y33590D1*
X19072Y33576D1*
X19106Y33559D1*
X21285Y33560D1*
X21240Y33580D1*
X21199Y33607D1*
X21163Y33640D1*
X21132Y33679D1*
X21108Y33722D1*
X21091Y33768D1*
X21081Y33816D1*
X21079Y33865D1*
X21085Y33914D1*
X21099Y33961D1*
X21120Y34005D1*
X21148Y34046D1*
X21182Y34082D1*
X21221Y34112D1*
X21264Y34135D1*
X21311Y34151D1*
X21359Y34159D1*
X21408Y34160D1*
X21457Y34153D1*
X21504Y34138D1*
X21538Y34121D1*
X31331Y33041D2*
D14*
Y32061D1*
X30841Y32551D2*
X31821D1*
X31331Y34041D2*
Y33061D1*
X30841Y33551D2*
X31821D1*
X25027Y28737D2*
Y28467D1*
X24758D2*
X25027D1*
Y28074D2*
Y27804D1*
X24758Y28074D2*
X25027D1*
X25618Y28737D2*
Y28467D1*
X25887D1*
X25323Y28540D2*
Y28001D1*
X25618Y28074D2*
Y27804D1*
Y28074D2*
X25887D1*
X24766Y28830D2*
D15*
X26148D1*
X24766Y28733D2*
X26148D1*
X24766Y28636D2*
X26148D1*
X24766Y28539D2*
X26148D1*
X24766Y28442D2*
X26148D1*
X24766Y28344D2*
X26148D1*
X24766Y28247D2*
X26148D1*
X24766Y28150D2*
X26148D1*
X24766Y28053D2*
X26148D1*
X24766Y27956D2*
X26148D1*
X24766Y27859D2*
X26148D1*
X26108Y28927D2*
X24756D1*
Y27776D1*
X26157D1*
Y28927D1*
X26108D1*
D21*
X10858Y17287D3*
D22*
Y38886D3*
D26*
X15583Y25551D3*
D27*
Y26551D3*
Y27551D3*
Y28551D3*
Y29551D3*
Y30551D3*
Y31551D3*
Y32551D3*
Y33551D3*
Y34551D3*
Y35551D3*
Y36551D3*
D26*
X31331Y25551D3*
D27*
Y26551D3*
Y27551D3*
Y28551D3*
Y29551D3*
Y30551D3*
Y31551D3*
Y32551D3*
Y33551D3*
Y34551D3*
Y35551D3*
Y36551D3*
D34*
X25027Y28467D3*
Y28074D3*
X25618Y28467D3*
X25323Y28271D3*
X25618Y28074D3*
D21*
X36055Y17287D3*
D22*
Y38886D3*
M02*
