G04 DipTrace 2.4.0.2*
%INTopMask.gbr*%
%MOIN*%
%ADD43C,0.1252*%
%ADD44C,0.0929*%
%ADD45C,0.0236*%
%ADD51R,0.0354X0.0555*%
%ADD53R,0.0469X0.0311*%
%ADD55R,0.0449X0.0331*%
%ADD57R,0.1039X0.2732*%
%ADD59R,0.0843X0.0291*%
%ADD61C,0.0252*%
%ADD63R,0.039X0.0606*%
%ADD65R,0.0311X0.0469*%
%ADD67R,0.037X0.0409*%
%ADD69R,0.0606X0.0429*%
%ADD71C,0.0693*%
%ADD73R,0.0693X0.0693*%
%ADD75R,0.0429X0.0606*%
%ADD77R,0.0409X0.037*%
%ADD79C,0.0803*%
%ADD81R,0.0803X0.0803*%
%FSLAX44Y44*%
G04*
G70*
G90*
G75*
G01*
%LNTopMask*%
%LPD*%
D81*
X10858Y17287D3*
D79*
Y38886D3*
D43*
Y21287D3*
Y34886D3*
D44*
X7917Y17287D3*
D77*
X27582Y30601D3*
Y30090D3*
D75*
X24373Y23601D3*
X23644D3*
D73*
X15583Y25551D3*
D71*
Y26551D3*
Y27551D3*
Y28551D3*
Y29551D3*
Y30551D3*
Y31551D3*
Y32551D3*
Y33551D3*
Y34551D3*
Y35551D3*
Y36551D3*
D73*
X31331Y25551D3*
D71*
Y26551D3*
Y27551D3*
Y28551D3*
Y29551D3*
Y30551D3*
Y31551D3*
Y32551D3*
Y33551D3*
Y34551D3*
Y35551D3*
Y36551D3*
D69*
X26321Y30362D3*
Y31091D3*
D75*
X21456Y36289D3*
X22185D3*
D67*
X25519Y30351D3*
X24929D3*
X24144Y31976D3*
X24735D3*
D65*
X19956Y34102D3*
X20704D3*
X20330Y35007D3*
D63*
X23801Y18850D3*
X23112D3*
D65*
X27971Y32243D3*
X27223D3*
X27597Y31337D3*
G36*
X25602Y28760D2*
X25595Y28727D1*
X25574Y28700D1*
X25549Y28686D1*
X25519Y28681D1*
X25490Y28686D1*
X25465Y28700D1*
X25444Y28728D1*
X25437Y28760D1*
Y29021D1*
X25602D1*
Y28760D1*
G37*
G36*
X25405D2*
X25398Y28727D1*
X25377Y28700D1*
X25352Y28686D1*
X25323Y28681D1*
X25293Y28686D1*
X25268Y28700D1*
X25247Y28728D1*
X25240Y28760D1*
Y29021D1*
X25405D1*
Y28760D1*
G37*
G36*
X25208D2*
X25201Y28727D1*
X25180Y28700D1*
X25155Y28686D1*
X25126Y28681D1*
X25096Y28686D1*
X25071Y28700D1*
X25050Y28728D1*
X25043Y28760D1*
Y29021D1*
X25208D1*
Y28760D1*
G37*
G36*
X25012D2*
X25004Y28727D1*
X24983Y28700D1*
X24959Y28686D1*
X24929Y28681D1*
X24899Y28686D1*
X24875Y28700D1*
X24853Y28728D1*
X24846Y28760D1*
Y29021D1*
X25012D1*
Y28760D1*
G37*
G36*
X24846Y27761D2*
X24853Y27794D1*
X24875Y27822D1*
X24899Y27836D1*
X24929Y27841D1*
X24959Y27836D1*
X24983Y27822D1*
X25005Y27794D1*
X25012Y27761D1*
Y27500D1*
X24846D1*
Y27761D1*
G37*
G36*
X25043D2*
X25050Y27794D1*
X25072Y27822D1*
X25096Y27836D1*
X25126Y27841D1*
X25156Y27836D1*
X25180Y27822D1*
X25201Y27794D1*
X25208Y27761D1*
Y27500D1*
X25043D1*
Y27761D1*
G37*
G36*
X25240D2*
X25247Y27794D1*
X25268Y27822D1*
X25293Y27836D1*
X25323Y27841D1*
X25352Y27836D1*
X25377Y27822D1*
X25398Y27794D1*
X25405Y27761D1*
Y27500D1*
X25240D1*
Y27761D1*
G37*
G36*
X25437D2*
X25444Y27794D1*
X25465Y27822D1*
X25490Y27836D1*
X25519Y27841D1*
X25549Y27836D1*
X25574Y27822D1*
X25595Y27794D1*
X25602Y27761D1*
Y27500D1*
X25437D1*
Y27761D1*
G37*
G36*
X25634D2*
X25641Y27794D1*
X25662Y27822D1*
X25687Y27836D1*
X25716Y27841D1*
X25746Y27836D1*
X25771Y27822D1*
X25792Y27794D1*
X25799Y27761D1*
Y27500D1*
X25634D1*
Y27761D1*
G37*
D61*
X25027Y28467D3*
G36*
X25823Y28623D2*
X24823D1*
Y28463D1*
X24547D1*
Y28298D1*
X24823D1*
Y28243D1*
X24547D1*
Y28078D1*
X24823D1*
Y27918D1*
X25823D1*
Y28078D1*
X26098D1*
Y28243D1*
X25823D1*
Y28298D1*
X26098D1*
Y28463D1*
X25823D1*
Y28623D1*
G37*
G36*
X25799Y28760D2*
X25792Y28727D1*
X25770Y28700D1*
X25746Y28686D1*
X25716Y28681D1*
X25686Y28686D1*
X25662Y28700D1*
X25641Y28728D1*
X25634Y28760D1*
Y29021D1*
X25799D1*
Y28760D1*
G37*
D61*
X25027Y28074D3*
X25618Y28467D3*
X25323Y28271D3*
X25618Y28074D3*
D59*
X25707Y33352D3*
Y33852D3*
Y34352D3*
Y34852D3*
X23581D3*
Y34352D3*
Y33852D3*
Y33352D3*
D57*
X24332Y25601D3*
X26207D3*
D65*
X22598Y31025D3*
X23346D3*
X22972Y31930D3*
D77*
X28395Y25351D3*
Y24839D3*
Y26539D3*
Y26027D3*
D67*
X21263Y33033D3*
X21775D3*
X21456Y35039D3*
X21968D3*
X21587Y30982D3*
X21076D3*
D77*
X27145Y22862D3*
Y22351D3*
D67*
X27650Y29392D3*
X27138D3*
D55*
X26272Y17682D3*
Y17012D3*
X28516Y17682D3*
Y17012D3*
D45*
X27394Y17878D3*
Y16815D3*
D55*
X18398Y17663D3*
Y16993D3*
X20642Y17663D3*
Y16993D3*
D45*
X19520Y17859D3*
Y16796D3*
D53*
X19894Y31977D3*
Y32725D3*
X18988Y32351D3*
D77*
X18956Y33852D3*
Y34364D3*
D67*
X21581Y31914D3*
X21070D3*
D51*
X28895Y31351D3*
X29395D3*
Y34351D3*
X28895D3*
D77*
X23082Y28289D3*
Y27777D3*
X23088Y28908D3*
Y29420D3*
D81*
X36055Y17287D3*
D79*
Y38886D3*
D43*
Y21287D3*
Y34886D3*
D44*
X33114Y17287D3*
M02*
