G04 DipTrace 2.4.0.2*
%INTopPaste.gbr*%
%MOIN*%
%ADD52R,0.022X0.0421*%
%ADD54R,0.0335X0.0177*%
%ADD56R,0.0315X0.0197*%
%ADD58R,0.0906X0.2598*%
%ADD60R,0.0709X0.0157*%
%ADD64R,0.0256X0.0472*%
%ADD66R,0.0177X0.0335*%
%ADD68R,0.0236X0.0276*%
%ADD70R,0.0472X0.0295*%
%ADD76R,0.0295X0.0472*%
%ADD78R,0.0276X0.0236*%
%FSLAX44Y44*%
G04*
G70*
G90*
G75*
G01*
%LNTopPaste*%
%LPD*%
D78*
X27582Y30601D3*
Y30090D3*
D76*
X24373Y23601D3*
X23644D3*
D70*
X26321Y30362D3*
Y31091D3*
D76*
X21456Y36289D3*
X22185D3*
D68*
X25519Y30351D3*
X24929D3*
X24144Y31976D3*
X24735D3*
D66*
X19956Y34102D3*
X20704D3*
X20330Y35007D3*
D64*
X23801Y18850D3*
X23112D3*
D66*
X27971Y32243D3*
X27223D3*
X27597Y31337D3*
G36*
X25535Y28768D2*
X25533Y28756D1*
X25529Y28751D1*
X25526Y28750D1*
X25519Y28749D1*
X25512Y28750D1*
X25510Y28751D1*
X25506Y28756D1*
X25504Y28768D1*
Y28955D1*
X25535D1*
Y28768D1*
G37*
G36*
X25338D2*
X25336Y28756D1*
X25332Y28751D1*
X25329Y28750D1*
X25323Y28749D1*
X25315Y28750D1*
X25313Y28751D1*
X25309Y28756D1*
X25307Y28768D1*
Y28955D1*
X25338D1*
Y28768D1*
G37*
G36*
X25141D2*
X25139Y28756D1*
X25135Y28751D1*
X25133Y28750D1*
X25126Y28749D1*
X25119Y28750D1*
X25116Y28751D1*
X25112Y28756D1*
X25110Y28768D1*
Y28955D1*
X25141D1*
Y28768D1*
G37*
G36*
X24945D2*
X24942Y28756D1*
X24938Y28751D1*
X24936Y28750D1*
X24929Y28749D1*
X24922Y28750D1*
X24919Y28751D1*
X24916Y28756D1*
X24913Y28768D1*
Y28955D1*
X24945D1*
Y28768D1*
G37*
G36*
X24913Y27754D2*
X24916Y27765D1*
X24919Y27770D1*
X24922Y27772D1*
X24929Y27773D1*
X24936Y27772D1*
X24938Y27770D1*
X24942Y27765D1*
X24945Y27754D1*
Y27567D1*
X24913D1*
Y27754D1*
G37*
G36*
X25110D2*
X25112Y27765D1*
X25116Y27770D1*
X25119Y27772D1*
X25126Y27773D1*
X25133Y27772D1*
X25135Y27770D1*
X25139Y27765D1*
X25141Y27754D1*
Y27567D1*
X25110D1*
Y27754D1*
G37*
G36*
X25307D2*
X25309Y27765D1*
X25313Y27770D1*
X25316Y27772D1*
X25323Y27773D1*
X25330Y27772D1*
X25332Y27770D1*
X25336Y27765D1*
X25338Y27754D1*
Y27567D1*
X25307D1*
Y27754D1*
G37*
G36*
X25504D2*
X25506Y27765D1*
X25510Y27770D1*
X25513Y27772D1*
X25519Y27773D1*
X25526Y27772D1*
X25529Y27770D1*
X25533Y27765D1*
X25535Y27754D1*
Y27567D1*
X25504D1*
Y27754D1*
G37*
G36*
X25701D2*
X25703Y27765D1*
X25707Y27770D1*
X25709Y27772D1*
X25716Y27773D1*
X25723Y27772D1*
X25726Y27770D1*
X25730Y27765D1*
X25732Y27754D1*
Y27567D1*
X25701D1*
Y27754D1*
G37*
G36*
X25756Y28556D2*
X24889D1*
Y28397D1*
X24614D1*
Y28365D1*
X24889D1*
Y28176D1*
X24614D1*
Y28145D1*
X24889D1*
Y27985D1*
X25756D1*
Y28145D1*
X26031D1*
Y28176D1*
X25756D1*
Y28365D1*
X26031D1*
Y28397D1*
X25756D1*
Y28556D1*
G37*
G36*
X25732Y28768D2*
X25730Y28756D1*
X25726Y28751D1*
X25723Y28750D1*
X25716Y28749D1*
X25709Y28750D1*
X25707Y28751D1*
X25703Y28756D1*
X25701Y28768D1*
Y28955D1*
X25732D1*
Y28768D1*
G37*
D60*
X25707Y33352D3*
Y33852D3*
Y34352D3*
Y34852D3*
X23581D3*
Y34352D3*
Y33852D3*
Y33352D3*
D58*
X24332Y25601D3*
X26207D3*
D66*
X22598Y31025D3*
X23346D3*
X22972Y31930D3*
D78*
X28395Y25351D3*
Y24839D3*
Y26539D3*
Y26027D3*
D68*
X21263Y33033D3*
X21775D3*
X21456Y35039D3*
X21968D3*
X21587Y30982D3*
X21076D3*
D78*
X27145Y22862D3*
Y22351D3*
D68*
X27650Y29392D3*
X27138D3*
D56*
X26272Y17682D3*
Y17012D3*
X28516Y17682D3*
Y17012D3*
X18398Y17663D3*
Y16993D3*
X20642Y17663D3*
Y16993D3*
D54*
X19894Y31977D3*
Y32725D3*
X18988Y32351D3*
D78*
X18956Y33852D3*
Y34364D3*
D68*
X21581Y31914D3*
X21070D3*
D52*
X28895Y31351D3*
X29395D3*
Y34351D3*
X28895D3*
D78*
X23082Y28289D3*
Y27777D3*
X23088Y28908D3*
Y29420D3*
M02*
