G04 DipTrace 2.4.0.2*
%INTopSilk.gbr*%
%MOIN*%
%ADD10C,0.0079*%
%ADD20C,0.0315*%
%ADD23C,0.0059*%
%ADD30C,0.0154*%
%ADD33C,0.0157*%
%ADD83C,0.0062*%
%ADD84C,0.0093*%
%ADD85C,0.0077*%
%FSLAX44Y44*%
G04*
G70*
G90*
G75*
G01*
%LNTopSilk*%
%LPD*%
D20*
X10858Y16004D3*
X7610Y18150D2*
D10*
Y39665D1*
X14106D1*
Y16437D1*
X7610D1*
X27916Y30838D2*
D23*
X27247D1*
Y29853D1*
X27916D1*
Y30838D1*
X24638Y23187D2*
X23378D1*
Y24014D1*
X24638D1*
Y23187D1*
X15091Y24953D2*
D10*
X16075D1*
Y37150D1*
X15091D1*
Y24953D1*
X30839D2*
X31823D1*
Y37150D1*
X30839D1*
Y24953D1*
X25907Y30096D2*
D23*
X26734D1*
Y31356D1*
X25907D1*
Y30096D1*
X21191Y36703D2*
X22451D1*
Y35876D1*
X21191D1*
Y36703D1*
X25755Y30056D2*
X24692D1*
Y30647D1*
X25755D1*
Y30056D1*
X23908Y32272D2*
X24971D1*
Y31681D1*
X23908D1*
Y32272D1*
D30*
X19648Y33955D3*
X19740Y34456D2*
D10*
X20921D1*
Y34653D1*
X19740D1*
Y34456D1*
X24047Y18437D2*
D23*
X22866D1*
Y19264D1*
X24047D1*
Y18437D1*
G36*
X23582Y19100D2*
Y18600D1*
X23332Y18850D1*
D1*
X23582Y19100D1*
G37*
D30*
X28280Y32390D3*
X28188Y31888D2*
D10*
X27007D1*
Y31692D1*
X28188D1*
Y31888D1*
X25933Y27660D2*
Y27995D1*
D33*
Y28881D3*
X24712Y27660D2*
D10*
Y27995D1*
Y28546D2*
Y28881D1*
X25933Y27660D2*
X25874D1*
X24732Y27658D2*
X24771Y27660D1*
X24712Y28881D2*
X24771D1*
X25933Y28546D2*
Y28682D1*
X25156Y33117D2*
Y35086D1*
X24132Y33117D2*
Y35086D1*
X25156D2*
X24132D1*
X24841Y33117D2*
X25156D1*
X24447D2*
X24132D1*
X24841D2*
G03X24447Y33117I-197J0D01*
G01*
X24894Y26976D2*
X25644D1*
X24894Y24226D2*
X25644D1*
D30*
X22289Y30878D3*
X22381Y31379D2*
D10*
X23562D1*
Y31576D1*
X22381D1*
Y31379D1*
X28729Y25587D2*
D23*
X28060D1*
Y24603D1*
X28729D1*
Y25587D1*
Y26775D2*
X28060D1*
Y25790D1*
X28729D1*
Y26775D1*
X21027Y33368D2*
X22011D1*
Y32699D1*
X21027D1*
Y33368D1*
X21220Y35374D2*
X22205D1*
Y34705D1*
X21220D1*
Y35374D1*
X21824Y30648D2*
X20839D1*
Y31317D1*
X21824D1*
Y30648D1*
X27479Y23099D2*
X26810D1*
Y22114D1*
X27479D1*
Y23099D1*
X27886Y29057D2*
X26902D1*
Y29726D1*
X27886D1*
Y29057D1*
X26449Y16638D2*
D10*
X28339D1*
X26449Y18056D2*
X28339D1*
X26449D2*
Y17910D1*
Y17472D2*
Y17222D1*
Y16638D2*
Y16784D1*
X28339Y18056D2*
Y17910D1*
Y17472D2*
Y17222D1*
Y16638D2*
Y16784D1*
X26882Y16264D2*
X27905D1*
X26882D2*
Y16638D1*
X27905Y16264D2*
Y16638D1*
X18575Y16619D2*
X20465D1*
X18575Y18037D2*
X20465D1*
X18575D2*
Y17891D1*
Y17453D2*
Y17203D1*
Y16619D2*
Y16765D1*
X20465Y18037D2*
Y17891D1*
Y17453D2*
Y17203D1*
Y16619D2*
Y16765D1*
X19008Y16245D2*
X20031D1*
X19008D2*
Y16619D1*
X20031Y16245D2*
Y16619D1*
D30*
X20041Y31668D3*
X19539Y31760D2*
D10*
Y32941D1*
X19343D1*
Y31760D1*
X19539D1*
X18622Y33615D2*
D23*
X19291D1*
Y34600D1*
X18622D1*
Y33615D1*
X21818Y31579D2*
X20833D1*
Y32249D1*
X21818D1*
Y31579D1*
X28436Y31727D2*
D10*
X29853D1*
Y33976D1*
X28436D1*
Y31727D1*
Y31976D2*
X29853D1*
Y33727D1*
X28436D1*
Y31976D1*
X28770Y32226D2*
X29020D1*
Y32477D1*
X28770D1*
Y32226D1*
X29270D2*
X29520D1*
Y32477D1*
X29270D1*
Y32226D1*
D33*
X28594Y31277D3*
X23416Y28525D2*
D23*
X22747D1*
Y27541D1*
X23416D1*
Y28525D1*
X22753Y28672D2*
X23422D1*
Y29656D1*
X22753D1*
Y28672D1*
D20*
X36055Y16004D3*
X32807Y18150D2*
D10*
Y39665D1*
X39303D1*
Y16437D1*
X32807D1*
X15143Y39477D2*
X21269D1*
Y37665D1*
X15143D1*
Y39477D1*
X14387Y39501D2*
D83*
Y39195D1*
X14372Y39138D1*
X14356Y39119D1*
X14326Y39099D1*
X14295D1*
X14265Y39119D1*
X14249Y39138D1*
X14234Y39195D1*
Y39233D1*
X14517Y39501D2*
X14685D1*
X14593Y39348D1*
X14639D1*
X14669Y39329D1*
X14685Y39310D1*
X14700Y39252D1*
Y39214D1*
X14685Y39157D1*
X14654Y39118D1*
X14608Y39099D1*
X14562D1*
X14517Y39118D1*
X14501Y39138D1*
X14486Y39176D1*
X28290Y29901D2*
Y30038D1*
X28271Y30084D1*
X28252Y30100D1*
X28214Y30115D1*
X28175D1*
X28137Y30100D1*
X28118Y30084D1*
X28099Y30038D1*
Y29901D1*
X28501D1*
X28290Y30008D2*
X28501Y30115D1*
X28176Y30214D2*
X28156Y30244D1*
X28099Y30290D1*
X28501D1*
X25092Y23754D2*
X25076Y23792D1*
X25046Y23831D1*
X25015Y23850D1*
X24954D1*
X24923Y23831D1*
X24893Y23792D1*
X24877Y23754D1*
X24862Y23697D1*
Y23601D1*
X24877Y23544D1*
X24893Y23505D1*
X24923Y23467D1*
X24954Y23448D1*
X25015D1*
X25046Y23467D1*
X25076Y23505D1*
X25092Y23544D1*
X25221Y23849D2*
X25389D1*
X25298Y23696D1*
X25344D1*
X25374Y23677D1*
X25389Y23658D1*
X25405Y23601D1*
Y23563D1*
X25389Y23505D1*
X25359Y23467D1*
X25313Y23448D1*
X25267D1*
X25221Y23467D1*
X25206Y23486D1*
X25190Y23524D1*
X15509Y24798D2*
Y24492D1*
X15494Y24434D1*
X15478Y24415D1*
X15448Y24396D1*
X15417D1*
X15387Y24415D1*
X15371Y24434D1*
X15356Y24492D1*
Y24530D1*
X15608Y24721D2*
X15639Y24740D1*
X15685Y24797D1*
Y24396D1*
X31126Y24798D2*
Y24492D1*
X31110Y24434D1*
X31095Y24415D1*
X31064Y24396D1*
X31034D1*
X31003Y24415D1*
X30988Y24434D1*
X30973Y24492D1*
Y24530D1*
X31240Y24702D2*
Y24721D1*
X31255Y24759D1*
X31270Y24778D1*
X31301Y24797D1*
X31362D1*
X31393Y24778D1*
X31408Y24759D1*
X31424Y24721D1*
Y24683D1*
X31408Y24644D1*
X31378Y24587D1*
X31225Y24396D1*
X31439D1*
X26296Y29904D2*
X26280Y29942D1*
X26250Y29980D1*
X26219Y30000D1*
X26158D1*
X26127Y29980D1*
X26097Y29942D1*
X26081Y29904D1*
X26066Y29847D1*
Y29751D1*
X26081Y29694D1*
X26097Y29655D1*
X26127Y29617D1*
X26158Y29598D1*
X26219D1*
X26250Y29617D1*
X26280Y29655D1*
X26296Y29694D1*
X26547Y29598D2*
Y29999D1*
X26394Y29732D1*
X26624D1*
X20662Y36568D2*
X20646Y36606D1*
X20616Y36645D1*
X20585Y36664D1*
X20524D1*
X20493Y36645D1*
X20463Y36606D1*
X20447Y36568D1*
X20432Y36511D1*
Y36415D1*
X20447Y36358D1*
X20463Y36319D1*
X20493Y36281D1*
X20524Y36262D1*
X20585D1*
X20616Y36281D1*
X20646Y36319D1*
X20662Y36358D1*
X20944Y36606D2*
X20929Y36644D1*
X20883Y36663D1*
X20852D1*
X20806Y36644D1*
X20776Y36587D1*
X20760Y36491D1*
Y36396D1*
X20776Y36319D1*
X20806Y36281D1*
X20852Y36262D1*
X20868D1*
X20913Y36281D1*
X20944Y36319D1*
X20959Y36377D1*
Y36396D1*
X20944Y36453D1*
X20913Y36491D1*
X20868Y36510D1*
X20852D1*
X20806Y36491D1*
X20776Y36453D1*
X20760Y36396D1*
X25182Y31137D2*
X25167Y31175D1*
X25136Y31213D1*
X25106Y31232D1*
X25045D1*
X25014Y31213D1*
X24983Y31175D1*
X24968Y31137D1*
X24953Y31079D1*
Y30984D1*
X24968Y30926D1*
X24983Y30888D1*
X25014Y30850D1*
X25045Y30831D1*
X25106D1*
X25136Y30850D1*
X25167Y30888D1*
X25182Y30926D1*
X25465Y31232D2*
X25312D1*
X25296Y31060D1*
X25312Y31079D1*
X25358Y31098D1*
X25403D1*
X25449Y31079D1*
X25480Y31041D1*
X25495Y30984D1*
Y30945D1*
X25480Y30888D1*
X25449Y30850D1*
X25403Y30831D1*
X25358D1*
X25312Y30850D1*
X25296Y30869D1*
X25281Y30907D1*
X24398Y32762D2*
X24382Y32800D1*
X24352Y32838D1*
X24321Y32857D1*
X24260D1*
X24229Y32838D1*
X24199Y32800D1*
X24183Y32762D1*
X24168Y32704D1*
Y32609D1*
X24183Y32551D1*
X24199Y32513D1*
X24229Y32475D1*
X24260Y32456D1*
X24321D1*
X24352Y32475D1*
X24382Y32513D1*
X24398Y32551D1*
X24558Y32456D2*
X24711Y32857D1*
X24496D1*
X19357Y35300D2*
Y34898D1*
X19464D1*
X19510Y34917D1*
X19541Y34955D1*
X19556Y34994D1*
X19571Y35051D1*
Y35147D1*
X19556Y35204D1*
X19541Y35242D1*
X19510Y35281D1*
X19464Y35300D1*
X19357D1*
X19854Y35299D2*
X19701D1*
X19686Y35127D1*
X19701Y35146D1*
X19747Y35166D1*
X19793D1*
X19839Y35146D1*
X19869Y35108D1*
X19885Y35051D1*
Y35013D1*
X19869Y34955D1*
X19839Y34917D1*
X19793Y34898D1*
X19747D1*
X19701Y34917D1*
X19686Y34936D1*
X19670Y34974D1*
X23248Y19787D2*
Y19385D1*
X23355D1*
X23401Y19405D1*
X23432Y19443D1*
X23447Y19481D1*
X23462Y19538D1*
Y19634D1*
X23447Y19692D1*
X23432Y19730D1*
X23401Y19768D1*
X23355Y19787D1*
X23248D1*
X23714Y19385D2*
Y19787D1*
X23561Y19519D1*
X23791D1*
X27168Y33178D2*
Y32776D1*
X27275D1*
X27321Y32795D1*
X27352Y32833D1*
X27367Y32872D1*
X27382Y32929D1*
Y33025D1*
X27367Y33082D1*
X27352Y33120D1*
X27321Y33159D1*
X27275Y33178D1*
X27168D1*
X27512Y33177D2*
X27680D1*
X27588Y33024D1*
X27634D1*
X27665Y33005D1*
X27680Y32986D1*
X27696Y32929D1*
Y32891D1*
X27680Y32833D1*
X27650Y32795D1*
X27604Y32776D1*
X27558D1*
X27512Y32795D1*
X27497Y32814D1*
X27481Y32852D1*
X26252Y27580D2*
Y27178D1*
X26580Y27484D2*
X26565Y27522D1*
X26534Y27561D1*
X26504Y27580D1*
X26443D1*
X26412Y27561D1*
X26381Y27522D1*
X26366Y27484D1*
X26351Y27427D1*
Y27331D1*
X26366Y27274D1*
X26381Y27235D1*
X26412Y27197D1*
X26443Y27178D1*
X26504D1*
X26534Y27197D1*
X26565Y27235D1*
X26580Y27274D1*
X26695Y27484D2*
Y27503D1*
X26710Y27541D1*
X26725Y27560D1*
X26756Y27579D1*
X26817D1*
X26847Y27560D1*
X26863Y27541D1*
X26878Y27503D1*
Y27465D1*
X26863Y27426D1*
X26832Y27369D1*
X26679Y27178D1*
X26893D1*
X24323Y35672D2*
Y35270D1*
X24652Y35576D2*
X24636Y35614D1*
X24606Y35653D1*
X24575Y35672D1*
X24514D1*
X24483Y35653D1*
X24453Y35614D1*
X24437Y35576D1*
X24422Y35519D1*
Y35423D1*
X24437Y35366D1*
X24453Y35327D1*
X24483Y35289D1*
X24514Y35270D1*
X24575D1*
X24606Y35289D1*
X24636Y35327D1*
X24652Y35366D1*
X24781Y35671D2*
X24949D1*
X24858Y35518D1*
X24904D1*
X24934Y35499D1*
X24949Y35480D1*
X24965Y35423D1*
Y35385D1*
X24949Y35327D1*
X24919Y35289D1*
X24873Y35270D1*
X24827D1*
X24781Y35289D1*
X24766Y35308D1*
X24750Y35346D1*
X25090Y27562D2*
Y27160D1*
X25273D1*
X25372Y27485D2*
X25403Y27504D1*
X25449Y27561D1*
Y27160D1*
X23325Y32348D2*
X23295Y32329D1*
X23264Y32291D1*
X23249Y32252D1*
X23233Y32195D1*
Y32099D1*
X23249Y32042D1*
X23264Y32004D1*
X23295Y31965D1*
X23325Y31946D1*
X23386D1*
X23417Y31965D1*
X23448Y32004D1*
X23463Y32042D1*
X23478Y32099D1*
Y32195D1*
X23463Y32252D1*
X23448Y32291D1*
X23417Y32329D1*
X23386Y32348D1*
X23325D1*
X23371Y32023D2*
X23463Y31908D1*
X23608Y32347D2*
X23776D1*
X23684Y32194D1*
X23730D1*
X23761Y32175D1*
X23776Y32156D1*
X23792Y32099D1*
Y32061D1*
X23776Y32003D1*
X23746Y31965D1*
X23700Y31946D1*
X23654D1*
X23608Y31965D1*
X23593Y31984D1*
X23577Y32022D1*
X29166Y24831D2*
Y24969D1*
X29146Y25015D1*
X29127Y25030D1*
X29089Y25046D1*
X29051D1*
X29013Y25030D1*
X28993Y25015D1*
X28974Y24969D1*
Y24831D1*
X29376D1*
X29166Y24938D2*
X29376Y25046D1*
X28975Y25328D2*
Y25175D1*
X29147Y25160D1*
X29128Y25175D1*
X29108Y25221D1*
Y25267D1*
X29128Y25313D1*
X29166Y25344D1*
X29223Y25359D1*
X29261D1*
X29319Y25344D1*
X29357Y25313D1*
X29376Y25267D1*
Y25221D1*
X29357Y25175D1*
X29338Y25160D1*
X29300Y25144D1*
X29166Y26027D2*
Y26164D1*
X29146Y26210D1*
X29127Y26226D1*
X29089Y26241D1*
X29051D1*
X29013Y26226D1*
X28993Y26210D1*
X28974Y26164D1*
Y26027D1*
X29376D1*
X29166Y26134D2*
X29376Y26241D1*
X29032Y26523D2*
X28994Y26508D1*
X28975Y26462D1*
Y26432D1*
X28994Y26386D1*
X29051Y26355D1*
X29147Y26340D1*
X29242D1*
X29319Y26355D1*
X29357Y26386D1*
X29376Y26432D1*
Y26447D1*
X29357Y26493D1*
X29319Y26523D1*
X29261Y26539D1*
X29242D1*
X29185Y26523D1*
X29147Y26493D1*
X29128Y26447D1*
Y26432D1*
X29147Y26386D1*
X29185Y26355D1*
X29242Y26340D1*
X21167Y33762D2*
X21305D1*
X21351Y33782D1*
X21367Y33801D1*
X21382Y33839D1*
Y33877D1*
X21367Y33915D1*
X21351Y33935D1*
X21305Y33954D1*
X21167D1*
Y33552D1*
X21275Y33762D2*
X21382Y33552D1*
X21481Y33877D2*
X21511Y33896D1*
X21557Y33953D1*
Y33552D1*
X21687Y33953D2*
X21855D1*
X21763Y33800D1*
X21809D1*
X21840Y33781D1*
X21855Y33762D1*
X21871Y33705D1*
Y33667D1*
X21855Y33609D1*
X21825Y33571D1*
X21779Y33552D1*
X21733D1*
X21687Y33571D1*
X21672Y33590D1*
X21656Y33628D1*
X22228Y35018D2*
X22366D1*
X22412Y35038D1*
X22427Y35057D1*
X22443Y35095D1*
Y35133D1*
X22427Y35171D1*
X22412Y35191D1*
X22366Y35210D1*
X22228D1*
Y34808D1*
X22335Y35018D2*
X22443Y34808D1*
X22541Y35133D2*
X22572Y35152D1*
X22618Y35209D1*
Y34808D1*
X22870D2*
Y35209D1*
X22717Y34942D1*
X22947D1*
X20105Y30961D2*
X20243D1*
X20289Y30981D1*
X20304Y31000D1*
X20319Y31038D1*
Y31076D1*
X20304Y31114D1*
X20289Y31134D1*
X20243Y31153D1*
X20105D1*
Y30751D1*
X20212Y30961D2*
X20319Y30751D1*
X20418Y31076D2*
X20449Y31095D1*
X20495Y31152D1*
Y30751D1*
X20686Y31152D2*
X20640Y31133D1*
X20609Y31076D1*
X20594Y30980D1*
Y30923D1*
X20609Y30827D1*
X20640Y30770D1*
X20686Y30751D1*
X20716D1*
X20762Y30770D1*
X20792Y30827D1*
X20808Y30923D1*
Y30980D1*
X20792Y31076D1*
X20762Y31133D1*
X20716Y31152D1*
X20686D1*
X20792Y31076D2*
X20609Y30827D1*
X26416Y22255D2*
Y22393D1*
X26396Y22439D1*
X26377Y22454D1*
X26339Y22469D1*
X26301D1*
X26263Y22454D1*
X26243Y22439D1*
X26224Y22393D1*
Y22255D1*
X26626D1*
X26416Y22362D2*
X26626Y22469D1*
X26301Y22568D2*
X26282Y22599D1*
X26225Y22645D1*
X26626D1*
X26320Y22759D2*
X26301D1*
X26263Y22774D1*
X26244Y22790D1*
X26225Y22820D1*
Y22882D1*
X26244Y22912D1*
X26263Y22927D1*
X26301Y22943D1*
X26339D1*
X26378Y22927D1*
X26435Y22897D1*
X26626Y22744D1*
Y22958D1*
X27185Y28683D2*
X27322D1*
X27368Y28703D1*
X27384Y28722D1*
X27399Y28760D1*
Y28798D1*
X27384Y28836D1*
X27368Y28856D1*
X27322Y28875D1*
X27185D1*
Y28473D1*
X27292Y28683D2*
X27399Y28473D1*
X27651D2*
Y28874D1*
X27498Y28607D1*
X27727D1*
X27282Y18603D2*
X27251Y18642D1*
X27205Y18661D1*
X27144D1*
X27098Y18642D1*
X27067Y18603D1*
Y18565D1*
X27083Y18527D1*
X27098Y18508D1*
X27129Y18489D1*
X27221Y18450D1*
X27251Y18431D1*
X27267Y18412D1*
X27282Y18374D1*
Y18316D1*
X27251Y18278D1*
X27205Y18259D1*
X27144D1*
X27098Y18278D1*
X27067Y18316D1*
X27411Y18660D2*
X27579D1*
X27488Y18507D1*
X27534D1*
X27564Y18488D1*
X27579Y18469D1*
X27595Y18412D1*
Y18374D1*
X27579Y18316D1*
X27549Y18278D1*
X27503Y18259D1*
X27457D1*
X27411Y18278D1*
X27396Y18297D1*
X27381Y18335D1*
X25128Y17254D2*
X25097Y17235D1*
X25066Y17196D1*
X25051Y17158D1*
X25036Y17101D1*
Y17005D1*
X25051Y16948D1*
X25066Y16909D1*
X25097Y16871D1*
X25128Y16852D1*
X25189D1*
X25219Y16871D1*
X25250Y16909D1*
X25265Y16948D1*
X25280Y17005D1*
Y17101D1*
X25265Y17158D1*
X25250Y17196D1*
X25219Y17235D1*
X25189Y17254D1*
X25128D1*
X25578D2*
X25379D1*
Y16852D1*
Y17062D2*
X25502D1*
X25876Y17254D2*
X25677D1*
Y16852D1*
Y17062D2*
X25800D1*
X19539Y18647D2*
X19509Y18685D1*
X19463Y18704D1*
X19401D1*
X19355Y18685D1*
X19325Y18647D1*
Y18609D1*
X19340Y18570D1*
X19355Y18551D1*
X19386Y18532D1*
X19478Y18494D1*
X19509Y18475D1*
X19524Y18455D1*
X19539Y18417D1*
Y18360D1*
X19509Y18322D1*
X19463Y18302D1*
X19401D1*
X19355Y18322D1*
X19325Y18360D1*
X19638Y18627D2*
X19669Y18647D1*
X19715Y18704D1*
Y18302D1*
X21145Y17297D2*
X21115Y17278D1*
X21084Y17240D1*
X21069Y17202D1*
X21053Y17144D1*
Y17048D1*
X21069Y16991D1*
X21084Y16953D1*
X21115Y16915D1*
X21145Y16895D1*
X21207D1*
X21237Y16915D1*
X21268Y16953D1*
X21283Y16991D1*
X21298Y17048D1*
Y17144D1*
X21283Y17202D1*
X21268Y17240D1*
X21237Y17278D1*
X21207Y17297D1*
X21145D1*
X21611D2*
Y16895D1*
X21397Y17297D1*
Y16895D1*
X18638Y31902D2*
X18607Y31883D1*
X18576Y31845D1*
X18561Y31806D1*
X18546Y31749D1*
Y31653D1*
X18561Y31596D1*
X18576Y31558D1*
X18607Y31519D1*
X18638Y31500D1*
X18699D1*
X18730Y31519D1*
X18760Y31558D1*
X18775Y31596D1*
X18791Y31653D1*
Y31749D1*
X18775Y31806D1*
X18760Y31845D1*
X18730Y31883D1*
X18699Y31902D1*
X18638D1*
X18684Y31577D2*
X18775Y31462D1*
X18905Y31806D2*
Y31825D1*
X18920Y31863D1*
X18936Y31882D1*
X18966Y31901D1*
X19028D1*
X19058Y31882D1*
X19073Y31863D1*
X19089Y31825D1*
Y31787D1*
X19073Y31748D1*
X19043Y31691D1*
X18890Y31500D1*
X19104D1*
X18227Y33825D2*
Y33962D1*
X18208Y34008D1*
X18189Y34024D1*
X18151Y34039D1*
X18112D1*
X18074Y34024D1*
X18055Y34008D1*
X18036Y33962D1*
Y33825D1*
X18438D1*
X18227Y33932D2*
X18438Y34039D1*
X18113Y34138D2*
X18093Y34169D1*
X18036Y34215D1*
X18438D1*
X18113Y34314D2*
X18093Y34344D1*
X18036Y34390D1*
X18438D1*
X22069Y32018D2*
X22207D1*
X22253Y32037D1*
X22269Y32056D1*
X22284Y32094D1*
Y32133D1*
X22269Y32171D1*
X22253Y32190D1*
X22207Y32209D1*
X22069D1*
Y31808D1*
X22177Y32018D2*
X22284Y31808D1*
X22582Y32075D2*
X22566Y32018D1*
X22536Y31980D1*
X22490Y31961D1*
X22475D1*
X22429Y31980D1*
X22398Y32018D1*
X22383Y32075D1*
Y32094D1*
X22398Y32152D1*
X22429Y32190D1*
X22475Y32209D1*
X22490D1*
X22536Y32190D1*
X22566Y32152D1*
X22582Y32075D1*
Y31980D1*
X22566Y31884D1*
X22536Y31827D1*
X22490Y31808D1*
X22459D1*
X22413Y31827D1*
X22398Y31865D1*
X29033Y35568D2*
X29002Y35606D1*
X28956Y35625D1*
X28895D1*
X28849Y35606D1*
X28818Y35568D1*
Y35530D1*
X28834Y35491D1*
X28849Y35472D1*
X28880Y35453D1*
X28972Y35415D1*
X29002Y35396D1*
X29018Y35376D1*
X29033Y35338D1*
Y35281D1*
X29002Y35243D1*
X28956Y35223D1*
X28895D1*
X28849Y35243D1*
X28818Y35281D1*
X29147Y35529D2*
Y35548D1*
X29162Y35587D1*
X29178Y35606D1*
X29208Y35625D1*
X29269D1*
X29300Y35606D1*
X29315Y35587D1*
X29331Y35548D1*
Y35510D1*
X29315Y35472D1*
X29285Y35415D1*
X29132Y35223D1*
X29346D1*
X23728Y27769D2*
Y27907D1*
X23708Y27953D1*
X23689Y27968D1*
X23651Y27984D1*
X23613D1*
X23575Y27968D1*
X23555Y27953D1*
X23536Y27907D1*
Y27769D1*
X23938D1*
X23728Y27876D2*
X23938Y27984D1*
Y28144D2*
X23537Y28297D1*
Y28082D1*
X23734Y28900D2*
Y29038D1*
X23714Y29084D1*
X23695Y29099D1*
X23657Y29115D1*
X23619D1*
X23581Y29099D1*
X23561Y29084D1*
X23542Y29038D1*
Y28900D1*
X23944D1*
X23734Y29007D2*
X23944Y29115D1*
X23543Y29290D2*
X23562Y29244D1*
X23600Y29229D1*
X23638D1*
X23676Y29244D1*
X23696Y29275D1*
X23715Y29336D1*
X23734Y29382D1*
X23772Y29412D1*
X23810Y29427D1*
X23868D1*
X23906Y29412D1*
X23925Y29397D1*
X23944Y29351D1*
Y29290D1*
X23925Y29244D1*
X23906Y29229D1*
X23868Y29213D1*
X23810D1*
X23772Y29229D1*
X23734Y29259D1*
X23715Y29305D1*
X23696Y29366D1*
X23676Y29397D1*
X23638Y29412D1*
X23600D1*
X23562Y29397D1*
X23543Y29351D1*
Y29290D1*
X32263Y39501D2*
Y39195D1*
X32248Y39138D1*
X32232Y39119D1*
X32202Y39099D1*
X32171D1*
X32141Y39119D1*
X32125Y39138D1*
X32110Y39195D1*
Y39233D1*
X32515Y39099D2*
Y39501D1*
X32362Y39233D1*
X32591D1*
X28518Y30854D2*
Y30873D1*
X28532Y30911D1*
X28545Y30930D1*
X28572Y30949D1*
X28626D1*
X28652Y30930D1*
X28666Y30911D1*
X28679Y30873D1*
Y30835D1*
X28666Y30796D1*
X28639Y30739D1*
X28505Y30548D1*
X28692D1*
X28832D2*
X28966Y30949D1*
X28779D1*
X29339Y30854D2*
Y30873D1*
X29352Y30911D1*
X29365Y30930D1*
X29392Y30949D1*
X29446D1*
X29472Y30930D1*
X29486Y30911D1*
X29499Y30873D1*
Y30835D1*
X29486Y30796D1*
X29459Y30739D1*
X29325Y30548D1*
X29513D1*
X29733D2*
Y30949D1*
X29599Y30682D1*
X29800D1*
X22894Y18256D2*
D84*
Y17653D1*
X23135D1*
X23365Y18055D2*
X23325Y18027D1*
X23285Y17969D1*
X23265Y17883D1*
Y17826D1*
X23285Y17740D1*
X23325Y17683D1*
X23365Y17653D1*
X23425D1*
X23466Y17683D1*
X23506Y17740D1*
X23526Y17826D1*
Y17883D1*
X23506Y17969D1*
X23466Y18027D1*
X23425Y18055D1*
X23365D1*
X23656D2*
X23736Y17653D1*
X23816Y18055D1*
X23897Y17653D1*
X23977Y18055D1*
X17415Y26223D2*
Y26404D1*
X17385Y26464D1*
X17357Y26485D1*
X17300Y26505D1*
X17242D1*
X17185Y26485D1*
X17156Y26464D1*
X17127Y26404D1*
Y26223D1*
X17730D1*
X17415Y26364D2*
X17730Y26505D1*
X17501Y26634D2*
Y26875D1*
X17443D1*
X17385Y26855D1*
X17357Y26835D1*
X17328Y26795D1*
Y26735D1*
X17357Y26695D1*
X17415Y26654D1*
X17501Y26634D1*
X17558D1*
X17644Y26654D1*
X17701Y26695D1*
X17730Y26735D1*
Y26795D1*
X17701Y26835D1*
X17644Y26875D1*
X17415Y27246D2*
X17357Y27206D1*
X17328Y27166D1*
Y27106D1*
X17357Y27065D1*
X17415Y27025D1*
X17501Y27005D1*
X17558D1*
X17644Y27025D1*
X17701Y27065D1*
X17730Y27106D1*
Y27166D1*
X17701Y27206D1*
X17644Y27246D1*
X17127Y27376D2*
X17730D1*
X17443D2*
X17357Y27436D1*
X17328Y27477D1*
Y27537D1*
X17357Y27577D1*
X17443Y27597D1*
X17730D1*
X17328Y27968D2*
X17730D1*
X17415D2*
X17357Y27928D1*
X17328Y27887D1*
Y27827D1*
X17357Y27787D1*
X17415Y27747D1*
X17501Y27727D1*
X17558D1*
X17644Y27747D1*
X17701Y27787D1*
X17730Y27827D1*
Y27887D1*
X17701Y27928D1*
X17644Y27968D1*
X17328Y28097D2*
X17730D1*
X17501D2*
X17415Y28118D1*
X17357Y28158D1*
X17328Y28198D1*
Y28258D1*
X17357Y28629D2*
X17817D1*
X17902Y28609D1*
X17931Y28589D1*
X17960Y28549D1*
Y28488D1*
X17931Y28449D1*
X17443Y28629D2*
X17386Y28589D1*
X17357Y28549D1*
Y28488D1*
X17386Y28449D1*
X17443Y28408D1*
X17529Y28388D1*
X17587D1*
X17673Y28408D1*
X17730Y28449D1*
X17759Y28488D1*
Y28549D1*
X17730Y28589D1*
X17673Y28629D1*
X17501Y28759D2*
Y29000D1*
X17443D1*
X17385Y28980D1*
X17357Y28960D1*
X17328Y28919D1*
Y28859D1*
X17357Y28819D1*
X17415Y28779D1*
X17501Y28759D1*
X17558D1*
X17644Y28779D1*
X17701Y28819D1*
X17730Y28859D1*
Y28919D1*
X17701Y28960D1*
X17644Y29000D1*
X17328Y29370D2*
X17730D1*
X17415D2*
X17357Y29330D1*
X17328Y29290D1*
Y29230D1*
X17357Y29190D1*
X17415Y29150D1*
X17501Y29129D1*
X17558D1*
X17644Y29150D1*
X17701Y29190D1*
X17730Y29230D1*
Y29290D1*
X17701Y29330D1*
X17644Y29370D1*
X17127Y29500D2*
X17730D1*
X17415D2*
X17357Y29541D1*
X17328Y29580D1*
Y29641D1*
X17357Y29681D1*
X17415Y29721D1*
X17501Y29741D1*
X17558D1*
X17644Y29721D1*
X17701Y29681D1*
X17730Y29641D1*
Y29580D1*
X17701Y29541D1*
X17644Y29500D1*
X17127Y29871D2*
X17730D1*
X17501Y30000D2*
Y30241D1*
X17443D1*
X17385Y30221D1*
X17357Y30201D1*
X17328Y30161D1*
Y30101D1*
X17357Y30061D1*
X17415Y30020D1*
X17501Y30000D1*
X17558D1*
X17644Y30020D1*
X17701Y30061D1*
X17730Y30101D1*
Y30161D1*
X17701Y30201D1*
X17644Y30241D1*
X17127Y30779D2*
X17730D1*
X17415D2*
X17357Y30820D1*
X17328Y30860D1*
Y30920D1*
X17357Y30960D1*
X17415Y31000D1*
X17501Y31020D1*
X17558D1*
X17644Y31000D1*
X17701Y30960D1*
X17730Y30920D1*
Y30860D1*
X17701Y30820D1*
X17644Y30779D1*
X17328Y31391D2*
X17730D1*
X17415D2*
X17357Y31351D1*
X17328Y31311D1*
Y31251D1*
X17357Y31210D1*
X17415Y31170D1*
X17501Y31150D1*
X17558D1*
X17644Y31170D1*
X17701Y31210D1*
X17730Y31251D1*
Y31311D1*
X17701Y31351D1*
X17644Y31391D1*
X17127Y31581D2*
X17616D1*
X17701Y31601D1*
X17730Y31641D1*
Y31681D1*
X17328Y31521D2*
Y31661D1*
X17127Y31871D2*
X17616D1*
X17701Y31891D1*
X17730Y31932D1*
Y31972D1*
X17328Y31811D2*
Y31952D1*
X17501Y32101D2*
Y32342D1*
X17443D1*
X17385Y32322D1*
X17357Y32302D1*
X17328Y32262D1*
Y32202D1*
X17357Y32162D1*
X17415Y32121D1*
X17501Y32101D1*
X17558D1*
X17644Y32121D1*
X17701Y32162D1*
X17730Y32202D1*
Y32262D1*
X17701Y32302D1*
X17644Y32342D1*
X17328Y32472D2*
X17730D1*
X17501D2*
X17415Y32492D1*
X17357Y32532D1*
X17328Y32573D1*
Y32633D1*
Y32783D2*
X17730Y32903D1*
X17845Y32863D1*
X17903Y32823D1*
X17931Y32783D1*
Y32763D1*
X17328Y33024D2*
X17730Y32903D1*
X17328Y33662D2*
X17357Y33622D1*
X17415Y33582D1*
X17501Y33562D1*
X17558D1*
X17644Y33582D1*
X17701Y33622D1*
X17730Y33662D1*
Y33723D1*
X17701Y33763D1*
X17644Y33803D1*
X17558Y33823D1*
X17501D1*
X17415Y33803D1*
X17357Y33763D1*
X17328Y33723D1*
Y33662D1*
Y33953D2*
X17730D1*
X17443D2*
X17357Y34013D1*
X17328Y34054D1*
Y34114D1*
X17357Y34154D1*
X17443Y34174D1*
X17730D1*
X17127Y34304D2*
X17730D1*
X17328Y34454D2*
X17730Y34574D1*
X17845Y34534D1*
X17903Y34494D1*
X17931Y34454D1*
Y34433D1*
X17328Y34695D2*
X17730Y34574D1*
X17128Y34845D2*
X17529D1*
X17673D2*
X17702Y34825D1*
X17730Y34845D1*
X17702Y34865D1*
X17673Y34845D1*
X29949Y25623D2*
D85*
Y25647D1*
X29963Y25695D1*
X29977Y25719D1*
X30006Y25743D1*
X30063D1*
X30092Y25719D1*
X30106Y25695D1*
X30121Y25647D1*
Y25600D1*
X30106Y25552D1*
X30078Y25480D1*
X29934Y25241D1*
X30135D1*
X30371D2*
Y25743D1*
X30228Y25408D1*
X30443D1*
X30535Y25492D2*
X30701D1*
X29949Y26623D2*
Y26647D1*
X29963Y26695D1*
X29977Y26719D1*
X30006Y26743D1*
X30064D1*
X30092Y26719D1*
X30106Y26695D1*
X30121Y26647D1*
Y26599D1*
X30106Y26551D1*
X30078Y26480D1*
X29934Y26241D1*
X30135D1*
X30400Y26743D2*
X30257D1*
X30242Y26528D1*
X30257Y26551D1*
X30300Y26576D1*
X30343D1*
X30386Y26551D1*
X30415Y26504D1*
X30429Y26432D1*
Y26384D1*
X30415Y26313D1*
X30386Y26264D1*
X30343Y26241D1*
X30300D1*
X30257Y26264D1*
X30242Y26289D1*
X30228Y26336D1*
X30521Y26492D2*
X30687D1*
X29823Y34734D2*
X29794Y34782D1*
X29751Y34805D1*
X29694D1*
X29651Y34782D1*
X29622Y34734D1*
Y34686D1*
X29636Y34638D1*
X29651Y34614D1*
X29679Y34590D1*
X29765Y34542D1*
X29794Y34519D1*
X29808Y34494D1*
X29823Y34447D1*
Y34375D1*
X29794Y34327D1*
X29751Y34303D1*
X29694D1*
X29651Y34327D1*
X29622Y34375D1*
X30087Y34805D2*
X29944D1*
X29930Y34590D1*
X29944Y34614D1*
X29987Y34638D1*
X30030D1*
X30073Y34614D1*
X30102Y34566D1*
X30116Y34494D1*
Y34447D1*
X30102Y34375D1*
X30073Y34327D1*
X30030Y34303D1*
X29987D1*
X29944Y34327D1*
X29930Y34351D1*
X29915Y34399D1*
X30209Y34805D2*
X30324Y34303D1*
X30438Y34805D1*
X30531Y34554D2*
X30697D1*
X30106Y35805D2*
X29963D1*
X29949Y35590D1*
X29963Y35614D1*
X30006Y35638D1*
X30049D1*
X30092Y35614D1*
X30121Y35566D1*
X30135Y35494D1*
Y35447D1*
X30121Y35375D1*
X30092Y35327D1*
X30049Y35303D1*
X30006D1*
X29963Y35327D1*
X29949Y35351D1*
X29934Y35399D1*
X30228Y35806D2*
X30342Y35303D1*
X30457Y35806D1*
X30550Y35554D2*
X30716D1*
X29650Y36805D2*
X29808D1*
X29722Y36614D1*
X29765D1*
X29794Y36590D1*
X29808Y36567D1*
X29823Y36495D1*
Y36447D1*
X29808Y36375D1*
X29779Y36327D1*
X29736Y36303D1*
X29693D1*
X29650Y36327D1*
X29636Y36352D1*
X29622Y36399D1*
X29915Y36806D2*
X30030Y36303D1*
X30145Y36806D1*
X30266Y36805D2*
X30424D1*
X30338Y36614D1*
X30381D1*
X30409Y36590D1*
X30424Y36567D1*
X30438Y36495D1*
Y36447D1*
X30424Y36375D1*
X30395Y36327D1*
X30352Y36303D1*
X30309D1*
X30266Y36327D1*
X30252Y36352D1*
X30237Y36399D1*
X30531Y36554D2*
X30697D1*
X30462Y33686D2*
X30448Y33734D1*
X30419Y33782D1*
X30390Y33806D1*
X30333D1*
X30304Y33782D1*
X30276Y33734D1*
X30261Y33686D1*
X30247Y33614D1*
Y33494D1*
X30261Y33423D1*
X30276Y33375D1*
X30304Y33328D1*
X30333Y33303D1*
X30390D1*
X30419Y33328D1*
X30448Y33375D1*
X30462Y33423D1*
Y33494D1*
X30390D1*
X30555Y33554D2*
X30720D1*
X30462Y32686D2*
X30448Y32734D1*
X30419Y32782D1*
X30390Y32806D1*
X30333D1*
X30304Y32782D1*
X30276Y32734D1*
X30261Y32686D1*
X30247Y32614D1*
Y32494D1*
X30261Y32423D1*
X30276Y32375D1*
X30304Y32328D1*
X30333Y32303D1*
X30390D1*
X30419Y32328D1*
X30448Y32375D1*
X30462Y32423D1*
Y32494D1*
X30390D1*
X30555Y32554D2*
X30720D1*
X29963Y31805D2*
X30121D1*
X30035Y31614D1*
X30078D1*
X30106Y31590D1*
X30121Y31566D1*
X30135Y31494D1*
Y31447D1*
X30121Y31375D1*
X30092Y31327D1*
X30049Y31303D1*
X30006D1*
X29963Y31327D1*
X29949Y31351D1*
X29934Y31399D1*
X30314Y31805D2*
X30271Y31781D1*
X30242Y31709D1*
X30228Y31590D1*
Y31518D1*
X30242Y31399D1*
X30271Y31327D1*
X30314Y31303D1*
X30343D1*
X30386Y31327D1*
X30414Y31399D1*
X30429Y31518D1*
Y31590D1*
X30414Y31709D1*
X30386Y31781D1*
X30343Y31805D1*
X30314D1*
X30414Y31709D2*
X30242Y31399D1*
X30521Y31554D2*
X30687D1*
X29949Y30686D2*
Y30709D1*
X29963Y30758D1*
X29977Y30781D1*
X30006Y30805D1*
X30064D1*
X30092Y30781D1*
X30106Y30758D1*
X30121Y30709D1*
Y30662D1*
X30106Y30614D1*
X30078Y30543D1*
X29934Y30303D1*
X30135D1*
X30415Y30638D2*
X30400Y30566D1*
X30371Y30518D1*
X30328Y30494D1*
X30314D1*
X30271Y30518D1*
X30242Y30566D1*
X30228Y30638D1*
Y30662D1*
X30242Y30734D1*
X30271Y30781D1*
X30314Y30805D1*
X30328D1*
X30371Y30781D1*
X30400Y30734D1*
X30415Y30638D1*
Y30518D1*
X30400Y30399D1*
X30371Y30327D1*
X30328Y30303D1*
X30300D1*
X30257Y30327D1*
X30242Y30375D1*
X30507Y30554D2*
X30673D1*
X29949Y29686D2*
Y29709D1*
X29963Y29758D1*
X29977Y29781D1*
X30006Y29805D1*
X30064D1*
X30092Y29781D1*
X30106Y29758D1*
X30121Y29709D1*
Y29662D1*
X30106Y29614D1*
X30078Y29543D1*
X29934Y29303D1*
X30135D1*
X30299Y29805D2*
X30257Y29781D1*
X30242Y29734D1*
Y29686D1*
X30257Y29638D1*
X30285Y29614D1*
X30343Y29590D1*
X30386Y29566D1*
X30414Y29518D1*
X30428Y29471D1*
Y29399D1*
X30414Y29351D1*
X30400Y29327D1*
X30357Y29303D1*
X30299D1*
X30257Y29327D1*
X30242Y29351D1*
X30228Y29399D1*
Y29471D1*
X30242Y29518D1*
X30271Y29566D1*
X30314Y29590D1*
X30371Y29614D1*
X30400Y29638D1*
X30414Y29686D1*
Y29734D1*
X30400Y29781D1*
X30357Y29805D1*
X30299D1*
X30521Y29554D2*
X30687D1*
X29949Y28686D2*
Y28709D1*
X29963Y28758D1*
X29977Y28781D1*
X30006Y28805D1*
X30064D1*
X30092Y28781D1*
X30106Y28758D1*
X30121Y28709D1*
Y28662D1*
X30106Y28614D1*
X30078Y28543D1*
X29934Y28303D1*
X30135D1*
X30285D2*
X30429Y28805D1*
X30228D1*
X30521Y28554D2*
X30687D1*
X29949Y27686D2*
Y27709D1*
X29963Y27758D1*
X29977Y27781D1*
X30006Y27805D1*
X30064D1*
X30092Y27781D1*
X30106Y27758D1*
X30121Y27709D1*
Y27662D1*
X30106Y27614D1*
X30078Y27543D1*
X29934Y27303D1*
X30135D1*
X30400Y27734D2*
X30386Y27781D1*
X30343Y27805D1*
X30314D1*
X30271Y27781D1*
X30242Y27709D1*
X30228Y27590D1*
Y27471D1*
X30242Y27375D1*
X30271Y27327D1*
X30314Y27303D1*
X30328D1*
X30371Y27327D1*
X30400Y27375D1*
X30414Y27447D1*
Y27471D1*
X30400Y27543D1*
X30371Y27590D1*
X30328Y27614D1*
X30314D1*
X30271Y27590D1*
X30242Y27543D1*
X30228Y27471D1*
X30507Y27554D2*
X30673D1*
X16184Y36554D2*
X16350D1*
X16442Y36709D2*
X16471Y36734D1*
X16514Y36805D1*
Y36303D1*
X16184Y35554D2*
X16350D1*
X16457Y35686D2*
Y35709D1*
X16471Y35758D1*
X16486Y35781D1*
X16514Y35805D1*
X16572D1*
X16600Y35781D1*
X16615Y35758D1*
X16629Y35709D1*
Y35662D1*
X16615Y35614D1*
X16586Y35543D1*
X16442Y35303D1*
X16643D1*
X16184Y34554D2*
X16350D1*
X16471Y34805D2*
X16629D1*
X16543Y34614D1*
X16586D1*
X16615Y34590D1*
X16629Y34566D1*
X16643Y34494D1*
Y34447D1*
X16629Y34375D1*
X16600Y34327D1*
X16557Y34303D1*
X16514D1*
X16471Y34327D1*
X16457Y34351D1*
X16442Y34399D1*
X16184Y33554D2*
X16350D1*
X16586Y33303D2*
Y33805D1*
X16442Y33471D1*
X16658D1*
X16184Y32554D2*
X16350D1*
X16615Y32805D2*
X16471D1*
X16457Y32590D1*
X16471Y32614D1*
X16514Y32638D1*
X16557D1*
X16600Y32614D1*
X16629Y32566D1*
X16643Y32494D1*
Y32447D1*
X16629Y32375D1*
X16600Y32327D1*
X16557Y32303D1*
X16514D1*
X16471Y32327D1*
X16457Y32351D1*
X16442Y32399D1*
X16184Y31554D2*
X16350D1*
X16615Y31734D2*
X16600Y31781D1*
X16557Y31805D1*
X16529D1*
X16486Y31781D1*
X16457Y31709D1*
X16442Y31590D1*
Y31471D1*
X16457Y31375D1*
X16486Y31327D1*
X16529Y31303D1*
X16543D1*
X16586Y31327D1*
X16615Y31375D1*
X16629Y31447D1*
Y31471D1*
X16615Y31543D1*
X16586Y31590D1*
X16543Y31614D1*
X16529D1*
X16486Y31590D1*
X16457Y31543D1*
X16442Y31471D1*
X16184Y30554D2*
X16350D1*
X16500Y30303D2*
X16643Y30805D1*
X16442D1*
X16184Y29554D2*
X16350D1*
X16672Y29303D2*
Y29806D1*
X16557Y29303D1*
X16442Y29806D1*
Y29303D1*
X16184Y28554D2*
X16350D1*
X16658Y28686D2*
X16643Y28734D1*
X16615Y28782D1*
X16586Y28806D1*
X16529D1*
X16500Y28782D1*
X16471Y28734D1*
X16457Y28686D1*
X16442Y28614D1*
Y28494D1*
X16457Y28423D1*
X16471Y28375D1*
X16500Y28328D1*
X16529Y28303D1*
X16586D1*
X16615Y28328D1*
X16643Y28375D1*
X16658Y28423D1*
X16184Y27554D2*
X16350D1*
X16442Y27709D2*
X16471Y27734D1*
X16514Y27805D1*
Y27303D1*
X16779Y27734D2*
X16765Y27781D1*
X16722Y27805D1*
X16693D1*
X16650Y27781D1*
X16621Y27709D1*
X16607Y27590D1*
Y27471D1*
X16621Y27375D1*
X16650Y27327D1*
X16693Y27303D1*
X16708D1*
X16750Y27327D1*
X16779Y27375D1*
X16793Y27447D1*
Y27471D1*
X16779Y27543D1*
X16750Y27590D1*
X16708Y27614D1*
X16693D1*
X16650Y27590D1*
X16621Y27543D1*
X16607Y27471D1*
X16184Y26554D2*
X16350D1*
X16442Y26709D2*
X16471Y26734D1*
X16514Y26805D1*
Y26303D1*
X16664D2*
X16808Y26805D1*
X16607D1*
X16184Y25554D2*
X16350D1*
X16442Y25566D2*
X16571D1*
X16615Y25591D1*
X16629Y25614D1*
X16643Y25662D1*
Y25710D1*
X16629Y25758D1*
X16615Y25782D1*
X16571Y25806D1*
X16442D1*
Y25303D1*
X16543Y25566D2*
X16643Y25303D1*
X15542Y17797D2*
D30*
Y16936D1*
X15112Y17366D2*
X15973D1*
X31356Y17797D2*
Y16936D1*
X30926Y17366D2*
X31787D1*
X15480Y38338D2*
D84*
X15572Y37936D1*
X15664Y38338D1*
X15756Y37936D1*
X15847Y38338D1*
X15996D2*
X16087Y37936D1*
X16179Y38338D1*
X16271Y37936D1*
X16363Y38338D1*
X16511D2*
X16603Y37936D1*
X16695Y38338D1*
X16786Y37936D1*
X16878Y38338D1*
X17049Y37993D2*
X17026Y37964D1*
X17049Y37936D1*
X17073Y37964D1*
X17049Y37993D1*
X17221Y38338D2*
Y38050D1*
X17244Y37965D1*
X17290Y37936D1*
X17359D1*
X17404Y37965D1*
X17473Y38050D1*
Y38338D2*
Y37936D1*
X17622Y38338D2*
Y37936D1*
Y38223D2*
X17691Y38309D1*
X17737Y38338D1*
X17805D1*
X17851Y38309D1*
X17874Y38223D1*
Y37936D1*
X18022Y38338D2*
X18114Y37936D1*
X18206Y38338D1*
X18298Y37936D1*
X18390Y38338D1*
X18813Y38539D2*
Y37936D1*
Y38251D2*
X18768Y38309D1*
X18721Y38338D1*
X18652D1*
X18607Y38309D1*
X18561Y38251D1*
X18538Y38165D1*
Y38108D1*
X18561Y38022D1*
X18607Y37965D1*
X18652Y37936D1*
X18721D1*
X18768Y37965D1*
X18813Y38022D1*
X19214Y38251D2*
X19191Y38309D1*
X19122Y38338D1*
X19053D1*
X18984Y38309D1*
X18961Y38251D1*
X18984Y38194D1*
X19030Y38165D1*
X19145Y38137D1*
X19191Y38108D1*
X19214Y38050D1*
Y38022D1*
X19191Y37965D1*
X19122Y37936D1*
X19053D1*
X18984Y37965D1*
X18961Y38022D1*
X19385Y37993D2*
X19362Y37964D1*
X19385Y37936D1*
X19408Y37964D1*
X19385Y37993D1*
X19832Y38251D2*
X19786Y38309D1*
X19740Y38338D1*
X19672D1*
X19626Y38309D1*
X19580Y38251D1*
X19557Y38165D1*
Y38108D1*
X19580Y38022D1*
X19626Y37965D1*
X19672Y37936D1*
X19740D1*
X19786Y37965D1*
X19832Y38022D1*
X20095Y38338D2*
X20050Y38309D1*
X20003Y38251D1*
X19981Y38165D1*
Y38108D1*
X20003Y38022D1*
X20050Y37965D1*
X20095Y37936D1*
X20164D1*
X20210Y37965D1*
X20256Y38022D1*
X20279Y38108D1*
Y38165D1*
X20256Y38251D1*
X20210Y38309D1*
X20164Y38338D1*
X20095D1*
X20428D2*
Y37936D1*
Y38223D2*
X20497Y38309D1*
X20543Y38338D1*
X20611D1*
X20657Y38309D1*
X20680Y38223D1*
Y37936D1*
Y38223D2*
X20749Y38309D1*
X20795Y38338D1*
X20864D1*
X20910Y38309D1*
X20933Y38223D1*
Y37936D1*
X15480Y39289D2*
Y38858D1*
X15503Y38772D1*
X15549Y38715D1*
X15618Y38686D1*
X15664D1*
X15733Y38715D1*
X15779Y38772D1*
X15802Y38858D1*
Y39289D1*
X16317Y38686D2*
Y39289D1*
X16134Y38686D1*
X15950Y39289D1*
Y38686D1*
X16465Y39289D2*
Y38686D1*
X16626D1*
X16695Y38715D1*
X16741Y38772D1*
X16764Y38830D1*
X16787Y38915D1*
Y39059D1*
X16764Y39145D1*
X16741Y39202D1*
X16695Y39260D1*
X16626Y39289D1*
X16465D1*
X16935D2*
Y38686D1*
X17257Y39289D2*
X16935Y38887D1*
X17050Y39031D2*
X17257Y38686D1*
X17405Y38987D2*
X17670D1*
X17842Y39145D2*
Y39173D1*
X17865Y39231D1*
X17887Y39260D1*
X17934Y39288D1*
X18025D1*
X18071Y39260D1*
X18094Y39231D1*
X18117Y39173D1*
Y39116D1*
X18094Y39059D1*
X18048Y38973D1*
X17818Y38686D1*
X18140D1*
X18656D2*
X18472Y39289D1*
X18288Y38686D1*
X18357Y38887D2*
X18587D1*
X19172Y38686D2*
X18988Y39289D1*
X18804Y38686D1*
X18873Y38887D2*
X19103D1*
M02*
