M48
;DRILL file {KiCad 4.0.7} date Sun Nov 26 14:25:20 2017
;FORMAT={-:-/ absolute / inch / decimal}
FMAT,2
INCH,TZ
T1C0.016
T2C0.024
T3C0.031
T4C0.075
%
G90
G05
M72
T1
X5.36Y-4.17
X5.36Y-4.24
X5.54Y-4.32
X5.55Y-4.2
X5.79Y-4.16
X5.99Y-4.49
X6.08Y-4.16
X6.14Y-4.21
X6.16Y-4.43
X6.17Y-4.53
X6.19Y-4.4
X6.46Y-4.39
X6.48Y-4.46
X6.48Y-4.54
T2
X5.17Y-4.19
X5.175Y-4.61
X5.235Y-4.575
X5.29Y-4.37
X5.295Y-4.61
X5.3Y-4.45
X5.565Y-4.63
X5.62Y-4.59
X5.66Y-4.345
X5.67Y-4.48
X5.685Y-4.255
X5.71Y-4.63
X5.735Y-4.26
X5.78Y-4.47
X5.82Y-4.5924
X5.83Y-4.255
X5.89Y-4.47
X5.89Y-4.63
X6.02Y-4.63
X6.34Y-4.19
X6.34Y-4.59
X6.3426Y-4.32
X6.3426Y-4.51
X6.39Y-4.19
X6.41Y-4.63
X6.4174Y-4.55
X6.49Y-4.32
X6.77Y-4.21
X6.87Y-4.28
T3
X6.09Y-4.3
X6.09Y-4.4921
X6.73Y-4.2619
X6.73Y-4.3406
X6.73Y-4.4194
X6.73Y-4.4981
T4
X4.88Y-4.3114
X4.88Y-4.4886
T0
M30
