M48
;DRILL file {KiCad 4.0.7} date Sun Nov 26 14:27:03 2017
;FORMAT={2:4/ absolute / inch / keep zeros}
FMAT,2
INCH,TZ
T1C0.016
T2C0.024
T3C0.031
T4C0.075
%
G90
G05
M72
T1
X053600Y-041700
X053600Y-042400
X055400Y-043200
X055500Y-042000
X057900Y-041600
X059900Y-044900
X060800Y-041600
X061400Y-042100
X061600Y-044300
X061700Y-045300
X061900Y-044000
X064600Y-043900
X064800Y-044600
X064800Y-045400
T2
X051700Y-041900
X051750Y-046100
X052350Y-045750
X052900Y-043700
X052950Y-046100
X053000Y-044500
X055650Y-046300
X056200Y-045900
X056600Y-043450
X056700Y-044800
X056850Y-042550
X057100Y-046300
X057350Y-042600
X057800Y-044700
X058200Y-045924
X058300Y-042550
X058900Y-044700
X058900Y-046300
X060200Y-046300
X063400Y-041900
X063400Y-045900
X063426Y-043200
X063426Y-045100
X063900Y-041900
X064100Y-046300
X064174Y-045500
X064900Y-043200
X067700Y-042100
X068700Y-042800
T3
X060900Y-043000
X060900Y-044921
X067300Y-042619
X067300Y-043406
X067300Y-044194
X067300Y-044981
T4
X048800Y-043114
X048800Y-044886
T0
M30
