M48
;DRILL file {KiCad 4.0.7} date Sun Nov 26 14:26:36 2017
;FORMAT={2:4/ absolute / inch / suppress leading zeros}
FMAT,2
INCH,TZ
T1C0.016
T2C0.024
T3C0.031
T4C0.075
%
G90
G05
M72
T1
X53600Y-41700
X53600Y-42400
X55400Y-43200
X55500Y-42000
X57900Y-41600
X59900Y-44900
X60800Y-41600
X61400Y-42100
X61600Y-44300
X61700Y-45300
X61900Y-44000
X64600Y-43900
X64800Y-44600
X64800Y-45400
T2
X51700Y-41900
X51750Y-46100
X52350Y-45750
X52900Y-43700
X52950Y-46100
X53000Y-44500
X55650Y-46300
X56200Y-45900
X56600Y-43450
X56700Y-44800
X56850Y-42550
X57100Y-46300
X57350Y-42600
X57800Y-44700
X58200Y-45924
X58300Y-42550
X58900Y-44700
X58900Y-46300
X60200Y-46300
X63400Y-41900
X63400Y-45900
X63426Y-43200
X63426Y-45100
X63900Y-41900
X64100Y-46300
X64174Y-45500
X64900Y-43200
X67700Y-42100
X68700Y-42800
T3
X60900Y-43000
X60900Y-44921
X67300Y-42619
X67300Y-43406
X67300Y-44194
X67300Y-44981
T4
X48800Y-43114
X48800Y-44886
T0
M30
