M48
;DRILL file {KiCad 4.0.7} date Sun Nov 26 14:26:53 2017
;FORMAT={2:4/ absolute / inch / suppress trailing zeros}
FMAT,2
INCH,LZ
T1C0.016
T2C0.024
T3C0.031
T4C0.075
%
G90
G05
M72
T1
X0536Y-0417
X0536Y-0424
X0554Y-0432
X0555Y-042
X0579Y-0416
X0599Y-0449
X0608Y-0416
X0614Y-0421
X0616Y-0443
X0617Y-0453
X0619Y-044
X0646Y-0439
X0648Y-0446
X0648Y-0454
T2
X0517Y-0419
X05175Y-0461
X05235Y-04575
X0529Y-0437
X05295Y-0461
X053Y-0445
X05565Y-0463
X0562Y-0459
X0566Y-04345
X0567Y-0448
X05685Y-04255
X0571Y-0463
X05735Y-0426
X0578Y-0447
X0582Y-045924
X0583Y-04255
X0589Y-0447
X0589Y-0463
X0602Y-0463
X0634Y-0419
X0634Y-0459
X063426Y-0432
X063426Y-0451
X0639Y-0419
X0641Y-0463
X064174Y-0455
X0649Y-0432
X0677Y-0421
X0687Y-0428
T3
X0609Y-043
X0609Y-044921
X0673Y-042619
X0673Y-043406
X0673Y-044194
X0673Y-044981
T4
X0488Y-043114
X0488Y-044886
T0
M30
