M48
;DRILL file {KiCad 4.0.7} date Wed Nov 22 22:29:08 2017
;FORMAT={3:3/ absolute / metric / keep zeros}
FMAT,2
METRIC,TZ
T1C0.400
T2C0.600
T3C0.800
T4C1.900
%
G90
G05
M71
T1
X136144Y-105918
X136144Y-107696
X140716Y-109728
X140970Y-106680
X147066Y-105664
X152146Y-114046
X154432Y-105664
X155956Y-106934
X156464Y-112522
X156718Y-115062
X157226Y-111760
X164084Y-111506
X164592Y-113284
X164592Y-115316
T2
X131318Y-106426
X131445Y-117094
X132969Y-116205
X134366Y-110998
X134493Y-117094
X134620Y-113030
X141351Y-117602
X142748Y-116586
X143764Y-110363
X144018Y-113792
X144399Y-108077
X145034Y-117602
X145669Y-108204
X146812Y-113538
X147828Y-116648
X148082Y-108077
X149606Y-113538
X149606Y-117602
X152908Y-117602
X161036Y-106426
X161036Y-116586
X161102Y-109728
X161102Y-114554
X162306Y-106426
X162814Y-117602
X163002Y-115570
X164846Y-109728
X171958Y-106934
X174498Y-108712
T3
X154686Y-109220
X154686Y-114100
X170942Y-108252
X170942Y-110252
X170942Y-112252
X170942Y-114252
T4
X123952Y-109510
X123952Y-114010
T0
M30
