M48
;DRILL file {KiCad 4.0.7} date Sun Nov 26 14:21:35 2017
;FORMAT={-:-/ absolute / metric / decimal}
FMAT,2
METRIC,TZ
T1C0.400
T2C0.600
T3C0.800
T4C1.900
%
G90
G05
M71
T1
X136.144Y-105.918
X136.144Y-107.696
X140.716Y-109.728
X140.97Y-106.68
X147.066Y-105.664
X152.146Y-114.046
X154.432Y-105.664
X155.956Y-106.934
X156.464Y-112.522
X156.718Y-115.062
X157.226Y-111.76
X164.084Y-111.506
X164.592Y-113.284
X164.592Y-115.316
T2
X131.318Y-106.426
X131.445Y-117.094
X132.969Y-116.205
X134.366Y-110.998
X134.493Y-117.094
X134.62Y-113.03
X141.351Y-117.602
X142.748Y-116.586
X143.764Y-110.363
X144.018Y-113.792
X144.399Y-108.077
X145.034Y-117.602
X145.669Y-108.204
X146.812Y-113.538
X147.828Y-116.648
X148.082Y-108.077
X149.606Y-113.538
X149.606Y-117.602
X152.908Y-117.602
X161.036Y-106.426
X161.036Y-116.586
X161.102Y-109.728
X161.102Y-114.554
X162.306Y-106.426
X162.814Y-117.602
X163.002Y-115.57
X164.846Y-109.728
X171.958Y-106.934
X174.498Y-108.712
T3
X154.686Y-109.22
X154.686Y-114.1
X170.942Y-108.252
X170.942Y-110.252
X170.942Y-112.252
X170.942Y-114.252
T4
X123.952Y-109.51
X123.952Y-114.01
T0
M30
