M48
METRIC,LZ
%
T01C0.300000
X007583Y004649
X007633Y004724
X007583Y004799
X007683Y004799
X007683Y004649
X007629Y004393
X007740Y004393
X007517Y004393
X007359Y004488
X006914Y004425
X006944Y003917
X006216Y003725
X006359Y003107
X006216Y005044
X006359Y005758
X007502Y005377
X007517Y005012
X007629Y005012
X007740Y005012
X007962Y005282
X008505Y005237
X008676Y005187
X008505Y004663
X007962Y004695
X009137Y004488
X009247Y003550
X009900Y003050
X010143Y003550
X010143Y005550
X015549Y003117
X015624Y003067
X015699Y003117
X015699Y003017
X015549Y003017
X015293Y003071
X015293Y002960
X015293Y003183
X015388Y003341
X015325Y003786
X014817Y003756
X014625Y004484
X014007Y004341
X015944Y004484
X016658Y004341
X016277Y003198
X015912Y003183
X015912Y003071
X015912Y002960
X016182Y002738
X016137Y002195
X016087Y002024
X015563Y002195
X015595Y002738
X015388Y001563
X014450Y001453
X013950Y000800
X014450Y000557
X016450Y000557
X015549Y009317
X015624Y009267
X015699Y009317
X015699Y009217
X015549Y009217
X015293Y009271
X015293Y009160
X015293Y009383
X015388Y009541
X015325Y009986
X014817Y009956
X014625Y010684
X014007Y010541
X015944Y010684
X016658Y010541
X016277Y009398
X015912Y009383
X015912Y009271
X015912Y009160
X016182Y008938
X016137Y008395
X016087Y008224
X015563Y008395
X015595Y008938
X015388Y007763
X014450Y007653
X013950Y007000
X014450Y006757
X016450Y006757
X014049Y015517
X014124Y015467
X014199Y015517
X014199Y015417
X014049Y015417
X013793Y015471
X013793Y015360
X013793Y015583
X013888Y015741
X013825Y016186
X013317Y016156
X013125Y016884
X012507Y016741
X014444Y016884
X015158Y016741
X014777Y015598
X014412Y015583
X014412Y015471
X014412Y015360
X014682Y015138
X014637Y014595
X014587Y014424
X014063Y014595
X014095Y015138
X013888Y013963
X012950Y013853
X012450Y013200
X012950Y012957
X014950Y012957
X022749Y015517
X022824Y015467
X022899Y015517
X022899Y015417
X022749Y015417
X022493Y015471
X022493Y015360
X022493Y015583
X022588Y015741
X022525Y016186
X022017Y016156
X021825Y016884
X021207Y016741
X023144Y016884
X023858Y016741
X023477Y015598
X023112Y015583
X023112Y015471
X023112Y015360
X023382Y015138
X023337Y014595
X023287Y014424
X022763Y014595
X022795Y015138
X022588Y013963
X021650Y013853
X021150Y013200
X021650Y012957
X023650Y012957
X024249Y003117
X024324Y003067
X024399Y003117
X024399Y003017
X024249Y003017
X023993Y003071
X023993Y002960
X023993Y003183
X024088Y003341
X024025Y003786
X023517Y003756
X023325Y004484
X022707Y004341
X024644Y004484
X025358Y004341
X024977Y003198
X024612Y003183
X024612Y003071
X024612Y002960
X024882Y002738
X024837Y002195
X024787Y002024
X024263Y002195
X024295Y002738
X024088Y001563
X023150Y001453
X022650Y000800
X023150Y000557
X025150Y000557
X024249Y009317
X024324Y009267
X024399Y009317
X024399Y009217
X024249Y009217
X023993Y009271
X023993Y009160
X023993Y009383
X024088Y009541
X024025Y009986
X023517Y009956
X023325Y010684
X022707Y010541
X024644Y010684
X025358Y010541
X024977Y009398
X024612Y009383
X024612Y009271
X024612Y009160
X024882Y008938
X024837Y008395
X024787Y008224
X024263Y008395
X024295Y008938
X024088Y007763
X023150Y007653
X022650Y007000
X023150Y006757
X025150Y006757
X031449Y015517
X031524Y015467
X031599Y015517
X031599Y015417
X031449Y015417
X031193Y015471
X031193Y015360
X031193Y015583
X031288Y015741
X031225Y016186
X030717Y016156
X030525Y016884
X029907Y016741
X031844Y016884
X032558Y016741
X032177Y015598
X031812Y015583
X031812Y015471
X031812Y015360
X032082Y015138
X032037Y014595
X031987Y014424
X031463Y014595
X031495Y015138
X031288Y013963
X030350Y013853
X029850Y013200
X030350Y012957
X032350Y012957
X032949Y003117
X033024Y003067
X033099Y003117
X033099Y003017
X032949Y003017
X032693Y003071
X032693Y002960
X032693Y003183
X032788Y003341
X032725Y003786
X032217Y003756
X032025Y004484
X031407Y004341
X033344Y004484
X034058Y004341
X033677Y003198
X033312Y003183
X033312Y003071
X033312Y002960
X033582Y002738
X033537Y002195
X033487Y002024
X032963Y002195
X032995Y002738
X032788Y001563
X031850Y001453
X031350Y000800
X031850Y000557
X033850Y000557
X032949Y009317
X033024Y009267
X033099Y009317
X033099Y009217
X032949Y009217
X032693Y009271
X032693Y009160
X032693Y009383
X032788Y009541
X032725Y009986
X032217Y009956
X032025Y010684
X031407Y010541
X033344Y010684
X034058Y010541
X033677Y009398
X033312Y009383
X033312Y009271
X033312Y009160
X033582Y008938
X033537Y008395
X033487Y008224
X032963Y008395
X032995Y008938
X032788Y007763
X031850Y007653
X031350Y007000
X031850Y006757
X033850Y006757
T02C0.486000
X001171Y001619
X001171Y001302
X001488Y001492
X001552Y001365
X001678Y001302
X001805Y001047
X001805Y000793
X002028Y001651
X002059Y001873
X001932Y001936
X002377Y002000
X002599Y002081
X002853Y001901
X002853Y001746
X002377Y001746
X002853Y001238
X003393Y001238
X003393Y001746
X003393Y001901
X003107Y002222
X001869Y002381
X001615Y002381
X001425Y002191
X001202Y002603
X001615Y003016
X001869Y003016
X007105Y004409
X006724Y004790
X006724Y004996
X007263Y005647
X007454Y005647
X007454Y005790
X007644Y005647
X007772Y005187
X008168Y005187
X008714Y005520
X008714Y005838
X009264Y005838
X009264Y005520
X009550Y005018
X009550Y004700
X009550Y004000
X009550Y003682
X009010Y004075
X008819Y004075
X008343Y003917
X008041Y003917
X008819Y004869
X006533Y003552
X005581Y004187
X005581Y004441
X002881Y005871
X003198Y005871
X003008Y006188
X003135Y006252
X003198Y006378
X003453Y006505
X003707Y006505
X002849Y006728
X002627Y006759
X002564Y006632
X002500Y007077
X002419Y007299
X002599Y007553
X002754Y007553
X002754Y007077
X003262Y007553
X003262Y008093
X002754Y008093
X002599Y008093
X002278Y007807
X002119Y006569
X002119Y006315
X002309Y006125
X001897Y005902
X001484Y006315
X001484Y006569
X015309Y003595
X015690Y003976
X015896Y003976
X016547Y003437
X016547Y003246
X016690Y003246
X016547Y003056
X016087Y002928
X016087Y002532
X016420Y001986
X016738Y001986
X016738Y001436
X016420Y001436
X015918Y001150
X015600Y001150
X014900Y001150
X014582Y001150
X014975Y001690
X014975Y001881
X014817Y002357
X014817Y002659
X015769Y001881
X014452Y004167
X015087Y005119
X015341Y005119
X007581Y009871
X007898Y009871
X007708Y010188
X007835Y010252
X007898Y010378
X008153Y010505
X008407Y010505
X007549Y010728
X007327Y010759
X007264Y010632
X007200Y011077
X007119Y011299
X007299Y011553
X007454Y011553
X007454Y011077
X007962Y011553
X007962Y012093
X007454Y012093
X007299Y012093
X006978Y011807
X006819Y010569
X006819Y010315
X007009Y010125
X006597Y009902
X006184Y010315
X006184Y010569
X015309Y009795
X015690Y010176
X015896Y010176
X016547Y009637
X016547Y009446
X016690Y009446
X016547Y009256
X016087Y009128
X016087Y008732
X016420Y008186
X016738Y008186
X016738Y007636
X016420Y007636
X015918Y007350
X015600Y007350
X014900Y007350
X014582Y007350
X014975Y007890
X014975Y008081
X014817Y008557
X014817Y008859
X015769Y008081
X014452Y010367
X015087Y011319
X015341Y011319
X013809Y015995
X014190Y016376
X014396Y016376
X015047Y015837
X015047Y015646
X015190Y015646
X015047Y015456
X014587Y015328
X014587Y014932
X014920Y014386
X015238Y014386
X015238Y013836
X014920Y013836
X014418Y013550
X014100Y013550
X013400Y013550
X013082Y013550
X013475Y014090
X013475Y014281
X013317Y014757
X013317Y015059
X014269Y014281
X012952Y016567
X013587Y017519
X013841Y017519
X005871Y015019
X005871Y014702
X006188Y014892
X006252Y014765
X006378Y014702
X006505Y014447
X006505Y014193
X006728Y015051
X006759Y015273
X006632Y015336
X007077Y015400
X007299Y015481
X007553Y015301
X007553Y015146
X007077Y015146
X007553Y014638
X008093Y014638
X008093Y015146
X008093Y015301
X007807Y015622
X006569Y015781
X006315Y015781
X006125Y015591
X005902Y016003
X006315Y016416
X006569Y016416
X022509Y015995
X022890Y016376
X023096Y016376
X023747Y015837
X023747Y015646
X023890Y015646
X023747Y015456
X023287Y015328
X023287Y014932
X023620Y014386
X023938Y014386
X023938Y013836
X023620Y013836
X023118Y013550
X022800Y013550
X022100Y013550
X021782Y013550
X022175Y014090
X022175Y014281
X022017Y014757
X022017Y015059
X022969Y014281
X021652Y016567
X022287Y017519
X022541Y017519
X002881Y010571
X003198Y010571
X003008Y010888
X003135Y010952
X003198Y011078
X003453Y011205
X003707Y011205
X002849Y011428
X002627Y011459
X002564Y011332
X002500Y011777
X002419Y011999
X002599Y012253
X002754Y012253
X002754Y011777
X003262Y012253
X003262Y012793
X002754Y012793
X002599Y012793
X002278Y012507
X002119Y011269
X002119Y011015
X002309Y010825
X001897Y010602
X001484Y011015
X001484Y011269
X024009Y003595
X024390Y003976
X024596Y003976
X025247Y003437
X025247Y003246
X025390Y003246
X025247Y003056
X024787Y002928
X024787Y002532
X025120Y001986
X025438Y001986
X025438Y001436
X025120Y001436
X024618Y001150
X024300Y001150
X023600Y001150
X023282Y001150
X023675Y001690
X023675Y001881
X023517Y002357
X023517Y002659
X024469Y001881
X023152Y004167
X023787Y005119
X024041Y005119
X024009Y009795
X024390Y010176
X024596Y010176
X025247Y009637
X025247Y009446
X025390Y009446
X025247Y009256
X024787Y009128
X024787Y008732
X025120Y008186
X025438Y008186
X025438Y007636
X025120Y007636
X024618Y007350
X024300Y007350
X023600Y007350
X023282Y007350
X023675Y007890
X023675Y008081
X023517Y008557
X023517Y008859
X024469Y008081
X023152Y010367
X023787Y011319
X024041Y011319
X002881Y015271
X003198Y015271
X003008Y015588
X003135Y015652
X003198Y015778
X003453Y015905
X003707Y015905
X002849Y016128
X002627Y016159
X002564Y016032
X002500Y016477
X002419Y016699
X002599Y016953
X002754Y016953
X002754Y016477
X003262Y016953
X003262Y017493
X002754Y017493
X002599Y017493
X002278Y017207
X002119Y015969
X002119Y015715
X002309Y015525
X001897Y015302
X001484Y015715
X001484Y015969
X031209Y015995
X031590Y016376
X031796Y016376
X032447Y015837
X032447Y015646
X032590Y015646
X032447Y015456
X031987Y015328
X031987Y014932
X032320Y014386
X032638Y014386
X032638Y013836
X032320Y013836
X031818Y013550
X031500Y013550
X030800Y013550
X030482Y013550
X030875Y014090
X030875Y014281
X030717Y014757
X030717Y015059
X031669Y014281
X030352Y016567
X030987Y017519
X031241Y017519
X032709Y003595
X033090Y003976
X033296Y003976
X033947Y003437
X033947Y003246
X034090Y003246
X033947Y003056
X033487Y002928
X033487Y002532
X033820Y001986
X034138Y001986
X034138Y001436
X033820Y001436
X033318Y001150
X033000Y001150
X032300Y001150
X031982Y001150
X032375Y001690
X032375Y001881
X032217Y002357
X032217Y002659
X033169Y001881
X031852Y004167
X032487Y005119
X032741Y005119
X032709Y009795
X033090Y010176
X033296Y010176
X033947Y009637
X033947Y009446
X034090Y009446
X033947Y009256
X033487Y009128
X033487Y008732
X033820Y008186
X034138Y008186
X034138Y007636
X033820Y007636
X033318Y007350
X033000Y007350
X032300Y007350
X031982Y007350
X032375Y007890
X032375Y008081
X032217Y008557
X032217Y008859
X033169Y008081
X031852Y010367
X032487Y011319
X032741Y011319
T03C0.500000
X001135Y004225
X000275Y005835
X004975Y009835
X005835Y017625
X000275Y010535
X000275Y015235
T04C0.600000
X010273Y005250
X010543Y005250
X010548Y003250
X010278Y003250
X016150Y000427
X016150Y000157
X014150Y000152
X014150Y000422
X016150Y006627
X016150Y006357
X014150Y006352
X014150Y006622
X014650Y012827
X014650Y012557
X012650Y012552
X012650Y012822
X023350Y012827
X023350Y012557
X021350Y012552
X021350Y012822
X024850Y000427
X024850Y000157
X022850Y000152
X022850Y000422
X024850Y006627
X024850Y006357
X022850Y006352
X022850Y006622
X032050Y012827
X032050Y012557
X030050Y012552
X030050Y012822
X033550Y000427
X033550Y000157
X031550Y000152
X031550Y000422
X033550Y006627
X033550Y006357
X031550Y006352
X031550Y006622
T05C0.650000
X003365Y002445
X003365Y002572
X003365Y002699
X003365Y002826
X003365Y002953
X003365Y003080
X003365Y003207
X003365Y003334
X003365Y003461
X003365Y003588
X003365Y003715
X003365Y003842
X003365Y003969
X003365Y004096
X003365Y004223
X003238Y004223
X003238Y004096
X003238Y003969
X003238Y003842
X003238Y003715
X003238Y003588
X003238Y003461
X003238Y003334
X003238Y003207
X003238Y003080
X003238Y002953
X003238Y002826
X003238Y002699
X003238Y002572
X003238Y002445
X001262Y003082
X001262Y003209
X001262Y003336
X001262Y003463
X001262Y003590
X001262Y003717
X001262Y003844
X001262Y003971
X001262Y004098
X001262Y004225
X001135Y004098
X001135Y003971
X001135Y003844
X001135Y003717
X001135Y003590
X001135Y003463
X001135Y003336
X001135Y003209
X001135Y003082
X002055Y008065
X001928Y008065
X001801Y008065
X001674Y008065
X001547Y008065
X001420Y008065
X001293Y008065
X001166Y008065
X001039Y008065
X000912Y008065
X000785Y008065
X000658Y008065
X000531Y008065
X000404Y008065
X000277Y008065
X000277Y007938
X000404Y007938
X000531Y007938
X000658Y007938
X000785Y007938
X000912Y007938
X001039Y007938
X001166Y007938
X001293Y007938
X001420Y007938
X001547Y007938
X001674Y007938
X001801Y007938
X001928Y007938
X002055Y007938
X001418Y005962
X001291Y005962
X001164Y005962
X001037Y005962
X000910Y005962
X000783Y005962
X000656Y005962
X000529Y005962
X000402Y005962
X000275Y005962
X000402Y005835
X000529Y005835
X000656Y005835
X000783Y005835
X000910Y005835
X001037Y005835
X001164Y005835
X001291Y005835
X001418Y005835
X006755Y012065
X006628Y012065
X006501Y012065
X006374Y012065
X006247Y012065
X006120Y012065
X005993Y012065
X005866Y012065
X005739Y012065
X005612Y012065
X005485Y012065
X005358Y012065
X005231Y012065
X005104Y012065
X004977Y012065
X004977Y011938
X005104Y011938
X005231Y011938
X005358Y011938
X005485Y011938
X005612Y011938
X005739Y011938
X005866Y011938
X005993Y011938
X006120Y011938
X006247Y011938
X006374Y011938
X006501Y011938
X006628Y011938
X006755Y011938
X006118Y009962
X005991Y009962
X005864Y009962
X005737Y009962
X005610Y009962
X005483Y009962
X005356Y009962
X005229Y009962
X005102Y009962
X004975Y009962
X005102Y009835
X005229Y009835
X005356Y009835
X005483Y009835
X005610Y009835
X005737Y009835
X005864Y009835
X005991Y009835
X006118Y009835
X008065Y015845
X008065Y015972
X008065Y016099
X008065Y016226
X008065Y016353
X008065Y016480
X008065Y016607
X008065Y016734
X008065Y016861
X008065Y016988
X008065Y017115
X008065Y017242
X008065Y017369
X008065Y017496
X008065Y017623
X007938Y017623
X007938Y017496
X007938Y017369
X007938Y017242
X007938Y017115
X007938Y016988
X007938Y016861
X007938Y016734
X007938Y016607
X007938Y016480
X007938Y016353
X007938Y016226
X007938Y016099
X007938Y015972
X007938Y015845
X005962Y016482
X005962Y016609
X005962Y016736
X005962Y016863
X005962Y016990
X005962Y017117
X005962Y017244
X005962Y017371
X005962Y017498
X005962Y017625
X005835Y017498
X005835Y017371
X005835Y017244
X005835Y017117
X005835Y016990
X005835Y016863
X005835Y016736
X005835Y016609
X005835Y016482
X002055Y012765
X001928Y012765
X001801Y012765
X001674Y012765
X001547Y012765
X001420Y012765
X001293Y012765
X001166Y012765
X001039Y012765
X000912Y012765
X000785Y012765
X000658Y012765
X000531Y012765
X000404Y012765
X000277Y012765
X000277Y012638
X000404Y012638
X000531Y012638
X000658Y012638
X000785Y012638
X000912Y012638
X001039Y012638
X001166Y012638
X001293Y012638
X001420Y012638
X001547Y012638
X001674Y012638
X001801Y012638
X001928Y012638
X002055Y012638
X001418Y010662
X001291Y010662
X001164Y010662
X001037Y010662
X000910Y010662
X000783Y010662
X000656Y010662
X000529Y010662
X000402Y010662
X000275Y010662
X000402Y010535
X000529Y010535
X000656Y010535
X000783Y010535
X000910Y010535
X001037Y010535
X001164Y010535
X001291Y010535
X001418Y010535
X002055Y017465
X001928Y017465
X001801Y017465
X001674Y017465
X001547Y017465
X001420Y017465
X001293Y017465
X001166Y017465
X001039Y017465
X000912Y017465
X000785Y017465
X000658Y017465
X000531Y017465
X000404Y017465
X000277Y017465
X000277Y017338
X000404Y017338
X000531Y017338
X000658Y017338
X000785Y017338
X000912Y017338
X001039Y017338
X001166Y017338
X001293Y017338
X001420Y017338
X001547Y017338
X001674Y017338
X001801Y017338
X001928Y017338
X002055Y017338
X001418Y015362
X001291Y015362
X001164Y015362
X001037Y015362
X000910Y015362
X000783Y015362
X000656Y015362
X000529Y015362
X000402Y015362
X000275Y015362
X000402Y015235
X000529Y015235
X000656Y015235
X000783Y015235
X000910Y015235
X001037Y015235
X001164Y015235
X001291Y015235
X001418Y015235
T06C0.900000
X002789Y000803
X003039Y000803
X003239Y000803
X003489Y000803
X003697Y007489
X003697Y007739
X003697Y007939
X003697Y008189
X008397Y011489
X008397Y011739
X008397Y011939
X008397Y012189
X007489Y014203
X007739Y014203
X007939Y014203
X008189Y014203
X003697Y012189
X003697Y012439
X003697Y012639
X003697Y012889
X003697Y016889
X003697Y017139
X003697Y017339
X003697Y017589
T07C1.020000
X000250Y000876
X000250Y001130
X000250Y001384
X000250Y001638
X000250Y001892
X000250Y002146
X000250Y002400
X000250Y002654
X000250Y002908
X000250Y003162
X000250Y003416
X000250Y003670
X004250Y003670
X004250Y003416
X004250Y003162
X004250Y002908
X004250Y002654
X004250Y002400
X004250Y002146
X004250Y001892
X004250Y001638
X004250Y001384
X004250Y001130
X004250Y000876
X008324Y002250
X008070Y002250
X007816Y002250
X007562Y002250
X007308Y002250
X007054Y002250
X006800Y002250
X006546Y002250
X006292Y002250
X006038Y002250
X005784Y002250
X005530Y002250
X005530Y006250
X005784Y006250
X006038Y006250
X006292Y006250
X006546Y006250
X006800Y006250
X007054Y006250
X007308Y006250
X007562Y006250
X007816Y006250
X008070Y006250
X008324Y006250
X003624Y004950
X003370Y004950
X003116Y004950
X002862Y004950
X002608Y004950
X002354Y004950
X002100Y004950
X001846Y004950
X001592Y004950
X001338Y004950
X001084Y004950
X000830Y004950
X000830Y008950
X001084Y008950
X001338Y008950
X001592Y008950
X001846Y008950
X002100Y008950
X002354Y008950
X002608Y008950
X002862Y008950
X003116Y008950
X003370Y008950
X003624Y008950
X013150Y002376
X013150Y002630
X013150Y002884
X013150Y003138
X013150Y003392
X013150Y003646
X013150Y003900
X013150Y004154
X013150Y004408
X013150Y004662
X013150Y004916
X013150Y005170
X017150Y005170
X017150Y004916
X017150Y004662
X017150Y004408
X017150Y004154
X017150Y003900
X017150Y003646
X017150Y003392
X017150Y003138
X017150Y002884
X017150Y002630
X017150Y002376
X008324Y008950
X008070Y008950
X007816Y008950
X007562Y008950
X007308Y008950
X007054Y008950
X006800Y008950
X006546Y008950
X006292Y008950
X006038Y008950
X005784Y008950
X005530Y008950
X005530Y012950
X005784Y012950
X006038Y012950
X006292Y012950
X006546Y012950
X006800Y012950
X007054Y012950
X007308Y012950
X007562Y012950
X007816Y012950
X008070Y012950
X008324Y012950
X013150Y008576
X013150Y008830
X013150Y009084
X013150Y009338
X013150Y009592
X013150Y009846
X013150Y010100
X013150Y010354
X013150Y010608
X013150Y010862
X013150Y011116
X013150Y011370
X017150Y011370
X017150Y011116
X017150Y010862
X017150Y010608
X017150Y010354
X017150Y010100
X017150Y009846
X017150Y009592
X017150Y009338
X017150Y009084
X017150Y008830
X017150Y008576
X011650Y014776
X011650Y015030
X011650Y015284
X011650Y015538
X011650Y015792
X011650Y016046
X011650Y016300
X011650Y016554
X011650Y016808
X011650Y017062
X011650Y017316
X011650Y017570
X015650Y017570
X015650Y017316
X015650Y017062
X015650Y016808
X015650Y016554
X015650Y016300
X015650Y016046
X015650Y015792
X015650Y015538
X015650Y015284
X015650Y015030
X015650Y014776
X004950Y014276
X004950Y014530
X004950Y014784
X004950Y015038
X004950Y015292
X004950Y015546
X004950Y015800
X004950Y016054
X004950Y016308
X004950Y016562
X004950Y016816
X004950Y017070
X008950Y017070
X008950Y016816
X008950Y016562
X008950Y016308
X008950Y016054
X008950Y015800
X008950Y015546
X008950Y015292
X008950Y015038
X008950Y014784
X008950Y014530
X008950Y014276
X020350Y014776
X020350Y015030
X020350Y015284
X020350Y015538
X020350Y015792
X020350Y016046
X020350Y016300
X020350Y016554
X020350Y016808
X020350Y017062
X020350Y017316
X020350Y017570
X024350Y017570
X024350Y017316
X024350Y017062
X024350Y016808
X024350Y016554
X024350Y016300
X024350Y016046
X024350Y015792
X024350Y015538
X024350Y015284
X024350Y015030
X024350Y014776
X003624Y009650
X003370Y009650
X003116Y009650
X002862Y009650
X002608Y009650
X002354Y009650
X002100Y009650
X001846Y009650
X001592Y009650
X001338Y009650
X001084Y009650
X000830Y009650
X000830Y013650
X001084Y013650
X001338Y013650
X001592Y013650
X001846Y013650
X002100Y013650
X002354Y013650
X002608Y013650
X002862Y013650
X003116Y013650
X003370Y013650
X003624Y013650
X021850Y002376
X021850Y002630
X021850Y002884
X021850Y003138
X021850Y003392
X021850Y003646
X021850Y003900
X021850Y004154
X021850Y004408
X021850Y004662
X021850Y004916
X021850Y005170
X025850Y005170
X025850Y004916
X025850Y004662
X025850Y004408
X025850Y004154
X025850Y003900
X025850Y003646
X025850Y003392
X025850Y003138
X025850Y002884
X025850Y002630
X025850Y002376
X021850Y008576
X021850Y008830
X021850Y009084
X021850Y009338
X021850Y009592
X021850Y009846
X021850Y010100
X021850Y010354
X021850Y010608
X021850Y010862
X021850Y011116
X021850Y011370
X025850Y011370
X025850Y011116
X025850Y010862
X025850Y010608
X025850Y010354
X025850Y010100
X025850Y009846
X025850Y009592
X025850Y009338
X025850Y009084
X025850Y008830
X025850Y008576
X003624Y014350
X003370Y014350
X003116Y014350
X002862Y014350
X002608Y014350
X002354Y014350
X002100Y014350
X001846Y014350
X001592Y014350
X001338Y014350
X001084Y014350
X000830Y014350
X000830Y018350
X001084Y018350
X001338Y018350
X001592Y018350
X001846Y018350
X002100Y018350
X002354Y018350
X002608Y018350
X002862Y018350
X003116Y018350
X003370Y018350
X003624Y018350
X029050Y014776
X029050Y015030
X029050Y015284
X029050Y015538
X029050Y015792
X029050Y016046
X029050Y016300
X029050Y016554
X029050Y016808
X029050Y017062
X029050Y017316
X029050Y017570
X033050Y017570
X033050Y017316
X033050Y017062
X033050Y016808
X033050Y016554
X033050Y016300
X033050Y016046
X033050Y015792
X033050Y015538
X033050Y015284
X033050Y015030
X033050Y014776
X030550Y002376
X030550Y002630
X030550Y002884
X030550Y003138
X030550Y003392
X030550Y003646
X030550Y003900
X030550Y004154
X030550Y004408
X030550Y004662
X030550Y004916
X030550Y005170
X034550Y005170
X034550Y004916
X034550Y004662
X034550Y004408
X034550Y004154
X034550Y003900
X034550Y003646
X034550Y003392
X034550Y003138
X034550Y002884
X034550Y002630
X034550Y002376
X030550Y008576
X030550Y008830
X030550Y009084
X030550Y009338
X030550Y009592
X030550Y009846
X030550Y010100
X030550Y010354
X030550Y010608
X030550Y010862
X030550Y011116
X030550Y011370
X034550Y011370
X034550Y011116
X034550Y010862
X034550Y010608
X034550Y010354
X034550Y010100
X034550Y009846
X034550Y009592
X034550Y009338
X034550Y009084
X034550Y008830
X034550Y008576
T08C1.100000
X000281Y000285
X000535Y000285
X000789Y000285
X001043Y000285
X001297Y000285
X001552Y000285
X001805Y000285
X004215Y004981
X004215Y005235
X004215Y005489
X004215Y005743
X004215Y005997
X004215Y006252
X004215Y006505
X008915Y008981
X008915Y009235
X008915Y009489
X008915Y009743
X008915Y009997
X008915Y010252
X008915Y010505
X004981Y013685
X005235Y013685
X005489Y013685
X005743Y013685
X005997Y013685
X006252Y013685
X006505Y013685
X004215Y009681
X004215Y009935
X004215Y010189
X004215Y010443
X004215Y010697
X004215Y010952
X004215Y011205
X004215Y014381
X004215Y014635
X004215Y014889
X004215Y015143
X004215Y015397
X004215Y015652
X004215Y015905
T09C1.200000
X010423Y001050
X004937Y001050
X004937Y007450
X010423Y007450
X011950Y000277
X011950Y005763
X018350Y005763
X018350Y000277
X011950Y006477
X011950Y011963
X018350Y011963
X018350Y006477
X010450Y012677
X010450Y018163
X016850Y018163
X016850Y012677
X019150Y012677
X019150Y018163
X025550Y018163
X025550Y012677
X020650Y000277
X020650Y005763
X027050Y005763
X027050Y000277
X020650Y006477
X020650Y011963
X027050Y011963
X027050Y006477
X027850Y012677
X027850Y018163
X034250Y018163
X034250Y012677
X029350Y000277
X029350Y005763
X035750Y005763
X035750Y000277
X029350Y006477
X029350Y011963
X035750Y011963
X035750Y006477
T10C2.300000
X002482Y000533
X003796Y000533
X003967Y007182
X003967Y008496
X008667Y011182
X008667Y012496
X007182Y013933
X008496Y013933
X003967Y011882
X003967Y013196
X003967Y016582
X003967Y017896
T11C2.360000
X010423Y000303
X010423Y006703
X011203Y000277
X017603Y000277
X011203Y006477
X017603Y006477
X009703Y012677
X016103Y012677
X018403Y012677
X024803Y012677
X019903Y000277
X026303Y000277
X019903Y006477
X026303Y006477
X027103Y012677
X033503Y012677
X028603Y000277
X035003Y000277
X028603Y006477
X035003Y006477
T12C3.180000
X009407Y001050
X005953Y001050
X005953Y007450
X009407Y007450
X011950Y001293
X011950Y004747
X018350Y004747
X018350Y001293
X011950Y007493
X011950Y010947
X018350Y010947
X018350Y007493
X010450Y013693
X010450Y017147
X016850Y017147
X016850Y013693
X019150Y013693
X019150Y017147
X025550Y017147
X025550Y013693
X020650Y001293
X020650Y004747
X027050Y004747
X027050Y001293
X020650Y007493
X020650Y010947
X027050Y010947
X027050Y007493
X027850Y013693
X027850Y017147
X034250Y017147
X034250Y013693
X029350Y001293
X029350Y004747
X035750Y004747
X035750Y001293
X029350Y007493
X029350Y010947
X035750Y010947
X035750Y007493
M30
