G75*
G71*
%MOMM*%
%OFA0B0*%
%FSLAX53Y53*%
%IPPOS*%
%LPD*%
%ADD10R,2.14000X1.34000*%
%ADD11R,0.94000X1.04000*%
%ADD12R,1.19000X0.79000*%
%ADD14R,1.14000X0.84000*%
%ADD18C,1.24000*%
%ADD21R,2.64000X6.94000*%
%ADD24C,0.60000*%
%ADD27C,0.64000*%
%ADD33R,1.09000X1.54000*%
%ADD35C,2.36000*%
%ADD36R,2.04000X2.04000*%
%ADD37R,0.99000X1.54000*%
%ADD38C,3.18000*%
%ADD39R,0.79000X1.19000*%
%ADD40C,1.76000*%
%ADD43R,1.04000X0.94000*%
%ADD44R,1.76000X1.76000*%
%ADD46R,0.90000X1.41000*%
%ADD47R,1.54000X1.09000*%
%ADD54C,3.34000*%
%ADD57C,1.74000*%
%ADD62R,1.14000X1.14000*%
%ADD64C,1.84000*%
%ADD65R,1.74000X1.74000*%
%ADD67R,1.84000X1.84000*%
%ADD74R,2.14000X0.74000*%
%ADD75C,2.04000*%
%ADD85R,6.94000X2.64000*%
%ADD86R,0.74000X2.14000*%
%ADD87R,1.54000X0.99000*%
%ADD88R,1.41000X0.90000*%
%ADD89R,0.84000X1.14000*%
%ADD91R,1.34000X2.14000*%
X0000000Y0000000D02*
G75*
G01*
%LPD*%
D10*
X0024405Y0012380D03*
X0021605Y0012380D03*
D44*
X0002500Y0008760D03*
D40*
X0002500Y0011300D03*
X0002500Y0013840D03*
X0002500Y0016380D03*
X0002500Y0018920D03*
X0002500Y0021460D03*
X0002500Y0024000D03*
X0002500Y0026540D03*
X0002500Y0029080D03*
X0002500Y0031620D03*
X0002500Y0034160D03*
X0002500Y0036700D03*
D44*
X0042500Y0008760D03*
D40*
X0042500Y0011300D03*
X0042500Y0013840D03*
X0042500Y0016380D03*
X0042500Y0018920D03*
X0042500Y0021460D03*
X0042500Y0024000D03*
X0042500Y0026540D03*
X0042500Y0029080D03*
X0042500Y0031620D03*
X0042500Y0034160D03*
X0042500Y0036700D03*
D65*
X0027890Y0008032D03*
D57*
X0030390Y0008032D03*
X0032390Y0008032D03*
X0034890Y0008032D03*
D54*
X0024820Y0005332D03*
X0037960Y0005332D03*
D67*
X0002815Y0002855D03*
D64*
X0005355Y0002855D03*
X0007895Y0002855D03*
X0010435Y0002855D03*
X0012975Y0002855D03*
X0015515Y0002855D03*
X0018055Y0002855D03*
D62*
X0033650Y0024445D03*
D18*
X0033650Y0025715D03*
X0033650Y0026985D03*
X0033650Y0028255D03*
X0033650Y0029525D03*
X0033650Y0030795D03*
X0033650Y0032065D03*
X0033650Y0033335D03*
X0033650Y0034605D03*
X0033650Y0035875D03*
X0033650Y0037145D03*
X0033650Y0038415D03*
X0033650Y0039685D03*
X0033650Y0040955D03*
X0033650Y0042225D03*
X0032380Y0024445D03*
X0032380Y0025715D03*
X0032380Y0026985D03*
X0032380Y0028255D03*
X0032380Y0029525D03*
X0032380Y0030795D03*
X0032380Y0032065D03*
X0032380Y0033335D03*
X0032380Y0034605D03*
X0032380Y0035875D03*
X0032380Y0037145D03*
X0032380Y0038415D03*
X0032380Y0039685D03*
X0032380Y0040955D03*
X0032380Y0042225D03*
X0012620Y0030815D03*
X0012620Y0032085D03*
X0012620Y0033355D03*
X0012620Y0034625D03*
X0012620Y0035895D03*
X0012620Y0037165D03*
X0012620Y0038435D03*
X0012620Y0039705D03*
X0012620Y0040975D03*
X0012620Y0042245D03*
X0011350Y0030815D03*
X0011350Y0032085D03*
X0011350Y0033355D03*
X0011350Y0034625D03*
X0011350Y0035895D03*
X0011350Y0037165D03*
X0011350Y0038435D03*
X0011350Y0039705D03*
X0011350Y0040975D03*
D62*
X0011350Y0042245D03*
X0047000Y0000000D02*
G75*
G01*
%LPD*%
D36*
X0104230Y0010500D03*
D75*
X0049370Y0010500D03*
D38*
X0094070Y0010500D03*
X0059530Y0010500D03*
D35*
X0104230Y0003030D03*
D11*
X0070412Y0052978D03*
X0071712Y0052978D03*
D47*
X0088194Y0044826D03*
X0088194Y0042976D03*
D44*
X0083240Y0022500D03*
D40*
X0080700Y0022500D03*
X0078160Y0022500D03*
X0075620Y0022500D03*
X0073080Y0022500D03*
X0070540Y0022500D03*
X0068000Y0022500D03*
X0065460Y0022500D03*
X0062920Y0022500D03*
X0060380Y0022500D03*
X0057840Y0022500D03*
X0055300Y0022500D03*
D44*
X0083240Y0062500D03*
D40*
X0080700Y0062500D03*
X0078160Y0062500D03*
X0075620Y0062500D03*
X0073080Y0062500D03*
X0070540Y0062500D03*
X0068000Y0062500D03*
X0065460Y0062500D03*
X0062920Y0062500D03*
X0060380Y0062500D03*
X0057840Y0062500D03*
X0055300Y0062500D03*
D33*
X0071020Y0049775D03*
X0069170Y0049775D03*
D47*
X0055965Y0037419D03*
X0055965Y0039269D03*
D43*
X0071047Y0047739D03*
X0071047Y0046239D03*
X0066920Y0044246D03*
X0066920Y0045746D03*
D12*
X0061522Y0033609D03*
X0061522Y0035509D03*
X0059222Y0034559D03*
D87*
X0100260Y0043375D03*
X0100260Y0041625D03*
D12*
X0066243Y0053967D03*
X0066243Y0052067D03*
X0068543Y0053017D03*
G36*
X0075089Y0047949D02*
X0075173Y0047931D01*
X0075243Y0047877D01*
X0075278Y0047815D01*
X0075291Y0047739D01*
X0075278Y0047663D01*
X0075243Y0047601D01*
X0075172Y0047547D01*
X0075088Y0047529D01*
X0074426Y0047529D01*
X0074426Y0047949D01*
X0075089Y0047949D01*
G37*
G36*
X0075089Y0047449D02*
X0075173Y0047431D01*
X0075243Y0047377D01*
X0075278Y0047315D01*
X0075291Y0047239D01*
X0075278Y0047163D01*
X0075243Y0047101D01*
X0075172Y0047047D01*
X0075088Y0047029D01*
X0074426Y0047029D01*
X0074426Y0047449D01*
X0075089Y0047449D01*
G37*
G36*
X0075089Y0046949D02*
X0075173Y0046931D01*
X0075243Y0046877D01*
X0075278Y0046815D01*
X0075291Y0046739D01*
X0075278Y0046663D01*
X0075243Y0046601D01*
X0075172Y0046547D01*
X0075088Y0046529D01*
X0074426Y0046529D01*
X0074426Y0046949D01*
X0075089Y0046949D01*
G37*
G36*
X0075089Y0046449D02*
X0075173Y0046431D01*
X0075243Y0046377D01*
X0075278Y0046315D01*
X0075291Y0046239D01*
X0075278Y0046163D01*
X0075243Y0046101D01*
X0075172Y0046047D01*
X0075088Y0046029D01*
X0074426Y0046029D01*
X0074426Y0046449D01*
X0075089Y0046449D01*
G37*
G36*
X0077627Y0046029D02*
X0077543Y0046048D01*
X0077473Y0046102D01*
X0077438Y0046164D01*
X0077425Y0046239D01*
X0077438Y0046315D01*
X0077473Y0046377D01*
X0077544Y0046431D01*
X0077627Y0046449D01*
X0078290Y0046449D01*
X0078290Y0046029D01*
X0077627Y0046029D01*
G37*
G36*
X0077627Y0046529D02*
X0077543Y0046548D01*
X0077473Y0046602D01*
X0077438Y0046664D01*
X0077425Y0046739D01*
X0077438Y0046815D01*
X0077473Y0046877D01*
X0077544Y0046931D01*
X0077627Y0046949D01*
X0078290Y0046949D01*
X0078290Y0046529D01*
X0077627Y0046529D01*
G37*
G36*
X0077627Y0047029D02*
X0077543Y0047048D01*
X0077473Y0047102D01*
X0077438Y0047164D01*
X0077425Y0047239D01*
X0077438Y0047315D01*
X0077473Y0047377D01*
X0077544Y0047431D01*
X0077627Y0047449D01*
X0078290Y0047449D01*
X0078290Y0047029D01*
X0077627Y0047029D01*
G37*
G36*
X0077627Y0047529D02*
X0077543Y0047548D01*
X0077473Y0047602D01*
X0077438Y0047664D01*
X0077425Y0047739D01*
X0077438Y0047815D01*
X0077473Y0047877D01*
X0077544Y0047931D01*
X0077627Y0047949D01*
X0078290Y0047949D01*
X0078290Y0047529D01*
X0077627Y0047529D01*
G37*
G36*
X0077627Y0048029D02*
X0077543Y0048048D01*
X0077473Y0048102D01*
X0077438Y0048164D01*
X0077425Y0048239D01*
X0077438Y0048315D01*
X0077473Y0048377D01*
X0077544Y0048431D01*
X0077627Y0048449D01*
X0078290Y0048449D01*
X0078290Y0048029D01*
X0077627Y0048029D01*
G37*
D27*
X0075833Y0046489D03*
G36*
X0075438Y0048509D02*
X0075438Y0045969D01*
X0075843Y0045969D01*
X0075843Y0045269D01*
X0076263Y0045269D01*
X0076263Y0045969D01*
X0076403Y0045969D01*
X0076403Y0045269D01*
X0076823Y0045269D01*
X0076823Y0045969D01*
X0077228Y0045969D01*
X0077228Y0048509D01*
X0076823Y0048509D01*
X0076823Y0049209D01*
X0076403Y0049209D01*
X0076403Y0048509D01*
X0076263Y0048509D01*
X0076263Y0049209D01*
X0075843Y0049209D01*
X0075843Y0048509D01*
X0075438Y0048509D01*
G37*
G36*
X0075089Y0048449D02*
X0075173Y0048431D01*
X0075243Y0048377D01*
X0075278Y0048315D01*
X0075291Y0048239D01*
X0075278Y0048163D01*
X0075243Y0048101D01*
X0075172Y0048047D01*
X0075088Y0048029D01*
X0074426Y0048029D01*
X0074426Y0048449D01*
X0075089Y0048449D01*
G37*
D27*
X0076833Y0046489D03*
X0075833Y0047989D03*
X0076333Y0047239D03*
X0076833Y0047989D03*
D86*
X0063427Y0048216D03*
X0062157Y0048216D03*
X0060887Y0048216D03*
X0059617Y0048216D03*
X0059617Y0042816D03*
X0060887Y0042816D03*
X0062157Y0042816D03*
X0063427Y0042816D03*
D85*
X0083114Y0044723D03*
X0083114Y0049485D03*
D12*
X0069337Y0040319D03*
X0069337Y0042219D03*
X0067037Y0041269D03*
D11*
X0083749Y0055043D03*
X0085049Y0055043D03*
X0080732Y0055043D03*
X0082032Y0055043D03*
D43*
X0064236Y0036928D03*
X0064236Y0038228D03*
X0059140Y0037419D03*
X0059140Y0038719D03*
X0069445Y0037752D03*
X0069445Y0036452D03*
D11*
X0090070Y0051867D03*
X0091370Y0051867D03*
D43*
X0073485Y0053150D03*
X0073485Y0051850D03*
D89*
X0103229Y0049650D03*
X0104929Y0049650D03*
X0103229Y0055350D03*
X0104929Y0055350D03*
D24*
X0102729Y0052500D03*
X0105429Y0052500D03*
D89*
X0103277Y0029650D03*
X0104977Y0029650D03*
X0103277Y0035350D03*
X0104977Y0035350D03*
D24*
X0102777Y0032500D03*
X0105477Y0032500D03*
D39*
X0066920Y0033450D03*
X0065020Y0033450D03*
X0065970Y0031150D03*
D11*
X0062157Y0031069D03*
X0060857Y0031069D03*
D43*
X0067078Y0037737D03*
X0067078Y0036437D03*
D88*
X0068507Y0056313D03*
X0068507Y0057583D03*
X0060887Y0057583D03*
X0060887Y0056313D03*
D11*
X0076286Y0041547D03*
X0077586Y0041547D03*
X0074714Y0041563D03*
X0073414Y0041563D03*
D36*
X0104230Y0074500D03*
D75*
X0049370Y0074500D03*
D38*
X0094070Y0074500D03*
X0059530Y0074500D03*
D35*
X0104230Y0067030D03*
X0000000Y0047000D02*
G75*
G01*
%LPD*%
D91*
X0032620Y0071405D03*
X0032620Y0068605D03*
D44*
X0036240Y0049500D03*
D40*
X0033700Y0049500D03*
X0031160Y0049500D03*
X0028620Y0049500D03*
X0026080Y0049500D03*
X0023540Y0049500D03*
X0021000Y0049500D03*
X0018460Y0049500D03*
X0015920Y0049500D03*
X0013380Y0049500D03*
X0010840Y0049500D03*
X0008300Y0049500D03*
D44*
X0036240Y0089500D03*
D40*
X0033700Y0089500D03*
X0031160Y0089500D03*
X0028620Y0089500D03*
X0026080Y0089500D03*
X0023540Y0089500D03*
X0021000Y0089500D03*
X0018460Y0089500D03*
X0015920Y0089500D03*
X0013380Y0089500D03*
X0010840Y0089500D03*
X0008300Y0089500D03*
D65*
X0036968Y0074890D03*
D57*
X0036968Y0077390D03*
X0036968Y0079390D03*
X0036968Y0081890D03*
D54*
X0039668Y0071820D03*
X0039668Y0084960D03*
D67*
X0042145Y0049815D03*
D64*
X0042145Y0052355D03*
X0042145Y0054895D03*
X0042145Y0057435D03*
X0042145Y0059975D03*
X0042145Y0062515D03*
X0042145Y0065055D03*
D62*
X0020555Y0080650D03*
D18*
X0019285Y0080650D03*
X0018015Y0080650D03*
X0016745Y0080650D03*
X0015475Y0080650D03*
X0014205Y0080650D03*
X0012935Y0080650D03*
X0011665Y0080650D03*
X0010395Y0080650D03*
X0009125Y0080650D03*
X0007855Y0080650D03*
X0006585Y0080650D03*
X0005315Y0080650D03*
X0004045Y0080650D03*
X0002775Y0080650D03*
X0020555Y0079380D03*
X0019285Y0079380D03*
X0018015Y0079380D03*
X0016745Y0079380D03*
X0015475Y0079380D03*
X0014205Y0079380D03*
X0012935Y0079380D03*
X0011665Y0079380D03*
X0010395Y0079380D03*
X0009125Y0079380D03*
X0007855Y0079380D03*
X0006585Y0079380D03*
X0005315Y0079380D03*
X0004045Y0079380D03*
X0002775Y0079380D03*
X0014185Y0059620D03*
X0012915Y0059620D03*
X0011645Y0059620D03*
X0010375Y0059620D03*
X0009105Y0059620D03*
X0007835Y0059620D03*
X0006565Y0059620D03*
X0005295Y0059620D03*
X0004025Y0059620D03*
X0002755Y0059620D03*
X0014185Y0058350D03*
X0012915Y0058350D03*
X0011645Y0058350D03*
X0010375Y0058350D03*
X0009105Y0058350D03*
X0007835Y0058350D03*
X0006565Y0058350D03*
X0005295Y0058350D03*
X0004025Y0058350D03*
D62*
X0002755Y0058350D03*
X0109000Y0000000D02*
G75*
G01*
%LPD*%
D36*
X0119500Y0002770D03*
D75*
X0119500Y0057630D03*
D38*
X0119500Y0012930D03*
X0119500Y0047470D03*
D35*
X0112030Y0002770D03*
D43*
X0161978Y0036588D03*
X0161978Y0035288D03*
D33*
X0153826Y0018806D03*
X0151976Y0018806D03*
D44*
X0131500Y0023760D03*
D40*
X0131500Y0026300D03*
X0131500Y0028840D03*
X0131500Y0031380D03*
X0131500Y0033920D03*
X0131500Y0036460D03*
X0131500Y0039000D03*
X0131500Y0041540D03*
X0131500Y0044080D03*
X0131500Y0046620D03*
X0131500Y0049160D03*
X0131500Y0051700D03*
D44*
X0171500Y0023760D03*
D40*
X0171500Y0026300D03*
X0171500Y0028840D03*
X0171500Y0031380D03*
X0171500Y0033920D03*
X0171500Y0036460D03*
X0171500Y0039000D03*
X0171500Y0041540D03*
X0171500Y0044080D03*
X0171500Y0046620D03*
X0171500Y0049160D03*
X0171500Y0051700D03*
D47*
X0158775Y0035980D03*
X0158775Y0037830D03*
D33*
X0146419Y0051035D03*
X0148269Y0051035D03*
D11*
X0156739Y0035953D03*
X0155239Y0035953D03*
X0153246Y0040080D03*
X0154746Y0040080D03*
D39*
X0142609Y0045478D03*
X0144509Y0045478D03*
X0143559Y0047778D03*
D37*
X0152375Y0006740D03*
X0150625Y0006740D03*
D39*
X0162967Y0040757D03*
X0161067Y0040757D03*
X0162017Y0038457D03*
G36*
X0156949Y0031911D02*
X0156931Y0031827D01*
X0156877Y0031757D01*
X0156815Y0031722D01*
X0156739Y0031709D01*
X0156663Y0031722D01*
X0156601Y0031757D01*
X0156547Y0031828D01*
X0156529Y0031912D01*
X0156529Y0032574D01*
X0156949Y0032574D01*
X0156949Y0031911D01*
G37*
G36*
X0156449Y0031911D02*
X0156431Y0031827D01*
X0156377Y0031757D01*
X0156315Y0031722D01*
X0156239Y0031709D01*
X0156163Y0031722D01*
X0156101Y0031757D01*
X0156047Y0031828D01*
X0156029Y0031912D01*
X0156029Y0032574D01*
X0156449Y0032574D01*
X0156449Y0031911D01*
G37*
G36*
X0155949Y0031911D02*
X0155931Y0031827D01*
X0155877Y0031757D01*
X0155815Y0031722D01*
X0155739Y0031709D01*
X0155663Y0031722D01*
X0155601Y0031757D01*
X0155547Y0031828D01*
X0155529Y0031912D01*
X0155529Y0032574D01*
X0155949Y0032574D01*
X0155949Y0031911D01*
G37*
G36*
X0155449Y0031911D02*
X0155431Y0031827D01*
X0155377Y0031757D01*
X0155315Y0031722D01*
X0155239Y0031709D01*
X0155163Y0031722D01*
X0155101Y0031757D01*
X0155047Y0031828D01*
X0155029Y0031912D01*
X0155029Y0032574D01*
X0155449Y0032574D01*
X0155449Y0031911D01*
G37*
G36*
X0155029Y0029373D02*
X0155048Y0029457D01*
X0155102Y0029527D01*
X0155164Y0029562D01*
X0155239Y0029575D01*
X0155315Y0029562D01*
X0155377Y0029527D01*
X0155431Y0029456D01*
X0155449Y0029373D01*
X0155449Y0028710D01*
X0155029Y0028710D01*
X0155029Y0029373D01*
G37*
G36*
X0155529Y0029373D02*
X0155548Y0029457D01*
X0155602Y0029527D01*
X0155664Y0029562D01*
X0155739Y0029575D01*
X0155815Y0029562D01*
X0155877Y0029527D01*
X0155931Y0029456D01*
X0155949Y0029373D01*
X0155949Y0028710D01*
X0155529Y0028710D01*
X0155529Y0029373D01*
G37*
G36*
X0156029Y0029373D02*
X0156048Y0029457D01*
X0156102Y0029527D01*
X0156164Y0029562D01*
X0156239Y0029575D01*
X0156315Y0029562D01*
X0156377Y0029527D01*
X0156431Y0029456D01*
X0156449Y0029373D01*
X0156449Y0028710D01*
X0156029Y0028710D01*
X0156029Y0029373D01*
G37*
G36*
X0156529Y0029373D02*
X0156548Y0029457D01*
X0156602Y0029527D01*
X0156664Y0029562D01*
X0156739Y0029575D01*
X0156815Y0029562D01*
X0156877Y0029527D01*
X0156931Y0029456D01*
X0156949Y0029373D01*
X0156949Y0028710D01*
X0156529Y0028710D01*
X0156529Y0029373D01*
G37*
G36*
X0157029Y0029373D02*
X0157048Y0029457D01*
X0157102Y0029527D01*
X0157164Y0029562D01*
X0157239Y0029575D01*
X0157315Y0029562D01*
X0157377Y0029527D01*
X0157431Y0029456D01*
X0157449Y0029373D01*
X0157449Y0028710D01*
X0157029Y0028710D01*
X0157029Y0029373D01*
G37*
D27*
X0155489Y0031167D03*
G36*
X0157509Y0031562D02*
X0154969Y0031562D01*
X0154969Y0031157D01*
X0154269Y0031157D01*
X0154269Y0030737D01*
X0154969Y0030737D01*
X0154969Y0030597D01*
X0154269Y0030597D01*
X0154269Y0030177D01*
X0154969Y0030177D01*
X0154969Y0029772D01*
X0157509Y0029772D01*
X0157509Y0030177D01*
X0158209Y0030177D01*
X0158209Y0030597D01*
X0157509Y0030597D01*
X0157509Y0030737D01*
X0158209Y0030737D01*
X0158209Y0031157D01*
X0157509Y0031157D01*
X0157509Y0031562D01*
G37*
G36*
X0157449Y0031911D02*
X0157431Y0031827D01*
X0157377Y0031757D01*
X0157315Y0031722D01*
X0157239Y0031709D01*
X0157163Y0031722D01*
X0157101Y0031757D01*
X0157047Y0031828D01*
X0157029Y0031912D01*
X0157029Y0032574D01*
X0157449Y0032574D01*
X0157449Y0031911D01*
G37*
D27*
X0155489Y0030167D03*
X0156989Y0031167D03*
X0156239Y0030667D03*
X0156989Y0030167D03*
D74*
X0157216Y0043573D03*
X0157216Y0044843D03*
X0157216Y0046113D03*
X0157216Y0047383D03*
X0151816Y0047383D03*
X0151816Y0046113D03*
X0151816Y0044843D03*
X0151816Y0043573D03*
D21*
X0153723Y0023886D03*
X0158485Y0023886D03*
D39*
X0149319Y0037663D03*
X0151219Y0037663D03*
X0150269Y0039963D03*
D43*
X0164043Y0023251D03*
X0164043Y0021951D03*
X0164043Y0026268D03*
X0164043Y0024968D03*
D11*
X0145928Y0042764D03*
X0147228Y0042764D03*
X0146419Y0047860D03*
X0147719Y0047860D03*
X0146752Y0037555D03*
X0145452Y0037555D03*
D43*
X0160867Y0016930D03*
X0160867Y0015630D03*
D11*
X0162150Y0033515D03*
X0160850Y0033515D03*
D14*
X0158650Y0003771D03*
X0158650Y0002071D03*
X0164350Y0003771D03*
X0164350Y0002071D03*
D24*
X0161500Y0004271D03*
X0161500Y0001571D03*
D14*
X0138650Y0003723D03*
X0138650Y0002023D03*
X0144350Y0003723D03*
X0144350Y0002023D03*
D24*
X0141500Y0004223D03*
X0141500Y0001523D03*
D12*
X0142450Y0040080D03*
X0142450Y0041980D03*
X0140150Y0041030D03*
D43*
X0140069Y0044843D03*
X0140069Y0046143D03*
D11*
X0146737Y0039922D03*
X0145437Y0039922D03*
D46*
X0165313Y0038493D03*
X0166583Y0038493D03*
X0166583Y0046113D03*
X0165313Y0046113D03*
D43*
X0150547Y0030714D03*
X0150547Y0029414D03*
X0150563Y0032286D03*
X0150563Y0033586D03*
D36*
X0183500Y0002770D03*
D75*
X0183500Y0057630D03*
D38*
X0183500Y0012930D03*
X0183500Y0047470D03*
D35*
X0176030Y0002770D03*
X0047000Y0087000D02*
G75*
G01*
%LPD*%
D91*
X0079620Y0111405D03*
X0079620Y0108605D03*
D44*
X0083240Y0089500D03*
D40*
X0080700Y0089500D03*
X0078160Y0089500D03*
X0075620Y0089500D03*
X0073080Y0089500D03*
X0070540Y0089500D03*
X0068000Y0089500D03*
X0065460Y0089500D03*
X0062920Y0089500D03*
X0060380Y0089500D03*
X0057840Y0089500D03*
X0055300Y0089500D03*
D44*
X0083240Y0129500D03*
D40*
X0080700Y0129500D03*
X0078160Y0129500D03*
X0075620Y0129500D03*
X0073080Y0129500D03*
X0070540Y0129500D03*
X0068000Y0129500D03*
X0065460Y0129500D03*
X0062920Y0129500D03*
X0060380Y0129500D03*
X0057840Y0129500D03*
X0055300Y0129500D03*
D65*
X0083968Y0114890D03*
D57*
X0083968Y0117390D03*
X0083968Y0119390D03*
X0083968Y0121890D03*
D54*
X0086668Y0111820D03*
X0086668Y0124960D03*
D67*
X0089145Y0089815D03*
D64*
X0089145Y0092355D03*
X0089145Y0094895D03*
X0089145Y0097435D03*
X0089145Y0099975D03*
X0089145Y0102515D03*
X0089145Y0105055D03*
D62*
X0067555Y0120650D03*
D18*
X0066285Y0120650D03*
X0065015Y0120650D03*
X0063745Y0120650D03*
X0062475Y0120650D03*
X0061205Y0120650D03*
X0059935Y0120650D03*
X0058665Y0120650D03*
X0057395Y0120650D03*
X0056125Y0120650D03*
X0054855Y0120650D03*
X0053585Y0120650D03*
X0052315Y0120650D03*
X0051045Y0120650D03*
X0049775Y0120650D03*
X0067555Y0119380D03*
X0066285Y0119380D03*
X0065015Y0119380D03*
X0063745Y0119380D03*
X0062475Y0119380D03*
X0061205Y0119380D03*
X0059935Y0119380D03*
X0058665Y0119380D03*
X0057395Y0119380D03*
X0056125Y0119380D03*
X0054855Y0119380D03*
X0053585Y0119380D03*
X0052315Y0119380D03*
X0051045Y0119380D03*
X0049775Y0119380D03*
X0061185Y0099620D03*
X0059915Y0099620D03*
X0058645Y0099620D03*
X0057375Y0099620D03*
X0056105Y0099620D03*
X0054835Y0099620D03*
X0053565Y0099620D03*
X0052295Y0099620D03*
X0051025Y0099620D03*
X0049755Y0099620D03*
X0061185Y0098350D03*
X0059915Y0098350D03*
X0058645Y0098350D03*
X0057375Y0098350D03*
X0056105Y0098350D03*
X0054835Y0098350D03*
X0053565Y0098350D03*
X0052295Y0098350D03*
X0051025Y0098350D03*
D62*
X0049755Y0098350D03*
X0109000Y0062000D02*
G75*
G01*
%LPD*%
D36*
X0119500Y0064770D03*
D75*
X0119500Y0119630D03*
D38*
X0119500Y0074930D03*
X0119500Y0109470D03*
D35*
X0112030Y0064770D03*
D43*
X0161978Y0098588D03*
X0161978Y0097288D03*
D33*
X0153826Y0080806D03*
X0151976Y0080806D03*
D44*
X0131500Y0085760D03*
D40*
X0131500Y0088300D03*
X0131500Y0090840D03*
X0131500Y0093380D03*
X0131500Y0095920D03*
X0131500Y0098460D03*
X0131500Y0101000D03*
X0131500Y0103540D03*
X0131500Y0106080D03*
X0131500Y0108620D03*
X0131500Y0111160D03*
X0131500Y0113700D03*
D44*
X0171500Y0085760D03*
D40*
X0171500Y0088300D03*
X0171500Y0090840D03*
X0171500Y0093380D03*
X0171500Y0095920D03*
X0171500Y0098460D03*
X0171500Y0101000D03*
X0171500Y0103540D03*
X0171500Y0106080D03*
X0171500Y0108620D03*
X0171500Y0111160D03*
X0171500Y0113700D03*
D47*
X0158775Y0097980D03*
X0158775Y0099830D03*
D33*
X0146419Y0113035D03*
X0148269Y0113035D03*
D11*
X0156739Y0097953D03*
X0155239Y0097953D03*
X0153246Y0102080D03*
X0154746Y0102080D03*
D39*
X0142609Y0107478D03*
X0144509Y0107478D03*
X0143559Y0109778D03*
D37*
X0152375Y0068740D03*
X0150625Y0068740D03*
D39*
X0162967Y0102757D03*
X0161067Y0102757D03*
X0162017Y0100457D03*
G36*
X0156949Y0093911D02*
X0156931Y0093827D01*
X0156877Y0093757D01*
X0156815Y0093722D01*
X0156739Y0093709D01*
X0156663Y0093722D01*
X0156601Y0093757D01*
X0156547Y0093828D01*
X0156529Y0093912D01*
X0156529Y0094574D01*
X0156949Y0094574D01*
X0156949Y0093911D01*
G37*
G36*
X0156449Y0093911D02*
X0156431Y0093827D01*
X0156377Y0093757D01*
X0156315Y0093722D01*
X0156239Y0093709D01*
X0156163Y0093722D01*
X0156101Y0093757D01*
X0156047Y0093828D01*
X0156029Y0093912D01*
X0156029Y0094574D01*
X0156449Y0094574D01*
X0156449Y0093911D01*
G37*
G36*
X0155949Y0093911D02*
X0155931Y0093827D01*
X0155877Y0093757D01*
X0155815Y0093722D01*
X0155739Y0093709D01*
X0155663Y0093722D01*
X0155601Y0093757D01*
X0155547Y0093828D01*
X0155529Y0093912D01*
X0155529Y0094574D01*
X0155949Y0094574D01*
X0155949Y0093911D01*
G37*
G36*
X0155449Y0093911D02*
X0155431Y0093827D01*
X0155377Y0093757D01*
X0155315Y0093722D01*
X0155239Y0093709D01*
X0155163Y0093722D01*
X0155101Y0093757D01*
X0155047Y0093828D01*
X0155029Y0093912D01*
X0155029Y0094574D01*
X0155449Y0094574D01*
X0155449Y0093911D01*
G37*
G36*
X0155029Y0091373D02*
X0155048Y0091457D01*
X0155102Y0091527D01*
X0155164Y0091562D01*
X0155239Y0091575D01*
X0155315Y0091562D01*
X0155377Y0091527D01*
X0155431Y0091456D01*
X0155449Y0091373D01*
X0155449Y0090710D01*
X0155029Y0090710D01*
X0155029Y0091373D01*
G37*
G36*
X0155529Y0091373D02*
X0155548Y0091457D01*
X0155602Y0091527D01*
X0155664Y0091562D01*
X0155739Y0091575D01*
X0155815Y0091562D01*
X0155877Y0091527D01*
X0155931Y0091456D01*
X0155949Y0091373D01*
X0155949Y0090710D01*
X0155529Y0090710D01*
X0155529Y0091373D01*
G37*
G36*
X0156029Y0091373D02*
X0156048Y0091457D01*
X0156102Y0091527D01*
X0156164Y0091562D01*
X0156239Y0091575D01*
X0156315Y0091562D01*
X0156377Y0091527D01*
X0156431Y0091456D01*
X0156449Y0091373D01*
X0156449Y0090710D01*
X0156029Y0090710D01*
X0156029Y0091373D01*
G37*
G36*
X0156529Y0091373D02*
X0156548Y0091457D01*
X0156602Y0091527D01*
X0156664Y0091562D01*
X0156739Y0091575D01*
X0156815Y0091562D01*
X0156877Y0091527D01*
X0156931Y0091456D01*
X0156949Y0091373D01*
X0156949Y0090710D01*
X0156529Y0090710D01*
X0156529Y0091373D01*
G37*
G36*
X0157029Y0091373D02*
X0157048Y0091457D01*
X0157102Y0091527D01*
X0157164Y0091562D01*
X0157239Y0091575D01*
X0157315Y0091562D01*
X0157377Y0091527D01*
X0157431Y0091456D01*
X0157449Y0091373D01*
X0157449Y0090710D01*
X0157029Y0090710D01*
X0157029Y0091373D01*
G37*
D27*
X0155489Y0093167D03*
G36*
X0157509Y0093562D02*
X0154969Y0093562D01*
X0154969Y0093157D01*
X0154269Y0093157D01*
X0154269Y0092737D01*
X0154969Y0092737D01*
X0154969Y0092597D01*
X0154269Y0092597D01*
X0154269Y0092177D01*
X0154969Y0092177D01*
X0154969Y0091772D01*
X0157509Y0091772D01*
X0157509Y0092177D01*
X0158209Y0092177D01*
X0158209Y0092597D01*
X0157509Y0092597D01*
X0157509Y0092737D01*
X0158209Y0092737D01*
X0158209Y0093157D01*
X0157509Y0093157D01*
X0157509Y0093562D01*
G37*
G36*
X0157449Y0093911D02*
X0157431Y0093827D01*
X0157377Y0093757D01*
X0157315Y0093722D01*
X0157239Y0093709D01*
X0157163Y0093722D01*
X0157101Y0093757D01*
X0157047Y0093828D01*
X0157029Y0093912D01*
X0157029Y0094574D01*
X0157449Y0094574D01*
X0157449Y0093911D01*
G37*
D27*
X0155489Y0092167D03*
X0156989Y0093167D03*
X0156239Y0092667D03*
X0156989Y0092167D03*
D74*
X0157216Y0105573D03*
X0157216Y0106843D03*
X0157216Y0108113D03*
X0157216Y0109383D03*
X0151816Y0109383D03*
X0151816Y0108113D03*
X0151816Y0106843D03*
X0151816Y0105573D03*
D21*
X0153723Y0085886D03*
X0158485Y0085886D03*
D39*
X0149319Y0099663D03*
X0151219Y0099663D03*
X0150269Y0101963D03*
D43*
X0164043Y0085251D03*
X0164043Y0083951D03*
X0164043Y0088268D03*
X0164043Y0086968D03*
D11*
X0145928Y0104764D03*
X0147228Y0104764D03*
X0146419Y0109860D03*
X0147719Y0109860D03*
X0146752Y0099555D03*
X0145452Y0099555D03*
D43*
X0160867Y0078930D03*
X0160867Y0077630D03*
D11*
X0162150Y0095515D03*
X0160850Y0095515D03*
D14*
X0158650Y0065771D03*
X0158650Y0064071D03*
X0164350Y0065771D03*
X0164350Y0064071D03*
D24*
X0161500Y0066271D03*
X0161500Y0063571D03*
D14*
X0138650Y0065723D03*
X0138650Y0064023D03*
X0144350Y0065723D03*
X0144350Y0064023D03*
D24*
X0141500Y0066223D03*
X0141500Y0063523D03*
D12*
X0142450Y0102080D03*
X0142450Y0103980D03*
X0140150Y0103030D03*
D43*
X0140069Y0106843D03*
X0140069Y0108143D03*
D11*
X0146737Y0101922D03*
X0145437Y0101922D03*
D46*
X0165313Y0100493D03*
X0166583Y0100493D03*
X0166583Y0108113D03*
X0165313Y0108113D03*
D43*
X0150547Y0092714D03*
X0150547Y0091414D03*
X0150563Y0094286D03*
X0150563Y0095586D03*
D36*
X0183500Y0064770D03*
D75*
X0183500Y0119630D03*
D38*
X0183500Y0074930D03*
X0183500Y0109470D03*
D35*
X0176030Y0064770D03*
X0094000Y0124000D02*
G75*
G01*
%LPD*%
D36*
X0104500Y0126770D03*
D75*
X0104500Y0181630D03*
D38*
X0104500Y0136930D03*
X0104500Y0171470D03*
D35*
X0097030Y0126770D03*
D43*
X0146978Y0160588D03*
X0146978Y0159288D03*
D33*
X0138826Y0142806D03*
X0136976Y0142806D03*
D44*
X0116500Y0147760D03*
D40*
X0116500Y0150300D03*
X0116500Y0152840D03*
X0116500Y0155380D03*
X0116500Y0157920D03*
X0116500Y0160460D03*
X0116500Y0163000D03*
X0116500Y0165540D03*
X0116500Y0168080D03*
X0116500Y0170620D03*
X0116500Y0173160D03*
X0116500Y0175700D03*
D44*
X0156500Y0147760D03*
D40*
X0156500Y0150300D03*
X0156500Y0152840D03*
X0156500Y0155380D03*
X0156500Y0157920D03*
X0156500Y0160460D03*
X0156500Y0163000D03*
X0156500Y0165540D03*
X0156500Y0168080D03*
X0156500Y0170620D03*
X0156500Y0173160D03*
X0156500Y0175700D03*
D47*
X0143775Y0159980D03*
X0143775Y0161830D03*
D33*
X0131419Y0175035D03*
X0133269Y0175035D03*
D11*
X0141739Y0159953D03*
X0140239Y0159953D03*
X0138246Y0164080D03*
X0139746Y0164080D03*
D39*
X0127609Y0169478D03*
X0129509Y0169478D03*
X0128559Y0171778D03*
D37*
X0137375Y0130740D03*
X0135625Y0130740D03*
D39*
X0147967Y0164757D03*
X0146067Y0164757D03*
X0147017Y0162457D03*
G36*
X0141949Y0155911D02*
X0141931Y0155827D01*
X0141877Y0155757D01*
X0141815Y0155722D01*
X0141739Y0155709D01*
X0141663Y0155722D01*
X0141601Y0155757D01*
X0141547Y0155828D01*
X0141529Y0155912D01*
X0141529Y0156574D01*
X0141949Y0156574D01*
X0141949Y0155911D01*
G37*
G36*
X0141449Y0155911D02*
X0141431Y0155827D01*
X0141377Y0155757D01*
X0141315Y0155722D01*
X0141239Y0155709D01*
X0141163Y0155722D01*
X0141101Y0155757D01*
X0141047Y0155828D01*
X0141029Y0155912D01*
X0141029Y0156574D01*
X0141449Y0156574D01*
X0141449Y0155911D01*
G37*
G36*
X0140949Y0155911D02*
X0140931Y0155827D01*
X0140877Y0155757D01*
X0140815Y0155722D01*
X0140739Y0155709D01*
X0140663Y0155722D01*
X0140601Y0155757D01*
X0140547Y0155828D01*
X0140529Y0155912D01*
X0140529Y0156574D01*
X0140949Y0156574D01*
X0140949Y0155911D01*
G37*
G36*
X0140449Y0155911D02*
X0140431Y0155827D01*
X0140377Y0155757D01*
X0140315Y0155722D01*
X0140239Y0155709D01*
X0140163Y0155722D01*
X0140101Y0155757D01*
X0140047Y0155828D01*
X0140029Y0155912D01*
X0140029Y0156574D01*
X0140449Y0156574D01*
X0140449Y0155911D01*
G37*
G36*
X0140029Y0153373D02*
X0140048Y0153457D01*
X0140102Y0153527D01*
X0140164Y0153562D01*
X0140239Y0153575D01*
X0140315Y0153562D01*
X0140377Y0153527D01*
X0140431Y0153456D01*
X0140449Y0153373D01*
X0140449Y0152710D01*
X0140029Y0152710D01*
X0140029Y0153373D01*
G37*
G36*
X0140529Y0153373D02*
X0140548Y0153457D01*
X0140602Y0153527D01*
X0140664Y0153562D01*
X0140739Y0153575D01*
X0140815Y0153562D01*
X0140877Y0153527D01*
X0140931Y0153456D01*
X0140949Y0153373D01*
X0140949Y0152710D01*
X0140529Y0152710D01*
X0140529Y0153373D01*
G37*
G36*
X0141029Y0153373D02*
X0141048Y0153457D01*
X0141102Y0153527D01*
X0141164Y0153562D01*
X0141239Y0153575D01*
X0141315Y0153562D01*
X0141377Y0153527D01*
X0141431Y0153456D01*
X0141449Y0153373D01*
X0141449Y0152710D01*
X0141029Y0152710D01*
X0141029Y0153373D01*
G37*
G36*
X0141529Y0153373D02*
X0141548Y0153457D01*
X0141602Y0153527D01*
X0141664Y0153562D01*
X0141739Y0153575D01*
X0141815Y0153562D01*
X0141877Y0153527D01*
X0141931Y0153456D01*
X0141949Y0153373D01*
X0141949Y0152710D01*
X0141529Y0152710D01*
X0141529Y0153373D01*
G37*
G36*
X0142029Y0153373D02*
X0142048Y0153457D01*
X0142102Y0153527D01*
X0142164Y0153562D01*
X0142239Y0153575D01*
X0142315Y0153562D01*
X0142377Y0153527D01*
X0142431Y0153456D01*
X0142449Y0153373D01*
X0142449Y0152710D01*
X0142029Y0152710D01*
X0142029Y0153373D01*
G37*
D27*
X0140489Y0155167D03*
G36*
X0142509Y0155562D02*
X0139969Y0155562D01*
X0139969Y0155157D01*
X0139269Y0155157D01*
X0139269Y0154737D01*
X0139969Y0154737D01*
X0139969Y0154597D01*
X0139269Y0154597D01*
X0139269Y0154177D01*
X0139969Y0154177D01*
X0139969Y0153772D01*
X0142509Y0153772D01*
X0142509Y0154177D01*
X0143209Y0154177D01*
X0143209Y0154597D01*
X0142509Y0154597D01*
X0142509Y0154737D01*
X0143209Y0154737D01*
X0143209Y0155157D01*
X0142509Y0155157D01*
X0142509Y0155562D01*
G37*
G36*
X0142449Y0155911D02*
X0142431Y0155827D01*
X0142377Y0155757D01*
X0142315Y0155722D01*
X0142239Y0155709D01*
X0142163Y0155722D01*
X0142101Y0155757D01*
X0142047Y0155828D01*
X0142029Y0155912D01*
X0142029Y0156574D01*
X0142449Y0156574D01*
X0142449Y0155911D01*
G37*
D27*
X0140489Y0154167D03*
X0141989Y0155167D03*
X0141239Y0154667D03*
X0141989Y0154167D03*
D74*
X0142216Y0167573D03*
X0142216Y0168843D03*
X0142216Y0170113D03*
X0142216Y0171383D03*
X0136816Y0171383D03*
X0136816Y0170113D03*
X0136816Y0168843D03*
X0136816Y0167573D03*
D21*
X0138723Y0147886D03*
X0143485Y0147886D03*
D39*
X0134319Y0161663D03*
X0136219Y0161663D03*
X0135269Y0163963D03*
D43*
X0149043Y0147251D03*
X0149043Y0145951D03*
X0149043Y0150268D03*
X0149043Y0148968D03*
D11*
X0130928Y0166764D03*
X0132228Y0166764D03*
X0131419Y0171860D03*
X0132719Y0171860D03*
X0131752Y0161555D03*
X0130452Y0161555D03*
D43*
X0145867Y0140930D03*
X0145867Y0139630D03*
D11*
X0147150Y0157515D03*
X0145850Y0157515D03*
D14*
X0143650Y0127771D03*
X0143650Y0126071D03*
X0149350Y0127771D03*
X0149350Y0126071D03*
D24*
X0146500Y0128271D03*
X0146500Y0125571D03*
D14*
X0123650Y0127723D03*
X0123650Y0126023D03*
X0129350Y0127723D03*
X0129350Y0126023D03*
D24*
X0126500Y0128223D03*
X0126500Y0125523D03*
D12*
X0127450Y0164080D03*
X0127450Y0165980D03*
X0125150Y0165030D03*
D43*
X0125069Y0168843D03*
X0125069Y0170143D03*
D11*
X0131737Y0163922D03*
X0130437Y0163922D03*
D46*
X0150313Y0162493D03*
X0151583Y0162493D03*
X0151583Y0170113D03*
X0150313Y0170113D03*
D43*
X0135547Y0154714D03*
X0135547Y0153414D03*
X0135563Y0156286D03*
X0135563Y0157586D03*
D36*
X0168500Y0126770D03*
D75*
X0168500Y0181630D03*
D38*
X0168500Y0136930D03*
X0168500Y0171470D03*
D35*
X0161030Y0126770D03*
X0047000Y0134000D02*
G75*
G01*
%LPD*%
D10*
X0071405Y0146380D03*
X0068605Y0146380D03*
D44*
X0049500Y0142760D03*
D40*
X0049500Y0145300D03*
X0049500Y0147840D03*
X0049500Y0150380D03*
X0049500Y0152920D03*
X0049500Y0155460D03*
X0049500Y0158000D03*
X0049500Y0160540D03*
X0049500Y0163080D03*
X0049500Y0165620D03*
X0049500Y0168160D03*
X0049500Y0170700D03*
D44*
X0089500Y0142760D03*
D40*
X0089500Y0145300D03*
X0089500Y0147840D03*
X0089500Y0150380D03*
X0089500Y0152920D03*
X0089500Y0155460D03*
X0089500Y0158000D03*
X0089500Y0160540D03*
X0089500Y0163080D03*
X0089500Y0165620D03*
X0089500Y0168160D03*
X0089500Y0170700D03*
D65*
X0074890Y0142032D03*
D57*
X0077390Y0142032D03*
X0079390Y0142032D03*
X0081890Y0142032D03*
D54*
X0071820Y0139332D03*
X0084960Y0139332D03*
D67*
X0049815Y0136855D03*
D64*
X0052355Y0136855D03*
X0054895Y0136855D03*
X0057435Y0136855D03*
X0059975Y0136855D03*
X0062515Y0136855D03*
X0065055Y0136855D03*
D62*
X0080650Y0158445D03*
D18*
X0080650Y0159715D03*
X0080650Y0160985D03*
X0080650Y0162255D03*
X0080650Y0163525D03*
X0080650Y0164795D03*
X0080650Y0166065D03*
X0080650Y0167335D03*
X0080650Y0168605D03*
X0080650Y0169875D03*
X0080650Y0171145D03*
X0080650Y0172415D03*
X0080650Y0173685D03*
X0080650Y0174955D03*
X0080650Y0176225D03*
X0079380Y0158445D03*
X0079380Y0159715D03*
X0079380Y0160985D03*
X0079380Y0162255D03*
X0079380Y0163525D03*
X0079380Y0164795D03*
X0079380Y0166065D03*
X0079380Y0167335D03*
X0079380Y0168605D03*
X0079380Y0169875D03*
X0079380Y0171145D03*
X0079380Y0172415D03*
X0079380Y0173685D03*
X0079380Y0174955D03*
X0079380Y0176225D03*
X0059620Y0164815D03*
X0059620Y0166085D03*
X0059620Y0167355D03*
X0059620Y0168625D03*
X0059620Y0169895D03*
X0059620Y0171165D03*
X0059620Y0172435D03*
X0059620Y0173705D03*
X0059620Y0174975D03*
X0059620Y0176245D03*
X0058350Y0164815D03*
X0058350Y0166085D03*
X0058350Y0167355D03*
X0058350Y0168625D03*
X0058350Y0169895D03*
X0058350Y0171165D03*
X0058350Y0172435D03*
X0058350Y0173705D03*
X0058350Y0174975D03*
D62*
X0058350Y0176245D03*
X0181000Y0124000D02*
G75*
G01*
%LPD*%
D36*
X0191500Y0126770D03*
D75*
X0191500Y0181630D03*
D38*
X0191500Y0136930D03*
X0191500Y0171470D03*
D35*
X0184030Y0126770D03*
D43*
X0233978Y0160588D03*
X0233978Y0159288D03*
D33*
X0225826Y0142806D03*
X0223976Y0142806D03*
D44*
X0203500Y0147760D03*
D40*
X0203500Y0150300D03*
X0203500Y0152840D03*
X0203500Y0155380D03*
X0203500Y0157920D03*
X0203500Y0160460D03*
X0203500Y0163000D03*
X0203500Y0165540D03*
X0203500Y0168080D03*
X0203500Y0170620D03*
X0203500Y0173160D03*
X0203500Y0175700D03*
D44*
X0243500Y0147760D03*
D40*
X0243500Y0150300D03*
X0243500Y0152840D03*
X0243500Y0155380D03*
X0243500Y0157920D03*
X0243500Y0160460D03*
X0243500Y0163000D03*
X0243500Y0165540D03*
X0243500Y0168080D03*
X0243500Y0170620D03*
X0243500Y0173160D03*
X0243500Y0175700D03*
D47*
X0230775Y0159980D03*
X0230775Y0161830D03*
D33*
X0218419Y0175035D03*
X0220269Y0175035D03*
D11*
X0228739Y0159953D03*
X0227239Y0159953D03*
X0225246Y0164080D03*
X0226746Y0164080D03*
D39*
X0214609Y0169478D03*
X0216509Y0169478D03*
X0215559Y0171778D03*
D37*
X0224375Y0130740D03*
X0222625Y0130740D03*
D39*
X0234967Y0164757D03*
X0233067Y0164757D03*
X0234017Y0162457D03*
G36*
X0228949Y0155911D02*
X0228931Y0155827D01*
X0228877Y0155757D01*
X0228815Y0155722D01*
X0228739Y0155709D01*
X0228663Y0155722D01*
X0228601Y0155757D01*
X0228547Y0155828D01*
X0228529Y0155912D01*
X0228529Y0156574D01*
X0228949Y0156574D01*
X0228949Y0155911D01*
G37*
G36*
X0228449Y0155911D02*
X0228431Y0155827D01*
X0228377Y0155757D01*
X0228315Y0155722D01*
X0228239Y0155709D01*
X0228163Y0155722D01*
X0228101Y0155757D01*
X0228047Y0155828D01*
X0228029Y0155912D01*
X0228029Y0156574D01*
X0228449Y0156574D01*
X0228449Y0155911D01*
G37*
G36*
X0227949Y0155911D02*
X0227931Y0155827D01*
X0227877Y0155757D01*
X0227815Y0155722D01*
X0227739Y0155709D01*
X0227663Y0155722D01*
X0227601Y0155757D01*
X0227547Y0155828D01*
X0227529Y0155912D01*
X0227529Y0156574D01*
X0227949Y0156574D01*
X0227949Y0155911D01*
G37*
G36*
X0227449Y0155911D02*
X0227431Y0155827D01*
X0227377Y0155757D01*
X0227315Y0155722D01*
X0227239Y0155709D01*
X0227163Y0155722D01*
X0227101Y0155757D01*
X0227047Y0155828D01*
X0227029Y0155912D01*
X0227029Y0156574D01*
X0227449Y0156574D01*
X0227449Y0155911D01*
G37*
G36*
X0227029Y0153373D02*
X0227048Y0153457D01*
X0227102Y0153527D01*
X0227164Y0153562D01*
X0227239Y0153575D01*
X0227315Y0153562D01*
X0227377Y0153527D01*
X0227431Y0153456D01*
X0227449Y0153373D01*
X0227449Y0152710D01*
X0227029Y0152710D01*
X0227029Y0153373D01*
G37*
G36*
X0227529Y0153373D02*
X0227548Y0153457D01*
X0227602Y0153527D01*
X0227664Y0153562D01*
X0227739Y0153575D01*
X0227815Y0153562D01*
X0227877Y0153527D01*
X0227931Y0153456D01*
X0227949Y0153373D01*
X0227949Y0152710D01*
X0227529Y0152710D01*
X0227529Y0153373D01*
G37*
G36*
X0228029Y0153373D02*
X0228048Y0153457D01*
X0228102Y0153527D01*
X0228164Y0153562D01*
X0228239Y0153575D01*
X0228315Y0153562D01*
X0228377Y0153527D01*
X0228431Y0153456D01*
X0228449Y0153373D01*
X0228449Y0152710D01*
X0228029Y0152710D01*
X0228029Y0153373D01*
G37*
G36*
X0228529Y0153373D02*
X0228548Y0153457D01*
X0228602Y0153527D01*
X0228664Y0153562D01*
X0228739Y0153575D01*
X0228815Y0153562D01*
X0228877Y0153527D01*
X0228931Y0153456D01*
X0228949Y0153373D01*
X0228949Y0152710D01*
X0228529Y0152710D01*
X0228529Y0153373D01*
G37*
G36*
X0229029Y0153373D02*
X0229048Y0153457D01*
X0229102Y0153527D01*
X0229164Y0153562D01*
X0229239Y0153575D01*
X0229315Y0153562D01*
X0229377Y0153527D01*
X0229431Y0153456D01*
X0229449Y0153373D01*
X0229449Y0152710D01*
X0229029Y0152710D01*
X0229029Y0153373D01*
G37*
D27*
X0227489Y0155167D03*
G36*
X0229509Y0155562D02*
X0226969Y0155562D01*
X0226969Y0155157D01*
X0226269Y0155157D01*
X0226269Y0154737D01*
X0226969Y0154737D01*
X0226969Y0154597D01*
X0226269Y0154597D01*
X0226269Y0154177D01*
X0226969Y0154177D01*
X0226969Y0153772D01*
X0229509Y0153772D01*
X0229509Y0154177D01*
X0230209Y0154177D01*
X0230209Y0154597D01*
X0229509Y0154597D01*
X0229509Y0154737D01*
X0230209Y0154737D01*
X0230209Y0155157D01*
X0229509Y0155157D01*
X0229509Y0155562D01*
G37*
G36*
X0229449Y0155911D02*
X0229431Y0155827D01*
X0229377Y0155757D01*
X0229315Y0155722D01*
X0229239Y0155709D01*
X0229163Y0155722D01*
X0229101Y0155757D01*
X0229047Y0155828D01*
X0229029Y0155912D01*
X0229029Y0156574D01*
X0229449Y0156574D01*
X0229449Y0155911D01*
G37*
D27*
X0227489Y0154167D03*
X0228989Y0155167D03*
X0228239Y0154667D03*
X0228989Y0154167D03*
D74*
X0229216Y0167573D03*
X0229216Y0168843D03*
X0229216Y0170113D03*
X0229216Y0171383D03*
X0223816Y0171383D03*
X0223816Y0170113D03*
X0223816Y0168843D03*
X0223816Y0167573D03*
D21*
X0225723Y0147886D03*
X0230485Y0147886D03*
D39*
X0221319Y0161663D03*
X0223219Y0161663D03*
X0222269Y0163963D03*
D43*
X0236043Y0147251D03*
X0236043Y0145951D03*
X0236043Y0150268D03*
X0236043Y0148968D03*
D11*
X0217928Y0166764D03*
X0219228Y0166764D03*
X0218419Y0171860D03*
X0219719Y0171860D03*
X0218752Y0161555D03*
X0217452Y0161555D03*
D43*
X0232867Y0140930D03*
X0232867Y0139630D03*
D11*
X0234150Y0157515D03*
X0232850Y0157515D03*
D14*
X0230650Y0127771D03*
X0230650Y0126071D03*
X0236350Y0127771D03*
X0236350Y0126071D03*
D24*
X0233500Y0128271D03*
X0233500Y0125571D03*
D14*
X0210650Y0127723D03*
X0210650Y0126023D03*
X0216350Y0127723D03*
X0216350Y0126023D03*
D24*
X0213500Y0128223D03*
X0213500Y0125523D03*
D12*
X0214450Y0164080D03*
X0214450Y0165980D03*
X0212150Y0165030D03*
D43*
X0212069Y0168843D03*
X0212069Y0170143D03*
D11*
X0218737Y0163922D03*
X0217437Y0163922D03*
D46*
X0237313Y0162493D03*
X0238583Y0162493D03*
X0238583Y0170113D03*
X0237313Y0170113D03*
D43*
X0222547Y0154714D03*
X0222547Y0153414D03*
X0222563Y0156286D03*
X0222563Y0157586D03*
D36*
X0255500Y0126770D03*
D75*
X0255500Y0181630D03*
D38*
X0255500Y0136930D03*
X0255500Y0171470D03*
D35*
X0248030Y0126770D03*
X0000000Y0094000D02*
G75*
G01*
%LPD*%
D91*
X0032620Y0118405D03*
X0032620Y0115605D03*
D44*
X0036240Y0096500D03*
D40*
X0033700Y0096500D03*
X0031160Y0096500D03*
X0028620Y0096500D03*
X0026080Y0096500D03*
X0023540Y0096500D03*
X0021000Y0096500D03*
X0018460Y0096500D03*
X0015920Y0096500D03*
X0013380Y0096500D03*
X0010840Y0096500D03*
X0008300Y0096500D03*
D44*
X0036240Y0136500D03*
D40*
X0033700Y0136500D03*
X0031160Y0136500D03*
X0028620Y0136500D03*
X0026080Y0136500D03*
X0023540Y0136500D03*
X0021000Y0136500D03*
X0018460Y0136500D03*
X0015920Y0136500D03*
X0013380Y0136500D03*
X0010840Y0136500D03*
X0008300Y0136500D03*
D65*
X0036968Y0121890D03*
D57*
X0036968Y0124390D03*
X0036968Y0126390D03*
X0036968Y0128890D03*
D54*
X0039668Y0118820D03*
X0039668Y0131960D03*
D67*
X0042145Y0096815D03*
D64*
X0042145Y0099355D03*
X0042145Y0101895D03*
X0042145Y0104435D03*
X0042145Y0106975D03*
X0042145Y0109515D03*
X0042145Y0112055D03*
D62*
X0020555Y0127650D03*
D18*
X0019285Y0127650D03*
X0018015Y0127650D03*
X0016745Y0127650D03*
X0015475Y0127650D03*
X0014205Y0127650D03*
X0012935Y0127650D03*
X0011665Y0127650D03*
X0010395Y0127650D03*
X0009125Y0127650D03*
X0007855Y0127650D03*
X0006585Y0127650D03*
X0005315Y0127650D03*
X0004045Y0127650D03*
X0002775Y0127650D03*
X0020555Y0126380D03*
X0019285Y0126380D03*
X0018015Y0126380D03*
X0016745Y0126380D03*
X0015475Y0126380D03*
X0014205Y0126380D03*
X0012935Y0126380D03*
X0011665Y0126380D03*
X0010395Y0126380D03*
X0009125Y0126380D03*
X0007855Y0126380D03*
X0006585Y0126380D03*
X0005315Y0126380D03*
X0004045Y0126380D03*
X0002775Y0126380D03*
X0014185Y0106620D03*
X0012915Y0106620D03*
X0011645Y0106620D03*
X0010375Y0106620D03*
X0009105Y0106620D03*
X0007835Y0106620D03*
X0006565Y0106620D03*
X0005295Y0106620D03*
X0004025Y0106620D03*
X0002755Y0106620D03*
X0014185Y0105350D03*
X0012915Y0105350D03*
X0011645Y0105350D03*
X0010375Y0105350D03*
X0009105Y0105350D03*
X0007835Y0105350D03*
X0006565Y0105350D03*
X0005295Y0105350D03*
X0004025Y0105350D03*
D62*
X0002755Y0105350D03*
X0196000Y0000000D02*
G75*
G01*
%LPD*%
D36*
X0206500Y0002770D03*
D75*
X0206500Y0057630D03*
D38*
X0206500Y0012930D03*
X0206500Y0047470D03*
D35*
X0199030Y0002770D03*
D43*
X0248978Y0036588D03*
X0248978Y0035288D03*
D33*
X0240826Y0018806D03*
X0238976Y0018806D03*
D44*
X0218500Y0023760D03*
D40*
X0218500Y0026300D03*
X0218500Y0028840D03*
X0218500Y0031380D03*
X0218500Y0033920D03*
X0218500Y0036460D03*
X0218500Y0039000D03*
X0218500Y0041540D03*
X0218500Y0044080D03*
X0218500Y0046620D03*
X0218500Y0049160D03*
X0218500Y0051700D03*
D44*
X0258500Y0023760D03*
D40*
X0258500Y0026300D03*
X0258500Y0028840D03*
X0258500Y0031380D03*
X0258500Y0033920D03*
X0258500Y0036460D03*
X0258500Y0039000D03*
X0258500Y0041540D03*
X0258500Y0044080D03*
X0258500Y0046620D03*
X0258500Y0049160D03*
X0258500Y0051700D03*
D47*
X0245775Y0035980D03*
X0245775Y0037830D03*
D33*
X0233419Y0051035D03*
X0235269Y0051035D03*
D11*
X0243739Y0035953D03*
X0242239Y0035953D03*
X0240246Y0040080D03*
X0241746Y0040080D03*
D39*
X0229609Y0045478D03*
X0231509Y0045478D03*
X0230559Y0047778D03*
D37*
X0239375Y0006740D03*
X0237625Y0006740D03*
D39*
X0249967Y0040757D03*
X0248067Y0040757D03*
X0249017Y0038457D03*
G36*
X0243949Y0031911D02*
X0243931Y0031827D01*
X0243877Y0031757D01*
X0243815Y0031722D01*
X0243739Y0031709D01*
X0243663Y0031722D01*
X0243601Y0031757D01*
X0243547Y0031828D01*
X0243529Y0031912D01*
X0243529Y0032574D01*
X0243949Y0032574D01*
X0243949Y0031911D01*
G37*
G36*
X0243449Y0031911D02*
X0243431Y0031827D01*
X0243377Y0031757D01*
X0243315Y0031722D01*
X0243239Y0031709D01*
X0243163Y0031722D01*
X0243101Y0031757D01*
X0243047Y0031828D01*
X0243029Y0031912D01*
X0243029Y0032574D01*
X0243449Y0032574D01*
X0243449Y0031911D01*
G37*
G36*
X0242949Y0031911D02*
X0242931Y0031827D01*
X0242877Y0031757D01*
X0242815Y0031722D01*
X0242739Y0031709D01*
X0242663Y0031722D01*
X0242601Y0031757D01*
X0242547Y0031828D01*
X0242529Y0031912D01*
X0242529Y0032574D01*
X0242949Y0032574D01*
X0242949Y0031911D01*
G37*
G36*
X0242449Y0031911D02*
X0242431Y0031827D01*
X0242377Y0031757D01*
X0242315Y0031722D01*
X0242239Y0031709D01*
X0242163Y0031722D01*
X0242101Y0031757D01*
X0242047Y0031828D01*
X0242029Y0031912D01*
X0242029Y0032574D01*
X0242449Y0032574D01*
X0242449Y0031911D01*
G37*
G36*
X0242029Y0029373D02*
X0242048Y0029457D01*
X0242102Y0029527D01*
X0242164Y0029562D01*
X0242239Y0029575D01*
X0242315Y0029562D01*
X0242377Y0029527D01*
X0242431Y0029456D01*
X0242449Y0029373D01*
X0242449Y0028710D01*
X0242029Y0028710D01*
X0242029Y0029373D01*
G37*
G36*
X0242529Y0029373D02*
X0242548Y0029457D01*
X0242602Y0029527D01*
X0242664Y0029562D01*
X0242739Y0029575D01*
X0242815Y0029562D01*
X0242877Y0029527D01*
X0242931Y0029456D01*
X0242949Y0029373D01*
X0242949Y0028710D01*
X0242529Y0028710D01*
X0242529Y0029373D01*
G37*
G36*
X0243029Y0029373D02*
X0243048Y0029457D01*
X0243102Y0029527D01*
X0243164Y0029562D01*
X0243239Y0029575D01*
X0243315Y0029562D01*
X0243377Y0029527D01*
X0243431Y0029456D01*
X0243449Y0029373D01*
X0243449Y0028710D01*
X0243029Y0028710D01*
X0243029Y0029373D01*
G37*
G36*
X0243529Y0029373D02*
X0243548Y0029457D01*
X0243602Y0029527D01*
X0243664Y0029562D01*
X0243739Y0029575D01*
X0243815Y0029562D01*
X0243877Y0029527D01*
X0243931Y0029456D01*
X0243949Y0029373D01*
X0243949Y0028710D01*
X0243529Y0028710D01*
X0243529Y0029373D01*
G37*
G36*
X0244029Y0029373D02*
X0244048Y0029457D01*
X0244102Y0029527D01*
X0244164Y0029562D01*
X0244239Y0029575D01*
X0244315Y0029562D01*
X0244377Y0029527D01*
X0244431Y0029456D01*
X0244449Y0029373D01*
X0244449Y0028710D01*
X0244029Y0028710D01*
X0244029Y0029373D01*
G37*
D27*
X0242489Y0031167D03*
G36*
X0244509Y0031562D02*
X0241969Y0031562D01*
X0241969Y0031157D01*
X0241269Y0031157D01*
X0241269Y0030737D01*
X0241969Y0030737D01*
X0241969Y0030597D01*
X0241269Y0030597D01*
X0241269Y0030177D01*
X0241969Y0030177D01*
X0241969Y0029772D01*
X0244509Y0029772D01*
X0244509Y0030177D01*
X0245209Y0030177D01*
X0245209Y0030597D01*
X0244509Y0030597D01*
X0244509Y0030737D01*
X0245209Y0030737D01*
X0245209Y0031157D01*
X0244509Y0031157D01*
X0244509Y0031562D01*
G37*
G36*
X0244449Y0031911D02*
X0244431Y0031827D01*
X0244377Y0031757D01*
X0244315Y0031722D01*
X0244239Y0031709D01*
X0244163Y0031722D01*
X0244101Y0031757D01*
X0244047Y0031828D01*
X0244029Y0031912D01*
X0244029Y0032574D01*
X0244449Y0032574D01*
X0244449Y0031911D01*
G37*
D27*
X0242489Y0030167D03*
X0243989Y0031167D03*
X0243239Y0030667D03*
X0243989Y0030167D03*
D74*
X0244216Y0043573D03*
X0244216Y0044843D03*
X0244216Y0046113D03*
X0244216Y0047383D03*
X0238816Y0047383D03*
X0238816Y0046113D03*
X0238816Y0044843D03*
X0238816Y0043573D03*
D21*
X0240723Y0023886D03*
X0245485Y0023886D03*
D39*
X0236319Y0037663D03*
X0238219Y0037663D03*
X0237269Y0039963D03*
D43*
X0251043Y0023251D03*
X0251043Y0021951D03*
X0251043Y0026268D03*
X0251043Y0024968D03*
D11*
X0232928Y0042764D03*
X0234228Y0042764D03*
X0233419Y0047860D03*
X0234719Y0047860D03*
X0233752Y0037555D03*
X0232452Y0037555D03*
D43*
X0247867Y0016930D03*
X0247867Y0015630D03*
D11*
X0249150Y0033515D03*
X0247850Y0033515D03*
D14*
X0245650Y0003771D03*
X0245650Y0002071D03*
X0251350Y0003771D03*
X0251350Y0002071D03*
D24*
X0248500Y0004271D03*
X0248500Y0001571D03*
D14*
X0225650Y0003723D03*
X0225650Y0002023D03*
X0231350Y0003723D03*
X0231350Y0002023D03*
D24*
X0228500Y0004223D03*
X0228500Y0001523D03*
D12*
X0229450Y0040080D03*
X0229450Y0041980D03*
X0227150Y0041030D03*
D43*
X0227069Y0044843D03*
X0227069Y0046143D03*
D11*
X0233737Y0039922D03*
X0232437Y0039922D03*
D46*
X0252313Y0038493D03*
X0253583Y0038493D03*
X0253583Y0046113D03*
X0252313Y0046113D03*
D43*
X0237547Y0030714D03*
X0237547Y0029414D03*
X0237563Y0032286D03*
X0237563Y0033586D03*
D36*
X0270500Y0002770D03*
D75*
X0270500Y0057630D03*
D38*
X0270500Y0012930D03*
X0270500Y0047470D03*
D35*
X0263030Y0002770D03*
X0196000Y0062000D02*
G75*
G01*
%LPD*%
D36*
X0206500Y0064770D03*
D75*
X0206500Y0119630D03*
D38*
X0206500Y0074930D03*
X0206500Y0109470D03*
D35*
X0199030Y0064770D03*
D43*
X0248978Y0098588D03*
X0248978Y0097288D03*
D33*
X0240826Y0080806D03*
X0238976Y0080806D03*
D44*
X0218500Y0085760D03*
D40*
X0218500Y0088300D03*
X0218500Y0090840D03*
X0218500Y0093380D03*
X0218500Y0095920D03*
X0218500Y0098460D03*
X0218500Y0101000D03*
X0218500Y0103540D03*
X0218500Y0106080D03*
X0218500Y0108620D03*
X0218500Y0111160D03*
X0218500Y0113700D03*
D44*
X0258500Y0085760D03*
D40*
X0258500Y0088300D03*
X0258500Y0090840D03*
X0258500Y0093380D03*
X0258500Y0095920D03*
X0258500Y0098460D03*
X0258500Y0101000D03*
X0258500Y0103540D03*
X0258500Y0106080D03*
X0258500Y0108620D03*
X0258500Y0111160D03*
X0258500Y0113700D03*
D47*
X0245775Y0097980D03*
X0245775Y0099830D03*
D33*
X0233419Y0113035D03*
X0235269Y0113035D03*
D11*
X0243739Y0097953D03*
X0242239Y0097953D03*
X0240246Y0102080D03*
X0241746Y0102080D03*
D39*
X0229609Y0107478D03*
X0231509Y0107478D03*
X0230559Y0109778D03*
D37*
X0239375Y0068740D03*
X0237625Y0068740D03*
D39*
X0249967Y0102757D03*
X0248067Y0102757D03*
X0249017Y0100457D03*
G36*
X0243949Y0093911D02*
X0243931Y0093827D01*
X0243877Y0093757D01*
X0243815Y0093722D01*
X0243739Y0093709D01*
X0243663Y0093722D01*
X0243601Y0093757D01*
X0243547Y0093828D01*
X0243529Y0093912D01*
X0243529Y0094574D01*
X0243949Y0094574D01*
X0243949Y0093911D01*
G37*
G36*
X0243449Y0093911D02*
X0243431Y0093827D01*
X0243377Y0093757D01*
X0243315Y0093722D01*
X0243239Y0093709D01*
X0243163Y0093722D01*
X0243101Y0093757D01*
X0243047Y0093828D01*
X0243029Y0093912D01*
X0243029Y0094574D01*
X0243449Y0094574D01*
X0243449Y0093911D01*
G37*
G36*
X0242949Y0093911D02*
X0242931Y0093827D01*
X0242877Y0093757D01*
X0242815Y0093722D01*
X0242739Y0093709D01*
X0242663Y0093722D01*
X0242601Y0093757D01*
X0242547Y0093828D01*
X0242529Y0093912D01*
X0242529Y0094574D01*
X0242949Y0094574D01*
X0242949Y0093911D01*
G37*
G36*
X0242449Y0093911D02*
X0242431Y0093827D01*
X0242377Y0093757D01*
X0242315Y0093722D01*
X0242239Y0093709D01*
X0242163Y0093722D01*
X0242101Y0093757D01*
X0242047Y0093828D01*
X0242029Y0093912D01*
X0242029Y0094574D01*
X0242449Y0094574D01*
X0242449Y0093911D01*
G37*
G36*
X0242029Y0091373D02*
X0242048Y0091457D01*
X0242102Y0091527D01*
X0242164Y0091562D01*
X0242239Y0091575D01*
X0242315Y0091562D01*
X0242377Y0091527D01*
X0242431Y0091456D01*
X0242449Y0091373D01*
X0242449Y0090710D01*
X0242029Y0090710D01*
X0242029Y0091373D01*
G37*
G36*
X0242529Y0091373D02*
X0242548Y0091457D01*
X0242602Y0091527D01*
X0242664Y0091562D01*
X0242739Y0091575D01*
X0242815Y0091562D01*
X0242877Y0091527D01*
X0242931Y0091456D01*
X0242949Y0091373D01*
X0242949Y0090710D01*
X0242529Y0090710D01*
X0242529Y0091373D01*
G37*
G36*
X0243029Y0091373D02*
X0243048Y0091457D01*
X0243102Y0091527D01*
X0243164Y0091562D01*
X0243239Y0091575D01*
X0243315Y0091562D01*
X0243377Y0091527D01*
X0243431Y0091456D01*
X0243449Y0091373D01*
X0243449Y0090710D01*
X0243029Y0090710D01*
X0243029Y0091373D01*
G37*
G36*
X0243529Y0091373D02*
X0243548Y0091457D01*
X0243602Y0091527D01*
X0243664Y0091562D01*
X0243739Y0091575D01*
X0243815Y0091562D01*
X0243877Y0091527D01*
X0243931Y0091456D01*
X0243949Y0091373D01*
X0243949Y0090710D01*
X0243529Y0090710D01*
X0243529Y0091373D01*
G37*
G36*
X0244029Y0091373D02*
X0244048Y0091457D01*
X0244102Y0091527D01*
X0244164Y0091562D01*
X0244239Y0091575D01*
X0244315Y0091562D01*
X0244377Y0091527D01*
X0244431Y0091456D01*
X0244449Y0091373D01*
X0244449Y0090710D01*
X0244029Y0090710D01*
X0244029Y0091373D01*
G37*
D27*
X0242489Y0093167D03*
G36*
X0244509Y0093562D02*
X0241969Y0093562D01*
X0241969Y0093157D01*
X0241269Y0093157D01*
X0241269Y0092737D01*
X0241969Y0092737D01*
X0241969Y0092597D01*
X0241269Y0092597D01*
X0241269Y0092177D01*
X0241969Y0092177D01*
X0241969Y0091772D01*
X0244509Y0091772D01*
X0244509Y0092177D01*
X0245209Y0092177D01*
X0245209Y0092597D01*
X0244509Y0092597D01*
X0244509Y0092737D01*
X0245209Y0092737D01*
X0245209Y0093157D01*
X0244509Y0093157D01*
X0244509Y0093562D01*
G37*
G36*
X0244449Y0093911D02*
X0244431Y0093827D01*
X0244377Y0093757D01*
X0244315Y0093722D01*
X0244239Y0093709D01*
X0244163Y0093722D01*
X0244101Y0093757D01*
X0244047Y0093828D01*
X0244029Y0093912D01*
X0244029Y0094574D01*
X0244449Y0094574D01*
X0244449Y0093911D01*
G37*
D27*
X0242489Y0092167D03*
X0243989Y0093167D03*
X0243239Y0092667D03*
X0243989Y0092167D03*
D74*
X0244216Y0105573D03*
X0244216Y0106843D03*
X0244216Y0108113D03*
X0244216Y0109383D03*
X0238816Y0109383D03*
X0238816Y0108113D03*
X0238816Y0106843D03*
X0238816Y0105573D03*
D21*
X0240723Y0085886D03*
X0245485Y0085886D03*
D39*
X0236319Y0099663D03*
X0238219Y0099663D03*
X0237269Y0101963D03*
D43*
X0251043Y0085251D03*
X0251043Y0083951D03*
X0251043Y0088268D03*
X0251043Y0086968D03*
D11*
X0232928Y0104764D03*
X0234228Y0104764D03*
X0233419Y0109860D03*
X0234719Y0109860D03*
X0233752Y0099555D03*
X0232452Y0099555D03*
D43*
X0247867Y0078930D03*
X0247867Y0077630D03*
D11*
X0249150Y0095515D03*
X0247850Y0095515D03*
D14*
X0245650Y0065771D03*
X0245650Y0064071D03*
X0251350Y0065771D03*
X0251350Y0064071D03*
D24*
X0248500Y0066271D03*
X0248500Y0063571D03*
D14*
X0225650Y0065723D03*
X0225650Y0064023D03*
X0231350Y0065723D03*
X0231350Y0064023D03*
D24*
X0228500Y0066223D03*
X0228500Y0063523D03*
D12*
X0229450Y0102080D03*
X0229450Y0103980D03*
X0227150Y0103030D03*
D43*
X0227069Y0106843D03*
X0227069Y0108143D03*
D11*
X0233737Y0101922D03*
X0232437Y0101922D03*
D46*
X0252313Y0100493D03*
X0253583Y0100493D03*
X0253583Y0108113D03*
X0252313Y0108113D03*
D43*
X0237547Y0092714D03*
X0237547Y0091414D03*
X0237563Y0094286D03*
X0237563Y0095586D03*
D36*
X0270500Y0064770D03*
D75*
X0270500Y0119630D03*
D38*
X0270500Y0074930D03*
X0270500Y0109470D03*
D35*
X0263030Y0064770D03*
X0000000Y0141000D02*
G75*
G01*
%LPD*%
D91*
X0032620Y0165405D03*
X0032620Y0162605D03*
D44*
X0036240Y0143500D03*
D40*
X0033700Y0143500D03*
X0031160Y0143500D03*
X0028620Y0143500D03*
X0026080Y0143500D03*
X0023540Y0143500D03*
X0021000Y0143500D03*
X0018460Y0143500D03*
X0015920Y0143500D03*
X0013380Y0143500D03*
X0010840Y0143500D03*
X0008300Y0143500D03*
D44*
X0036240Y0183500D03*
D40*
X0033700Y0183500D03*
X0031160Y0183500D03*
X0028620Y0183500D03*
X0026080Y0183500D03*
X0023540Y0183500D03*
X0021000Y0183500D03*
X0018460Y0183500D03*
X0015920Y0183500D03*
X0013380Y0183500D03*
X0010840Y0183500D03*
X0008300Y0183500D03*
D65*
X0036968Y0168890D03*
D57*
X0036968Y0171390D03*
X0036968Y0173390D03*
X0036968Y0175890D03*
D54*
X0039668Y0165820D03*
X0039668Y0178960D03*
D67*
X0042145Y0143815D03*
D64*
X0042145Y0146355D03*
X0042145Y0148895D03*
X0042145Y0151435D03*
X0042145Y0153975D03*
X0042145Y0156515D03*
X0042145Y0159055D03*
D62*
X0020555Y0174650D03*
D18*
X0019285Y0174650D03*
X0018015Y0174650D03*
X0016745Y0174650D03*
X0015475Y0174650D03*
X0014205Y0174650D03*
X0012935Y0174650D03*
X0011665Y0174650D03*
X0010395Y0174650D03*
X0009125Y0174650D03*
X0007855Y0174650D03*
X0006585Y0174650D03*
X0005315Y0174650D03*
X0004045Y0174650D03*
X0002775Y0174650D03*
X0020555Y0173380D03*
X0019285Y0173380D03*
X0018015Y0173380D03*
X0016745Y0173380D03*
X0015475Y0173380D03*
X0014205Y0173380D03*
X0012935Y0173380D03*
X0011665Y0173380D03*
X0010395Y0173380D03*
X0009125Y0173380D03*
X0007855Y0173380D03*
X0006585Y0173380D03*
X0005315Y0173380D03*
X0004045Y0173380D03*
X0002775Y0173380D03*
X0014185Y0153620D03*
X0012915Y0153620D03*
X0011645Y0153620D03*
X0010375Y0153620D03*
X0009105Y0153620D03*
X0007835Y0153620D03*
X0006565Y0153620D03*
X0005295Y0153620D03*
X0004025Y0153620D03*
X0002755Y0153620D03*
X0014185Y0152350D03*
X0012915Y0152350D03*
X0011645Y0152350D03*
X0010375Y0152350D03*
X0009105Y0152350D03*
X0007835Y0152350D03*
X0006565Y0152350D03*
X0005295Y0152350D03*
X0004025Y0152350D03*
D62*
X0002755Y0152350D03*
X0268000Y0124000D02*
G75*
G01*
%LPD*%
D36*
X0278500Y0126770D03*
D75*
X0278500Y0181630D03*
D38*
X0278500Y0136930D03*
X0278500Y0171470D03*
D35*
X0271030Y0126770D03*
D43*
X0320978Y0160588D03*
X0320978Y0159288D03*
D33*
X0312826Y0142806D03*
X0310976Y0142806D03*
D44*
X0290500Y0147760D03*
D40*
X0290500Y0150300D03*
X0290500Y0152840D03*
X0290500Y0155380D03*
X0290500Y0157920D03*
X0290500Y0160460D03*
X0290500Y0163000D03*
X0290500Y0165540D03*
X0290500Y0168080D03*
X0290500Y0170620D03*
X0290500Y0173160D03*
X0290500Y0175700D03*
D44*
X0330500Y0147760D03*
D40*
X0330500Y0150300D03*
X0330500Y0152840D03*
X0330500Y0155380D03*
X0330500Y0157920D03*
X0330500Y0160460D03*
X0330500Y0163000D03*
X0330500Y0165540D03*
X0330500Y0168080D03*
X0330500Y0170620D03*
X0330500Y0173160D03*
X0330500Y0175700D03*
D47*
X0317775Y0159980D03*
X0317775Y0161830D03*
D33*
X0305419Y0175035D03*
X0307269Y0175035D03*
D11*
X0315739Y0159953D03*
X0314239Y0159953D03*
X0312246Y0164080D03*
X0313746Y0164080D03*
D39*
X0301609Y0169478D03*
X0303509Y0169478D03*
X0302559Y0171778D03*
D37*
X0311375Y0130740D03*
X0309625Y0130740D03*
D39*
X0321967Y0164757D03*
X0320067Y0164757D03*
X0321017Y0162457D03*
G36*
X0315949Y0155911D02*
X0315931Y0155827D01*
X0315877Y0155757D01*
X0315815Y0155722D01*
X0315739Y0155709D01*
X0315663Y0155722D01*
X0315601Y0155757D01*
X0315547Y0155828D01*
X0315529Y0155912D01*
X0315529Y0156574D01*
X0315949Y0156574D01*
X0315949Y0155911D01*
G37*
G36*
X0315449Y0155911D02*
X0315431Y0155827D01*
X0315377Y0155757D01*
X0315315Y0155722D01*
X0315239Y0155709D01*
X0315163Y0155722D01*
X0315101Y0155757D01*
X0315047Y0155828D01*
X0315029Y0155912D01*
X0315029Y0156574D01*
X0315449Y0156574D01*
X0315449Y0155911D01*
G37*
G36*
X0314949Y0155911D02*
X0314931Y0155827D01*
X0314877Y0155757D01*
X0314815Y0155722D01*
X0314739Y0155709D01*
X0314663Y0155722D01*
X0314601Y0155757D01*
X0314547Y0155828D01*
X0314529Y0155912D01*
X0314529Y0156574D01*
X0314949Y0156574D01*
X0314949Y0155911D01*
G37*
G36*
X0314449Y0155911D02*
X0314431Y0155827D01*
X0314377Y0155757D01*
X0314315Y0155722D01*
X0314239Y0155709D01*
X0314163Y0155722D01*
X0314101Y0155757D01*
X0314047Y0155828D01*
X0314029Y0155912D01*
X0314029Y0156574D01*
X0314449Y0156574D01*
X0314449Y0155911D01*
G37*
G36*
X0314029Y0153373D02*
X0314048Y0153457D01*
X0314102Y0153527D01*
X0314164Y0153562D01*
X0314239Y0153575D01*
X0314315Y0153562D01*
X0314377Y0153527D01*
X0314431Y0153456D01*
X0314449Y0153373D01*
X0314449Y0152710D01*
X0314029Y0152710D01*
X0314029Y0153373D01*
G37*
G36*
X0314529Y0153373D02*
X0314548Y0153457D01*
X0314602Y0153527D01*
X0314664Y0153562D01*
X0314739Y0153575D01*
X0314815Y0153562D01*
X0314877Y0153527D01*
X0314931Y0153456D01*
X0314949Y0153373D01*
X0314949Y0152710D01*
X0314529Y0152710D01*
X0314529Y0153373D01*
G37*
G36*
X0315029Y0153373D02*
X0315048Y0153457D01*
X0315102Y0153527D01*
X0315164Y0153562D01*
X0315239Y0153575D01*
X0315315Y0153562D01*
X0315377Y0153527D01*
X0315431Y0153456D01*
X0315449Y0153373D01*
X0315449Y0152710D01*
X0315029Y0152710D01*
X0315029Y0153373D01*
G37*
G36*
X0315529Y0153373D02*
X0315548Y0153457D01*
X0315602Y0153527D01*
X0315664Y0153562D01*
X0315739Y0153575D01*
X0315815Y0153562D01*
X0315877Y0153527D01*
X0315931Y0153456D01*
X0315949Y0153373D01*
X0315949Y0152710D01*
X0315529Y0152710D01*
X0315529Y0153373D01*
G37*
G36*
X0316029Y0153373D02*
X0316048Y0153457D01*
X0316102Y0153527D01*
X0316164Y0153562D01*
X0316239Y0153575D01*
X0316315Y0153562D01*
X0316377Y0153527D01*
X0316431Y0153456D01*
X0316449Y0153373D01*
X0316449Y0152710D01*
X0316029Y0152710D01*
X0316029Y0153373D01*
G37*
D27*
X0314489Y0155167D03*
G36*
X0316509Y0155562D02*
X0313969Y0155562D01*
X0313969Y0155157D01*
X0313269Y0155157D01*
X0313269Y0154737D01*
X0313969Y0154737D01*
X0313969Y0154597D01*
X0313269Y0154597D01*
X0313269Y0154177D01*
X0313969Y0154177D01*
X0313969Y0153772D01*
X0316509Y0153772D01*
X0316509Y0154177D01*
X0317209Y0154177D01*
X0317209Y0154597D01*
X0316509Y0154597D01*
X0316509Y0154737D01*
X0317209Y0154737D01*
X0317209Y0155157D01*
X0316509Y0155157D01*
X0316509Y0155562D01*
G37*
G36*
X0316449Y0155911D02*
X0316431Y0155827D01*
X0316377Y0155757D01*
X0316315Y0155722D01*
X0316239Y0155709D01*
X0316163Y0155722D01*
X0316101Y0155757D01*
X0316047Y0155828D01*
X0316029Y0155912D01*
X0316029Y0156574D01*
X0316449Y0156574D01*
X0316449Y0155911D01*
G37*
D27*
X0314489Y0154167D03*
X0315989Y0155167D03*
X0315239Y0154667D03*
X0315989Y0154167D03*
D74*
X0316216Y0167573D03*
X0316216Y0168843D03*
X0316216Y0170113D03*
X0316216Y0171383D03*
X0310816Y0171383D03*
X0310816Y0170113D03*
X0310816Y0168843D03*
X0310816Y0167573D03*
D21*
X0312723Y0147886D03*
X0317485Y0147886D03*
D39*
X0308319Y0161663D03*
X0310219Y0161663D03*
X0309269Y0163963D03*
D43*
X0323043Y0147251D03*
X0323043Y0145951D03*
X0323043Y0150268D03*
X0323043Y0148968D03*
D11*
X0304928Y0166764D03*
X0306228Y0166764D03*
X0305419Y0171860D03*
X0306719Y0171860D03*
X0305752Y0161555D03*
X0304452Y0161555D03*
D43*
X0319867Y0140930D03*
X0319867Y0139630D03*
D11*
X0321150Y0157515D03*
X0319850Y0157515D03*
D14*
X0317650Y0127771D03*
X0317650Y0126071D03*
X0323350Y0127771D03*
X0323350Y0126071D03*
D24*
X0320500Y0128271D03*
X0320500Y0125571D03*
D14*
X0297650Y0127723D03*
X0297650Y0126023D03*
X0303350Y0127723D03*
X0303350Y0126023D03*
D24*
X0300500Y0128223D03*
X0300500Y0125523D03*
D12*
X0301450Y0164080D03*
X0301450Y0165980D03*
X0299150Y0165030D03*
D43*
X0299069Y0168843D03*
X0299069Y0170143D03*
D11*
X0305737Y0163922D03*
X0304437Y0163922D03*
D46*
X0324313Y0162493D03*
X0325583Y0162493D03*
X0325583Y0170113D03*
X0324313Y0170113D03*
D43*
X0309547Y0154714D03*
X0309547Y0153414D03*
X0309563Y0156286D03*
X0309563Y0157586D03*
D36*
X0342500Y0126770D03*
D75*
X0342500Y0181630D03*
D38*
X0342500Y0136930D03*
X0342500Y0171470D03*
D35*
X0335030Y0126770D03*
X0283000Y0000000D02*
G75*
G01*
%LPD*%
D36*
X0293500Y0002770D03*
D75*
X0293500Y0057630D03*
D38*
X0293500Y0012930D03*
X0293500Y0047470D03*
D35*
X0286030Y0002770D03*
D43*
X0335978Y0036588D03*
X0335978Y0035288D03*
D33*
X0327826Y0018806D03*
X0325976Y0018806D03*
D44*
X0305500Y0023760D03*
D40*
X0305500Y0026300D03*
X0305500Y0028840D03*
X0305500Y0031380D03*
X0305500Y0033920D03*
X0305500Y0036460D03*
X0305500Y0039000D03*
X0305500Y0041540D03*
X0305500Y0044080D03*
X0305500Y0046620D03*
X0305500Y0049160D03*
X0305500Y0051700D03*
D44*
X0345500Y0023760D03*
D40*
X0345500Y0026300D03*
X0345500Y0028840D03*
X0345500Y0031380D03*
X0345500Y0033920D03*
X0345500Y0036460D03*
X0345500Y0039000D03*
X0345500Y0041540D03*
X0345500Y0044080D03*
X0345500Y0046620D03*
X0345500Y0049160D03*
X0345500Y0051700D03*
D47*
X0332775Y0035980D03*
X0332775Y0037830D03*
D33*
X0320419Y0051035D03*
X0322269Y0051035D03*
D11*
X0330739Y0035953D03*
X0329239Y0035953D03*
X0327246Y0040080D03*
X0328746Y0040080D03*
D39*
X0316609Y0045478D03*
X0318509Y0045478D03*
X0317559Y0047778D03*
D37*
X0326375Y0006740D03*
X0324625Y0006740D03*
D39*
X0336967Y0040757D03*
X0335067Y0040757D03*
X0336017Y0038457D03*
G36*
X0330949Y0031911D02*
X0330931Y0031827D01*
X0330877Y0031757D01*
X0330815Y0031722D01*
X0330739Y0031709D01*
X0330663Y0031722D01*
X0330601Y0031757D01*
X0330547Y0031828D01*
X0330529Y0031912D01*
X0330529Y0032574D01*
X0330949Y0032574D01*
X0330949Y0031911D01*
G37*
G36*
X0330449Y0031911D02*
X0330431Y0031827D01*
X0330377Y0031757D01*
X0330315Y0031722D01*
X0330239Y0031709D01*
X0330163Y0031722D01*
X0330101Y0031757D01*
X0330047Y0031828D01*
X0330029Y0031912D01*
X0330029Y0032574D01*
X0330449Y0032574D01*
X0330449Y0031911D01*
G37*
G36*
X0329949Y0031911D02*
X0329931Y0031827D01*
X0329877Y0031757D01*
X0329815Y0031722D01*
X0329739Y0031709D01*
X0329663Y0031722D01*
X0329601Y0031757D01*
X0329547Y0031828D01*
X0329529Y0031912D01*
X0329529Y0032574D01*
X0329949Y0032574D01*
X0329949Y0031911D01*
G37*
G36*
X0329449Y0031911D02*
X0329431Y0031827D01*
X0329377Y0031757D01*
X0329315Y0031722D01*
X0329239Y0031709D01*
X0329163Y0031722D01*
X0329101Y0031757D01*
X0329047Y0031828D01*
X0329029Y0031912D01*
X0329029Y0032574D01*
X0329449Y0032574D01*
X0329449Y0031911D01*
G37*
G36*
X0329029Y0029373D02*
X0329048Y0029457D01*
X0329102Y0029527D01*
X0329164Y0029562D01*
X0329239Y0029575D01*
X0329315Y0029562D01*
X0329377Y0029527D01*
X0329431Y0029456D01*
X0329449Y0029373D01*
X0329449Y0028710D01*
X0329029Y0028710D01*
X0329029Y0029373D01*
G37*
G36*
X0329529Y0029373D02*
X0329548Y0029457D01*
X0329602Y0029527D01*
X0329664Y0029562D01*
X0329739Y0029575D01*
X0329815Y0029562D01*
X0329877Y0029527D01*
X0329931Y0029456D01*
X0329949Y0029373D01*
X0329949Y0028710D01*
X0329529Y0028710D01*
X0329529Y0029373D01*
G37*
G36*
X0330029Y0029373D02*
X0330048Y0029457D01*
X0330102Y0029527D01*
X0330164Y0029562D01*
X0330239Y0029575D01*
X0330315Y0029562D01*
X0330377Y0029527D01*
X0330431Y0029456D01*
X0330449Y0029373D01*
X0330449Y0028710D01*
X0330029Y0028710D01*
X0330029Y0029373D01*
G37*
G36*
X0330529Y0029373D02*
X0330548Y0029457D01*
X0330602Y0029527D01*
X0330664Y0029562D01*
X0330739Y0029575D01*
X0330815Y0029562D01*
X0330877Y0029527D01*
X0330931Y0029456D01*
X0330949Y0029373D01*
X0330949Y0028710D01*
X0330529Y0028710D01*
X0330529Y0029373D01*
G37*
G36*
X0331029Y0029373D02*
X0331048Y0029457D01*
X0331102Y0029527D01*
X0331164Y0029562D01*
X0331239Y0029575D01*
X0331315Y0029562D01*
X0331377Y0029527D01*
X0331431Y0029456D01*
X0331449Y0029373D01*
X0331449Y0028710D01*
X0331029Y0028710D01*
X0331029Y0029373D01*
G37*
D27*
X0329489Y0031167D03*
G36*
X0331509Y0031562D02*
X0328969Y0031562D01*
X0328969Y0031157D01*
X0328269Y0031157D01*
X0328269Y0030737D01*
X0328969Y0030737D01*
X0328969Y0030597D01*
X0328269Y0030597D01*
X0328269Y0030177D01*
X0328969Y0030177D01*
X0328969Y0029772D01*
X0331509Y0029772D01*
X0331509Y0030177D01*
X0332209Y0030177D01*
X0332209Y0030597D01*
X0331509Y0030597D01*
X0331509Y0030737D01*
X0332209Y0030737D01*
X0332209Y0031157D01*
X0331509Y0031157D01*
X0331509Y0031562D01*
G37*
G36*
X0331449Y0031911D02*
X0331431Y0031827D01*
X0331377Y0031757D01*
X0331315Y0031722D01*
X0331239Y0031709D01*
X0331163Y0031722D01*
X0331101Y0031757D01*
X0331047Y0031828D01*
X0331029Y0031912D01*
X0331029Y0032574D01*
X0331449Y0032574D01*
X0331449Y0031911D01*
G37*
D27*
X0329489Y0030167D03*
X0330989Y0031167D03*
X0330239Y0030667D03*
X0330989Y0030167D03*
D74*
X0331216Y0043573D03*
X0331216Y0044843D03*
X0331216Y0046113D03*
X0331216Y0047383D03*
X0325816Y0047383D03*
X0325816Y0046113D03*
X0325816Y0044843D03*
X0325816Y0043573D03*
D21*
X0327723Y0023886D03*
X0332485Y0023886D03*
D39*
X0323319Y0037663D03*
X0325219Y0037663D03*
X0324269Y0039963D03*
D43*
X0338043Y0023251D03*
X0338043Y0021951D03*
X0338043Y0026268D03*
X0338043Y0024968D03*
D11*
X0319928Y0042764D03*
X0321228Y0042764D03*
X0320419Y0047860D03*
X0321719Y0047860D03*
X0320752Y0037555D03*
X0319452Y0037555D03*
D43*
X0334867Y0016930D03*
X0334867Y0015630D03*
D11*
X0336150Y0033515D03*
X0334850Y0033515D03*
D14*
X0332650Y0003771D03*
X0332650Y0002071D03*
X0338350Y0003771D03*
X0338350Y0002071D03*
D24*
X0335500Y0004271D03*
X0335500Y0001571D03*
D14*
X0312650Y0003723D03*
X0312650Y0002023D03*
X0318350Y0003723D03*
X0318350Y0002023D03*
D24*
X0315500Y0004223D03*
X0315500Y0001523D03*
D12*
X0316450Y0040080D03*
X0316450Y0041980D03*
X0314150Y0041030D03*
D43*
X0314069Y0044843D03*
X0314069Y0046143D03*
D11*
X0320737Y0039922D03*
X0319437Y0039922D03*
D46*
X0339313Y0038493D03*
X0340583Y0038493D03*
X0340583Y0046113D03*
X0339313Y0046113D03*
D43*
X0324547Y0030714D03*
X0324547Y0029414D03*
X0324563Y0032286D03*
X0324563Y0033586D03*
D36*
X0357500Y0002770D03*
D75*
X0357500Y0057630D03*
D38*
X0357500Y0012930D03*
X0357500Y0047470D03*
D35*
X0350030Y0002770D03*
X0283000Y0062000D02*
G75*
G01*
%LPD*%
D36*
X0293500Y0064770D03*
D75*
X0293500Y0119630D03*
D38*
X0293500Y0074930D03*
X0293500Y0109470D03*
D35*
X0286030Y0064770D03*
D43*
X0335978Y0098588D03*
X0335978Y0097288D03*
D33*
X0327826Y0080806D03*
X0325976Y0080806D03*
D44*
X0305500Y0085760D03*
D40*
X0305500Y0088300D03*
X0305500Y0090840D03*
X0305500Y0093380D03*
X0305500Y0095920D03*
X0305500Y0098460D03*
X0305500Y0101000D03*
X0305500Y0103540D03*
X0305500Y0106080D03*
X0305500Y0108620D03*
X0305500Y0111160D03*
X0305500Y0113700D03*
D44*
X0345500Y0085760D03*
D40*
X0345500Y0088300D03*
X0345500Y0090840D03*
X0345500Y0093380D03*
X0345500Y0095920D03*
X0345500Y0098460D03*
X0345500Y0101000D03*
X0345500Y0103540D03*
X0345500Y0106080D03*
X0345500Y0108620D03*
X0345500Y0111160D03*
X0345500Y0113700D03*
D47*
X0332775Y0097980D03*
X0332775Y0099830D03*
D33*
X0320419Y0113035D03*
X0322269Y0113035D03*
D11*
X0330739Y0097953D03*
X0329239Y0097953D03*
X0327246Y0102080D03*
X0328746Y0102080D03*
D39*
X0316609Y0107478D03*
X0318509Y0107478D03*
X0317559Y0109778D03*
D37*
X0326375Y0068740D03*
X0324625Y0068740D03*
D39*
X0336967Y0102757D03*
X0335067Y0102757D03*
X0336017Y0100457D03*
G36*
X0330949Y0093911D02*
X0330931Y0093827D01*
X0330877Y0093757D01*
X0330815Y0093722D01*
X0330739Y0093709D01*
X0330663Y0093722D01*
X0330601Y0093757D01*
X0330547Y0093828D01*
X0330529Y0093912D01*
X0330529Y0094574D01*
X0330949Y0094574D01*
X0330949Y0093911D01*
G37*
G36*
X0330449Y0093911D02*
X0330431Y0093827D01*
X0330377Y0093757D01*
X0330315Y0093722D01*
X0330239Y0093709D01*
X0330163Y0093722D01*
X0330101Y0093757D01*
X0330047Y0093828D01*
X0330029Y0093912D01*
X0330029Y0094574D01*
X0330449Y0094574D01*
X0330449Y0093911D01*
G37*
G36*
X0329949Y0093911D02*
X0329931Y0093827D01*
X0329877Y0093757D01*
X0329815Y0093722D01*
X0329739Y0093709D01*
X0329663Y0093722D01*
X0329601Y0093757D01*
X0329547Y0093828D01*
X0329529Y0093912D01*
X0329529Y0094574D01*
X0329949Y0094574D01*
X0329949Y0093911D01*
G37*
G36*
X0329449Y0093911D02*
X0329431Y0093827D01*
X0329377Y0093757D01*
X0329315Y0093722D01*
X0329239Y0093709D01*
X0329163Y0093722D01*
X0329101Y0093757D01*
X0329047Y0093828D01*
X0329029Y0093912D01*
X0329029Y0094574D01*
X0329449Y0094574D01*
X0329449Y0093911D01*
G37*
G36*
X0329029Y0091373D02*
X0329048Y0091457D01*
X0329102Y0091527D01*
X0329164Y0091562D01*
X0329239Y0091575D01*
X0329315Y0091562D01*
X0329377Y0091527D01*
X0329431Y0091456D01*
X0329449Y0091373D01*
X0329449Y0090710D01*
X0329029Y0090710D01*
X0329029Y0091373D01*
G37*
G36*
X0329529Y0091373D02*
X0329548Y0091457D01*
X0329602Y0091527D01*
X0329664Y0091562D01*
X0329739Y0091575D01*
X0329815Y0091562D01*
X0329877Y0091527D01*
X0329931Y0091456D01*
X0329949Y0091373D01*
X0329949Y0090710D01*
X0329529Y0090710D01*
X0329529Y0091373D01*
G37*
G36*
X0330029Y0091373D02*
X0330048Y0091457D01*
X0330102Y0091527D01*
X0330164Y0091562D01*
X0330239Y0091575D01*
X0330315Y0091562D01*
X0330377Y0091527D01*
X0330431Y0091456D01*
X0330449Y0091373D01*
X0330449Y0090710D01*
X0330029Y0090710D01*
X0330029Y0091373D01*
G37*
G36*
X0330529Y0091373D02*
X0330548Y0091457D01*
X0330602Y0091527D01*
X0330664Y0091562D01*
X0330739Y0091575D01*
X0330815Y0091562D01*
X0330877Y0091527D01*
X0330931Y0091456D01*
X0330949Y0091373D01*
X0330949Y0090710D01*
X0330529Y0090710D01*
X0330529Y0091373D01*
G37*
G36*
X0331029Y0091373D02*
X0331048Y0091457D01*
X0331102Y0091527D01*
X0331164Y0091562D01*
X0331239Y0091575D01*
X0331315Y0091562D01*
X0331377Y0091527D01*
X0331431Y0091456D01*
X0331449Y0091373D01*
X0331449Y0090710D01*
X0331029Y0090710D01*
X0331029Y0091373D01*
G37*
D27*
X0329489Y0093167D03*
G36*
X0331509Y0093562D02*
X0328969Y0093562D01*
X0328969Y0093157D01*
X0328269Y0093157D01*
X0328269Y0092737D01*
X0328969Y0092737D01*
X0328969Y0092597D01*
X0328269Y0092597D01*
X0328269Y0092177D01*
X0328969Y0092177D01*
X0328969Y0091772D01*
X0331509Y0091772D01*
X0331509Y0092177D01*
X0332209Y0092177D01*
X0332209Y0092597D01*
X0331509Y0092597D01*
X0331509Y0092737D01*
X0332209Y0092737D01*
X0332209Y0093157D01*
X0331509Y0093157D01*
X0331509Y0093562D01*
G37*
G36*
X0331449Y0093911D02*
X0331431Y0093827D01*
X0331377Y0093757D01*
X0331315Y0093722D01*
X0331239Y0093709D01*
X0331163Y0093722D01*
X0331101Y0093757D01*
X0331047Y0093828D01*
X0331029Y0093912D01*
X0331029Y0094574D01*
X0331449Y0094574D01*
X0331449Y0093911D01*
G37*
D27*
X0329489Y0092167D03*
X0330989Y0093167D03*
X0330239Y0092667D03*
X0330989Y0092167D03*
D74*
X0331216Y0105573D03*
X0331216Y0106843D03*
X0331216Y0108113D03*
X0331216Y0109383D03*
X0325816Y0109383D03*
X0325816Y0108113D03*
X0325816Y0106843D03*
X0325816Y0105573D03*
D21*
X0327723Y0085886D03*
X0332485Y0085886D03*
D39*
X0323319Y0099663D03*
X0325219Y0099663D03*
X0324269Y0101963D03*
D43*
X0338043Y0085251D03*
X0338043Y0083951D03*
X0338043Y0088268D03*
X0338043Y0086968D03*
D11*
X0319928Y0104764D03*
X0321228Y0104764D03*
X0320419Y0109860D03*
X0321719Y0109860D03*
X0320752Y0099555D03*
X0319452Y0099555D03*
D43*
X0334867Y0078930D03*
X0334867Y0077630D03*
D11*
X0336150Y0095515D03*
X0334850Y0095515D03*
D14*
X0332650Y0065771D03*
X0332650Y0064071D03*
X0338350Y0065771D03*
X0338350Y0064071D03*
D24*
X0335500Y0066271D03*
X0335500Y0063571D03*
D14*
X0312650Y0065723D03*
X0312650Y0064023D03*
X0318350Y0065723D03*
X0318350Y0064023D03*
D24*
X0315500Y0066223D03*
X0315500Y0063523D03*
D12*
X0316450Y0102080D03*
X0316450Y0103980D03*
X0314150Y0103030D03*
D43*
X0314069Y0106843D03*
X0314069Y0108143D03*
D11*
X0320737Y0101922D03*
X0319437Y0101922D03*
D46*
X0339313Y0100493D03*
X0340583Y0100493D03*
X0340583Y0108113D03*
X0339313Y0108113D03*
D43*
X0324547Y0092714D03*
X0324547Y0091414D03*
X0324563Y0094286D03*
X0324563Y0095586D03*
D36*
X0357500Y0064770D03*
D75*
X0357500Y0119630D03*
D38*
X0357500Y0074930D03*
X0357500Y0109470D03*
D35*
X0350030Y0064770D03*
M02*
