G04 DipTrace 2.4.0.2*
%INBottom.gbr*%
%MOIN*%
%ADD13C,0.0118*%
%ADD14C,0.0197*%
%ADD15C,0.0295*%
%ADD16C,0.0098*%
%ADD19R,0.0638X0.0638*%
%ADD20C,0.0638*%
%ADD21R,0.063X0.063*%
%ADD22C,0.063*%
%ADD23C,0.126*%
%ADD24R,0.0669X0.0669*%
%ADD25C,0.0669*%
%ADD26R,0.0394X0.0394*%
%ADD27C,0.0433*%
%ADD28C,0.04*%
%FSLAX44Y44*%
G04*
G70*
G90*
G75*
G01*
%LNBottom*%
%LPD*%
X9545Y12561D2*
D13*
X7045Y10061D1*
Y5061D1*
X11545Y11561D2*
X9795Y9811D1*
X12045Y11311D2*
X10045Y9311D1*
X11920Y10436D2*
X10545Y9061D1*
X14917Y7099D2*
D15*
Y7061D1*
X14670D1*
X14170Y7561D1*
Y12131D1*
Y13186D1*
X15045Y14061D1*
X16685D1*
X16170Y12686D2*
Y7368D1*
X15902Y7099D1*
X16685Y13561D2*
Y12586D1*
X16552Y12453D1*
Y7236D1*
X16689Y7099D1*
D28*
X9545Y12561D3*
X11545Y11561D3*
X9795Y9811D3*
X12045Y11311D3*
X10045Y9311D3*
X11920Y10436D3*
X10545Y9061D3*
X14170Y12131D3*
X16170Y12686D3*
X8545Y10311D3*
Y9061D3*
X15170Y8811D3*
X11295Y15811D3*
X15170Y11422D3*
X10295Y13311D3*
Y15811D3*
X11295Y13311D3*
X17295Y11422D3*
Y10811D3*
Y8811D3*
X15170Y10811D3*
X13295Y11811D3*
Y10811D3*
X8670Y14186D3*
X11045Y8061D3*
Y7061D3*
X4193Y18915D2*
D16*
X4701D1*
X5141D2*
X7956D1*
X9355D2*
X16233D1*
X17638D2*
X20450D1*
X20889D2*
X21398D1*
X4193Y18818D2*
X4542D1*
X5301D2*
X8000D1*
X9310D2*
X16277D1*
X17593D2*
X20290D1*
X21049D2*
X21398D1*
X4193Y18720D2*
X4451D1*
X5392D2*
X7954D1*
X9356D2*
X16237D1*
X17633D2*
X20199D1*
X21140D2*
X21398D1*
X4193Y18623D2*
X4394D1*
X5449D2*
X7933D1*
X9378D2*
X16213D1*
X17656D2*
X20142D1*
X21197D2*
X21398D1*
X4193Y18526D2*
X4360D1*
X5482D2*
X7931D1*
X9379D2*
X16210D1*
X17659D2*
X20108D1*
X21230D2*
X21398D1*
X4193Y18429D2*
X4345D1*
X5498D2*
X7951D1*
X9361D2*
X16228D1*
X17643D2*
X20093D1*
X21246D2*
X21398D1*
X4193Y18332D2*
X4345D1*
X5498D2*
X7994D1*
X9316D2*
X16270D1*
X17601D2*
X20093D1*
X21246D2*
X21398D1*
X4193Y18235D2*
X4363D1*
X5479D2*
X7960D1*
X9352D2*
X16242D1*
X17627D2*
X20111D1*
X21227D2*
X21398D1*
X4193Y18138D2*
X4400D1*
X5442D2*
X7934D1*
X9376D2*
X16216D1*
X17655D2*
X20148D1*
X21190D2*
X21398D1*
X4193Y18041D2*
X4460D1*
X5382D2*
X7930D1*
X9381D2*
X16210D1*
X17661D2*
X20208D1*
X21131D2*
X21398D1*
X4193Y17944D2*
X4554D1*
X5289D2*
X7946D1*
X9364D2*
X16223D1*
X17646D2*
X20302D1*
X21037D2*
X21398D1*
X4193Y17846D2*
X4578D1*
X5264D2*
X7986D1*
X9326D2*
X16262D1*
X17609D2*
X20326D1*
X21012D2*
X21398D1*
X4193Y17749D2*
X4474D1*
X5369D2*
X7965D1*
X9346D2*
X16248D1*
X17621D2*
X20222D1*
X21117D2*
X21398D1*
X4193Y17652D2*
X4409D1*
X5433D2*
X7937D1*
X9375D2*
X16217D1*
X17652D2*
X20157D1*
X21181D2*
X21398D1*
X4193Y17555D2*
X4368D1*
X5475D2*
X7930D1*
X9381D2*
X16210D1*
X17661D2*
X20116D1*
X21223D2*
X21398D1*
X4193Y17458D2*
X4348D1*
X5495D2*
X7943D1*
X9369D2*
X16220D1*
X17650D2*
X20096D1*
X21243D2*
X21398D1*
X4193Y17361D2*
X4343D1*
X5499D2*
X7979D1*
X9333D2*
X16254D1*
X17616D2*
X20091D1*
X21247D2*
X21398D1*
X4193Y17264D2*
X4355D1*
X5487D2*
X7973D1*
X9339D2*
X16256D1*
X17615D2*
X20104D1*
X21235D2*
X21398D1*
X4193Y17167D2*
X4386D1*
X5456D2*
X7940D1*
X9372D2*
X16220D1*
X17649D2*
X20134D1*
X21204D2*
X21398D1*
X4193Y17070D2*
X4439D1*
X5404D2*
X7930D1*
X9381D2*
X16210D1*
X17661D2*
X20187D1*
X21152D2*
X21398D1*
X4193Y16972D2*
X4520D1*
X5322D2*
X7939D1*
X9372D2*
X16217D1*
X17653D2*
X20268D1*
X21071D2*
X21398D1*
X4193Y16875D2*
X4622D1*
X5221D2*
X7971D1*
X9339D2*
X16248D1*
X17623D2*
X20370D1*
X20969D2*
X21398D1*
X4193Y16778D2*
X4500D1*
X5342D2*
X7979D1*
X9332D2*
X16262D1*
X17607D2*
X20248D1*
X21091D2*
X21398D1*
X4193Y16681D2*
X4425D1*
X5418D2*
X7943D1*
X9369D2*
X16225D1*
X17646D2*
X20173D1*
X21166D2*
X21398D1*
X4193Y16584D2*
X4379D1*
X5464D2*
X7930D1*
X9381D2*
X16210D1*
X17661D2*
X20127D1*
X21212D2*
X21398D1*
X4193Y16487D2*
X4352D1*
X5490D2*
X7937D1*
X9375D2*
X16214D1*
X17655D2*
X20100D1*
X21238D2*
X21398D1*
X4193Y16390D2*
X4343D1*
X5499D2*
X7965D1*
X9346D2*
X16242D1*
X17629D2*
X20091D1*
X21247D2*
X21398D1*
X4193Y16293D2*
X4351D1*
X5492D2*
X7986D1*
X9324D2*
X16271D1*
X17600D2*
X20099D1*
X21240D2*
X21398D1*
X4193Y16196D2*
X4375D1*
X5467D2*
X7946D1*
X9364D2*
X16228D1*
X17641D2*
X20123D1*
X21215D2*
X21398D1*
X4193Y16098D2*
X4420D1*
X5422D2*
X7930D1*
X9381D2*
X16210D1*
X17659D2*
X20168D1*
X21170D2*
X21398D1*
X4193Y16001D2*
X4492D1*
X5350D2*
X7934D1*
X9376D2*
X16213D1*
X17658D2*
X20240D1*
X21098D2*
X21398D1*
X4193Y15904D2*
X4609D1*
X5233D2*
X7959D1*
X9352D2*
X16236D1*
X17633D2*
X20357D1*
X20981D2*
X21398D1*
X4193Y15807D2*
X4529D1*
X5313D2*
X8010D1*
X9301D2*
X16279D1*
X17592D2*
X20277D1*
X21061D2*
X21398D1*
X4193Y15710D2*
X4445D1*
X5398D2*
X8099D1*
X9213D2*
X16233D1*
X17636D2*
X20193D1*
X21146D2*
X21398D1*
X4193Y15613D2*
X4389D1*
X5453D2*
X8299D1*
X8512D2*
X8798D1*
X9012D2*
X16211D1*
X17658D2*
X20137D1*
X21201D2*
X21398D1*
X4193Y15516D2*
X4357D1*
X5486D2*
X16211D1*
X17659D2*
X20105D1*
X21234D2*
X21398D1*
X4193Y15419D2*
X4343D1*
X5499D2*
X16231D1*
X17639D2*
X20091D1*
X21247D2*
X21398D1*
X4193Y15322D2*
X4346D1*
X5496D2*
X16276D1*
X17595D2*
X20094D1*
X21244D2*
X21398D1*
X4193Y15224D2*
X4366D1*
X5476D2*
X16239D1*
X17632D2*
X20114D1*
X21224D2*
X21398D1*
X4193Y15127D2*
X4405D1*
X5438D2*
X16214D1*
X17656D2*
X20153D1*
X21186D2*
X21398D1*
X4193Y15030D2*
X4468D1*
X5375D2*
X16210D1*
X17661D2*
X20216D1*
X21123D2*
X21398D1*
X4193Y14933D2*
X4568D1*
X5275D2*
X16226D1*
X17644D2*
X20316D1*
X21023D2*
X21398D1*
X4193Y14836D2*
X4563D1*
X5279D2*
X16266D1*
X17603D2*
X20311D1*
X21027D2*
X21398D1*
X4193Y14739D2*
X4466D1*
X5376D2*
X16243D1*
X17626D2*
X20214D1*
X21124D2*
X21398D1*
X4193Y14642D2*
X4403D1*
X5439D2*
X16216D1*
X17655D2*
X20151D1*
X21187D2*
X21398D1*
X4193Y14545D2*
X4365D1*
X5478D2*
X16210D1*
X17661D2*
X20113D1*
X21226D2*
X21398D1*
X4193Y14448D2*
X4346D1*
X5496D2*
X14942D1*
X17647D2*
X20094D1*
X21244D2*
X21398D1*
X4193Y14350D2*
X4343D1*
X5499D2*
X14762D1*
X17610D2*
X20091D1*
X21247D2*
X21398D1*
X4193Y14253D2*
X4359D1*
X5484D2*
X14666D1*
X17619D2*
X20107D1*
X21232D2*
X21398D1*
X4193Y14156D2*
X4391D1*
X5452D2*
X14569D1*
X17652D2*
X20139D1*
X21200D2*
X21398D1*
X4193Y14059D2*
X4446D1*
X5396D2*
X14472D1*
X17661D2*
X20194D1*
X21144D2*
X21398D1*
X4193Y13962D2*
X4532D1*
X5310D2*
X14375D1*
X17650D2*
X20280D1*
X21058D2*
X21398D1*
X4193Y13865D2*
X4605D1*
X5238D2*
X14276D1*
X17641D2*
X20353D1*
X20986D2*
X21398D1*
X4193Y13768D2*
X4489D1*
X5353D2*
X14180D1*
X17641D2*
X20237D1*
X21101D2*
X21398D1*
X4193Y13671D2*
X4419D1*
X5424D2*
X14083D1*
X17641D2*
X20167D1*
X21172D2*
X21398D1*
X4193Y13573D2*
X4374D1*
X5469D2*
X13986D1*
X15130D2*
X16210D1*
X17641D2*
X20122D1*
X21217D2*
X21398D1*
X4193Y13476D2*
X4349D1*
X5493D2*
X13889D1*
X15033D2*
X16217D1*
X17641D2*
X20097D1*
X21241D2*
X21398D1*
X4193Y13379D2*
X4343D1*
X5499D2*
X13814D1*
X14936D2*
X16246D1*
X17641D2*
X20091D1*
X21247D2*
X21398D1*
X4193Y13282D2*
X4352D1*
X5490D2*
X13775D1*
X14839D2*
X16277D1*
X17641D2*
X20100D1*
X21238D2*
X21398D1*
X4193Y13185D2*
X4379D1*
X5464D2*
X13763D1*
X14741D2*
X16277D1*
X17641D2*
X20127D1*
X21212D2*
X21398D1*
X4193Y13088D2*
X4426D1*
X5416D2*
X13763D1*
X14644D2*
X15959D1*
X17092D2*
X20174D1*
X21164D2*
X21398D1*
X4193Y12991D2*
X4502D1*
X5341D2*
X9403D1*
X9689D2*
X13763D1*
X14578D2*
X15830D1*
X17092D2*
X20250D1*
X21089D2*
X21398D1*
X4193Y12894D2*
X4626D1*
X5216D2*
X9232D1*
X9858D2*
X13763D1*
X14578D2*
X15762D1*
X17092D2*
X20374D1*
X20964D2*
X21398D1*
X4193Y12797D2*
X4518D1*
X5324D2*
X9152D1*
X9938D2*
X13763D1*
X14578D2*
X15725D1*
X17092D2*
X20267D1*
X21072D2*
X21398D1*
X4193Y12699D2*
X4437D1*
X5406D2*
X9108D1*
X9984D2*
X13763D1*
X14578D2*
X15711D1*
X17092D2*
X20185D1*
X21154D2*
X21398D1*
X4193Y12602D2*
X4386D1*
X5456D2*
X9088D1*
X10004D2*
X13763D1*
X14578D2*
X15719D1*
X17092D2*
X20134D1*
X21204D2*
X21398D1*
X4193Y12505D2*
X4355D1*
X5487D2*
X9043D1*
X10001D2*
X13763D1*
X14578D2*
X15748D1*
X17084D2*
X20104D1*
X21235D2*
X21398D1*
X4193Y12408D2*
X4343D1*
X5499D2*
X8946D1*
X9978D2*
X13763D1*
X14578D2*
X15764D1*
X17050D2*
X20091D1*
X21247D2*
X21398D1*
X4193Y12311D2*
X4348D1*
X5495D2*
X8849D1*
X9928D2*
X13747D1*
X14593D2*
X15764D1*
X16983D2*
X20096D1*
X21243D2*
X21398D1*
X4193Y12214D2*
X4369D1*
X5473D2*
X8751D1*
X9841D2*
X13718D1*
X14622D2*
X15764D1*
X16960D2*
X20117D1*
X21221D2*
X21398D1*
X4193Y12117D2*
X4411D1*
X5432D2*
X8654D1*
X9626D2*
X13710D1*
X14630D2*
X15764D1*
X16960D2*
X20159D1*
X21180D2*
X21398D1*
X4193Y12020D2*
X4475D1*
X5367D2*
X8557D1*
X9450D2*
X13724D1*
X14616D2*
X15764D1*
X16960D2*
X20223D1*
X21115D2*
X21398D1*
X4193Y11923D2*
X4582D1*
X5261D2*
X8460D1*
X9353D2*
X11268D1*
X11823D2*
X13761D1*
X14579D2*
X15764D1*
X16960D2*
X20330D1*
X21009D2*
X21398D1*
X4193Y11825D2*
X4551D1*
X5292D2*
X8363D1*
X9256D2*
X11171D1*
X11919D2*
X13763D1*
X14578D2*
X15764D1*
X16960D2*
X20299D1*
X21040D2*
X21398D1*
X4193Y11728D2*
X4457D1*
X5386D2*
X8266D1*
X9160D2*
X11118D1*
X12223D2*
X13763D1*
X14578D2*
X15764D1*
X16960D2*
X20205D1*
X21134D2*
X21398D1*
X4193Y11631D2*
X4399D1*
X5444D2*
X8169D1*
X9063D2*
X11091D1*
X12371D2*
X13763D1*
X14578D2*
X15764D1*
X16960D2*
X20147D1*
X21192D2*
X21398D1*
X4193Y11534D2*
X4362D1*
X5481D2*
X8071D1*
X8966D2*
X11071D1*
X12446D2*
X13763D1*
X14578D2*
X15764D1*
X16960D2*
X20110D1*
X21229D2*
X21398D1*
X4193Y11437D2*
X4345D1*
X5498D2*
X7974D1*
X8867D2*
X10975D1*
X12488D2*
X13763D1*
X14578D2*
X15764D1*
X16960D2*
X20093D1*
X21246D2*
X21398D1*
X4193Y11340D2*
X4345D1*
X5498D2*
X7877D1*
X8770D2*
X10878D1*
X12504D2*
X13763D1*
X14578D2*
X15764D1*
X16960D2*
X20093D1*
X21246D2*
X21398D1*
X4193Y11243D2*
X4362D1*
X5481D2*
X7780D1*
X8674D2*
X10781D1*
X12500D2*
X13763D1*
X14578D2*
X15764D1*
X16960D2*
X20110D1*
X21229D2*
X21398D1*
X4193Y11146D2*
X4395D1*
X5447D2*
X7683D1*
X8577D2*
X10684D1*
X12474D2*
X13763D1*
X14578D2*
X15764D1*
X16960D2*
X20143D1*
X21195D2*
X21398D1*
X4193Y11049D2*
X4454D1*
X5389D2*
X7587D1*
X8480D2*
X10585D1*
X12420D2*
X13763D1*
X14578D2*
X15764D1*
X16960D2*
X20202D1*
X21137D2*
X21398D1*
X4193Y10951D2*
X4545D1*
X5298D2*
X7490D1*
X8383D2*
X10489D1*
X12326D2*
X13763D1*
X14578D2*
X15764D1*
X16960D2*
X20293D1*
X21046D2*
X21398D1*
X4193Y10854D2*
X4589D1*
X5253D2*
X7391D1*
X8286D2*
X10392D1*
X12095D2*
X13763D1*
X14578D2*
X15764D1*
X16960D2*
X20337D1*
X21001D2*
X21398D1*
X4193Y10757D2*
X4480D1*
X5362D2*
X7294D1*
X8188D2*
X10295D1*
X12245D2*
X13763D1*
X14578D2*
X15764D1*
X16960D2*
X20228D1*
X21111D2*
X21398D1*
X4193Y10660D2*
X4414D1*
X5429D2*
X7197D1*
X8091D2*
X10198D1*
X12320D2*
X13763D1*
X14578D2*
X15764D1*
X16960D2*
X20162D1*
X21177D2*
X21398D1*
X4193Y10563D2*
X4371D1*
X5472D2*
X7101D1*
X7994D2*
X10101D1*
X12361D2*
X13763D1*
X14578D2*
X15764D1*
X16960D2*
X20119D1*
X21220D2*
X21398D1*
X4193Y10466D2*
X4348D1*
X5495D2*
X7004D1*
X7897D2*
X10004D1*
X12378D2*
X13763D1*
X14578D2*
X15764D1*
X16960D2*
X20096D1*
X21243D2*
X21398D1*
X4193Y10369D2*
X4343D1*
X5499D2*
X6907D1*
X7800D2*
X9906D1*
X12375D2*
X13763D1*
X14578D2*
X15764D1*
X16960D2*
X20091D1*
X21247D2*
X21398D1*
X4193Y10272D2*
X4354D1*
X5489D2*
X6810D1*
X7703D2*
X9809D1*
X12349D2*
X13763D1*
X14578D2*
X15764D1*
X16960D2*
X20102D1*
X21237D2*
X21398D1*
X4193Y10175D2*
X4383D1*
X5459D2*
X6748D1*
X7606D2*
X9520D1*
X12297D2*
X13763D1*
X14578D2*
X15764D1*
X16960D2*
X20131D1*
X21207D2*
X21398D1*
X4193Y10077D2*
X4434D1*
X5409D2*
X6727D1*
X7508D2*
X9423D1*
X12201D2*
X13763D1*
X14578D2*
X15764D1*
X16960D2*
X20182D1*
X21157D2*
X21398D1*
X4193Y9980D2*
X4512D1*
X5330D2*
X6727D1*
X7411D2*
X9369D1*
X11911D2*
X13763D1*
X14578D2*
X15764D1*
X16960D2*
X20260D1*
X21078D2*
X21398D1*
X4193Y9883D2*
X4635D1*
X5207D2*
X6727D1*
X7363D2*
X9341D1*
X11814D2*
X13763D1*
X14578D2*
X15764D1*
X16960D2*
X20383D1*
X20955D2*
X21398D1*
X4193Y9786D2*
X4508D1*
X5335D2*
X6727D1*
X7363D2*
X9337D1*
X11717D2*
X13763D1*
X14578D2*
X15764D1*
X16960D2*
X20256D1*
X21083D2*
X21398D1*
X4193Y9689D2*
X4431D1*
X5412D2*
X6727D1*
X7363D2*
X9352D1*
X11620D2*
X13763D1*
X14578D2*
X15764D1*
X16960D2*
X20179D1*
X21160D2*
X21398D1*
X4193Y9592D2*
X4382D1*
X5461D2*
X6727D1*
X7363D2*
X9392D1*
X11523D2*
X13763D1*
X14578D2*
X15764D1*
X16960D2*
X20130D1*
X21209D2*
X21398D1*
X4193Y9495D2*
X4354D1*
X5489D2*
X6727D1*
X7363D2*
X9466D1*
X11426D2*
X13763D1*
X14578D2*
X15764D1*
X16960D2*
X20102D1*
X21237D2*
X21398D1*
X4193Y9398D2*
X4343D1*
X5499D2*
X6727D1*
X7363D2*
X9594D1*
X11328D2*
X13763D1*
X14578D2*
X15764D1*
X16960D2*
X20091D1*
X21247D2*
X21398D1*
X4193Y9301D2*
X4349D1*
X5493D2*
X6727D1*
X7363D2*
X9586D1*
X11231D2*
X13763D1*
X14578D2*
X15764D1*
X16960D2*
X20097D1*
X21241D2*
X21398D1*
X4193Y9203D2*
X4372D1*
X5470D2*
X6727D1*
X7363D2*
X9598D1*
X11134D2*
X13763D1*
X14578D2*
X15764D1*
X16960D2*
X20120D1*
X21218D2*
X21398D1*
X4193Y9106D2*
X4415D1*
X5427D2*
X6727D1*
X7363D2*
X9635D1*
X11037D2*
X13763D1*
X14578D2*
X15764D1*
X16960D2*
X20163D1*
X21175D2*
X21398D1*
X4193Y9009D2*
X4485D1*
X5358D2*
X6727D1*
X7363D2*
X9701D1*
X11002D2*
X13763D1*
X14578D2*
X15764D1*
X16960D2*
X20233D1*
X21106D2*
X21398D1*
X4193Y8912D2*
X4597D1*
X5246D2*
X6727D1*
X7363D2*
X9827D1*
X10979D2*
X13763D1*
X14578D2*
X15764D1*
X16960D2*
X20345D1*
X20994D2*
X21398D1*
X4193Y8815D2*
X4538D1*
X5304D2*
X6727D1*
X7363D2*
X10159D1*
X10931D2*
X13763D1*
X14578D2*
X15764D1*
X16960D2*
X20287D1*
X21052D2*
X21398D1*
X4193Y8718D2*
X4449D1*
X5393D2*
X6727D1*
X7363D2*
X10244D1*
X10847D2*
X13763D1*
X14578D2*
X15764D1*
X16960D2*
X20197D1*
X21141D2*
X21398D1*
X4193Y8621D2*
X4394D1*
X5449D2*
X6727D1*
X7363D2*
X10442D1*
X10648D2*
X13763D1*
X14578D2*
X15764D1*
X16960D2*
X20142D1*
X21197D2*
X21398D1*
X4193Y8524D2*
X4360D1*
X5482D2*
X6727D1*
X7363D2*
X13763D1*
X14578D2*
X15764D1*
X16960D2*
X20108D1*
X21230D2*
X21398D1*
X4193Y8427D2*
X4345D1*
X5498D2*
X6727D1*
X7363D2*
X13763D1*
X14578D2*
X15764D1*
X16960D2*
X20093D1*
X21246D2*
X21398D1*
X4193Y8329D2*
X4345D1*
X5498D2*
X6727D1*
X7363D2*
X13763D1*
X14578D2*
X15764D1*
X16960D2*
X20093D1*
X21246D2*
X21398D1*
X4193Y8232D2*
X4363D1*
X5479D2*
X6727D1*
X7363D2*
X13763D1*
X14578D2*
X15764D1*
X16960D2*
X20111D1*
X21227D2*
X21398D1*
X4193Y8135D2*
X4402D1*
X5441D2*
X6727D1*
X7363D2*
X13763D1*
X14578D2*
X15764D1*
X16960D2*
X20150D1*
X21189D2*
X21398D1*
X4193Y8038D2*
X4462D1*
X5381D2*
X6727D1*
X7363D2*
X13763D1*
X14578D2*
X15764D1*
X16960D2*
X20210D1*
X21129D2*
X21398D1*
X4193Y7941D2*
X4343D1*
X5499D2*
X6727D1*
X7363D2*
X13763D1*
X14578D2*
X15764D1*
X16960D2*
X20091D1*
X21247D2*
X21398D1*
X4193Y7844D2*
X4343D1*
X5499D2*
X6727D1*
X7363D2*
X13763D1*
X14578D2*
X15764D1*
X16960D2*
X20091D1*
X21247D2*
X21398D1*
X4193Y7747D2*
X4343D1*
X5499D2*
X6727D1*
X7363D2*
X13763D1*
X14578D2*
X15764D1*
X16960D2*
X20091D1*
X21247D2*
X21398D1*
X4193Y7650D2*
X4343D1*
X5499D2*
X6727D1*
X7363D2*
X13763D1*
X15493D2*
X15764D1*
X16960D2*
X17537D1*
X17809D2*
X20091D1*
X21247D2*
X21398D1*
X4193Y7552D2*
X4343D1*
X5499D2*
X6727D1*
X7363D2*
X13763D1*
X15493D2*
X15554D1*
X17035D2*
X17326D1*
X18019D2*
X20091D1*
X21247D2*
X21398D1*
X4193Y7455D2*
X4343D1*
X5499D2*
X6727D1*
X7363D2*
X13777D1*
X17137D2*
X17225D1*
X18121D2*
X20091D1*
X21247D2*
X21398D1*
X4193Y7358D2*
X4343D1*
X5499D2*
X6727D1*
X7363D2*
X13818D1*
X18185D2*
X20091D1*
X21247D2*
X21398D1*
X4193Y7261D2*
X4343D1*
X5499D2*
X6727D1*
X7363D2*
X13898D1*
X18224D2*
X20091D1*
X21247D2*
X21398D1*
X4193Y7164D2*
X4343D1*
X5499D2*
X6727D1*
X7363D2*
X13995D1*
X18244D2*
X20091D1*
X21247D2*
X21398D1*
X4193Y7067D2*
X4343D1*
X5499D2*
X6727D1*
X7363D2*
X14092D1*
X18247D2*
X20091D1*
X21247D2*
X21398D1*
X4193Y6970D2*
X4343D1*
X5499D2*
X6727D1*
X7363D2*
X14189D1*
X18233D2*
X20091D1*
X21247D2*
X21398D1*
X4193Y6873D2*
X4343D1*
X5499D2*
X6727D1*
X7363D2*
X13428D1*
X13990D2*
X14287D1*
X18201D2*
X18599D1*
X19164D2*
X20091D1*
X21247D2*
X21398D1*
X4193Y6776D2*
X6727D1*
X7363D2*
X13223D1*
X14195D2*
X14343D1*
X18145D2*
X18395D1*
X19368D2*
X21398D1*
X4193Y6678D2*
X6727D1*
X7363D2*
X13098D1*
X17077D2*
X17286D1*
X18061D2*
X18270D1*
X19493D2*
X21398D1*
X4193Y6581D2*
X6727D1*
X7363D2*
X13008D1*
X15493D2*
X15665D1*
X16137D2*
X16453D1*
X16924D2*
X17437D1*
X17909D2*
X18181D1*
X19582D2*
X21398D1*
X4193Y6484D2*
X6727D1*
X7363D2*
X12942D1*
X14476D2*
X18115D1*
X19650D2*
X21398D1*
X4193Y6387D2*
X6727D1*
X7363D2*
X12892D1*
X14525D2*
X18066D1*
X19699D2*
X21398D1*
X4193Y6290D2*
X6727D1*
X7363D2*
X12857D1*
X14561D2*
X18030D1*
X19734D2*
X21398D1*
X4193Y6193D2*
X6727D1*
X7363D2*
X12834D1*
X14584D2*
X18006D1*
X19757D2*
X21398D1*
X4193Y6096D2*
X6727D1*
X7363D2*
X12822D1*
X14596D2*
X17995D1*
X19769D2*
X21398D1*
X4193Y5999D2*
X6727D1*
X7363D2*
X12820D1*
X14598D2*
X17994D1*
X19771D2*
X21398D1*
X4193Y5902D2*
X6727D1*
X7363D2*
X12829D1*
X14588D2*
X18003D1*
X19762D2*
X21398D1*
X4193Y5804D2*
X6727D1*
X7363D2*
X12851D1*
X14567D2*
X18023D1*
X19740D2*
X21398D1*
X4193Y5707D2*
X6727D1*
X7363D2*
X12883D1*
X14534D2*
X18057D1*
X19708D2*
X21398D1*
X4193Y5610D2*
X4451D1*
X5639D2*
X5835D1*
X6254D2*
X6727D1*
X7363D2*
X7836D1*
X8255D2*
X8835D1*
X9255D2*
X9835D1*
X10255D2*
X10835D1*
X11256D2*
X12929D1*
X14488D2*
X18103D1*
X19662D2*
X21398D1*
X4193Y5513D2*
X4451D1*
X6425D2*
X6665D1*
X7426D2*
X7665D1*
X8426D2*
X8665D1*
X9426D2*
X9664D1*
X10425D2*
X10665D1*
X11425D2*
X12991D1*
X14425D2*
X18164D1*
X19599D2*
X21398D1*
X4193Y5416D2*
X4451D1*
X6519D2*
X6570D1*
X7520D2*
X7571D1*
X8520D2*
X8571D1*
X9519D2*
X9572D1*
X10519D2*
X10572D1*
X11520D2*
X13075D1*
X14342D2*
X18247D1*
X19516D2*
X21398D1*
X4193Y5319D2*
X4451D1*
X11580D2*
X13189D1*
X14228D2*
X18363D1*
X19402D2*
X21398D1*
X4193Y5222D2*
X4451D1*
X11617D2*
X13366D1*
X14052D2*
X18539D1*
X19225D2*
X21398D1*
X4193Y5125D2*
X4451D1*
X11636D2*
X21398D1*
X4193Y5028D2*
X4451D1*
X11639D2*
X21398D1*
X4193Y4930D2*
X4451D1*
X11625D2*
X21398D1*
X4193Y4833D2*
X4451D1*
X11594D2*
X21398D1*
X4193Y4736D2*
X4451D1*
X11542D2*
X21398D1*
X4193Y4639D2*
X4451D1*
X6459D2*
X6632D1*
X7460D2*
X7631D1*
X8460D2*
X8631D1*
X9459D2*
X9630D1*
X10459D2*
X10632D1*
X11460D2*
X21398D1*
X4193Y4542D2*
X4451D1*
X5639D2*
X5767D1*
X6324D2*
X6767D1*
X7323D2*
X7767D1*
X8324D2*
X8766D1*
X9324D2*
X9767D1*
X10324D2*
X10767D1*
X11323D2*
X21398D1*
X4193Y4445D2*
X21398D1*
X4402Y7955D2*
X4551D1*
X4493Y8011D1*
X4435Y8090D1*
X4392Y8178D1*
X4364Y8273D1*
X4353Y8370D1*
X4358Y8468D1*
X4381Y8564D1*
X4420Y8654D1*
X4473Y8737D1*
X4541Y8809D1*
X4619Y8868D1*
X4650Y8885D1*
X4564Y8943D1*
X4493Y9011D1*
X4435Y9090D1*
X4392Y9178D1*
X4364Y9273D1*
X4353Y9370D1*
X4358Y9468D1*
X4381Y9564D1*
X4420Y9654D1*
X4473Y9737D1*
X4541Y9809D1*
X4619Y9868D1*
X4650Y9885D1*
X4564Y9943D1*
X4493Y10011D1*
X4435Y10090D1*
X4392Y10178D1*
X4364Y10273D1*
X4353Y10370D1*
X4358Y10468D1*
X4381Y10564D1*
X4420Y10654D1*
X4473Y10737D1*
X4541Y10809D1*
X4619Y10868D1*
X4650Y10885D1*
X4564Y10943D1*
X4493Y11011D1*
X4435Y11090D1*
X4392Y11178D1*
X4364Y11273D1*
X4353Y11370D1*
X4358Y11468D1*
X4381Y11564D1*
X4420Y11654D1*
X4473Y11737D1*
X4541Y11809D1*
X4619Y11868D1*
X4650Y11885D1*
X4564Y11943D1*
X4493Y12011D1*
X4435Y12090D1*
X4392Y12178D1*
X4364Y12273D1*
X4353Y12370D1*
X4358Y12468D1*
X4381Y12564D1*
X4420Y12654D1*
X4473Y12737D1*
X4541Y12809D1*
X4619Y12868D1*
X4650Y12885D1*
X4564Y12943D1*
X4493Y13011D1*
X4435Y13090D1*
X4392Y13178D1*
X4364Y13273D1*
X4353Y13370D1*
X4358Y13468D1*
X4381Y13564D1*
X4420Y13654D1*
X4473Y13737D1*
X4541Y13809D1*
X4619Y13868D1*
X4650Y13885D1*
X4564Y13943D1*
X4493Y14011D1*
X4435Y14090D1*
X4392Y14178D1*
X4364Y14273D1*
X4353Y14370D1*
X4358Y14468D1*
X4381Y14564D1*
X4420Y14654D1*
X4473Y14737D1*
X4541Y14809D1*
X4619Y14868D1*
X4650Y14885D1*
X4564Y14943D1*
X4493Y15011D1*
X4435Y15090D1*
X4392Y15178D1*
X4364Y15273D1*
X4353Y15370D1*
X4358Y15468D1*
X4381Y15564D1*
X4420Y15654D1*
X4473Y15737D1*
X4541Y15809D1*
X4619Y15868D1*
X4650Y15885D1*
X4564Y15943D1*
X4493Y16011D1*
X4435Y16090D1*
X4392Y16178D1*
X4364Y16273D1*
X4353Y16370D1*
X4358Y16468D1*
X4381Y16564D1*
X4420Y16654D1*
X4473Y16737D1*
X4541Y16809D1*
X4619Y16868D1*
X4650Y16885D1*
X4564Y16943D1*
X4493Y17011D1*
X4435Y17090D1*
X4392Y17178D1*
X4364Y17273D1*
X4353Y17370D1*
X4358Y17468D1*
X4381Y17564D1*
X4420Y17654D1*
X4473Y17737D1*
X4541Y17809D1*
X4619Y17868D1*
X4650Y17885D1*
X4564Y17943D1*
X4493Y18011D1*
X4435Y18090D1*
X4392Y18178D1*
X4364Y18273D1*
X4353Y18370D1*
X4358Y18468D1*
X4381Y18564D1*
X4420Y18654D1*
X4473Y18737D1*
X4541Y18809D1*
X4619Y18868D1*
X4706Y18913D1*
X4800Y18942D1*
X4898Y18954D1*
X4996Y18950D1*
X5092Y18928D1*
X5183Y18891D1*
X5266Y18838D1*
X5339Y18772D1*
X5399Y18695D1*
X5445Y18608D1*
X5475Y18514D1*
X5489Y18417D1*
X5488Y18337D1*
X5471Y18240D1*
X5438Y18147D1*
X5389Y18062D1*
X5326Y17986D1*
X5251Y17923D1*
X5193Y17886D1*
X5266Y17838D1*
X5339Y17772D1*
X5399Y17695D1*
X5445Y17608D1*
X5475Y17514D1*
X5489Y17417D1*
X5488Y17337D1*
X5471Y17240D1*
X5438Y17147D1*
X5389Y17062D1*
X5326Y16986D1*
X5251Y16923D1*
X5193Y16886D1*
X5266Y16838D1*
X5339Y16772D1*
X5399Y16695D1*
X5445Y16608D1*
X5475Y16514D1*
X5489Y16417D1*
X5488Y16337D1*
X5471Y16240D1*
X5438Y16147D1*
X5389Y16062D1*
X5326Y15986D1*
X5251Y15923D1*
X5193Y15886D1*
X5266Y15838D1*
X5339Y15772D1*
X5399Y15695D1*
X5445Y15608D1*
X5475Y15514D1*
X5489Y15417D1*
X5488Y15337D1*
X5471Y15240D1*
X5438Y15147D1*
X5389Y15062D1*
X5326Y14986D1*
X5251Y14923D1*
X5193Y14886D1*
X5266Y14838D1*
X5339Y14772D1*
X5399Y14695D1*
X5445Y14608D1*
X5475Y14514D1*
X5489Y14417D1*
X5488Y14337D1*
X5471Y14240D1*
X5438Y14147D1*
X5389Y14062D1*
X5326Y13986D1*
X5251Y13923D1*
X5193Y13886D1*
X5266Y13838D1*
X5339Y13772D1*
X5399Y13695D1*
X5445Y13608D1*
X5475Y13514D1*
X5489Y13417D1*
X5488Y13337D1*
X5471Y13240D1*
X5438Y13147D1*
X5389Y13062D1*
X5326Y12986D1*
X5251Y12923D1*
X5193Y12886D1*
X5266Y12838D1*
X5339Y12772D1*
X5399Y12695D1*
X5445Y12608D1*
X5475Y12514D1*
X5489Y12417D1*
X5488Y12337D1*
X5471Y12240D1*
X5438Y12147D1*
X5389Y12062D1*
X5326Y11986D1*
X5251Y11923D1*
X5193Y11886D1*
X5266Y11838D1*
X5339Y11772D1*
X5399Y11695D1*
X5445Y11608D1*
X5475Y11514D1*
X5489Y11417D1*
X5488Y11337D1*
X5471Y11240D1*
X5438Y11147D1*
X5389Y11062D1*
X5326Y10986D1*
X5251Y10923D1*
X5193Y10886D1*
X5266Y10838D1*
X5339Y10772D1*
X5399Y10695D1*
X5445Y10608D1*
X5475Y10514D1*
X5489Y10417D1*
X5488Y10337D1*
X5471Y10240D1*
X5438Y10147D1*
X5389Y10062D1*
X5326Y9986D1*
X5251Y9923D1*
X5193Y9886D1*
X5266Y9838D1*
X5339Y9772D1*
X5399Y9695D1*
X5445Y9608D1*
X5475Y9514D1*
X5489Y9417D1*
X5488Y9337D1*
X5471Y9240D1*
X5438Y9147D1*
X5389Y9062D1*
X5326Y8986D1*
X5251Y8923D1*
X5193Y8886D1*
X5266Y8838D1*
X5339Y8772D1*
X5399Y8695D1*
X5445Y8608D1*
X5475Y8514D1*
X5489Y8417D1*
X5488Y8337D1*
X5471Y8240D1*
X5438Y8147D1*
X5389Y8062D1*
X5326Y7986D1*
X5291Y7954D1*
X5490Y7955D1*
Y6817D1*
X4352D1*
Y7955D1*
X4402D1*
X20150D2*
X20299D1*
X20241Y8011D1*
X20183Y8090D1*
X20140Y8178D1*
X20112Y8273D1*
X20101Y8370D1*
X20106Y8468D1*
X20129Y8564D1*
X20168Y8654D1*
X20221Y8737D1*
X20289Y8809D1*
X20367Y8868D1*
X20398Y8885D1*
X20312Y8943D1*
X20241Y9011D1*
X20183Y9090D1*
X20140Y9178D1*
X20112Y9273D1*
X20101Y9370D1*
X20106Y9468D1*
X20129Y9564D1*
X20168Y9654D1*
X20221Y9737D1*
X20289Y9809D1*
X20367Y9868D1*
X20398Y9885D1*
X20312Y9943D1*
X20241Y10011D1*
X20183Y10090D1*
X20140Y10178D1*
X20112Y10273D1*
X20101Y10370D1*
X20106Y10468D1*
X20129Y10564D1*
X20168Y10654D1*
X20221Y10737D1*
X20289Y10809D1*
X20367Y10868D1*
X20398Y10885D1*
X20312Y10943D1*
X20241Y11011D1*
X20183Y11090D1*
X20140Y11178D1*
X20112Y11273D1*
X20101Y11370D1*
X20106Y11468D1*
X20129Y11564D1*
X20168Y11654D1*
X20221Y11737D1*
X20289Y11809D1*
X20367Y11868D1*
X20398Y11885D1*
X20312Y11943D1*
X20241Y12011D1*
X20183Y12090D1*
X20140Y12178D1*
X20112Y12273D1*
X20101Y12370D1*
X20106Y12468D1*
X20129Y12564D1*
X20168Y12654D1*
X20221Y12737D1*
X20289Y12809D1*
X20367Y12868D1*
X20398Y12885D1*
X20312Y12943D1*
X20241Y13011D1*
X20183Y13090D1*
X20140Y13178D1*
X20112Y13273D1*
X20101Y13370D1*
X20106Y13468D1*
X20129Y13564D1*
X20168Y13654D1*
X20221Y13737D1*
X20289Y13809D1*
X20367Y13868D1*
X20398Y13885D1*
X20328Y13931D1*
X20268Y13982D1*
X20216Y14041D1*
X20173Y14107D1*
X20140Y14178D1*
X20116Y14253D1*
X20103Y14331D1*
X20101Y14410D1*
X20110Y14488D1*
X20129Y14564D1*
X20159Y14637D1*
X20198Y14705D1*
X20247Y14767D1*
X20303Y14821D1*
X20367Y14868D1*
X20398Y14886D1*
X20336Y14925D1*
X20275Y14975D1*
X20223Y15034D1*
X20178Y15099D1*
X20143Y15169D1*
X20118Y15244D1*
X20104Y15321D1*
X20101Y15400D1*
X20108Y15478D1*
X20126Y15555D1*
X20155Y15628D1*
X20193Y15697D1*
X20240Y15759D1*
X20296Y15815D1*
X20359Y15862D1*
X20398Y15886D1*
X20352Y15914D1*
X20275Y15975D1*
X20211Y16049D1*
X20160Y16133D1*
X20124Y16225D1*
X20104Y16321D1*
X20101Y16419D1*
X20116Y16517D1*
X20146Y16610D1*
X20193Y16697D1*
X20253Y16774D1*
X20327Y16840D1*
X20398Y16885D1*
X20312Y16943D1*
X20241Y17011D1*
X20183Y17090D1*
X20140Y17178D1*
X20112Y17273D1*
X20101Y17370D1*
X20106Y17468D1*
X20129Y17564D1*
X20168Y17654D1*
X20221Y17737D1*
X20289Y17809D1*
X20367Y17868D1*
X20398Y17885D1*
X20312Y17943D1*
X20241Y18011D1*
X20183Y18090D1*
X20140Y18178D1*
X20112Y18273D1*
X20101Y18370D1*
X20106Y18468D1*
X20129Y18564D1*
X20168Y18654D1*
X20221Y18737D1*
X20289Y18809D1*
X20367Y18868D1*
X20455Y18913D1*
X20548Y18942D1*
X20646Y18954D1*
X20744Y18950D1*
X20840Y18928D1*
X20931Y18891D1*
X21014Y18838D1*
X21087Y18772D1*
X21147Y18695D1*
X21193Y18608D1*
X21223Y18514D1*
X21237Y18417D1*
X21236Y18337D1*
X21219Y18240D1*
X21186Y18147D1*
X21137Y18062D1*
X21074Y17986D1*
X20999Y17923D1*
X20941Y17886D1*
X21014Y17838D1*
X21087Y17772D1*
X21147Y17695D1*
X21193Y17608D1*
X21223Y17514D1*
X21237Y17417D1*
X21236Y17337D1*
X21219Y17240D1*
X21186Y17147D1*
X21137Y17062D1*
X21074Y16986D1*
X20999Y16923D1*
X20941Y16886D1*
X21014Y16838D1*
X21087Y16772D1*
X21147Y16695D1*
X21193Y16608D1*
X21223Y16514D1*
X21237Y16417D1*
X21236Y16337D1*
X21219Y16240D1*
X21186Y16147D1*
X21137Y16062D1*
X21074Y15986D1*
X20999Y15923D1*
X20941Y15886D1*
X21006Y15844D1*
X21066Y15793D1*
X21119Y15735D1*
X21162Y15669D1*
X21197Y15599D1*
X21221Y15524D1*
X21235Y15446D1*
X21238Y15376D1*
X21231Y15298D1*
X21214Y15221D1*
X21186Y15147D1*
X21148Y15078D1*
X21101Y15015D1*
X21046Y14959D1*
X20983Y14911D1*
X20940Y14886D1*
X20998Y14850D1*
X21059Y14800D1*
X21112Y14743D1*
X21157Y14678D1*
X21193Y14608D1*
X21219Y14533D1*
X21234Y14456D1*
X21238Y14386D1*
X21233Y14307D1*
X21217Y14230D1*
X21190Y14156D1*
X21153Y14087D1*
X21107Y14023D1*
X21053Y13966D1*
X20991Y13917D1*
X20940Y13886D1*
X21014Y13838D1*
X21087Y13772D1*
X21147Y13695D1*
X21193Y13608D1*
X21223Y13514D1*
X21237Y13417D1*
X21236Y13337D1*
X21219Y13240D1*
X21186Y13147D1*
X21137Y13062D1*
X21074Y12986D1*
X20999Y12923D1*
X20941Y12886D1*
X21014Y12838D1*
X21087Y12772D1*
X21147Y12695D1*
X21193Y12608D1*
X21223Y12514D1*
X21237Y12417D1*
X21236Y12337D1*
X21219Y12240D1*
X21186Y12147D1*
X21137Y12062D1*
X21074Y11986D1*
X20999Y11923D1*
X20941Y11886D1*
X21014Y11838D1*
X21087Y11772D1*
X21147Y11695D1*
X21193Y11608D1*
X21223Y11514D1*
X21237Y11417D1*
X21236Y11337D1*
X21219Y11240D1*
X21186Y11147D1*
X21137Y11062D1*
X21074Y10986D1*
X20999Y10923D1*
X20941Y10886D1*
X21014Y10838D1*
X21087Y10772D1*
X21147Y10695D1*
X21193Y10608D1*
X21223Y10514D1*
X21237Y10417D1*
X21236Y10337D1*
X21219Y10240D1*
X21186Y10147D1*
X21137Y10062D1*
X21074Y9986D1*
X20999Y9923D1*
X20941Y9886D1*
X21014Y9838D1*
X21087Y9772D1*
X21147Y9695D1*
X21193Y9608D1*
X21223Y9514D1*
X21237Y9417D1*
X21236Y9337D1*
X21219Y9240D1*
X21186Y9147D1*
X21137Y9062D1*
X21074Y8986D1*
X20999Y8923D1*
X20941Y8886D1*
X21014Y8838D1*
X21087Y8772D1*
X21147Y8695D1*
X21193Y8608D1*
X21223Y8514D1*
X21237Y8417D1*
X21236Y8337D1*
X21219Y8240D1*
X21186Y8147D1*
X21137Y8062D1*
X21074Y7986D1*
X21039Y7954D1*
X21238Y7955D1*
Y6817D1*
X20100D1*
Y7955D1*
X20150D1*
X14631Y7664D2*
X15482D1*
Y7478D1*
X15535Y7529D1*
X15615Y7586D1*
X15704Y7628D1*
X15773Y7649D1*
Y8549D1*
Y12475D1*
X15740Y12554D1*
X15728Y12602D1*
X15722Y12650D1*
X15720Y12699D1*
X15725Y12748D1*
X15734Y12797D1*
X15749Y12844D1*
X15769Y12889D1*
X15793Y12931D1*
X15822Y12971D1*
X15855Y13007D1*
X15892Y13040D1*
X15933Y13068D1*
X15976Y13092D1*
X16021Y13111D1*
X16068Y13124D1*
X16117Y13133D1*
X16166Y13136D1*
X16215Y13134D1*
X16289Y13119D1*
X16287Y13275D1*
Y13316D1*
X16255Y13380D1*
X16238Y13426D1*
X16227Y13474D1*
X16220Y13523D1*
X16219Y13572D1*
X16222Y13621D1*
X16230Y13665D1*
X15799Y13664D1*
X15210D1*
X14569Y13022D1*
X14568Y12342D1*
X14589Y12297D1*
X14604Y12251D1*
X14615Y12203D1*
X14620Y12131D1*
X14618Y12082D1*
X14610Y12034D1*
X14596Y11986D1*
X14568Y11923D1*
Y7725D1*
X14629Y7665D1*
X15482Y6721D2*
Y6534D1*
X14434D1*
X14481Y6458D1*
X14519Y6378D1*
X14550Y6295D1*
X14571Y6209D1*
X14584Y6122D1*
X14589Y6026D1*
X14583Y5938D1*
X14569Y5850D1*
X14546Y5765D1*
X14514Y5682D1*
X14475Y5603D1*
X14427Y5528D1*
X14373Y5459D1*
X14311Y5395D1*
X14244Y5337D1*
X14171Y5287D1*
X14093Y5245D1*
X14012Y5210D1*
X13927Y5184D1*
X13840Y5166D1*
X13752Y5157D1*
X13664D1*
X13576Y5166D1*
X13489Y5184D1*
X13404Y5210D1*
X13323Y5245D1*
X13245Y5288D1*
X13173Y5338D1*
X13105Y5396D1*
X13044Y5460D1*
X12989Y5529D1*
X12942Y5604D1*
X12902Y5683D1*
X12871Y5766D1*
X12848Y5852D1*
X12834Y5939D1*
X12829Y6028D1*
X12832Y6116D1*
X12845Y6204D1*
X12866Y6290D1*
X12896Y6373D1*
X12934Y6453D1*
X12980Y6529D1*
X13033Y6600D1*
X13093Y6665D1*
X13159Y6723D1*
X13231Y6775D1*
X13308Y6819D1*
X13389Y6856D1*
X13473Y6884D1*
X13559Y6903D1*
X13647Y6914D1*
X13735Y6916D1*
X13824Y6908D1*
X13911Y6892D1*
X13996Y6868D1*
X14078Y6835D1*
X14156Y6794D1*
X14230Y6745D1*
X14299Y6689D1*
X14352Y6636D1*
Y6815D1*
X13889Y7280D1*
X13857Y7317D1*
X13829Y7357D1*
X13806Y7401D1*
X13789Y7447D1*
X13778Y7495D1*
X13773Y7561D1*
Y11921D1*
X13740Y11999D1*
X13728Y12047D1*
X13722Y12096D1*
X13720Y12145D1*
X13725Y12194D1*
X13734Y12242D1*
X13749Y12289D1*
X13772Y12341D1*
X13773Y13186D1*
X13776Y13235D1*
X13785Y13283D1*
X13800Y13330D1*
X13820Y13375D1*
X13846Y13417D1*
X13889Y13467D1*
X14764Y14342D1*
X14801Y14375D1*
X14842Y14403D1*
X14885Y14425D1*
X14932Y14442D1*
X14979Y14453D1*
X15045Y14459D1*
X16231D1*
X16220Y14523D1*
X16219Y14572D1*
X16222Y14621D1*
X16231Y14669D1*
X16245Y14716D1*
X16264Y14762D1*
X16292Y14811D1*
X16255Y14880D1*
X16238Y14926D1*
X16227Y14974D1*
X16220Y15023D1*
X16219Y15072D1*
X16222Y15121D1*
X16231Y15169D1*
X16245Y15216D1*
X16264Y15262D1*
X16292Y15311D1*
X16255Y15380D1*
X16238Y15426D1*
X16227Y15474D1*
X16220Y15523D1*
X16219Y15572D1*
X16222Y15621D1*
X16231Y15669D1*
X16245Y15716D1*
X16264Y15762D1*
X16292Y15811D1*
X16255Y15880D1*
X16238Y15926D1*
X16227Y15974D1*
X16220Y16023D1*
X16219Y16072D1*
X16222Y16121D1*
X16231Y16169D1*
X16245Y16216D1*
X16264Y16262D1*
X16292Y16311D1*
X16255Y16380D1*
X16238Y16426D1*
X16227Y16474D1*
X16220Y16523D1*
X16219Y16572D1*
X16222Y16621D1*
X16231Y16669D1*
X16245Y16716D1*
X16264Y16762D1*
X16292Y16811D1*
X16255Y16880D1*
X16238Y16926D1*
X16227Y16974D1*
X16220Y17023D1*
X16219Y17072D1*
X16222Y17121D1*
X16231Y17169D1*
X16245Y17216D1*
X16264Y17262D1*
X16292Y17311D1*
X16255Y17380D1*
X16238Y17426D1*
X16227Y17474D1*
X16220Y17523D1*
X16219Y17572D1*
X16222Y17621D1*
X16231Y17669D1*
X16245Y17716D1*
X16264Y17762D1*
X16292Y17811D1*
X16255Y17880D1*
X16238Y17926D1*
X16227Y17974D1*
X16220Y18023D1*
X16219Y18072D1*
X16222Y18121D1*
X16231Y18169D1*
X16245Y18216D1*
X16264Y18262D1*
X16292Y18311D1*
X16255Y18380D1*
X16238Y18426D1*
X16227Y18474D1*
X16220Y18523D1*
X16219Y18572D1*
X16222Y18621D1*
X16231Y18669D1*
X16245Y18716D1*
X16264Y18762D1*
X16292Y18811D1*
X16255Y18880D1*
X16238Y18926D1*
X16222Y19012D1*
X9367D1*
X9362Y18971D1*
X9349Y18924D1*
X9331Y18878D1*
X9299Y18820D1*
X9339Y18740D1*
X9355Y18694D1*
X9366Y18646D1*
X9372Y18569D1*
X9369Y18520D1*
X9362Y18471D1*
X9349Y18424D1*
X9331Y18378D1*
X9299Y18320D1*
X9339Y18240D1*
X9355Y18194D1*
X9366Y18146D1*
X9372Y18069D1*
X9369Y18020D1*
X9362Y17971D1*
X9349Y17924D1*
X9331Y17878D1*
X9299Y17820D1*
X9339Y17740D1*
X9355Y17694D1*
X9366Y17646D1*
X9372Y17569D1*
X9369Y17520D1*
X9362Y17471D1*
X9349Y17424D1*
X9331Y17378D1*
X9299Y17320D1*
X9339Y17240D1*
X9355Y17194D1*
X9366Y17146D1*
X9372Y17069D1*
X9369Y17020D1*
X9362Y16971D1*
X9349Y16924D1*
X9331Y16878D1*
X9299Y16820D1*
X9339Y16740D1*
X9355Y16694D1*
X9366Y16646D1*
X9372Y16569D1*
X9369Y16520D1*
X9362Y16471D1*
X9349Y16424D1*
X9331Y16378D1*
X9299Y16320D1*
X9339Y16240D1*
X9355Y16194D1*
X9366Y16146D1*
X9372Y16069D1*
X9369Y16020D1*
X9362Y15971D1*
X9349Y15924D1*
X9331Y15878D1*
X9309Y15834D1*
X9282Y15793D1*
X9251Y15755D1*
X9216Y15720D1*
X9177Y15690D1*
X9136Y15663D1*
X9092Y15641D1*
X9046Y15624D1*
X8998Y15612D1*
X8949Y15605D1*
X8900Y15603D1*
X8851Y15606D1*
X8803Y15614D1*
X8755Y15627D1*
X8710Y15646D1*
X8655Y15676D1*
X8636Y15663D1*
X8573Y15634D1*
X8508Y15614D1*
X8440Y15604D1*
X8371D1*
X8303Y15614D1*
X8237Y15634D1*
X8175Y15664D1*
X8117Y15702D1*
X8067Y15748D1*
X8023Y15802D1*
X7988Y15861D1*
X7962Y15925D1*
X7945Y15992D1*
X7939Y16060D1*
X7943Y16129D1*
X7957Y16196D1*
X7980Y16261D1*
X8012Y16319D1*
X7976Y16388D1*
X7959Y16434D1*
X7947Y16482D1*
X7941Y16531D1*
X7939Y16580D1*
X7943Y16629D1*
X7952Y16677D1*
X7966Y16724D1*
X7984Y16770D1*
X8012Y16819D1*
X7976Y16888D1*
X7959Y16934D1*
X7947Y16982D1*
X7941Y17031D1*
X7939Y17080D1*
X7943Y17129D1*
X7952Y17177D1*
X7966Y17224D1*
X7984Y17270D1*
X8012Y17319D1*
X7976Y17388D1*
X7959Y17434D1*
X7947Y17482D1*
X7941Y17531D1*
X7939Y17580D1*
X7943Y17629D1*
X7952Y17677D1*
X7966Y17724D1*
X7984Y17770D1*
X8012Y17819D1*
X7976Y17888D1*
X7959Y17934D1*
X7947Y17982D1*
X7941Y18031D1*
X7939Y18080D1*
X7943Y18129D1*
X7952Y18177D1*
X7966Y18224D1*
X7984Y18270D1*
X8012Y18319D1*
X7976Y18388D1*
X7959Y18434D1*
X7947Y18482D1*
X7941Y18531D1*
X7939Y18580D1*
X7943Y18629D1*
X7952Y18677D1*
X7966Y18724D1*
X7984Y18770D1*
X8012Y18819D1*
X7976Y18888D1*
X7959Y18934D1*
X7943Y19011D1*
X7530Y19012D1*
X4183D1*
Y4360D1*
X21407D1*
Y19012D1*
X17647D1*
X17641Y18963D1*
X17628Y18916D1*
X17611Y18870D1*
X17579Y18812D1*
X17615Y18742D1*
X17637Y18676D1*
X17649Y18609D1*
X17651Y18541D1*
X17643Y18473D1*
X17625Y18407D1*
X17598Y18344D1*
X17579Y18311D1*
X17619Y18232D1*
X17635Y18186D1*
X17645Y18138D1*
X17652Y18061D1*
X17649Y18012D1*
X17641Y17963D1*
X17628Y17916D1*
X17611Y17870D1*
X17579Y17812D1*
X17619Y17732D1*
X17635Y17686D1*
X17645Y17638D1*
X17652Y17561D1*
X17649Y17512D1*
X17641Y17463D1*
X17628Y17416D1*
X17611Y17370D1*
X17579Y17312D1*
X17615Y17242D1*
X17637Y17176D1*
X17649Y17109D1*
X17651Y17041D1*
X17643Y16973D1*
X17625Y16907D1*
X17598Y16844D1*
X17579Y16811D1*
X17619Y16732D1*
X17635Y16686D1*
X17645Y16638D1*
X17652Y16561D1*
X17649Y16512D1*
X17641Y16463D1*
X17628Y16416D1*
X17611Y16370D1*
X17579Y16312D1*
X17619Y16232D1*
X17635Y16186D1*
X17645Y16138D1*
X17652Y16061D1*
X17649Y16012D1*
X17641Y15963D1*
X17628Y15916D1*
X17611Y15870D1*
X17579Y15812D1*
X17619Y15732D1*
X17635Y15686D1*
X17645Y15638D1*
X17652Y15561D1*
X17649Y15512D1*
X17641Y15463D1*
X17628Y15416D1*
X17611Y15370D1*
X17579Y15312D1*
X17619Y15232D1*
X17635Y15186D1*
X17645Y15138D1*
X17652Y15061D1*
X17649Y15012D1*
X17641Y14963D1*
X17628Y14916D1*
X17611Y14870D1*
X17579Y14812D1*
X17619Y14732D1*
X17635Y14686D1*
X17645Y14638D1*
X17652Y14561D1*
X17649Y14512D1*
X17641Y14463D1*
X17628Y14416D1*
X17611Y14370D1*
X17579Y14312D1*
X17615Y14242D1*
X17637Y14176D1*
X17649Y14109D1*
X17651Y14041D1*
X17643Y13973D1*
X17632Y13927D1*
Y13114D1*
X17083D1*
Y12586D1*
X17080Y12537D1*
X17071Y12488D1*
X17056Y12442D1*
X17035Y12397D1*
X17009Y12355D1*
X16966Y12305D1*
X16950Y12288D1*
Y7601D1*
X17009Y7565D1*
X17084Y7502D1*
X17148Y7428D1*
X17180Y7377D1*
X17220Y7436D1*
X17271Y7496D1*
X17330Y7548D1*
X17396Y7591D1*
X17467Y7625D1*
X17542Y7648D1*
X17619Y7661D1*
X17698Y7663D1*
X17776Y7655D1*
X17852Y7635D1*
X17925Y7605D1*
X17993Y7565D1*
X18054Y7516D1*
X18109Y7459D1*
X18154Y7395D1*
X18191Y7325D1*
X18217Y7251D1*
X18233Y7174D1*
X18238Y7099D1*
X18233Y7021D1*
X18216Y6944D1*
X18190Y6870D1*
X18153Y6800D1*
X18106Y6736D1*
X18052Y6680D1*
X17990Y6631D1*
X17922Y6592D1*
X17849Y6562D1*
X17773Y6543D1*
X17695Y6534D1*
X17616Y6537D1*
X17538Y6550D1*
X17463Y6574D1*
X17393Y6609D1*
X17327Y6652D1*
X17269Y6705D1*
X17218Y6765D1*
X17181Y6821D1*
X17122Y6736D1*
X17053Y6667D1*
X16972Y6610D1*
X16883Y6569D1*
X16788Y6543D1*
X16691Y6534D1*
X16593Y6542D1*
X16498Y6567D1*
X16408Y6609D1*
X16328Y6665D1*
X16295Y6695D1*
X16226Y6637D1*
X16141Y6587D1*
X16049Y6554D1*
X15952Y6536D1*
X15854D1*
X15757Y6553D1*
X15665Y6586D1*
X15579Y6635D1*
X15504Y6698D1*
X15482Y6722D1*
X19762Y6026D2*
X19756Y5938D1*
X19742Y5850D1*
X19719Y5765D1*
X19688Y5682D1*
X19648Y5603D1*
X19600Y5528D1*
X19546Y5459D1*
X19484Y5395D1*
X19417Y5337D1*
X19344Y5287D1*
X19266Y5245D1*
X19185Y5210D1*
X19100Y5184D1*
X19014Y5166D1*
X18925Y5157D1*
X18837D1*
X18749Y5166D1*
X18662Y5184D1*
X18578Y5210D1*
X18496Y5245D1*
X18419Y5288D1*
X18346Y5338D1*
X18278Y5396D1*
X18217Y5460D1*
X18162Y5529D1*
X18115Y5604D1*
X18076Y5683D1*
X18044Y5766D1*
X18021Y5852D1*
X18007Y5939D1*
X18002Y6028D1*
X18006Y6116D1*
X18018Y6204D1*
X18039Y6290D1*
X18069Y6373D1*
X18107Y6453D1*
X18153Y6529D1*
X18206Y6600D1*
X18266Y6665D1*
X18332Y6723D1*
X18404Y6775D1*
X18481Y6819D1*
X18562Y6856D1*
X18646Y6884D1*
X18732Y6903D1*
X18820Y6914D1*
X18909Y6916D1*
X18997Y6908D1*
X19084Y6892D1*
X19169Y6868D1*
X19251Y6835D1*
X19330Y6794D1*
X19403Y6745D1*
X19472Y6689D1*
X19535Y6626D1*
X19591Y6558D1*
X19639Y6484D1*
X19681Y6405D1*
X19714Y6323D1*
X19738Y6238D1*
X19754Y6151D1*
X19761Y6063D1*
X19762Y6026D1*
X4470Y5646D2*
X5630D1*
Y5473D1*
X5681Y5519D1*
X5763Y5573D1*
X5853Y5613D1*
X5948Y5638D1*
X6046Y5646D1*
X6144Y5637D1*
X6239Y5613D1*
X6329Y5572D1*
X6411Y5518D1*
X6482Y5450D1*
X6541Y5371D1*
X6545Y5365D1*
X6610Y5451D1*
X6681Y5519D1*
X6736Y5556D1*
Y7965D1*
Y10061D1*
X6740Y10110D1*
X6752Y10158D1*
X6771Y10203D1*
X6797Y10245D1*
X6827Y10280D1*
X9096Y12549D1*
X9100Y12623D1*
X9109Y12672D1*
X9124Y12719D1*
X9144Y12764D1*
X9168Y12806D1*
X9197Y12846D1*
X9230Y12882D1*
X9267Y12915D1*
X9308Y12943D1*
X9351Y12967D1*
X9396Y12986D1*
X9443Y12999D1*
X9492Y13008D1*
X9541Y13011D1*
X9590Y13009D1*
X9639Y13001D1*
X9686Y12988D1*
X9732Y12971D1*
X9775Y12948D1*
X9816Y12920D1*
X9854Y12889D1*
X9888Y12853D1*
X9918Y12814D1*
X9943Y12772D1*
X9964Y12727D1*
X9979Y12680D1*
X9990Y12632D1*
X9995Y12561D1*
X9993Y12512D1*
X9985Y12463D1*
X9971Y12416D1*
X9953Y12370D1*
X9930Y12327D1*
X9902Y12286D1*
X9870Y12249D1*
X9834Y12216D1*
X9794Y12186D1*
X9752Y12161D1*
X9707Y12141D1*
X9660Y12126D1*
X9612Y12116D1*
X9534Y12112D1*
X7355Y9934D1*
X7354Y8831D1*
Y5557D1*
X7411Y5518D1*
X7482Y5450D1*
X7541Y5371D1*
X7545Y5365D1*
X7610Y5451D1*
X7681Y5519D1*
X7763Y5573D1*
X7853Y5613D1*
X7948Y5638D1*
X8046Y5646D1*
X8144Y5637D1*
X8239Y5613D1*
X8329Y5572D1*
X8411Y5518D1*
X8482Y5450D1*
X8541Y5371D1*
X8545Y5365D1*
X8610Y5451D1*
X8681Y5519D1*
X8763Y5573D1*
X8853Y5613D1*
X8948Y5638D1*
X9046Y5646D1*
X9144Y5637D1*
X9239Y5613D1*
X9329Y5572D1*
X9411Y5518D1*
X9482Y5450D1*
X9541Y5371D1*
X9545Y5365D1*
X9610Y5451D1*
X9681Y5519D1*
X9763Y5573D1*
X9853Y5613D1*
X9948Y5638D1*
X10046Y5646D1*
X10144Y5637D1*
X10239Y5613D1*
X10329Y5572D1*
X10411Y5518D1*
X10482Y5450D1*
X10541Y5371D1*
X10545Y5365D1*
X10610Y5451D1*
X10681Y5519D1*
X10763Y5573D1*
X10853Y5613D1*
X10948Y5638D1*
X11046Y5646D1*
X11144Y5637D1*
X11239Y5613D1*
X11329Y5572D1*
X11411Y5518D1*
X11482Y5450D1*
X11541Y5371D1*
X11586Y5284D1*
X11615Y5190D1*
X11629Y5093D1*
X11628Y5012D1*
X11611Y4915D1*
X11579Y4822D1*
X11531Y4736D1*
X11470Y4659D1*
X11397Y4594D1*
X11313Y4542D1*
X11223Y4504D1*
X11127Y4482D1*
X11029Y4477D1*
X10931Y4488D1*
X10836Y4515D1*
X10748Y4558D1*
X10668Y4615D1*
X10598Y4684D1*
X10546Y4758D1*
X10502Y4696D1*
X10435Y4625D1*
X10356Y4566D1*
X10269Y4521D1*
X10175Y4491D1*
X10078Y4477D1*
X9980Y4480D1*
X9883Y4499D1*
X9791Y4534D1*
X9707Y4584D1*
X9632Y4648D1*
X9568Y4723D1*
X9546Y4758D1*
X9502Y4696D1*
X9435Y4625D1*
X9356Y4566D1*
X9269Y4521D1*
X9175Y4491D1*
X9078Y4477D1*
X8980Y4480D1*
X8883Y4499D1*
X8791Y4534D1*
X8707Y4584D1*
X8632Y4648D1*
X8568Y4723D1*
X8546Y4758D1*
X8502Y4696D1*
X8435Y4625D1*
X8356Y4566D1*
X8269Y4521D1*
X8175Y4491D1*
X8078Y4477D1*
X7980Y4480D1*
X7883Y4499D1*
X7791Y4534D1*
X7707Y4584D1*
X7632Y4648D1*
X7568Y4723D1*
X7546Y4758D1*
X7502Y4696D1*
X7435Y4625D1*
X7356Y4566D1*
X7269Y4521D1*
X7175Y4491D1*
X7078Y4477D1*
X6980Y4480D1*
X6883Y4499D1*
X6791Y4534D1*
X6707Y4584D1*
X6632Y4648D1*
X6568Y4723D1*
X6546Y4758D1*
X6502Y4696D1*
X6435Y4625D1*
X6356Y4566D1*
X6269Y4521D1*
X6175Y4491D1*
X6078Y4477D1*
X5980Y4480D1*
X5883Y4499D1*
X5791Y4534D1*
X5707Y4584D1*
X5631Y4649D1*
X5630Y4476D1*
X4461D1*
Y5646D1*
X4470D1*
X9808Y10261D2*
X11096Y11549D1*
X11100Y11623D1*
X11109Y11672D1*
X11124Y11719D1*
X11144Y11764D1*
X11168Y11806D1*
X11197Y11846D1*
X11230Y11882D1*
X11267Y11915D1*
X11308Y11943D1*
X11351Y11967D1*
X11396Y11986D1*
X11443Y11999D1*
X11492Y12008D1*
X11541Y12011D1*
X11590Y12009D1*
X11639Y12001D1*
X11686Y11988D1*
X11732Y11971D1*
X11775Y11948D1*
X11816Y11920D1*
X11854Y11889D1*
X11888Y11853D1*
X11918Y11814D1*
X11953Y11751D1*
X11992Y11758D1*
X12041Y11761D1*
X12090Y11759D1*
X12139Y11751D1*
X12186Y11738D1*
X12232Y11721D1*
X12275Y11698D1*
X12316Y11670D1*
X12354Y11639D1*
X12388Y11603D1*
X12418Y11564D1*
X12443Y11522D1*
X12464Y11477D1*
X12479Y11430D1*
X12490Y11382D1*
X12495Y11311D1*
X12493Y11262D1*
X12485Y11213D1*
X12471Y11166D1*
X12453Y11120D1*
X12430Y11077D1*
X12402Y11036D1*
X12370Y10999D1*
X12334Y10966D1*
X12294Y10936D1*
X12252Y10911D1*
X12207Y10891D1*
X12160Y10876D1*
X12112Y10866D1*
X12065Y10862D1*
X12107Y10846D1*
X12150Y10823D1*
X12191Y10795D1*
X12229Y10764D1*
X12263Y10728D1*
X12293Y10689D1*
X12318Y10647D1*
X12339Y10602D1*
X12354Y10555D1*
X12365Y10507D1*
X12370Y10436D1*
X12368Y10387D1*
X12360Y10338D1*
X12346Y10291D1*
X12328Y10245D1*
X12305Y10202D1*
X12277Y10161D1*
X12245Y10124D1*
X12209Y10091D1*
X12169Y10061D1*
X12127Y10036D1*
X12082Y10016D1*
X12035Y10001D1*
X11987Y9991D1*
X11909Y9987D1*
X10996Y9075D1*
X10993Y9012D1*
X10985Y8963D1*
X10971Y8916D1*
X10953Y8870D1*
X10930Y8827D1*
X10902Y8786D1*
X10870Y8749D1*
X10834Y8716D1*
X10794Y8686D1*
X10752Y8661D1*
X10707Y8641D1*
X10660Y8626D1*
X10612Y8616D1*
X10563Y8611D1*
X10514Y8612D1*
X10465Y8618D1*
X10417Y8630D1*
X10371Y8646D1*
X10327Y8668D1*
X10285Y8694D1*
X10247Y8724D1*
X10212Y8759D1*
X10181Y8797D1*
X10138Y8870D1*
X10063Y8861D1*
X10014Y8862D1*
X9965Y8868D1*
X9917Y8880D1*
X9871Y8896D1*
X9827Y8918D1*
X9785Y8944D1*
X9747Y8974D1*
X9712Y9009D1*
X9681Y9047D1*
X9654Y9089D1*
X9632Y9133D1*
X9615Y9179D1*
X9603Y9227D1*
X9597Y9275D1*
X9595Y9324D1*
X9605Y9402D1*
X9535Y9444D1*
X9497Y9474D1*
X9462Y9509D1*
X9431Y9547D1*
X9404Y9589D1*
X9382Y9633D1*
X9365Y9679D1*
X9353Y9727D1*
X9347Y9775D1*
X9345Y9824D1*
X9350Y9873D1*
X9359Y9922D1*
X9374Y9969D1*
X9394Y10014D1*
X9418Y10056D1*
X9447Y10096D1*
X9480Y10132D1*
X9517Y10165D1*
X9558Y10193D1*
X9601Y10217D1*
X9646Y10236D1*
X9693Y10249D1*
X9742Y10258D1*
X9808Y10260D1*
X20101Y14386D2*
D14*
X21238D1*
X20101Y15386D2*
X21238D1*
X17673Y7664D2*
Y6534D1*
Y7099D2*
X18238D1*
X13709Y6916D2*
Y5156D1*
X12829Y6036D2*
X14588D1*
X18882Y6916D2*
Y5156D1*
X18002Y6036D2*
X19762D1*
X5045Y5645D2*
Y4477D1*
X4461Y5061D2*
X5045D1*
X17185Y14061D2*
X17651D1*
X17185Y17061D2*
X17651D1*
X17185Y18561D2*
X17651D1*
X8406Y16069D2*
Y15603D1*
X7939Y16069D2*
X8406D1*
D19*
X4921Y7386D3*
D20*
Y8386D3*
Y9386D3*
Y10386D3*
Y11386D3*
Y12386D3*
Y13386D3*
Y14386D3*
Y15386D3*
Y16386D3*
Y17386D3*
Y18386D3*
D19*
X20669Y7386D3*
D20*
Y8386D3*
Y9386D3*
Y10386D3*
Y11386D3*
Y12386D3*
Y13386D3*
Y14386D3*
Y15386D3*
Y16386D3*
Y17386D3*
Y18386D3*
D21*
X14917Y7099D3*
D22*
X15902D3*
X16689D3*
X17673D3*
D23*
X13709Y6036D3*
X18882D3*
D24*
X5045Y5061D3*
D25*
X6045D3*
X7045D3*
X8045D3*
X9045D3*
X10045D3*
X11045D3*
D26*
X17185Y13561D3*
D27*
Y14061D3*
Y14561D3*
Y15061D3*
Y15561D3*
Y16061D3*
Y16561D3*
Y17061D3*
Y17561D3*
Y18061D3*
Y18561D3*
Y19061D3*
Y19561D3*
Y20061D3*
Y20561D3*
X16685Y13561D3*
Y14061D3*
Y14561D3*
Y15061D3*
Y15561D3*
Y16061D3*
Y16561D3*
Y17061D3*
Y17561D3*
Y18061D3*
Y18561D3*
Y19061D3*
Y19561D3*
Y20061D3*
Y20561D3*
X8906Y16069D3*
Y16569D3*
Y17069D3*
Y17569D3*
Y18069D3*
Y18569D3*
Y19069D3*
Y19569D3*
Y20069D3*
Y20569D3*
X8406Y16069D3*
Y16569D3*
Y17069D3*
Y17569D3*
Y18069D3*
Y18569D3*
Y19069D3*
Y19569D3*
Y20069D3*
D26*
Y20569D3*
M02*
