M48
INCH
T01C0.0191
T02C0.0197
T03C0.0256
T04C0.0354
T05C0.0402
T06C0.0433
T07C0.0906
%
T01
X+008545Y+010311
X+008545Y+009061
X+009795Y+009811
X+010045Y+009311
X+010545Y+009061
X+011045Y+008061
X+011045Y+007061
X+011920Y+010436
X+012045Y+011311
X+011545Y+011561
X+013295Y+011811
X+014170Y+012131
X+015170Y+011422
X+015170Y+010811
X+013295Y+010811
X+015170Y+008811
X+017295Y+008811
X+017295Y+010811
X+017295Y+011422
X+016170Y+012686
X+011295Y+013311
X+010295Y+013311
X+009545Y+012561
X+008670Y+014186
X+010295Y+015811
X+011295Y+015811
T02
X+008406Y+020569
T03
X+017185Y+013561
X+017185Y+014061
X+017185Y+014561
X+017185Y+015061
X+017185Y+015561
X+017185Y+016061
X+017185Y+016561
X+017185Y+017061
X+017185Y+017561
X+017185Y+018061
X+017185Y+018561
X+017185Y+019061
X+017185Y+019561
X+017185Y+020061
X+017185Y+020561
X+016685Y+020561
X+016685Y+020061
X+016685Y+019561
X+016685Y+019061
X+016685Y+018561
X+016685Y+018061
X+016685Y+017561
X+016685Y+017061
X+016685Y+016561
X+016685Y+016061
X+016685Y+015561
X+016685Y+015061
X+016685Y+014561
X+016685Y+014061
X+016685Y+013561
X+008906Y+016069
X+008906Y+016569
X+008906Y+017069
X+008906Y+017569
X+008906Y+018069
X+008906Y+018569
X+008906Y+019069
X+008906Y+019569
X+008906Y+020069
X+008906Y+020569
X+008406Y+020069
X+008406Y+019569
X+008406Y+019069
X+008406Y+018569
X+008406Y+018069
X+008406Y+017569
X+008406Y+017069
X+008406Y+016569
X+008406Y+016069
T04
X+014917Y+007099
X+015902Y+007099
X+016689Y+007099
X+017673Y+007099
T05
X+004921Y+007386
X+004921Y+008386
X+004921Y+009386
X+004921Y+010386
X+004921Y+011386
X+004921Y+012386
X+004921Y+013386
X+004921Y+014386
X+004921Y+015386
X+004921Y+016386
X+004921Y+017386
X+004921Y+018386
X+020669Y+018386
X+020669Y+017386
X+020669Y+016386
X+020669Y+015386
X+020669Y+014386
X+020669Y+013386
X+020669Y+012386
X+020669Y+011386
X+020669Y+010386
X+020669Y+009386
X+020669Y+008386
X+020669Y+007386
T06
X+005045Y+005061
X+006045Y+005061
X+007045Y+005061
X+008045Y+005061
X+009045Y+005061
X+010045Y+005061
X+011045Y+005061
T07
X+013709Y+006036
X+018882Y+006036
T00
M30
