G04 DipTrace 2.4.0.2*
%INTop.gbr*%
%MOIN*%
%ADD13C,0.0118*%
%ADD14C,0.0197*%
%ADD15C,0.0295*%
%ADD16C,0.0098*%
%ADD18R,0.0787X0.0472*%
%ADD19R,0.0638X0.0638*%
%ADD20C,0.0638*%
%ADD21R,0.063X0.063*%
%ADD22C,0.063*%
%ADD23C,0.126*%
%ADD24R,0.0669X0.0669*%
%ADD25C,0.0669*%
%ADD26R,0.0394X0.0394*%
%ADD27C,0.0433*%
%ADD28C,0.04*%
%FSLAX44Y44*%
G04*
G70*
G90*
G75*
G01*
%LNTop*%
%LPD*%
X8406Y20069D2*
D13*
X7303D1*
X6045Y18811D1*
Y5061D1*
X8906Y20069D2*
X9287D1*
X9545Y19811D1*
Y12561D1*
X8406Y19569D2*
X7178D1*
X6295Y18686D1*
Y7436D1*
X8045Y5686D1*
Y5061D1*
X16685Y15061D2*
X15045D1*
X11545Y11561D1*
X9795Y9811D2*
X9045Y9061D1*
Y5061D1*
X16685Y14561D2*
X14920D1*
X12045Y11686D1*
Y11311D1*
X10045Y9311D2*
X9420Y8686D1*
Y5811D1*
X10045Y5186D1*
Y5061D1*
X16685Y15561D2*
X14920D1*
X11045Y11686D1*
Y11311D1*
X11920Y10436D1*
X10545Y9061D2*
X9795Y8311D1*
Y6061D1*
X10795Y5061D1*
X11045D1*
X8406Y16569D2*
D14*
X8115D1*
X7920Y16374D1*
Y13187D1*
X11233Y9873D1*
X21042D1*
X21273Y9643D1*
Y8563D1*
X21095Y8386D1*
X20669D1*
X8406Y17069D2*
X8115D1*
X7545Y16499D1*
Y13062D1*
X11046Y9561D1*
X19921D1*
X20096Y9386D1*
X20669D1*
X14917Y7099D2*
D15*
Y7439D1*
X13545Y8811D1*
X20669Y17386D2*
X19425D1*
X18737Y16698D1*
Y13186D1*
X17682Y12131D1*
X14170D1*
X17185Y13561D2*
Y13187D1*
X16934Y12936D1*
X16420D1*
X16170Y12686D1*
D28*
X9545Y12561D3*
X11545Y11561D3*
X9795Y9811D3*
X12045Y11311D3*
X10045Y9311D3*
X11920Y10436D3*
X10545Y9061D3*
X14170Y12131D3*
X16170Y12686D3*
X8545Y10311D3*
Y9061D3*
X15170Y8811D3*
X11295Y15811D3*
X15170Y11422D3*
X10295Y13311D3*
Y15811D3*
X11295Y13311D3*
X17295Y11422D3*
Y10811D3*
Y8811D3*
X15170Y10811D3*
X13295Y11811D3*
Y10811D3*
X8670Y14186D3*
X11045Y8061D3*
Y7061D3*
X4193Y18915D2*
D16*
X4701D1*
X5141D2*
X5744D1*
X6971D2*
X7956D1*
X9864D2*
X16233D1*
X17638D2*
X20450D1*
X20889D2*
X21398D1*
X4193Y18818D2*
X4542D1*
X5301D2*
X5727D1*
X6874D2*
X8000D1*
X9864D2*
X16277D1*
X17593D2*
X20290D1*
X21049D2*
X21398D1*
X4193Y18720D2*
X4451D1*
X5392D2*
X5727D1*
X6776D2*
X7954D1*
X9864D2*
X16237D1*
X17633D2*
X20199D1*
X21140D2*
X21398D1*
X4193Y18623D2*
X4394D1*
X5449D2*
X5727D1*
X6679D2*
X7933D1*
X9864D2*
X16213D1*
X17656D2*
X20142D1*
X21197D2*
X21398D1*
X4193Y18526D2*
X4360D1*
X5482D2*
X5727D1*
X6614D2*
X7931D1*
X9864D2*
X16210D1*
X17659D2*
X20108D1*
X21230D2*
X21398D1*
X4193Y18429D2*
X4345D1*
X5498D2*
X5727D1*
X6614D2*
X7951D1*
X9864D2*
X16228D1*
X17643D2*
X20093D1*
X21246D2*
X21398D1*
X4193Y18332D2*
X4345D1*
X5498D2*
X5727D1*
X6614D2*
X7994D1*
X9864D2*
X16270D1*
X17601D2*
X20093D1*
X21246D2*
X21398D1*
X4193Y18235D2*
X4363D1*
X5479D2*
X5727D1*
X6614D2*
X7960D1*
X9864D2*
X16242D1*
X17627D2*
X20111D1*
X21227D2*
X21398D1*
X4193Y18138D2*
X4400D1*
X5442D2*
X5727D1*
X6614D2*
X7934D1*
X9864D2*
X16216D1*
X17655D2*
X20148D1*
X21190D2*
X21398D1*
X4193Y18041D2*
X4460D1*
X5382D2*
X5727D1*
X6614D2*
X7930D1*
X9864D2*
X16210D1*
X17661D2*
X20208D1*
X21131D2*
X21398D1*
X4193Y17944D2*
X4554D1*
X5289D2*
X5727D1*
X6614D2*
X7946D1*
X9864D2*
X16223D1*
X17646D2*
X20302D1*
X21037D2*
X21398D1*
X4193Y17846D2*
X4578D1*
X5264D2*
X5727D1*
X6614D2*
X7986D1*
X9864D2*
X16262D1*
X17609D2*
X20326D1*
X21012D2*
X21398D1*
X4193Y17749D2*
X4474D1*
X5369D2*
X5727D1*
X6614D2*
X7965D1*
X9864D2*
X16248D1*
X17621D2*
X19255D1*
X21117D2*
X21398D1*
X4193Y17652D2*
X4409D1*
X5433D2*
X5727D1*
X6614D2*
X7937D1*
X9864D2*
X16217D1*
X17652D2*
X19119D1*
X21181D2*
X21398D1*
X4193Y17555D2*
X4368D1*
X5475D2*
X5727D1*
X6614D2*
X7930D1*
X9864D2*
X16210D1*
X17661D2*
X19022D1*
X21223D2*
X21398D1*
X4193Y17458D2*
X4348D1*
X5495D2*
X5727D1*
X6614D2*
X7943D1*
X9864D2*
X16220D1*
X17650D2*
X18925D1*
X21243D2*
X21398D1*
X4193Y17361D2*
X4343D1*
X5499D2*
X5727D1*
X6614D2*
X7914D1*
X9864D2*
X16254D1*
X17616D2*
X18829D1*
X21247D2*
X21398D1*
X4193Y17264D2*
X4355D1*
X5487D2*
X5727D1*
X6614D2*
X7806D1*
X9864D2*
X16256D1*
X17615D2*
X18732D1*
X21235D2*
X21398D1*
X4193Y17167D2*
X4386D1*
X5456D2*
X5727D1*
X6614D2*
X7710D1*
X9864D2*
X16220D1*
X17649D2*
X18635D1*
X21204D2*
X21398D1*
X4193Y17070D2*
X4439D1*
X5404D2*
X5727D1*
X6614D2*
X7613D1*
X9864D2*
X16210D1*
X17661D2*
X18536D1*
X21152D2*
X21398D1*
X4193Y16972D2*
X4520D1*
X5322D2*
X5727D1*
X6614D2*
X7516D1*
X9864D2*
X16217D1*
X17653D2*
X18440D1*
X19583D2*
X20268D1*
X21071D2*
X21398D1*
X4193Y16875D2*
X4622D1*
X5221D2*
X5727D1*
X6614D2*
X7419D1*
X9864D2*
X16248D1*
X17623D2*
X18372D1*
X19486D2*
X20370D1*
X20969D2*
X21398D1*
X4193Y16778D2*
X4500D1*
X5342D2*
X5727D1*
X6614D2*
X7322D1*
X9864D2*
X16262D1*
X17607D2*
X18338D1*
X19390D2*
X20248D1*
X21091D2*
X21398D1*
X4193Y16681D2*
X4425D1*
X5418D2*
X5727D1*
X6614D2*
X7237D1*
X9864D2*
X16225D1*
X17646D2*
X18330D1*
X19293D2*
X20173D1*
X21166D2*
X21398D1*
X4193Y16584D2*
X4379D1*
X5464D2*
X5727D1*
X6614D2*
X7197D1*
X9864D2*
X16210D1*
X17661D2*
X18330D1*
X19196D2*
X20127D1*
X21212D2*
X21398D1*
X4193Y16487D2*
X4352D1*
X5490D2*
X5727D1*
X6614D2*
X7187D1*
X9864D2*
X16214D1*
X17655D2*
X18330D1*
X19145D2*
X20100D1*
X21238D2*
X21398D1*
X4193Y16390D2*
X4343D1*
X5499D2*
X5727D1*
X6614D2*
X7187D1*
X9864D2*
X16242D1*
X17629D2*
X18330D1*
X19145D2*
X20091D1*
X21247D2*
X21398D1*
X4193Y16293D2*
X4351D1*
X5492D2*
X5727D1*
X6614D2*
X7187D1*
X9864D2*
X16271D1*
X17600D2*
X18330D1*
X19145D2*
X20099D1*
X21240D2*
X21398D1*
X4193Y16196D2*
X4375D1*
X5467D2*
X5727D1*
X6614D2*
X7187D1*
X9864D2*
X16228D1*
X17641D2*
X18330D1*
X19145D2*
X20123D1*
X21215D2*
X21398D1*
X4193Y16098D2*
X4420D1*
X5422D2*
X5727D1*
X6614D2*
X7187D1*
X9864D2*
X16210D1*
X17659D2*
X18330D1*
X19145D2*
X20168D1*
X21170D2*
X21398D1*
X4193Y16001D2*
X4492D1*
X5350D2*
X5727D1*
X6614D2*
X7187D1*
X9864D2*
X16213D1*
X17658D2*
X18330D1*
X19145D2*
X20240D1*
X21098D2*
X21398D1*
X4193Y15904D2*
X4609D1*
X5233D2*
X5727D1*
X6614D2*
X7187D1*
X9864D2*
X16236D1*
X17633D2*
X18330D1*
X19145D2*
X20357D1*
X20981D2*
X21398D1*
X4193Y15807D2*
X4529D1*
X5313D2*
X5727D1*
X6614D2*
X7187D1*
X9864D2*
X14724D1*
X17592D2*
X18330D1*
X19145D2*
X20277D1*
X21061D2*
X21398D1*
X4193Y15710D2*
X4445D1*
X5398D2*
X5727D1*
X6614D2*
X7187D1*
X9864D2*
X14622D1*
X17636D2*
X18330D1*
X19145D2*
X20193D1*
X21146D2*
X21398D1*
X4193Y15613D2*
X4389D1*
X5453D2*
X5727D1*
X6614D2*
X7187D1*
X8512D2*
X8798D1*
X9012D2*
X9226D1*
X9864D2*
X14526D1*
X17658D2*
X18330D1*
X19145D2*
X20137D1*
X21201D2*
X21398D1*
X4193Y15516D2*
X4357D1*
X5486D2*
X5727D1*
X6614D2*
X7187D1*
X8278D2*
X9226D1*
X9864D2*
X14429D1*
X17659D2*
X18330D1*
X19145D2*
X20105D1*
X21234D2*
X21398D1*
X4193Y15419D2*
X4343D1*
X5499D2*
X5727D1*
X6614D2*
X7187D1*
X8278D2*
X9226D1*
X9864D2*
X14332D1*
X17639D2*
X18330D1*
X19145D2*
X20091D1*
X21247D2*
X21398D1*
X4193Y15322D2*
X4346D1*
X5496D2*
X5727D1*
X6614D2*
X7187D1*
X8278D2*
X9226D1*
X9864D2*
X14233D1*
X17595D2*
X18330D1*
X19145D2*
X20094D1*
X21244D2*
X21398D1*
X4193Y15224D2*
X4366D1*
X5476D2*
X5727D1*
X6614D2*
X7187D1*
X8278D2*
X9226D1*
X9864D2*
X14136D1*
X17632D2*
X18330D1*
X19145D2*
X20114D1*
X21224D2*
X21398D1*
X4193Y15127D2*
X4405D1*
X5438D2*
X5727D1*
X6614D2*
X7187D1*
X8278D2*
X9226D1*
X9864D2*
X14040D1*
X17656D2*
X18330D1*
X19145D2*
X20153D1*
X21186D2*
X21398D1*
X4193Y15030D2*
X4468D1*
X5375D2*
X5727D1*
X6614D2*
X7187D1*
X8278D2*
X9226D1*
X9864D2*
X13943D1*
X17661D2*
X18330D1*
X19145D2*
X20216D1*
X21123D2*
X21398D1*
X4193Y14933D2*
X4568D1*
X5275D2*
X5727D1*
X6614D2*
X7187D1*
X8278D2*
X9226D1*
X9864D2*
X13846D1*
X17644D2*
X18330D1*
X19145D2*
X20316D1*
X21023D2*
X21398D1*
X4193Y14836D2*
X4563D1*
X5279D2*
X5727D1*
X6614D2*
X7187D1*
X8278D2*
X9226D1*
X9864D2*
X13749D1*
X17603D2*
X18330D1*
X19145D2*
X20311D1*
X21027D2*
X21398D1*
X4193Y14739D2*
X4466D1*
X5376D2*
X5727D1*
X6614D2*
X7187D1*
X8278D2*
X9226D1*
X9864D2*
X13652D1*
X17626D2*
X18330D1*
X19145D2*
X20214D1*
X21124D2*
X21398D1*
X4193Y14642D2*
X4403D1*
X5439D2*
X5727D1*
X6614D2*
X7187D1*
X8278D2*
X9226D1*
X9864D2*
X13554D1*
X17655D2*
X18330D1*
X19145D2*
X20151D1*
X21187D2*
X21398D1*
X4193Y14545D2*
X4365D1*
X5478D2*
X5727D1*
X6614D2*
X7187D1*
X8278D2*
X9226D1*
X9864D2*
X13457D1*
X17661D2*
X18330D1*
X19145D2*
X20113D1*
X21226D2*
X21398D1*
X4193Y14448D2*
X4346D1*
X5496D2*
X5727D1*
X6614D2*
X7187D1*
X8278D2*
X9226D1*
X9864D2*
X13360D1*
X17647D2*
X18330D1*
X19145D2*
X20094D1*
X21244D2*
X21398D1*
X4193Y14350D2*
X4343D1*
X5499D2*
X5727D1*
X6614D2*
X7187D1*
X8278D2*
X9226D1*
X9864D2*
X13263D1*
X17610D2*
X18330D1*
X19145D2*
X20091D1*
X21247D2*
X21398D1*
X4193Y14253D2*
X4359D1*
X5484D2*
X5727D1*
X6614D2*
X7187D1*
X8278D2*
X9226D1*
X9864D2*
X13166D1*
X17619D2*
X18330D1*
X19145D2*
X20107D1*
X21232D2*
X21398D1*
X4193Y14156D2*
X4391D1*
X5452D2*
X5727D1*
X6614D2*
X7187D1*
X8278D2*
X9226D1*
X9864D2*
X13069D1*
X14962D2*
X16219D1*
X17652D2*
X18330D1*
X19145D2*
X20139D1*
X21200D2*
X21398D1*
X4193Y14059D2*
X4446D1*
X5396D2*
X5727D1*
X6614D2*
X7187D1*
X8278D2*
X9226D1*
X9864D2*
X12972D1*
X14865D2*
X16210D1*
X17661D2*
X18330D1*
X19145D2*
X20194D1*
X21144D2*
X21398D1*
X4193Y13962D2*
X4532D1*
X5310D2*
X5727D1*
X6614D2*
X7187D1*
X8278D2*
X9226D1*
X9864D2*
X12874D1*
X14768D2*
X16219D1*
X17650D2*
X18330D1*
X19145D2*
X20280D1*
X21058D2*
X21398D1*
X4193Y13865D2*
X4605D1*
X5238D2*
X5727D1*
X6614D2*
X7187D1*
X8278D2*
X9226D1*
X9864D2*
X12777D1*
X14671D2*
X16253D1*
X17641D2*
X18330D1*
X19145D2*
X20353D1*
X20986D2*
X21398D1*
X4193Y13768D2*
X4489D1*
X5353D2*
X5727D1*
X6614D2*
X7187D1*
X8278D2*
X9226D1*
X9864D2*
X12680D1*
X14573D2*
X16257D1*
X17641D2*
X18330D1*
X19145D2*
X20237D1*
X21101D2*
X21398D1*
X4193Y13671D2*
X4419D1*
X5424D2*
X5727D1*
X6614D2*
X7187D1*
X8278D2*
X9226D1*
X9864D2*
X12583D1*
X14476D2*
X16222D1*
X17641D2*
X18330D1*
X19145D2*
X20167D1*
X21172D2*
X21398D1*
X4193Y13573D2*
X4374D1*
X5469D2*
X5727D1*
X6614D2*
X7187D1*
X8278D2*
X9226D1*
X9864D2*
X12486D1*
X14379D2*
X16210D1*
X17641D2*
X18330D1*
X19145D2*
X20122D1*
X21217D2*
X21398D1*
X4193Y13476D2*
X4349D1*
X5493D2*
X5727D1*
X6614D2*
X7187D1*
X8278D2*
X9226D1*
X9864D2*
X12389D1*
X14282D2*
X16217D1*
X17641D2*
X18330D1*
X19145D2*
X20097D1*
X21241D2*
X21398D1*
X4193Y13379D2*
X4343D1*
X5499D2*
X5727D1*
X6614D2*
X7187D1*
X8278D2*
X9226D1*
X9864D2*
X12293D1*
X14185D2*
X16246D1*
X17641D2*
X18330D1*
X19145D2*
X20091D1*
X21247D2*
X21398D1*
X4193Y13282D2*
X4352D1*
X5490D2*
X5727D1*
X6614D2*
X7187D1*
X8326D2*
X9226D1*
X9864D2*
X12194D1*
X14088D2*
X16216D1*
X17641D2*
X18261D1*
X19145D2*
X20100D1*
X21238D2*
X21398D1*
X4193Y13185D2*
X4379D1*
X5464D2*
X5727D1*
X6614D2*
X7187D1*
X8424D2*
X9226D1*
X9864D2*
X12097D1*
X13992D2*
X16097D1*
X17641D2*
X18164D1*
X19145D2*
X20127D1*
X21212D2*
X21398D1*
X4193Y13088D2*
X4426D1*
X5416D2*
X5727D1*
X6614D2*
X7187D1*
X8521D2*
X9226D1*
X9864D2*
X12000D1*
X13893D2*
X15959D1*
X17580D2*
X18067D1*
X19133D2*
X20174D1*
X21164D2*
X21398D1*
X4193Y12991D2*
X4502D1*
X5341D2*
X5727D1*
X6614D2*
X7194D1*
X8618D2*
X9226D1*
X9864D2*
X11903D1*
X13796D2*
X15830D1*
X17541D2*
X17969D1*
X19093D2*
X20250D1*
X21089D2*
X21398D1*
X4193Y12894D2*
X4626D1*
X5216D2*
X5727D1*
X6614D2*
X7230D1*
X8715D2*
X9226D1*
X9864D2*
X11807D1*
X13699D2*
X15762D1*
X17464D2*
X17872D1*
X19016D2*
X20374D1*
X20964D2*
X21398D1*
X4193Y12797D2*
X4518D1*
X5324D2*
X5727D1*
X6614D2*
X7307D1*
X8812D2*
X9152D1*
X9938D2*
X11710D1*
X13603D2*
X15725D1*
X17367D2*
X17775D1*
X18919D2*
X20267D1*
X21072D2*
X21398D1*
X4193Y12699D2*
X4437D1*
X5406D2*
X5727D1*
X6614D2*
X7405D1*
X8909D2*
X9108D1*
X9984D2*
X11611D1*
X13506D2*
X15711D1*
X17269D2*
X17678D1*
X18822D2*
X20185D1*
X21154D2*
X21398D1*
X4193Y12602D2*
X4386D1*
X5456D2*
X5727D1*
X6614D2*
X7502D1*
X9006D2*
X9088D1*
X10004D2*
X11514D1*
X13409D2*
X15719D1*
X17160D2*
X17581D1*
X18725D2*
X20134D1*
X21204D2*
X21398D1*
X4193Y12505D2*
X4355D1*
X5487D2*
X5727D1*
X6614D2*
X7599D1*
X10001D2*
X11417D1*
X13312D2*
X13910D1*
X18628D2*
X20104D1*
X21235D2*
X21398D1*
X4193Y12408D2*
X4343D1*
X5499D2*
X5727D1*
X6614D2*
X7696D1*
X9978D2*
X11321D1*
X13213D2*
X13806D1*
X18531D2*
X20091D1*
X21247D2*
X21398D1*
X4193Y12311D2*
X4348D1*
X5495D2*
X5727D1*
X6614D2*
X7793D1*
X9928D2*
X11224D1*
X13117D2*
X13747D1*
X18433D2*
X20096D1*
X21243D2*
X21398D1*
X4193Y12214D2*
X4369D1*
X5473D2*
X5727D1*
X6614D2*
X7890D1*
X9841D2*
X11127D1*
X13020D2*
X13718D1*
X18336D2*
X20117D1*
X21221D2*
X21398D1*
X4193Y12117D2*
X4411D1*
X5432D2*
X5727D1*
X6614D2*
X7986D1*
X9626D2*
X11030D1*
X12923D2*
X13710D1*
X18239D2*
X20159D1*
X21180D2*
X21398D1*
X4193Y12020D2*
X4475D1*
X5367D2*
X5727D1*
X6614D2*
X8085D1*
X9589D2*
X10931D1*
X12826D2*
X13724D1*
X18142D2*
X20223D1*
X21115D2*
X21398D1*
X4193Y11923D2*
X4582D1*
X5261D2*
X5727D1*
X6614D2*
X8182D1*
X9685D2*
X10835D1*
X12729D2*
X13761D1*
X18045D2*
X20330D1*
X21009D2*
X21398D1*
X4193Y11825D2*
X4551D1*
X5292D2*
X5727D1*
X6614D2*
X8279D1*
X9784D2*
X10759D1*
X12632D2*
X13830D1*
X17946D2*
X20299D1*
X21040D2*
X21398D1*
X4193Y11728D2*
X4457D1*
X5386D2*
X5727D1*
X6614D2*
X8376D1*
X9881D2*
X10730D1*
X12534D2*
X13961D1*
X14381D2*
X20205D1*
X21134D2*
X21398D1*
X4193Y11631D2*
X4399D1*
X5444D2*
X5727D1*
X6614D2*
X8472D1*
X9978D2*
X10727D1*
X12437D2*
X20147D1*
X21192D2*
X21398D1*
X4193Y11534D2*
X4362D1*
X5481D2*
X5727D1*
X6614D2*
X8569D1*
X10075D2*
X10727D1*
X12446D2*
X20110D1*
X21229D2*
X21398D1*
X4193Y11437D2*
X4345D1*
X5498D2*
X5727D1*
X6614D2*
X8666D1*
X10171D2*
X10727D1*
X12488D2*
X20093D1*
X21246D2*
X21398D1*
X4193Y11340D2*
X4345D1*
X5498D2*
X5727D1*
X6614D2*
X8765D1*
X10268D2*
X10727D1*
X12504D2*
X20093D1*
X21246D2*
X21398D1*
X4193Y11243D2*
X4362D1*
X5481D2*
X5727D1*
X6614D2*
X8861D1*
X10365D2*
X10735D1*
X12500D2*
X20110D1*
X21229D2*
X21398D1*
X4193Y11146D2*
X4395D1*
X5447D2*
X5727D1*
X6614D2*
X8958D1*
X10464D2*
X10775D1*
X12474D2*
X20143D1*
X21195D2*
X21398D1*
X4193Y11049D2*
X4454D1*
X5389D2*
X5727D1*
X6614D2*
X9055D1*
X10561D2*
X10861D1*
X12420D2*
X20202D1*
X21137D2*
X21398D1*
X4193Y10951D2*
X4545D1*
X5298D2*
X5727D1*
X6614D2*
X9152D1*
X10657D2*
X10958D1*
X12326D2*
X20293D1*
X21046D2*
X21398D1*
X4193Y10854D2*
X4589D1*
X5253D2*
X5727D1*
X6614D2*
X9249D1*
X10754D2*
X11055D1*
X12095D2*
X20337D1*
X21001D2*
X21398D1*
X4193Y10757D2*
X4480D1*
X5362D2*
X5727D1*
X6614D2*
X9346D1*
X10851D2*
X11153D1*
X12245D2*
X20228D1*
X21111D2*
X21398D1*
X4193Y10660D2*
X4414D1*
X5429D2*
X5727D1*
X6614D2*
X9444D1*
X10948D2*
X11250D1*
X12320D2*
X20162D1*
X21177D2*
X21398D1*
X4193Y10563D2*
X4371D1*
X5472D2*
X5727D1*
X6614D2*
X9541D1*
X11045D2*
X11347D1*
X12361D2*
X20119D1*
X21220D2*
X21398D1*
X4193Y10466D2*
X4348D1*
X5495D2*
X5727D1*
X6614D2*
X9638D1*
X11143D2*
X11444D1*
X12378D2*
X20096D1*
X21243D2*
X21398D1*
X4193Y10369D2*
X4343D1*
X5499D2*
X5727D1*
X6614D2*
X9735D1*
X11240D2*
X11465D1*
X12375D2*
X20091D1*
X21247D2*
X21398D1*
X4193Y10272D2*
X4354D1*
X5489D2*
X5727D1*
X6614D2*
X9832D1*
X11337D2*
X11491D1*
X12349D2*
X20102D1*
X21237D2*
X21398D1*
X4193Y10175D2*
X4383D1*
X5459D2*
X5727D1*
X6614D2*
X9520D1*
X21227D2*
X21398D1*
X4193Y10077D2*
X4434D1*
X5409D2*
X5727D1*
X6614D2*
X9423D1*
X21340D2*
X21398D1*
X4193Y9980D2*
X4512D1*
X5330D2*
X5727D1*
X6614D2*
X9369D1*
X4193Y9883D2*
X4635D1*
X5207D2*
X5727D1*
X6614D2*
X9341D1*
X4193Y9786D2*
X4508D1*
X5335D2*
X5727D1*
X6614D2*
X9323D1*
X4193Y9689D2*
X4431D1*
X5412D2*
X5727D1*
X6614D2*
X9226D1*
X4193Y9592D2*
X4382D1*
X5461D2*
X5727D1*
X6614D2*
X9129D1*
X4193Y9495D2*
X4354D1*
X5489D2*
X5727D1*
X6614D2*
X9032D1*
X4193Y9398D2*
X4343D1*
X5499D2*
X5727D1*
X6614D2*
X8935D1*
X4193Y9301D2*
X4349D1*
X5493D2*
X5727D1*
X6614D2*
X8838D1*
X4193Y9203D2*
X4372D1*
X5470D2*
X5727D1*
X6614D2*
X8762D1*
X10982D2*
X11790D1*
X14199D2*
X19776D1*
X4193Y9106D2*
X4415D1*
X5427D2*
X5727D1*
X6614D2*
X8729D1*
X11002D2*
X11790D1*
X14199D2*
X19879D1*
X4193Y9009D2*
X4485D1*
X5358D2*
X5727D1*
X6614D2*
X8726D1*
X11002D2*
X11790D1*
X14199D2*
X20233D1*
X4193Y8912D2*
X4597D1*
X5246D2*
X5727D1*
X6614D2*
X8726D1*
X10979D2*
X11790D1*
X14199D2*
X20345D1*
X4193Y8815D2*
X4538D1*
X5304D2*
X5727D1*
X6614D2*
X8726D1*
X10931D2*
X11790D1*
X14199D2*
X20287D1*
X4193Y8718D2*
X4449D1*
X5393D2*
X5727D1*
X6614D2*
X8726D1*
X10847D2*
X11790D1*
X14210D2*
X20197D1*
X4193Y8621D2*
X4394D1*
X5449D2*
X5727D1*
X6614D2*
X8726D1*
X10648D2*
X11790D1*
X14307D2*
X20142D1*
X4193Y8524D2*
X4360D1*
X5482D2*
X5727D1*
X6614D2*
X8726D1*
X10454D2*
X11790D1*
X14405D2*
X20108D1*
X4193Y8427D2*
X4345D1*
X5498D2*
X5727D1*
X6614D2*
X8726D1*
X10358D2*
X11790D1*
X14502D2*
X20093D1*
X4193Y8329D2*
X4345D1*
X5498D2*
X5727D1*
X6614D2*
X8726D1*
X10261D2*
X11790D1*
X14599D2*
X20093D1*
X4193Y8232D2*
X4363D1*
X5479D2*
X5727D1*
X6614D2*
X8726D1*
X10164D2*
X13552D1*
X14696D2*
X20111D1*
X4193Y8135D2*
X4402D1*
X5441D2*
X5727D1*
X6614D2*
X8726D1*
X10115D2*
X13649D1*
X14793D2*
X20150D1*
X21347D2*
X21398D1*
X4193Y8038D2*
X4462D1*
X5381D2*
X5727D1*
X6614D2*
X8726D1*
X10115D2*
X13746D1*
X14890D2*
X20210D1*
X21129D2*
X21398D1*
X4193Y7941D2*
X4343D1*
X5499D2*
X5727D1*
X6614D2*
X8726D1*
X10115D2*
X13843D1*
X14987D2*
X20091D1*
X21247D2*
X21398D1*
X4193Y7844D2*
X4343D1*
X5499D2*
X5727D1*
X6614D2*
X8726D1*
X10115D2*
X13941D1*
X15085D2*
X20091D1*
X21247D2*
X21398D1*
X4193Y7747D2*
X4343D1*
X5499D2*
X5727D1*
X6614D2*
X8726D1*
X10115D2*
X14038D1*
X15182D2*
X20091D1*
X21247D2*
X21398D1*
X4193Y7650D2*
X4343D1*
X5499D2*
X5727D1*
X6614D2*
X8726D1*
X10115D2*
X14135D1*
X15493D2*
X15765D1*
X16037D2*
X16553D1*
X16824D2*
X17537D1*
X17809D2*
X20091D1*
X21247D2*
X21398D1*
X4193Y7552D2*
X4343D1*
X5499D2*
X5727D1*
X6625D2*
X8726D1*
X10115D2*
X14232D1*
X15493D2*
X15554D1*
X16248D2*
X16342D1*
X17035D2*
X17326D1*
X18019D2*
X20091D1*
X21247D2*
X21398D1*
X4193Y7455D2*
X4343D1*
X5499D2*
X5727D1*
X6722D2*
X8726D1*
X10115D2*
X14329D1*
X17137D2*
X17225D1*
X18121D2*
X20091D1*
X21247D2*
X21398D1*
X4193Y7358D2*
X4343D1*
X5499D2*
X5727D1*
X6820D2*
X8726D1*
X10115D2*
X14343D1*
X18185D2*
X20091D1*
X21247D2*
X21398D1*
X4193Y7261D2*
X4343D1*
X5499D2*
X5727D1*
X6917D2*
X8726D1*
X10115D2*
X14343D1*
X18224D2*
X20091D1*
X21247D2*
X21398D1*
X4193Y7164D2*
X4343D1*
X5499D2*
X5727D1*
X7014D2*
X8726D1*
X10115D2*
X14343D1*
X18244D2*
X20091D1*
X21247D2*
X21398D1*
X4193Y7067D2*
X4343D1*
X5499D2*
X5727D1*
X7111D2*
X8726D1*
X10115D2*
X14343D1*
X18247D2*
X20091D1*
X21247D2*
X21398D1*
X4193Y6970D2*
X4343D1*
X5499D2*
X5727D1*
X7208D2*
X8726D1*
X10115D2*
X14343D1*
X18233D2*
X20091D1*
X21247D2*
X21398D1*
X4193Y6873D2*
X4343D1*
X5499D2*
X5727D1*
X7305D2*
X8726D1*
X10115D2*
X13428D1*
X13990D2*
X14343D1*
X18201D2*
X18599D1*
X19164D2*
X20091D1*
X21247D2*
X21398D1*
X4193Y6776D2*
X5727D1*
X7402D2*
X8726D1*
X10115D2*
X13223D1*
X14195D2*
X14343D1*
X18145D2*
X18395D1*
X19368D2*
X21398D1*
X4193Y6678D2*
X5727D1*
X7500D2*
X8726D1*
X10115D2*
X13098D1*
X17077D2*
X17286D1*
X18061D2*
X18270D1*
X19493D2*
X21398D1*
X4193Y6581D2*
X5727D1*
X7597D2*
X8726D1*
X10115D2*
X13008D1*
X15493D2*
X15665D1*
X16137D2*
X16453D1*
X16924D2*
X17437D1*
X17909D2*
X18181D1*
X19582D2*
X21398D1*
X4193Y6484D2*
X5727D1*
X7694D2*
X8726D1*
X10115D2*
X12942D1*
X14476D2*
X18115D1*
X19650D2*
X21398D1*
X4193Y6387D2*
X5727D1*
X7791D2*
X8726D1*
X10115D2*
X12892D1*
X14525D2*
X18066D1*
X19699D2*
X21398D1*
X4193Y6290D2*
X5727D1*
X7888D2*
X8726D1*
X10115D2*
X12857D1*
X14561D2*
X18030D1*
X19734D2*
X21398D1*
X4193Y6193D2*
X5727D1*
X7985D2*
X8726D1*
X10115D2*
X12834D1*
X14584D2*
X18006D1*
X19757D2*
X21398D1*
X4193Y6096D2*
X5727D1*
X8081D2*
X8726D1*
X10207D2*
X12822D1*
X14596D2*
X17995D1*
X19769D2*
X21398D1*
X4193Y5999D2*
X5727D1*
X8180D2*
X8726D1*
X10304D2*
X12820D1*
X14598D2*
X17994D1*
X19771D2*
X21398D1*
X4193Y5902D2*
X5727D1*
X8277D2*
X8726D1*
X10402D2*
X12829D1*
X14588D2*
X18003D1*
X19762D2*
X21398D1*
X4193Y5804D2*
X5727D1*
X8340D2*
X8726D1*
X10499D2*
X12851D1*
X14567D2*
X18023D1*
X19740D2*
X21398D1*
X4193Y5707D2*
X5727D1*
X8363D2*
X8726D1*
X10596D2*
X12883D1*
X14534D2*
X18057D1*
X19708D2*
X21398D1*
X4193Y5610D2*
X4451D1*
X5639D2*
X5727D1*
X8364D2*
X8726D1*
X10693D2*
X10835D1*
X11256D2*
X12929D1*
X14488D2*
X18103D1*
X19662D2*
X21398D1*
X4193Y5513D2*
X4451D1*
X8426D2*
X8665D1*
X11425D2*
X12991D1*
X14425D2*
X18164D1*
X19599D2*
X21398D1*
X4193Y5416D2*
X4451D1*
X8520D2*
X8571D1*
X11520D2*
X13075D1*
X14342D2*
X18247D1*
X19516D2*
X21398D1*
X4193Y5319D2*
X4451D1*
X11580D2*
X13189D1*
X14228D2*
X18363D1*
X19402D2*
X21398D1*
X4193Y5222D2*
X4451D1*
X11617D2*
X13366D1*
X14052D2*
X18539D1*
X19225D2*
X21398D1*
X4193Y5125D2*
X4451D1*
X11636D2*
X21398D1*
X4193Y5028D2*
X4451D1*
X11639D2*
X21398D1*
X4193Y4930D2*
X4451D1*
X11625D2*
X21398D1*
X4193Y4833D2*
X4451D1*
X11594D2*
X21398D1*
X4193Y4736D2*
X4451D1*
X11542D2*
X21398D1*
X4193Y4639D2*
X4451D1*
X6459D2*
X6632D1*
X7460D2*
X7631D1*
X8460D2*
X8631D1*
X9459D2*
X9630D1*
X10459D2*
X10632D1*
X11460D2*
X21398D1*
X4193Y4542D2*
X4451D1*
X5639D2*
X5767D1*
X6324D2*
X6767D1*
X7323D2*
X7767D1*
X8324D2*
X8766D1*
X9324D2*
X9767D1*
X10324D2*
X10767D1*
X11323D2*
X21398D1*
X4193Y4445D2*
X21398D1*
X14189Y9213D2*
Y8730D1*
X15198Y7720D1*
X15231Y7684D1*
X15287Y7664D1*
X15482D1*
Y7478D1*
X15535Y7529D1*
X15615Y7586D1*
X15704Y7628D1*
X15799Y7655D1*
X15897Y7664D1*
X15995Y7656D1*
X16090Y7632D1*
X16179Y7591D1*
X16260Y7535D1*
X16296Y7504D1*
X16361Y7559D1*
X16446Y7609D1*
X16538Y7644D1*
X16635Y7661D1*
X16733Y7662D1*
X16830Y7646D1*
X16923Y7613D1*
X17009Y7565D1*
X17084Y7502D1*
X17148Y7428D1*
X17180Y7377D1*
X17220Y7436D1*
X17271Y7496D1*
X17330Y7548D1*
X17396Y7591D1*
X17467Y7625D1*
X17542Y7648D1*
X17619Y7661D1*
X17698Y7663D1*
X17776Y7655D1*
X17852Y7635D1*
X17925Y7605D1*
X17993Y7565D1*
X18054Y7516D1*
X18109Y7459D1*
X18154Y7395D1*
X18191Y7325D1*
X18217Y7251D1*
X18233Y7174D1*
X18238Y7099D1*
X18233Y7021D1*
X18216Y6944D1*
X18190Y6870D1*
X18153Y6800D1*
X18106Y6736D1*
X18052Y6680D1*
X17990Y6631D1*
X17922Y6592D1*
X17849Y6562D1*
X17773Y6543D1*
X17695Y6534D1*
X17616Y6537D1*
X17538Y6550D1*
X17463Y6574D1*
X17393Y6609D1*
X17327Y6652D1*
X17269Y6705D1*
X17218Y6765D1*
X17181Y6821D1*
X17122Y6736D1*
X17053Y6667D1*
X16972Y6610D1*
X16883Y6569D1*
X16788Y6543D1*
X16691Y6534D1*
X16593Y6542D1*
X16498Y6567D1*
X16408Y6609D1*
X16328Y6665D1*
X16295Y6695D1*
X16226Y6637D1*
X16141Y6587D1*
X16049Y6554D1*
X15952Y6536D1*
X15854D1*
X15757Y6553D1*
X15665Y6586D1*
X15579Y6635D1*
X15504Y6698D1*
X15482Y6722D1*
Y6534D1*
X14434D1*
X14481Y6458D1*
X14519Y6378D1*
X14550Y6295D1*
X14571Y6209D1*
X14584Y6122D1*
X14589Y6026D1*
X14583Y5938D1*
X14569Y5850D1*
X14546Y5765D1*
X14514Y5682D1*
X14475Y5603D1*
X14427Y5528D1*
X14373Y5459D1*
X14311Y5395D1*
X14244Y5337D1*
X14171Y5287D1*
X14093Y5245D1*
X14012Y5210D1*
X13927Y5184D1*
X13840Y5166D1*
X13752Y5157D1*
X13664D1*
X13576Y5166D1*
X13489Y5184D1*
X13404Y5210D1*
X13323Y5245D1*
X13245Y5288D1*
X13173Y5338D1*
X13105Y5396D1*
X13044Y5460D1*
X12989Y5529D1*
X12942Y5604D1*
X12902Y5683D1*
X12871Y5766D1*
X12848Y5852D1*
X12834Y5939D1*
X12829Y6028D1*
X12832Y6116D1*
X12845Y6204D1*
X12866Y6290D1*
X12896Y6373D1*
X12934Y6453D1*
X12980Y6529D1*
X13033Y6600D1*
X13093Y6665D1*
X13159Y6723D1*
X13231Y6775D1*
X13308Y6819D1*
X13389Y6856D1*
X13473Y6884D1*
X13559Y6903D1*
X13647Y6914D1*
X13735Y6916D1*
X13824Y6908D1*
X13911Y6892D1*
X13996Y6868D1*
X14078Y6835D1*
X14156Y6794D1*
X14230Y6745D1*
X14299Y6689D1*
X14352Y6636D1*
Y7443D1*
X13801Y7993D1*
X13469Y8325D1*
X12902Y8326D1*
X12870Y8325D1*
X11799D1*
Y9213D1*
X11046Y9212D1*
X10980Y9219D1*
X10979Y9180D1*
X10990Y9132D1*
X10995Y9061D1*
X10993Y9012D1*
X10985Y8963D1*
X10971Y8916D1*
X10953Y8870D1*
X10930Y8827D1*
X10902Y8786D1*
X10870Y8749D1*
X10834Y8716D1*
X10794Y8686D1*
X10752Y8661D1*
X10707Y8641D1*
X10660Y8626D1*
X10612Y8616D1*
X10534Y8612D1*
X10104Y8182D1*
Y6190D1*
X10640Y5653D1*
X10737Y5556D1*
X10807Y5595D1*
X10900Y5627D1*
X10997Y5644D1*
X11095D1*
X11192Y5627D1*
X11285Y5594D1*
X11371Y5547D1*
X11448Y5485D1*
X11513Y5412D1*
X11565Y5328D1*
X11603Y5238D1*
X11624Y5142D1*
X11630Y5061D1*
X11622Y4963D1*
X11597Y4868D1*
X11557Y4778D1*
X11502Y4696D1*
X11435Y4625D1*
X11356Y4566D1*
X11269Y4521D1*
X11175Y4491D1*
X11078Y4477D1*
X10980Y4480D1*
X10883Y4499D1*
X10791Y4534D1*
X10707Y4584D1*
X10632Y4648D1*
X10568Y4723D1*
X10546Y4758D1*
X10502Y4696D1*
X10435Y4625D1*
X10356Y4566D1*
X10269Y4521D1*
X10175Y4491D1*
X10078Y4477D1*
X9980Y4480D1*
X9883Y4499D1*
X9791Y4534D1*
X9707Y4584D1*
X9632Y4648D1*
X9568Y4723D1*
X9546Y4758D1*
X9502Y4696D1*
X9435Y4625D1*
X9356Y4566D1*
X9269Y4521D1*
X9175Y4491D1*
X9078Y4477D1*
X8980Y4480D1*
X8883Y4499D1*
X8791Y4534D1*
X8707Y4584D1*
X8632Y4648D1*
X8568Y4723D1*
X8546Y4758D1*
X8502Y4696D1*
X8435Y4625D1*
X8356Y4566D1*
X8269Y4521D1*
X8175Y4491D1*
X8078Y4477D1*
X7980Y4480D1*
X7883Y4499D1*
X7791Y4534D1*
X7707Y4584D1*
X7632Y4648D1*
X7568Y4723D1*
X7546Y4758D1*
X7502Y4696D1*
X7435Y4625D1*
X7356Y4566D1*
X7269Y4521D1*
X7175Y4491D1*
X7078Y4477D1*
X6980Y4480D1*
X6883Y4499D1*
X6791Y4534D1*
X6707Y4584D1*
X6632Y4648D1*
X6568Y4723D1*
X6546Y4758D1*
X6502Y4696D1*
X6435Y4625D1*
X6356Y4566D1*
X6269Y4521D1*
X6175Y4491D1*
X6078Y4477D1*
X5980Y4480D1*
X5883Y4499D1*
X5791Y4534D1*
X5707Y4584D1*
X5631Y4649D1*
X5630Y4476D1*
X4461D1*
Y5646D1*
X5630D1*
Y5473D1*
X5681Y5519D1*
X5736Y5556D1*
Y7965D1*
Y18811D1*
X5740Y18860D1*
X5752Y18908D1*
X5771Y18953D1*
X5805Y19005D1*
X5807Y19012D1*
X4183D1*
Y4360D1*
X21407D1*
Y8207D1*
X21341Y8139D1*
X21304Y8107D1*
X21263Y8081D1*
X21218Y8060D1*
X21171Y8046D1*
X21121Y8038D1*
X21074Y7986D1*
X21039Y7954D1*
X21238Y7955D1*
Y6817D1*
X20100D1*
Y7955D1*
X20299D1*
X20241Y8011D1*
X20183Y8090D1*
X20140Y8178D1*
X20112Y8273D1*
X20101Y8370D1*
X20106Y8468D1*
X20129Y8564D1*
X20168Y8654D1*
X20221Y8737D1*
X20289Y8809D1*
X20367Y8868D1*
X20398Y8885D1*
X20312Y8943D1*
X20241Y9011D1*
X20219Y9039D1*
X20096Y9037D1*
X20047Y9041D1*
X19999Y9051D1*
X19953Y9068D1*
X19909Y9092D1*
X19850Y9139D1*
X19773Y9212D1*
X14189D1*
X4402Y7955D2*
X4551D1*
X4493Y8011D1*
X4435Y8090D1*
X4392Y8178D1*
X4364Y8273D1*
X4353Y8370D1*
X4358Y8468D1*
X4381Y8564D1*
X4420Y8654D1*
X4473Y8737D1*
X4541Y8809D1*
X4619Y8868D1*
X4650Y8885D1*
X4564Y8943D1*
X4493Y9011D1*
X4435Y9090D1*
X4392Y9178D1*
X4364Y9273D1*
X4353Y9370D1*
X4358Y9468D1*
X4381Y9564D1*
X4420Y9654D1*
X4473Y9737D1*
X4541Y9809D1*
X4619Y9868D1*
X4650Y9885D1*
X4564Y9943D1*
X4493Y10011D1*
X4435Y10090D1*
X4392Y10178D1*
X4364Y10273D1*
X4353Y10370D1*
X4358Y10468D1*
X4381Y10564D1*
X4420Y10654D1*
X4473Y10737D1*
X4541Y10809D1*
X4619Y10868D1*
X4650Y10885D1*
X4564Y10943D1*
X4493Y11011D1*
X4435Y11090D1*
X4392Y11178D1*
X4364Y11273D1*
X4353Y11370D1*
X4358Y11468D1*
X4381Y11564D1*
X4420Y11654D1*
X4473Y11737D1*
X4541Y11809D1*
X4619Y11868D1*
X4650Y11885D1*
X4564Y11943D1*
X4493Y12011D1*
X4435Y12090D1*
X4392Y12178D1*
X4364Y12273D1*
X4353Y12370D1*
X4358Y12468D1*
X4381Y12564D1*
X4420Y12654D1*
X4473Y12737D1*
X4541Y12809D1*
X4619Y12868D1*
X4650Y12885D1*
X4564Y12943D1*
X4493Y13011D1*
X4435Y13090D1*
X4392Y13178D1*
X4364Y13273D1*
X4353Y13370D1*
X4358Y13468D1*
X4381Y13564D1*
X4420Y13654D1*
X4473Y13737D1*
X4541Y13809D1*
X4619Y13868D1*
X4650Y13885D1*
X4564Y13943D1*
X4493Y14011D1*
X4435Y14090D1*
X4392Y14178D1*
X4364Y14273D1*
X4353Y14370D1*
X4358Y14468D1*
X4381Y14564D1*
X4420Y14654D1*
X4473Y14737D1*
X4541Y14809D1*
X4619Y14868D1*
X4650Y14885D1*
X4564Y14943D1*
X4493Y15011D1*
X4435Y15090D1*
X4392Y15178D1*
X4364Y15273D1*
X4353Y15370D1*
X4358Y15468D1*
X4381Y15564D1*
X4420Y15654D1*
X4473Y15737D1*
X4541Y15809D1*
X4619Y15868D1*
X4650Y15885D1*
X4564Y15943D1*
X4493Y16011D1*
X4435Y16090D1*
X4392Y16178D1*
X4364Y16273D1*
X4353Y16370D1*
X4358Y16468D1*
X4381Y16564D1*
X4420Y16654D1*
X4473Y16737D1*
X4541Y16809D1*
X4619Y16868D1*
X4650Y16885D1*
X4564Y16943D1*
X4493Y17011D1*
X4435Y17090D1*
X4392Y17178D1*
X4364Y17273D1*
X4353Y17370D1*
X4358Y17468D1*
X4381Y17564D1*
X4420Y17654D1*
X4473Y17737D1*
X4541Y17809D1*
X4619Y17868D1*
X4650Y17885D1*
X4564Y17943D1*
X4493Y18011D1*
X4435Y18090D1*
X4392Y18178D1*
X4364Y18273D1*
X4353Y18370D1*
X4358Y18468D1*
X4381Y18564D1*
X4420Y18654D1*
X4473Y18737D1*
X4541Y18809D1*
X4619Y18868D1*
X4706Y18913D1*
X4800Y18942D1*
X4898Y18954D1*
X4996Y18950D1*
X5092Y18928D1*
X5183Y18891D1*
X5266Y18838D1*
X5339Y18772D1*
X5399Y18695D1*
X5445Y18608D1*
X5475Y18514D1*
X5489Y18417D1*
X5488Y18337D1*
X5471Y18240D1*
X5438Y18147D1*
X5389Y18062D1*
X5326Y17986D1*
X5251Y17923D1*
X5193Y17886D1*
X5266Y17838D1*
X5339Y17772D1*
X5399Y17695D1*
X5445Y17608D1*
X5475Y17514D1*
X5489Y17417D1*
X5488Y17337D1*
X5471Y17240D1*
X5438Y17147D1*
X5389Y17062D1*
X5326Y16986D1*
X5251Y16923D1*
X5193Y16886D1*
X5266Y16838D1*
X5339Y16772D1*
X5399Y16695D1*
X5445Y16608D1*
X5475Y16514D1*
X5489Y16417D1*
X5488Y16337D1*
X5471Y16240D1*
X5438Y16147D1*
X5389Y16062D1*
X5326Y15986D1*
X5251Y15923D1*
X5193Y15886D1*
X5266Y15838D1*
X5339Y15772D1*
X5399Y15695D1*
X5445Y15608D1*
X5475Y15514D1*
X5489Y15417D1*
X5488Y15337D1*
X5471Y15240D1*
X5438Y15147D1*
X5389Y15062D1*
X5326Y14986D1*
X5251Y14923D1*
X5193Y14886D1*
X5266Y14838D1*
X5339Y14772D1*
X5399Y14695D1*
X5445Y14608D1*
X5475Y14514D1*
X5489Y14417D1*
X5488Y14337D1*
X5471Y14240D1*
X5438Y14147D1*
X5389Y14062D1*
X5326Y13986D1*
X5251Y13923D1*
X5193Y13886D1*
X5266Y13838D1*
X5339Y13772D1*
X5399Y13695D1*
X5445Y13608D1*
X5475Y13514D1*
X5489Y13417D1*
X5488Y13337D1*
X5471Y13240D1*
X5438Y13147D1*
X5389Y13062D1*
X5326Y12986D1*
X5251Y12923D1*
X5193Y12886D1*
X5266Y12838D1*
X5339Y12772D1*
X5399Y12695D1*
X5445Y12608D1*
X5475Y12514D1*
X5489Y12417D1*
X5488Y12337D1*
X5471Y12240D1*
X5438Y12147D1*
X5389Y12062D1*
X5326Y11986D1*
X5251Y11923D1*
X5193Y11886D1*
X5266Y11838D1*
X5339Y11772D1*
X5399Y11695D1*
X5445Y11608D1*
X5475Y11514D1*
X5489Y11417D1*
X5488Y11337D1*
X5471Y11240D1*
X5438Y11147D1*
X5389Y11062D1*
X5326Y10986D1*
X5251Y10923D1*
X5193Y10886D1*
X5266Y10838D1*
X5339Y10772D1*
X5399Y10695D1*
X5445Y10608D1*
X5475Y10514D1*
X5489Y10417D1*
X5488Y10337D1*
X5471Y10240D1*
X5438Y10147D1*
X5389Y10062D1*
X5326Y9986D1*
X5251Y9923D1*
X5193Y9886D1*
X5266Y9838D1*
X5339Y9772D1*
X5399Y9695D1*
X5445Y9608D1*
X5475Y9514D1*
X5489Y9417D1*
X5488Y9337D1*
X5471Y9240D1*
X5438Y9147D1*
X5389Y9062D1*
X5326Y8986D1*
X5251Y8923D1*
X5193Y8886D1*
X5266Y8838D1*
X5339Y8772D1*
X5399Y8695D1*
X5445Y8608D1*
X5475Y8514D1*
X5489Y8417D1*
X5488Y8337D1*
X5471Y8240D1*
X5438Y8147D1*
X5389Y8062D1*
X5326Y7986D1*
X5291Y7954D1*
X5490Y7955D1*
Y6817D1*
X4352D1*
Y7955D1*
X4402D1*
X21236Y10337D2*
X21219Y10240D1*
X21200Y10183D1*
X21228Y10168D1*
X21288Y10120D1*
X21407Y10001D1*
Y11988D1*
Y19012D1*
X17647D1*
X17641Y18963D1*
X17628Y18916D1*
X17611Y18870D1*
X17579Y18812D1*
X17615Y18742D1*
X17637Y18676D1*
X17649Y18609D1*
X17651Y18541D1*
X17643Y18473D1*
X17625Y18407D1*
X17598Y18344D1*
X17579Y18311D1*
X17619Y18232D1*
X17635Y18186D1*
X17645Y18138D1*
X17652Y18061D1*
X17649Y18012D1*
X17641Y17963D1*
X17628Y17916D1*
X17611Y17870D1*
X17579Y17812D1*
X17619Y17732D1*
X17635Y17686D1*
X17645Y17638D1*
X17652Y17561D1*
X17649Y17512D1*
X17641Y17463D1*
X17628Y17416D1*
X17611Y17370D1*
X17579Y17312D1*
X17615Y17242D1*
X17637Y17176D1*
X17649Y17109D1*
X17651Y17041D1*
X17643Y16973D1*
X17625Y16907D1*
X17598Y16844D1*
X17579Y16811D1*
X17619Y16732D1*
X17635Y16686D1*
X17645Y16638D1*
X17652Y16561D1*
X17649Y16512D1*
X17641Y16463D1*
X17628Y16416D1*
X17611Y16370D1*
X17579Y16312D1*
X17619Y16232D1*
X17635Y16186D1*
X17645Y16138D1*
X17652Y16061D1*
X17649Y16012D1*
X17641Y15963D1*
X17628Y15916D1*
X17611Y15870D1*
X17579Y15812D1*
X17619Y15732D1*
X17635Y15686D1*
X17645Y15638D1*
X17652Y15561D1*
X17649Y15512D1*
X17641Y15463D1*
X17628Y15416D1*
X17611Y15370D1*
X17579Y15312D1*
X17619Y15232D1*
X17635Y15186D1*
X17645Y15138D1*
X17652Y15061D1*
X17649Y15012D1*
X17641Y14963D1*
X17628Y14916D1*
X17611Y14870D1*
X17579Y14812D1*
X17619Y14732D1*
X17635Y14686D1*
X17645Y14638D1*
X17652Y14561D1*
X17649Y14512D1*
X17641Y14463D1*
X17628Y14416D1*
X17611Y14370D1*
X17579Y14312D1*
X17615Y14242D1*
X17637Y14176D1*
X17649Y14109D1*
X17651Y14041D1*
X17643Y13973D1*
X17632Y13927D1*
Y13114D1*
X17575D1*
X17556Y13045D1*
X17536Y13000D1*
X17510Y12958D1*
X17466Y12906D1*
X17215Y12655D1*
X17178Y12622D1*
X17138Y12595D1*
X17094Y12572D1*
X17048Y12555D1*
X17000Y12544D1*
X16934Y12538D1*
X16594D1*
X16631Y12529D1*
X17518D1*
X18339Y13351D1*
Y16698D1*
X18342Y16747D1*
X18352Y16795D1*
X18367Y16842D1*
X18387Y16886D1*
X18413Y16928D1*
X18456Y16979D1*
X19144Y17667D1*
X19181Y17700D1*
X19222Y17727D1*
X19265Y17750D1*
X19311Y17767D1*
X19359Y17778D1*
X19425Y17783D1*
X20263D1*
X20327Y17840D1*
X20398Y17885D1*
X20312Y17943D1*
X20241Y18011D1*
X20183Y18090D1*
X20140Y18178D1*
X20112Y18273D1*
X20101Y18370D1*
X20106Y18468D1*
X20129Y18564D1*
X20168Y18654D1*
X20221Y18737D1*
X20289Y18809D1*
X20367Y18868D1*
X20455Y18913D1*
X20548Y18942D1*
X20646Y18954D1*
X20744Y18950D1*
X20840Y18928D1*
X20931Y18891D1*
X21014Y18838D1*
X21087Y18772D1*
X21147Y18695D1*
X21193Y18608D1*
X21223Y18514D1*
X21237Y18417D1*
X21236Y18337D1*
X21219Y18240D1*
X21186Y18147D1*
X21137Y18062D1*
X21074Y17986D1*
X20999Y17923D1*
X20941Y17886D1*
X21014Y17838D1*
X21087Y17772D1*
X21147Y17695D1*
X21193Y17608D1*
X21223Y17514D1*
X21237Y17417D1*
X21236Y17337D1*
X21219Y17240D1*
X21186Y17147D1*
X21137Y17062D1*
X21074Y16986D1*
X20999Y16923D1*
X20941Y16886D1*
X21014Y16838D1*
X21087Y16772D1*
X21147Y16695D1*
X21193Y16608D1*
X21223Y16514D1*
X21237Y16417D1*
X21236Y16337D1*
X21219Y16240D1*
X21186Y16147D1*
X21137Y16062D1*
X21074Y15986D1*
X20999Y15923D1*
X20941Y15886D1*
X21006Y15844D1*
X21066Y15793D1*
X21119Y15735D1*
X21162Y15669D1*
X21197Y15599D1*
X21221Y15524D1*
X21235Y15446D1*
X21238Y15376D1*
X21231Y15298D1*
X21214Y15221D1*
X21186Y15147D1*
X21148Y15078D1*
X21101Y15015D1*
X21046Y14959D1*
X20983Y14911D1*
X20940Y14886D1*
X20998Y14850D1*
X21059Y14800D1*
X21112Y14743D1*
X21157Y14678D1*
X21193Y14608D1*
X21219Y14533D1*
X21234Y14456D1*
X21238Y14386D1*
X21233Y14307D1*
X21217Y14230D1*
X21190Y14156D1*
X21153Y14087D1*
X21107Y14023D1*
X21053Y13966D1*
X20991Y13917D1*
X20940Y13886D1*
X21014Y13838D1*
X21087Y13772D1*
X21147Y13695D1*
X21193Y13608D1*
X21223Y13514D1*
X21237Y13417D1*
X21236Y13337D1*
X21219Y13240D1*
X21186Y13147D1*
X21137Y13062D1*
X21074Y12986D1*
X20999Y12923D1*
X20941Y12886D1*
X21014Y12838D1*
X21087Y12772D1*
X21147Y12695D1*
X21193Y12608D1*
X21223Y12514D1*
X21237Y12417D1*
X21236Y12337D1*
X21219Y12240D1*
X21186Y12147D1*
X21137Y12062D1*
X21074Y11986D1*
X20999Y11923D1*
X20941Y11886D1*
X21014Y11838D1*
X21087Y11772D1*
X21147Y11695D1*
X21193Y11608D1*
X21223Y11514D1*
X21237Y11417D1*
X21236Y11337D1*
X21219Y11240D1*
X21186Y11147D1*
X21137Y11062D1*
X21074Y10986D1*
X20999Y10923D1*
X20941Y10886D1*
X21014Y10838D1*
X21087Y10772D1*
X21147Y10695D1*
X21193Y10608D1*
X21223Y10514D1*
X21237Y10417D1*
X21236Y10337D1*
X20125Y10220D2*
X20112Y10273D1*
X20101Y10370D1*
X20106Y10468D1*
X20129Y10564D1*
X20168Y10654D1*
X20221Y10737D1*
X20289Y10809D1*
X20367Y10868D1*
X20398Y10885D1*
X20312Y10943D1*
X20241Y11011D1*
X20183Y11090D1*
X20140Y11178D1*
X20112Y11273D1*
X20101Y11370D1*
X20106Y11468D1*
X20129Y11564D1*
X20168Y11654D1*
X20221Y11737D1*
X20289Y11809D1*
X20367Y11868D1*
X20398Y11885D1*
X20312Y11943D1*
X20241Y12011D1*
X20183Y12090D1*
X20140Y12178D1*
X20112Y12273D1*
X20101Y12370D1*
X20106Y12468D1*
X20129Y12564D1*
X20168Y12654D1*
X20221Y12737D1*
X20289Y12809D1*
X20367Y12868D1*
X20398Y12885D1*
X20312Y12943D1*
X20241Y13011D1*
X20183Y13090D1*
X20140Y13178D1*
X20112Y13273D1*
X20101Y13370D1*
X20106Y13468D1*
X20129Y13564D1*
X20168Y13654D1*
X20221Y13737D1*
X20289Y13809D1*
X20367Y13868D1*
X20398Y13885D1*
X20328Y13931D1*
X20268Y13982D1*
X20216Y14041D1*
X20173Y14107D1*
X20140Y14178D1*
X20116Y14253D1*
X20103Y14331D1*
X20101Y14410D1*
X20110Y14488D1*
X20129Y14564D1*
X20159Y14637D1*
X20198Y14705D1*
X20247Y14767D1*
X20303Y14821D1*
X20367Y14868D1*
X20398Y14886D1*
X20336Y14925D1*
X20275Y14975D1*
X20223Y15034D1*
X20178Y15099D1*
X20143Y15169D1*
X20118Y15244D1*
X20104Y15321D1*
X20101Y15400D1*
X20108Y15478D1*
X20126Y15555D1*
X20155Y15628D1*
X20193Y15697D1*
X20240Y15759D1*
X20296Y15815D1*
X20359Y15862D1*
X20398Y15886D1*
X20352Y15914D1*
X20275Y15975D1*
X20211Y16049D1*
X20160Y16133D1*
X20124Y16225D1*
X20104Y16321D1*
X20101Y16419D1*
X20116Y16517D1*
X20146Y16610D1*
X20193Y16697D1*
X20253Y16774D1*
X20327Y16840D1*
X20398Y16885D1*
X20312Y16943D1*
X20264Y16988D1*
X19591D1*
X19136Y16534D1*
X19135Y15566D1*
Y13186D1*
X19132Y13137D1*
X19123Y13089D1*
X19108Y13042D1*
X19087Y12997D1*
X19061Y12956D1*
X19018Y12905D1*
X17963Y11850D1*
X17926Y11818D1*
X17886Y11790D1*
X17842Y11767D1*
X17796Y11750D1*
X17748Y11739D1*
X17682Y11734D1*
X14377Y11732D1*
X14332Y11711D1*
X14285Y11696D1*
X14237Y11686D1*
X14188Y11682D1*
X14139D1*
X14090Y11688D1*
X14042Y11700D1*
X13996Y11716D1*
X13952Y11738D1*
X13910Y11764D1*
X13872Y11795D1*
X13837Y11829D1*
X13806Y11868D1*
X13779Y11909D1*
X13757Y11953D1*
X13740Y11999D1*
X13728Y12047D1*
X13722Y12096D1*
X13720Y12145D1*
X13725Y12194D1*
X13734Y12242D1*
X13749Y12289D1*
X13769Y12334D1*
X13793Y12377D1*
X13822Y12416D1*
X13855Y12453D1*
X13892Y12485D1*
X13933Y12513D1*
X13976Y12537D1*
X14021Y12556D1*
X14068Y12570D1*
X14117Y12578D1*
X14166Y12581D1*
X14215Y12579D1*
X14264Y12572D1*
X14311Y12559D1*
X14380Y12529D1*
X15750D1*
X15728Y12602D1*
X15722Y12650D1*
X15720Y12699D1*
X15725Y12748D1*
X15734Y12797D1*
X15749Y12844D1*
X15769Y12889D1*
X15793Y12931D1*
X15822Y12971D1*
X15855Y13007D1*
X15892Y13040D1*
X15933Y13068D1*
X15976Y13092D1*
X16037Y13115D1*
X16176Y13250D1*
X16217Y13278D1*
X16260Y13300D1*
X16277Y13336D1*
X16255Y13380D1*
X16238Y13426D1*
X16227Y13474D1*
X16220Y13523D1*
X16219Y13572D1*
X16222Y13621D1*
X16231Y13669D1*
X16245Y13716D1*
X16264Y13762D1*
X16292Y13811D1*
X16255Y13880D1*
X16238Y13926D1*
X16227Y13974D1*
X16220Y14023D1*
X16219Y14072D1*
X16222Y14121D1*
X16231Y14169D1*
X16260Y14252D1*
X15047D1*
X14547Y13751D1*
X12393Y11597D1*
X12443Y11522D1*
X12464Y11477D1*
X12479Y11430D1*
X12490Y11382D1*
X12495Y11311D1*
X12493Y11262D1*
X12485Y11213D1*
X12471Y11166D1*
X12453Y11120D1*
X12430Y11077D1*
X12402Y11036D1*
X12370Y10999D1*
X12334Y10966D1*
X12294Y10936D1*
X12252Y10911D1*
X12207Y10891D1*
X12160Y10876D1*
X12112Y10866D1*
X12065Y10862D1*
X12107Y10846D1*
X12150Y10823D1*
X12191Y10795D1*
X12229Y10764D1*
X12263Y10728D1*
X12293Y10689D1*
X12318Y10647D1*
X12339Y10602D1*
X12354Y10555D1*
X12365Y10507D1*
X12370Y10436D1*
X12368Y10387D1*
X12360Y10338D1*
X12346Y10291D1*
X12316Y10222D1*
X16351D1*
X20124D1*
X19762Y6026D2*
X19756Y5938D1*
X19742Y5850D1*
X19719Y5765D1*
X19688Y5682D1*
X19648Y5603D1*
X19600Y5528D1*
X19546Y5459D1*
X19484Y5395D1*
X19417Y5337D1*
X19344Y5287D1*
X19266Y5245D1*
X19185Y5210D1*
X19100Y5184D1*
X19014Y5166D1*
X18925Y5157D1*
X18837D1*
X18749Y5166D1*
X18662Y5184D1*
X18578Y5210D1*
X18496Y5245D1*
X18419Y5288D1*
X18346Y5338D1*
X18278Y5396D1*
X18217Y5460D1*
X18162Y5529D1*
X18115Y5604D1*
X18076Y5683D1*
X18044Y5766D1*
X18021Y5852D1*
X18007Y5939D1*
X18002Y6028D1*
X18006Y6116D1*
X18018Y6204D1*
X18039Y6290D1*
X18069Y6373D1*
X18107Y6453D1*
X18153Y6529D1*
X18206Y6600D1*
X18266Y6665D1*
X18332Y6723D1*
X18404Y6775D1*
X18481Y6819D1*
X18562Y6856D1*
X18646Y6884D1*
X18732Y6903D1*
X18820Y6914D1*
X18909Y6916D1*
X18997Y6908D1*
X19084Y6892D1*
X19169Y6868D1*
X19251Y6835D1*
X19330Y6794D1*
X19403Y6745D1*
X19472Y6689D1*
X19535Y6626D1*
X19591Y6558D1*
X19639Y6484D1*
X19681Y6405D1*
X19714Y6323D1*
X19738Y6238D1*
X19754Y6151D1*
X19761Y6063D1*
X19762Y6026D1*
X8354Y5557D2*
X8411Y5518D1*
X8482Y5450D1*
X8541Y5371D1*
X8545Y5365D1*
X8610Y5451D1*
X8681Y5519D1*
X8736Y5556D1*
Y7965D1*
Y9061D1*
X8740Y9110D1*
X8752Y9158D1*
X8771Y9203D1*
X8797Y9245D1*
X8827Y9280D1*
X9345Y9798D1*
X9350Y9873D1*
X9359Y9922D1*
X9374Y9969D1*
X9394Y10014D1*
X9418Y10056D1*
X9447Y10096D1*
X9480Y10132D1*
X9517Y10165D1*
X9558Y10193D1*
X9601Y10217D1*
X9646Y10236D1*
X9693Y10249D1*
X9742Y10258D1*
X9791Y10261D1*
X9857Y10256D1*
X7298Y12815D1*
X7266Y12852D1*
X7239Y12894D1*
X7219Y12938D1*
X7205Y12985D1*
X7196Y13062D1*
Y16499D1*
X7200Y16548D1*
X7210Y16596D1*
X7227Y16642D1*
X7250Y16686D1*
X7298Y16745D1*
X7868Y17315D1*
X7905Y17348D1*
X7962Y17382D1*
X7959Y17434D1*
X7947Y17482D1*
X7941Y17531D1*
X7939Y17580D1*
X7943Y17629D1*
X7952Y17677D1*
X7966Y17724D1*
X7984Y17770D1*
X8012Y17819D1*
X7976Y17888D1*
X7959Y17934D1*
X7947Y17982D1*
X7941Y18031D1*
X7939Y18080D1*
X7943Y18129D1*
X7952Y18177D1*
X7966Y18224D1*
X7984Y18270D1*
X8012Y18319D1*
X7976Y18388D1*
X7959Y18434D1*
X7947Y18482D1*
X7941Y18531D1*
X7939Y18580D1*
X7943Y18629D1*
X7952Y18677D1*
X7966Y18724D1*
X7984Y18770D1*
X8012Y18819D1*
X7976Y18888D1*
X7959Y18934D1*
X7943Y19011D1*
X7530Y19012D1*
X7057D1*
X6604Y18558D1*
Y7562D1*
X6862Y7307D1*
X8264Y5905D1*
X8296Y5867D1*
X8321Y5825D1*
X8340Y5780D1*
X8351Y5732D1*
X8354Y5686D1*
Y5558D1*
X16260Y15870D2*
X16238Y15926D1*
X16227Y15974D1*
X16220Y16023D1*
X16219Y16072D1*
X16222Y16121D1*
X16231Y16169D1*
X16245Y16216D1*
X16264Y16262D1*
X16292Y16311D1*
X16255Y16380D1*
X16238Y16426D1*
X16227Y16474D1*
X16220Y16523D1*
X16219Y16572D1*
X16222Y16621D1*
X16231Y16669D1*
X16245Y16716D1*
X16264Y16762D1*
X16292Y16811D1*
X16255Y16880D1*
X16238Y16926D1*
X16227Y16974D1*
X16220Y17023D1*
X16219Y17072D1*
X16222Y17121D1*
X16231Y17169D1*
X16245Y17216D1*
X16264Y17262D1*
X16292Y17311D1*
X16255Y17380D1*
X16238Y17426D1*
X16227Y17474D1*
X16220Y17523D1*
X16219Y17572D1*
X16222Y17621D1*
X16231Y17669D1*
X16245Y17716D1*
X16264Y17762D1*
X16292Y17811D1*
X16255Y17880D1*
X16238Y17926D1*
X16227Y17974D1*
X16220Y18023D1*
X16219Y18072D1*
X16222Y18121D1*
X16231Y18169D1*
X16245Y18216D1*
X16264Y18262D1*
X16292Y18311D1*
X16255Y18380D1*
X16238Y18426D1*
X16227Y18474D1*
X16220Y18523D1*
X16219Y18572D1*
X16222Y18621D1*
X16231Y18669D1*
X16245Y18716D1*
X16264Y18762D1*
X16292Y18811D1*
X16255Y18880D1*
X16238Y18926D1*
X16222Y19012D1*
X9853D1*
X9854Y18384D1*
Y12889D1*
X9918Y12814D1*
X9943Y12772D1*
X9964Y12727D1*
X9979Y12680D1*
X9990Y12632D1*
X9995Y12561D1*
X9993Y12512D1*
X9985Y12463D1*
X9971Y12416D1*
X9953Y12370D1*
X9930Y12327D1*
X9902Y12286D1*
X9870Y12249D1*
X9834Y12216D1*
X9794Y12186D1*
X9752Y12161D1*
X9707Y12141D1*
X9660Y12126D1*
X9612Y12116D1*
X9563Y12111D1*
X9482Y12116D1*
X10289Y11310D1*
X11381Y10222D1*
X11524D1*
X11490Y10304D1*
X11478Y10352D1*
X11472Y10400D1*
X11471Y10448D1*
X10827Y11092D1*
X10795Y11130D1*
X10769Y11172D1*
X10751Y11217D1*
X10740Y11265D1*
X10736Y11311D1*
Y11686D1*
X10740Y11735D1*
X10752Y11783D1*
X10771Y11828D1*
X10797Y11870D1*
X10827Y11905D1*
X14702Y15780D1*
X14739Y15812D1*
X14781Y15837D1*
X14827Y15856D1*
X14875Y15867D1*
X14920Y15870D1*
X16260D1*
X9236Y15741D2*
X9177Y15690D1*
X9136Y15663D1*
X9092Y15641D1*
X9046Y15624D1*
X8998Y15612D1*
X8949Y15605D1*
X8900Y15603D1*
X8851Y15606D1*
X8803Y15614D1*
X8755Y15627D1*
X8710Y15646D1*
X8655Y15676D1*
X8636Y15663D1*
X8573Y15634D1*
X8508Y15614D1*
X8440Y15604D1*
X8371D1*
X8303Y15614D1*
X8268Y15623D1*
Y13331D1*
X9100Y12499D1*
X9095Y12574D1*
X9100Y12623D1*
X9109Y12672D1*
X9124Y12719D1*
X9144Y12764D1*
X9168Y12806D1*
X9197Y12846D1*
X9236Y12887D1*
Y15740D1*
X12443Y8811D2*
D14*
Y8325D1*
X11799Y8811D2*
X12443D1*
X20101Y14386D2*
X21238D1*
X20101Y15386D2*
X21238D1*
X17673Y7664D2*
Y6534D1*
Y7099D2*
X18238D1*
X13709Y6916D2*
Y5156D1*
X12829Y6036D2*
X14588D1*
X18882Y6916D2*
Y5156D1*
X18002Y6036D2*
X19762D1*
X5045Y5645D2*
Y4477D1*
X4461Y5061D2*
X5045D1*
X17185Y14061D2*
X17651D1*
X17185Y17061D2*
X17651D1*
X17185Y18561D2*
X17651D1*
X8406Y16069D2*
Y15603D1*
D18*
X13545Y8811D3*
X12443D3*
D19*
X4921Y7386D3*
D20*
Y8386D3*
Y9386D3*
Y10386D3*
Y11386D3*
Y12386D3*
Y13386D3*
Y14386D3*
Y15386D3*
Y16386D3*
Y17386D3*
Y18386D3*
D19*
X20669Y7386D3*
D20*
Y8386D3*
Y9386D3*
Y10386D3*
Y11386D3*
Y12386D3*
Y13386D3*
Y14386D3*
Y15386D3*
Y16386D3*
Y17386D3*
Y18386D3*
D21*
X14917Y7099D3*
D22*
X15902D3*
X16689D3*
X17673D3*
D23*
X13709Y6036D3*
X18882D3*
D24*
X5045Y5061D3*
D25*
X6045D3*
X7045D3*
X8045D3*
X9045D3*
X10045D3*
X11045D3*
D26*
X17185Y13561D3*
D27*
Y14061D3*
Y14561D3*
Y15061D3*
Y15561D3*
Y16061D3*
Y16561D3*
Y17061D3*
Y17561D3*
Y18061D3*
Y18561D3*
Y19061D3*
Y19561D3*
Y20061D3*
Y20561D3*
X16685Y13561D3*
Y14061D3*
Y14561D3*
Y15061D3*
Y15561D3*
Y16061D3*
Y16561D3*
Y17061D3*
Y17561D3*
Y18061D3*
Y18561D3*
Y19061D3*
Y19561D3*
Y20061D3*
Y20561D3*
X8906Y16069D3*
Y16569D3*
Y17069D3*
Y17569D3*
Y18069D3*
Y18569D3*
Y19069D3*
Y19569D3*
Y20069D3*
Y20569D3*
X8406Y16069D3*
Y16569D3*
Y17069D3*
Y17569D3*
Y18069D3*
Y18569D3*
Y19069D3*
Y19569D3*
Y20069D3*
D26*
Y20569D3*
M02*
