G04 DipTrace 2.4.0.2*
%INTopAssy.gbr*%
%MOIN*%
%ADD10C,0.0079*%
%ADD14C,0.0197*%
%ADD58C,0.0046*%
%ADD59C,0.0031*%
%FSLAX44Y44*%
G04*
G70*
G90*
G75*
G01*
%LNTopAssy*%
%LPD*%
X13342Y1989D2*
D10*
X19248D1*
X4156Y5659D2*
X11935D1*
X9496Y21400D2*
D14*
X16122D1*
Y19087D1*
X9496D1*
Y21400D1*
X16662Y2430D2*
D58*
X16475D1*
Y2128D1*
X16662D1*
X16475Y2286D2*
X16590D1*
X16754Y2430D2*
Y2128D1*
X16855D1*
X16898Y2143D1*
X16927Y2171D1*
X16941Y2200D1*
X16955Y2243D1*
Y2315D1*
X16941Y2358D1*
X16927Y2386D1*
X16898Y2415D1*
X16855Y2430D1*
X16754D1*
X17263Y2358D2*
X17249Y2386D1*
X17220Y2415D1*
X17192Y2430D1*
X17134D1*
X17105Y2415D1*
X17077Y2386D1*
X17062Y2358D1*
X17048Y2315D1*
Y2243D1*
X17062Y2200D1*
X17077Y2171D1*
X17105Y2143D1*
X17134Y2128D1*
X17192D1*
X17220Y2143D1*
X17249Y2171D1*
X17263Y2200D1*
Y2243D1*
X17192D1*
X17542Y2430D2*
X17356D1*
Y2128D1*
X17542D1*
X17356Y2286D2*
X17471D1*
X14684Y2426D2*
Y2124D1*
X14813D1*
X14856Y2139D1*
X14870Y2153D1*
X14885Y2182D1*
Y2225D1*
X14870Y2253D1*
X14856Y2268D1*
X14813Y2282D1*
X14856Y2297D1*
X14870Y2311D1*
X14885Y2339D1*
Y2368D1*
X14870Y2397D1*
X14856Y2411D1*
X14813Y2426D1*
X14684D1*
Y2282D2*
X14813D1*
X15064Y2426D2*
X15035Y2411D1*
X15006Y2382D1*
X14992Y2354D1*
X14977Y2311D1*
Y2239D1*
X14992Y2196D1*
X15006Y2167D1*
X15035Y2139D1*
X15064Y2124D1*
X15121D1*
X15149Y2139D1*
X15178Y2167D1*
X15193Y2196D1*
X15207Y2239D1*
Y2311D1*
X15193Y2354D1*
X15178Y2382D1*
X15149Y2411D1*
X15121Y2426D1*
X15064D1*
X15529Y2124D2*
X15414Y2426D1*
X15300Y2124D1*
X15343Y2225D2*
X15486D1*
X15622Y2282D2*
X15751D1*
X15794Y2297D1*
X15809Y2311D1*
X15823Y2339D1*
Y2368D1*
X15809Y2397D1*
X15794Y2411D1*
X15751Y2426D1*
X15622D1*
Y2124D1*
X15722Y2282D2*
X15823Y2124D1*
X15916Y2426D2*
Y2124D1*
X16016D1*
X16059Y2139D1*
X16088Y2167D1*
X16102Y2196D1*
X16117Y2239D1*
Y2311D1*
X16102Y2354D1*
X16088Y2382D1*
X16059Y2411D1*
X16016Y2426D1*
X15916D1*
X7051Y6042D2*
D59*
Y5841D1*
X7137D1*
X7166Y5851D1*
X7175Y5861D1*
X7185Y5880D1*
Y5908D1*
X7175Y5928D1*
X7166Y5937D1*
X7137Y5947D1*
X7166Y5956D1*
X7175Y5966D1*
X7185Y5985D1*
Y6004D1*
X7175Y6023D1*
X7166Y6033D1*
X7137Y6042D1*
X7051D1*
Y5947D2*
X7137D1*
X7304Y6042D2*
X7285Y6033D1*
X7266Y6014D1*
X7256Y5995D1*
X7247Y5966D1*
Y5918D1*
X7256Y5889D1*
X7266Y5870D1*
X7285Y5851D1*
X7304Y5841D1*
X7342D1*
X7361Y5851D1*
X7381Y5870D1*
X7390Y5889D1*
X7400Y5918D1*
Y5966D1*
X7390Y5995D1*
X7381Y6014D1*
X7361Y6033D1*
X7342Y6042D1*
X7304D1*
X7615Y5841D2*
X7538Y6042D1*
X7461Y5841D1*
X7490Y5908D2*
X7586D1*
X7676Y5947D2*
X7762D1*
X7791Y5956D1*
X7801Y5966D1*
X7810Y5985D1*
Y6004D1*
X7801Y6023D1*
X7791Y6033D1*
X7762Y6042D1*
X7676D1*
Y5841D1*
X7743Y5947D2*
X7810Y5841D1*
X7872Y6042D2*
Y5841D1*
X7939D1*
X7968Y5851D1*
X7987Y5870D1*
X7997Y5889D1*
X8006Y5918D1*
Y5966D1*
X7997Y5995D1*
X7987Y6014D1*
X7968Y6033D1*
X7939Y6042D1*
X7872D1*
X8386D2*
X8262D1*
Y5841D1*
X8386D1*
X8262Y5947D2*
X8339D1*
X8448Y6042D2*
Y5841D1*
X8515D1*
X8544Y5851D1*
X8563Y5870D1*
X8573Y5889D1*
X8582Y5918D1*
Y5966D1*
X8573Y5995D1*
X8563Y6014D1*
X8544Y6033D1*
X8515Y6042D1*
X8448D1*
X8787Y5995D2*
X8778Y6014D1*
X8759Y6033D1*
X8740Y6042D1*
X8701D1*
X8682Y6033D1*
X8663Y6014D1*
X8653Y5995D1*
X8644Y5966D1*
Y5918D1*
X8653Y5889D1*
X8663Y5870D1*
X8682Y5851D1*
X8701Y5841D1*
X8740D1*
X8759Y5851D1*
X8778Y5870D1*
X8787Y5889D1*
Y5918D1*
X8740D1*
X8973Y6042D2*
X8849D1*
Y5841D1*
X8973D1*
X8849Y5947D2*
X8926D1*
M02*
