G75*
G71*
%MOMM*%
%OFA0B0*%
%FSLAX53Y53*%
%IPPOS*%
%LPD*%
%ADD18C,1.24000*%
%ADD24C,0.60000*%
%ADD27C,0.64000*%
%ADD35C,2.36000*%
%ADD36R,2.04000X2.04000*%
%ADD38C,3.18000*%
%ADD40C,1.76000*%
%ADD44R,1.76000X1.76000*%
%ADD54C,3.34000*%
%ADD57C,1.74000*%
%ADD62R,1.14000X1.14000*%
%ADD64C,1.84000*%
%ADD65R,1.74000X1.74000*%
%ADD67R,1.84000X1.84000*%
%ADD75C,2.04000*%
X0000000Y0000000D02*
G75*
G01*
%LPD*%
D44*
X0002500Y0008760D03*
D40*
X0002500Y0011300D03*
X0002500Y0013840D03*
X0002500Y0016380D03*
X0002500Y0018920D03*
X0002500Y0021460D03*
X0002500Y0024000D03*
X0002500Y0026540D03*
X0002500Y0029080D03*
X0002500Y0031620D03*
X0002500Y0034160D03*
X0002500Y0036700D03*
D44*
X0042500Y0008760D03*
D40*
X0042500Y0011300D03*
X0042500Y0013840D03*
X0042500Y0016380D03*
X0042500Y0018920D03*
X0042500Y0021460D03*
X0042500Y0024000D03*
X0042500Y0026540D03*
X0042500Y0029080D03*
X0042500Y0031620D03*
X0042500Y0034160D03*
X0042500Y0036700D03*
D65*
X0027890Y0008032D03*
D57*
X0030390Y0008032D03*
X0032390Y0008032D03*
X0034890Y0008032D03*
D54*
X0024820Y0005332D03*
X0037960Y0005332D03*
D67*
X0002815Y0002855D03*
D64*
X0005355Y0002855D03*
X0007895Y0002855D03*
X0010435Y0002855D03*
X0012975Y0002855D03*
X0015515Y0002855D03*
X0018055Y0002855D03*
D62*
X0033650Y0024445D03*
D18*
X0033650Y0025715D03*
X0033650Y0026985D03*
X0033650Y0028255D03*
X0033650Y0029525D03*
X0033650Y0030795D03*
X0033650Y0032065D03*
X0033650Y0033335D03*
X0033650Y0034605D03*
X0033650Y0035875D03*
X0033650Y0037145D03*
X0033650Y0038415D03*
X0033650Y0039685D03*
X0033650Y0040955D03*
X0033650Y0042225D03*
X0032380Y0024445D03*
X0032380Y0025715D03*
X0032380Y0026985D03*
X0032380Y0028255D03*
X0032380Y0029525D03*
X0032380Y0030795D03*
X0032380Y0032065D03*
X0032380Y0033335D03*
X0032380Y0034605D03*
X0032380Y0035875D03*
X0032380Y0037145D03*
X0032380Y0038415D03*
X0032380Y0039685D03*
X0032380Y0040955D03*
X0032380Y0042225D03*
X0012620Y0030815D03*
X0012620Y0032085D03*
X0012620Y0033355D03*
X0012620Y0034625D03*
X0012620Y0035895D03*
X0012620Y0037165D03*
X0012620Y0038435D03*
X0012620Y0039705D03*
X0012620Y0040975D03*
X0012620Y0042245D03*
X0011350Y0030815D03*
X0011350Y0032085D03*
X0011350Y0033355D03*
X0011350Y0034625D03*
X0011350Y0035895D03*
X0011350Y0037165D03*
X0011350Y0038435D03*
X0011350Y0039705D03*
X0011350Y0040975D03*
D62*
X0011350Y0042245D03*
X0047000Y0000000D02*
G75*
G01*
%LPD*%
D36*
X0104230Y0010500D03*
D75*
X0049370Y0010500D03*
D38*
X0094070Y0010500D03*
X0059530Y0010500D03*
D35*
X0104230Y0003030D03*
D44*
X0083240Y0022500D03*
D40*
X0080700Y0022500D03*
X0078160Y0022500D03*
X0075620Y0022500D03*
X0073080Y0022500D03*
X0070540Y0022500D03*
X0068000Y0022500D03*
X0065460Y0022500D03*
X0062920Y0022500D03*
X0060380Y0022500D03*
X0057840Y0022500D03*
X0055300Y0022500D03*
D44*
X0083240Y0062500D03*
D40*
X0080700Y0062500D03*
X0078160Y0062500D03*
X0075620Y0062500D03*
X0073080Y0062500D03*
X0070540Y0062500D03*
X0068000Y0062500D03*
X0065460Y0062500D03*
X0062920Y0062500D03*
X0060380Y0062500D03*
X0057840Y0062500D03*
X0055300Y0062500D03*
D27*
X0075833Y0046489D03*
X0076833Y0046489D03*
X0075833Y0047989D03*
X0076333Y0047239D03*
X0076833Y0047989D03*
D24*
X0102729Y0052500D03*
X0105429Y0052500D03*
X0102777Y0032500D03*
X0105477Y0032500D03*
D36*
X0104230Y0074500D03*
D75*
X0049370Y0074500D03*
D38*
X0094070Y0074500D03*
X0059530Y0074500D03*
D35*
X0104230Y0067030D03*
X0000000Y0047000D02*
G75*
G01*
%LPD*%
D44*
X0036240Y0049500D03*
D40*
X0033700Y0049500D03*
X0031160Y0049500D03*
X0028620Y0049500D03*
X0026080Y0049500D03*
X0023540Y0049500D03*
X0021000Y0049500D03*
X0018460Y0049500D03*
X0015920Y0049500D03*
X0013380Y0049500D03*
X0010840Y0049500D03*
X0008300Y0049500D03*
D44*
X0036240Y0089500D03*
D40*
X0033700Y0089500D03*
X0031160Y0089500D03*
X0028620Y0089500D03*
X0026080Y0089500D03*
X0023540Y0089500D03*
X0021000Y0089500D03*
X0018460Y0089500D03*
X0015920Y0089500D03*
X0013380Y0089500D03*
X0010840Y0089500D03*
X0008300Y0089500D03*
D65*
X0036968Y0074890D03*
D57*
X0036968Y0077390D03*
X0036968Y0079390D03*
X0036968Y0081890D03*
D54*
X0039668Y0071820D03*
X0039668Y0084960D03*
D67*
X0042145Y0049815D03*
D64*
X0042145Y0052355D03*
X0042145Y0054895D03*
X0042145Y0057435D03*
X0042145Y0059975D03*
X0042145Y0062515D03*
X0042145Y0065055D03*
D62*
X0020555Y0080650D03*
D18*
X0019285Y0080650D03*
X0018015Y0080650D03*
X0016745Y0080650D03*
X0015475Y0080650D03*
X0014205Y0080650D03*
X0012935Y0080650D03*
X0011665Y0080650D03*
X0010395Y0080650D03*
X0009125Y0080650D03*
X0007855Y0080650D03*
X0006585Y0080650D03*
X0005315Y0080650D03*
X0004045Y0080650D03*
X0002775Y0080650D03*
X0020555Y0079380D03*
X0019285Y0079380D03*
X0018015Y0079380D03*
X0016745Y0079380D03*
X0015475Y0079380D03*
X0014205Y0079380D03*
X0012935Y0079380D03*
X0011665Y0079380D03*
X0010395Y0079380D03*
X0009125Y0079380D03*
X0007855Y0079380D03*
X0006585Y0079380D03*
X0005315Y0079380D03*
X0004045Y0079380D03*
X0002775Y0079380D03*
X0014185Y0059620D03*
X0012915Y0059620D03*
X0011645Y0059620D03*
X0010375Y0059620D03*
X0009105Y0059620D03*
X0007835Y0059620D03*
X0006565Y0059620D03*
X0005295Y0059620D03*
X0004025Y0059620D03*
X0002755Y0059620D03*
X0014185Y0058350D03*
X0012915Y0058350D03*
X0011645Y0058350D03*
X0010375Y0058350D03*
X0009105Y0058350D03*
X0007835Y0058350D03*
X0006565Y0058350D03*
X0005295Y0058350D03*
X0004025Y0058350D03*
D62*
X0002755Y0058350D03*
X0109000Y0000000D02*
G75*
G01*
%LPD*%
D36*
X0119500Y0002770D03*
D75*
X0119500Y0057630D03*
D38*
X0119500Y0012930D03*
X0119500Y0047470D03*
D35*
X0112030Y0002770D03*
D44*
X0131500Y0023760D03*
D40*
X0131500Y0026300D03*
X0131500Y0028840D03*
X0131500Y0031380D03*
X0131500Y0033920D03*
X0131500Y0036460D03*
X0131500Y0039000D03*
X0131500Y0041540D03*
X0131500Y0044080D03*
X0131500Y0046620D03*
X0131500Y0049160D03*
X0131500Y0051700D03*
D44*
X0171500Y0023760D03*
D40*
X0171500Y0026300D03*
X0171500Y0028840D03*
X0171500Y0031380D03*
X0171500Y0033920D03*
X0171500Y0036460D03*
X0171500Y0039000D03*
X0171500Y0041540D03*
X0171500Y0044080D03*
X0171500Y0046620D03*
X0171500Y0049160D03*
X0171500Y0051700D03*
D27*
X0155489Y0031167D03*
X0155489Y0030167D03*
X0156989Y0031167D03*
X0156239Y0030667D03*
X0156989Y0030167D03*
D24*
X0161500Y0004271D03*
X0161500Y0001571D03*
X0141500Y0004223D03*
X0141500Y0001523D03*
D36*
X0183500Y0002770D03*
D75*
X0183500Y0057630D03*
D38*
X0183500Y0012930D03*
X0183500Y0047470D03*
D35*
X0176030Y0002770D03*
X0047000Y0087000D02*
G75*
G01*
%LPD*%
D44*
X0083240Y0089500D03*
D40*
X0080700Y0089500D03*
X0078160Y0089500D03*
X0075620Y0089500D03*
X0073080Y0089500D03*
X0070540Y0089500D03*
X0068000Y0089500D03*
X0065460Y0089500D03*
X0062920Y0089500D03*
X0060380Y0089500D03*
X0057840Y0089500D03*
X0055300Y0089500D03*
D44*
X0083240Y0129500D03*
D40*
X0080700Y0129500D03*
X0078160Y0129500D03*
X0075620Y0129500D03*
X0073080Y0129500D03*
X0070540Y0129500D03*
X0068000Y0129500D03*
X0065460Y0129500D03*
X0062920Y0129500D03*
X0060380Y0129500D03*
X0057840Y0129500D03*
X0055300Y0129500D03*
D65*
X0083968Y0114890D03*
D57*
X0083968Y0117390D03*
X0083968Y0119390D03*
X0083968Y0121890D03*
D54*
X0086668Y0111820D03*
X0086668Y0124960D03*
D67*
X0089145Y0089815D03*
D64*
X0089145Y0092355D03*
X0089145Y0094895D03*
X0089145Y0097435D03*
X0089145Y0099975D03*
X0089145Y0102515D03*
X0089145Y0105055D03*
D62*
X0067555Y0120650D03*
D18*
X0066285Y0120650D03*
X0065015Y0120650D03*
X0063745Y0120650D03*
X0062475Y0120650D03*
X0061205Y0120650D03*
X0059935Y0120650D03*
X0058665Y0120650D03*
X0057395Y0120650D03*
X0056125Y0120650D03*
X0054855Y0120650D03*
X0053585Y0120650D03*
X0052315Y0120650D03*
X0051045Y0120650D03*
X0049775Y0120650D03*
X0067555Y0119380D03*
X0066285Y0119380D03*
X0065015Y0119380D03*
X0063745Y0119380D03*
X0062475Y0119380D03*
X0061205Y0119380D03*
X0059935Y0119380D03*
X0058665Y0119380D03*
X0057395Y0119380D03*
X0056125Y0119380D03*
X0054855Y0119380D03*
X0053585Y0119380D03*
X0052315Y0119380D03*
X0051045Y0119380D03*
X0049775Y0119380D03*
X0061185Y0099620D03*
X0059915Y0099620D03*
X0058645Y0099620D03*
X0057375Y0099620D03*
X0056105Y0099620D03*
X0054835Y0099620D03*
X0053565Y0099620D03*
X0052295Y0099620D03*
X0051025Y0099620D03*
X0049755Y0099620D03*
X0061185Y0098350D03*
X0059915Y0098350D03*
X0058645Y0098350D03*
X0057375Y0098350D03*
X0056105Y0098350D03*
X0054835Y0098350D03*
X0053565Y0098350D03*
X0052295Y0098350D03*
X0051025Y0098350D03*
D62*
X0049755Y0098350D03*
X0109000Y0062000D02*
G75*
G01*
%LPD*%
D36*
X0119500Y0064770D03*
D75*
X0119500Y0119630D03*
D38*
X0119500Y0074930D03*
X0119500Y0109470D03*
D35*
X0112030Y0064770D03*
D44*
X0131500Y0085760D03*
D40*
X0131500Y0088300D03*
X0131500Y0090840D03*
X0131500Y0093380D03*
X0131500Y0095920D03*
X0131500Y0098460D03*
X0131500Y0101000D03*
X0131500Y0103540D03*
X0131500Y0106080D03*
X0131500Y0108620D03*
X0131500Y0111160D03*
X0131500Y0113700D03*
D44*
X0171500Y0085760D03*
D40*
X0171500Y0088300D03*
X0171500Y0090840D03*
X0171500Y0093380D03*
X0171500Y0095920D03*
X0171500Y0098460D03*
X0171500Y0101000D03*
X0171500Y0103540D03*
X0171500Y0106080D03*
X0171500Y0108620D03*
X0171500Y0111160D03*
X0171500Y0113700D03*
D27*
X0155489Y0093167D03*
X0155489Y0092167D03*
X0156989Y0093167D03*
X0156239Y0092667D03*
X0156989Y0092167D03*
D24*
X0161500Y0066271D03*
X0161500Y0063571D03*
X0141500Y0066223D03*
X0141500Y0063523D03*
D36*
X0183500Y0064770D03*
D75*
X0183500Y0119630D03*
D38*
X0183500Y0074930D03*
X0183500Y0109470D03*
D35*
X0176030Y0064770D03*
X0094000Y0124000D02*
G75*
G01*
%LPD*%
D36*
X0104500Y0126770D03*
D75*
X0104500Y0181630D03*
D38*
X0104500Y0136930D03*
X0104500Y0171470D03*
D35*
X0097030Y0126770D03*
D44*
X0116500Y0147760D03*
D40*
X0116500Y0150300D03*
X0116500Y0152840D03*
X0116500Y0155380D03*
X0116500Y0157920D03*
X0116500Y0160460D03*
X0116500Y0163000D03*
X0116500Y0165540D03*
X0116500Y0168080D03*
X0116500Y0170620D03*
X0116500Y0173160D03*
X0116500Y0175700D03*
D44*
X0156500Y0147760D03*
D40*
X0156500Y0150300D03*
X0156500Y0152840D03*
X0156500Y0155380D03*
X0156500Y0157920D03*
X0156500Y0160460D03*
X0156500Y0163000D03*
X0156500Y0165540D03*
X0156500Y0168080D03*
X0156500Y0170620D03*
X0156500Y0173160D03*
X0156500Y0175700D03*
D27*
X0140489Y0155167D03*
X0140489Y0154167D03*
X0141989Y0155167D03*
X0141239Y0154667D03*
X0141989Y0154167D03*
D24*
X0146500Y0128271D03*
X0146500Y0125571D03*
X0126500Y0128223D03*
X0126500Y0125523D03*
D36*
X0168500Y0126770D03*
D75*
X0168500Y0181630D03*
D38*
X0168500Y0136930D03*
X0168500Y0171470D03*
D35*
X0161030Y0126770D03*
X0047000Y0134000D02*
G75*
G01*
%LPD*%
D44*
X0049500Y0142760D03*
D40*
X0049500Y0145300D03*
X0049500Y0147840D03*
X0049500Y0150380D03*
X0049500Y0152920D03*
X0049500Y0155460D03*
X0049500Y0158000D03*
X0049500Y0160540D03*
X0049500Y0163080D03*
X0049500Y0165620D03*
X0049500Y0168160D03*
X0049500Y0170700D03*
D44*
X0089500Y0142760D03*
D40*
X0089500Y0145300D03*
X0089500Y0147840D03*
X0089500Y0150380D03*
X0089500Y0152920D03*
X0089500Y0155460D03*
X0089500Y0158000D03*
X0089500Y0160540D03*
X0089500Y0163080D03*
X0089500Y0165620D03*
X0089500Y0168160D03*
X0089500Y0170700D03*
D65*
X0074890Y0142032D03*
D57*
X0077390Y0142032D03*
X0079390Y0142032D03*
X0081890Y0142032D03*
D54*
X0071820Y0139332D03*
X0084960Y0139332D03*
D67*
X0049815Y0136855D03*
D64*
X0052355Y0136855D03*
X0054895Y0136855D03*
X0057435Y0136855D03*
X0059975Y0136855D03*
X0062515Y0136855D03*
X0065055Y0136855D03*
D62*
X0080650Y0158445D03*
D18*
X0080650Y0159715D03*
X0080650Y0160985D03*
X0080650Y0162255D03*
X0080650Y0163525D03*
X0080650Y0164795D03*
X0080650Y0166065D03*
X0080650Y0167335D03*
X0080650Y0168605D03*
X0080650Y0169875D03*
X0080650Y0171145D03*
X0080650Y0172415D03*
X0080650Y0173685D03*
X0080650Y0174955D03*
X0080650Y0176225D03*
X0079380Y0158445D03*
X0079380Y0159715D03*
X0079380Y0160985D03*
X0079380Y0162255D03*
X0079380Y0163525D03*
X0079380Y0164795D03*
X0079380Y0166065D03*
X0079380Y0167335D03*
X0079380Y0168605D03*
X0079380Y0169875D03*
X0079380Y0171145D03*
X0079380Y0172415D03*
X0079380Y0173685D03*
X0079380Y0174955D03*
X0079380Y0176225D03*
X0059620Y0164815D03*
X0059620Y0166085D03*
X0059620Y0167355D03*
X0059620Y0168625D03*
X0059620Y0169895D03*
X0059620Y0171165D03*
X0059620Y0172435D03*
X0059620Y0173705D03*
X0059620Y0174975D03*
X0059620Y0176245D03*
X0058350Y0164815D03*
X0058350Y0166085D03*
X0058350Y0167355D03*
X0058350Y0168625D03*
X0058350Y0169895D03*
X0058350Y0171165D03*
X0058350Y0172435D03*
X0058350Y0173705D03*
X0058350Y0174975D03*
D62*
X0058350Y0176245D03*
X0181000Y0124000D02*
G75*
G01*
%LPD*%
D36*
X0191500Y0126770D03*
D75*
X0191500Y0181630D03*
D38*
X0191500Y0136930D03*
X0191500Y0171470D03*
D35*
X0184030Y0126770D03*
D44*
X0203500Y0147760D03*
D40*
X0203500Y0150300D03*
X0203500Y0152840D03*
X0203500Y0155380D03*
X0203500Y0157920D03*
X0203500Y0160460D03*
X0203500Y0163000D03*
X0203500Y0165540D03*
X0203500Y0168080D03*
X0203500Y0170620D03*
X0203500Y0173160D03*
X0203500Y0175700D03*
D44*
X0243500Y0147760D03*
D40*
X0243500Y0150300D03*
X0243500Y0152840D03*
X0243500Y0155380D03*
X0243500Y0157920D03*
X0243500Y0160460D03*
X0243500Y0163000D03*
X0243500Y0165540D03*
X0243500Y0168080D03*
X0243500Y0170620D03*
X0243500Y0173160D03*
X0243500Y0175700D03*
D27*
X0227489Y0155167D03*
X0227489Y0154167D03*
X0228989Y0155167D03*
X0228239Y0154667D03*
X0228989Y0154167D03*
D24*
X0233500Y0128271D03*
X0233500Y0125571D03*
X0213500Y0128223D03*
X0213500Y0125523D03*
D36*
X0255500Y0126770D03*
D75*
X0255500Y0181630D03*
D38*
X0255500Y0136930D03*
X0255500Y0171470D03*
D35*
X0248030Y0126770D03*
X0000000Y0094000D02*
G75*
G01*
%LPD*%
D44*
X0036240Y0096500D03*
D40*
X0033700Y0096500D03*
X0031160Y0096500D03*
X0028620Y0096500D03*
X0026080Y0096500D03*
X0023540Y0096500D03*
X0021000Y0096500D03*
X0018460Y0096500D03*
X0015920Y0096500D03*
X0013380Y0096500D03*
X0010840Y0096500D03*
X0008300Y0096500D03*
D44*
X0036240Y0136500D03*
D40*
X0033700Y0136500D03*
X0031160Y0136500D03*
X0028620Y0136500D03*
X0026080Y0136500D03*
X0023540Y0136500D03*
X0021000Y0136500D03*
X0018460Y0136500D03*
X0015920Y0136500D03*
X0013380Y0136500D03*
X0010840Y0136500D03*
X0008300Y0136500D03*
D65*
X0036968Y0121890D03*
D57*
X0036968Y0124390D03*
X0036968Y0126390D03*
X0036968Y0128890D03*
D54*
X0039668Y0118820D03*
X0039668Y0131960D03*
D67*
X0042145Y0096815D03*
D64*
X0042145Y0099355D03*
X0042145Y0101895D03*
X0042145Y0104435D03*
X0042145Y0106975D03*
X0042145Y0109515D03*
X0042145Y0112055D03*
D62*
X0020555Y0127650D03*
D18*
X0019285Y0127650D03*
X0018015Y0127650D03*
X0016745Y0127650D03*
X0015475Y0127650D03*
X0014205Y0127650D03*
X0012935Y0127650D03*
X0011665Y0127650D03*
X0010395Y0127650D03*
X0009125Y0127650D03*
X0007855Y0127650D03*
X0006585Y0127650D03*
X0005315Y0127650D03*
X0004045Y0127650D03*
X0002775Y0127650D03*
X0020555Y0126380D03*
X0019285Y0126380D03*
X0018015Y0126380D03*
X0016745Y0126380D03*
X0015475Y0126380D03*
X0014205Y0126380D03*
X0012935Y0126380D03*
X0011665Y0126380D03*
X0010395Y0126380D03*
X0009125Y0126380D03*
X0007855Y0126380D03*
X0006585Y0126380D03*
X0005315Y0126380D03*
X0004045Y0126380D03*
X0002775Y0126380D03*
X0014185Y0106620D03*
X0012915Y0106620D03*
X0011645Y0106620D03*
X0010375Y0106620D03*
X0009105Y0106620D03*
X0007835Y0106620D03*
X0006565Y0106620D03*
X0005295Y0106620D03*
X0004025Y0106620D03*
X0002755Y0106620D03*
X0014185Y0105350D03*
X0012915Y0105350D03*
X0011645Y0105350D03*
X0010375Y0105350D03*
X0009105Y0105350D03*
X0007835Y0105350D03*
X0006565Y0105350D03*
X0005295Y0105350D03*
X0004025Y0105350D03*
D62*
X0002755Y0105350D03*
X0196000Y0000000D02*
G75*
G01*
%LPD*%
D36*
X0206500Y0002770D03*
D75*
X0206500Y0057630D03*
D38*
X0206500Y0012930D03*
X0206500Y0047470D03*
D35*
X0199030Y0002770D03*
D44*
X0218500Y0023760D03*
D40*
X0218500Y0026300D03*
X0218500Y0028840D03*
X0218500Y0031380D03*
X0218500Y0033920D03*
X0218500Y0036460D03*
X0218500Y0039000D03*
X0218500Y0041540D03*
X0218500Y0044080D03*
X0218500Y0046620D03*
X0218500Y0049160D03*
X0218500Y0051700D03*
D44*
X0258500Y0023760D03*
D40*
X0258500Y0026300D03*
X0258500Y0028840D03*
X0258500Y0031380D03*
X0258500Y0033920D03*
X0258500Y0036460D03*
X0258500Y0039000D03*
X0258500Y0041540D03*
X0258500Y0044080D03*
X0258500Y0046620D03*
X0258500Y0049160D03*
X0258500Y0051700D03*
D27*
X0242489Y0031167D03*
X0242489Y0030167D03*
X0243989Y0031167D03*
X0243239Y0030667D03*
X0243989Y0030167D03*
D24*
X0248500Y0004271D03*
X0248500Y0001571D03*
X0228500Y0004223D03*
X0228500Y0001523D03*
D36*
X0270500Y0002770D03*
D75*
X0270500Y0057630D03*
D38*
X0270500Y0012930D03*
X0270500Y0047470D03*
D35*
X0263030Y0002770D03*
X0196000Y0062000D02*
G75*
G01*
%LPD*%
D36*
X0206500Y0064770D03*
D75*
X0206500Y0119630D03*
D38*
X0206500Y0074930D03*
X0206500Y0109470D03*
D35*
X0199030Y0064770D03*
D44*
X0218500Y0085760D03*
D40*
X0218500Y0088300D03*
X0218500Y0090840D03*
X0218500Y0093380D03*
X0218500Y0095920D03*
X0218500Y0098460D03*
X0218500Y0101000D03*
X0218500Y0103540D03*
X0218500Y0106080D03*
X0218500Y0108620D03*
X0218500Y0111160D03*
X0218500Y0113700D03*
D44*
X0258500Y0085760D03*
D40*
X0258500Y0088300D03*
X0258500Y0090840D03*
X0258500Y0093380D03*
X0258500Y0095920D03*
X0258500Y0098460D03*
X0258500Y0101000D03*
X0258500Y0103540D03*
X0258500Y0106080D03*
X0258500Y0108620D03*
X0258500Y0111160D03*
X0258500Y0113700D03*
D27*
X0242489Y0093167D03*
X0242489Y0092167D03*
X0243989Y0093167D03*
X0243239Y0092667D03*
X0243989Y0092167D03*
D24*
X0248500Y0066271D03*
X0248500Y0063571D03*
X0228500Y0066223D03*
X0228500Y0063523D03*
D36*
X0270500Y0064770D03*
D75*
X0270500Y0119630D03*
D38*
X0270500Y0074930D03*
X0270500Y0109470D03*
D35*
X0263030Y0064770D03*
X0000000Y0141000D02*
G75*
G01*
%LPD*%
D44*
X0036240Y0143500D03*
D40*
X0033700Y0143500D03*
X0031160Y0143500D03*
X0028620Y0143500D03*
X0026080Y0143500D03*
X0023540Y0143500D03*
X0021000Y0143500D03*
X0018460Y0143500D03*
X0015920Y0143500D03*
X0013380Y0143500D03*
X0010840Y0143500D03*
X0008300Y0143500D03*
D44*
X0036240Y0183500D03*
D40*
X0033700Y0183500D03*
X0031160Y0183500D03*
X0028620Y0183500D03*
X0026080Y0183500D03*
X0023540Y0183500D03*
X0021000Y0183500D03*
X0018460Y0183500D03*
X0015920Y0183500D03*
X0013380Y0183500D03*
X0010840Y0183500D03*
X0008300Y0183500D03*
D65*
X0036968Y0168890D03*
D57*
X0036968Y0171390D03*
X0036968Y0173390D03*
X0036968Y0175890D03*
D54*
X0039668Y0165820D03*
X0039668Y0178960D03*
D67*
X0042145Y0143815D03*
D64*
X0042145Y0146355D03*
X0042145Y0148895D03*
X0042145Y0151435D03*
X0042145Y0153975D03*
X0042145Y0156515D03*
X0042145Y0159055D03*
D62*
X0020555Y0174650D03*
D18*
X0019285Y0174650D03*
X0018015Y0174650D03*
X0016745Y0174650D03*
X0015475Y0174650D03*
X0014205Y0174650D03*
X0012935Y0174650D03*
X0011665Y0174650D03*
X0010395Y0174650D03*
X0009125Y0174650D03*
X0007855Y0174650D03*
X0006585Y0174650D03*
X0005315Y0174650D03*
X0004045Y0174650D03*
X0002775Y0174650D03*
X0020555Y0173380D03*
X0019285Y0173380D03*
X0018015Y0173380D03*
X0016745Y0173380D03*
X0015475Y0173380D03*
X0014205Y0173380D03*
X0012935Y0173380D03*
X0011665Y0173380D03*
X0010395Y0173380D03*
X0009125Y0173380D03*
X0007855Y0173380D03*
X0006585Y0173380D03*
X0005315Y0173380D03*
X0004045Y0173380D03*
X0002775Y0173380D03*
X0014185Y0153620D03*
X0012915Y0153620D03*
X0011645Y0153620D03*
X0010375Y0153620D03*
X0009105Y0153620D03*
X0007835Y0153620D03*
X0006565Y0153620D03*
X0005295Y0153620D03*
X0004025Y0153620D03*
X0002755Y0153620D03*
X0014185Y0152350D03*
X0012915Y0152350D03*
X0011645Y0152350D03*
X0010375Y0152350D03*
X0009105Y0152350D03*
X0007835Y0152350D03*
X0006565Y0152350D03*
X0005295Y0152350D03*
X0004025Y0152350D03*
D62*
X0002755Y0152350D03*
X0268000Y0124000D02*
G75*
G01*
%LPD*%
D36*
X0278500Y0126770D03*
D75*
X0278500Y0181630D03*
D38*
X0278500Y0136930D03*
X0278500Y0171470D03*
D35*
X0271030Y0126770D03*
D44*
X0290500Y0147760D03*
D40*
X0290500Y0150300D03*
X0290500Y0152840D03*
X0290500Y0155380D03*
X0290500Y0157920D03*
X0290500Y0160460D03*
X0290500Y0163000D03*
X0290500Y0165540D03*
X0290500Y0168080D03*
X0290500Y0170620D03*
X0290500Y0173160D03*
X0290500Y0175700D03*
D44*
X0330500Y0147760D03*
D40*
X0330500Y0150300D03*
X0330500Y0152840D03*
X0330500Y0155380D03*
X0330500Y0157920D03*
X0330500Y0160460D03*
X0330500Y0163000D03*
X0330500Y0165540D03*
X0330500Y0168080D03*
X0330500Y0170620D03*
X0330500Y0173160D03*
X0330500Y0175700D03*
D27*
X0314489Y0155167D03*
X0314489Y0154167D03*
X0315989Y0155167D03*
X0315239Y0154667D03*
X0315989Y0154167D03*
D24*
X0320500Y0128271D03*
X0320500Y0125571D03*
X0300500Y0128223D03*
X0300500Y0125523D03*
D36*
X0342500Y0126770D03*
D75*
X0342500Y0181630D03*
D38*
X0342500Y0136930D03*
X0342500Y0171470D03*
D35*
X0335030Y0126770D03*
X0283000Y0000000D02*
G75*
G01*
%LPD*%
D36*
X0293500Y0002770D03*
D75*
X0293500Y0057630D03*
D38*
X0293500Y0012930D03*
X0293500Y0047470D03*
D35*
X0286030Y0002770D03*
D44*
X0305500Y0023760D03*
D40*
X0305500Y0026300D03*
X0305500Y0028840D03*
X0305500Y0031380D03*
X0305500Y0033920D03*
X0305500Y0036460D03*
X0305500Y0039000D03*
X0305500Y0041540D03*
X0305500Y0044080D03*
X0305500Y0046620D03*
X0305500Y0049160D03*
X0305500Y0051700D03*
D44*
X0345500Y0023760D03*
D40*
X0345500Y0026300D03*
X0345500Y0028840D03*
X0345500Y0031380D03*
X0345500Y0033920D03*
X0345500Y0036460D03*
X0345500Y0039000D03*
X0345500Y0041540D03*
X0345500Y0044080D03*
X0345500Y0046620D03*
X0345500Y0049160D03*
X0345500Y0051700D03*
D27*
X0329489Y0031167D03*
X0329489Y0030167D03*
X0330989Y0031167D03*
X0330239Y0030667D03*
X0330989Y0030167D03*
D24*
X0335500Y0004271D03*
X0335500Y0001571D03*
X0315500Y0004223D03*
X0315500Y0001523D03*
D36*
X0357500Y0002770D03*
D75*
X0357500Y0057630D03*
D38*
X0357500Y0012930D03*
X0357500Y0047470D03*
D35*
X0350030Y0002770D03*
X0283000Y0062000D02*
G75*
G01*
%LPD*%
D36*
X0293500Y0064770D03*
D75*
X0293500Y0119630D03*
D38*
X0293500Y0074930D03*
X0293500Y0109470D03*
D35*
X0286030Y0064770D03*
D44*
X0305500Y0085760D03*
D40*
X0305500Y0088300D03*
X0305500Y0090840D03*
X0305500Y0093380D03*
X0305500Y0095920D03*
X0305500Y0098460D03*
X0305500Y0101000D03*
X0305500Y0103540D03*
X0305500Y0106080D03*
X0305500Y0108620D03*
X0305500Y0111160D03*
X0305500Y0113700D03*
D44*
X0345500Y0085760D03*
D40*
X0345500Y0088300D03*
X0345500Y0090840D03*
X0345500Y0093380D03*
X0345500Y0095920D03*
X0345500Y0098460D03*
X0345500Y0101000D03*
X0345500Y0103540D03*
X0345500Y0106080D03*
X0345500Y0108620D03*
X0345500Y0111160D03*
X0345500Y0113700D03*
D27*
X0329489Y0093167D03*
X0329489Y0092167D03*
X0330989Y0093167D03*
X0330239Y0092667D03*
X0330989Y0092167D03*
D24*
X0335500Y0066271D03*
X0335500Y0063571D03*
X0315500Y0066223D03*
X0315500Y0063523D03*
D36*
X0357500Y0064770D03*
D75*
X0357500Y0119630D03*
D38*
X0357500Y0074930D03*
X0357500Y0109470D03*
D35*
X0350030Y0064770D03*
M02*
